<?xml version="1.0" encoding="UTF-8"?>
<svg version="1.1" xmlns="http://www.w3.org/2000/svg" width="512" height="512">
<path d="M0 0 C1.20543457 -0.00852997 2.41086914 -0.01705994 3.65283203 -0.02584839 C4.96205627 -0.02494202 6.27128052 -0.02403564 7.62017822 -0.02310181 C9.02354285 -0.02909127 10.42690418 -0.03589778 11.83026123 -0.04345703 C15.63212674 -0.06108405 19.43390214 -0.06581108 23.23580456 -0.0670886 C25.61489733 -0.06851289 27.99396739 -0.0727878 30.3730545 -0.07808304 C38.68395942 -0.09657402 46.99480029 -0.10475502 55.3057251 -0.10317993 C63.03448271 -0.10197952 70.76296061 -0.12306439 78.49164748 -0.15466726 C85.14156452 -0.18088321 91.79139053 -0.19154497 98.4413588 -0.19026911 C102.40662113 -0.18976094 106.37163487 -0.19536317 110.3368454 -0.21662521 C114.06999975 -0.2360971 117.80267074 -0.23607174 121.5358429 -0.22159195 C123.54491539 -0.21852905 125.5539884 -0.23511837 127.56298828 -0.25247192 C137.53449438 -0.18372056 145.89277673 1.60166738 153.34771729 8.56430054 C159.23211968 15.10919708 162.11022083 22.13998243 162.16607666 30.96859741 C162.17949097 32.28436768 162.19290527 33.60013794 162.20672607 34.95578003 C162.20928909 35.65255356 162.21185211 36.34932709 162.2144928 37.06721497 C162.2228563 39.2728354 162.24343464 41.47805624 162.26702881 43.68356323 C162.31508955 48.37812359 162.34804944 53.07272519 162.37896729 57.76742554 C162.41489158 63.18654204 162.4573262 68.60546569 162.51490784 74.0243988 C162.53462917 76.17212749 162.54322784 78.31969956 162.5512085 80.46749878 C162.69080284 98.82562264 165.14633416 115.21836763 177.87896729 129.26742554 C188.43824041 138.42597876 200.07542014 142.45467455 213.20709229 146.32992554 C214.80379676 146.80717653 216.40028983 147.28513531 217.99658203 147.76376343 C222.18546195 149.01796325 226.37680766 150.26370287 230.56884766 151.5072937 C237.26269235 153.49478069 243.95245766 155.49596835 250.64266205 157.4956665 C252.95930114 158.18693509 255.27684802 158.87508009 257.59460449 159.56259155 C291.01912059 169.49844474 291.01912059 169.49844474 298.20318604 182.70101929 C309.75817799 209.98701784 293.17121727 252.91265197 282.92926025 278.68832397 C271.90537312 305.75860377 257.98389299 331.26270228 239.87896729 354.26742554 C239.23830322 355.10015991 238.59763916 355.93289429 237.93756104 356.79086304 C230.58823286 366.20394195 222.42048969 374.92927271 213.87896729 383.26742554 C213.05396729 384.09242554 212.22896729 384.91742554 211.37896729 385.76742554 C210.55396729 386.59242554 209.72896729 387.41742554 208.87896729 388.26742554 C208.42650635 388.75469116 207.97404541 389.24195679 207.50787354 389.74398804 C201.58124139 395.98099244 194.71761675 401.08740374 187.87896729 406.26742554 C187.3285376 406.68927124 186.77810791 407.11111694 186.21099854 407.54574585 C155.51712619 430.93774663 115.68568035 448.09101887 76.62896729 448.50570679 C75.86164276 448.51550064 75.09431824 448.52529449 74.30374146 448.53538513 C17.06816711 449.11500506 -32.46747926 429.01625167 -74.71087646 390.45492554 C-77.04684526 388.33475937 -79.42430147 386.27045244 -81.80853271 384.20492554 C-85.24809939 381.15020548 -88.29821814 377.94938112 -91.26165771 374.43539429 C-93.37237279 371.97437146 -95.5895852 369.63124064 -97.80853271 367.26742554 C-138.00262039 323.10882238 -171.58619642 254.07852167 -169.49212646 193.54086304 C-168.40403229 183.94272706 -163.66687082 176.31018956 -156.12103271 170.26742554 C-147.72578639 165.6574359 -138.58921179 163.10582382 -129.44798088 160.44689941 C-126.8417959 159.68845973 -124.23889267 158.91955745 -121.6365509 158.14804077 C-115.17822649 156.23545946 -108.71518874 154.33903541 -102.25146484 152.4447937 C-96.77045114 150.83817641 -91.29176866 149.22403666 -85.81604195 147.5994873 C-83.26918391 146.84714947 -80.71929308 146.10582232 -78.16911316 145.36483765 C-61.4817739 140.45420104 -47.11369427 134.05046419 -38.12103271 118.26742554 C-31.55007589 105.68474226 -30.83271799 92.46522148 -30.84663773 78.49953461 C-30.84762482 76.31116871 -30.83441469 74.12326557 -30.81765747 71.93496704 C-30.77200302 65.72518243 -30.74677282 59.51545902 -30.74017334 53.30551147 C-30.73512877 49.47659463 -30.71075334 45.64818079 -30.67484665 41.81943512 C-30.66513808 40.37636601 -30.66266711 38.93322704 -30.66801834 37.49013519 C-30.70702832 26.46863455 -29.59159925 17.11533011 -21.82415771 8.79867554 C-15.50775353 3.11970664 -8.55065773 0.02746742 0 0 Z " fill="#09115E" transform="translate(190.12103271484375,31.732574462890625)"/>
<path d="M0 0 C2.28125 2.07421875 2.28125 2.07421875 4.5 4.6875 C5.28246094 5.595 6.06492187 6.5025 6.87109375 7.4375 C8.45288725 9.34145694 10.01446104 11.256387 11.5625 13.1875 C14.75184914 16.86751824 18.25930905 19.89145682 22 23 C22.49193848 23.42023438 22.98387695 23.84046875 23.49072266 24.2734375 C57.41549032 53.18554765 97.27862546 66.90364346 141 72 C141 79.26 141 86.52 141 94 C137.8134375 94.061875 137.8134375 94.061875 134.5625 94.125 C127.47339785 94.70210279 122.90685631 95.71021298 118 101 C114.670238 105.45789942 111.86426129 110.22045617 109.12060547 115.05371094 C108.13661328 116.76272744 107.09050493 118.43566419 106.03515625 120.1015625 C102.18763679 126.38433546 100.58436073 131.64745497 102 139 C104.36027707 145.92817646 109.45934352 150.94181378 114.38671875 156.17578125 C116.89955076 158.89144274 119.24233842 161.68159885 121.5625 164.5625 C125.86159309 169.88120101 130.36433907 174.97348923 135 180 C136.299375 181.4540625 136.299375 181.4540625 137.625 182.9375 C142.78834834 187.4214604 147.92077099 188.51737066 154.57421875 188.28515625 C168.06404362 186.69939584 178.77237485 169.67764718 186.80078125 159.66015625 C189.04525045 156.94526544 191.40591503 154.38397334 193.8125 151.8125 C199.3022731 145.71808406 202.95845736 140.28187053 202.5703125 131.8203125 C201.32863143 125.67994446 198.11166066 120.36015033 195 115 C194.64695801 114.37416016 194.29391602 113.74832031 193.93017578 113.10351562 C187.58510005 101.82639934 187.58510005 101.82639934 177 95 C172.26275085 94.2708056 167.81502177 94.09349557 163 94 C163 86.74 163 79.48 163 72 C166.1175683 70.96081057 168.41337949 70.86276184 171.6875 70.75 C189.72232175 69.52162205 207.27010659 64.68429429 224 58 C224.75974121 57.69723145 225.51948242 57.39446289 226.30224609 57.08251953 C248.03918526 48.25787348 267.79035124 35.88175544 284.96484375 19.8828125 C286.65909563 18.31538562 288.37699061 16.86510793 290.1875 15.4375 C294.35756566 11.8234431 298.17493241 7.69841281 301.2734375 3.1171875 C302.4375 1.4375 302.4375 1.4375 305 -1 C311.48971646 -0.70474489 317.480676 1.13884817 323.66796875 3.01953125 C325.16472893 3.46929573 325.16472893 3.46929573 326.69172668 3.92814636 C328.78956868 4.56109637 330.88637297 5.19749491 332.98217773 5.8371582 C336.18418572 6.8114915 339.39153737 7.76655392 342.59960938 8.72070312 C344.64358272 9.33998009 346.6872149 9.96038449 348.73046875 10.58203125 C350.16340523 11.00570732 350.16340523 11.00570732 351.62528992 11.4379425 C356.49301806 12.94360082 360.30111002 14.31897678 364 18 C371.70592779 33.41185557 359.94449297 63.72035895 355 79 C354.5671167 80.36390869 354.5671167 80.36390869 354.12548828 81.75537109 C340.59918316 123.9875828 317.59536666 161.07295253 287 193 C286.22011719 193.82113281 285.44023437 194.64226562 284.63671875 195.48828125 C279.13207979 201.14935756 273.19149906 206.10979325 267 211 C266.04738281 211.78117188 265.09476562 212.56234375 264.11328125 213.3671875 C249.89057698 224.76720399 233.84950456 234.06091832 217 241 C216.17790039 241.34015137 215.35580078 241.68030273 214.50878906 242.03076172 C184.41219302 254.16901326 151.78950417 257.47516765 120 251 C119.18080078 250.83371094 118.36160156 250.66742188 117.51757812 250.49609375 C87.04028891 244.07230914 60.15741781 229.36485133 36 210 C35.20142578 209.36022217 35.20142578 209.36022217 34.38671875 208.70751953 C21.6157593 198.3874346 10.09696546 186.96135283 0 174 C-0.87857473 172.91013941 -1.75886862 171.82166308 -2.640625 170.734375 C-35.00609927 130.58912171 -61.05312831 75.19573241 -61.53125 22.9609375 C-60.853892 19.18566275 -59.77516345 17.64000939 -57 15 C-52.30039764 12.60247287 -47.37557531 11.11377806 -42.3125 9.6875 C-40.82011258 9.25850739 -39.32793407 8.8287875 -37.8359375 8.3984375 C-37.05444336 8.17381836 -36.27294922 7.94919922 -35.46777344 7.71777344 C-30.28241482 6.20956664 -25.11818182 4.6291612 -19.95239258 3.05541992 C-17.63877865 2.35626254 -15.32107726 1.67392638 -13 1 C-12.27699707 0.7839209 -11.55399414 0.5678418 -10.80908203 0.34521484 C-6.88636476 -0.75182404 -3.84560604 -1.54746133 0 0 Z " fill="#FECCB3" transform="translate(104,205)"/>
<path d="M0 0 C1.67592728 -0.01268921 1.67592728 -0.01268921 3.38571167 -0.02563477 C4.60195724 -0.01956207 5.81820282 -0.01348938 7.07130432 -0.00723267 C8.35962158 -0.01248962 9.64793884 -0.01774658 10.97529602 -0.02316284 C14.50223624 -0.03681999 18.02891269 -0.0315442 21.55585742 -0.02202559 C25.25128552 -0.01441901 28.94669136 -0.02147752 32.64212036 -0.02618408 C38.84853663 -0.03163942 45.05484574 -0.0244566 51.26124573 -0.01016235 C58.42937994 0.00615661 65.59725806 0.00088036 72.76538604 -0.01564157 C78.92606144 -0.02927139 85.0866599 -0.03116859 91.24734551 -0.02332556 C94.92403837 -0.01865631 98.600611 -0.01800335 102.27729607 -0.02793503 C106.37805631 -0.03823869 110.47837772 -0.02394294 114.57911682 -0.00723267 C115.79333817 -0.01330536 117.00755951 -0.01937805 118.25857544 -0.02563477 C128.95079918 0.05511713 128.95079918 0.05511713 133.38990784 3.38095093 C136.63925566 7.30658395 136.75859083 10.5654139 136.74293518 15.56356812 C136.74509537 16.26850906 136.74725555 16.97345001 136.7494812 17.69975281 C136.75256081 19.22639774 136.74898406 20.7530676 136.73946762 22.27968597 C136.72564564 24.71298166 136.73221991 27.14546885 136.74430847 29.57876587 C136.77512471 36.49579168 136.7706214 43.41263003 136.7502594 50.3296814 C136.73920032 54.56970889 136.75283831 58.80913528 136.78015518 63.0490799 C136.78552033 64.64827362 136.78172947 66.24753037 136.76775742 67.84667206 C136.57725901 89.93679857 143.6673969 109.18929432 159.21803284 125.27157593 C168.84403001 134.25044724 179.99756308 139.5164716 192.38990784 143.38095093 C188.95472678 150.60721019 183.39988385 155.31410971 177.38990784 160.38095093 C176.5249469 161.14536499 175.65998596 161.90977905 174.76881409 162.69735718 C166.85289138 169.56068772 158.42472033 175.09790139 149.38990784 180.38095093 C148.78839905 180.7393103 148.18689026 181.09766968 147.56715393 181.46688843 C111.8038016 202.58940127 66.83817305 208.61485945 26.38990784 200.38095093 C25.56377991 200.21466187 24.73765198 200.0483728 23.88648987 199.87704468 C-6.33982816 193.56162129 -34.67826417 179.26778444 -56.99681091 157.85360718 C-58.89431341 156.05821244 -60.77985625 154.3850672 -62.79368591 152.73251343 C-65.50778841 150.46636959 -67.58065657 148.26899389 -69.61009216 145.38095093 C-69.61009216 144.72095093 -69.61009216 144.06095093 -69.61009216 143.38095093 C-68.58270935 143.02903687 -67.55532654 142.6771228 -66.49681091 142.31454468 C-45.76126262 135.01531039 -30.96137614 122.97912783 -21.04759216 103.27548218 C-15.75707671 91.35607683 -14.17254532 79.54920081 -14.19940186 66.63998413 C-14.20395443 64.25975669 -14.18968043 61.88024391 -14.17100525 59.50009155 C-14.12841565 53.60227896 -14.11694742 47.70448863 -14.1047821 41.80654907 C-14.0932424 36.79034803 -14.06969431 31.77448322 -14.03009033 26.75842285 C-14.01656874 24.42013212 -14.02067787 22.08230215 -14.02549744 19.74398804 C-14.01615839 18.31046971 -14.00598997 16.87695646 -13.99485779 15.44345093 C-13.99280334 14.19692749 -13.9907489 12.95040405 -13.9886322 11.66610718 C-13.56920988 8.02615443 -12.8831117 6.23560654 -10.61009216 3.38095093 C-6.96206887 0.77285472 -4.46121548 0.00521071 0 0 Z " fill="#FECCB3" transform="translate(194.61009216308594,52.619049072265625)"/>
<path d="M0 0 C1.12595581 -0.00412399 2.25191162 -0.00824799 3.4119873 -0.01249695 C4.63765915 -0.00171112 5.86333099 0.00907471 7.12614441 0.02018738 C8.42409943 0.0197493 9.72205444 0.01931122 11.05934143 0.01885986 C14.6107102 0.01800028 18.16177405 0.03561981 21.71307206 0.05658174 C25.4273004 0.07535479 29.14153598 0.07709947 32.85580444 0.08065796 C39.88577474 0.08997659 46.91560483 0.11458786 53.94551343 0.14470643 C61.95029403 0.17825613 69.95508138 0.19473787 77.9599148 0.20979273 C94.42320293 0.24113763 110.8863501 0.29389452 127.34953308 0.36076355 C127.34953308 0.69076355 127.34953308 1.02076355 127.34953308 1.36076355 C95.00953308 1.36076355 62.66953308 1.36076355 29.34953308 1.36076355 C29.42856462 27.56759232 29.42856462 27.56759232 29.52970886 53.77433777 C29.53874207 58.87077332 29.53874207 58.87077332 29.54042053 61.26509094 C29.54346919 62.91882914 29.55045605 64.57256321 29.5606842 66.22627258 C29.68536248 87.46698574 25.61345658 105.42915964 10.66203308 121.61076355 C-1.36557575 132.88811218 -17.3421196 139.52874794 -33.79890442 139.4584198 C-34.78499191 139.45629738 -34.78499191 139.45629738 -35.79100037 139.45413208 C-37.86920423 139.44858117 -39.94729619 139.4360382 -42.02546692 139.42326355 C-43.4434341 139.41824219 -44.86140299 139.4136804 -46.27937317 139.40959167 C-49.73644014 139.39862791 -53.19344259 139.38139776 -56.65046692 139.36076355 C-54.90485084 138.1970195 -53.14124693 137.0579841 -51.33796692 135.98576355 C-32.95541202 124.87073036 -21.34145943 109.39474238 -16.04304504 88.55607605 C-14.40439701 81.23056859 -14.22425577 74.08024701 -14.23977661 66.61979675 C-14.24432918 64.23956931 -14.23005518 61.86005653 -14.21138 59.47990417 C-14.1687904 53.58209158 -14.15732217 47.68430125 -14.14515686 41.78636169 C-14.13361716 36.77016066 -14.11006906 31.75429584 -14.07046509 26.73823547 C-14.05694349 24.39994474 -14.06105263 22.06211478 -14.06587219 19.72380066 C-14.05653315 18.29028233 -14.04636472 16.85676908 -14.03523254 15.42326355 C-14.0331781 14.17674011 -14.03112366 12.93021667 -14.02900696 11.6459198 C-13.60958464 8.00596705 -12.92348645 6.21541916 -10.65046692 3.36076355 C-6.98560131 0.73565161 -4.48387798 -0.0127022 0 0 Z " fill="#F2A08C" transform="translate(194.6504669189453,52.63923645019531)"/>
<path d="M0 0 C0.86078156 0.01140015 1.72156311 0.02280029 2.60842896 0.0345459 C18.53780306 0.31983136 18.53780306 0.31983136 23.8125 5.703125 C26.87893866 10.1491425 29.56115667 15.54785592 28.76489258 21.06030273 C27.98846928 23.20444006 27.09199217 24.44717312 25.578125 26.14453125 C25.06113037 26.73226318 24.54413574 27.31999512 24.01147461 27.92553711 C23.45081299 28.54823486 22.89015137 29.17093262 22.3125 29.8125 C21.13088043 31.14266981 19.94991056 32.47341698 18.76953125 33.8046875 C18.15932129 34.49014648 17.54911133 35.17560547 16.92041016 35.88183594 C15.06177101 38.0008311 13.25033026 40.15229881 11.44921875 42.3203125 C10.87075195 43.01020264 10.29228516 43.70009277 9.69628906 44.41088867 C8.58168734 45.74253935 7.47527018 47.08109171 6.37792969 48.42700195 C4.83984375 50.24609375 4.83984375 50.24609375 2.0625 53 C-1.9375 53 -1.9375 53 -4.19921875 50.98046875 C-4.99972656 50.05878906 -5.80023438 49.13710938 -6.625 48.1875 C-7.05925293 47.69266113 -7.49350586 47.19782227 -7.94091797 46.68798828 C-11.65091211 42.42816573 -15.22144021 38.05132473 -18.75 33.640625 C-21.53094592 30.283626 -24.53170602 27.16369278 -27.6015625 24.0703125 C-28.9375 22 -28.9375 22 -28.73217773 19.85107422 C-24.12356946 3.31671862 -16.43879032 -0.66093004 0 0 Z " fill="#46C8EE" transform="translate(255.9375,318)"/>
<path d="M0 0 C9.57 0 19.14 0 29 0 C25.40839211 4.78881051 22.20529452 9.02818512 18.1875 13.3125 C13.90534839 17.94342414 9.91029236 22.73379863 6.0078125 27.6875 C4 30 4 30 0 33 C0 22.11 0 11.22 0 0 Z " fill="#1FACDF" transform="translate(256,339)"/>
<path d="M0 0 C14.05823363 -1.68302797 14.05823363 -1.68302797 19 0 C23.92973819 4.28745203 26.89589637 10.89851613 29 17 C29 17.66 29 18.32 29 19 C19.43 19 9.86 19 0 19 C0 12.73 0 6.46 0 0 Z " fill="#45C8EE" transform="translate(256,320)"/>
<path d="M0 0 C6.27 0 12.54 0 19 0 C19 6.27 19 12.54 19 19 C9.43 19 -0.14 19 -10 19 C-8.74835013 15.87087533 -7.69858563 13.28626875 -6.0546875 10.44921875 C-5.73483887 9.89322998 -5.41499023 9.33724121 -5.08544922 8.7644043 C-4.48627686 7.73633667 -4.48627686 7.73633667 -3.875 6.6875 C-2.59625 4.480625 -1.3175 2.27375 0 0 Z " fill="#6CE5FD" transform="translate(237,320)"/>
</svg>
