<?xml version="1.0" encoding="UTF-8"?>
<svg version="1.1" xmlns="http://www.w3.org/2000/svg" width="512" height="512">
<path d="M0 0 C3.88625009 1.12200516 7.68953492 2.47393303 11.45361328 3.95288086 C19.54487155 6.99401641 25.24297413 5.47982393 33.3125 2.4375 C39.52899329 0.25057512 45.41575423 -1.3902546 52 0 C55.41498053 1.68683514 57.38655368 4.03982316 59.4375 7.25 C61.02684288 15.02012076 58.22823785 21.46541009 55.05859375 28.49609375 C53.87019813 30.85394109 53.87019813 30.85394109 54 33 C54.67160156 32.84144531 55.34320313 32.68289062 56.03515625 32.51953125 C59.53295899 31.90660929 62.88669588 31.75544086 66.4375 31.6875 C67.71496094 31.65011719 68.99242187 31.61273437 70.30859375 31.57421875 C74.61571769 32.07101929 76.66261645 33.28715606 80 36 C84.12188681 41.45871496 85.12906274 45.43826269 85.5625 52.1875 C85.64628906 53.45980469 85.73007812 54.73210938 85.81640625 56.04296875 C85.87699219 57.01878906 85.93757812 57.99460938 86 59 C86.63164062 58.24976563 87.26328125 57.49953125 87.9140625 56.7265625 C98.21310555 44.81217524 113.35194011 31.49761742 129.62890625 29.5703125 C133.80339063 30.10240205 135.33340681 30.72262289 138 34 C138.71597044 37.10020643 138.6610308 40.08153524 138.5625 43.25 C138.54807861 44.1359082 138.53365723 45.02181641 138.51879883 45.93457031 C138.15190743 57.14033817 135.30403915 67.67030604 131 78 C132.74915445 79.43852875 134.49935795 80.87578198 136.25 82.3125 C137.22453125 83.11300781 138.1990625 83.91351563 139.203125 84.73828125 C140.58757812 85.85783203 140.58757812 85.85783203 142 87 C142.59594971 87.52875732 143.19189941 88.05751465 143.8059082 88.60229492 C146.60806957 90.38735933 148.59551455 90.46871923 151.90234375 90.625 C153.03994141 90.69203125 154.17753906 90.7590625 155.34960938 90.828125 C156.53361328 90.88484375 157.71761719 90.9415625 158.9375 91 C161.28057619 91.11261098 163.62311553 91.23717332 165.96484375 91.375 C167.52126587 91.44847656 167.52126587 91.44847656 169.10913086 91.5234375 C173.6095704 92.2653392 177.08832461 94.50598953 180 98 C181.7200523 103.16015691 181.93658308 108.04539183 179.5625 113 C176.53058987 116.54955332 173.28836009 119.81087442 169.92578125 123.046875 C167.94278242 124.85649143 167.94278242 124.85649143 167 127 C167.68964844 127.09796875 168.37929688 127.1959375 169.08984375 127.296875 C184.32312345 129.72082623 184.32312345 129.72082623 189.5 136.0625 C193.08752126 143.08806247 192.69973666 149.44572934 190.4375 156.8125 C184.24949051 173.74358152 173.06873715 185.85455721 157 194 C143.27882872 199.97633238 127.87789026 203.30619784 113 200 C112.72816895 200.86512207 112.45633789 201.73024414 112.17626953 202.62158203 C111.03424668 205.90163854 109.69332221 208.93080311 108.1796875 212.0546875 C107.64472656 213.16328125 107.10976563 214.271875 106.55859375 215.4140625 C106.00300781 216.55617187 105.44742188 217.69828125 104.875 218.875 C104.31167969 220.0403125 103.74835938 221.205625 103.16796875 222.40625 C101.78187239 225.27241534 100.39245478 228.13691978 99 231 C99.82806152 230.76933838 100.65612305 230.53867676 101.50927734 230.30102539 C118.30536042 225.80241734 136.57327757 226.44194328 153 232 C154.01964844 232.33515625 155.03929687 232.6703125 156.08984375 233.015625 C160.67706399 234.67413217 163.31018687 235.79056435 166 240 C167.21588515 243.3002597 167.17505328 244.57849013 165.8125 247.859375 C157.60248881 262.08534267 139.3011768 270.71721006 124 275 C118.3827907 276.3128297 112.70848229 277.19279854 107 278 C105.66795199 278.19128958 104.33591983 278.38268957 103.00390625 278.57421875 C102.01261719 278.71472656 101.02132812 278.85523438 100 279 C100.51949219 279.78761719 101.03898438 280.57523437 101.57421875 281.38671875 C108.9456646 292.90034489 116.61935068 306.88851549 115 321 C113.0625 324 113.0625 324 110 326 C98.70802675 327.63915741 87.37400186 322.95316398 77.50390625 317.84375 C76.77659302 317.4734668 76.04927979 317.10318359 75.29992676 316.72167969 C73.53050822 315.81987986 71.76484611 314.91071571 70 314 C70.00999275 314.82899055 70.00999275 314.82899055 70.02018738 315.67472839 C70.08662483 321.43356501 70.13183542 327.19229252 70.16479492 332.95141602 C70.17986915 335.09989851 70.20033189 337.2483503 70.22631836 339.39672852 C70.26276114 342.48721908 70.27974019 345.57730231 70.29296875 348.66796875 C70.30845261 349.62648239 70.32393646 350.58499603 70.33988953 351.57255554 C70.3411411 356.5467399 70.26816393 359.97401535 67 364 C66.34 364.66 65.68 365.32 65 366 C64.01 366 63.02 366 62 366 C62.04389359 366.56116013 62.08778717 367.12232025 62.13301086 367.70048523 C64.02520928 392.25915313 65.38013345 416.85195832 66.76928711 441.44311523 C67.1195598 447.63665288 67.47832645 453.82966993 67.83884716 460.02261829 C68.11713146 464.82903877 68.38924643 469.6357942 68.65966225 474.44266319 C68.78932553 476.72849405 68.92130144 479.01419499 69.05568504 481.29975319 C69.24183069 484.47530217 69.41921977 487.65122692 69.59448242 490.82739258 C69.65104004 491.75876541 69.70759766 492.69013824 69.76586914 493.6497345 C70.41164497 505.79783385 70.41164497 505.79783385 67.4375 510.4375 C63.97887837 512.65456515 61.00032082 512.82963533 57 512 C54.03141843 509.79259319 53.17134209 508.51402627 52 505 C51.96292765 503.03310564 51.9283374 501.06607735 51.9152832 499.09887695 C51.9585724 490.87428358 51.9585724 490.87428358 48.3125 483.8125 C47.71872559 483.29598877 47.12495117 482.77947754 46.51318359 482.24731445 C43.12081638 479.21382502 39.93699049 475.9895096 36.73046875 472.76171875 C36.08219116 472.1111853 35.43391357 471.46065186 34.76599121 470.79040527 C33.1761816 469.19473731 31.58755636 467.59790925 30 466 C29.98598145 467.82374146 29.98598145 467.82374146 29.97167969 469.68432617 C29.93174582 474.20406455 29.86597746 478.72312468 29.79248047 483.24243164 C29.76429056 485.19676996 29.74306617 487.15122186 29.72900391 489.10571289 C29.70754693 491.91872223 29.66088305 494.73036871 29.609375 497.54296875 C29.60814636 498.41398727 29.60691772 499.2850058 29.60565186 500.18241882 C29.50674 504.29804611 29.32133319 506.48371916 27.10058594 510.05175781 C24.69514223 512.28274815 23.73456108 512.65665674 20.5 512.5625 C19.7471875 512.56378906 18.994375 512.56507813 18.21875 512.56640625 C14.99628857 511.74377085 13.99340272 510.69006878 12 508 C11.37810602 504.81477593 11.39505479 501.65975858 11.390625 498.421875 C11.37408875 497.4953009 11.35755249 496.56872681 11.34051514 495.61407471 C11.29199274 492.659316 11.27065476 489.70507211 11.25 486.75 C11.22184387 484.74476571 11.19191695 482.73955544 11.16015625 480.734375 C11.08623255 475.82295904 11.03668376 470.91182959 11 466 C-4.58873405 478.31853815 -4.58873405 478.31853815 -11.99658203 495.79223633 C-12.05998509 498.45680842 -12.00913948 501.09094634 -11.91015625 503.75390625 C-11.80787777 507.0139457 -11.82295613 507.736249 -13.71484375 510.5546875 C-16.2152683 512.1361526 -17.56224505 512.5675304 -20.5 512.5625 C-21.2528125 512.58441406 -22.005625 512.60632813 -22.78125 512.62890625 C-26.28288266 511.63636601 -27.14992794 510.12625216 -29 507 C-29.4681043 503.36735226 -29.17279377 499.79846322 -28.9375 496.15234375 C-28.87804199 494.96454819 -28.81858398 493.77675262 -28.75732422 492.55296326 C-28.61490211 489.72186382 -28.45743202 486.89201238 -28.29150391 484.06219482 C-27.9531355 478.2643392 -27.65575461 472.46448187 -27.35546875 466.66455078 C-26.67058468 453.5426666 -25.94182758 440.42337533 -25.20825195 427.30413818 C-24.92811881 422.2710192 -24.65272894 417.23764468 -24.37722778 412.20427036 C-24.11038708 407.34262501 -23.84020667 402.48116963 -23.56903076 397.61976433 C-23.44034615 395.3045658 -23.31277092 392.98930533 -23.18634033 390.67398262 C-23.01048729 387.46156947 -22.83006316 384.24944475 -22.6484375 381.03735352 C-22.59749939 380.08943939 -22.54656128 379.14152527 -22.49407959 378.16488647 C-22.25571483 374.02714367 -21.99163026 370.04157171 -21 366 C-21.763125 365.938125 -22.52625 365.87625 -23.3125 365.8125 C-26 365 -26 365 -27.63598633 363.10864258 C-29.62374322 358.57846386 -29.47979209 354.34763348 -29.51171875 349.44921875 C-29.52966995 348.43527542 -29.54762115 347.42133209 -29.56611633 346.37666321 C-29.62017846 343.14698408 -29.65410244 339.91745243 -29.6875 336.6875 C-29.72067663 334.49412013 -29.75516661 332.3007597 -29.79101562 330.10742188 C-29.87590246 324.73841349 -29.94426971 319.36938593 -30 314 C-31.0629126 314.54849609 -32.1258252 315.09699219 -33.22094727 315.66210938 C-34.64843748 316.3896424 -36.07609973 317.11683793 -37.50390625 317.84375 C-38.20052368 318.20436523 -38.89714111 318.56498047 -39.61486816 318.93652344 C-48.95973992 323.6724839 -59.42674978 327.2133238 -70 326 C-72.5 325 -72.5 325 -74 323 C-77.63662393 311.18097223 -70.39758482 297.85283359 -65 287.55859375 C-63.18632964 284.23263179 -61.15148286 281.1167687 -59 278 C-59.90878906 277.97421875 -60.81757813 277.9484375 -61.75390625 277.921875 C-84.96120121 276.87457143 -107.19905791 268.26473723 -123.37109375 251.19921875 C-126.03909967 247.59709085 -126.37267019 245.47204233 -126 241 C-123.08757546 236.21477588 -119.49376744 234.57177506 -114.375 232.8125 C-113.71371094 232.56564453 -113.05242187 232.31878906 -112.37109375 232.06445312 C-103.03359561 228.70402913 -94.07696209 227.67368261 -84.1875 227.75 C-83.19685547 227.74226562 -82.20621094 227.73453125 -81.18554688 227.7265625 C-73.45201181 227.7465846 -66.82635798 228.79594493 -59 230 C-63.62 220.43 -68.24 210.86 -73 201 C-76.485625 201.0825 -79.97125 201.165 -83.5625 201.25 C-102.09630632 201.38183424 -117.93262641 196.42808271 -131.74487305 183.54296875 C-141.71090037 173.6386764 -149.35101994 160.22143591 -150.25 146.0625 C-150.16382338 140.97807941 -148.48948367 137.5825764 -145 133.875 C-139.04058765 130.15036728 -132.13382831 127.22877532 -125 128 C-125.42410156 127.5153125 -125.84820312 127.030625 -126.28515625 126.53125 C-127.5220051 125.11770846 -128.75338046 123.69936664 -129.98046875 122.27734375 C-131.27620159 120.81619821 -132.61007343 119.38752943 -133.98828125 118.00390625 C-137.94631984 113.93114191 -140.00422284 110.8835765 -140.203125 105.10546875 C-139.75697202 100.48092156 -137.8595033 97.8154262 -134.5625 94.6875 C-130.64489738 92.10761535 -127.37545726 91.89185619 -122.74609375 91.81640625 C-108.71656182 91.78196244 -108.71656182 91.78196244 -97.125 84.9375 C-95.71786138 83.31905838 -94.3332195 81.67985658 -93 80 C-92.34 79.67 -91.68 79.34 -91 79 C-91.18175781 78.39414063 -91.36351562 77.78828125 -91.55078125 77.1640625 C-92.08074126 75.39752914 -92.60928192 73.6305696 -93.13671875 71.86328125 C-93.69122829 70.02411612 -94.25551943 68.18785608 -94.83203125 66.35546875 C-95.09371094 65.51628906 -95.35539062 64.67710938 -95.625 63.8125 C-95.86476562 63.05582031 -96.10453125 62.29914062 -96.3515625 61.51953125 C-97.88991787 55.54218657 -98.25564804 49.51620067 -98.375 43.375 C-98.43107422 42.26898438 -98.43107422 42.26898438 -98.48828125 41.140625 C-98.55374941 37.0815988 -98.19580839 35.25058226 -95.66796875 32.015625 C-93 30 -93 30 -89.9375 29.375 C-72.65987282 32.1174805 -56.40378673 45.38183576 -46 59 C-45.90203125 58.01 -45.8040625 57.02 -45.703125 56 C-43.88091725 39.26323373 -43.88091725 39.26323373 -37.3984375 33.8125 C-33.13724922 31.53986625 -30.10552561 31.50271384 -25.375 31.6875 C-24.24964844 31.70200195 -24.24964844 31.70200195 -23.1015625 31.71679688 C-19.58679762 31.78846318 -16.38235781 32.06578469 -13 33 C-13.433125 31.9378125 -13.86625 30.875625 -14.3125 29.78125 C-14.87571157 28.35444735 -15.43817159 26.92734786 -16 25.5 C-16.28617188 24.80390625 -16.57234375 24.1078125 -16.8671875 23.390625 C-18.82352719 18.36003723 -19.43622057 14.40109948 -19 9 C-14.43339645 0.35607185 -9.32413812 -1.36348476 0 0 Z M84 185 C79.7196528 193.81181457 75.44406552 202.62591308 71.17608643 211.44372559 C69.51901572 214.86663048 67.86062601 218.28885394 66.19482422 221.70751953 C64.6667507 224.84437948 63.14508417 227.98426296 61.625 231.125 C61.17987061 232.03386963 60.73474121 232.94273926 60.27612305 233.87915039 C58.03140838 238.53559322 56.23859807 242.97755289 55 248 C58.32703463 249.66699021 61.27666255 250.70136841 65 251 C72.78026504 246.79554246 76.47078154 239.20465871 79.875 231.4375 C80.88750053 229.22632418 81.90053476 227.01539267 82.9140625 224.8046875 C83.41969727 223.68288086 83.92533203 222.56107422 84.44628906 221.40527344 C87.41048393 214.90863768 90.57402331 208.50624516 93.69873047 202.08569336 C94.13330566 201.18214111 94.56788086 200.27858887 95.015625 199.34765625 C95.40008789 198.55367432 95.78455078 197.75969238 96.18066406 196.94165039 C97.12959398 195.04413063 97.12959398 195.04413063 97 193 C94.59159479 191.21175254 94.59159479 191.21175254 91.625 189.4375 C90.62726563 188.81746094 89.62953125 188.19742188 88.6015625 187.55859375 C87.09604932 186.65664216 85.56973542 185.78486771 84 185 Z M-45 186 C-50.445 189.96 -50.445 189.96 -56 194 C-54.43447295 198.69658116 -52.6832492 202.969522 -50.515625 207.3828125 C-50.17754822 208.07833221 -49.83947144 208.77385193 -49.4911499 209.490448 C-48.41421806 211.70366647 -47.33213089 213.91431974 -46.25 216.125 C-45.53873733 217.58577922 -44.8277971 219.04671548 -44.1171875 220.5078125 C-42.73337457 223.35121353 -41.34240768 226.19093908 -39.94580078 229.02807617 C-38.70973718 231.54046122 -37.49834157 234.05988133 -36.30029297 236.59106445 C-35.53676514 238.18374146 -35.53676514 238.18374146 -34.7578125 239.80859375 C-34.3261377 240.72439209 -33.89446289 241.64019043 -33.44970703 242.58374023 C-30.96364137 246.72732255 -27.63698315 249.57383544 -23 251 C-19.76660151 250.56566289 -17.92511448 249.59551699 -15 248 C-15.63115644 243.63750435 -17.26732509 240.0090596 -19.2109375 236.1015625 C-19.53521729 235.43760468 -19.85949707 234.77364685 -20.19360352 234.08956909 C-21.24868076 231.93202394 -22.31167401 229.7784901 -23.375 227.625 C-24.46908322 225.39549184 -25.56139208 223.16512092 -26.6534729 220.93463135 C-27.3848885 219.44094027 -28.11696537 217.94757282 -28.84970093 216.45452881 C-31.08198088 211.90021763 -33.27662495 207.33082373 -35.4375 202.7421875 C-35.93975098 201.67661621 -36.44200195 200.61104492 -36.95947266 199.51318359 C-37.88562843 197.54170816 -38.80736093 195.56814718 -39.72412109 193.59228516 C-40.33634521 192.29363525 -40.33634521 192.29363525 -40.9609375 190.96875 C-41.30946777 190.22044922 -41.65799805 189.47214844 -42.01708984 188.70117188 C-42.89356184 186.82375311 -42.89356184 186.82375311 -45 186 Z " fill="#FE5F7A" transform="translate(235,0)"/>
<path d="M0 0 C2.05516816 2.05516816 2.62927189 3.28953553 3.6875 5.9375 C9.99229477 20.37826156 19.42583569 30.20071564 33 38 C33.99 38.5775 34.98 39.155 36 39.75 C51.02789413 46.01162255 69.37278951 46.69427208 84.58203125 40.66796875 C100.9225219 32.69380931 115.27422245 20.75370574 121.9375 3.3125 C122.288125 2.219375 122.63875 1.12625 123 0 C123.99 0.33 124.98 0.66 126 1 C125.43460787 5.53032067 124.24150878 9.03373109 122.2265625 13.12109375 C121.65397705 14.29333496 121.0813916 15.46557617 120.49145508 16.67333984 C119.86934958 17.9280828 119.24719689 19.18280236 118.625 20.4375 C117.99091783 21.73085993 117.35770704 23.0246474 116.7253418 24.31884766 C115.441753 26.94465673 114.15493985 29.56884463 112.86572266 32.19189453 C110.1449805 37.7354833 107.47626173 43.30385658 104.8125 48.875 C104.36793457 49.79982178 103.92336914 50.72464355 103.46533203 51.67749023 C101.19863126 56.41011867 99.02486959 61.15878084 97 66 C97.9075 66.144375 98.815 66.28875 99.75 66.4375 C103 67 103 67 104.96020508 67.70507812 C107.05840636 68.21353271 107.05840636 68.21353271 108.9362793 66.97070312 C114.7765887 61.91187961 117.70874221 56.50401688 120.8125 49.5 C121.31458984 48.41589844 121.81667969 47.33179688 122.33398438 46.21484375 C123.90665819 42.81755338 125.45493853 39.40992491 127 36 C128.98074397 31.65747964 130.98455621 27.32649973 133 23 C133.66672729 21.5140332 133.66672729 21.5140332 134.34692383 19.99804688 C134.76868896 19.09119141 135.1904541 18.18433594 135.625 17.25 C135.98851562 16.45078125 136.35203125 15.6515625 136.7265625 14.828125 C138 13 138 13 139.94628906 12.17211914 C143.23167063 11.89677511 145.734408 13.20110728 148.75 14.4375 C149.92046875 14.91058594 151.0909375 15.38367188 152.296875 15.87109375 C153.18890625 16.24363281 154.0809375 16.61617187 155 17 C154.36587572 21.21264183 152.92291543 24.57538684 151.05859375 28.39453125 C150.6278933 29.28285896 150.6278933 29.28285896 150.18849182 30.18913269 C149.27686001 32.06625694 148.35732876 33.93938103 147.4375 35.8125 C146.81522806 37.0902382 146.19347768 38.36823054 145.57226562 39.64648438 C144.05420157 42.76728672 142.52903189 45.88455393 141 49 C141.87285645 48.78851318 142.74571289 48.57702637 143.64501953 48.35913086 C151.48559385 46.55396552 158.83315473 45.47919266 166.875 45.5625 C167.90512207 45.56862305 168.93524414 45.57474609 169.99658203 45.58105469 C178.83995294 45.7604894 186.62076049 47.16484596 195 50 C196.01964844 50.33515625 197.03929687 50.6703125 198.08984375 51.015625 C202.67706399 52.67413217 205.31018687 53.79056435 208 58 C209.21588515 61.3002597 209.17505328 62.57849013 207.8125 65.859375 C199.60248881 80.08534267 181.3011768 88.71721006 166 93 C160.3827907 94.3128297 154.70848229 95.19279854 149 96 C147.66795199 96.19128958 146.33591983 96.38268957 145.00390625 96.57421875 C144.01261719 96.71472656 143.02132812 96.85523438 142 97 C142.51949219 97.78761719 143.03898438 98.57523437 143.57421875 99.38671875 C150.9456646 110.90034489 158.61935068 124.88851549 157 139 C155.0625 142 155.0625 142 152 144 C140.70802675 145.63915741 129.37400186 140.95316398 119.50390625 135.84375 C118.77659302 135.4734668 118.04927979 135.10318359 117.29992676 134.72167969 C115.53050822 133.81987986 113.76484611 132.91071571 112 132 C112.00999275 132.82899055 112.00999275 132.82899055 112.02018738 133.67472839 C112.08662483 139.43356501 112.13183542 145.19229252 112.16479492 150.95141602 C112.17986915 153.09989851 112.20033189 155.2483503 112.22631836 157.39672852 C112.26276114 160.48721908 112.27974019 163.57730231 112.29296875 166.66796875 C112.30845261 167.62648239 112.32393646 168.58499603 112.33988953 169.57255554 C112.3411411 174.5467399 112.26816393 177.97401535 109 182 C108.34 182.66 107.68 183.32 107 184 C106.01 184 105.02 184 104 184 C104.04389359 184.56116013 104.08778717 185.12232025 104.13301086 185.70048523 C106.02520928 210.25915313 107.38013345 234.85195832 108.76928711 259.44311523 C109.1195598 265.63665288 109.47832645 271.82966993 109.83884716 278.02261829 C110.11713146 282.82903877 110.38924643 287.6357942 110.65966225 292.44266319 C110.78932553 294.72849405 110.92130144 297.01419499 111.05568504 299.29975319 C111.24183069 302.47530217 111.41921977 305.65122692 111.59448242 308.82739258 C111.65104004 309.75876541 111.70759766 310.69013824 111.76586914 311.6497345 C112.41164497 323.79783385 112.41164497 323.79783385 109.4375 328.4375 C105.97887837 330.65456515 103.00032082 330.82963533 99 330 C96.03141843 327.79259319 95.17134209 326.51402627 94 323 C93.96292765 321.03310564 93.9283374 319.06607735 93.9152832 317.09887695 C93.9585724 308.87428358 93.9585724 308.87428358 90.3125 301.8125 C89.71872559 301.29598877 89.12495117 300.77947754 88.51318359 300.24731445 C85.12081638 297.21382502 81.93699049 293.9895096 78.73046875 290.76171875 C78.08219116 290.1111853 77.43391357 289.46065186 76.76599121 288.79040527 C75.1761816 287.19473731 73.58755636 285.59790925 72 284 C71.98598145 285.82374146 71.98598145 285.82374146 71.97167969 287.68432617 C71.93174582 292.20406455 71.86597746 296.72312468 71.79248047 301.24243164 C71.76429056 303.19676996 71.74306617 305.15122186 71.72900391 307.10571289 C71.70754693 309.91872223 71.66088305 312.73036871 71.609375 315.54296875 C71.60814636 316.41398727 71.60691772 317.2850058 71.60565186 318.18241882 C71.50674 322.29804611 71.32133319 324.48371916 69.10058594 328.05175781 C66.69514223 330.28274815 65.73456108 330.65665674 62.5 330.5625 C61.37078125 330.56443359 61.37078125 330.56443359 60.21875 330.56640625 C56.99628857 329.74377085 55.99340272 328.69006878 54 326 C53.37810602 322.81477593 53.39505479 319.65975858 53.390625 316.421875 C53.37408875 315.4953009 53.35755249 314.56872681 53.34051514 313.61407471 C53.29199274 310.659316 53.27065476 307.70507211 53.25 304.75 C53.22184387 302.74476571 53.19191695 300.73955544 53.16015625 298.734375 C53.08623255 293.82295904 53.03668376 288.91182959 53 284 C37.41126595 296.31853815 37.41126595 296.31853815 30.00341797 313.79223633 C29.94001491 316.45680842 29.99086052 319.09094634 30.08984375 321.75390625 C30.19212223 325.0139457 30.17704387 325.736249 28.28515625 328.5546875 C25.7847317 330.1361526 24.43775495 330.5675304 21.5 330.5625 C20.7471875 330.58441406 19.994375 330.60632813 19.21875 330.62890625 C15.71711734 329.63636601 14.85007206 328.12625216 13 325 C12.5318957 321.36735226 12.82720623 317.79846322 13.0625 314.15234375 C13.12195801 312.96454819 13.18141602 311.77675262 13.24267578 310.55296326 C13.38509789 307.72186382 13.54256798 304.89201238 13.70849609 302.06219482 C14.0468645 296.2643392 14.34424539 290.46448187 14.64453125 284.66455078 C15.32941532 271.5426666 16.05817242 258.42337533 16.79174805 245.30413818 C17.07188119 240.2710192 17.34727106 235.23764468 17.62277222 230.20427036 C17.88961292 225.34262501 18.15979333 220.48116963 18.43096924 215.61976433 C18.55965385 213.3045658 18.68722908 210.98930533 18.81365967 208.67398262 C18.98951271 205.46156947 19.16993684 202.24944475 19.3515625 199.03735352 C19.40250061 198.08943939 19.45343872 197.14152527 19.50592041 196.16488647 C19.74428517 192.02714367 20.00836974 188.04157171 21 184 C20.236875 183.938125 19.47375 183.87625 18.6875 183.8125 C16 183 16 183 14.36401367 181.10864258 C12.37625678 176.57846386 12.52020791 172.34763348 12.48828125 167.44921875 C12.47033005 166.43527542 12.45237885 165.42133209 12.43388367 164.37666321 C12.37982154 161.14698408 12.34589756 157.91745243 12.3125 154.6875 C12.27932337 152.49412013 12.24483339 150.3007597 12.20898438 148.10742188 C12.12409754 142.73841349 12.05573029 137.36938593 12 132 C10.9370874 132.54849609 9.8741748 133.09699219 8.77905273 133.66210938 C7.35156252 134.3896424 5.92390027 135.11683793 4.49609375 135.84375 C3.79947632 136.20436523 3.10285889 136.56498047 2.38513184 136.93652344 C-6.95973992 141.6724839 -17.42674978 145.2133238 -28 144 C-30.5 143 -30.5 143 -32 141 C-35.63662393 129.18097223 -28.39758482 115.85283359 -23 105.55859375 C-21.18632964 102.23263179 -19.15148286 99.1167687 -17 96 C-17.90878906 95.97421875 -18.81757813 95.9484375 -19.75390625 95.921875 C-42.96120121 94.87457143 -65.19905791 86.26473723 -81.37109375 69.19921875 C-84.03909967 65.59709085 -84.37267019 63.47204233 -84 59 C-81.08757546 54.21477588 -77.49376744 52.57177506 -72.375 50.8125 C-71.38306641 50.4422168 -71.38306641 50.4422168 -70.37109375 50.06445312 C-61.03359561 46.70402913 -52.07696209 45.67368261 -42.1875 45.75 C-41.19685547 45.74226563 -40.20621094 45.73453125 -39.18554688 45.7265625 C-31.64461854 45.74608594 -24.41866633 46.68319235 -17 48 C-17.42410156 47.13197754 -17.84820312 46.26395508 -18.28515625 45.36962891 C-19.85453825 42.15491069 -21.41877172 38.93771037 -22.98144531 35.71972656 C-23.65907394 34.32613748 -24.33810524 32.93322955 -25.01855469 31.54101562 C-25.99521741 29.54213157 -26.96684344 27.54086863 -27.9375 25.5390625 C-28.24373291 24.91504547 -28.54996582 24.29102844 -28.86547852 23.64810181 C-31 19.22774341 -31 19.22774341 -31 17 C-28.54285453 16.16301614 -26.08441143 15.33027576 -23.625 14.5 C-22.57699219 14.14228516 -22.57699219 14.14228516 -21.5078125 13.77734375 C-16.2265625 12 -16.2265625 12 -14 12 C-11.383738 17.3518461 -8.76948085 22.70466531 -6.15698242 28.05834961 C-5.27014729 29.87501696 -4.38278898 31.69142902 -3.49487305 33.50756836 C-2.21000773 36.13586629 -0.92705129 38.76508824 0.35546875 41.39453125 C0.77041595 42.24276962 1.18536316 43.091008 1.61288452 43.96495056 C4.17381545 49.22277534 6.6066537 54.51205613 8.81176758 59.93115234 C11.02960953 63.79266718 14.77305961 66.64651053 19 68 C21.60263826 67.19125729 21.60263826 67.19125729 24 66 C24.99 66 25.98 66 27 66 C25.55107431 62.76654109 24.08995464 59.5387273 22.625 56.3125 C21.92068848 54.76030762 21.92068848 54.76030762 21.20214844 53.17675781 C17.989055 46.16288382 14.65258866 39.22100567 11.2265625 32.30859375 C10.8166507 31.47866409 10.40673889 30.64873444 9.98440552 29.7936554 C8.32827118 26.44124723 6.67222047 23.08910663 4.99151611 19.74893188 C3.80176998 17.38446062 2.62639188 15.01330589 1.453125 12.640625 C1.08909576 11.9280101 0.72506653 11.2153952 0.3500061 10.48118591 C-2.08408962 5.51431491 -2.08408962 5.51431491 -1.64776611 2.84564209 C-1 1 -1 1 0 0 Z " fill="#98DA7C" transform="translate(193,182)"/>
<path d="M0 0 C27.39 0 54.78 0 83 0 C84.28314638 17.96404933 85.51906588 35.91609445 86.54296875 53.89453125 C86.60857813 55.04060034 86.67418751 56.18666943 86.74178505 57.36746788 C87.08657904 63.39255529 87.42899758 69.4177718 87.76928711 75.44311523 C88.1195598 81.63665288 88.47832645 87.82966993 88.83884716 94.02261829 C89.11713146 98.82903877 89.38924643 103.6357942 89.65966225 108.44266319 C89.78932553 110.72849405 89.92130144 113.01419499 90.05568504 115.29975319 C90.24183069 118.47530217 90.41921977 121.65122692 90.59448242 124.82739258 C90.65104004 125.75876541 90.70759766 126.69013824 90.76586914 127.6497345 C91.41164497 139.79783385 91.41164497 139.79783385 88.4375 144.4375 C84.97887837 146.65456515 82.00032082 146.82963533 78 146 C75.03141843 143.79259319 74.17134209 142.51402627 73 139 C72.96292765 137.03310564 72.9283374 135.06607735 72.9152832 133.09887695 C72.9585724 124.87428358 72.9585724 124.87428358 69.3125 117.8125 C68.71872559 117.29598877 68.12495117 116.77947754 67.51318359 116.24731445 C64.12081638 113.21382502 60.93699049 109.9895096 57.73046875 106.76171875 C57.08219116 106.1111853 56.43391357 105.46065186 55.76599121 104.79040527 C54.1761816 103.19473731 52.58755636 101.59790925 51 100 C50.9906543 101.21582764 50.98130859 102.43165527 50.97167969 103.68432617 C50.93174582 108.20406455 50.86597746 112.72312468 50.79248047 117.24243164 C50.76429056 119.19676996 50.74306617 121.15122186 50.72900391 123.10571289 C50.70754693 125.91872223 50.66088305 128.73036871 50.609375 131.54296875 C50.60753204 132.84949654 50.60753204 132.84949654 50.60565186 134.18241882 C50.50674 138.29804611 50.32133319 140.48371916 48.10058594 144.05175781 C45.69514223 146.28274815 44.73456108 146.65665674 41.5 146.5625 C40.7471875 146.56378906 39.994375 146.56507813 39.21875 146.56640625 C35.99628857 145.74377085 34.99340272 144.69006878 33 142 C32.37810602 138.81477593 32.39505479 135.65975858 32.390625 132.421875 C32.37408875 131.4953009 32.35755249 130.56872681 32.34051514 129.61407471 C32.29199274 126.659316 32.27065476 123.70507211 32.25 120.75 C32.22184387 118.74476571 32.19191695 116.73955544 32.16015625 114.734375 C32.08623255 109.82295904 32.03668376 104.91182959 32 100 C16.41126595 112.31853815 16.41126595 112.31853815 9.00341797 129.79223633 C8.94001491 132.45680842 8.99086052 135.09094634 9.08984375 137.75390625 C9.19212223 141.0139457 9.17704387 141.736249 7.28515625 144.5546875 C4.7847317 146.1361526 3.43775495 146.5675304 0.5 146.5625 C-0.2528125 146.58441406 -1.005625 146.60632813 -1.78125 146.62890625 C-5.28288266 145.63636601 -6.14992794 144.12625216 -8 141 C-8.4681043 137.36735226 -8.17279377 133.79846322 -7.9375 130.15234375 C-7.87804199 128.96454819 -7.81858398 127.77675262 -7.75732422 126.55296326 C-7.61490211 123.72186382 -7.45743202 120.89201238 -7.29150391 118.06219482 C-6.9531355 112.2643392 -6.65575461 106.46448187 -6.35546875 100.66455078 C-5.67058468 87.5426666 -4.94182758 74.42337533 -4.20825195 61.30413818 C-3.92811881 56.2710192 -3.65272894 51.23764468 -3.37722778 46.20427036 C-3.11038708 41.34262501 -2.84020667 36.48116963 -2.56903076 31.61976433 C-2.44034615 29.3045658 -2.31277092 26.98930533 -2.18634033 24.67398262 C-2.01048729 21.46156947 -1.83006316 18.24944475 -1.6484375 15.03735352 C-1.57203033 13.61548233 -1.57203033 13.61548233 -1.49407959 12.16488647 C-1.44366516 11.28974899 -1.39325073 10.41461151 -1.34130859 9.51295471 C-1.29928314 8.75750146 -1.25725769 8.00204821 -1.21395874 7.22370243 C-0.98010815 4.79326128 -0.47885 2.39424998 0 0 Z " fill="#77CC7C" transform="translate(214,366)"/>
<path d="M0 0 C3.93834336 2.0005529 6.33267859 4.94213671 8 9 C8.31884766 11.29003906 8.31884766 11.29003906 8.4140625 13.765625 C8.45273438 14.65507813 8.49140625 15.54453125 8.53125 16.4609375 C8.5621875 17.38132812 8.593125 18.30171875 8.625 19.25 C8.66367188 20.18585938 8.70234375 21.12171875 8.7421875 22.0859375 C8.83624844 24.39043054 8.92189399 26.69492013 9 29 C9.77085937 28.50628906 10.54171875 28.01257813 11.3359375 27.50390625 C12.33882813 26.86324219 13.34171875 26.22257812 14.375 25.5625 C15.37273437 24.92441406 16.37046875 24.28632812 17.3984375 23.62890625 C22.58024281 20.38444256 26.95768282 20.43928636 33 21 C38.13895143 22.34776273 40.50836066 25.40844854 43.25 29.8125 C49.74812646 41.61627759 51.31152623 51.70821406 51 65 C50.27554688 65.02578125 49.55109375 65.0515625 48.8046875 65.078125 C42.84169129 65.42795411 38.56338087 65.77887269 34 70 C29.87541675 76.5424424 29.83437545 83.32273914 29.875 90.8125 C29.8740332 91.61131592 29.87306641 92.41013184 29.87207031 93.2331543 C29.89049981 97.33665049 30.07824898 101.2545755 30.75 105.3125 C31 109 31 109 29.625 111.6875 C16.42260305 123.31818303 -0.91653051 128.46658007 -18.33984375 127.484375 C-35.80135813 125.92396912 -51.47302605 118.27645794 -63 105 C-71.1635714 94.54679257 -78.48024863 81.69902819 -77 68 C-75.27179685 63.27018086 -73.26238191 60.66398869 -69 58 C-63.44772147 55.54173928 -58.17507959 53.33242383 -52 54 C-52.42410156 53.5153125 -52.84820312 53.030625 -53.28515625 52.53125 C-54.5220051 51.11770846 -55.75338046 49.69936664 -56.98046875 48.27734375 C-58.27620159 46.81619821 -59.61007343 45.38752943 -60.98828125 44.00390625 C-64.94631984 39.93114191 -67.00422284 36.8835765 -67.203125 31.10546875 C-66.75697202 26.48092156 -64.8595033 23.8154262 -61.5625 20.6875 C-57.64489738 18.10761535 -54.37545726 17.89185619 -49.74609375 17.81640625 C-36.01415922 17.75368832 -36.01415922 17.75368832 -24.5625 11.25 C-23.01983962 9.5192103 -21.4970091 7.77042305 -20 6 C-13.87309898 0.58454156 -8.21479328 -1.71671377 0 0 Z " fill="#FE5F7A" transform="translate(162,74)"/>
<path d="M0 0 C4.81950385 2.01471062 8.81992781 4.73687854 12.38671875 8.5546875 C21.21457837 17.65965482 30.0643933 17.30240729 42.24609375 17.62109375 C43.23279053 17.6255249 44.2194873 17.62995605 45.23608398 17.63452148 C49.69965529 18.22474905 53.13782516 20.56539019 56 24 C57.7200523 29.16015691 57.93658308 34.04539183 55.5625 39 C52.53058987 42.54955332 49.28836009 45.81087442 45.92578125 49.046875 C43.94278242 50.85649143 43.94278242 50.85649143 43 53 C44.03447266 53.14695312 44.03447266 53.14695312 45.08984375 53.296875 C60.32312345 55.72082623 60.32312345 55.72082623 65.5 62.0625 C69.08752126 69.08806247 68.69973666 75.44572934 66.4375 82.8125 C60.24949051 99.74358152 49.06873715 111.85455721 33 120 C15.35555151 127.68513756 -2.22643153 129.57203793 -20.38671875 122.72265625 C-28.651875 119.348125 -28.651875 119.348125 -30 118 C-30.11417968 100.71319687 -24.53120667 85.86859615 -12.6875 73.125 C-0.62356138 62 -0.62356138 62 5 62 C-2.06898351 46.01481285 -2.06898351 46.01481285 -14.20703125 33.94921875 C-16.36291567 32.18867014 -16.9385079 31.2876546 -17.52832031 28.52856445 C-17.70041292 25.49762213 -17.67043994 22.53368032 -17.5625 19.5 C-17.56056641 18.46746094 -17.55863281 17.43492188 -17.55664062 16.37109375 C-17.39382841 7.02446645 -17.39382841 7.02446645 -14 3 C-9.76920069 -0.60862294 -5.31608607 -1.01056588 0 0 Z " fill="#FE5F7A" transform="translate(359,74)"/>
<path d="M0 0 C17.42359323 2.76564972 34.36182479 16.34588505 44.61621094 30.3984375 C46.93366209 34.30367669 47.84175936 38.48870629 48.875 42.875 C53.07957144 58.92780232 61.02982289 71.19293174 74.9375 80.625 C74.6075 81.264375 74.2775 81.90375 73.9375 82.5625 C70.99064354 91.58724791 74.05590731 98.24787679 77.625 106.46484375 C78.9375 109.625 78.9375 109.625 78.9375 111.625 C79.49695313 111.73714844 80.05640625 111.84929687 80.6328125 111.96484375 C92.56768607 114.90059239 102.91201421 122.4779401 110.9375 131.625 C108.88914064 135.09289107 106.72574281 138.4565359 104.5 141.8125 C101.25812734 146.90100898 98.85732778 151.91375355 96.9375 157.625 C96.525 158.841875 96.1125 160.05875 95.6875 161.3125 C93.47282347 171.20871223 94.6837272 181.34706791 97.28125 191.015625 C97.9375 193.625 97.9375 193.625 97.9375 196.625 C81.83540283 195.04383214 70.29027385 185.8666929 59.80859375 174.26953125 C47.61332148 159.38761152 44.40765982 142.3844495 46.22265625 123.6875 C47.15272859 118.34184151 49.15602229 115.31644253 52.9375 111.625 C56.23278495 109.52086783 58.81912141 109.40789575 62.6875 109.5 C63.67234375 109.51804687 64.6571875 109.53609375 65.671875 109.5546875 C66.41953125 109.57789063 67.1671875 109.60109375 67.9375 109.625 C67.55277084 95.71704103 65.7062408 79.48186885 55.3828125 69.0546875 C51.32438808 66.27787079 46.7535171 65.876451 41.9296875 66.0234375 C36.24679037 67.16595207 31.69188393 70.44269166 26.9375 73.625 C25.9475 74.12 25.9475 74.12 24.9375 74.625 C24.92348145 73.71790283 24.92348145 73.71790283 24.90917969 72.79248047 C24.85518278 70.0275212 24.77159606 67.26420094 24.6875 64.5 C24.67332031 63.54867187 24.65914062 62.59734375 24.64453125 61.6171875 C24.43856038 55.68522631 23.890723 52.14090802 19.9375 47.625 C16.61533762 45.41022508 15.38716677 45.32832293 11.5 45.3125 C10.07880859 45.28736328 10.07880859 45.28736328 8.62890625 45.26171875 C5.53864777 45.67883637 4.35723533 46.76010844 1.9375 48.625 C-1.0625 47.625 -1.0625 47.625 -1.93798828 45.97021484 C-2.16728027 45.26590332 -2.39657227 44.5615918 -2.6328125 43.8359375 C-2.88933594 43.05863281 -3.14585937 42.28132813 -3.41015625 41.48046875 C-3.66667969 40.66191406 -3.92320312 39.84335938 -4.1875 39 C-4.45175781 38.20464844 -4.71601563 37.40929687 -4.98828125 36.58984375 C-7.40909527 29.10621058 -8.28522791 21.83509121 -8.4375 14 C-8.47488281 13.26265625 -8.51226562 12.5253125 -8.55078125 11.765625 C-8.61624941 7.7065988 -8.25830839 5.87558226 -5.73046875 2.640625 C-3.0625 0.625 -3.0625 0.625 0 0 Z " fill="#FE7E91" transform="translate(145.0625,29.375)"/>
<path d="M0 0 C0.85086685 -0.00700928 1.7017337 -0.01401855 2.5783844 -0.02124023 C5.38990965 -0.03883937 8.20042747 -0.02718979 11.01196289 -0.01367188 C12.96725152 -0.01636649 14.92253884 -0.02024866 16.87782288 -0.02526855 C20.97597002 -0.03116641 25.0737684 -0.02259227 29.171875 -0.00390625 C34.42232796 0.01886832 39.67196238 0.00577142 44.92238522 -0.01819611 C48.9604762 -0.03265914 52.99837356 -0.02804549 57.03647041 -0.01768494 C58.97214416 -0.01501827 60.90783554 -0.01828529 62.84348869 -0.02760315 C65.55107962 -0.03777534 68.25735097 -0.02225797 70.96484375 0 C71.76344818 -0.00809692 72.56205261 -0.01619385 73.38485718 -0.02453613 C77.08465852 0.03174034 79.34241602 0.39362165 82.53352356 2.32597351 C85.4051182 5.45142736 85.440896 8.45766735 85.54711914 12.51757812 C85.57696899 13.32633392 85.60681885 14.13508972 85.63757324 14.96835327 C85.71203103 17.70814916 85.73797308 20.44478152 85.75024414 23.18554688 C85.75594421 24.18338699 85.76164429 25.18122711 85.76751709 26.20930481 C85.77691397 28.3061112 85.78347977 30.402932 85.78735352 32.49975586 C85.79712141 35.70582423 85.82821982 38.91126748 85.85961914 42.1171875 C85.8661444 44.16080351 85.87139674 46.20442407 85.87524414 48.24804688 C85.88759094 49.20333786 85.89993774 50.15862885 85.91265869 51.14286804 C85.89166549 57.4018356 85.09651474 60.96818252 80.54711914 65.51757812 C77.73708645 65.72150035 75.02520333 65.80074385 72.21362305 65.79223633 C71.35168839 65.79734726 70.48975372 65.80245819 69.60169983 65.807724 C66.74229048 65.82166421 63.88312101 65.82065972 61.02368164 65.81835938 C59.0407197 65.82224428 57.0577586 65.82657852 55.07479858 65.8313446 C50.91352647 65.83881664 46.75233918 65.83850873 42.59106445 65.83325195 C37.25540714 65.82746039 31.92009731 65.84437604 26.58449745 65.86759663 C22.48729416 65.88232223 18.39017474 65.88320719 14.29294968 65.8800869 C12.32574145 65.88060085 10.35852862 65.8858523 8.39134598 65.89589882 C5.64046873 65.90822118 2.89027049 65.9014965 0.1394043 65.88989258 C-0.67528824 65.89753632 -1.48998077 65.90518005 -2.32936096 65.91305542 C-5.60304297 65.88249839 -8.01762837 65.7525318 -10.92739868 64.18180847 C-13.54329559 61.32798619 -13.57871635 58.57215592 -13.58227539 54.88183594 C-13.58700363 53.47457245 -13.58700363 53.47457245 -13.59182739 52.03887939 C-13.58980316 51.02638123 -13.58777893 50.01388306 -13.58569336 48.97070312 C-13.58665009 47.92613953 -13.58760681 46.88157593 -13.58859253 45.80535889 C-13.58927347 43.5928949 -13.58742519 41.38042891 -13.58325195 39.16796875 C-13.57792398 35.79487563 -13.58318877 32.42191697 -13.58959961 29.04882812 C-13.58893839 26.89778617 -13.58765633 24.74674429 -13.58569336 22.59570312 C-13.58771759 21.59130188 -13.58974182 20.58690063 -13.59182739 19.55206299 C-13.54714214 6.07367801 -13.54714214 6.07367801 -10.93482971 2.35882568 C-7.43203249 -0.23974392 -4.19431094 -0.04241794 0 0 Z " fill="#DEBDEF" transform="translate(219.452880859375,300.482421875)"/>
<path d="M0 0 C17.43574237 -0.7590464 34.18400067 10.14510661 47 21 C47.86753906 21.94746094 48.73507812 22.89492187 49.62890625 23.87109375 C51.71998336 26.23559723 51.71998336 26.23559723 54.0234375 25.9609375 C56.24568703 24.88055532 58.44799127 23.79505355 60.625 22.625 C68.5291576 18.6614326 75.34772097 16.73826972 84.25 16.5625 C85.26054443 16.52902466 85.26054443 16.52902466 86.29150391 16.49487305 C91.31635252 16.5178658 94.14759454 17.84906044 98 21 C101.47706988 25.88669281 102.74932533 29.98380799 103 36 C103.05994141 37.16015625 103.05994141 37.16015625 103.12109375 38.34375 C103.63895917 57.59615858 95.80573125 72.93774873 82.8125 86.6875 C68.39982581 100.58472779 52.97462122 105.60798441 33.41650391 105.25585938 C30.94324495 105.1878603 28.47194439 105.10470245 26 105 C20.58900015 85.26434429 20.253115 68.44279776 30.5625 50.3125 C32.80488872 46.65114013 35.27125758 43.31389943 38 40 C31.43424462 31.4822633 24.00467204 25.90072302 13.75 22.5625 C8.04309879 20.3361814 5.93210762 18.03499257 3.53613281 12.61303711 C0 3.4420217 0 3.4420217 0 0 Z " fill="#FE5F7A" transform="translate(217,122)"/>
<path d="M0 0 C2.68359375 1.4453125 2.68359375 1.4453125 5 4 C5.73671433 7.09357913 5.66124363 10.08425547 5.5625 13.25 C5.54735352 14.1359082 5.53220703 15.02181641 5.51660156 15.93457031 C5.1388421 27.25516853 2.74887647 38.1447832 -3 48 C-3.804375 47.505 -4.60875 47.01 -5.4375 46.5 C-9.82005894 44.65471203 -13.31027223 44.35970506 -18 45 C-21.89465471 46.65729988 -23.43216431 48.13343863 -25 52 C-25.51722004 55.7785071 -25.50800081 59.56479549 -25.5625 63.375 C-25.61212891 64.40367188 -25.66175781 65.43234375 -25.71289062 66.4921875 C-25.89439045 72.05085852 -25.89439045 72.05085852 -23.54467773 76.88330078 C-21.75969874 78.37209593 -19.90824693 79.67552854 -18 81 C-12.72792274 87.09670798 -4 97.59910906 -4 106 C-5.58224899 107.08591613 -7.21920412 108.0924146 -8.875 109.0625 C-23.30557904 118.08392746 -33.11172564 130.17809722 -37 147 C-37.87934269 151.97477715 -38.47834494 156.97563815 -39 162 C-40.44319692 161.09232898 -41.87934106 160.17343894 -43.3125 159.25 C-44.11300781 158.73953125 -44.91351563 158.2290625 -45.73828125 157.703125 C-48.13335862 155.89957797 -49.60775724 154.66219393 -51 152 C-50.85546875 148.8984375 -50.85546875 148.8984375 -50.1875 145.375 C-48.4756357 135.10381417 -47.41280887 122.41000611 -53 113 C-55.49034386 111.70339566 -55.49034386 111.70339566 -58 111 C-58.495 110.505 -58.495 110.505 -59 110 C-61.57342064 109.89908154 -64.11428381 109.8613248 -66.6875 109.875 C-67.39583984 109.87113281 -68.10417969 109.86726563 -68.83398438 109.86328125 C-72.99710733 109.87096938 -76.89906912 110.18627198 -81 111 C-80.40098339 107.16491663 -79.21835231 104.24736329 -77.4375 100.8125 C-74.99218196 95.56747001 -73.76913803 90.75427971 -75 85 C-75.5259375 84.30777344 -76.051875 83.61554688 -76.59375 82.90234375 C-77.0578125 82.27457031 -77.521875 81.64679688 -78 81 C-76.82089473 77.46268418 -75.8449371 76.93172631 -72.875 74.8125 C-60.47929933 65.3980438 -51.57070978 51.00453788 -49.3125 35.5 C-47.0839911 24.81458554 -35.58952037 15.8603678 -27 10 C-9.10988748 -0.97605937 -9.10988748 -0.97605937 0 0 Z " fill="#FE7E91" transform="translate(368,30)"/>
<path d="M0 0 C1.1139917 0.00362549 1.1139917 0.00362549 2.25048828 0.00732422 C10.61869621 0.27818011 17.68669729 3.04708101 25.1875 6.5625 C26.19683594 7.01882812 27.20617187 7.47515625 28.24609375 7.9453125 C35.6814064 11.63660247 41.29899778 16.79928506 47.1875 22.5625 C45.83493238 25.42713614 44.27621732 27.9248072 42.4375 30.5 C32.7004514 44.98624632 29.97867106 58.78518293 31.37890625 75.90234375 C32.10793277 77.79984503 32.10793277 77.79984503 34.4453125 78.828125 C35.39148438 79.15296875 36.33765625 79.4778125 37.3125 79.8125 C38.24320313 80.14765625 39.17390625 80.4828125 40.1328125 80.828125 C47.97506226 82.71347405 53.5418175 80.6038764 60.6953125 77.6953125 C66.86495436 75.33103368 72.51219584 74.74576574 79 76.1875 C82.26202014 78.23791266 83.50813265 80.07936772 85.1875 83.5625 C86.79677486 91.16873074 84.01729547 96.96975711 80.59765625 103.6796875 C79.11215021 106.37821279 79.11215021 106.37821279 78.79296875 108.81640625 C78.1875 110.5625 78.1875 110.5625 76.078125 111.72265625 C75.20671875 112.02042969 74.3353125 112.31820312 73.4375 112.625 C70.43146784 113.70408847 68.02948085 114.66212077 65.3125 116.375 C63.1875 117.5625 63.1875 117.5625 61.36328125 117.421875 C58.32259415 116.22088548 56.57457816 114.28962209 54.25 112 C41.56723497 100.05672355 25.47012895 92.68621288 8.1875 90.5625 C8.00664513 85.95070072 8.34079583 82.77211305 10.1875 78.5625 C9.5584375 78.10101563 8.929375 77.63953125 8.28125 77.1640625 C-7.78795921 64.91855066 -15.07930225 49.03395443 -18.8125 29.5625 C-19.23665316 26.10368402 -19.27183469 23.01057243 -18.8125 19.5625 C-18.65201172 18.27279297 -18.65201172 18.27279297 -18.48828125 16.95703125 C-17.49149062 10.76595552 -15.86163184 5.86875245 -10.6640625 1.9375 C-7.08358726 0.21102427 -3.90181203 -0.01334713 0 0 Z " fill="#FE7D91" transform="translate(208.8125,31.4375)"/>
<path d="M0 0 C2.616262 5.3518461 5.23051915 10.70466531 7.84301758 16.05834961 C8.72985271 17.87501696 9.61721102 19.69142902 10.50512695 21.50756836 C11.7899923 24.13586635 13.07300019 26.76506304 14.35546875 29.39453125 C14.77000809 30.24231644 15.18454742 31.09010162 15.61164856 31.96357727 C18.18303768 37.2447982 20.63126131 42.55811861 22.86669922 47.9921875 C24.59986545 51.06275172 27.10547381 52.63649974 29.99609375 54.55078125 C34.02904934 57.46740215 37.30725811 61.25893496 38.54296875 66.1484375 C38.6875 68.25 38.6875 68.25 38 72 C34.30583016 75.65912079 30.08620062 77.44231277 25.25 79.125 C24.14205078 79.51292725 24.14205078 79.51292725 23.01171875 79.90869141 C15.11309619 82.51984772 7.26835368 83.45282954 -1 84 C-1.8146875 84.07089844 -2.629375 84.14179688 -3.46875 84.21484375 C-24.31799351 85.21721123 -46.35158992 75.78348354 -61.625 62.1875 C-63.09694267 60.80602557 -64.55733892 59.41202542 -66 58 C-66.56589844 57.49855469 -67.13179688 56.99710938 -67.71484375 56.48046875 C-69.59264594 54.31728629 -69.80674712 51.8914824 -70.27734375 49.1328125 C-69.84053352 45.77368029 -68.39374355 44.3560468 -66 42 C-63.41986096 40.73840883 -61.06545899 39.73718694 -58.375 38.8125 C-57.38306641 38.4422168 -57.38306641 38.4422168 -56.37109375 38.06445312 C-47.03359561 34.70402913 -38.07696209 33.67368261 -28.1875 33.75 C-27.19685547 33.74226563 -26.20621094 33.73453125 -25.18554688 33.7265625 C-17.64461854 33.74608594 -10.41866633 34.68319235 -3 36 C-3.42410156 35.13197754 -3.84820312 34.26395508 -4.28515625 33.36962891 C-5.85453825 30.15491069 -7.41877172 26.93771037 -8.98144531 23.71972656 C-9.65907394 22.32613748 -10.33810524 20.93322955 -11.01855469 19.54101562 C-11.99521741 17.54213157 -12.96684344 15.54086863 -13.9375 13.5390625 C-14.24373291 12.91504547 -14.54996582 12.29102844 -14.86547852 11.64810181 C-17 7.22774341 -17 7.22774341 -17 5 C-14.54285453 4.16301614 -12.08441143 3.33027576 -9.625 2.5 C-8.92632812 2.26152344 -8.22765625 2.02304688 -7.5078125 1.77734375 C-2.2265625 0 -2.2265625 0 0 0 Z " fill="#97DB7B" transform="translate(179,194)"/>
<path d="M0 0 C10.89 0 21.78 0 33 0 C33.50049243 12.52771044 33.90249848 25.04861188 34.13986778 37.58412361 C34.25389979 43.40756482 34.4079881 49.22372212 34.65966797 55.04296875 C36.44760418 97.45393518 36.44760418 97.45393518 26.63026237 108.27814674 C23.36221461 111.54494356 19.74887257 114.18014614 15.97167969 116.84082031 C11.73466637 119.8815115 10.2222045 121.87193047 9.23583984 127.02392578 C8.85306472 130.64270421 8.8740669 134.15781347 9.0546875 137.7890625 C9.18494703 141.04309966 9.17971027 141.73207579 7.2890625 144.55078125 C4.78620802 146.13535294 3.44111973 146.56753616 0.5 146.5625 C-0.2528125 146.58441406 -1.005625 146.60632813 -1.78125 146.62890625 C-5.28288266 145.63636601 -6.14992794 144.12625216 -8 141 C-8.4681043 137.36735226 -8.17279377 133.79846322 -7.9375 130.15234375 C-7.87804199 128.96454819 -7.81858398 127.77675262 -7.75732422 126.55296326 C-7.61490211 123.72186382 -7.45743202 120.89201238 -7.29150391 118.06219482 C-6.9531355 112.2643392 -6.65575461 106.46448187 -6.35546875 100.66455078 C-5.67058468 87.5426666 -4.94182758 74.42337533 -4.20825195 61.30413818 C-3.92811881 56.2710192 -3.65272894 51.23764468 -3.37722778 46.20427036 C-3.11038708 41.34262501 -2.84020667 36.48116963 -2.56903076 31.61976433 C-2.44034615 29.3045658 -2.31277092 26.98930533 -2.18634033 24.67398262 C-2.01048729 21.46156947 -1.83006316 18.24944475 -1.6484375 15.03735352 C-1.57203033 13.61548233 -1.57203033 13.61548233 -1.49407959 12.16488647 C-1.44366516 11.28974899 -1.39325073 10.41461151 -1.34130859 9.51295471 C-1.29928314 8.75750146 -1.25725769 8.00204821 -1.21395874 7.22370243 C-0.98010815 4.79326128 -0.47885 2.39424998 0 0 Z " fill="#98DB7C" transform="translate(214,366)"/>
<path d="M0 0 C-0.2165625 0.80179688 -0.433125 1.60359375 -0.65625 2.4296875 C-5.38403322 21.73480232 -3.67691249 38.6323504 6.25 56.1328125 C8.34645256 59.5676254 10.55060076 62.80835857 13 66 C-1.13569793 70.71189931 -18.8814669 66.2494784 -31.6875 59.9375 C-46.61584753 51.29188032 -57.99295142 37.66035806 -63 21 C-64.2975338 15.31890606 -64.82554716 10.25939222 -62.8125 4.75 C-58.0848364 -2.42300683 -50.35733901 -4.78137782 -42.26953125 -6.62109375 C-28.09531855 -8.26374445 -12.84435662 -6.42217831 0 0 Z " fill="#FF7D91" transform="translate(149,134)"/>
<path d="M0 0 C2.68359375 1.4453125 2.68359375 1.4453125 5 4 C5.73671433 7.09357913 5.66124363 10.08425547 5.5625 13.25 C5.54735352 14.1359082 5.53220703 15.02181641 5.51660156 15.93457031 C5.1388421 27.25516853 2.74887647 38.1447832 -3 48 C-3.804375 47.505 -4.60875 47.01 -5.4375 46.5 C-9.82005894 44.65471203 -13.31027223 44.35970506 -18 45 C-20.91993415 46.24252517 -22.42904225 47.08353572 -24.10302734 49.77050781 C-25.17007177 52.42272603 -25.31889245 54.56677363 -25.4140625 57.421875 C-25.45273437 58.44667969 -25.49140625 59.47148438 -25.53125 60.52734375 C-25.57765625 62.12255859 -25.57765625 62.12255859 -25.625 63.75 C-25.66367187 64.82894531 -25.70234375 65.90789062 -25.7421875 67.01953125 C-25.83634631 69.67951775 -25.92197387 72.3394994 -26 75 C-26.79664063 74.51789063 -27.59328125 74.03578125 -28.4140625 73.5390625 C-30.00347656 72.59160156 -30.00347656 72.59160156 -31.625 71.625 C-32.66914063 70.99851562 -33.71328125 70.37203125 -34.7890625 69.7265625 C-40.20367022 66.81505811 -44.82918462 65.35044049 -51 66 C-57.24672198 68.77710604 -59.54963523 71.66838801 -62.3125 77.8125 C-62.64572266 78.49892578 -62.97894531 79.18535156 -63.32226562 79.89257812 C-66.67531336 86.96677265 -68.28295408 93.64882946 -68.625 101.4375 C-68.66367187 102.16904297 -68.70234375 102.90058594 -68.7421875 103.65429688 C-68.83533984 105.43583532 -68.91870286 107.21788122 -69 109 C-73.26616316 110.13764351 -76.56486311 111 -81 111 C-80.40098339 107.16491663 -79.21835231 104.24736329 -77.4375 100.8125 C-74.99218196 95.56747001 -73.76913803 90.75427971 -75 85 C-75.5259375 84.30777344 -76.051875 83.61554688 -76.59375 82.90234375 C-77.0578125 82.27457031 -77.521875 81.64679688 -78 81 C-76.82089473 77.46268418 -75.8449371 76.93172631 -72.875 74.8125 C-60.47929933 65.3980438 -51.57070978 51.00453788 -49.3125 35.5 C-47.0839911 24.81458554 -35.58952037 15.8603678 -27 10 C-9.10988748 -0.97605937 -9.10988748 -0.97605937 0 0 Z " fill="#99D97B" transform="translate(368,30)"/>
<path d="M0 0 C5.445 1.98 5.445 1.98 11 4 C9.4840625 5.7634375 9.4840625 5.7634375 7.9375 7.5625 C5.67421305 10.61982796 5.02149684 11.7886144 4.625 15.6875 C6.62572816 20.50743603 9.32426741 21.93147314 14 24 C20.50146935 26.58979692 26.66609187 28.05687062 33.62402344 28.4753418 C42.84979369 29.08872544 42.84979369 29.08872544 46.42578125 31.921875 C48.29588672 34.52592431 49.65218383 37.09279187 51 40 C51.78890625 41.40378906 51.78890625 41.40378906 52.59375 42.8359375 C57.53328565 51.86753945 62.7154287 63.51682459 61 74 C59.0625 77 59.0625 77 56 79 C41.98350005 81.03465322 27.88641384 73.60860413 16 67 C15 66 15 66 14.8125 62.1875 C14.39575318 58.66409506 14.16850167 58.16028207 11.4375 55.5625 C8.05070101 53.74734281 8.05070101 53.74734281 4.1875 53.9375 C1.03675754 53.6844767 0.06078675 53.05676182 -2.30078125 50.8515625 C-4.68751294 47.98748447 -6.86851283 45.05839077 -9 42 C-9.65097656 41.09507812 -10.30195313 40.19015625 -10.97265625 39.2578125 C-14.17564675 34.4569748 -14.17564675 34.4569748 -15 32 C-13.81980976 27.78206396 -12.11098473 23.92020389 -10.21484375 19.98046875 C-9.68439453 18.87638672 -9.15394531 17.77230469 -8.60742188 16.63476562 C-7.78081055 14.92836914 -7.78081055 14.92836914 -6.9375 13.1875 C-6.38255859 12.03056641 -5.82761719 10.87363281 -5.25585938 9.68164062 C-1.13616957 1.13616957 -1.13616957 1.13616957 0 0 Z " fill="#77CC7C" transform="translate(289,247)"/>
<path d="M0 0 C4.19023865 4.19023865 6.29752427 9.26233562 8.83544922 14.54223633 C9.74829111 16.4339586 10.68013443 18.31549324 11.61328125 20.19726562 C12.1964979 21.4004678 12.77856872 22.6042262 13.359375 23.80859375 C13.89014648 24.89970459 14.42091797 25.99081543 14.96777344 27.11499023 C16.03709002 30.10366431 16.2142449 31.13954199 15 34 C12.89893992 37.82226748 10.47174555 41.40878652 8 45 C7.44957031 45.80050781 6.89914063 46.60101563 6.33203125 47.42578125 C3.15950032 51.54781075 0.93786761 53.37883442 -4.25 54.3125 C-5.08015625 54.39113281 -5.9103125 54.46976562 -6.765625 54.55078125 C-9.45698567 55.09187649 -10.39524226 55.79475227 -12 58 C-12.04125 59.093125 -12.0825 60.18625 -12.125 61.3125 C-13.0990504 65.41742669 -13.51374435 65.8330459 -16.8125 68.125 C-27.66661842 74.56533925 -42.08156035 80.91587029 -55 79 C-57.5 78 -57.5 78 -59 76 C-62.63662393 64.18097223 -55.39758482 50.85283359 -50 40.55859375 C-45.04385924 31.52192962 -45.04385924 31.52192962 -42 30 C-40.21472595 29.82546791 -38.42898312 29.65462711 -36.64135742 29.50610352 C-29.31309402 28.8623334 -22.62331444 27.54201013 -15.6875 25.0625 C-14.62196899 24.68315308 -14.62196899 24.68315308 -13.53491211 24.29614258 C-9.98574495 22.96118976 -6.71599899 21.69552663 -4 19 C-3.23736283 13.9157522 -3.50229541 11.20191071 -6.5 7 C-7.325 6.01 -8.15 5.02 -9 4 C-6.03 2.68 -3.06 1.36 0 0 Z " fill="#77CC7D" transform="translate(220,247)"/>
<path d="M0 0 C17.42359323 2.76564972 34.36182479 16.34588505 44.61621094 30.3984375 C46.93366209 34.30367669 47.84175936 38.48870629 48.875 42.875 C53.07957144 58.92780232 61.02982289 71.19293174 74.9375 80.625 C74.6075 81.264375 74.2775 81.90375 73.9375 82.5625 C70.99064354 91.58724791 74.05590731 98.24787679 77.625 106.46484375 C78.9375 109.625 78.9375 109.625 78.9375 111.625 C77.47869891 111.48392253 76.02046449 111.33697585 74.5625 111.1875 C73.34433594 111.06568359 73.34433594 111.06568359 72.1015625 110.94140625 C69.9375 110.625 69.9375 110.625 67.9375 109.625 C67.72753124 107.38133378 67.6222649 105.12767689 67.5625 102.875 C67.01048307 91.23397802 63.85474355 77.61176359 55.3828125 69.0546875 C51.32438808 66.27787079 46.7535171 65.876451 41.9296875 66.0234375 C36.24679037 67.16595207 31.69188393 70.44269166 26.9375 73.625 C25.9475 74.12 25.9475 74.12 24.9375 74.625 C24.92348145 73.71790283 24.92348145 73.71790283 24.90917969 72.79248047 C24.85518278 70.0275212 24.77159606 67.26420094 24.6875 64.5 C24.67332031 63.54867187 24.65914062 62.59734375 24.64453125 61.6171875 C24.43856038 55.68522631 23.890723 52.14090802 19.9375 47.625 C16.61533762 45.41022508 15.38716677 45.32832293 11.5 45.3125 C10.07880859 45.28736328 10.07880859 45.28736328 8.62890625 45.26171875 C5.53864777 45.67883637 4.35723533 46.76010844 1.9375 48.625 C-1.0625 47.625 -1.0625 47.625 -1.93798828 45.97021484 C-2.16728027 45.26590332 -2.39657227 44.5615918 -2.6328125 43.8359375 C-2.88933594 43.05863281 -3.14585937 42.28132813 -3.41015625 41.48046875 C-3.66667969 40.66191406 -3.92320312 39.84335938 -4.1875 39 C-4.45175781 38.20464844 -4.71601563 37.40929687 -4.98828125 36.58984375 C-7.40909527 29.10621058 -8.28522791 21.83509121 -8.4375 14 C-8.47488281 13.26265625 -8.51226562 12.5253125 -8.55078125 11.765625 C-8.61624941 7.7065988 -8.25830839 5.87558226 -5.73046875 2.640625 C-3.0625 0.625 -3.0625 0.625 0 0 Z " fill="#99D97C" transform="translate(145.0625,29.375)"/>
<path d="M0 0 C5.28 0 10.56 0 16 0 C16.13316199 12.03494301 16.26366741 24.06991201 16.39115143 36.10491657 C16.45047983 41.69862044 16.51058689 47.29231323 16.57275391 52.88598633 C16.70409885 64.74976317 16.82265284 76.61348763 16.91566467 88.47763252 C16.96708511 94.83212224 17.04058698 101.18588636 17.1306839 107.53994083 C17.18382349 111.55202321 17.22043401 115.56413941 17.25291443 119.576437 C17.27162443 121.45270305 17.29733434 123.32891394 17.33045959 125.20498085 C17.37494455 127.77773107 17.3945695 130.34953559 17.40820312 132.92260742 C17.43678406 134.04838857 17.43678406 134.04838857 17.46594238 135.19691277 C17.45916692 138.85402446 17.0959568 140.84918558 15.11315918 143.9655304 C13 146 13 146 10.78125 146.62890625 C9.65203125 146.59603516 9.65203125 146.59603516 8.5 146.5625 C7.7471875 146.56378906 6.994375 146.56507813 6.21875 146.56640625 C3.13637131 145.77953141 1.99368044 144.45768782 0 142 C-0.49219131 139.29014206 -0.49219131 139.29014206 -0.48101807 136.12811279 C-0.48651672 134.92780426 -0.49201538 133.72749573 -0.49768066 132.49081421 C-0.48329956 131.17739044 -0.46891846 129.86396667 -0.45410156 128.51074219 C-0.45297305 127.11115552 -0.45360702 125.71156649 -0.45587158 124.3119812 C-0.45701953 120.514611 -0.43349771 116.71774591 -0.40557575 112.92049313 C-0.38057527 108.95135494 -0.37822118 104.98220526 -0.37347412 101.01300049 C-0.36104033 93.49775372 -0.32821338 85.98273963 -0.28807616 78.46759534 C-0.24337091 69.91147092 -0.22137457 61.35533541 -0.20129442 52.79912329 C-0.159481 35.19927994 -0.08831575 17.5996672 0 0 Z " fill="#77CC7D" transform="translate(247,366)"/>
<path d="M0 0 C5.61 0 11.22 0 17 0 C19.6680241 32.14184322 21.57174184 64.35208977 23.1875 96.5625 C23.2302002 97.40661438 23.27290039 98.25072876 23.31689453 99.12042236 C23.43628673 101.49814131 23.55281754 103.8759785 23.66796875 106.25390625 C23.7021843 106.94028671 23.73639984 107.62666718 23.77165222 108.33384705 C23.97064175 112.55944049 24.02910585 116.77006355 24 121 C22.3703099 119.59827233 20.74100073 118.1961 19.11330986 116.79205132 C17.7106148 115.60258943 16.2911577 114.4326025 14.85536385 113.28331184 C6.83994401 106.81084898 -0.59699501 100.64632799 -1.80458164 89.92690945 C-2.0254703 84.89953849 -1.87902499 79.9270542 -1.66015625 74.90234375 C-1.62836733 72.72955327 -1.60420713 70.55663921 -1.58726501 68.38368225 C-1.52297764 62.72011618 -1.35660876 57.06420691 -1.16729736 51.40362549 C-0.99199031 45.60542381 -0.91545748 39.80595879 -0.83007812 34.00585938 C-0.6488714 22.6672455 -0.35955679 11.33426417 0 0 Z " fill="#97DA7C" transform="translate(263,366)"/>
<path d="M0 0 C0.99 0.33 1.98 0.66 3 1 C2.43460787 5.53032067 1.24150878 9.03373109 -0.7734375 13.12109375 C-1.34602295 14.29341553 -1.9186084 15.4657373 -2.50854492 16.67358398 C-3.13060985 17.92826568 -3.75276341 19.18290343 -4.375 20.4375 C-5.00905932 21.73013847 -5.64227039 23.02319335 -6.2746582 24.31665039 C-7.55846459 26.94161912 -8.84542375 29.56500624 -10.13427734 32.1875 C-12.86256836 37.7498066 -15.52506347 43.34344847 -18.1875 48.9375 C-20.74888268 54.31417553 -23.31596606 59.68312622 -26 65 C-26.59943148 66.19767998 -27.19835622 67.39561366 -27.796875 68.59375 C-28.11285645 69.22490723 -28.42883789 69.85606445 -28.75439453 70.50634766 C-29.43504387 71.8693154 -30.11298046 73.23364034 -30.78857422 74.59912109 C-32.5166213 78.08299736 -34.27635924 81.53637661 -36.1484375 84.9453125 C-36.48133789 85.56599609 -36.81423828 86.18667969 -37.15722656 86.82617188 C-38.07348617 88.52924978 -39.00885422 90.22200697 -39.9453125 91.9140625 C-41.28651739 95.83832867 -40.78399292 97.3045861 -39 101 C-37.22006452 103.81940431 -37.22006452 103.81940431 -35.125 106.5 C-32.26981069 110.27796913 -29.63688103 114.04467846 -27 118 C-35.58 118 -44.16 118 -53 118 C-53 94.24 -53 70.48 -53 46 C-57.95 46 -62.9 46 -68 46 C-68 45.67 -68 45.34 -68 45 C-66.87464844 44.98582031 -65.74929687 44.97164062 -64.58984375 44.95703125 C-44.99462742 44.45877498 -29.26015946 38.18347425 -15.0625 24.625 C-8.15320244 17.34937738 -3.06724965 9.56260185 0 0 Z " fill="#98D97B" transform="translate(316,182)"/>
<path d="M0 0 C3.88625009 1.12200516 7.68953492 2.47393303 11.45361328 3.95288086 C19.54487155 6.99401641 25.24297413 5.47982393 33.3125 2.4375 C39.52899329 0.25057512 45.41575423 -1.3902546 52 0 C55.41498053 1.68683514 57.38655368 4.03982316 59.4375 7.25 C61.21698166 15.94968814 57.83045631 25.66820482 53.41113281 33.18701172 C49.28683944 38.48580109 42.31359595 41.2811861 36 43 C32.6205249 42.11310516 30.91053446 39.99709176 28.625 37.4375 C19.7232609 28.35409275 8.89863076 23.07532195 -3 19 C-3.82757813 18.65066406 -4.65515625 18.30132813 -5.5078125 17.94140625 C-8.26747561 16.89896297 -10.90586871 16.36527516 -13.8125 15.875 C-15.27623047 15.62363281 -15.27623047 15.62363281 -16.76953125 15.3671875 C-17.50558594 15.24601563 -18.24164063 15.12484375 -19 15 C-19.50537432 9.69356959 -18.30655751 7.13319688 -15 3 C-10.31042861 -1.15531642 -6.01287318 -0.87927279 0 0 Z " fill="#FF7D91" transform="translate(235,0)"/>
<path d="M0 0 C3.94066228 2.00173084 6.32739823 4.94313992 8 9 C9.25983602 16.93904586 10.18151968 27.21363285 6.09375 34.30859375 C3.84165269 36.47660301 1.55363669 38.20936702 -1 40 C-2.75418719 42.0970227 -2.75418719 42.0970227 -4 44 C-8.98101974 43.15867613 -13.63645776 41.48331473 -18.38476562 39.81640625 C-24.46643695 37.72949771 -30.01172506 36.87382448 -36.4296875 36.8671875 C-37.63753906 36.86589844 -38.84539062 36.86460938 -40.08984375 36.86328125 C-41.33894531 36.86714844 -42.58804688 36.87101562 -43.875 36.875 C-45.11636719 36.87113281 -46.35773438 36.86726563 -47.63671875 36.86328125 C-53.85156852 36.86989983 -59.85801954 37.03021361 -66 38 C-66.82545713 33.52463 -67.36031587 30.06093007 -65.875 25.6875 C-62.94978068 21.49468564 -60.04684892 18.94504107 -55 18 C-53.25034664 17.90244336 -51.49823207 17.84496282 -49.74609375 17.81640625 C-36.01415922 17.75368832 -36.01415922 17.75368832 -24.5625 11.25 C-23.01983962 9.5192103 -21.4970091 7.77042305 -20 6 C-13.87309898 0.58454156 -8.21479328 -1.71671377 0 0 Z " fill="#FE7E91" transform="translate(162,74)"/>
<path d="M0 0 C4.81845185 2.02549043 8.81674627 4.7334731 12.38671875 8.5546875 C21.21457837 17.65965482 30.0643933 17.30240729 42.24609375 17.62109375 C43.23279053 17.6255249 44.2194873 17.62995605 45.23608398 17.63452148 C49.69965529 18.22474905 53.13782516 20.56539019 56 24 C56.8951052 26.6853156 57.22112649 28.52801263 57.3125 31.3125 C57.36857422 32.42044922 57.36857422 32.42044922 57.42578125 33.55078125 C56.81512011 37.06348341 55.11228704 39.14769403 53 42 C52.22527344 43.04800781 51.45054687 44.09601563 50.65234375 45.17578125 C46.4070321 50.27078933 42.79119965 54.06336335 35.98828125 54.99609375 C31.30631897 55.33959187 26.68472189 55.25481751 22 55 C21.53851563 53.99582031 21.07703125 52.99164063 20.6015625 51.95703125 C11.96447909 33.64992506 0.62764906 20.42243129 -17 10 C-15.3203125 4.296875 -15.3203125 4.296875 -12.4375 1.625 C-8.00147847 -0.47202836 -4.81550041 -0.99900171 0 0 Z " fill="#FE7D91" transform="translate(359,74)"/>
<path d="M0 0 C0.70562576 0.0143811 1.41125153 0.02876221 2.13825989 0.0435791 C2.88986893 0.042995 3.64147797 0.04241089 4.41586304 0.04180908 C6.8944403 0.04459068 9.3718074 0.0756845 11.85017395 0.10705566 C13.57080936 0.11451783 15.29145327 0.12021088 17.01210022 0.12420654 C21.53655034 0.13946492 26.06048523 0.17874824 30.58473206 0.22302246 C35.20308971 0.26397092 39.82153076 0.28221664 44.4400177 0.30236816 C53.49887401 0.34524266 62.55721299 0.41559394 71.61579895 0.49768066 C71.61579895 5.77768066 71.61579895 11.05768066 71.61579895 16.49768066 C44.55579895 16.49768066 17.49579895 16.49768066 -10.38420105 16.49768066 C-9.01571705 0.07587268 -9.01571705 0.07587268 0 0 Z " fill="#F1D0FE" transform="translate(216.3842010498047,300.5023193359375)"/>
<path d="M0 0 C26.73 0 53.46 0 81 0 C81 6.24601419 80.77696721 7.42788179 77 12 C72.4854033 15.59911767 69.54304948 16.49496832 63.80126953 16.45410156 C63.10788986 16.45468567 62.41451019 16.45526978 61.70011902 16.45587158 C59.42715937 16.45310323 57.15554065 16.42207381 54.8828125 16.390625 C53.29955766 16.38315809 51.71629353 16.37746728 50.13302612 16.37347412 C45.98012459 16.35825305 41.82778891 16.31900245 37.67510986 16.2746582 C33.43192193 16.23362884 29.18864193 16.21544681 24.9453125 16.1953125 C16.62992062 16.15250391 8.31509605 16.08218372 0 16 C0 10.72 0 5.44 0 0 Z " fill="#F1D0FE" transform="translate(206,333)"/>
<path d="M0 0 C5.28 0.33 10.56 0.66 16 1 C16 24.76 16 48.52 16 73 C10.72 73 5.44 73 0 73 C0 48.91 0 24.82 0 0 Z " fill="#77CC7D" transform="translate(247,227)"/>
<path d="M0 0 C3.79514548 0.53253374 7.23257839 1.72542084 10.8125 3.0625 C11.78832031 3.42472656 12.76414062 3.78695312 13.76953125 4.16015625 C14.50558594 4.43730469 15.24164063 4.71445313 16 5 C15.05795413 11.0670566 12.27744371 16.25504546 9.64501953 21.74804688 C8.75250698 23.61974259 7.88201034 25.50070252 7.01171875 27.3828125 C6.44582031 28.56875 5.87992187 29.7546875 5.296875 30.9765625 C4.78479492 32.06018066 4.27271484 33.14379883 3.74511719 34.26025391 C1.78608621 37.33583388 0.23772949 38.40579594 -3 40 C-3.96873047 40.51639038 -3.96873047 40.51639038 -4.95703125 41.04321289 C-5.87548828 41.50328735 -5.87548828 41.50328735 -6.8125 41.97265625 C-7.49570312 42.31490234 -8.17890625 42.65714844 -8.8828125 43.00976562 C-9.58148438 43.35716797 -10.28015625 43.70457031 -11 44.0625 C-11.69867188 44.41376953 -12.39734375 44.76503906 -13.1171875 45.12695312 C-14.14199219 45.63838867 -14.14199219 45.63838867 -15.1875 46.16015625 C-15.79980469 46.46574463 -16.41210938 46.77133301 -17.04296875 47.08618164 C-19.32731223 48.15283554 -21.65267397 49.08149213 -24 50 C-20.14224125 40.20977298 -15.61025117 30.7876012 -10.98730469 21.34155273 C-9.73467968 18.78118525 -8.48808918 16.21794171 -7.2421875 13.65429688 C-6.44826476 12.02587191 -5.65400666 10.3976104 -4.859375 8.76953125 C-4.48649353 8.00300735 -4.11361206 7.23648346 -3.72943115 6.44673157 C-1.11572598 1.11572598 -1.11572598 1.11572598 0 0 Z " fill="#76CC7C" transform="translate(332,194)"/>
<path d="M0 0 C2.63469077 5.38840955 5.2672628 10.77784723 7.89794922 16.16821289 C8.79158526 17.99856927 9.68578113 19.82865243 10.58056641 21.65844727 C11.87292446 24.30151399 13.16320895 26.94558454 14.453125 29.58984375 C15.04556 30.79978249 15.04556 30.79978249 15.64996338 32.03416443 C16.77857909 34.35061961 17.89321044 36.67304348 19 39 C19.39844116 39.83056915 19.79688232 40.66113831 20.20739746 41.51687622 C20.5833606 42.32414154 20.95932373 43.13140686 21.34667969 43.96313477 C21.68850281 44.69033218 22.03032593 45.4175296 22.38250732 46.16676331 C22.6881662 47.07421547 22.6881662 47.07421547 23 48 C22.505 48.99 22.505 48.99 22 50 C21.27296875 49.55269531 20.5459375 49.10539062 19.796875 48.64453125 C18.28867188 47.73767578 18.28867188 47.73767578 16.75 46.8125 C15.77546875 46.22082031 14.8009375 45.62914062 13.796875 45.01953125 C11.58370753 43.71275359 9.67969635 42.90851251 7.19042969 42.19750977 C1.14414568 40.33223782 -2.36219715 38.31299528 -5.43890381 32.82017517 C-7.17171895 29.37000434 -8.7244848 25.85810928 -10.25 22.3125 C-10.9143957 20.85708756 -11.58234051 19.40328981 -12.25390625 17.95117188 C-17 7.564378 -17 7.564378 -17 5 C-14.54285453 4.16301614 -12.08441143 3.33027576 -9.625 2.5 C-8.92632812 2.26152344 -8.22765625 2.02304688 -7.5078125 1.77734375 C-2.2265625 0 -2.2265625 0 0 0 Z " fill="#77CB7C" transform="translate(179,194)"/>
</svg>
