<?xml version="1.0" encoding="iso-8859-1"?>
<!-- Generator: Adobe Illustrator 19.0.0, SVG Export Plug-In . SVG Version: 6.00 Build 0)  -->
<svg version="1.1" id="Layer_1" xmlns="http://www.w3.org/2000/svg" xmlns:xlink="http://www.w3.org/1999/xlink" x="0px" y="0px"
	 viewBox="0 0 512 512" style="enable-background:new 0 0 512 512;" xml:space="preserve">
<g>
	<g>
		<path d="M386.723,212.426h-65.362c-4.512,0-8.17,3.657-8.17,8.17v43.574c0,4.513,3.658,8.17,8.17,8.17h65.362
			c4.512,0,8.17-3.657,8.17-8.17v-43.574C394.894,216.083,391.236,212.426,386.723,212.426z M378.553,256h-49.021v-27.234h49.021
			V256z"/>
	</g>
</g>
<g>
	<g>
		<path d="M288.681,212.426h-65.362c-4.512,0-8.17,3.657-8.17,8.17v43.574c0,4.513,3.658,8.17,8.17,8.17h65.362
			c4.512,0,8.17-3.657,8.17-8.17v-43.574C296.851,216.083,293.193,212.426,288.681,212.426z M280.511,256h-49.021v-27.234h49.021
			V256z"/>
	</g>
</g>
<g>
	<g>
		<path d="M288.681,386.723h-65.362c-4.512,0-8.17,3.657-8.17,8.17v65.362c0,4.513,3.658,8.17,8.17,8.17h65.362
			c4.512,0,8.17-3.657,8.17-8.17v-65.362C296.851,390.38,293.193,386.723,288.681,386.723z M280.511,452.085h-49.021v-49.021h49.021
			V452.085z"/>
	</g>
</g>
<g>
	<g>
		<path d="M288.681,288.681h-65.362c-4.512,0-8.17,3.657-8.17,8.17v65.362c0,4.513,3.658,8.17,8.17,8.17h65.362
			c4.512,0,8.17-3.657,8.17-8.17v-65.362C296.851,292.338,293.193,288.681,288.681,288.681z M280.511,354.043h-49.021v-49.021
			h49.021V354.043z"/>
	</g>
</g>
<g>
	<g>
		<path d="M190.638,212.426h-65.362c-4.512,0-8.17,3.657-8.17,8.17v43.574c0,4.513,3.658,8.17,8.17,8.17h65.362
			c4.512,0,8.17-3.657,8.17-8.17v-43.574C198.809,216.083,195.15,212.426,190.638,212.426z M182.468,256h-49.021v-27.234h49.021V256
			z"/>
	</g>
</g>
<g>
	<g>
		<path d="M190.638,386.723h-65.362c-4.512,0-8.17,3.657-8.17,8.17v65.362c0,4.513,3.658,8.17,8.17,8.17h65.362
			c4.512,0,8.17-3.657,8.17-8.17v-65.362C198.809,390.38,195.15,386.723,190.638,386.723z M182.468,452.085h-49.021v-49.021h49.021
			V452.085z"/>
	</g>
</g>
<g>
	<g>
		<path d="M190.638,288.681h-65.362c-4.512,0-8.17,3.657-8.17,8.17v65.362c0,4.513,3.658,8.17,8.17,8.17h65.362
			c4.512,0,8.17-3.657,8.17-8.17v-65.362C198.809,292.338,195.15,288.681,190.638,288.681z M182.468,354.043h-49.021v-49.021h49.021
			V354.043z"/>
	</g>
</g>
<g>
	<g>
		<path d="M386.723,288.681h-65.362c-4.512,0-8.17,3.657-8.17,8.17v32.681c0,4.513,3.658,8.17,8.17,8.17s8.17-3.657,8.17-8.17
			v-24.511h49.021v147.064h-49.021v-89.872c0-4.513-3.658-8.17-8.17-8.17s-8.17,3.657-8.17,8.17v98.043
			c0,4.513,3.658,8.17,8.17,8.17h65.362c4.512,0,8.17-3.657,8.17-8.17V296.851C394.894,292.338,391.236,288.681,386.723,288.681z"/>
	</g>
</g>
<g>
	<g>
		<path d="M397.617,0H114.383C91.857,0,73.532,18.325,73.532,40.851v430.298c0,22.526,18.325,40.851,40.851,40.851h283.234
			c22.526,0,40.851-18.325,40.851-40.851V40.851C438.468,18.325,420.143,0,397.617,0z M422.128,471.149
			c0,13.515-10.995,24.511-24.511,24.511H114.383c-13.516,0-24.511-10.996-24.511-24.511V40.851
			c0-13.515,10.995-24.511,24.511-24.511h283.234c13.516,0,24.511,10.996,24.511,24.511V471.149z"/>
	</g>
</g>
<g>
	<g>
		<path d="M386.723,43.574H125.277c-4.512,0-8.17,3.657-8.17,8.17v103.489c0,4.513,3.658,8.17,8.17,8.17h261.447
			c4.512,0,8.17-3.657,8.17-8.17V51.745C394.894,47.231,391.236,43.574,386.723,43.574z M133.447,147.064V59.915h108.275
			l-87.149,87.149H133.447z M378.553,147.064H270.278l26.238-26.238c3.191-3.192,3.191-8.364,0-11.555
			c-3.191-3.19-8.364-3.19-11.554,0l-37.794,37.793h-69.486l87.149-87.149h69.486l-26.238,26.238c-3.191,3.192-3.191,8.364,0,11.555
			c1.595,1.595,3.686,2.392,5.777,2.392s4.182-0.797,5.777-2.392l37.794-37.793h21.126V147.064z"/>
	</g>
</g>
<g>
</g>
<g>
</g>
<g>
</g>
<g>
</g>
<g>
</g>
<g>
</g>
<g>
</g>
<g>
</g>
<g>
</g>
<g>
</g>
<g>
</g>
<g>
</g>
<g>
</g>
<g>
</g>
<g>
</g>
</svg>
