<?xml version="1.0" encoding="UTF-8"?>
<svg version="1.1" xmlns="http://www.w3.org/2000/svg" width="512" height="512">
<path d="M0 0 C0.71859509 -0.00538554 1.43719017 -0.01077108 2.17756087 -0.01631981 C4.58587896 -0.03062939 6.99364972 -0.02348851 9.4019928 -0.01637268 C11.12844282 -0.0220747 12.85488906 -0.02903831 14.58132935 -0.03717041 C19.27141549 -0.0551357 23.96131488 -0.0539271 28.65142512 -0.04822803 C32.56556028 -0.045141 36.47965932 -0.05122322 40.39378935 -0.05726677 C49.62702305 -0.0713215 58.86016425 -0.06974287 68.09339905 -0.05836487 C77.62174572 -0.04688273 87.14981097 -0.06095876 96.67812055 -0.08776134 C104.85657579 -0.10990629 113.0349426 -0.11655844 121.2134257 -0.11068493 C126.09905742 -0.10731125 130.98450873 -0.10975763 135.87011528 -0.12693596 C140.46421087 -0.1423838 145.05788904 -0.13847368 149.651968 -0.11963081 C151.33821787 -0.11593891 153.02449851 -0.1190709 154.71072006 -0.1295166 C157.01262672 -0.1426878 159.31314359 -0.1312151 161.61499023 -0.11352539 C163.54711066 -0.11321146 163.54711066 -0.11321146 165.51826382 -0.1128912 C169.45255604 0.47451 171.08371316 1.60305955 173.87098694 4.38768005 C175.17338562 6.90287781 175.17338562 6.90287781 176.13514709 9.76365662 C176.69064743 11.37618317 176.69064743 11.37618317 177.25737 13.02128601 C177.82794632 14.75726044 177.82794632 14.75726044 178.41004944 16.52830505 C178.81758453 17.72445435 179.22511963 18.92060364 179.64500427 20.15299988 C180.72405822 23.32897679 181.7890001 26.50897709 182.84712219 29.69194031 C183.91962474 32.90803558 185.0089081 36.11842538 186.09754944 39.3290863 C187.32463576 42.95038031 188.54952474 46.5722405 189.76249695 50.19828796 C191.3125836 54.82955081 192.86654211 59.44042198 194.63807678 63.99217224 C195.87098694 67.38768005 195.87098694 67.38768005 195.87098694 70.38768005 C197.68810432 70.37435638 197.68810432 70.37435638 199.54193115 70.36076355 C211.00170583 70.2794031 222.4614213 70.21958329 233.9214201 70.18043137 C239.81204019 70.15962576 245.70242566 70.13143711 251.59291077 70.08592224 C257.28581842 70.04221319 262.97850149 70.0184902 268.6715641 70.00817108 C270.83511193 70.00082451 272.99864856 69.98647927 275.16209984 69.96475983 C294.01192036 69.78318113 309.51442599 71.85860038 323.87098694 85.38768005 C326.28504944 88.2978363 326.28504944 88.2978363 328.49598694 91.45018005 C329.23075256 92.47240662 329.96551819 93.49463318 330.72254944 94.5478363 C336.21347241 103.55190583 337.45937027 113.02115129 337.37892151 123.3669281 C337.38516147 124.61828143 337.39140143 125.86963476 337.39783049 127.15890789 C337.41438416 130.59765942 337.40634212 134.03596158 337.39388561 137.4747138 C337.38477952 141.1966781 337.3988322 144.91856884 337.4098053 148.64051819 C337.4275362 155.91814176 337.42377487 163.19559975 337.41215473 170.47322965 C337.40309921 176.39104645 337.40190555 182.30881704 337.40625 188.22663879 C337.40686293 189.07080878 337.40747586 189.91497877 337.40810737 190.78472966 C337.40938635 192.49996449 337.4106832 194.21519931 337.41199774 195.93043411 C337.42338763 211.99168883 337.41031485 228.05285204 337.38879627 244.11409175 C337.37092673 257.87753418 337.37403129 271.64084163 337.39247131 285.40428162 C337.41390619 301.41040294 337.42228914 317.41644418 337.41002226 333.42257786 C337.40874814 335.13129233 337.40749066 336.84000682 337.40625 338.54872131 C337.4056329 339.38931066 337.4050158 340.2299 337.40437999 341.09596175 C337.40093494 347.00257753 337.40673717 352.90914225 337.41616821 358.81575012 C337.42741872 366.01982409 337.42428431 373.22372385 337.40304524 380.42777801 C337.39257564 384.09922856 337.38834242 387.77038929 337.40164185 391.44183731 C337.4158728 395.43095148 337.39881339 399.41934204 337.37892151 403.40843201 C337.3878444 404.55592265 337.39676728 405.7034133 337.40596056 406.88567638 C337.27678919 420.28963435 332.65240465 431.93634759 323.61708069 441.86424255 C313.71268508 451.37119051 301.95311022 456.63000815 288.20744801 456.64494896 C287.47611132 456.64845503 286.74477464 456.65196111 285.99127623 456.65557343 C283.55142925 456.66484474 281.11182319 456.65997523 278.67196655 456.65510559 C276.90066099 456.65884401 275.12935708 456.66344629 273.35805577 456.66883624 C268.49853284 456.68105804 263.63907879 456.68080673 258.779544 456.67844748 C253.53534075 456.67803911 248.29115952 456.68908047 243.04696655 456.69856262 C232.77528061 456.7151693 222.50361763 456.72067203 212.23191939 456.72178738 C203.88124522 456.72273805 195.53057862 456.72684928 187.17990685 456.73318863 C163.4978846 456.75080043 139.81588047 456.76002764 116.13385163 456.75852768 C114.85738216 456.75844777 113.58091269 456.75836786 112.26576233 456.75828552 C110.98773203 456.75820376 109.70970172 456.758122 108.39294323 456.75803776 C87.68345215 456.75722496 66.97403382 456.77636123 46.26456378 456.80456226 C24.99401913 456.83329847 3.72350996 456.84710213 -17.54705459 456.8453747 C-29.48633351 456.84471104 -41.42553617 456.850193 -53.36479759 456.8717308 C-63.53076923 456.8899523 -73.69663005 456.89428195 -83.86261096 456.88071196 C-89.04701184 456.87418716 -94.23120016 456.87404762 -99.41558075 456.89141846 C-104.16734097 456.90717565 -108.91872056 456.90425846 -113.67047165 456.88685019 C-115.38377855 456.88378613 -117.09711405 456.88739018 -118.81038722 456.89857034 C-134.74982147 456.99564461 -148.4124138 454.24467495 -160.60166931 443.1337738 C-171.58319314 431.7122557 -175.43527882 419.45576927 -175.40316772 404.02316284 C-175.4084044 402.77749277 -175.41364108 401.53182269 -175.41903645 400.24840504 C-175.43142157 396.80230213 -175.43488057 393.35640353 -175.43443954 389.91029251 C-175.43609164 386.18889443 -175.4491656 382.46753316 -175.46063232 378.74615479 C-175.48345255 370.61365775 -175.49139995 362.48118685 -175.49645877 354.34866214 C-175.49971971 349.26609901 -175.50624464 344.18354343 -175.51346016 339.10098457 C-175.53302337 325.01592344 -175.54942883 310.93086931 -175.55233669 296.84579372 C-175.55252426 295.9449724 -175.55271183 295.04415107 -175.55290509 294.11603213 C-175.55327133 292.2900089 -175.55363502 290.46398568 -175.5539962 288.63796245 C-175.55417901 287.73157776 -175.55436182 286.82519306 -175.55455017 285.89134216 C-175.55473072 284.9838449 -175.55491127 284.07634764 -175.55509729 283.14135046 C-175.55863672 268.44630637 -175.58564586 253.75140902 -175.62304806 239.05641579 C-175.6611822 223.95237299 -175.68049455 208.8484029 -175.68079621 193.74431092 C-175.68137968 185.27076601 -175.68980031 176.79739611 -175.71879387 168.32389641 C-175.74337635 161.10657848 -175.75054466 153.88949937 -175.73554634 146.67215084 C-175.72840494 142.99433407 -175.72911358 139.31698819 -175.75195694 135.63922501 C-175.87435389 114.69812144 -174.98886471 99.24834162 -160.12901306 83.38768005 C-151.76323758 75.90251252 -140.32297384 70.29675038 -128.96372986 70.36473083 C-127.06554504 70.3760907 -127.06554504 70.3760907 -125.12901306 70.38768005 C-125.14996033 69.26273132 -125.17090759 68.13778259 -125.19248962 66.97874451 C-125.26502829 62.79495532 -125.31086296 58.61122144 -125.34873962 54.42698669 C-125.36882359 52.61797225 -125.39609647 50.80902248 -125.43077087 49.00022888 C-125.47943198 46.39614384 -125.50201357 43.79291891 -125.51963806 41.1884613 C-125.5402832 40.38306412 -125.56092834 39.57766693 -125.5821991 38.74786377 C-125.58378433 34.75801276 -125.42551792 32.85404637 -123.229599 29.40013123 C-120.09883689 26.40072722 -118.34828745 26.25384042 -114.11607361 26.19480896 C-112.54885811 26.17071457 -112.54885811 26.17071457 -110.94998169 26.14613342 C-106.169577 26.10174199 -101.3893119 26.06062125 -96.60874939 26.0375824 C-94.08586914 26.02101549 -91.56303597 25.99371622 -89.04039001 25.95555115 C-85.40692237 25.90084816 -81.77455553 25.87891756 -78.14073181 25.86424255 C-77.01350204 25.84157318 -75.88627228 25.81890381 -74.72488403 25.79554749 C-66.88503518 25.81674122 -66.88503518 25.81674122 -62.94078064 28.7953949 C-59.87784756 33.17785324 -59.99769343 36.46538779 -60.03135681 41.67674255 C-60.03277176 42.49516632 -60.03418671 43.31359009 -60.03564453 44.15681458 C-60.04125017 46.7754733 -60.05380358 49.39404709 -60.06651306 52.01268005 C-60.07152734 53.78611632 -60.07609037 55.55955392 -60.08018494 57.33299255 C-60.09037132 61.68461425 -60.10994556 66.03605187 -60.12901306 70.38768005 C-51.54901306 70.38768005 -42.96901306 70.38768005 -34.12901306 70.38768005 C-33.13901306 66.75768005 -32.14901306 63.12768005 -31.12901306 59.38768005 C-30.02690427 56.03076508 -28.90392912 52.6954365 -27.73057556 49.36424255 C-27.4137381 48.4562088 -27.09690063 47.54817505 -26.77046204 46.61262512 C-26.10497733 44.70791827 -25.43769138 42.80383986 -24.7686615 40.90037537 C-23.75935368 38.02787949 -22.75622675 35.15328275 -21.75401306 32.27830505 C-20.17889826 27.76879926 -18.58580495 23.26604097 -16.97776794 18.76817322 C-16.43893159 17.25690503 -15.90389177 15.74427357 -15.37400818 14.22984314 C-14.72926323 12.39002747 -14.06660333 10.55651658 -13.40245056 8.72361755 C-12.87917175 7.25867859 -12.87917175 7.25867859 -12.34532166 5.7641449 C-9.52766518 0.25891244 -5.8505658 0.01104001 0 0 Z " fill="#D94B85" transform="translate(175.12901306152344,27.612319946289063)"/>
<path d="M0 0 C41.12246644 -0.09156276 82.24491959 -0.1620424 123.36746761 -0.20426132 C128.22276178 -0.20926412 133.07805574 -0.21444141 137.93334961 -0.21972656 C139.3832472 -0.22130043 139.3832472 -0.22130043 140.86243565 -0.22290608 C156.51184733 -0.24030958 172.16120022 -0.27184697 187.81057703 -0.30861118 C203.86922304 -0.34602213 219.92783827 -0.36823618 235.98652607 -0.37635398 C245.89498138 -0.38184143 255.80327049 -0.39917082 265.71167464 -0.43166587 C272.5069682 -0.45281563 279.30217588 -0.45919899 286.09749996 -0.45400551 C290.01761973 -0.45144445 293.93744915 -0.45536027 297.85751724 -0.4768219 C301.449813 -0.49634505 305.04162426 -0.49723313 308.63394273 -0.48359558 C310.54205108 -0.481116 312.45015406 -0.49831635 314.35817903 -0.51632524 C324.15685514 -0.44826081 331.84803275 1.85124342 339.00490302 8.75249052 C346.03125515 16.66779146 347.88512567 25.35999597 347.75517273 35.63757324 C347.7681543 37.45947528 347.7681543 37.45947528 347.78139812 39.31818342 C347.79912583 42.65491268 347.79031101 45.98956921 347.76968896 49.32614684 C347.75395295 52.93770762 347.77301923 56.54911681 347.78749084 60.16065979 C347.81024099 67.22179429 347.80088725 74.28253131 347.77998998 81.34365761 C347.76366382 87.08557446 347.75951671 92.82738329 347.76395607 98.56932068 C347.76458675 99.38851241 347.76521742 100.20770415 347.76586721 101.05171987 C347.76721335 102.71622172 347.76859292 104.38072353 347.77000556 106.04522532 C347.78192448 121.63011729 347.75792242 137.21479209 347.72098748 152.79963464 C347.6900972 166.1537721 347.68772554 179.50765974 347.70678711 192.86181641 C347.72893127 208.39332001 347.73501433 223.92468376 347.71446449 239.4561944 C347.71230169 241.11435602 347.71015259 242.77251766 347.70801735 244.43067932 C347.70695098 245.24639167 347.70588462 246.06210402 347.70478594 246.90253493 C347.69833366 252.63332703 347.7030634 258.36404681 347.71204185 264.09483337 C347.72261001 271.08486087 347.71497306 278.07459607 347.68458607 285.06456983 C347.66952393 288.62670769 347.66220621 292.18838541 347.67677689 295.75053596 C347.69232438 299.62144213 347.66875387 303.49157254 347.64164734 307.36242676 C347.65211883 308.47489887 347.66259032 309.58737098 347.67337912 310.73355436 C347.54270908 320.79124488 344.67110202 329.36148832 338 337 C335.66796875 338.73046875 335.66796875 338.73046875 333.1875 340.1875 C332.37667969 340.67605469 331.56585938 341.16460937 330.73046875 341.66796875 C325.07842887 344.42525859 319.82027573 345.25036284 313.57327461 345.25726891 C312.85540038 345.26077498 312.13752614 345.26428105 311.39789814 345.26789337 C308.99786356 345.27718044 306.59807306 345.27229109 304.19802856 345.26742554 C302.45773365 345.27116314 300.71744042 345.27576511 298.97714984 345.28115618 C294.19885739 345.2933877 289.42063494 345.29312554 284.64233041 345.29076743 C279.48748461 345.29035931 274.33266126 345.30139789 269.17782593 345.31088257 C259.08046843 345.32749384 248.98313428 345.33299215 238.88576426 345.33410732 C230.67900583 345.33505764 222.47225511 345.33916708 214.26549911 345.34550858 C191.00000623 345.36312049 167.73453179 345.3723474 144.46903218 345.37084763 C143.21484238 345.37076772 141.96065258 345.3706878 140.66845703 345.37060547 C138.78487684 345.37048283 138.78487684 345.37048283 136.86324452 345.37035771 C116.50664604 345.36954458 96.15012151 345.38868913 75.79354443 345.4168822 C54.89369473 345.44559944 33.99388112 345.45942317 13.09401119 345.45769465 C1.35940673 345.4570304 -10.37512018 345.46253818 -22.10970688 345.48405075 C-32.09941632 345.50224714 -42.08901305 345.50662245 -52.07873188 345.4930319 C-57.17554507 345.48649481 -62.27214192 345.48641197 -67.36893463 345.5037384 C-72.03602552 345.51944097 -76.70272803 345.51663426 -81.36980928 345.49917014 C-83.05683014 345.49609407 -84.74387979 345.49975546 -86.4308667 345.51089029 C-102.61523382 345.61062688 -102.61523382 345.61062688 -110 341 C-110.65960563 340.60126974 -111.31921125 340.20253947 -111.99880493 339.79172647 C-118.9257447 335.4239034 -122.95747003 328.87588969 -125 321 C-125.3967661 316.72430695 -125.35015761 312.47843135 -125.29296875 308.1875 C-125.28872391 306.97803711 -125.28447906 305.76857422 -125.28010559 304.52246094 C-125.26339038 300.68140866 -125.22575015 296.84089216 -125.1875 293 C-125.17244397 290.38672636 -125.15875717 287.77344445 -125.14648438 285.16015625 C-125.11351022 278.77325648 -125.06338184 272.38666653 -125 266 C-107.0934545 265.88320135 -89.18700785 265.79502896 -71.28016376 265.74093914 C-62.96569905 265.71515678 -54.65147101 265.68000589 -46.3371582 265.62280273 C-39.09043396 265.57296844 -31.84388112 265.54070921 -24.59699029 265.52955753 C-20.75967357 265.52303869 -16.9228472 265.50771781 -13.08568764 265.47134972 C-9.47325516 265.43738923 -5.86151456 265.42694676 -2.24893761 265.43446159 C-0.29245552 265.43243203 1.66395134 265.40553692 3.62023926 265.37789917 C12.23946888 265.42861954 12.23946888 265.42861954 16.18147278 268.39021301 C17.08164375 269.68205757 17.08164375 269.68205757 18 271 C36.37320727 289.31165548 59.88061567 300.18590179 85.02832031 305.57714844 C86.70657211 305.93707069 88.38108316 306.3143642 90.0546875 306.6953125 C104.39515535 309.57965589 119.69206734 308.5390193 134 306 C135.134375 305.80535156 136.26875 305.61070312 137.4375 305.41015625 C168.91350774 299.36533204 198.74261237 281.78913314 218 256 C218.65097656 255.18660156 219.30195313 254.37320313 219.97265625 253.53515625 C242.4562435 224.52551783 249.98537148 187.700822 245.42578125 151.68359375 C244.81356215 147.73280769 243.96215349 143.87979486 243 140 C242.7834375 139.03191406 242.566875 138.06382812 242.34375 137.06640625 C236.70617946 113.94565563 224.19070668 94.15477678 208 77 C207.31550781 76.25105469 206.63101562 75.50210938 205.92578125 74.73046875 C188.34254753 56.17219435 163.61010825 44.72062023 139 39 C138.24203125 38.82170654 137.4840625 38.64341309 136.703125 38.4597168 C128.16572583 36.68307451 119.67833049 36.60113943 111 36.625 C110.22309814 36.62587616 109.44619629 36.62675232 108.64575195 36.62765503 C96.69156691 36.67213386 85.45513358 37.3030207 74 41 C73.21818359 41.24669434 72.43636719 41.49338867 71.63085938 41.74755859 C50.37550678 48.62304894 32.13979036 59.54876725 16 75 C15.26523438 75.67160156 14.53046875 76.34320313 13.7734375 77.03515625 C0.57988107 89.5060974 -9.68831354 106.00962239 -16 123 C-16.33 123 -16.66 123 -17 123 C-17.84179869 90.05761123 -14.01980974 57.98459999 -7 25.8125 C-6.7630542 24.72598145 -6.5261084 23.63946289 -6.28198242 22.52001953 C-5.03000439 16.97257158 -3.59471384 11.53473179 -1.90234375 6.10424805 C-1.36661743 4.38010933 -1.36661743 4.38010933 -0.82006836 2.62113953 C-0.5494458 1.75616348 -0.27882324 0.89118744 0 0 Z " fill="#FC7C9F" transform="translate(145,119)"/>
<path d="M0 0 C0.71859509 -0.00538554 1.43719017 -0.01077108 2.17756087 -0.01631981 C4.58587896 -0.03062939 6.99364972 -0.02348851 9.4019928 -0.01637268 C11.12844282 -0.0220747 12.85488906 -0.02903831 14.58132935 -0.03717041 C19.27141549 -0.0551357 23.96131488 -0.0539271 28.65142512 -0.04822803 C32.56556028 -0.045141 36.47965932 -0.05122322 40.39378935 -0.05726677 C49.62702305 -0.0713215 58.86016425 -0.06974287 68.09339905 -0.05836487 C77.62174572 -0.04688273 87.14981097 -0.06095876 96.67812055 -0.08776134 C104.85657579 -0.10990629 113.0349426 -0.11655844 121.2134257 -0.11068493 C126.09905742 -0.10731125 130.98450873 -0.10975763 135.87011528 -0.12693596 C140.46421087 -0.1423838 145.05788904 -0.13847368 149.651968 -0.11963081 C151.33821787 -0.11593891 153.02449851 -0.1190709 154.71072006 -0.1295166 C157.01262672 -0.1426878 159.31314359 -0.1312151 161.61499023 -0.11352539 C163.54711066 -0.11321146 163.54711066 -0.11321146 165.51826382 -0.1128912 C169.45255604 0.47451 171.08371316 1.60305955 173.87098694 4.38768005 C175.17338562 6.90287781 175.17338562 6.90287781 176.13514709 9.76365662 C176.69064743 11.37618317 176.69064743 11.37618317 177.25737 13.02128601 C177.82794632 14.75726044 177.82794632 14.75726044 178.41004944 16.52830505 C178.81758453 17.72445435 179.22511963 18.92060364 179.64500427 20.15299988 C180.72405822 23.32897679 181.7890001 26.50897709 182.84712219 29.69194031 C183.91962474 32.90803558 185.0089081 36.11842538 186.09754944 39.3290863 C187.32463576 42.95038031 188.54952474 46.5722405 189.76249695 50.19828796 C191.3125836 54.82955081 192.86654211 59.44042198 194.63807678 63.99217224 C195.87098694 67.38768005 195.87098694 67.38768005 195.87098694 70.38768005 C197.68810432 70.37435638 197.68810432 70.37435638 199.54193115 70.36076355 C211.00170583 70.2794031 222.4614213 70.21958329 233.9214201 70.18043137 C239.81204019 70.15962576 245.70242566 70.13143711 251.59291077 70.08592224 C257.28581842 70.04221319 262.97850149 70.0184902 268.6715641 70.00817108 C270.83511193 70.00082451 272.99864856 69.98647927 275.16209984 69.96475983 C294.01192036 69.78318113 309.51442599 71.85860038 323.87098694 85.38768005 C326.28504944 88.2978363 326.28504944 88.2978363 328.49598694 91.45018005 C329.23075256 92.47240662 329.96551819 93.49463318 330.72254944 94.5478363 C336.21347241 103.55190583 337.45937027 113.02115129 337.37892151 123.3669281 C337.38516147 124.61828143 337.39140143 125.86963476 337.39783049 127.15890789 C337.41438416 130.59765942 337.40634212 134.03596158 337.39388561 137.4747138 C337.38477952 141.1966781 337.3988322 144.91856884 337.4098053 148.64051819 C337.4275362 155.91814176 337.42377487 163.19559975 337.41215473 170.47322965 C337.40309921 176.39104645 337.40190555 182.30881704 337.40625 188.22663879 C337.40686293 189.07080878 337.40747586 189.91497877 337.40810737 190.78472966 C337.40938635 192.49996449 337.4106832 194.21519931 337.41199774 195.93043411 C337.42338763 211.99168883 337.41031485 228.05285204 337.38879627 244.11409175 C337.37092673 257.87753418 337.37403129 271.64084163 337.39247131 285.40428162 C337.41390619 301.41040294 337.42228914 317.41644418 337.41002226 333.42257786 C337.40874814 335.13129233 337.40749066 336.84000682 337.40625 338.54872131 C337.4056329 339.38931066 337.4050158 340.2299 337.40437999 341.09596175 C337.40093494 347.00257753 337.40673717 352.90914225 337.41616821 358.81575012 C337.42741872 366.01982409 337.42428431 373.22372385 337.40304524 380.42777801 C337.39257564 384.09922856 337.38834242 387.77038929 337.40164185 391.44183731 C337.4158728 395.43095148 337.39881339 399.41934204 337.37892151 403.40843201 C337.3878444 404.55592265 337.39676728 405.7034133 337.40596056 406.88567638 C337.27678919 420.28963435 332.65240465 431.93634759 323.61708069 441.86424255 C313.71268508 451.37119051 301.95311022 456.63000815 288.20744801 456.64494896 C287.47611132 456.64845503 286.74477464 456.65196111 285.99127623 456.65557343 C283.55142925 456.66484474 281.11182319 456.65997523 278.67196655 456.65510559 C276.90066099 456.65884401 275.12935708 456.66344629 273.35805577 456.66883624 C268.49853284 456.68105804 263.63907879 456.68080673 258.779544 456.67844748 C253.53534075 456.67803911 248.29115952 456.68908047 243.04696655 456.69856262 C232.77528061 456.7151693 222.50361763 456.72067203 212.23191939 456.72178738 C203.88124522 456.72273805 195.53057862 456.72684928 187.17990685 456.73318863 C163.4978846 456.75080043 139.81588047 456.76002764 116.13385163 456.75852768 C114.85738216 456.75844777 113.58091269 456.75836786 112.26576233 456.75828552 C110.98773203 456.75820376 109.70970172 456.758122 108.39294323 456.75803776 C87.68345215 456.75722496 66.97403382 456.77636123 46.26456378 456.80456226 C24.99401913 456.83329847 3.72350996 456.84710213 -17.54705459 456.8453747 C-29.48633351 456.84471104 -41.42553617 456.850193 -53.36479759 456.8717308 C-63.53076923 456.8899523 -73.69663005 456.89428195 -83.86261096 456.88071196 C-89.04701184 456.87418716 -94.23120016 456.87404762 -99.41558075 456.89141846 C-104.16734097 456.90717565 -108.91872056 456.90425846 -113.67047165 456.88685019 C-115.38377855 456.88378613 -117.09711405 456.88739018 -118.81038722 456.89857034 C-134.74982147 456.99564461 -148.4124138 454.24467495 -160.60166931 443.1337738 C-171.58319314 431.7122557 -175.43527882 419.45576927 -175.40316772 404.02316284 C-175.4084044 402.77749277 -175.41364108 401.53182269 -175.41903645 400.24840504 C-175.43142157 396.80230213 -175.43488057 393.35640353 -175.43443954 389.91029251 C-175.43609164 386.18889443 -175.4491656 382.46753316 -175.46063232 378.74615479 C-175.48345255 370.61365775 -175.49139995 362.48118685 -175.49645877 354.34866214 C-175.49971971 349.26609901 -175.50624464 344.18354343 -175.51346016 339.10098457 C-175.53302337 325.01592344 -175.54942883 310.93086931 -175.55233669 296.84579372 C-175.55252426 295.9449724 -175.55271183 295.04415107 -175.55290509 294.11603213 C-175.55327133 292.2900089 -175.55363502 290.46398568 -175.5539962 288.63796245 C-175.55417901 287.73157776 -175.55436182 286.82519306 -175.55455017 285.89134216 C-175.55473072 284.9838449 -175.55491127 284.07634764 -175.55509729 283.14135046 C-175.55863672 268.44630637 -175.58564586 253.75140902 -175.62304806 239.05641579 C-175.6611822 223.95237299 -175.68049455 208.8484029 -175.68079621 193.74431092 C-175.68137968 185.27076601 -175.68980031 176.79739611 -175.71879387 168.32389641 C-175.74337635 161.10657848 -175.75054466 153.88949937 -175.73554634 146.67215084 C-175.72840494 142.99433407 -175.72911358 139.31698819 -175.75195694 135.63922501 C-175.87435389 114.69812144 -174.98886471 99.24834162 -160.12901306 83.38768005 C-151.76323758 75.90251252 -140.32297384 70.29675038 -128.96372986 70.36473083 C-127.06554504 70.3760907 -127.06554504 70.3760907 -125.12901306 70.38768005 C-125.14996033 69.26273132 -125.17090759 68.13778259 -125.19248962 66.97874451 C-125.26502829 62.79495532 -125.31086296 58.61122144 -125.34873962 54.42698669 C-125.36882359 52.61797225 -125.39609647 50.80902248 -125.43077087 49.00022888 C-125.47943198 46.39614384 -125.50201357 43.79291891 -125.51963806 41.1884613 C-125.5402832 40.38306412 -125.56092834 39.57766693 -125.5821991 38.74786377 C-125.58378433 34.75801276 -125.42551792 32.85404637 -123.229599 29.40013123 C-120.09883689 26.40072722 -118.34828745 26.25384042 -114.11607361 26.19480896 C-112.54885811 26.17071457 -112.54885811 26.17071457 -110.94998169 26.14613342 C-106.169577 26.10174199 -101.3893119 26.06062125 -96.60874939 26.0375824 C-94.08586914 26.02101549 -91.56303597 25.99371622 -89.04039001 25.95555115 C-85.40692237 25.90084816 -81.77455553 25.87891756 -78.14073181 25.86424255 C-77.01350204 25.84157318 -75.88627228 25.81890381 -74.72488403 25.79554749 C-66.88503518 25.81674122 -66.88503518 25.81674122 -62.94078064 28.7953949 C-59.87784756 33.17785324 -59.99769343 36.46538779 -60.03135681 41.67674255 C-60.03277176 42.49516632 -60.03418671 43.31359009 -60.03564453 44.15681458 C-60.04125017 46.7754733 -60.05380358 49.39404709 -60.06651306 52.01268005 C-60.07152734 53.78611632 -60.07609037 55.55955392 -60.08018494 57.33299255 C-60.09037132 61.68461425 -60.10994556 66.03605187 -60.12901306 70.38768005 C-51.54901306 70.38768005 -42.96901306 70.38768005 -34.12901306 70.38768005 C-33.13901306 66.75768005 -32.14901306 63.12768005 -31.12901306 59.38768005 C-30.02690427 56.03076508 -28.90392912 52.6954365 -27.73057556 49.36424255 C-27.4137381 48.4562088 -27.09690063 47.54817505 -26.77046204 46.61262512 C-26.10497733 44.70791827 -25.43769138 42.80383986 -24.7686615 40.90037537 C-23.75935368 38.02787949 -22.75622675 35.15328275 -21.75401306 32.27830505 C-20.17889826 27.76879926 -18.58580495 23.26604097 -16.97776794 18.76817322 C-16.43893159 17.25690503 -15.90389177 15.74427357 -15.37400818 14.22984314 C-14.72926323 12.39002747 -14.06660333 10.55651658 -13.40245056 8.72361755 C-12.87917175 7.25867859 -12.87917175 7.25867859 -12.34532166 5.7641449 C-9.52766518 0.25891244 -5.8505658 0.01104001 0 0 Z M-145.50401306 98.45018005 C-146.27487244 99.12178162 -147.04573181 99.79338318 -147.83995056 100.4853363 C-154.28552482 108.6577965 -155.8647735 116.77179104 -155.75720215 126.96315002 C-155.76429654 128.18309721 -155.77139092 129.40304439 -155.77870029 130.65995967 C-155.79316825 134.01591261 -155.78546789 137.37043554 -155.76797736 140.7262814 C-155.75453335 144.3568703 -155.77006534 147.98735631 -155.78179932 151.61793518 C-155.80012707 158.71759714 -155.79169681 165.81698291 -155.77371109 172.91663612 C-155.75965714 178.68815085 -155.75579828 184.45959086 -155.75915337 190.23112106 C-155.75963081 191.05408982 -155.76010825 191.87705857 -155.76060016 192.72496577 C-155.76162654 194.39704334 -155.7626819 196.06912088 -155.76376592 197.74119841 C-155.77232286 212.50834244 -155.75568956 227.27535353 -155.72593689 242.04246521 C-155.69709143 256.35957928 -155.69002221 270.67650192 -155.70542908 284.99363708 C-155.72220176 300.6012664 -155.72621538 316.20880495 -155.70871872 331.81643665 C-155.70687441 333.48158128 -155.70503968 335.14672592 -155.70321465 336.81187057 C-155.70230256 337.63106416 -155.70139047 338.45025775 -155.70045074 339.29427538 C-155.69485278 345.05751334 -155.6981455 350.82070687 -155.7047596 356.58394241 C-155.71250231 363.60917383 -155.70570622 370.63421704 -155.68058456 377.65941061 C-155.66811235 381.24136725 -155.6619151 384.8230312 -155.67312622 388.40499878 C-155.68506287 392.29223806 -155.66586452 396.17897526 -155.64367676 400.06617737 C-155.65191752 401.19196107 -155.66015829 402.31774477 -155.66864878 403.47764313 C-155.59632055 410.34658142 -154.44885025 415.37055029 -151.12901306 421.38768005 C-150.59276306 422.41893005 -150.05651306 423.45018005 -149.50401306 424.51268005 C-144.66445937 430.37108716 -138.42734878 434.34478824 -131.12901306 436.38768005 C-127.62367408 436.68724937 -127.62367408 436.68724937 -123.83092213 436.64494896 C-122.75674033 436.65020807 -122.75674033 436.65020807 -121.66085789 436.65557343 C-119.2607457 436.66487879 -116.86087662 436.65996637 -114.46075439 436.65510559 C-112.72274792 436.6588423 -110.98474312 436.6634439 -109.246741 436.66883624 C-104.47005044 436.68107932 -99.69342986 436.68080422 -94.91672719 436.67844748 C-89.76523388 436.67803965 -84.6137631 436.68907539 -79.46228027 436.69856262 C-69.36879357 436.71518119 -59.27533022 436.72067257 -49.18183098 436.72178738 C-40.97697276 436.72273752 -32.77212225 436.72684615 -24.56726646 436.73318863 C-1.30599675 436.75080401 21.95525451 436.76002713 45.21653094 436.75852768 C46.4707607 436.75844777 47.72499045 436.75836786 49.01722717 436.75828552 C50.27298818 436.75820376 51.52874919 436.758122 52.82256357 436.75803776 C73.171408 436.75722496 93.52017839 436.7763604 113.86900141 436.80456226 C134.76204903 436.83328988 155.65506055 436.84710259 176.54812843 436.8453747 C188.27834023 436.84471072 200.00847443 436.85020656 211.73866844 436.8717308 C221.72688103 436.88994105 231.71498086 436.89429123 241.70320287 436.88071196 C246.79823167 436.87418134 251.89304413 436.8740686 256.98805237 436.89141846 C261.65590441 436.90715005 266.32336857 436.90428454 270.99121115 436.88685019 C272.67627867 436.88378049 274.36137513 436.88741158 276.0464085 436.89857034 C287.29192902 436.96808535 298.05888121 436.18274652 307.30848694 429.0009613 C315.56247052 420.47872326 317.16927786 410.82165082 317.15187073 399.47163391 C317.15781297 398.2621591 317.16375522 397.05268429 317.16987753 395.80655873 C317.18420804 392.45695167 317.18959378 389.10754984 317.19107246 385.75792694 C317.19478257 382.14220394 317.2098818 378.52652503 317.2233429 374.91082764 C317.25047468 367.00774284 317.26255366 359.10467839 317.27136421 351.20155478 C317.27689525 346.26357311 317.28537112 341.32559923 317.29437256 336.38762283 C317.31875389 322.70664144 317.33935296 309.02566627 317.34612274 295.34466362 C317.34656187 294.46951255 317.34700101 293.59436148 317.34745345 292.69269068 C317.34789 291.81548524 317.34832656 290.9382798 317.34877634 290.03449237 C317.34966326 288.25703931 317.35055639 286.47958624 317.35145569 284.70213318 C317.35189855 283.82046133 317.35234141 282.93878947 317.35279769 282.03040029 C317.36069013 267.7510039 317.39558905 253.47181186 317.44217473 239.19249438 C317.48965486 224.52015735 317.51452887 209.84792274 317.51685858 195.17550766 C317.51868919 186.9423046 317.53012028 178.70936778 317.5664978 170.47623825 C317.59737189 163.46412415 317.60749882 156.45235859 317.5910216 149.44018941 C317.58323332 145.86582803 317.58494272 142.2921677 317.61313629 138.7178936 C317.64349429 134.83350676 317.62680809 130.9500944 317.60597229 127.06562805 C317.6220851 125.94906322 317.63819791 124.8324984 317.65479898 123.68209827 C317.52688682 113.44538047 313.9404544 105.15087445 306.68348694 97.88768005 C297.43050077 89.56546764 285.34935692 89.81186985 273.67738342 89.87974548 C271.94330797 89.87513086 270.20923643 89.86877419 268.475173 89.86083651 C263.7324941 89.84419714 258.99013873 89.85236496 254.24745893 89.86478138 C249.12399108 89.87385167 244.00057788 89.85985233 238.87712097 89.84886169 C228.8491225 89.83109302 218.82124392 89.83490912 208.79324079 89.84651226 C200.64188991 89.85555279 192.49057259 89.85676789 184.33921814 89.85241699 C182.59774007 89.85149759 182.59774007 89.85149759 180.82108063 89.85055962 C178.46242053 89.8492807 176.10376045 89.84798384 173.74510038 89.84666926 C151.63784062 89.83526829 129.53064725 89.84836959 107.42339838 89.86987072 C88.46220976 89.88774125 69.5011191 89.884637 50.53993225 89.86619568 C28.51074772 89.84478045 6.48162135 89.83636689 -15.54757214 89.84864473 C-17.89746284 89.8499189 -20.24735354 89.85117639 -22.59724426 89.85241699 C-23.75337788 89.85303409 -24.90951149 89.8536512 -26.10067946 89.854287 C-34.2404381 89.85773793 -42.3801598 89.85191707 -50.51991272 89.84249878 C-60.44214061 89.83127019 -70.36424196 89.83433702 -80.28645539 89.85562176 C-85.34708129 89.8661205 -90.40749633 89.87027395 -95.46812057 89.85702515 C-100.10433084 89.8450712 -104.74013559 89.85171325 -109.37630928 89.87293535 C-111.04978152 89.8773887 -112.7232883 89.87516376 -114.39673817 89.8654322 C-125.76784078 89.8043994 -136.65605961 90.37227034 -145.50401306 98.45018005 Z " fill="#052A75" transform="translate(175.12901306152344,27.612319946289063)"/>
<path d="M0 0 C3.87182349 3.07006081 7.55673264 6.31632178 11.20996094 9.64208984 C11.86222656 10.21185547 12.51449219 10.78162109 13.18652344 11.36865234 C32.41525863 29.1392844 45.16398738 57.49053136 46.33569336 83.42504883 C47.23806035 119.02157623 38.36632322 149.29680209 13.6875 175.61572266 C2.66283849 186.97629707 -10.42644615 195.15530595 -24.79003906 201.64208984 C-26.00820313 202.22216797 -26.00820313 202.22216797 -27.25097656 202.81396484 C-51.59542393 213.61525548 -84.23846751 212.94282578 -108.97753906 203.89208984 C-125.41145081 197.46964157 -138.93807898 188.73932073 -151.79003906 176.64208984 C-152.45519531 176.05298828 -153.12035156 175.46388672 -153.80566406 174.85693359 C-172.55418359 157.51836371 -184.85319651 129.00920578 -185.91113281 103.75097656 C-186.31800045 90.39147783 -186.18871479 77.61885172 -182.79003906 64.64208984 C-182.52320313 63.56701172 -182.25636719 62.49193359 -181.98144531 61.38427734 C-173.7714364 31.68228954 -153.21645651 7.08005174 -126.79003906 -8.35791016 C-87.08404918 -30.26242755 -36.32513871 -27.55597675 0 0 Z " fill="#FEFEFE" transform="translate(325.7900390625,197.35791015625)"/>
<path d="M0 0 C17.9065455 -0.11679865 35.81299215 -0.20497104 53.71983624 -0.25906086 C62.03430095 -0.28484322 70.34852899 -0.31999411 78.6628418 -0.37719727 C85.90956604 -0.42703156 93.15611888 -0.45929079 100.40300971 -0.47044247 C104.24032643 -0.47696131 108.0771528 -0.49228219 111.91431236 -0.52865028 C115.52674484 -0.56261077 119.13848544 -0.57305324 122.75106239 -0.56553841 C124.70754448 -0.56756797 126.66395134 -0.59446308 128.62023926 -0.62210083 C137.23946888 -0.57138046 137.23946888 -0.57138046 141.18147278 2.39021301 C141.78158676 3.25144272 142.38170074 4.11267242 143 5 C161.37320727 23.31165548 184.88061567 34.18590179 210.02832031 39.57714844 C211.70657211 39.93707069 213.38108316 40.3143642 215.0546875 40.6953125 C229.39515535 43.57965589 244.69206734 42.5390193 259 40 C260.134375 39.80535156 261.26875 39.61070312 262.4375 39.41015625 C290.23374042 34.07201462 315.04082448 19.95917552 335 0 C336.77160318 -0.09634459 338.54708408 -0.12187481 340.32130432 -0.12025452 C341.47541809 -0.12162918 342.62953186 -0.12300385 343.81861877 -0.12442017 C345.09607468 -0.12082489 346.37353058 -0.11722961 347.68969727 -0.11352539 C349.03958128 -0.11324352 350.38946544 -0.11340125 351.73934937 -0.1139679 C355.41480608 -0.11425587 359.09023043 -0.10835916 362.7656796 -0.10139394 C366.60273149 -0.09516038 370.43978404 -0.0945566 374.27684021 -0.09336853 C381.54771218 -0.09025522 388.81856919 -0.08204183 396.08943456 -0.07201904 C404.36499352 -0.0608579 412.64055318 -0.05534745 420.91611779 -0.05032361 C437.94408719 -0.03985922 454.97204202 -0.02225978 472 0 C472.12763434 7.47051581 472.21469927 14.94074652 472.2746582 22.41210938 C472.29967528 24.94932564 472.33369984 27.48647077 472.37719727 30.0234375 C472.438412 33.68767943 472.4663395 37.35096186 472.48828125 41.015625 C472.51408768 42.13487366 472.5398941 43.25412231 472.56648254 44.4072876 C472.57006246 54.64698582 469.79154454 63.21656529 463 71 C460.66796875 72.73046875 460.66796875 72.73046875 458.1875 74.1875 C457.37667969 74.67605469 456.56585938 75.16460937 455.73046875 75.66796875 C450.07842887 78.42525859 444.82027573 79.25036284 438.57327461 79.25726891 C437.85540038 79.26077498 437.13752614 79.26428105 436.39789814 79.26789337 C433.99786356 79.27718044 431.59807306 79.27229109 429.19802856 79.26742554 C427.45773365 79.27116314 425.71744042 79.27576511 423.97714984 79.28115618 C419.19885739 79.2933877 414.42063494 79.29312554 409.64233041 79.29076743 C404.48748461 79.29035931 399.33266126 79.30139789 394.17782593 79.31088257 C384.08046843 79.32749384 373.98313428 79.33299215 363.88576426 79.33410732 C355.67900583 79.33505764 347.47225511 79.33916708 339.26549911 79.34550858 C316.00000623 79.36312049 292.73453179 79.3723474 269.46903218 79.37084763 C268.21484238 79.37076772 266.96065258 79.3706878 265.66845703 79.37060547 C263.78487684 79.37048283 263.78487684 79.37048283 261.86324452 79.37035771 C241.50664604 79.36954458 221.15012151 79.38868913 200.79354443 79.4168822 C179.89369473 79.44559944 158.99388112 79.45942317 138.09401119 79.45769465 C126.35940673 79.4570304 114.62487982 79.46253818 102.89029312 79.48405075 C92.90058368 79.50224714 82.91098695 79.50662245 72.92126812 79.4930319 C67.82445493 79.48649481 62.72785808 79.48641197 57.63106537 79.5037384 C52.96397448 79.51944097 48.29727197 79.51663426 43.63019072 79.49917014 C41.94316986 79.49609407 40.25612021 79.49975546 38.5691333 79.51089029 C22.38476618 79.61062688 22.38476618 79.61062688 15 75 C14.34039437 74.60126974 13.68078875 74.20253947 13.00119507 73.79172647 C6.0742553 69.4239034 2.04252997 62.87588969 0 55 C-0.3967661 50.72430695 -0.35015761 46.47843135 -0.29296875 42.1875 C-0.28872391 40.97803711 -0.28447906 39.76857422 -0.28010559 38.52246094 C-0.26339038 34.68140866 -0.22575015 30.84089216 -0.1875 27 C-0.17244397 24.38672636 -0.15875717 21.77344445 -0.14648438 19.16015625 C-0.11351022 12.77325648 -0.06338184 6.38666653 0 0 Z " fill="#FBDEBD" transform="translate(20,385)"/>
<path d="M0 0 C1.22130615 0.3700415 1.22130615 0.3700415 2.46728516 0.74755859 C24.21737322 7.44400415 42.55941387 18.24103021 59 34 C59.80824219 34.74507812 60.61648438 35.49015625 61.44921875 36.2578125 C83.78921319 57.51061726 98.88256763 89.18955076 100.1262207 120.14135742 C100.89454335 155.45249063 94.96968975 187.8249489 72 216 C71.36288086 216.80099121 71.36288086 216.80099121 70.71289062 217.61816406 C59.19238323 232.03910949 46.01388139 242.87609722 30 252 C28.89398438 252.63679688 27.78796875 253.27359375 26.6484375 253.9296875 C-4.39503716 270.59981113 -41.23095384 273.20952094 -74.828125 263.6796875 C-95.12331548 257.50822693 -113.80704972 246.83686551 -129 232 C-129.86625 231.154375 -130.7325 230.30875 -131.625 229.4375 C-132.800625 228.2309375 -132.800625 228.2309375 -134 227 C-134.56847656 226.47664062 -135.13695312 225.95328125 -135.72265625 225.4140625 C-158.66654876 203.7929789 -171.31117083 170.79623304 -172.27734375 139.734375 C-172.52489265 126.19972343 -172.26551693 113.16789465 -169 100 C-168.7834375 99.03191406 -168.566875 98.06382812 -168.34375 97.06640625 C-162.7089777 73.95713177 -150.19846947 54.13511566 -134 37 C-133.24203125 36.17757812 -132.4840625 35.35515625 -131.703125 34.5078125 C-99.60880842 0.84024511 -44.52786001 -14.05880745 0 0 Z M-124.5 55.5625 C-146.85671391 81.07917348 -153.31899563 111.91898307 -152 145 C-149.91753196 174.91976385 -133.13701996 202.49004989 -111 222 C-84.51446972 244.14150492 -52.66178277 249.92817665 -19 248 C9.07744192 245.27632001 35.85189555 227.92015811 54 207 C75.00827112 180.9430679 82.8840986 149.56908595 79.76123047 116.46923828 C79.15758064 111.89363222 78.16992573 107.46698914 77 103 C76.73316406 101.92492187 76.46632813 100.84984375 76.19140625 99.7421875 C67.99086595 70.07445505 47.41367542 45.15849251 20.796875 30.03515625 C3.63842679 20.6453313 -14.52988284 15.59098392 -34.0625 15.6875 C-35.24553711 15.69241455 -36.42857422 15.6973291 -37.64746094 15.70239258 C-72.26722429 16.16138455 -100.7535878 30.69322768 -124.5 55.5625 Z " fill="#082C76" transform="translate(292,159)"/>
<path d="M0 0 C45.54 0 91.08 0 138 0 C139.98 4.95 139.98 4.95 142 10 C151.14346161 31.53785738 162.44535072 51.60130627 175.06884766 71.27001953 C176.7118705 73.84063486 178.03009257 76.0902777 179 79 C158.94598895 79.09353518 138.8920223 79.16402418 118.83783817 79.20724869 C109.52585104 79.22785406 100.21399962 79.25593586 90.90209961 79.30175781 C82.78370029 79.34168767 74.66539929 79.36744753 66.5469045 79.37635398 C62.25012534 79.38155834 57.95362739 79.39374801 53.65693855 79.42292023 C49.60791918 79.45018667 45.55929534 79.45842249 41.51019287 79.45243073 C40.02878605 79.45352597 38.54736522 79.46141298 37.06603813 79.4768219 C28.83964689 79.55815475 22.15098708 79.31275039 15 75 C14.00710008 74.40182653 14.00710008 74.40182653 12.99414158 73.79156876 C5.53564574 69.07022485 3.07104234 63.18944625 0 55 C0 36.85 0 18.7 0 0 Z " fill="#F6AF73" transform="translate(20,385)"/>
<path d="M0 0 C2.49981829 1.75024759 4.79674866 3.56676584 7.0625 5.609375 C9.14411901 7.38873062 9.14411901 7.38873062 13 7 C15.0531762 5.60814059 15.0531762 5.60814059 17.0625 3.75 C25.17229966 -2.76161438 33.23626825 -4.7217617 43.57421875 -4.3828125 C53.37463011 -3.28766961 62.66036515 1.1055607 69.23046875 8.515625 C75.977814 17.31544139 78.57927569 25.21136802 78.5 36.25 C78.49500488 37.16950439 78.49000977 38.08900879 78.48486328 39.03637695 C78.28394675 46.92546848 76.74152704 52.97849912 73 60 C72.51917969 60.91136719 72.03835938 61.82273437 71.54296875 62.76171875 C70.12774079 65.25983881 68.6241704 67.6333517 67 70 C66.59652344 70.58910156 66.19304687 71.17820312 65.77734375 71.78515625 C61.17581042 77.73759844 54.79822166 82.0449463 48.86132812 86.57373047 C46.53525311 88.35611901 44.23316682 90.16757425 41.93334961 91.98364258 C40.22565826 93.33171568 38.51363751 94.67412228 36.80078125 96.015625 C33.9564538 98.24473609 31.12372071 100.48805478 28.29296875 102.734375 C26.6746368 104.01061657 25.05614888 105.2866604 23.4375 106.5625 C22.6753418 107.1706958 21.91318359 107.7788916 21.12792969 108.40551758 C13.26465669 114.58117891 13.26465669 114.58117891 10 115 C7.54502238 113.53579241 5.68905067 112.16799034 3.5625 110.3125 C2.3089583 109.27299774 1.05504202 108.23394703 -0.19921875 107.1953125 C-0.8339209 106.65938477 -1.46862305 106.12345703 -2.12255859 105.57128906 C-4.94567774 103.20853291 -7.84647604 100.95005735 -10.75 98.6875 C-11.9049732 97.77737583 -13.05992034 96.8672186 -14.21484375 95.95703125 C-16.98165844 93.78580398 -19.76959362 91.64414997 -22.56640625 89.51171875 C-38.36597245 77.43792813 -52.29192033 65.67470004 -56 45 C-57.69340855 30.65171283 -55.95859226 20.23838801 -47.17578125 8.578125 C-35.14334198 -4.84170244 -15.9489058 -7.82782222 0 0 Z " fill="#FD7DA0" transform="translate(245,241)"/>
<path d="M0 0 C1.11997848 0.00092179 2.23995695 0.00184359 3.39387417 0.00279331 C5.31436329 0.00073132 5.31436329 0.00073132 7.27365017 -0.00137234 C8.70568775 0.00216728 10.1377251 0.0058021 11.56976223 0.00952244 C13.06742762 0.0098043 14.56509314 0.00964659 16.06275845 0.00907993 C20.14109356 0.00879192 24.21939951 0.01468919 28.29772782 0.02165389 C32.55518812 0.02788687 36.81264902 0.02849118 41.07011318 0.0296793 C49.13784371 0.03279278 57.20556075 0.04100639 65.27328533 0.05102879 C74.45571963 0.06218941 83.63815456 0.06770025 92.82059395 0.07272422 C111.71477424 0.08318899 130.60894196 0.10078875 149.50311184 0.12304783 C150.13726192 1.52926829 150.76916087 2.93650402 151.40014553 4.34414768 C151.92835085 5.51946017 151.92835085 5.51946017 152.46722698 6.71851635 C154.08847523 10.48181341 155.41862955 14.3314361 156.73748684 18.20898533 C157.02037563 19.03258549 157.30326443 19.85618565 157.59472561 20.70474339 C158.18487805 22.42665163 158.7729741 24.14926595 159.35906887 25.87255955 C160.25865303 28.51432034 161.16759569 31.1527365 162.07733059 33.79101658 C162.65211037 35.47181441 163.22634884 37.15279747 163.79998684 38.83398533 C164.20770321 40.01521473 164.20770321 40.01521473 164.62365627 41.22030735 C165.66534348 44.30088033 166.50311184 46.84759808 166.50311184 50.12304783 C105.12311184 50.12304783 43.74311184 50.12304783 -19.49688816 50.12304783 C-18.84079817 46.18650789 -18.29500613 43.15251575 -17.02227879 39.510499 C-16.72527073 38.65328754 -16.42826267 37.79607609 -16.12225437 36.91288853 C-15.80244602 36.00642078 -15.48263767 35.09995304 -15.15313816 34.16601658 C-14.65940708 32.75066372 -14.65940708 32.75066372 -14.15570164 31.30671787 C-13.46202453 29.32158411 -12.7659724 27.33727886 -12.06768894 25.35376072 C-10.99514881 22.30560461 -9.93101017 19.25461062 -8.86798191 16.20312595 C-8.19269325 14.273917 -7.51692874 12.34487453 -6.84063816 10.41601658 C-6.52082981 9.49942768 -6.20102146 8.58283878 -5.87152195 7.63847446 C-5.57451389 6.79702381 -5.27750584 5.95557316 -4.97149754 5.088624 C-4.71026096 4.34505146 -4.44902439 3.60147892 -4.17987156 2.83537388 C-3.12392813 0.18798971 -2.96304339 0.14602018 0 0 Z " fill="#FBDEBD" transform="translate(182.49688816070557,47.876952171325684)"/>
<path d="M0 0 C7.00076712 4.00043836 10.26611035 8.18599521 13.0625 15.75 C14.44795242 22.10397146 12.1967418 28.23040602 9.0625 33.75 C4.08339742 39.76273907 -2.23540654 42.27231052 -9.8125 43.25 C-15.69340045 42.994813 -21.2210208 40.11188052 -25.61328125 36.29296875 C-30.81468935 30.47782518 -31.45605999 24.23602751 -31.31640625 16.72265625 C-30.55234355 10.72830868 -27.31264252 6.77064038 -22.875 2.875 C-16.09457009 -2.02999185 -7.99225736 -3.22154867 0 0 Z " fill="#FDDEBD" transform="translate(444.9375,154.25)"/>
<path d="M0 0 C1.93404183 -0.01654136 3.86802299 -0.0438074 5.80175781 -0.08203125 C8.59390902 -0.13692908 11.38462713 -0.15869467 14.17724609 -0.17333984 C15.03682922 -0.19600922 15.89641235 -0.21867859 16.78204346 -0.24203491 C21.04153929 -0.22712019 23.81634202 0.02466803 27.20678711 2.74023438 C29.66162109 5.35009766 29.66162109 5.35009766 30.42333984 7.63134766 C30.27764744 11.98678368 30.08731652 13.81237712 27.28662109 17.35009766 C21.24704554 21.95167903 13.50317552 20.6518555 6.17773438 20.70019531 C4.34069125 20.71673356 2.50371191 20.74399561 0.66699219 20.78222656 C-1.98617826 20.83715268 -4.63784053 20.85889395 -7.29150391 20.87353516 C-8.10733948 20.89620453 -8.92317505 20.9188739 -9.76373291 20.94223022 C-13.93111323 20.92688305 -16.54232365 20.61139667 -19.84130859 17.94238281 C-22.77558696 14.89621858 -23.25657164 14.21725469 -23.65087891 10.03759766 C-23.28961949 5.77473655 -22.31845836 4.33017711 -19.33837891 1.35009766 C-14.12686752 -1.25565804 -5.80342894 0.03638822 0 0 Z " fill="#082A75" transform="translate(80.33837890625,164.64990234375)"/>
<path d="M0 0 C7.92 0 15.84 0 24 0 C24 8.25 24 16.5 24 25 C16.08 25 8.16 25 0 25 C0 16.75 0 8.5 0 0 Z " fill="#8CACEE" transform="translate(70,74)"/>
</svg>
