<?xml version="1.0" encoding="UTF-8"?>
<svg version="1.1" xmlns="http://www.w3.org/2000/svg" width="512" height="512">
<path d="M0 0 C0.90136185 -0.00960754 1.80272369 -0.01921509 2.73139954 -0.02911377 C4.18923103 -0.03548859 4.18923103 -0.03548859 5.67651367 -0.04199219 C7.18032845 -0.0505423 7.18032845 -0.0505423 8.71452332 -0.05926514 C10.83701523 -0.06871379 12.9595218 -0.07524858 15.08203125 -0.07910156 C18.32146969 -0.0887983 21.56027126 -0.11981967 24.79956055 -0.15136719 C26.86270783 -0.15789832 28.92585964 -0.16314836 30.98901367 -0.16699219 C31.95482864 -0.17933899 32.92064362 -0.19168579 33.91572571 -0.20440674 C40.44548568 -0.18289152 44.76703713 0.76982877 49.84448242 5.16113281 C52.32203725 8.09749409 52.65699508 10.57571882 52.67001343 14.28222656 C52.67546677 15.12028336 52.6809201 15.95834015 52.6865387 16.8217926 C52.68758102 17.73814987 52.68862335 18.65450714 52.68969727 19.59863281 C52.69477798 20.5665123 52.6998587 21.53439178 52.70509338 22.53160095 C52.71580278 24.63668917 52.72442072 26.74178881 52.73121262 28.84689331 C52.74300602 32.1855054 52.762463 35.5239884 52.78433228 38.86254883 C52.84591311 48.35640115 52.89987506 57.85024203 52.93334961 67.34423828 C52.95437439 73.15091955 52.98974655 78.95736823 53.03410721 84.76391602 C53.04821252 86.97091928 53.05697721 89.17796373 53.06016159 91.38500977 C53.06510748 94.4864101 53.0883621 97.58720141 53.11547852 100.68847656 C53.11247238 101.58863998 53.10946625 102.48880341 53.10636902 103.41624451 C53.28141746 116.99684135 58.09967019 129.15233213 67.35620117 139.07128906 C70.19279367 141.7958438 73.23845771 144.13860812 76.37182617 146.50878906 C86.61170158 154.34146048 92.62524181 165.38989368 94.53198242 178.16113281 C94.79224001 182.75911501 94.76164681 187.34415692 94.72387695 191.94824219 C94.72007123 193.32098153 94.71726633 194.69372396 94.71537781 196.06646729 C94.70996119 199.00799143 94.69901156 201.94942384 94.68411636 204.89091492 C94.66202529 209.55902755 94.6617502 214.22698759 94.66598511 218.8951416 C94.6671783 220.50017546 94.66834731 222.10520933 94.66949272 223.71024323 C94.67007297 224.51374867 94.67065322 225.31725412 94.67125106 226.14510822 C94.67725091 236.99823972 94.66506071 247.85109634 94.61108398 258.70410156 C94.57475202 266.04456175 94.56733771 273.38446484 94.59158218 280.72498178 C94.60317635 284.59744936 94.60059164 288.46866836 94.56207657 292.34098816 C94.07018437 313.94362406 94.07018437 313.94362406 101.54611206 333.86755371 C109.4443354 346.96680924 111.78050777 364.47614466 113.28198242 379.47363281 C113.92165057 384.06868013 114.88988569 386.06943607 118.46948242 389.03613281 C119.17975586 389.55820312 119.8900293 390.08027344 120.62182617 390.61816406 C123.69916728 393.10395084 124.433853 395.38631292 125.53198242 399.16113281 C125.57085721 401.16075496 125.57685191 403.16163619 125.53198242 405.16113281 C126.15766113 404.73703125 126.78333984 404.31292969 127.42797852 403.87597656 C130.25111686 401.9662528 133.07896232 400.06361906 135.90698242 398.16113281 C136.89182617 397.49339844 137.87666992 396.82566406 138.89135742 396.13769531 C139.83237305 395.50605469 140.77338867 394.87441406 141.74291992 394.22363281 C142.61223145 393.63710938 143.48154297 393.05058594 144.37719727 392.44628906 C146.53198242 391.16113281 146.53198242 391.16113281 148.53198242 391.16113281 C148.53198242 370.70113281 148.53198242 350.24113281 148.53198242 329.16113281 C146.55198242 328.83113281 144.57198242 328.50113281 142.53198242 328.16113281 C127.66375608 322.02074843 115.65449829 311.07176786 109.25854492 296.20019531 C101.88915763 276.70529133 105.86018319 254.29946585 107.50341797 233.93505859 C107.79360257 230.33315509 108.06406646 226.73005106 108.32983112 223.12627411 C108.5396235 220.31853307 108.76130959 217.51182548 108.98644066 214.70527649 C109.14185821 212.73554299 109.28593885 210.76492541 109.42976379 208.79431152 C109.57957954 207.00458923 109.57957954 207.00458923 109.73242188 205.17871094 C109.8145845 204.13396606 109.89674713 203.08922119 109.98139954 202.01281738 C110.59803861 198.8190019 111.63798459 196.79031836 113.53198242 194.16113281 C115.82840728 193.01292039 117.13944236 193.02596391 119.69381714 193.00723267 C120.56585785 192.9986322 121.43789856 192.99003174 122.33636475 192.98117065 C123.29536682 192.97691071 124.2543689 192.97265076 125.24243164 192.96826172 C126.75478897 192.95599548 126.75478897 192.95599548 128.29769897 192.94348145 C131.64401651 192.91860802 134.99029164 192.90210813 138.33666992 192.88769531 C139.47722965 192.88237164 140.61778938 192.87704796 141.79291153 192.87156296 C147.82751036 192.84482538 153.86208844 192.82545071 159.89672852 192.81103516 C166.14050493 192.79436828 172.38375546 192.74957464 178.62733269 192.69866371 C183.41936882 192.66506975 188.2112788 192.65346641 193.00342178 192.64780807 C195.30559441 192.64107596 197.60775819 192.62580348 199.90981674 192.60191727 C203.12790047 192.5704265 206.34454787 192.57020491 209.56274414 192.57763672 C210.51769775 192.56123138 211.47265137 192.54482605 212.45654297 192.52792358 C218.90365586 192.58902805 218.90365586 192.58902805 222.11244202 195.51069641 C223.79727948 198.65647128 224.20094946 200.9829517 224.47338867 204.54003906 C224.58078369 205.83272705 224.68817871 207.12541504 224.79882812 208.45727539 C224.89814968 209.87934095 224.99667727 211.30146215 225.09448242 212.72363281 C225.20812596 214.20899405 225.32298315 215.69426286 225.43896484 217.17944336 C225.68745167 220.41155386 225.92313113 223.6443111 226.15112305 226.87792969 C226.48033972 231.51617836 226.84587938 236.1509654 227.21852112 240.78590393 C227.53162227 244.71516809 227.82995416 248.64546359 228.12472534 252.57614136 C228.26979227 254.48884512 228.41906028 256.40123548 228.57278442 258.31326294 C230.12302581 277.81182129 228.65911885 294.00195614 216.53198242 310.16113281 C215.92612305 310.97710937 215.32026367 311.79308594 214.69604492 312.63378906 C207.3500146 321.21299776 197.11085646 326.63484147 186.53198242 330.16113281 C186.20198242 350.29113281 185.87198242 370.42113281 185.53198242 391.16113281 C187.18198242 391.82113281 188.83198242 392.48113281 190.53198242 393.16113281 C192.15435796 394.12186637 193.75171657 395.12578729 195.32495117 396.16503906 C196.2021582 396.74060547 197.07936523 397.31617188 197.9831543 397.90917969 C198.88614258 398.50794922 199.78913086 399.10671875 200.71948242 399.72363281 C202.52492498 400.9132655 204.33088878 402.10210763 206.13745117 403.29003906 C206.93304443 403.81670166 207.7286377 404.34336426 208.54833984 404.88598633 C212.39839707 407.36092157 214.94998644 407.28462523 219.55151367 407.30175781 C220.98056603 407.32008921 222.40960292 407.33965983 223.83862305 407.36035156 C226.09027111 407.38929116 228.34092746 407.41113204 230.59277344 407.41162109 C232.76741374 407.41496559 234.93977133 407.4495691 237.11401367 407.48925781 C239.06658081 407.50327637 239.06658081 407.50327637 241.05859375 407.51757812 C245.35785464 408.31415166 246.8284374 409.8010579 249.53198242 413.16113281 C251.327577 418.38741647 249.2559853 423.37800333 247.03198242 428.16113281 C240.48220545 440.17669103 230.90837766 448.61670255 217.69995117 452.65332031 C212.44972486 453.88310305 207.47186311 454.28740511 202.08051109 454.29256058 C201.34780575 454.29461321 200.61510041 454.29666584 199.86019188 454.29878068 C197.40371567 454.30443746 194.94729577 454.30299507 192.49081421 454.30157471 C190.71227378 454.3041591 188.93373393 454.30717247 187.15519488 454.31057811 C182.26643554 454.31864264 177.37769089 454.32043738 172.4889257 454.32117558 C167.21676474 454.32302708 161.94461139 454.33057491 156.67245483 454.33731079 C145.14344751 454.35089076 133.61444366 454.35691831 122.08542967 454.36132145 C114.88607046 454.36408444 107.68671258 454.3683219 100.48735428 454.37282562 C80.55274477 454.38501786 60.61813634 454.39531726 40.68352318 454.39870071 C39.40774459 454.39892028 38.131966 454.39913985 36.81752745 454.39936607 C35.53870403 454.39958434 34.25988061 454.39980262 32.94230497 454.40002751 C30.35094094 454.40047098 27.75957692 454.40091754 25.16821289 454.40136719 C23.24010562 454.40169933 23.24010562 454.40169933 21.27304669 454.40203819 C0.44637051 454.40598594 -20.38027067 454.42343947 -41.20693333 454.44672671 C-62.59153729 454.47044472 -83.97612369 454.48290277 -105.36074102 454.48406863 C-117.36651667 454.48498514 -129.37224671 454.49073136 -141.3780098 454.50888824 C-151.60149997 454.52429527 -161.82493046 454.52940611 -172.04843004 454.52115014 C-177.2630395 454.5172458 -182.47752877 454.5181628 -187.69212341 454.53220749 C-192.4703741 454.54495908 -197.24841445 454.54373777 -202.0266649 454.53161678 C-203.75078118 454.52966197 -205.47491243 454.53272816 -207.1990077 454.54146114 C-223.89805024 454.62065775 -238.73262273 452.27525619 -251.35864258 440.47753906 C-256.96867794 434.31688912 -262.6483223 426.25448094 -262.90551758 417.66113281 C-262.96545898 416.56285156 -262.96545898 416.56285156 -263.02661133 415.44238281 C-262.16245003 411.91322058 -260.22610155 410.44924302 -257.46801758 408.16113281 C-254.33007813 407.59350586 -254.33007813 407.59350586 -250.85473633 407.67285156 C-249.60756836 407.68896484 -248.36040039 407.70507812 -247.07543945 407.72167969 C-245.78186523 407.76357422 -244.48829102 407.80546875 -243.15551758 407.84863281 C-241.84260742 407.87119141 -240.52969727 407.89375 -239.17700195 407.91699219 C-235.93951628 407.97585556 -232.70434758 408.05804477 -229.46801758 408.16113281 C-229.4212085 407.41855225 -229.37439941 406.67597168 -229.32617188 405.91088867 C-229.25309814 404.92999268 -229.18002441 403.94909668 -229.10473633 402.93847656 C-229.03730225 401.969021 -228.96986816 400.99956543 -228.90039062 400.00073242 C-228.24256323 395.68046679 -226.44451207 392.33558893 -223.46801758 389.16113281 C-221.94241211 388.38382812 -221.94241211 388.38382812 -220.38598633 387.59082031 C-216.591049 384.43091266 -216.61930113 382.45261454 -216.17993164 377.69848633 C-216.11 376.71678467 -216.04006836 375.73508301 -215.96801758 374.72363281 C-212.96198984 345.09178463 -200.72008775 317.77972297 -181.46801758 295.16113281 C-180.63141602 294.17113281 -179.79481445 293.18113281 -178.93286133 292.16113281 C-173.30801907 285.74292928 -167.22442788 280.35622684 -160.46801758 275.16113281 C-159.52055664 274.40960938 -158.5730957 273.65808594 -157.59692383 272.88378906 C-133.88661335 254.46342833 -106.1233308 245.76520357 -76.46801758 243.16113281 C-76.87793945 242.56945312 -77.28786133 241.97777344 -77.71020508 241.36816406 C-78.2490332 240.57796875 -78.78786133 239.78777344 -79.34301758 238.97363281 C-79.87668945 238.19632813 -80.41036133 237.41902344 -80.96020508 236.61816406 C-85.15523528 229.78222107 -86.28169483 222.27570743 -84.78051758 214.41113281 C-83.12460906 208.15179861 -79.85431651 203.75199877 -74.46801758 200.16113281 C-68.9823443 197.54890744 -63.40778897 197.97089102 -57.46801758 198.16113281 C-57.4912207 196.989375 -57.51442383 195.81761719 -57.53833008 194.61035156 C-57.79222422 176.83397233 -55.72749358 163.00197511 -42.96411133 149.52832031 C-40.36108493 147.05972251 -37.65358663 144.8270401 -34.84301758 142.59863281 C-25.04392622 134.77030843 -18.40416685 124.76392965 -16.46801758 112.16113281 C-16.31574915 108.91337221 -16.31399786 105.6681429 -16.31030273 102.41723633 C-16.30522202 101.44103333 -16.3001413 100.46483032 -16.29490662 99.45904541 C-16.28422222 97.34306797 -16.2755945 95.22707936 -16.26878738 93.11108589 C-16.25697801 89.7610856 -16.2375209 86.41121302 -16.21566772 83.06126404 C-16.15411195 73.53787481 -16.09997648 64.01450004 -16.06665039 54.4909668 C-16.04570694 48.66255003 -16.01040985 42.83436864 -15.96589279 37.00608635 C-15.95173443 34.78657742 -15.94301073 32.56702688 -15.93983841 30.34747505 C-15.93493026 27.24287386 -15.91177531 24.13889797 -15.88452148 21.03442383 C-15.88903069 19.66192726 -15.88903069 19.66192726 -15.89363098 18.26170349 C-15.82697073 13.14874383 -15.32009401 9.58292177 -12.46801758 5.16113281 C-8.45172213 1.44605952 -5.4279122 0.04677005 0 0 Z M1.53198242 17.16113281 C1.53198242 26.40113281 1.53198242 35.64113281 1.53198242 45.16113281 C12.75198242 45.16113281 23.97198242 45.16113281 35.53198242 45.16113281 C35.53198242 35.92113281 35.53198242 26.68113281 35.53198242 17.16113281 C24.31198242 17.16113281 13.09198242 17.16113281 1.53198242 17.16113281 Z M1.53198242 61.16113281 C1.49459961 64.52429688 1.4572168 67.88746094 1.41870117 71.35253906 C1.3723101 74.65915937 1.32114074 77.96567428 1.26953125 81.2722168 C1.23655576 83.54623857 1.20844151 85.82033682 1.18554688 88.09448242 C0.84943117 120.61188884 0.84943117 120.61188884 -6.15551758 133.47363281 C-6.68205933 134.47269653 -6.68205933 134.47269653 -7.21923828 135.49194336 C-12.25518171 144.77045812 -18.60822027 151.68930869 -26.8125 158.23266602 C-33.51303702 163.61001772 -38.63304168 169.57785756 -40.46801758 178.16113281 C-40.93054516 184.81721483 -40.72013926 191.49930229 -40.46801758 198.16113281 C-39.69458008 198.18691406 -38.92114258 198.21269531 -38.12426758 198.23925781 C-31.62619936 198.59311301 -25.7289319 199.03159791 -20.46801758 203.16113281 C-19.81953857 204.16539307 -19.17105957 205.16965332 -18.50292969 206.2043457 C-16.80862994 208.2466453 -15.87206957 209.05863626 -13.27687073 209.71696472 C-10.53386178 209.91876575 -7.84316018 209.93931854 -5.09301758 209.89550781 C-3.58989014 209.90895233 -3.58989014 209.90895233 -2.05639648 209.92266846 C1.1403322 209.94675221 4.33524945 209.93085979 7.53198242 209.91113281 C10.72823822 209.91257603 13.92416785 209.92247075 17.12036133 209.94244385 C19.10699005 209.95262616 21.09372388 209.95094744 23.08032227 209.93597412 C31.71118093 209.94077929 31.71118093 209.94077929 35.53198242 212.16113281 C37.07785118 215.25287033 36.82557764 217.75542834 36.53198242 221.16113281 C35.16577148 223.34960938 35.16577148 223.34960938 32.53198242 225.16113281 C29.05396837 225.78173246 25.60484719 225.76611213 22.07885742 225.77050781 C21.06349915 225.78704407 20.04814087 225.80358032 19.00201416 225.82061768 C15.76194247 225.86916671 12.52234037 225.89048441 9.28198242 225.91113281 C7.08404204 225.93928664 4.8861236 225.96921324 2.68823242 226.00097656 C-2.6970988 226.07492724 -8.08229758 226.12652931 -13.46801758 226.16113281 C-13.78254883 226.95777344 -14.09708008 227.75441406 -14.42114258 228.57519531 C-16.68062293 234.16945088 -18.84050942 239.32445527 -22.46801758 244.16113281 C-21.85506836 244.25612061 -21.24211914 244.3511084 -20.6105957 244.44897461 C17.15487719 250.39837829 51.64369202 264.89159043 76.53198242 295.16113281 C76.86198242 295.16113281 77.19198242 295.16113281 77.53198242 295.16113281 C77.53198242 272.39113281 77.53198242 249.62113281 77.53198242 226.16113281 C68.62198242 225.83113281 59.71198242 225.50113281 50.53198242 225.16113281 C47.53198242 222.16113281 47.53198242 222.16113281 47.13354492 220.22363281 C47.1412793 219.54300781 47.14901367 218.86238281 47.15698242 218.16113281 C47.14538086 217.14019531 47.14538086 217.14019531 47.13354492 216.09863281 C47.66765643 213.50138468 48.4177256 212.76269136 50.53198242 211.16113281 C53.35107422 210.72875977 53.35107422 210.72875977 56.73120117 210.64941406 C57.93969727 210.61396484 59.14819336 210.57851562 60.39331055 210.54199219 C61.65594727 210.51943359 62.91858398 210.496875 64.21948242 210.47363281 C65.4937207 210.43947266 66.76795898 210.4053125 68.08081055 210.37011719 C71.23111346 210.28752498 74.38113399 210.21840946 77.53198242 210.16113281 C77.63170843 205.62628417 77.70384897 201.09208961 77.75170898 196.55639648 C77.77168364 195.01722071 77.7988734 193.47811943 77.83374023 191.93920898 C78.09654738 180.03172657 77.09382121 171.37250866 68.77807617 162.30566406 C66.5622987 160.19007827 64.23954396 158.26438456 61.85400391 156.34423828 C46.80263307 144.18794482 38.71988018 128.39598048 36.53198242 109.16113281 C35.95527175 100.8414772 35.93059342 92.49717285 35.84448242 84.16113281 C35.81123224 81.92153049 35.77673579 79.68194632 35.7409668 77.44238281 C35.65466316 72.0152892 35.59385415 66.58877669 35.53198242 61.16113281 C24.31198242 61.16113281 13.09198242 61.16113281 1.53198242 61.16113281 Z M126.53198242 209.16113281 C124.47358957 228.1365456 124.47358957 228.1365456 123.53198242 247.16113281 C124.40874634 247.26433838 124.40874634 247.26433838 125.30322266 247.36962891 C139.2006167 249.09460132 152.21452956 252.01491598 165.53198242 256.22363281 C180.96381007 261.08434702 195.15814373 264.78898129 211.53198242 264.16113281 C211.79060396 254.32601825 211.08570577 244.60741012 210.30517578 234.81298828 C210.09273283 232.13911182 209.88903562 229.46466575 209.6862793 226.79003906 C209.55332832 225.08036371 209.41988292 223.37072672 209.28588867 221.66113281 C209.22542862 220.86634521 209.16496857 220.07155762 209.10267639 219.25268555 C208.81978227 215.75451554 208.38624925 212.57820012 207.53198242 209.16113281 C180.80198242 209.16113281 154.07198242 209.16113281 126.53198242 209.16113281 Z M-66.65551758 215.22363281 C-68.77517689 217.12430504 -68.77517689 217.12430504 -68.96801758 220.41113281 C-67.80228958 229.15409281 -62.03582321 234.25056291 -55.34301758 239.41113281 C-52.94672493 241.22000742 -51.35634378 242.19835741 -48.46801758 243.16113281 C-40.65989288 239.43480643 -34.26933782 234.25444234 -30.09301758 226.66113281 C-29.08844353 222.64283661 -28.4729006 218.83711931 -30.65551758 215.16113281 C-32.46071866 213.96555757 -32.46071866 213.96555757 -34.78051758 214.22363281 C-37.62450273 215.07566392 -37.62450273 215.07566392 -40.28051758 217.16113281 C-44.06418426 219.53519818 -47.01278476 220.40171538 -51.46801758 220.16113281 C-54.64490986 218.93925117 -56.97214617 217.54366219 -59.65551758 215.47363281 C-62.27513691 213.57666709 -63.81068375 213.84185638 -66.65551758 215.22363281 Z M-161.46801758 298.16113281 C-162.07000977 298.71027344 -162.67200195 299.25941406 -163.29223633 299.82519531 C-186.60081074 321.88412588 -196.59821168 352.20268564 -200.46801758 383.16113281 C-102.45801758 383.16113281 -4.44801758 383.16113281 96.53198242 383.16113281 C93.59756998 345.01377105 76.87047201 314.64150642 48.53198242 289.16113281 C44.45198925 285.75292776 40.08648817 282.89707406 35.53198242 280.16113281 C34.92032227 279.78553223 34.30866211 279.40993164 33.6784668 279.02294922 C18.54033138 269.78412236 2.99093661 264.23000609 -14.46801758 261.16113281 C-15.43263916 260.98533691 -16.39726074 260.80954102 -17.39111328 260.62841797 C-23.14204575 259.8296919 -28.96239527 259.95758756 -34.75708008 259.92285156 C-36.05132904 259.91477982 -37.345578 259.90670807 -38.67904663 259.89839172 C-41.42087668 259.88341591 -44.16268145 259.87355944 -46.90454102 259.8659668 C-49.67202323 259.8571883 -52.43898994 259.83650159 -55.20629883 259.80444336 C-96.85242898 259.33273357 -130.694901 269.16649758 -161.46801758 298.16113281 Z M122.53198242 264.16113281 C119.82360027 274.65611365 121.96106299 285.00669965 127.21948242 294.34863281 C135.2452428 306.68994804 146.45464369 312.02635882 159.86010742 317.14160156 C162.15709093 318.54233216 162.56746983 319.63528605 163.53198242 322.16113281 C163.7466961 324.67237952 163.85638007 327.07606797 163.87011719 329.58837891 C163.88165329 330.33035019 163.89318939 331.07232147 163.90507507 331.83677673 C163.93932507 334.28606289 163.9578704 336.73509754 163.97338867 339.18457031 C163.98374303 340.44209547 163.98374303 340.44209547 163.99430656 341.72502518 C164.03011342 346.16043532 164.05366897 350.59571869 164.06738281 355.03125 C164.0839427 359.60716477 164.14239106 364.18153737 164.21052647 368.75693321 C164.2553406 372.28119466 164.26887917 375.80508697 164.27400017 379.32960892 C164.28188638 381.01614553 164.30150982 382.7026706 164.33322334 384.38892746 C164.56505662 397.58451077 164.56505662 397.58451077 162.02804565 401.45635986 C160.26283598 402.9762975 158.56117196 404.03502433 156.53198242 405.16113281 C155.54198242 406.15113281 154.55198242 407.14113281 153.53198242 408.16113281 C162.44198242 408.16113281 171.35198242 408.16113281 180.53198242 408.16113281 C176.86776471 404.34212471 176.86776471 404.34212471 173.84448242 402.03613281 C171.53198242 400.16113281 171.53198242 400.16113281 170.53198242 398.16113281 C170.42369763 395.77702026 170.37468203 393.421668 170.37084961 391.03686523 C170.36340225 389.93656731 170.36340225 389.93656731 170.35580444 388.81404114 C170.34117135 386.38155181 170.33437845 383.94912772 170.32885742 381.51660156 C170.3231063 379.82749937 170.31734856 378.13839719 170.31158447 376.44929504 C170.3010708 372.90426326 170.29523074 369.35925417 170.29174805 365.81420898 C170.28626673 361.27456576 170.26224815 356.735223 170.23377609 352.19567394 C170.21513833 348.70493193 170.20994348 345.21426207 170.20841217 341.7234745 C170.20538698 340.05014722 170.19736292 338.37682117 170.18422699 336.70354271 C170.16714462 334.3599919 170.16905195 332.01717204 170.17553711 329.67358398 C170.16171494 328.6392775 170.16171494 328.6392775 170.14761353 327.58407593 C170.18484481 323.28238166 170.85290152 320.55393435 173.53198242 317.16113281 C175.96903363 315.95850731 178.17322292 315.03023778 180.71948242 314.16113281 C186.45470306 312.04007464 191.55059363 309.7692064 196.53198242 306.16113281 C197.37760742 305.60425781 198.22323242 305.04738281 199.09448242 304.47363281 C205.05854627 298.81541839 209.19138825 292.00900739 211.53198242 284.16113281 C211.53198242 283.17113281 211.53198242 282.18113281 211.53198242 281.16113281 C210.50766113 281.06409058 210.50766113 281.06409058 209.46264648 280.96508789 C189.07433808 278.97577639 170.63521117 274.88938297 151.20800781 268.55249023 C141.60357245 265.45909797 132.63566064 263.82434354 122.53198242 264.16113281 Z M-212.46801758 402.16113281 C-212.46801758 404.14113281 -212.46801758 406.12113281 -212.46801758 408.16113281 C-106.20801758 408.16113281 0.05198242 408.16113281 109.53198242 408.16113281 C109.33198242 401.76113281 109.33198242 401.76113281 107.53198242 400.16113281 C105.83974211 400.06206951 104.14333432 400.03373635 102.44819736 400.03249836 C101.33971992 400.02927391 100.23124248 400.02604947 99.08917481 400.02272731 C97.85613033 400.02427591 96.62308585 400.02582451 95.35267639 400.02742004 C94.05466345 400.02515449 92.7566505 400.02288893 91.41930383 400.02055472 C87.79971763 400.01440641 84.18015441 400.01457385 80.56056416 400.0157491 C76.66343457 400.01595234 72.76631252 400.01044167 68.8691864 400.00569153 C61.22783163 399.99736788 53.58648457 399.99463592 45.94512565 399.99407915 C39.73711733 399.99360481 33.52911156 399.99155417 27.32110405 399.98837852 C9.7398082 399.97956734 -7.84148154 399.97495988 -25.42277961 399.975709 C-26.37155336 399.97574895 -27.3203271 399.97578891 -28.29785156 399.97583008 C-29.24777694 399.97587096 -30.19770231 399.97591184 -31.17641331 399.97595396 C-46.57827512 399.97636058 -61.9801125 399.96678817 -77.38196724 399.95269171 C-93.17732364 399.93834858 -108.9726681 399.93142038 -124.76803118 399.93228549 C-133.64363769 399.93261817 -142.51921859 399.92984008 -151.39481926 399.91910744 C-158.95073143 399.91002952 -166.50660638 399.90780476 -174.06252163 399.91461686 C-177.92093511 399.91789583 -181.77927707 399.91788956 -185.63768387 399.90926361 C-189.81242012 399.90002609 -193.98698873 399.9061386 -198.16172791 399.91389465 C-200.00794854 399.90617931 -200.00794854 399.90617931 -201.89146656 399.8983081 C-203.00255175 399.90290689 -204.11363694 399.90750569 -205.25839138 399.91224384 C-206.70545189 399.91191779 -206.70545189 399.91191779 -208.18174595 399.91158515 C-210.66559885 399.94124308 -210.66559885 399.94124308 -212.46801758 402.16113281 Z M-241.46801758 424.16113281 C-239.62820796 427.84075206 -238.93592288 428.91319559 -235.84301758 431.22363281 C-235.21137695 431.70960938 -234.57973633 432.19558594 -233.92895508 432.69628906 C-227.941736 436.26010994 -222.65994974 437.53600797 -215.73362923 437.54144955 C-214.62514577 437.54843943 -214.62514577 437.54843943 -213.49426872 437.55557051 C-211.02831368 437.56748179 -208.56291358 437.55814029 -206.09695435 437.54881287 C-204.30701007 437.55298748 -202.51706845 437.5584657 -200.72713172 437.56513268 C-195.81617679 437.57958925 -190.90538966 437.57534186 -185.99442554 437.56796587 C-180.69505916 437.56323703 -175.39572922 437.57574155 -170.09637451 437.58598328 C-159.71739658 437.60318228 -149.33847916 437.60400898 -138.95949067 437.59877037 C-130.52345216 437.59472943 -122.08743154 437.59617134 -113.65139389 437.60151863 C-112.45085826 437.60226705 -111.25032263 437.60301548 -110.01340713 437.60378658 C-107.57453871 437.60531805 -105.1356703 437.6068564 -102.69680189 437.60840154 C-79.82370962 437.62213062 -56.95065154 437.61668607 -34.07756005 437.60521633 C-13.15264415 437.59528392 7.77218334 437.60822407 28.6970856 437.63215052 C50.18345215 437.65653385 71.6697775 437.66615125 93.15615761 437.6594978 C105.21885571 437.65600383 117.28148579 437.65824939 129.34417343 437.67574883 C139.61307622 437.6904612 149.88186312 437.69111881 160.15076362 437.67367791 C165.38946999 437.6651576 170.62796924 437.66304368 175.86666489 437.67832947 C180.66453454 437.69215561 185.46201922 437.68743994 190.25986649 437.66809023 C191.99330547 437.66432356 193.72677513 437.66727139 195.46018682 437.67770188 C206.42634875 437.73898409 216.67778506 437.45702912 225.15698242 429.53613281 C225.80924805 428.94574219 226.46151367 428.35535156 227.13354492 427.74707031 C228.75244149 426.26352042 228.75244149 426.26352042 228.53198242 424.16113281 C73.43198242 424.16113281 -81.66801758 424.16113281 -241.46801758 424.16113281 Z " fill="#C9405D" transform="translate(262.468017578125,28.8388671875)"/>
</svg>
