<?xml version="1.0" encoding="iso-8859-1"?>
<!-- Uploaded to: SVG Repo, www.svgrepo.com, Generator: SVG Repo Mixer Tools -->
<svg fill="#000000" version="1.1" id="Layer_1" xmlns="http://www.w3.org/2000/svg" xmlns:xlink="http://www.w3.org/1999/xlink" 
	 viewBox="0 0 511.982 511.982" xml:space="preserve">
<g>
	<g>
		<polygon points="48.29,55.997 40.713,63.575 33.056,55.919 22.263,66.712 40.713,85.163 59.085,66.792 		"/>
	</g>
</g>
<g>
	<g>
		<polygon points="72.143,392.376 64.566,399.953 56.909,392.298 46.116,403.091 64.566,421.541 82.937,403.169 		"/>
	</g>
</g>
<g>
	<g>
		<polygon points="478.925,295.947 471.347,303.524 463.692,295.868 452.896,306.661 471.347,325.112 489.719,306.741 		"/>
	</g>
</g>
<g>
	<g>
		<path d="M392.404,200.03v-47.406c0-75.217-61.193-136.41-136.41-136.41s-136.41,61.193-136.41,136.41v47.406h-19.567v311.952
			H411.97V200.03H392.404z M134.849,152.624c0-66.799,54.345-121.145,121.146-121.145c66.799,0,121.145,54.345,121.145,121.145
			v47.406h-16.388v-46.2c0-57.763-46.994-104.756-104.756-104.756S151.238,96.068,151.238,153.83v46.2h-16.389V152.624z
			 M345.486,153.83v46.2H166.503v-46.2c0-49.346,40.146-89.491,89.491-89.491C305.34,64.339,345.486,104.485,345.486,153.83z
			 M396.705,496.717H115.283v-37.599h281.422V496.717z M396.705,443.853H115.283V268.159h281.422V443.853z M396.705,252.894H115.283
			v-37.599h4.301h31.654h209.513h31.653h4.301V252.894z"/>
	</g>
</g>
<g>
	<g>
		<path d="M285.585,293.632c-11.375,0-21.995,4.652-29.627,12.607c-7.631-7.954-18.251-12.607-29.627-12.607
			c-22.373,0-40.576,18.43-40.576,41.083c0,10.334,3.031,16.467,5.244,20.946l0.135,0.274c8.937,18.106,54.758,56.386,59.954,60.691
			l4.857,4.026l4.867-4.013c5.242-4.322,51.461-42.744,60.022-60.814l0.23-0.483c2.057-4.328,5.167-10.869,5.167-20.625
			C326.233,312.062,307.998,293.632,285.585,293.632z M307.28,348.786l-0.237,0.501c-4.912,10.368-32.106,35.47-51.068,51.503
			c-15.761-13.413-45.45-40.062-51.152-51.613l-0.138-0.279c-1.884-3.813-3.664-7.414-3.664-14.182
			c0-14.477,11.118-25.818,25.311-25.818c9.624,0,18.387,5.3,22.871,13.83l6.756,12.856l6.757-12.855
			c4.483-8.531,13.248-13.831,22.871-13.831c14.233,0,25.382,11.341,25.382,25.818C310.968,341.028,309.092,344.972,307.28,348.786z
			"/>
	</g>
</g>
<g>
	<g>
		<rect x="403.682" y="73.262" transform="matrix(0.9231 -0.3846 0.3846 0.9231 1.9196 171.3878)" width="51.545" height="15.265"/>
	</g>
</g>
<g>
	<g>
		
			<rect x="433.219" y="124.28" transform="matrix(0.0384 -0.9993 0.9993 0.0384 273.9829 584.8182)" width="15.266" height="51.547"/>
	</g>
</g>
<g>
	<g>
		<rect x="362.591" y="16.514" transform="matrix(0.6764 -0.7366 0.7366 0.6764 107.9019 293.87)" width="51.547" height="15.266"/>
	</g>
</g>
<g>
	<g>
		<polygon points="373.949,407.871 373.949,420.942 341.841,420.942 341.841,436.207 389.214,436.207 389.214,407.871 		"/>
	</g>
</g>
<g>
	<g>
		<rect x="373.952" y="381.138" width="15.265" height="18.591"/>
	</g>
</g>
<g>
	<g>
		<rect x="121.622" y="281.814" width="15.265" height="42.283"/>
	</g>
</g>
</svg>