<?xml version="1.0" encoding="UTF-8"?>
<svg version="1.1" xmlns="http://www.w3.org/2000/svg" width="512" height="512">
<path d="M0 0 C4.26656996 3.17425008 6.38777809 7.16748982 8.5390625 11.921875 C8.85750626 12.6018454 9.17595001 13.2818158 9.50404358 13.98239136 C10.55504543 16.23346527 11.59017741 18.49144809 12.625 20.75 C13.36866258 22.35376351 14.11322965 23.95710788 14.85864258 25.56005859 C16.43587747 28.95580192 18.00665977 32.35443792 19.57373047 35.75488281 C21.97178602 40.95077055 24.40757073 46.12843964 26.84765625 51.3046875 C72.40892853 148.15735886 72.40892853 148.15735886 60.73632812 183.9765625 C55.91934854 197.2136735 48.49170348 208.82934959 38.3125 218.5625 C31.43783707 225.20832533 26.94608283 232.78100733 26.63671875 242.48706055 C26.72262077 251.77369414 29.33592273 260.32828444 31.8125 269.20703125 C32.30717533 271.02652327 32.80039621 272.84641128 33.29223633 274.66667175 C34.57984874 279.41672585 35.88692512 284.16120166 37.19836426 288.90472412 C38.53745054 293.76199604 39.85773359 298.62437126 41.1796875 303.48632812 C43.76825554 312.99592414 46.37744984 322.49972389 49 332 C50.4094841 331.7886718 50.4094841 331.7886718 51.84744263 331.57307434 C53.09161957 331.39016342 54.33579651 331.2072525 55.61767578 331.01879883 C57.46028488 330.74559563 57.46028488 330.74559563 59.34011841 330.46687317 C64.53202927 329.80456653 69.64741134 329.66964621 74.875 329.6875 C76.32519531 329.66333008 76.32519531 329.66333008 77.8046875 329.63867188 C85.32174268 329.63356518 91.15642383 330.51187085 97 335.625 C99.59080095 339.99697661 100.13093577 343.04582613 99 348 C93.73882378 360.14645466 77.41803991 365.55256849 65.9453125 370.12109375 C44.38886012 378.43186243 21.71792842 384.12485471 -1.4375 384.3125 C-2.62666016 384.34150391 -3.81582031 384.37050781 -5.04101562 384.40039062 C-13.01056971 384.45791656 -18.89047988 383.84438979 -24.9375 378.1875 C-26.76033028 374.43461412 -27.60883944 371.08456948 -26.41015625 366.98046875 C-20.79051379 354.36642151 -5.71150757 348.68699418 6.4375 344 C8.28794191 343.32306337 10.14068526 342.65217111 12 342 C10.532933 332.77309021 8.24734886 323.80109374 5.859375 314.78125 C5.65907936 314.02175552 5.45878372 313.26226105 5.25241852 312.47975159 C4.19345682 308.4651866 3.12942511 304.45200714 2.06103516 300.43994141 C0.96808821 296.33170903 -0.10741009 292.21911978 -1.17895889 288.10526276 C-2.01526241 284.90763783 -2.86451163 281.71355088 -3.71715546 278.52024841 C-4.11895534 277.00668393 -4.51605166 275.49186159 -4.90802765 273.97572327 C-7.8769549 262.51934412 -11.05971621 250.64552764 -21.203125 243.48046875 C-25.84286465 241.02451717 -30.78281226 239.67161399 -35.8046875 238.234375 C-56.82631374 232.18932113 -76.29270816 219.78370952 -87.1328125 200.265625 C-91.44420791 192.14204839 -94.84695917 183.96608782 -97 175 C-97.15388184 174.36320313 -97.30776367 173.72640625 -97.46630859 173.0703125 C-104.7348382 141.90897221 -106.36941078 109.18376713 -109.10773468 77.37772751 C-109.24403044 75.79506609 -109.38070223 74.21243701 -109.5177536 72.62984085 C-109.9126454 68.06974274 -110.30234617 63.5092571 -110.68399239 58.94803047 C-110.80170195 57.54597816 -110.92066357 56.14403028 -111.04099846 54.74220085 C-111.40408106 50.49711237 -111.7242953 46.25164221 -112 42 C-112.06931732 41.02208496 -112.13863464 40.04416992 -112.21005249 39.03662109 C-112.24667999 38.16215332 -112.2833075 37.28768555 -112.32104492 36.38671875 C-112.35719406 35.65026123 -112.3933432 34.91380371 -112.43058777 34.1550293 C-111.77632069 30.88051749 -110.36538681 29.32806567 -108 27 C-104.88461304 25.68655396 -104.88461304 25.68655396 -101.16552734 24.70751953 C-100.48494263 24.52296204 -99.80435791 24.33840454 -99.10314941 24.14825439 C-96.85166051 23.54233374 -94.59427283 22.96264382 -92.3359375 22.3828125 C-90.74441402 21.9599326 -89.15332556 21.53541243 -87.56265259 21.10934448 C-83.35833437 19.98785247 -79.14856949 18.88834263 -74.93725586 17.79345703 C-70.75297723 16.70183675 -66.57392565 15.59061405 -62.39453125 14.48046875 C-57.50999585 13.1841826 -52.62470437 11.891121 -47.73529053 10.61334229 C-40.50452415 8.72343161 -33.28198396 6.81570075 -26.08300781 4.80761719 C-24.89115875 4.47712372 -23.69930969 4.14663025 -22.47134399 3.80612183 C-20.30987949 3.20386521 -18.15060448 2.59366134 -15.99423218 1.97341919 C-10.50825236 0.45025097 -5.68848171 -0.77294577 0 0 Z " fill="#010000" transform="translate(369,128)"/>
<path d="M0 0 C1.22623077 0.32686043 1.22623077 0.32686043 2.47723389 0.6603241 C5.16114613 1.37829982 7.84098703 2.11037546 10.52099609 2.84277344 C12.40393811 3.34969874 14.28711091 3.85576756 16.17050171 4.36102295 C21.12245408 5.69208287 26.07103376 7.03528816 31.01904297 8.38092041 C36.01368441 9.73669229 41.0116853 11.07995923 46.00927734 12.42480469 C65.26225917 17.6128957 65.26225917 17.6128957 72.90020752 19.72131348 C75.80035154 20.52004766 78.70568631 21.27966729 81.62567139 22.00231934 C82.87551819 22.32446411 84.12536499 22.64660889 85.41308594 22.97851562 C86.48650238 23.24283386 87.55991882 23.5071521 88.66586304 23.77947998 C92.09620048 25.24036447 93.45994405 26.80638286 95.41943359 29.95214844 C95.85771179 32.02532959 95.85771179 32.02532959 95.75415039 34.19335938 C95.71744232 35.06859253 95.68073425 35.94382568 95.64291382 36.84558105 C95.53229111 38.38333191 95.53229111 38.38333191 95.41943359 39.95214844 C95.33593658 41.17937622 95.25243958 42.406604 95.16641235 43.67102051 C94.84137447 48.14867353 94.45414596 52.62040291 94.06396484 57.09277344 C93.91887313 58.78105589 93.77391248 60.46934961 93.6290741 62.15765381 C93.32357229 65.7049854 93.01454486 69.25198998 92.70336914 72.79882812 C92.39220322 76.35043911 92.0867782 79.9024582 91.78735352 83.45507812 C90.17231189 102.60621694 88.34621079 121.70080787 85.82958984 140.75683594 C85.72660898 141.54021584 85.62362812 142.32359573 85.51752663 143.13071442 C82.50613336 165.84871478 79.31226726 188.62490868 64.41943359 206.95214844 C63.75298828 207.78101563 63.08654297 208.60988281 62.39990234 209.46386719 C50.77381941 223.14284404 36.15503703 231.20154585 19.10693359 236.01464844 C8.72908158 238.96402123 1.69216397 242.07016592 -4.29150391 251.41308594 C-7.24225911 257.22517952 -9.09911896 263.41456761 -10.75708008 269.69750977 C-11.05034431 270.78931046 -11.05034431 270.78931046 -11.34953308 271.90316772 C-11.98655881 274.27911636 -12.61774729 276.65656805 -13.24853516 279.03417969 C-13.69240702 280.69714294 -14.13652828 282.36003965 -14.58088684 284.02287292 C-15.50713835 287.49266781 -16.43051345 290.96321157 -17.35180664 294.43432617 C-18.53348782 298.88562835 -19.72217985 303.33502283 -20.91297436 307.78389454 C-21.82931694 311.2103233 -22.74208025 314.63769749 -23.65374184 318.06537437 C-24.090844 319.70713782 -24.52903932 321.34861062 -24.96834373 322.98978615 C-25.57993656 325.27683145 -26.1867287 327.56509703 -26.79223633 329.85375977 C-26.97453796 330.53171097 -27.1568396 331.20966217 -27.34466553 331.90815735 C-28.07573467 334.68899984 -28.58056641 337.06081374 -28.58056641 339.95214844 C-28.0678418 340.15783447 -27.55511719 340.36352051 -27.02685547 340.57543945 C2.43177302 352.47168587 2.43177302 352.47168587 9.91943359 364.32714844 C10.70730043 368.46344935 9.96510976 372.05879433 8.41943359 375.95214844 C4.90180763 379.65991635 0.87188896 381.66682059 -4.21411133 382.25854492 C-39.16045096 383.0527118 -81.68505624 375.44584399 -110.14306641 353.32714844 C-113.9796862 349.58890351 -115.73892083 346.88208022 -116.08056641 341.51464844 C-115.93830165 337.95210187 -115.48831891 336.79648078 -113.58056641 333.57714844 C-106.89010502 327.72299473 -99.9565906 327.4979647 -91.45556641 327.63964844 C-90.51197266 327.63642578 -89.56837891 327.63320313 -88.59619141 327.62988281 C-83.04583472 327.67102427 -77.69021978 328.15665309 -72.19824219 328.97094727 C-70.95406525 329.15385818 -69.70988831 329.3367691 -68.42800903 329.52522278 C-67.48835297 329.66610825 -66.5486969 329.80699371 -65.58056641 329.95214844 C-62.69416038 319.47279024 -59.82437422 308.98903312 -56.97523499 298.49947739 C-55.65149664 293.62794554 -54.32226084 288.75806008 -52.97998047 283.89160156 C-51.68280092 279.18783948 -50.40069222 274.48019806 -49.12857056 269.76959991 C-48.64268387 267.98059805 -48.15154682 266.19301296 -47.65487671 264.40697479 C-43.92596503 250.97850721 -40.45611642 237.95618484 -47.58056641 224.95214844 C-50.32649662 221.35497985 -53.39628205 218.16202994 -56.58056641 214.95214844 C-73.32781498 197.83589269 -81.19894847 177.13792764 -80.99316406 153.2487793 C-79.90101398 114.38478398 -55.0278237 74.11205539 -38.63427734 39.72216797 C-35.35866747 32.84935051 -32.11098103 25.96958087 -28.98681641 19.02636719 C-28.56980217 18.10378616 -28.56980217 18.10378616 -28.1443634 17.16256714 C-26.86102565 14.32284409 -25.58772782 11.47956763 -24.33325195 8.62695312 C-23.89279541 7.65016602 -23.45233887 6.67337891 -22.99853516 5.66699219 C-22.62494873 4.82257568 -22.2513623 3.97815918 -21.86645508 3.1081543 C-16.99070876 -5.06684394 -7.72569134 -2.14093074 0 0 Z " fill="#010101" transform="translate(159.58056640625,130.0478515625)"/>
<path d="M0 0 C0.75410156 0.00386719 1.50820313 0.00773438 2.28515625 0.01171875 C3.16042969 0.11097656 4.03570312 0.21023437 4.9375 0.3125 C5.57623047 0.36881592 6.21496094 0.42513184 6.87304688 0.4831543 C10.00607996 0.96294553 12.19194704 1.409062 14.26098633 3.91625977 C15.45060123 6.14878031 16.39690526 8.39160149 17.3125 10.75 C17.67553223 11.62019775 18.03856445 12.49039551 18.41259766 13.38696289 C19.62820567 16.3475233 20.78664493 19.32619761 21.9375 22.3125 C22.37449219 23.42753906 22.81148438 24.54257813 23.26171875 25.69140625 C24.63138105 29.203864 25.97814659 32.72398458 27.3125 36.25 C27.72935059 37.34948975 28.14620117 38.44897949 28.57568359 39.58178711 C35.66743322 58.87232904 38.13722445 78.27766092 29.32324219 97.50219727 C21.293045 113.87099776 9.19824013 125.87757495 -8.0625 132.3125 C-8.84109375 132.63089844 -9.6196875 132.94929687 -10.421875 133.27734375 C-23.83638016 137.91261066 -41.18464594 136.90166387 -54.0625 131.3125 C-55.06152344 130.91160156 -56.06054688 130.51070312 -57.08984375 130.09765625 C-65.56112569 126.33627624 -71.62476673 120.80788461 -78.0625 114.3125 C-78.65804688 113.75046875 -79.25359375 113.1884375 -79.8671875 112.609375 C-95.78305031 96.26335374 -100.0625 65.08612806 -100.0625 43.3125 C-99.00933594 43.22613281 -97.95617187 43.13976562 -96.87109375 43.05078125 C-74.24353926 40.95456037 -56.73358165 31.59365791 -38.52929688 18.56152344 C-33.10110471 14.68935688 -27.60935394 11.02896907 -21.875 7.625 C-20.88790039 7.02860718 -20.88790039 7.02860718 -19.88085938 6.42016602 C-13.82765043 2.89808949 -7.13014274 -0.15899118 0 0 Z " fill="#FE6363" transform="translate(382.0625,215.6875)"/>
<path d="M0 0 C4.15683618 2.7094284 8.2313399 5.53555008 12.3112793 8.35888672 C32.07875894 22.03321955 49.11544924 30.78388099 73.27734375 32.82421875 C70.92710499 62.25482049 66.85648096 91.61791001 43.27734375 111.82421875 C27.73284755 123.56761549 11.35543106 126.67167956 -7.72265625 124.82421875 C-23.97984396 122.44110026 -38.48546998 112.83412192 -48.53515625 100.07421875 C-59.1820628 85.06569933 -64.15410797 67.94666992 -61.39599609 49.65820312 C-58.44157602 34.13961226 -51.81259418 19.31212463 -45.72265625 4.82421875 C-45.23651855 3.61217773 -44.75038086 2.40013672 -44.24951172 1.15136719 C-43.75467285 -0.02135742 -43.25983398 -1.19408203 -42.75 -2.40234375 C-42.31292725 -3.46275879 -41.87585449 -4.52317383 -41.42553711 -5.61572266 C-32.81342686 -18.56290375 -9.33956091 -5.92089811 0 0 Z " fill="#FE6363" transform="translate(156.72265625,226.17578125)"/>
<path d="M0 0 C1.62690464 0.91983944 3.19885716 1.93595686 4.75390625 2.97265625 C6.8957898 4.37596315 6.8957898 4.37596315 9.25390625 3.53515625 C10.14078125 3.06078125 11.02765625 2.58640625 11.94140625 2.09765625 C13.29321447 1.40553044 14.6475627 0.71835152 16.00390625 0.03515625 C16.65488281 -0.30644531 17.30585938 -0.64804687 17.9765625 -1 C25.86162349 -4.62117115 38.23157548 -4.3235563 46.37890625 -1.46484375 C56.62584711 3.5451597 62.9540599 11.56282235 66.94140625 22.09765625 C69.54838258 32.71867092 67.74374138 43.14392924 62.50390625 52.7265625 C52.26035869 68.06725993 29.12529346 94.82234574 10.31640625 98.62890625 C9.53265625 98.61859375 8.74890625 98.60828125 7.94140625 98.59765625 C7.15765625 98.60796875 6.37390625 98.61828125 5.56640625 98.62890625 C-1.17916709 97.26373069 -6.57141779 92.31473941 -11.74609375 88.03515625 C-12.44307373 87.46224854 -13.14005371 86.88934082 -13.8581543 86.29907227 C-49.79516813 56.54034161 -49.79516813 56.54034161 -52.3046875 33.875 C-52.65910488 23.38841506 -48.92245357 14.03097756 -41.87109375 6.34765625 C-30.94097258 -3.98190881 -13.51807777 -6.38163062 0 0 Z " fill="#010000" transform="translate(248.05859375,2.90234375)"/>
<path d="M0 0 C1.80175781 2.6418457 1.80175781 2.6418457 3.453125 6.17578125 C3.75506271 6.80907349 4.05700043 7.44236572 4.36808777 8.09484863 C5.34681826 10.15942433 6.29862792 12.23519407 7.25 14.3125 C7.91402823 15.7287743 8.57947949 17.14438227 9.24633789 18.55932617 C10.8874246 22.0543319 12.50577507 25.55924971 14.11431885 29.06933594 C14.92946547 30.84624434 15.75035152 32.62051685 16.57177734 34.39453125 C24 50.4405221 24 50.4405221 24 53 C22.36804688 53.23783203 22.36804688 53.23783203 20.703125 53.48046875 C0.93286643 56.53837715 -13.93385376 65.61493344 -30 77.0625 C-43.65500201 86.75368839 -58.04344652 96.34041284 -75.40234375 96.09375 C-76.64363037 96.08021484 -77.88491699 96.06667969 -79.16381836 96.05273438 C-80.0997583 96.03533203 -81.03569824 96.01792969 -82 96 C-82.70101429 88.83719856 -83.39376902 81.67362967 -84.08129883 74.50952148 C-84.31516073 72.08226258 -84.5507811 69.65517232 -84.78833008 67.22827148 C-86.26208134 52.15737323 -87.46147543 37.13489084 -88 22 C-79.48562227 19.01864006 -70.80725611 16.67028785 -62.109375 14.296875 C-61.30745979 14.07772682 -60.50554459 13.85857864 -59.67932892 13.63278961 C-55.44690214 12.47665367 -51.2135594 11.32394102 -46.97949219 10.17382812 C-42.61357381 8.98707765 -38.25124459 7.78763779 -33.88955307 6.58546066 C-30.52348543 5.66028348 -27.15483375 4.74481058 -23.78540802 3.83194733 C-22.17527177 3.39386327 -20.56613821 2.95207624 -18.95806122 2.50649261 C-16.71396042 1.88559178 -14.46652988 1.27859064 -12.21777344 0.67480469 C-11.22801514 0.39595932 -11.22801514 0.39595932 -10.21826172 0.11148071 C-6.49864354 -0.86937126 -3.66765696 -1.30618983 0 0 Z " fill="#DDE7ED" transform="translate(362,147)"/>
<path d="M0 0 C9.55030897 0.90702887 18.96180665 4.01843291 28.19140625 6.53515625 C29.82990091 6.9786425 31.46848799 7.42178743 33.10716248 7.86460876 C36.51760279 8.78722654 39.92720868 9.71284465 43.33618164 10.64086914 C47.70969484 11.83137346 52.08479497 13.01591666 56.46046543 14.19846439 C59.8331552 15.11033637 63.20523183 16.02445754 66.57710075 16.93935966 C68.19134932 17.37724161 69.80573511 17.81461806 71.42025948 18.25148201 C73.66561543 18.85958123 75.91018457 19.47049906 78.15454102 20.08227539 C79.15576492 20.3526915 79.15576492 20.3526915 80.17721558 20.62857056 C82.5568054 21.27965848 84.78731389 21.89365694 87 23 C86.41869611 39.33717629 85.02970077 55.54590329 83.4375 71.8125 C83.20071114 74.27013794 82.96438035 76.72782007 82.72851562 79.18554688 C82.15760528 85.12421584 81.58111309 91.06232116 81 97 C78.62482333 97.04079502 76.25036075 97.07039673 73.875 97.09375 C73.20984375 97.10631836 72.5446875 97.11888672 71.859375 97.13183594 C55.74366381 97.25033381 41.14239142 86.7390544 28.55908203 77.65014648 C11.56057309 65.42270917 -4.16447995 57.03645612 -25 54 C-22.6669043 46.27213215 -19.37118855 39.23450622 -15.8125 32 C-14.64648107 29.60708957 -13.4811164 27.21386023 -12.31640625 24.8203125 C-11.75066895 23.66047852 -11.18493164 22.50064453 -10.60205078 21.30566406 C-8.1035105 16.15018777 -5.67738099 10.96153756 -3.27270508 5.76171875 C-1.10419618 1.10419618 -1.10419618 1.10419618 0 0 Z " fill="#DDE7ED" transform="translate(151,146)"/>
<path d="M0 0 C4.72311379 2.99324907 8.39527406 6.05773348 10.8984375 11.203125 C10.8984375 11.863125 10.8984375 12.523125 10.8984375 13.203125 C12.0328125 13.14125 13.1671875 13.079375 14.3359375 13.015625 C22.74339346 13.06010889 29.90525055 16.35356562 35.8984375 22.203125 C42.12619719 30.36257194 42.76803916 38.18248266 41.8984375 48.203125 C39.82392672 55.56085248 35.38900336 61.22472093 28.8984375 65.203125 C15.41606589 71.61962066 -8.48295618 80.17924735 -23.1640625 75.203125 C-33.80353853 67.95922643 -37.99959255 47.01573271 -40.44140625 35.04296875 C-42.20772268 24.76906903 -41.32996751 16.2064208 -35.8515625 7.1328125 C-27.44419059 -3.90186313 -12.1041588 -6.38955595 0 0 Z " fill="#010000" transform="translate(411.1015625,48.796875)"/>
<path d="M0 0 C7.44113737 4.37929232 11.18445462 9.90187078 13.80078125 18.08203125 C17.31408308 32.42964934 11.03604615 48.49579803 6 61.875 C5.72792725 62.61371338 5.45585449 63.35242676 5.17553711 64.11352539 C3.01499846 69.57162816 0.36229892 73.40185391 -4.9609375 76.2578125 C-19.67256121 80.196001 -42.11416928 72.30805017 -55.5 65.9375 C-62.02118427 61.94032832 -66.36521511 56.3015286 -68.5 48.9375 C-69.71875355 39.6669812 -69.14826808 31.59787376 -63.5 23.9375 C-58.42011756 17.85483558 -50.86398144 14.46040385 -43.015625 13.6953125 C-41.17532337 13.68878661 -39.33509429 13.79900232 -37.5 13.9375 C-37.2525 13.215625 -37.005 12.49375 -36.75 11.75 C-33.71408728 4.91919639 -29.0291327 2.06378822 -22.5 -1.0625 C-15.35171018 -3.44526327 -6.84147988 -3.17602947 0 0 Z " fill="#010000" transform="translate(127.5,48.0625)"/>
<path d="M0 0 C2.84386552 1.55119937 5.31148965 3.18930881 7.9375 5.0625 C11.94773075 7.79953355 14.49737571 8.71388903 19.4375 7.875 C23.69955481 6.18793664 27.19694139 3.71266515 30.82421875 0.9609375 C34.96513259 -1.82640886 39.65332813 -1.57152271 44.4375 -1.125 C50.2790683 0.82218943 54.61349883 3.35913632 58.25 8.375 C60.38193748 14.65860522 60.73730439 21.82223045 58 28 C54.90300933 33.22952057 50.63957421 37.5290602 46.4375 41.875 C45.92364746 42.41463379 45.40979492 42.95426758 44.88037109 43.51025391 C38.53578471 50.15526463 32.00792105 56.51219654 24.875 62.3125 C24.30370361 62.79130615 23.73240723 63.2701123 23.14379883 63.76342773 C20.76025307 65.63699571 19.05635587 66.84346594 15.984375 67 C12.2628632 65.35614203 9.36520233 63.03048072 6.25 60.4375 C5.56381592 59.87200439 4.87763184 59.30650879 4.1706543 58.72387695 C-1.54434791 53.91777286 -6.9419135 48.81177114 -12.25 43.5625 C-13.00369873 42.82265869 -13.75739746 42.08281738 -14.53393555 41.32055664 C-21.29109637 34.50549254 -26.60800165 28.08512342 -26.9375 18.1875 C-26.86442538 12.13692171 -25.74897893 8.28557269 -21.5625 3.875 C-15.05781499 -2.02392721 -8.21023834 -2.59270685 0 0 Z " fill="#FD6363" transform="translate(239.5625,17.125)"/>
<path d="M0 0 C2.96728289 1.79895674 5.42350428 3.84700857 7 7 C9.2115754 19.81345749 3.68053092 34.63893815 -2 46 C-32.45654955 43.47451879 -32.45654955 43.47451879 -42 33 C-43.57455739 29.85088521 -43.34799118 27.47991184 -43 24 C-41.22719439 21.02327416 -39.14391985 18.57195993 -36 17 C-32.23263213 16.79937094 -28.47051437 16.68133684 -24.69921875 16.57421875 C-20.5328514 15.92748591 -18.90955397 14.99434972 -16 12 C-14.77472052 10.04978917 -14.77472052 10.04978917 -14 8 C-10.97742257 1.54541235 -7.31564536 -1.1551019 0 0 Z " fill="#FC6363" transform="translate(118,62)"/>
<path d="M0 0 C3.06232179 2.86260515 4.7252334 5.43947614 6.5625 9.1875 C8.15036904 12.29420029 8.9963459 13.29281604 12 15 C15.53075702 15.393181 15.53075702 15.393181 19.375 15.375 C27.55055074 15.64268114 27.55055074 15.64268114 30.875 18.4375 C33.31794199 21.38340064 33.91776854 22.40088509 34.4375 26.1875 C33.94450016 30.48364146 33.21371163 32.28887233 30.2734375 35.3671875 C21.14092119 41.92627997 4.08760036 45.39748001 -7 45 C-8.13215078 42.00265117 -9.25437469 39.00167493 -10.375 36 C-10.69210937 35.16082031 -11.00921875 34.32164063 -11.3359375 33.45703125 C-14.68184853 24.46489535 -17.37557957 15.71077456 -16 6 C-12.41184395 -1.05626227 -7.14608576 -2.00635337 0 0 Z " fill="#FC6363" transform="translate(403,63)"/>
<path d="M0 0 C3.96 0.66 7.92 1.32 12 2 C10.42593139 5.93517154 8.73642845 9.36517913 6.72998047 13.06884766 C2.16588031 21.924513 -0.18632718 31.29920975 -2.6796875 40.8984375 C-3.18177042 42.78771902 -3.68505908 44.67668047 -4.18948364 46.56533813 C-5.23558016 50.49445205 -6.27174752 54.42599151 -7.29980469 58.35986328 C-8.6136925 63.38684119 -9.94560868 68.40881217 -11.28407097 73.42929649 C-12.31990314 77.31778558 -13.34977438 81.20783166 -14.37750626 85.09846878 C-14.86689547 86.95098905 -15.35728478 88.80324543 -15.84872055 90.65522385 C-16.53339303 93.24188641 -17.21088438 95.8303225 -17.88623047 98.41943359 C-18.18694206 99.54954361 -18.18694206 99.54954361 -18.49372864 100.70248413 C-19.72476183 105.46170536 -20.65782131 110.08780092 -21 115 C-17.46788709 120.36218421 -12.15842195 121.67544562 -6.3125 123.5 C0.76868723 125.83115757 7.49998366 128.28814856 14 132 C14 132.33 14 132.66 14 133 C5.4558781 133.23234091 -2.55144199 132.77822288 -10.9375 131.125 C-12.03070557 130.91157959 -13.12391113 130.69815918 -14.25024414 130.47827148 C-23.34247624 128.57944326 -32.13087125 125.97948702 -40.9375 123.0625 C-42.1742749 122.65596191 -43.4110498 122.24942383 -44.68530273 121.83056641 C-52.24372219 119.23626081 -59.12724891 116.07836474 -66 112 C-66 111.67 -66 111.34 -66 111 C-56.51577498 111.3614225 -47.65629352 112.24743427 -38.40234375 114.4765625 C-34.63053404 115.05684092 -31.7163318 114.82787318 -28 114 C-25.15936961 111.15936961 -24.6815021 107.79127081 -23.69335938 104.00537109 C-23.47194778 103.17912231 -23.25053619 102.35287354 -23.02241516 101.50158691 C-22.28966134 98.76056542 -21.5666748 96.01706621 -20.84375 93.2734375 C-20.33631236 91.3671657 -19.82828831 89.46104992 -19.31970215 87.55508423 C-17.97949013 82.52587297 -16.64761026 77.49449031 -15.31732178 72.46264648 C-13.96810464 67.36562635 -12.61051112 62.27083897 -11.25390625 57.17578125 C-9.26739429 49.70860266 -7.28319278 42.2408178 -5.30664062 34.77099609 C-5.10190628 33.99873688 -4.89717194 33.22647766 -4.68623352 32.43081665 C-1.94987722 22.97324357 -1.94987722 22.97324357 -0.5859375 13.28125 C-0.54726562 12.49492187 -0.50859375 11.70859375 -0.46875 10.8984375 C-0.4378125 10.10695313 -0.406875 9.31546875 -0.375 8.5 C-0.33632812 7.67757813 -0.29765625 6.85515625 -0.2578125 6.0078125 C-0.16468308 4.0055299 -0.08131015 2.00279738 0 0 Z " fill="#D5DEE4" transform="translate(133,363)"/>
<path d="M0 0 C0.01780518 1.08039551 0.03561035 2.16079102 0.05395508 3.27392578 C0.39167446 15.03153297 2.52140178 25.58449214 5.6875 36.875 C6.17285771 38.65200185 6.65661835 40.42944057 7.13891602 42.20727539 C7.91196412 45.05217665 8.68742956 47.89630351 9.47044373 50.73847961 C11.61835403 58.53828935 13.66928841 66.36117658 15.703125 74.19140625 C16.6390138 77.76683789 17.57694747 81.34172456 18.51602173 84.9163208 C19.12901461 87.25870679 19.73757696 89.60225683 20.34164429 91.94696045 C21.1915525 95.23805947 22.0602784 98.52364069 22.93359375 101.80859375 C23.18429626 102.79726944 23.43499878 103.78594513 23.69329834 104.80458069 C23.93815979 105.71139084 24.18302124 106.61820099 24.43530273 107.55249023 C24.64195053 108.34292221 24.84859833 109.13335419 25.06150818 109.94773865 C26.26092553 112.57058289 27.5039614 113.58580012 30 115 C32.80633642 114.83684091 35.26483028 114.53133137 38 114 C39.4556474 113.74822473 40.91137766 113.49692804 42.3671875 113.24609375 C43.10340332 113.11372314 43.83961914 112.98135254 44.59814453 112.8449707 C51.82758287 111.55117566 58.62736492 110.64325959 66 111 C63.31375654 114.26892127 59.79565889 115.68388416 56 117.3125 C55.29431885 117.61591309 54.5886377 117.91932617 53.86157227 118.23193359 C34.40036689 126.39095617 11.70334112 133.36201889 -9.5625 133.0625 C-10.40941406 133.05347656 -11.25632812 133.04445313 -12.12890625 133.03515625 C-12.74636719 133.02355469 -13.36382812 133.01195312 -14 133 C-10.14294266 129.61717102 -5.56283888 127.9798193 -0.875 126.0625 C-0.02494385 125.70841064 0.8251123 125.35432129 1.70092773 124.98950195 C6.85649956 122.84927653 12.03261576 120.77911031 17.28515625 118.88671875 C19.35530871 117.99170416 19.35530871 117.99170416 21 115 C20.62044627 109.29439039 19.35286967 103.93123855 17.88623047 98.41943359 C17.67299637 97.60194641 17.45976227 96.78445923 17.24006653 95.94219971 C16.53827426 93.25937338 15.82843351 90.57877202 15.1171875 87.8984375 C14.619703 86.01527357 14.12223626 84.13210495 13.62478638 82.24893188 C12.5813961 78.3056514 11.53317956 74.36368649 10.48242188 70.42236328 C9.14723949 65.41003858 7.8311139 60.39292369 6.51959038 55.37436485 C5.49865538 51.48157722 4.46383874 47.59257371 3.42538834 43.70442581 C2.93482363 41.85848604 2.44923517 40.01121539 1.96905136 38.16254807 C-0.93650016 27.00073679 -4.3955582 17.10699297 -10 7 C-10.67412427 5.67042161 -11.34435097 4.33878548 -12 3 C-10.56445975 2.49440092 -9.1264798 1.9957251 -7.6875 1.5 C-6.88699219 1.2215625 -6.08648437 0.943125 -5.26171875 0.65625 C-3 0 -3 0 0 0 Z " fill="#D5DEE4" transform="translate(379,363)"/>
</svg>
