<?xml version="1.0" encoding="UTF-8"?>
<svg version="1.1" xmlns="http://www.w3.org/2000/svg" width="512" height="512">
<path d="M0 0 C1.010625 0.556875 2.02125 1.11375 3.0625 1.6875 C5.52719578 0.95228096 5.52719578 0.95228096 8.0625 -0.3125 C21.19792541 -5.82896233 32.31406912 -6.94441183 46.0625 -2.3125 C50.0348421 -0.33144795 53.54358177 1.98890837 57.0625 4.6875 C58.04863281 5.43966797 58.04863281 5.43966797 59.0546875 6.20703125 C66.81044367 13.01486166 71.61608695 24.07180491 72.30078125 34.21875 C72.72150584 56.71644377 62.26695309 71.94685628 47.28515625 87.68359375 C39.58452475 95.63105244 31.60839027 102.85991229 22.71630859 109.44384766 C21.03923213 110.70499727 19.40280367 112.00696918 17.76953125 113.32421875 C16.72152604 114.15386299 15.67335661 114.98329984 14.625 115.8125 C13.71878906 116.53695312 12.81257813 117.26140625 11.87890625 118.0078125 C8.39703361 120.08438009 6.12376577 120.67866155 2.0625 120.6875 C-5.35166965 117.24113323 -11.58418175 111.77342296 -17.9375 106.6875 C-18.46649902 106.26581543 -18.99549805 105.84413086 -19.54052734 105.40966797 C-36.93516344 91.43425831 -53.66062706 75.81456888 -61.9375 54.6875 C-62.20433594 54.01589844 -62.47117188 53.34429687 -62.74609375 52.65234375 C-66.24072674 41.68642643 -64.696517 28.21692495 -59.6484375 18.10546875 C-53.94846602 7.94001159 -45.97718913 0.28599005 -34.72265625 -3.3515625 C-23.0094539 -6.27644617 -10.59639871 -6.81032161 0 0 Z " fill="#FD5258" transform="translate(251.9375,198.3125)"/>
<path d="M0 0 C1.010625 0.556875 2.02125 1.11375 3.0625 1.6875 C5.52719578 0.95228096 5.52719578 0.95228096 8.0625 -0.3125 C21.19792541 -5.82896233 32.31406912 -6.94441183 46.0625 -2.3125 C50.0348421 -0.33144795 53.54358177 1.98890837 57.0625 4.6875 C58.04863281 5.43966797 58.04863281 5.43966797 59.0546875 6.20703125 C66.81044367 13.01486166 71.61608695 24.07180491 72.30078125 34.21875 C72.72150584 56.71644377 62.26695309 71.94685628 47.28515625 87.68359375 C39.58452475 95.63105244 31.60839027 102.85991229 22.71630859 109.44384766 C21.03923213 110.70499727 19.40280367 112.00696918 17.76953125 113.32421875 C16.72152604 114.15386299 15.67335661 114.98329984 14.625 115.8125 C13.71878906 116.53695312 12.81257813 117.26140625 11.87890625 118.0078125 C8.39703361 120.08438009 6.12376577 120.67866155 2.0625 120.6875 C-5.35166965 117.24113323 -11.58418175 111.77342296 -17.9375 106.6875 C-18.46649902 106.26581543 -18.99549805 105.84413086 -19.54052734 105.40966797 C-36.93516344 91.43425831 -53.66062706 75.81456888 -61.9375 54.6875 C-62.20433594 54.01589844 -62.47117188 53.34429687 -62.74609375 52.65234375 C-66.24072674 41.68642643 -64.696517 28.21692495 -59.6484375 18.10546875 C-53.94846602 7.94001159 -45.97718913 0.28599005 -34.72265625 -3.3515625 C-23.0094539 -6.27644617 -10.59639871 -6.81032161 0 0 Z M-35.9375 15.6875 C-36.96875 16.3475 -38 17.0075 -39.0625 17.6875 C-44.08336573 22.18420942 -47.19070737 28.93235125 -48.48828125 35.45703125 C-49.23701379 50.06801192 -40.18532683 61.83984397 -31.01147461 72.21655273 C-22.93419831 81.1500573 -14.02951172 89.0145878 -4.5625 96.4375 C-3.88421143 96.98792969 -3.20592285 97.53835938 -2.50708008 98.10546875 C-0.690148 99.49391952 0.99948817 100.70163594 3.0625 101.6875 C7.53274556 101.03728246 10.96325638 97.71590859 14.4375 94.9375 C15.04182861 94.45651855 15.64615723 93.97553711 16.26879883 93.47998047 C31.39968768 81.25311747 46.36860809 67.9169303 54.0625 49.6875 C54.43246094 48.86378906 54.80242187 48.04007813 55.18359375 47.19140625 C57.66546174 40.1208401 56.66906565 33.0871226 53.625 26.375 C49.79723547 19.4868294 44.93552671 15.36824744 37.75 12.25 C27.88581829 10.74529432 20.56482264 11.13977377 12.0625 16.6875 C11.155 17.450625 10.2475 18.21375 9.3125 19 C6.32299451 21.24212912 4.74506272 21.05439739 1.0625 20.6875 C-1.53515625 19.2265625 -1.53515625 19.2265625 -4 17.3125 C-13.38510543 10.10687403 -25.91219724 8.60389406 -35.9375 15.6875 Z " fill="#1A2336" transform="translate(251.9375,198.3125)"/>
<path d="M0 0 C4.37706718 0.72793558 7.0961307 2.53898013 10.4921875 5.2265625 C12.22773332 6.54717323 13.96638198 7.86091676 15.72216797 9.15454102 C17.6171875 10.6015625 17.6171875 10.6015625 19.64111328 12.40600586 C21.94891028 14.28542032 23.81619169 15.57698055 26.6171875 16.6015625 C30.97609434 16.1552988 34.72369645 14.6038255 38.7421875 12.9140625 C51.64355385 7.76783314 51.64355385 7.76783314 57.6171875 9.6015625 C60.1171875 11.6015625 60.1171875 11.6015625 61.6171875 14.6015625 C61.84199593 19.61568457 60.64797649 23.8993475 58.4609375 28.37109375 C54.7417247 36.14881405 54.7417247 36.14881405 53.6171875 44.6015625 C56.40853412 51.73688193 61.76379892 57.41532588 67.015625 62.87182617 C69.31087552 65.35076671 69.60313157 66.47740183 69.9921875 69.9140625 C69.62793704 73.49585874 69.22770335 75.16908593 66.59716797 77.63061523 C61.84176889 79.96257851 55.64359438 78.6820299 50.4921875 78.4765625 C40.15846867 78.08014568 40.15846867 78.08014568 31.4375 82.7421875 C29.01104674 85.8047088 27.21810532 89.09722783 25.5859375 92.63769531 C23.74772551 96.36415128 21.39104726 100.71463262 17.6171875 102.6015625 C10.32647728 103.189523 10.32647728 103.189523 7.60620117 100.93457031 C5.31928884 98.25214313 4.63040493 96.23862779 3.72265625 92.84765625 C3.40619141 91.74615234 3.08972656 90.64464844 2.76367188 89.50976562 C2.12416897 87.19531214 1.49655526 84.87754077 0.88085938 82.55664062 C-0.83473149 76.04821573 -0.83473149 76.04821573 -5.46875 71.54296875 C-6.76437227 71.19362058 -8.07092265 70.88374374 -9.3828125 70.6015625 C-11.12210147 70.03970637 -12.85754525 69.46586512 -14.58984375 68.8828125 C-17.41781491 67.97929462 -20.24804287 67.08523356 -23.08398438 66.20703125 C-23.99341797 65.91441406 -24.90285156 65.62179688 -25.83984375 65.3203125 C-27.0769812 64.93262695 -27.0769812 64.93262695 -28.33911133 64.53710938 C-30.3828125 63.6015625 -30.3828125 63.6015625 -32.3828125 60.6015625 C-32.92156279 57.36906076 -33.18171999 55.67164986 -32.3828125 52.6015625 C-30.18140942 49.67077889 -27.34298458 47.72758204 -24.3828125 45.6015625 C-23.18963143 44.71547997 -21.99695793 43.82871371 -20.8046875 42.94140625 C-10.81126739 35.6015625 -10.81126739 35.6015625 -8.3828125 35.6015625 C-8.40899658 34.71895752 -8.43518066 33.83635254 -8.4621582 32.92700195 C-8.54761525 29.6374467 -8.61016995 26.34907828 -8.6574707 23.05883789 C-8.68254397 21.63774959 -8.71661249 20.21678937 -8.76000977 18.79614258 C-8.82099108 16.74788788 -8.84909012 14.70134367 -8.87109375 12.65234375 C-8.89727783 11.42169189 -8.92346191 10.19104004 -8.95043945 8.9230957 C-8.03679064 3.5767765 -5.29562998 0.94171711 0 0 Z " fill="#1A2335" transform="translate(429.3828125,12.3984375)"/>
<path d="M0 0 C3.38071725 2.60791201 4.83976028 4.06233917 5.56762695 8.3215332 C5.54144287 9.55218506 5.51525879 10.78283691 5.48828125 12.05078125 C5.48120651 12.70958786 5.47413177 13.36839447 5.46684265 14.04716492 C5.43900979 16.13680034 5.37630819 18.22368476 5.3125 20.3125 C5.28740205 21.73498714 5.26459148 23.15751659 5.24414062 24.58007812 C5.18922446 28.05426861 5.10303685 31.5268655 5 35 C5.74491699 35.27400635 6.48983398 35.5480127 7.25732422 35.83032227 C9.80196107 36.9155417 11.68942777 38.05439666 13.8828125 39.71484375 C14.57503906 40.23626953 15.26726562 40.75769531 15.98046875 41.29492188 C16.68816406 41.83697266 17.39585938 42.37902344 18.125 42.9375 C18.84042969 43.47568359 19.55585937 44.01386719 20.29296875 44.56835938 C27.13876377 49.75708813 27.13876377 49.75708813 29 52 C29.61057692 57.49519231 29.61057692 57.49519231 29 60 C26.07737483 63.51951433 23.67802015 64.68845439 19.28125 65.7890625 C18.18425781 66.09199219 17.08726563 66.39492187 15.95703125 66.70703125 C13.6580531 67.31749437 11.35318295 67.90619695 9.04296875 68.47265625 C2.91893107 70.07370697 2.91893107 70.07370697 -1.58398438 74.20849609 C-2.64139201 76.79001896 -3.36557692 79.28534241 -4 82 C-4.44215617 83.44708517 -4.88967972 84.89254644 -5.34375 86.3359375 C-5.93325369 88.36992042 -6.50855306 90.40632191 -7.06640625 92.44921875 C-8.28762574 96.61430511 -9.4809172 99.37548778 -13 102 C-18.41826923 102.77403846 -18.41826923 102.77403846 -21 102 C-25.62619594 98.10787812 -28.84234309 93.20279546 -32.25 88.25 C-33.31698231 86.71303739 -34.38465353 85.17655274 -35.453125 83.640625 C-35.91879883 82.96547852 -36.38447266 82.29033203 -36.86425781 81.59472656 C-37.90600069 80.03874213 -37.90600069 80.03874213 -39 79 C-41.08679118 78.90250052 -43.17657496 78.86794839 -45.265625 78.859375 C-47.18955078 78.83037109 -47.18955078 78.83037109 -49.15234375 78.80078125 C-51.19771721 78.77187657 -53.24200711 78.75000192 -55.28759766 78.74951172 C-57.25960708 78.74616366 -59.2314693 78.70937396 -61.203125 78.671875 C-62.38551758 78.6625293 -63.56791016 78.65318359 -64.78613281 78.64355469 C-68.91855323 77.81606607 -70.41527184 76.26570577 -73 73 C-73.79988214 68.50196147 -73.30956017 66.53714195 -71.0234375 62.5703125 C-70.1572653 61.40927317 -69.27391478 60.26087799 -68.375 59.125 C-67.05466162 57.3898121 -65.7410838 55.65144984 -64.44677734 53.89672852 C-63 52 -63 52 -61.19775391 49.96069336 C-58.55897472 46.69936724 -56.84804471 44.52815924 -57.27587891 40.22558594 C-58.21054086 37.14772718 -59.34396553 34.26270326 -60.625 31.3125 C-61.43759011 29.31178524 -62.2425462 27.30794941 -63.0390625 25.30078125 C-63.41240723 24.42591064 -63.78575195 23.55104004 -64.17041016 22.6496582 C-65.12531134 19.5997634 -65.24615214 17.17951069 -65 14 C-63.08237682 10.54827828 -61.85187698 9.27446839 -58.078125 8.05859375 C-54.39847169 7.61970973 -51.90406754 8.69986706 -48.55078125 10.1796875 C-37.56978244 15.46357789 -37.56978244 15.46357789 -25.91601562 14.92724609 C-20.17458857 11.60421827 -15.32408514 7.3156866 -10.66625977 2.61743164 C-7.36076832 -0.59119558 -4.48866706 -0.45647462 0 0 Z " fill="#1A2435" transform="translate(86,13)"/>
<path d="M0 0 C4.59611277 2.16433625 8.96472533 4.75481163 13.34960938 7.31445312 C18.40713931 10.28090939 18.40713931 10.28090939 24.05859375 10.65234375 C25.02925781 10.10707031 25.99992187 9.56179688 27 9 C27.70584229 8.62931396 28.41168457 8.25862793 29.13891602 7.87670898 C32.46212579 6.12709788 35.74134254 4.3032934 39.01171875 2.45703125 C46.88235116 -1.83490344 46.88235116 -1.83490344 52 -1 C54.9566702 0.92826317 56.66338807 2.40585672 57.4140625 5.9609375 C57.65555896 12.39352496 56.27776433 18.74942695 54.98046875 25.02246094 C53.86889486 30.57985228 53.86889486 30.57985228 55 36 C57.03381659 38.55584781 57.03381659 38.55584781 59.625 40.9375 C60.97464844 42.23880859 60.97464844 42.23880859 62.3515625 43.56640625 C64.52650556 45.56491587 66.7270551 47.49046973 69 49.375 C72.51931126 52.45439735 73.7546369 54.35256206 74.4375 58.9375 C73.97983646 62.14114481 73.27232878 63.68589197 70.9284668 65.91333008 C67.36599924 67.92074154 63.37402621 67.79966805 59.36376953 68.09814453 C49.157782 68.54641048 49.157782 68.54641048 40.03857422 72.47851562 C37.23528036 75.95100777 35.81341409 79.87904039 34.57373047 84.12744141 C33.7415244 86.84362035 32.48616326 89.29243106 31.1875 91.8125 C30.83042969 92.58207031 30.47335937 93.35164063 30.10546875 94.14453125 C29 96 29 96 26 98 C20.36818182 98.53636364 20.36818182 98.53636364 18 98 C14.86194946 95.26135909 13.04626456 92.56189981 11.23828125 88.83203125 C10.75939453 87.85685547 10.28050781 86.88167969 9.78710938 85.87695312 C9.30048828 84.86568359 8.81386719 83.85441406 8.3125 82.8125 C7.33098782 80.79741613 6.34799584 78.78305213 5.36328125 76.76953125 C4.93313721 75.87854736 4.50299316 74.98756348 4.05981445 74.06958008 C3.16658896 72.06422867 3.16658896 72.06422867 2 71 C0.13721462 70.67895319 -1.73492121 70.41181997 -3.609375 70.16796875 C-4.75664062 70.00876953 -5.90390625 69.84957031 -7.0859375 69.68554688 C-9.51175858 69.35581107 -11.93886161 69.03536166 -14.3671875 68.72460938 C-15.51960937 68.56154297 -16.67203125 68.39847656 -17.859375 68.23046875 C-18.91608398 68.09020264 -19.97279297 67.94993652 -21.06152344 67.80541992 C-24.5357342 66.85315827 -26.42277095 65.49203379 -29 63 C-30 60.0625 -30 60.0625 -30 57 C-28.14689553 53.35546446 -26.01214274 50.86071107 -22.953125 48.1796875 C-22.19128906 47.4784375 -21.42945313 46.7771875 -20.64453125 46.0546875 C-19.05116637 44.60428358 -17.43898326 43.17428153 -15.80859375 41.765625 C-11.40829229 37.72679225 -11.40829229 37.72679225 -9.67163086 32.21069336 C-9.91275441 29.39296513 -10.36784389 26.7544325 -11 24 C-11.17660156 22.87207031 -11.35320312 21.74414062 -11.53515625 20.58203125 C-11.70917969 19.66808594 -11.88320312 18.75414062 -12.0625 17.8125 C-12.86907443 13.06540926 -13.51462017 8.80312157 -13 4 C-9.21037704 -0.92650985 -5.84366934 -1.67170636 0 0 Z " fill="#1A2335" transform="translate(234,414)"/>
<path d="M0 0 C7.25770569 5.5416755 11.61562083 13.85200541 13.05078125 22.75 C13.81933373 32.2800508 11.06066366 41.26482345 5.05078125 48.75 C-2.04468344 56.18903456 -9.33755801 59.63102695 -19.63671875 60 C-30.60486445 59.83702607 -38.16200408 55.646015 -45.69921875 47.9375 C-51.10618702 40.27762828 -53.83930184 32.17828751 -52.94921875 22.75 C-51.24135977 13.77650367 -47.27677842 6.12006724 -40.07421875 0.375 C-27.95665303 -7.79414543 -12.34370042 -7.91579987 0 0 Z " fill="#182336" transform="translate(275.94921875,5.25)"/>
<path d="M0 0 C7.80405131 5.54888819 12.82358558 11.86713085 15.4921875 21.0859375 C16.76346294 31.76465116 14.86225936 40.82955312 8.53515625 49.671875 C2.49130943 56.79351843 -5.71051856 60.83528404 -14.99609375 61.7109375 C-24.49629649 61.7109375 -33.61673956 58.68175266 -40.75 52.30859375 C-47.80129649 44.51405249 -50.5672328 35.70507559 -50.1953125 25.3359375 C-49.05672808 16.09639038 -44.67233529 7.87351782 -37.34765625 2.109375 C-25.91822314 -5.31664506 -12.11889564 -7.11607751 0 0 Z " fill="#182336" transform="translate(465.1953125,326.2890625)"/>
<path d="M0 0 C6.88773888 5.75400487 11.98473924 13.52966527 13 22.5625 C13.82481293 32.65521094 10.74866932 40.9185518 5 49.0625 C-2.05490821 56.27774703 -10.69603021 59.70111059 -20.75 59.875 C-30.36196119 59.24263413 -38.52218316 55.67831764 -45.125 48.5625 C-51.2608993 40.7231499 -53.59146595 31.6921028 -52.75 21.875 C-50.8728053 11.59815446 -45.28034121 3.82207884 -36.75 -2.125 C-25.0919791 -8.5156924 -10.77054908 -7.77572304 0 0 Z " fill="#182336" transform="translate(83.75,328.125)"/>
<path d="M0 0 C4.47815454 4.06061946 7.66359879 9.35813375 10.75 14.5 C14.04728991 19.88334323 17.41195944 25.2006135 20.9375 30.4375 C24.44504863 35.65661707 27.90298562 40.90376398 31.3125 46.1875 C31.76778076 46.89302002 32.22306152 47.59854004 32.69213867 48.32543945 C33.63873331 49.79260359 34.58526528 51.25980817 35.53173828 52.72705078 C38.09685654 56.69799374 40.67323079 60.66161101 43.25 64.625 C43.78858643 65.45346436 44.32717285 66.28192871 44.88208008 67.13549805 C49.71723623 74.57010903 54.56275393 81.99795093 59.40869141 89.42553711 C64.01656578 96.48924358 68.61830501 103.55690278 73.21118164 110.63037109 C75.96449824 114.87062314 78.72242 119.1077613 81.48828125 123.33984375 C82.06562012 124.22454346 82.64295898 125.10924316 83.23779297 126.02075195 C84.32779247 127.69082158 85.41914348 129.36001036 86.51220703 131.02807617 C88.02206637 133.34346955 89.51548007 135.66828448 91 138 C91.56404541 138.88083252 92.12809082 139.76166504 92.70922852 140.66918945 C93.25893311 141.55050537 93.8086377 142.43182129 94.375 143.33984375 C94.87644531 144.13769287 95.37789063 144.93554199 95.89453125 145.75756836 C97 148 97 148 97.0625 151.9375 C95.4742268 156.51546392 95.4742268 156.51546392 93 158 C89.39663845 158.93420485 87.06080241 159.4514418 83.5859375 157.97265625 C80.11581463 155.32550814 78.25536079 152.25633578 76 148.5625 C75.02924846 147.01785027 74.05786839 145.47359542 73.0859375 143.9296875 C72.32941895 142.71684082 72.32941895 142.71684082 71.55761719 141.47949219 C68.96330122 137.34973153 66.29103675 133.27117212 63.625 129.1875 C62.52313195 127.49368831 61.42157175 125.79967633 60.3203125 124.10546875 C59.77149414 123.26161621 59.22267578 122.41776367 58.65722656 121.54833984 C55.9374103 117.36604136 53.21877165 113.18297759 50.5 109 C49.96246094 108.17306641 49.42492187 107.34613281 48.87109375 106.49414062 C46.18695189 102.36493917 43.50320952 98.23547915 40.8203125 94.10546875 C35.05511648 85.2315886 29.28230152 76.36274502 23.5 67.5 C17.73052351 58.65691237 11.97004232 49.80804906 6.21875 40.953125 C3.95082524 37.46164083 1.67946564 33.97241664 -0.59375 30.484375 C-1.48006104 29.12348755 -1.48006104 29.12348755 -2.38427734 27.73510742 C-3.51410442 26.00043464 -4.64459905 24.2661964 -5.77587891 22.5324707 C-7.19069099 20.3592603 -8.59702338 18.18086195 -10 16 C-10.6084375 15.0615625 -11.216875 14.123125 -11.84375 13.15625 C-13.54620456 9.9814023 -13.38570373 7.53561755 -13 4 C-9.91608187 -1.58042329 -5.81621776 -1.57727939 0 0 Z " fill="#182235" transform="translate(309,323)"/>
<path d="M0 0 C1.83984375 0.56640625 1.83984375 0.56640625 3.83984375 2.19140625 C5.24250156 5.52271856 5.13075871 7.96353639 4.83984375 11.56640625 C3.65028498 14.0411667 2.48987508 16.06988066 0.96484375 18.31640625 C0.53429687 18.97833984 0.10375 19.64027344 -0.33984375 20.32226562 C-1.92798112 22.74978538 -3.54311333 25.15804445 -5.16015625 27.56640625 C-6.22208418 29.15954755 -7.2839847 30.75270724 -8.34526062 32.34628296 C-11.08012913 36.45264775 -13.81808364 40.55691512 -16.56420898 44.65576172 C-20.49708153 50.53067658 -24.3967586 56.41649509 -28.09765625 62.44140625 C-32.73974703 69.99738149 -37.60460431 77.405059 -42.47265625 84.81640625 C-42.88806671 85.44890289 -43.30347717 86.08139954 -43.73147583 86.73306274 C-45.38641906 89.25251835 -47.04154812 91.77185164 -48.69709778 94.29090881 C-52.15894548 99.55997835 -55.6022807 104.84091243 -59.03515625 110.12890625 C-59.54723633 110.9173291 -60.05931641 111.70575195 -60.58691406 112.51806641 C-63.2010147 116.54431521 -65.81197832 120.5725877 -68.421875 124.6015625 C-71.12102348 128.76688557 -73.8296071 132.92595535 -76.54296875 137.08203125 C-77.6431911 138.77222791 -78.73939833 140.46504349 -79.83203125 142.16015625 C-81.45379775 144.67616783 -83.08708416 147.18435446 -84.72265625 149.69140625 C-85.2112915 150.45598145 -85.69992676 151.22055664 -86.20336914 152.00830078 C-86.66477295 152.71067871 -87.12617676 153.41305664 -87.6015625 154.13671875 C-88.00060791 154.75305176 -88.39965332 155.36938477 -88.81079102 156.00439453 C-90.44603345 157.89733484 -91.82377251 158.68981299 -94.16015625 159.56640625 C-97.51704045 159.38972813 -100.12433533 159.1878988 -103.03515625 157.44140625 C-104.85262702 154.41228831 -105.04365993 152.10365804 -105.16015625 148.56640625 C-103.94586013 145.47526651 -102.1845761 142.82268383 -100.34765625 140.06640625 C-99.84282715 139.27669434 -99.33799805 138.48698242 -98.81787109 137.67333984 C-97.28604852 135.29002529 -95.72782359 132.92625938 -94.16015625 130.56640625 C-93.73202637 129.91575195 -93.30389648 129.26509766 -92.86279297 128.59472656 C-90.86424988 125.55849397 -88.8457624 122.53651386 -86.8125 119.5234375 C-83.7730067 115.00850671 -80.80938695 110.445091 -77.84765625 105.87890625 C-77.02612061 104.61264404 -77.02612061 104.61264404 -76.18798828 103.32080078 C-75.06958925 101.59634377 -73.95142663 99.87173342 -72.83349609 98.14697266 C-70.1127099 93.95107098 -67.38621288 89.75888483 -64.66015625 85.56640625 C-63.57418441 83.89585566 -62.48824692 82.22528273 -61.40234375 80.5546875 C-60.86577148 79.7292041 -60.32919922 78.9037207 -59.77636719 78.05322266 C-58.17742369 75.59297515 -56.5788908 73.13246132 -54.98046875 70.671875 C-48.58541085 60.82850157 -42.18092746 50.99134757 -35.76416016 41.16210938 C-32.69007585 36.45185743 -29.6214043 31.73828269 -26.56640625 27.015625 C-8.15495956 -1.44268372 -8.15495956 -1.44268372 0 0 Z " fill="#182235" transform="translate(211.16015625,322.43359375)"/>
<path d="M0 0 C2.5 2.0625 2.5 2.0625 4 5 C4.04869766 10.15179508 3.44412451 12.96137963 0.00794983 16.84056091 C-1.32951925 18.20123341 -2.68643103 19.54296565 -4.05834961 20.86889648 C-5.16565681 21.98014641 -5.16565681 21.98014641 -6.29533386 23.11384583 C-8.73129288 25.55002589 -11.19118779 27.96039357 -13.65234375 30.37109375 C-15.35151493 32.05974233 -17.04921378 33.74987359 -18.74549866 35.44142151 C-23.20912839 39.88402398 -27.69381519 44.3047805 -32.18280029 48.72174072 C-35.85211266 52.33918369 -39.50644371 55.97155279 -43.16004086 59.60485744 C-50.69526679 67.09781975 -58.24007392 74.58124103 -65.81225586 82.03686523 C-66.51415039 82.73135773 -67.21604492 83.42585022 -67.93920898 84.14138794 C-68.9003788 85.08532158 -68.9003788 85.08532158 -69.88096619 86.04832458 C-70.43827392 86.59746238 -70.99558165 87.14660017 -71.56977749 87.7123785 C-73.75234332 89.67733058 -74.89780104 89.99333485 -77.875 90.1875 C-80.96075154 90.00235491 -82.51023567 89.77840309 -85 88 C-86.95048455 85.49223415 -87.00092406 83.95194873 -87.0625 80.75 C-86.01972115 77.06960404 -85.33262096 75.93239469 -82.86943054 73.21054077 C-82.23645742 72.51045269 -81.60348431 71.81036461 -80.95133018 71.08906174 C-78.03126888 67.96289253 -75.05250706 64.90497454 -72.02661133 61.88134766 C-71.36877151 61.22014923 -70.7109317 60.55895081 -70.03315735 59.87771606 C-67.88539035 57.72054663 -65.73396395 55.56707582 -63.58203125 53.4140625 C-62.07696911 51.90578321 -60.57198068 50.39743037 -59.06706238 48.88900757 C-55.92611824 45.74210113 -52.78313995 42.59724254 -49.63891602 39.45361328 C-45.6087921 35.42359149 -41.5856212 31.38670377 -37.56413746 27.34806252 C-34.46464323 24.23746547 -31.36063065 21.13140808 -28.25531578 18.02662277 C-26.76933907 16.53946585 -25.28498403 15.05068671 -23.80228615 13.56026077 C-21.73463332 11.48283153 -19.66076647 9.4118088 -17.58520508 7.34228516 C-16.97473328 6.72619385 -16.36426147 6.11010254 -15.73529053 5.4753418 C-15.16774551 4.91199127 -14.6002005 4.34864075 -14.01545715 3.76821899 C-13.52678067 3.27899775 -13.03810419 2.7897765 -12.53461933 2.28573036 C-8.34821085 -1.22171437 -5.28842834 -1.41654331 0 0 Z " fill="#182237" transform="translate(412,97)"/>
<path d="M0 0 C2.45099065 0.86104804 3.85593885 2.07759246 5.77678871 3.82207966 C6.82522894 4.77238528 6.82522894 4.77238528 7.89484978 5.741889 C11.01574433 8.66645804 14.07505556 11.64342289 17.09816933 14.66880512 C17.75936775 15.32664494 18.42056618 15.98448475 19.10180092 16.6622591 C21.25897036 18.8100261 23.41244116 20.9614525 25.56545448 23.1133852 C27.07373377 24.61844734 28.58208661 26.12343577 30.09050941 27.62835407 C33.23741585 30.76929821 36.38227444 33.9122765 39.5259037 37.05650043 C43.5559255 41.08662435 47.59281322 45.10979525 51.63145447 49.13127899 C54.74205151 52.23077322 57.8481089 55.3347858 60.95289421 58.44010067 C62.44005113 59.92607738 63.92883027 61.41043242 65.41925621 62.8931303 C67.49668545 64.96078313 69.56770818 67.03464998 71.63723183 69.11021137 C72.25332314 69.72068317 72.86941444 70.33115498 73.50417519 70.96012592 C74.06752571 71.52767094 74.63087624 72.09521595 75.21129799 72.6799593 C75.70051924 73.16863578 76.18974049 73.65731226 76.69378662 74.16079712 C79.30927273 77.2825835 80.00883353 79.13840197 79.79201698 83.25791645 C79.00439416 86.59016684 78.68270085 87.74912406 75.97951698 89.69541645 C72.96172761 91.20431114 71.35629061 91.19567921 67.97951698 90.69541645 C66.15720463 89.36471939 66.15720463 89.36471939 64.22596169 87.60751057 C63.52239477 86.96938875 62.81882786 86.33126694 62.09394073 85.6738081 C58.90679593 82.69170924 55.76605998 79.66975351 52.66140175 76.60191059 C51.97908989 75.93098881 51.29677803 75.26006702 50.59379005 74.56881428 C43.54924101 67.63385901 36.53512232 60.66799303 29.52370644 53.69956684 C26.19923714 50.39747464 22.86525821 47.10544617 19.52272987 43.82163715 C15.47150406 39.84140835 11.43765482 35.84432917 7.41562653 31.83460522 C5.88459808 30.31397569 4.3475673 28.79936443 2.80443954 27.29101467 C0.65018464 25.18288352 -1.48101183 23.05377885 -3.6081295 20.91831684 C-4.24651756 20.30352467 -4.88490562 19.68873249 -5.54263878 19.05531025 C-9.78982083 14.72691419 -11.0435122 11.81130232 -11.02048302 5.69541645 C-8.03096979 0.85034329 -5.75491796 -0.92475286 0 0 Z " fill="#172336" transform="translate(107.02048301696777,96.30458354949951)"/>
<path d="M0 0 C2.51497488 0.49434254 5.01029502 1.04690192 7.5083313 1.620718 C8.45249908 1.83047768 9.39666687 2.04023735 10.3694458 2.25635338 C13.47107623 2.94777497 16.56977053 3.65147158 19.66848755 4.35582542 C21.83494221 4.84246586 24.00152971 5.32851527 26.16824341 5.81400108 C30.70178379 6.8317576 35.23394717 7.85537683 39.76516724 8.88341331 C45.55979759 10.19778623 51.35718028 11.49950009 57.15559387 12.7970686 C61.62794375 13.79900941 66.09898778 14.80667701 70.56964111 15.81615829 C72.70623482 16.29808594 74.84317436 16.7784831 76.98046875 17.2572937 C79.9728382 17.92877736 82.96342035 18.60771904 85.9536438 19.28868675 C86.82868561 19.48361717 87.70372742 19.67854759 88.60528564 19.87938499 C102.2755856 23.01874399 102.2755856 23.01874399 105.29348755 26.39879417 C106.15028341 30.80517289 105.59677123 34.35011865 103.10598755 38.08629417 C98.77222317 40.93745495 93.91877977 39.77395788 89.05053711 38.79581261 C87.24944941 38.39988902 85.45014637 37.99578972 83.65237427 37.58507347 C82.66451935 37.36556023 81.67666443 37.14604698 80.65887451 36.91988182 C77.40771941 36.19519578 74.15916525 35.45954542 70.91067505 34.72301292 C68.64588222 34.21413528 66.38099841 33.7056624 64.11602783 33.19757652 C59.37570486 32.13233011 54.63667874 31.06153017 49.89846802 29.98692894 C43.8269548 28.61051024 37.75221888 27.24896227 31.67640495 25.89167118 C27.00127385 24.84538547 22.3280588 23.79074111 17.6553688 22.73361206 C15.41608401 22.22816611 13.17618337 21.72544057 10.93566513 21.22549057 C7.80537081 20.52578329 4.67786265 19.81474089 1.55081177 19.10069847 C0.62601013 18.89641731 -0.2987915 18.69213615 -1.25161743 18.48166466 C-7.20743199 17.10486615 -11.72599689 15.96331751 -15.26901245 10.64879417 C-15.87740401 6.65079253 -15.60152548 5.12678165 -13.26901245 1.77379417 C-8.97873956 -1.26514912 -5.00426473 -0.77457791 0 0 Z " fill="#182235" transform="translate(45.269012451171875,199.35120582580566)"/>
<path d="M0 0 C2 2.875 2 2.875 2.5625 5.875 C1.85378903 9.65479185 0.69256002 11.13851693 -2 13.875 C-5.15989685 15.07073975 -5.15989685 15.07073975 -8.95092773 15.88964844 C-9.64842101 16.04666103 -10.34591429 16.20367363 -11.06454372 16.36544418 C-12.58007414 16.70530555 -14.09745794 17.03698332 -15.61637497 17.3613739 C-18.02410381 17.88019392 -20.42277661 18.42971146 -22.82131958 18.98937988 C-28.13761867 20.22868917 -33.46075256 21.43667378 -38.78515625 22.640625 C-40.222888 22.96609943 -40.222888 22.96609943 -41.68966484 23.29814911 C-46.74174932 24.44154061 -51.79436336 25.58255762 -56.84741211 26.72167969 C-62.04695869 27.89437736 -67.24446676 29.07587117 -72.44159794 30.25922012 C-76.46482846 31.1735485 -80.48953822 32.08122726 -84.51467705 32.98711395 C-86.43252752 33.41997373 -88.34981173 33.85535069 -90.26649666 34.29334259 C-92.93922778 34.90348318 -95.61393022 35.50412062 -98.28930664 36.10253906 C-99.07121872 36.28326965 -99.8531308 36.46400024 -100.65873718 36.65020752 C-105.1751379 37.64825792 -109.34303949 38.18771516 -114 37.875 C-117.32635764 35.68660682 -117.90585122 34.25159512 -118.875 30.375 C-119.06043956 25.18269231 -119.06043956 25.18269231 -117 22.875 C-111.18512664 20.43690943 -105.36552787 18.88332153 -99.22265625 17.51489258 C-98.27848846 17.29987595 -97.33432068 17.08485931 -96.36154175 16.86332703 C-93.26316053 16.15950569 -90.16296361 15.46411729 -87.0625 14.76953125 C-84.89585777 14.2808259 -82.72927337 13.79186414 -80.56274414 13.30265808 C-76.03130329 12.28095988 -71.49889764 11.26367924 -66.96582031 10.24926758 C-61.1667593 8.95098704 -55.37072048 7.63973005 -49.57539368 6.32489491 C-45.1053937 5.31262095 -40.6336401 4.30827536 -36.16134644 3.30618858 C-34.02379343 2.82604019 -31.88684069 2.34321115 -29.7505188 1.85761452 C-26.76123242 1.1791721 -23.76969145 0.51171444 -20.77734375 -0.15307617 C-19.46478104 -0.45458084 -19.46478104 -0.45458084 -18.1257019 -0.76217651 C-5.1078495 -3.61806006 -5.1078495 -3.61806006 0 0 Z " fill="#182235" transform="translate(480,201.125)"/>
<path d="M0 0 C3.79183789 1.77253582 7.31328606 3.93245218 10.875 6.125 C12.9966926 7.39960882 15.11911568 8.67300231 17.2421875 9.9453125 C18.34272461 10.60950195 19.44326172 11.27369141 20.57714844 11.95800781 C24.0527272 14.0314558 27.5528625 16.05355208 31.0703125 18.0546875 C31.65175018 18.38614777 32.23318787 18.71760803 32.83224487 19.05911255 C35.64192177 20.66007602 38.45398504 22.25665921 41.26904297 23.84814453 C54.87972583 31.6345421 54.87972583 31.6345421 58 35 C58.86970118 38.25680383 58.93085578 40.75125167 58 44 C55.58305512 46.91455118 54.11170032 47.83953135 50.375 48.37890625 C45.60434149 47.84331149 42.23578224 45.76079846 38.125 43.375 C37.26366455 42.88789551 36.4023291 42.40079102 35.51489258 41.89892578 C32.66747693 40.28133569 29.83294966 38.64278111 27 37 C25.49783936 36.13375 25.49783936 36.13375 23.96533203 35.25 C17.87028228 31.73240128 11.79624423 28.18073243 5.73486328 24.60546875 C3.2363964 23.13877368 0.72828306 21.69083189 -1.78515625 20.25 C-3.14858803 19.4585926 -4.51188168 18.66694717 -5.875 17.875 C-6.48126221 17.5332373 -7.08752441 17.19147461 -7.7121582 16.83935547 C-10.87904672 14.97911796 -12.89036051 13.57629032 -14 10 C-13.92598764 5.85530765 -13.59591132 3.72231675 -10.9375 0.5 C-7.01808749 -1.50140213 -4.11603084 -1.14141672 0 0 Z " fill="#182235" transform="translate(344,284)"/>
<path d="M0 0 C2.89479637 1.73687782 3.01335881 3.05152682 3.875 6.375 C4.01831515 10.53113925 3.40378159 11.70468888 1 15 C-1.07104492 16.53881836 -1.07104492 16.53881836 -3.48046875 17.83984375 C-4.83833496 18.58802368 -4.83833496 18.58802368 -6.22363281 19.35131836 C-7.20170898 19.8747583 -8.17978516 20.39819824 -9.1875 20.9375 C-11.27050502 22.08156217 -13.3525039 23.22745776 -15.43359375 24.375 C-17.05177002 25.26251953 -17.05177002 25.26251953 -18.70263672 26.16796875 C-25.08908556 29.71631112 -31.36974949 33.44683568 -37.66479492 37.15405273 C-40.43678774 38.78066936 -43.2177042 40.39108584 -46 42 C-46.96873047 42.57508301 -47.93746094 43.15016602 -48.93554688 43.74267578 C-50.36737305 44.56807861 -50.36737305 44.56807861 -51.828125 45.41015625 C-52.67793945 45.90781494 -53.52775391 46.40547363 -54.40332031 46.91821289 C-57.48545954 48.20224438 -59.68913269 48.2917525 -63 48 C-65.875 46.5625 -65.875 46.5625 -68 44 C-68.93078354 40.75150381 -68.87603067 38.2555194 -68 35 C-63.0681375 29.75396936 -55.73848945 26.43210913 -49.5 23 C-47.46917498 21.86876065 -45.43925772 20.73589047 -43.41015625 19.6015625 C-42.36359863 19.01665039 -41.31704102 18.43173828 -40.23876953 17.82910156 C-33.74384989 14.16108272 -27.32087349 10.36854099 -20.89453125 6.58203125 C-6.68014124 -1.76456561 -6.68014124 -1.76456561 0 0 Z " fill="#182235" transform="translate(178,284)"/>
<path d="M0 0 C0.66 -0.0103125 1.32 -0.020625 2 -0.03125 C4.97217385 0.75823368 6.09656286 2.10063373 8 4.5 C8.50793457 7.6875 8.50793457 7.6875 8.51757812 11.5 C8.5245874 12.19641602 8.53159668 12.89283203 8.53881836 13.61035156 C8.55639196 15.90730932 8.54477919 18.20303021 8.53125 20.5 C8.53394513 22.09896073 8.53782773 23.69791987 8.54284668 25.296875 C8.54874082 28.64599226 8.54018192 31.99468243 8.52148438 35.34375 C8.49869435 39.63478591 8.51181796 43.92482111 8.53577423 48.21582031 C8.5502348 51.51700366 8.54562515 54.81795011 8.53526306 58.11914062 C8.53259646 59.70117308 8.53586322 61.28322711 8.54518127 62.86523438 C8.55535179 65.07740163 8.5398419 67.287953 8.51757812 69.5 C8.51280457 71.3871875 8.51280457 71.3871875 8.50793457 73.3125 C7.90831396 77.07536791 7.00648363 78.23443213 4 80.5 C0.31548282 81.67590974 -1.28254275 81.83481338 -4.8125 80.1875 C-7 78.5 -7 78.5 -8 76.5 C-8.11264384 74.24439037 -8.15939362 71.9854027 -8.17700195 69.72705078 C-8.18357315 69.03092682 -8.19014435 68.33480286 -8.19691467 67.61758423 C-8.21665198 65.31015927 -8.22831041 63.00279936 -8.23828125 60.6953125 C-8.24235678 59.90779476 -8.2464323 59.12027702 -8.25063133 58.30889511 C-8.27149273 54.14164237 -8.2857948 49.97442258 -8.29516602 45.80712891 C-8.30623794 41.50045458 -8.34064613 37.1942959 -8.38033772 32.88780403 C-8.40646576 29.57810497 -8.41485436 26.26852955 -8.41844749 22.95873642 C-8.42332244 21.37108752 -8.43496228 19.78344447 -8.45348549 18.19589615 C-8.47780005 15.97409263 -8.47692702 13.75363374 -8.4699707 11.53173828 C-8.47583694 10.26758087 -8.48170319 9.00342346 -8.48774719 7.70095825 C-7.73596875 2.76723139 -5.10585271 -0.07977895 0 0 Z " fill="#182236" transform="translate(256,87.5)"/>
<path d="M0 0 C6.24159617 5.94787399 10.19423965 11.95352379 10.6875 20.75 C10.12083683 32.66524188 3.75332977 42.38836804 -4 51 C-4.67804688 51.79664063 -5.35609375 52.59328125 -6.0546875 53.4140625 C-14.42935083 63.07713557 -23.86049384 71.60387295 -34 79.375 C-34.62277832 79.86991943 -35.24555664 80.36483887 -35.88720703 80.87475586 C-37.6875 82.2109375 -37.6875 82.2109375 -41 84 C-45.11853154 83.26849962 -47.93600922 80.68098326 -51.125 78.0625 C-51.97320312 77.37285156 -52.82140625 76.68320312 -53.6953125 75.97265625 C-55.55704338 74.37914083 -57.30525837 72.76674046 -59 71 C-58.41734375 70.99742187 -57.8346875 70.99484375 -57.234375 70.9921875 C-43.55922562 70.34713328 -34.16653797 62.34363964 -25 53 C-24.52143555 52.51724609 -24.04287109 52.03449219 -23.54980469 51.53710938 C-12.08485135 39.86114462 0.04670307 25.88246458 0.33178711 8.74951172 C0.30445303 5.82718672 0.1815259 2.91651607 0 0 Z " fill="#FB282F" transform="translate(298,216)"/>
<path d="M0 0 C1.42892578 0.75796875 1.42892578 0.75796875 2.88671875 1.53125 C4.15337004 2.18803215 5.42031265 2.8442527 6.6875 3.5 C7.31333984 3.83386719 7.93917969 4.16773438 8.58398438 4.51171875 C12.19815107 6.36610794 14.93744764 7.68811962 19 7 C21.8793822 5.71759367 21.8793822 5.71759367 24.6875 4 C29.81944444 1 29.81944444 1 32 1 C31.835 2.11375 31.67 3.2275 31.5 4.375 C31.42265625 5.10847656 31.3453125 5.84195312 31.265625 6.59765625 C31 9 31 9 30.546875 11.37109375 C30.19375273 14.27505981 30.18968735 16.16803998 31 19 C34.29562817 23.14052647 37.98351821 26.57034184 42 30 C38.68526307 31.93625258 35.790353 32.38134735 32 32.8125 C27.39316361 33.50942322 27.39316361 33.50942322 23.5625 36 C23.046875 36.99 22.53125 37.98 22 39 C21.56042969 39.84175781 21.12085938 40.68351562 20.66796875 41.55078125 C19.40241705 44.01564365 18.18625275 46.49622882 17 49 C16.34 49 15.68 49 15 49 C13.99515796 47.04414675 12.99626195 45.08523763 12 43.125 C11.443125 42.03445313 10.88625 40.94390625 10.3125 39.8203125 C9 37 9 37 9 35 C2.73 33.68 -3.54 32.36 -10 31 C-5 26 -5 26 -3.19921875 24.33203125 C0.05094118 21.06507462 1.39405039 18.79583308 1.4375 14.125 C1.32989596 12.41383329 1.18338559 10.70471108 1 9 C0.91878906 8.12859375 0.83757812 7.2571875 0.75390625 6.359375 C0.53687431 4.23580099 0.27317218 2.11708441 0 0 Z " fill="#FAD933" transform="translate(240,436)"/>
<path d="M0 0 C2.97508453 1.7312352 5.70613738 3.5198628 8.375 5.6875 C12.03526022 8.29859081 14.46239345 8.62587676 19 8 C21.368346 7.30296171 23.67482339 6.52838837 25.984375 5.65625 C28 5 28 5 31 5 C30.51614749 7.74183087 29.9240839 10.20095439 28.9375 12.8125 C27.7779746 16.75488635 26.95257069 20.00072445 28 24 C29.90119829 27.1050138 31.98964783 29.92443398 34.25 32.77734375 C36 35 36 35 36 36 C34.35451172 36.02126953 34.35451172 36.02126953 32.67578125 36.04296875 C31.22131302 36.08988708 29.76688723 36.13813438 28.3125 36.1875 C27.59126953 36.19330078 26.87003906 36.19910156 26.12695312 36.20507812 C22.08846917 36.37104322 20.42799669 36.65284713 17.1875 39.28125 C14.38094349 42.75366532 14.38094349 42.75366532 11.6875 46.3125 C11.17574219 47.00988281 10.66398437 47.70726562 10.13671875 48.42578125 C9.76160156 48.94527344 9.38648438 49.46476562 9 50 C7 49 7 49 5.95703125 45.9453125 C5.57933594 44.68460938 5.20164062 43.42390625 4.8125 42.125 C3.01470194 36.65477837 3.01470194 36.65477837 -1.25 32.8125 C-2.4875 32.544375 -3.725 32.27625 -5 32 C-6.65083552 31.4523544 -8.29668977 30.88948821 -9.9375 30.3125 C-11.29068724 29.87197995 -12.64451156 29.43338746 -14 29 C-14 28.34 -14 27.68 -14 27 C-12.25522851 25.62577362 -10.45284187 24.32413378 -8.625 23.0625 C-4.28388498 20.06493722 -4.28388498 20.06493722 -1 16 C-0.69933846 13.24582682 -0.49074701 10.57354853 -0.375 7.8125 C-0.31699219 6.68811523 -0.31699219 6.68811523 -0.2578125 5.54101562 C-0.16371784 3.69440801 -0.08077681 1.8472381 0 0 Z " fill="#FBD933" transform="translate(438,38)"/>
<path d="M0 0 C0.02578125 1.09699219 0.0515625 2.19398437 0.078125 3.32421875 C0.1344269 4.77868448 0.19177377 6.23311003 0.25 7.6875 C0.26417969 8.40873047 0.27835938 9.12996094 0.29296875 9.87304688 C0.51778356 14.79649111 1.32479335 17.43964355 5 21 C7.31921801 22.75263706 7.31921801 22.75263706 9.75 24.1875 C12.171875 25.66796875 12.171875 25.66796875 14 27 C14 27.66 14 28.32 14 29 C12.96359375 29.25652344 11.9271875 29.51304688 10.859375 29.77734375 C3.28824569 31.61356115 3.28824569 31.61356115 -2.78125 36.08984375 C-3.75165329 38.37889989 -4.40820037 40.58759457 -5 43 C-5.55876625 44.36448723 -6.14006747 45.72010384 -6.75 47.0625 C-7.1625 48.031875 -7.575 49.00125 -8 50 C-10.92129634 47.24563488 -13.39822344 44.5544617 -15.6875 41.25 C-17.62145364 37.99364953 -17.62145364 37.99364953 -20 37 C-22.71262116 36.7677354 -25.40773126 36.58063765 -28.125 36.4375 C-29.25615234 36.37272461 -29.25615234 36.37272461 -30.41015625 36.30664062 C-32.27321888 36.2005168 -34.13658524 36.09974999 -36 36 C-32.38709677 29.41935484 -32.38709677 29.41935484 -29.75 26.5625 C-27.36192911 23.06568192 -27.35220108 20.05060471 -28 16 C-28.85717879 13.25702786 -29.91510164 10.6670418 -31 8 C-31 7.01 -31 6.02 -31 5 C-29.948125 5.32484375 -29.948125 5.32484375 -28.875 5.65625 C-20.53159423 8.45069019 -20.53159423 8.45069019 -12 8 C-8.90598267 6.08862186 -6.07267304 4.00806007 -3.22265625 1.75 C-1 0 -1 0 0 0 Z " fill="#FBDA33" transform="translate(74,38)"/>
<path d="M0 0 C2.15600586 1.3515625 2.15600586 1.3515625 4 4 C4.62374807 7.7233486 4.58402955 11.41937017 4.56640625 15.1875 C4.57570412 16.82948364 4.57570412 16.82948364 4.58518982 18.50463867 C4.59229034 20.81786204 4.58911001 23.1311365 4.57641602 25.44433594 C4.56254977 28.98728247 4.59662155 32.52758906 4.63476562 36.0703125 C4.63571679 38.31770898 4.63385814 40.56510877 4.62890625 42.8125 C4.64216446 43.87299561 4.65542267 44.93349121 4.66908264 46.02612305 C4.57620686 53.34633151 4.57620686 53.34633151 1.64819336 56.66796875 C-1.61064396 58.30715161 -3.3969143 58.60051428 -7 58 C-9.65039062 56.66796875 -9.65039062 56.66796875 -12 54 C-12.74792192 50.27681506 -12.65228008 46.59840362 -12.59375 42.8125 C-12.59379028 41.71784424 -12.59383057 40.62318848 -12.59387207 39.49536133 C-12.58851303 37.18207047 -12.57091417 34.86878032 -12.54199219 32.55566406 C-12.50015479 29.0131064 -12.50092188 25.47245041 -12.5078125 21.9296875 C-12.49731957 19.68227844 -12.48438092 17.4348792 -12.46875 15.1875 C-12.46854858 14.12700439 -12.46834717 13.06650879 -12.46813965 11.97387695 C-12.45222778 10.98605225 -12.43631592 9.99822754 -12.41992188 8.98046875 C-12.41150269 8.11317139 -12.4030835 7.24587402 -12.39440918 6.35229492 C-11.91203469 3.47536627 -10.99647874 2.10459872 -9 0 C-5.41563853 -1.19478716 -3.63093708 -0.96330984 0 0 Z " fill="#182335" transform="translate(260,344)"/>
<path d="M0 0 C4.32380898 2.26038604 6.8950928 4.9301192 8.92578125 9.31640625 C9.77578198 15.24709318 9.4259839 20.29944912 5.92578125 25.31640625 C1.92844792 29.23912269 -1.18643923 31.46660654 -6.82421875 31.62890625 C-11.70646385 31.57262677 -14.33295121 30.6122848 -18.07421875 27.31640625 C-22.47314979 22.32302507 -23.43098212 19.40625398 -23.35546875 12.85546875 C-22.8043819 7.88037912 -20.06724174 5.19121222 -16.44921875 2.00390625 C-11.51145046 -1.50450806 -5.7975938 -1.91069475 0 0 Z " fill="#32C1FB" transform="translate(455.07421875,339.68359375)"/>
<path d="M0 0 C5.00230198 2.45567552 8.49851535 5.9970307 11 11 C11.54360446 15.95482094 11.56437074 19.87125852 9.3125 24.375 C4.45305518 29.89112655 1.30858296 31.73317879 -5.875 32.3125 C-10.23455451 32.24767391 -12.6384369 30.82676897 -16 28 C-20.4869415 23.02798375 -21.41459266 19.12442446 -21.34765625 12.57421875 C-20.64987135 7.40747438 -17.59251075 4.4519951 -13.875 1.0625 C-9.27289311 -0.63827863 -4.83928988 -0.64049425 0 0 Z " fill="#32C1FB" transform="translate(69,339)"/>
<path d="M0 0 C5.67476113 1.96434039 9.31400331 5.62800662 12 11 C12.81093031 17.40767881 11.94929905 22.79303726 8 28 C3.06450315 32.02897702 -1.0917705 32.65214157 -7.4140625 32.375 C-11.25243922 31.81837739 -13.226226 30.70612097 -16 28 C-19.34843297 23.34998179 -20.67220633 18.82506465 -20.38671875 13.10546875 C-19.35915924 7.51097809 -15.43910916 4.15410387 -11 1 C-7.53909109 -0.73045446 -3.79089112 -0.34579074 0 0 Z " fill="#32C1FC" transform="translate(260,16)"/>
<path d="M0 0 C2.5 1.4375 2.5 1.4375 4 4 C4.48207192 7.06974532 4.62382717 9.94830491 4 13 C1.95153273 15.68063522 1.02090726 15.9945796 -2.375 16.875 C-6.39679948 17.01368274 -7.85653818 16.40382374 -11 14 C-12.56941198 12.43058802 -12.2449847 10.85865006 -12.3125 8.6875 C-12.2571827 5.52938534 -12.12674203 4.21651763 -10.5 1.4375 C-6.9497563 -0.60389013 -3.99714672 -0.77813307 0 0 Z " fill="#182235" transform="translate(508,192)"/>
<path d="M0 0 C2.5 1.4375 2.5 1.4375 4 4 C4.48207192 7.06974532 4.62382717 9.94830491 4 13 C1.95153273 15.68063522 1.02090726 15.9945796 -2.375 16.875 C-6.39679948 17.01368274 -7.85653818 16.40382374 -11 14 C-12.56941198 12.43058802 -12.2449847 10.85865006 -12.3125 8.6875 C-12.2571827 5.52938534 -12.12674203 4.21651763 -10.5 1.4375 C-6.9497563 -0.60389013 -3.99714672 -0.77813307 0 0 Z " fill="#182235" transform="translate(12,192)"/>
<path d="M0 0 C2.5 1.5 2.5 1.5 4 4 C4.791013 8.02098277 4.62153384 10.96411027 2.5 14.5 C-1.04101433 16.6246086 -3.97168467 16.66173558 -8 16 C-10.4375 14.9375 -10.4375 14.9375 -12 13 C-13.10373378 9.02655839 -13.41543583 6.91000228 -11.6875 3.125 C-8.57721191 -0.79165908 -4.7089521 -0.64212983 0 0 Z " fill="#182235" transform="translate(99,496)"/>
<path d="M0 0 C3.06458538 2.04305692 3.82153128 3.44079802 4.9375 6.9375 C5.01221891 10.59872681 4.21363944 12.1304674 2 15 C-1.20841035 16.60420518 -4.5193987 16.47462745 -8 16 C-10.5 14.5 -10.5 14.5 -12 12 C-12.791013 7.97901723 -12.62153384 5.03588973 -10.5 1.5 C-6.97359191 -0.61584485 -4.01178761 -0.80730018 0 0 Z " fill="#182235" transform="translate(421,496)"/>
</svg>
