<?xml version="1.0" encoding="UTF-8"?>
<svg version="1.1" xmlns="http://www.w3.org/2000/svg" width="512" height="512">
<path d="M0 0 C1.73828125 1.3828125 1.73828125 1.3828125 3.3125 3.125 C5.6821192 5.63699975 8.06738359 7.99952657 10.6875 10.25 C14.18714213 13.26716719 17.60257089 16.36879723 21 19.5 C24.30013347 22.53904534 27.6094976 25.56156459 31 28.5 C34.9308925 31.9067735 38.75196573 35.43002785 42.578125 38.953125 C45.35494057 41.50555143 48.14980717 44.02983288 51 46.5 C54.39050844 49.43844065 57.69966982 52.46116302 61 55.5 C64.95933029 59.14484424 68.95127964 62.74260299 73.01953125 66.265625 C75.31133155 68.27264538 77.55996752 70.32402851 79.8125 72.375 C83.16801725 75.40973184 86.58838182 78.3041891 90.125 81.125 C106.3692814 94.29913512 122.24946038 109.40231481 135 126 C135.67579102 126.86117432 135.67579102 126.86117432 136.36523438 127.73974609 C145.93216775 139.9410987 154.14689718 152.77511432 161.49110413 166.42741394 C173.44771178 188.48662537 187.96882533 205.86512798 205.9284668 223.11767578 C210.78945387 227.78765141 215.63099806 232.47713976 220.44140625 237.19921875 C220.95537586 237.70326107 221.46934547 238.20730339 221.99888992 238.72661972 C230.49626925 247.1017783 237.81514273 255.98638855 244.50363159 265.87564087 C246.75559412 269.07269924 249.21333299 272.10033884 251.67652893 275.13627625 C253 277 253 277 253 279 C253.58990723 279.27529541 254.17981445 279.55059082 254.78759766 279.83422852 C256.9018124 280.94826244 258.56316342 282.13192184 260.3984375 283.65234375 C261.03523438 284.17570312 261.67203125 284.6990625 262.328125 285.23828125 C263.34132813 286.07939453 263.34132813 286.07939453 264.375 286.9375 C265.81953475 288.12464492 267.26486093 289.31082742 268.7109375 290.49609375 C269.4337793 291.08890137 270.15662109 291.68170898 270.90136719 292.29248047 C273.9033487 294.73499544 276.94743381 297.12122227 280 299.5 C285.74057422 303.98138854 291.3969472 308.5595776 297.0390625 313.1640625 C301.32452248 316.65530596 305.6434981 320.09792168 310 323.5 C315.16350224 327.53635291 320.28373998 331.62284985 325.375 335.75 C326.01695312 336.26884766 326.65890625 336.78769531 327.3203125 337.32226562 C334.73103869 343.34730851 341.8110763 349.68982911 348.75 356.25 C354.48814337 361.65236904 360.25935409 367.01259914 366.078125 372.328125 C369.20643985 375.18877655 372.3236772 378.0610975 375.4375 380.9375 C375.97785889 381.43660889 376.51821777 381.93571777 377.07495117 382.44995117 C378.16964892 383.46120612 379.26429396 384.47251812 380.35888672 385.48388672 C383.07177586 387.99014104 385.78594859 390.49500446 388.5 393 C389.58333957 393.99999324 390.66667291 394.99999324 391.75 396 C392.554375 396.7425 392.554375 396.7425 393.375 397.5 C395 399 396.625 400.5 398.25 402 C398.7867334 402.49532227 399.3234668 402.99064453 399.87646484 403.50097656 C400.95541516 404.49718031 402.03386912 405.49392193 403.11181641 406.49121094 C405.88330269 409.05401863 408.66382535 411.6057912 411.4609375 414.140625 C423.35888444 424.94435258 433.51778923 435.67607537 437 452 C437 455.63 437 459.26 437 463 C421.16 463 405.32 463 389 463 C389 446 389 446 392 441.4375 C393.485 440.2309375 393.485 440.2309375 395 439 C394.29093506 438.59273682 393.58187012 438.18547363 392.85131836 437.76586914 C369.30151815 424.23165482 369.30151815 424.23165482 358.265625 417.5546875 C352.18943124 413.89732163 346.05818107 410.33220503 339.9375 406.75 C330.40400854 401.16975208 320.87969062 395.57495766 311.37524414 389.9453125 C306.31908968 386.95316716 301.25424199 383.9764509 296.1796875 381.015625 C282.94271928 373.28933657 269.75877182 365.48943812 256.67919922 357.49902344 C254.55115976 356.19931048 252.41177016 354.91803798 250.26264954 353.65348816 C247.02404474 351.69994063 243.98364145 349.55495445 240.92597961 347.33009338 C224.6098081 335.92813313 210.49096825 333.84277663 191.00279498 334.27716184 C187.25800706 334.34413929 183.51355577 334.32356145 179.76832581 334.3134613 C172.72013529 334.30715113 165.67491708 334.3761564 158.62749106 334.4743318 C150.58601303 334.58253037 142.54498045 334.60356949 134.5028733 334.6183883 C118.00057006 334.65069204 101.50100732 334.78887184 85 335 C85.00184359 335.64752668 85.00368717 336.29505337 85.00558662 336.96220207 C85.04971298 352.70194491 85.08283085 368.4416663 85.10362434 384.18145561 C85.11394662 391.79303073 85.12802505 399.40456462 85.15087891 407.01611328 C85.17078375 413.64863268 85.18370951 420.28112222 85.18817699 426.91367066 C85.19078932 430.42710256 85.196949 433.94044903 85.21146011 437.45385361 C85.22751002 441.37143329 85.22798156 445.28892861 85.22705078 449.20654297 C85.23424133 450.37754547 85.24143188 451.54854797 85.24884033 452.7550354 C85.246091 453.81796814 85.24334167 454.88090088 85.24050903 455.9760437 C85.24235262 456.90336744 85.24419621 457.83069118 85.24609566 458.78611565 C85 461 85 461 83 463 C79.75 463.5 79.75 463.5 76 463 C74.27613615 461.53013541 72.93181772 460.01163199 71.5546875 458.21484375 C70.020838 456.72338085 70.020838 456.72338085 67.68644714 457.26651001 C64.92556383 458.02032357 62.9203074 459.07365096 60.4621582 460.52099609 C54.50111476 463.5788692 49.21146254 463.72528919 42.60546875 463.6640625 C40.87989494 463.67123795 40.87989494 463.67123795 39.11946106 463.67855835 C36.70503357 463.68194103 34.29055925 463.67285393 31.8762207 463.65185547 C28.18012126 463.62494628 24.48702477 463.65172526 20.79101562 463.68359375 C18.43749331 463.68029177 16.08397286 463.67388993 13.73046875 463.6640625 C12.62833542 463.67418365 11.52620209 463.68430481 10.39067078 463.69473267 C2.7701674 463.57794935 2.7701674 463.57794935 -1.19384766 460.60327148 C-3.06662058 457.90397739 -3.65827701 456.67701651 -3.5625 453.4375 C-3.56443359 452.32181641 -3.56443359 452.32181641 -3.56640625 451.18359375 C-2.76289253 448.08590981 -1.51491624 446.96695075 1 445 C4.51437124 443.57435884 8.06982182 442.47810672 11.6875 441.34375 C15.08187416 439.9667869 16.77086738 438.87215164 19 436 C20.02898294 432.87770702 20.12687599 429.98667863 20.13130188 426.71343994 C20.13531006 425.64249084 20.13931824 424.57154175 20.14344788 423.46813965 C20.1426548 421.71322205 20.1426548 421.71322205 20.1418457 419.92285156 C20.14532013 418.68666077 20.14879456 417.45046997 20.15237427 416.17681885 C20.15973004 413.49003831 20.16540388 410.8033072 20.16866493 408.11652374 C20.1745877 403.8629401 20.19114071 399.60943957 20.21000671 395.355896 C20.21634386 393.89796834 20.22266949 392.44004064 20.22898388 390.98211288 C20.23214969 390.25203506 20.2353155 389.52195724 20.23857725 388.76975584 C20.280602 378.87028165 20.313618 368.97084652 20.32592773 359.07128906 C20.33432153 352.38950446 20.35686044 345.70792623 20.3952834 339.02624488 C20.41499931 335.49363255 20.42746363 331.96132838 20.42244911 328.42865753 C20.41691759 324.48381211 20.44226542 320.53948532 20.4699707 316.59472656 C20.46006859 314.85195435 20.46006859 314.85195435 20.44996643 313.07397461 C20.54018877 305.242413 21.65924823 299.81230917 26.96484375 293.7578125 C31.96632821 289.61796992 35.4947572 286.90391546 42.15625 286.96484375 C44.05890625 286.98224609 44.05890625 286.98224609 46 287 C45.96970703 286.39865234 45.93941406 285.79730469 45.90820312 285.17773438 C45.33141378 273.43785269 44.86335835 261.69069942 44.6875 249.9375 C44.65785156 248.94621094 44.62820312 247.95492187 44.59765625 246.93359375 C44.54834219 240.95015491 45.3486305 236.85954804 49 232 C49.56098389 231.23228271 50.12196777 230.46456543 50.69995117 229.67358398 C52.68550252 227.00714161 54.71192026 224.37647637 56.75 221.75 C58.18318714 219.88740744 59.61548783 218.02413243 61.046875 216.16015625 C61.72943359 215.27215332 62.41199219 214.38415039 63.11523438 213.46923828 C66.49535713 209.0409272 69.76902557 204.5382437 73 200 C72.2265625 199.6596875 72.2265625 199.6596875 71.4375 199.3125 C69 198 69 198 65.96484375 195.44140625 C61.21572399 191.99794718 56.25585084 192.15005894 50.5625 191.9375 C39.17112098 191.25020859 28.11029875 190.17710371 17.78515625 184.92529297 C17.07367432 184.5648288 16.36219238 184.20436462 15.62915039 183.83297729 C15.09153076 183.55809479 14.55391113 183.28321228 14 183 C13.99635437 183.56661346 13.99270874 184.13322693 13.98895264 184.7170105 C13.94689211 190.65549614 13.87738441 196.59322576 13.79248047 202.53125 C13.76438859 204.74243581 13.74311592 206.95371984 13.72900391 209.16503906 C13.70741087 212.35792909 13.66067651 215.5496527 13.609375 218.7421875 C13.60753204 220.20686966 13.60753204 220.20686966 13.60565186 221.70114136 C13.43242606 229.96086226 11.46765922 238.05360605 5.75 244.3125 C5.22921875 244.90675781 4.7084375 245.50101563 4.171875 246.11328125 C-1.66063293 251.18001026 -8.00019789 254.01642502 -15.3125 256.3125 C-16.10978516 256.57611328 -16.90707031 256.83972656 -17.72851562 257.11132812 C-23.56132305 259 -23.56132305 259 -27 259 C-26.05600303 255.95016365 -25.19389622 253.29943274 -23.45117188 250.6081543 C-21.23987904 245.11005592 -21.57926956 239.76618253 -21.59375 233.89453125 C-21.58291382 232.61954269 -21.57207764 231.34455414 -21.56091309 230.03092957 C-21.52667932 225.95806083 -21.51046574 221.88547911 -21.5 217.8125 C-21.486193 212.46458776 -21.45153099 207.11729643 -21.40625 201.76953125 C-21.41078186 199.94709648 -21.41078186 199.94709648 -21.41540527 198.08784485 C-21.3182688 186.9339366 -19.85911018 177.33211218 -12 169 C-9.20610593 166.33415941 -6.47038805 163.73519403 -3 162 C-3.02094727 161.44650879 -3.04189453 160.89301758 -3.06347656 160.32275391 C-3.56600908 145.04004045 -2.70139906 134.67981269 8 123 C16.13312536 114.65459078 21.65402738 110.98282563 33.3125 110.5 C38.49336448 110.57160129 41.96309208 111.14292482 46.5 113.625 C53.28238955 117.26134138 59.78959566 115.60820293 67 114 C67.99 113.67 68.98 113.34 70 113 C63.10697147 105.82425617 56.17836243 98.68480803 49.20692158 91.58517551 C45.9679151 88.28452593 42.74060026 84.97417787 39.54077148 81.63549805 C23.39525156 64.8084704 7.84330808 51.50625312 -12.8691864 40.67904663 C-27.20010768 32.99341338 -27.20010768 32.99341338 -28.84765625 27.90625 C-29.08520508 25.7434082 -29.08520508 25.7434082 -29.0625 23.5 C-29.06596436 22.72551514 -29.06942871 21.95103027 -29.07299805 21.15307617 C-28.51163316 15.6709535 -26.39885454 12.98111802 -22.234375 9.45703125 C-6.49068945 -2.12575646 -6.49068945 -2.12575646 0 0 Z M71 114 C70.51536231 117.66258976 70.71613647 120.51920032 72 124 C74.45935801 126.74047999 77.35370356 128.92852053 80.33862305 131.06762695 C83.30321136 133.24952107 84.85766061 134.56029266 86.0078125 138.11328125 C85.996837 142.16872765 84.23811796 144.77488592 82 148 C81.54367188 148.66 81.08734375 149.32 80.6171875 150 C79.43117258 151.68075257 78.21794607 153.34224007 77 155 C80.89953388 159.12581244 85.09985419 162.47967098 89.6875 165.8125 C90.36361328 166.31458984 91.03972656 166.81667969 91.73632812 167.33398438 C95.02644469 170.04546401 95.02644469 170.04546401 99 171 C101.31531957 168.71032545 101.31531957 168.71032545 103.6875 165.8125 C104.51636719 164.84957031 105.34523437 163.88664062 106.19921875 162.89453125 C108.25859268 160.23677533 108.25859268 160.23677533 107.77905273 157.68701172 C104.02839411 144.75070687 95.01181681 136.23510547 85.625 127.1875 C84.31506784 125.89914587 83.00646407 124.60943966 81.69921875 123.31835938 C76.77345155 117.54962079 76.77345155 117.54962079 71 114 Z M133.625 249.4375 C123.17636696 253.14420303 112.95895084 254.60195131 102.48828125 249.86328125 C99.62755026 248.63535897 99.62755026 248.63535897 95 250 C90.05 252.475 90.05 252.475 85 255 C85 265.56 85 276.12 85 287 C106.12 287 127.24 287 149 287 C149 273.8 149 260.6 149 247 C142.30093148 247 139.50114578 247.22611465 133.625 249.4375 Z " fill="#FDBF93" transform="translate(51,25)"/>
<path d="M0 0 C1.82763672 1.91430664 1.82763672 1.91430664 3.6796875 4.41015625 C4.70255859 5.77237305 4.70255859 5.77237305 5.74609375 7.16210938 C6.79990234 8.59780273 6.79990234 8.59780273 7.875 10.0625 C8.56980469 10.99255859 9.26460937 11.92261719 9.98046875 12.88085938 C11.34908489 14.71470191 12.71217259 16.55268509 14.06933594 18.39501953 C16.32821987 21.44285609 18.64149387 24.44675563 20.97314453 27.43920898 C22 29 22 29 22 31 C22.58990723 31.27529541 23.17981445 31.55059082 23.78759766 31.83422852 C25.9018124 32.94826244 27.56316342 34.13192184 29.3984375 35.65234375 C30.03523437 36.17570312 30.67203125 36.6990625 31.328125 37.23828125 C32.34132813 38.07939453 32.34132813 38.07939453 33.375 38.9375 C34.81953475 40.12464492 36.26486093 41.31082742 37.7109375 42.49609375 C38.4337793 43.08890137 39.15662109 43.68170898 39.90136719 44.29248047 C42.9033487 46.73499544 45.94743381 49.12122227 49 51.5 C54.74057422 55.98138854 60.3969472 60.5595776 66.0390625 65.1640625 C70.32452248 68.65530596 74.6434981 72.09792168 79 75.5 C84.16350224 79.53635291 89.28373998 83.62284985 94.375 87.75 C95.01695312 88.26884766 95.65890625 88.78769531 96.3203125 89.32226562 C103.73103869 95.34730851 110.8110763 101.68982911 117.75 108.25 C123.48814337 113.65236904 129.25935409 119.01259914 135.078125 124.328125 C138.20643985 127.18877655 141.3236772 130.0610975 144.4375 132.9375 C144.97785889 133.43660889 145.51821777 133.93571777 146.07495117 134.44995117 C147.16964892 135.46120612 148.26429396 136.47251812 149.35888672 137.48388672 C152.07177586 139.99014104 154.78594859 142.49500446 157.5 145 C158.58333957 145.99999324 159.66667291 146.99999324 160.75 148 C161.554375 148.7425 161.554375 148.7425 162.375 149.5 C164 151 165.625 152.5 167.25 154 C168.0551001 154.7429834 168.0551001 154.7429834 168.87646484 155.50097656 C169.95541516 156.49718031 171.03386912 157.49392193 172.11181641 158.49121094 C174.88330269 161.05401863 177.66382535 163.6057912 180.4609375 166.140625 C192.35888444 176.94435258 202.51778923 187.67607537 206 204 C206 207.63 206 211.26 206 215 C190.16 215 174.32 215 158 215 C158 198 158 198 161 193.4375 C162.485 192.2309375 162.485 192.2309375 164 191 C163.29093506 190.59273682 162.58187012 190.18547363 161.85131836 189.76586914 C138.30151815 176.23165482 138.30151815 176.23165482 127.265625 169.5546875 C121.18943124 165.89732163 115.05818107 162.33220503 108.9375 158.75 C99.40400854 153.16975208 89.87969062 147.57495766 80.37524414 141.9453125 C75.31908968 138.95316716 70.25424199 135.9764509 65.1796875 133.015625 C51.94271928 125.28933657 38.75877182 117.48943812 25.67919922 109.49902344 C23.55115976 108.19931048 21.41177016 106.91803798 19.26264954 105.65348816 C16.02404474 103.69994063 12.98364145 101.55495445 9.92597961 99.33009338 C-6.3901919 87.92813313 -20.50903175 85.84277663 -39.99720502 86.27716184 C-43.74199294 86.34413929 -47.48644423 86.32356145 -51.23167419 86.3134613 C-58.27986471 86.30715113 -65.32508292 86.3761564 -72.37250894 86.4743318 C-80.41398697 86.58253037 -88.45501955 86.60356949 -96.4971267 86.6183883 C-112.9997592 86.65069268 -129.49841432 86.80035851 -146 87 C-146 71.16 -146 55.32 -146 39 C-124.88 39 -103.76 39 -82 39 C-82 33.72 -82 28.44 -82 23 C-76.31047382 20.79823131 -70.60170571 18.9066715 -64.75 17.1875 C-62.97393613 16.66023104 -61.1978951 16.13288512 -59.421875 15.60546875 C-58.52146484 15.33911621 -57.62105469 15.07276367 -56.69335938 14.79833984 C-52.45893818 13.54321318 -48.2296338 12.27114661 -44 11 C-42.3463811 10.50381646 -40.69273515 10.0077231 -39.0390625 9.51171875 C-38.21567383 9.26470215 -37.39228516 9.01768555 -36.54394531 8.76318359 C-35.70444336 8.51133301 -34.86494141 8.25948242 -34 8 C-32.68273926 7.60482178 -32.68273926 7.60482178 -31.33886719 7.20166016 C-30.45102539 6.93530762 -29.56318359 6.66895508 -28.6484375 6.39453125 C-27.76542969 6.12962891 -26.88242188 5.86472656 -25.97265625 5.59179688 C-18.6484375 3.39453125 -18.6484375 3.39453125 -16.36230469 2.71728516 C-14.67947749 2.2063151 -13.00360847 1.67218682 -11.33300781 1.12255859 C-10.45225586 0.83848145 -9.57150391 0.5544043 -8.6640625 0.26171875 C-7.46837646 -0.13527222 -7.46837646 -0.13527222 -6.24853516 -0.5402832 C-3.65396719 -1.07074699 -2.42408777 -1.06855254 0 0 Z " fill="#B53F91" transform="translate(282,273)"/>
<path d="M0 0 C7.67222537 4.16892611 16.51090976 1.71545302 24.75 0.375 C24.7907666 1.05030762 24.8315332 1.72561523 24.87353516 2.42138672 C25.23094578 6.9439703 25.97358895 9.59369046 29.2265625 12.8671875 C31.15683174 14.37982593 33.12122637 15.85018463 35.12109375 17.26953125 C37.91857276 19.5100085 39.37213737 21.07109283 40.75 24.375 C40.64949607 29.42699778 38.71278481 32.31232771 35.6875 36.25 C34.58728516 37.70019531 34.58728516 37.70019531 33.46484375 39.1796875 C32.89894531 39.90414062 32.33304687 40.62859375 31.75 41.375 C35.249677 45.15285645 39.22152088 48.05878665 43.375 51.0625 C44.055625 51.56072266 44.73625 52.05894531 45.4375 52.57226562 C48.96453172 55.18225125 48.96453172 55.18225125 52.75 57.375 C53.00523437 56.80265625 53.26046875 56.2303125 53.5234375 55.640625 C54.88087159 53.13326267 56.46974104 51.2419544 58.375 49.125 C59.00664062 48.41859375 59.63828125 47.7121875 60.2890625 46.984375 C61.01222656 46.18773437 61.01222656 46.18773437 61.75 45.375 C64.19226673 48.34758751 65.58782665 51.13172532 66.875 54.75 C67.37386719 56.12285156 67.37386719 56.12285156 67.8828125 57.5234375 C70.82972778 67.21374451 71.62995772 79.20554208 66.75 88.375 C62.71022179 94.50582873 57.95268139 98.61531608 50.75 100.375 C40.25670164 101.78937269 31.50309774 99.2103985 22.75 93.375 C23.95381448 90.88138429 25.20428722 88.69356917 26.75 86.375 C26.234375 86.148125 25.71875 85.92125 25.1875 85.6875 C22.75 84.375 22.75 84.375 19.8125 81.859375 C15.00361622 78.40375123 10.06478668 78.52725929 4.3125 78.3125 C-7.07887902 77.62520859 -18.13970125 76.55210371 -28.46484375 71.30029297 C-29.17632568 70.9398288 -29.88780762 70.57936462 -30.62084961 70.20797729 C-31.42727905 69.79565353 -31.42727905 69.79565353 -32.25 69.375 C-32.25364563 69.94161346 -32.25729126 70.50822693 -32.26104736 71.0920105 C-32.30310789 77.03049614 -32.37261559 82.96822576 -32.45751953 88.90625 C-32.48561141 91.11743581 -32.50688408 93.32871984 -32.52099609 95.54003906 C-32.54258913 98.73292909 -32.58932349 101.9246527 -32.640625 105.1171875 C-32.64246796 106.58186966 -32.64246796 106.58186966 -32.64434814 108.07614136 C-32.81757394 116.33586226 -34.78234078 124.42860605 -40.5 130.6875 C-41.02078125 131.28175781 -41.5415625 131.87601563 -42.078125 132.48828125 C-47.91063293 137.55501026 -54.25019789 140.39142502 -61.5625 142.6875 C-62.35978516 142.95111328 -63.15707031 143.21472656 -63.97851562 143.48632812 C-69.81132305 145.375 -69.81132305 145.375 -73.25 145.375 C-72.30600303 142.32516365 -71.44389622 139.67443274 -69.70117188 136.9831543 C-67.48987904 131.48505592 -67.82926956 126.14118253 -67.84375 120.26953125 C-67.83291382 118.99454269 -67.82207764 117.71955414 -67.81091309 116.40592957 C-67.77667932 112.33306083 -67.76046574 108.26047911 -67.75 104.1875 C-67.736193 98.83958776 -67.70153099 93.49229643 -67.65625 88.14453125 C-67.65927124 86.92957474 -67.66229248 85.71461823 -67.66540527 84.46284485 C-67.5682688 73.3089366 -66.10911018 63.70711218 -58.25 55.375 C-55.45610593 52.70915941 -52.72038805 50.11019403 -49.25 48.375 C-49.27094727 47.82150879 -49.29189453 47.26801758 -49.31347656 46.69775391 C-49.81600908 31.41504045 -48.95139906 21.05481269 -38.25 9.375 C-27.96289048 -1.18061482 -14.47181085 -8.26315565 0 0 Z " fill="#FDB684" transform="translate(97.25,138.625)"/>
<path d="M0 0 C1.73828125 1.3828125 1.73828125 1.3828125 3.3125 3.125 C5.6821192 5.63699975 8.06738359 7.99952657 10.6875 10.25 C14.18714213 13.26716719 17.60257089 16.36879723 21 19.5 C24.30013347 22.53904534 27.6094976 25.56156459 31 28.5 C34.9308925 31.9067735 38.75196573 35.43002785 42.578125 38.953125 C45.35494057 41.50555143 48.14980717 44.02983288 51 46.5 C54.39050844 49.43844065 57.69966982 52.46116302 61 55.5 C64.95933029 59.14484424 68.95127964 62.74260299 73.01953125 66.265625 C75.31133155 68.27264538 77.55996752 70.32402851 79.8125 72.375 C83.16801725 75.40973184 86.58838182 78.3041891 90.125 81.125 C106.3692814 94.29913512 122.24946038 109.40231481 135 126 C135.67579102 126.86117432 135.67579102 126.86117432 136.36523438 127.73974609 C144.42105624 138.01387672 151.46125022 148.70413343 158 160 C158.38655762 160.66322266 158.77311523 161.32644531 159.17138672 162.00976562 C163.62260424 169.70555715 163.62260424 169.70555715 165 173 C164.67 173.99 164.34 174.98 164 176 C141.83870968 176.41935484 141.83870968 176.41935484 134 174 C133.11441406 173.74347656 132.22882813 173.48695313 131.31640625 173.22265625 C124.31113992 170.95881845 118.78560242 167.502107 113 163 C112.20297668 162.45811035 111.40595337 161.9162207 110.58477783 161.35791016 C107.96107333 158.96448995 106.75564159 156.82745977 105.31294632 153.61624146 C99.56939196 140.8878083 90.09635006 131.85860203 80.328125 122.125 C78.48146114 120.26273293 76.63567404 118.39959609 74.79071045 116.53564453 C70.93239209 112.64469084 67.05642132 108.77197404 63.17089844 104.90820312 C59.23468728 100.99334435 55.32416253 97.05488808 51.43652344 93.09179688 C22.15048557 62.89513822 22.15048557 62.89513822 -13.09376526 40.46252441 C-25.82701887 34.05468199 -25.82701887 34.05468199 -28.21142578 29.87797546 C-28.9302276 27.65035525 -29.08617115 25.83886276 -29.0625 23.5 C-29.06596436 22.72551514 -29.06942871 21.95103027 -29.07299805 21.15307617 C-28.51163316 15.6709535 -26.39885454 12.98111802 -22.234375 9.45703125 C-6.49068945 -2.12575646 -6.49068945 -2.12575646 0 0 Z " fill="#FDB684" transform="translate(51,25)"/>
<path d="M0 0 C0.46148437 0.36351562 0.92296875 0.72703125 1.3984375 1.1015625 C11.48516149 8.87591498 21.90074062 15.56570052 35 16 C36.6707503 15.77673006 38.33655684 15.51403508 39.99609375 15.21875 C45.89874637 14.31121952 51.30195001 13.92929204 57 16 C60.33057952 19.23038295 62.42383535 23.05248593 64.71875 27.05859375 C66.14573267 29.37633178 67.61738744 31.66244636 69.10913086 33.93896484 C69.68663291 34.82031963 69.68663291 34.82031963 70.27580166 35.71947956 C74.71659431 42.32050277 80.09245441 47.91333785 85.72265625 53.50390625 C86.22575758 54.00451443 86.72885891 54.5051226 87.24720573 55.02090073 C90.30535985 58.05161129 93.39322383 61.05049293 96.4911499 64.04046631 C99.16903957 66.63431112 101.82247468 69.25296077 104.47851562 71.86914062 C109.62971236 76.93628509 114.80568132 81.97702667 120 87 C116.28450169 89.98586873 112.68896239 91.10105825 108.125 92.25 C101.0094865 94.12835513 93.99952504 96.22792855 87 98.5 C78.83472112 101.13789324 70.63921055 103.55185595 62.359375 105.80078125 C56.95269592 107.27298208 51.58389834 108.87144997 46.21557617 110.47705078 C41.10035973 112 41.10035973 112 40 112 C40 104.08 40 96.16 40 88 C31.1387793 89.52046728 31.1387793 89.52046728 22.9375 92.0625 C12.78806772 95.55463714 2.99769635 96.06884743 -7.01953125 91.67578125 C-19.54915424 84.63094735 -26.22891034 72.38020118 -33.4375 60.5 C-33.9826123 59.60240967 -34.52772461 58.70481934 -35.08935547 57.7800293 C-35.5948291 56.93480713 -36.10030273 56.08958496 -36.62109375 55.21875 C-37.0792749 54.45498047 -37.53745605 53.69121094 -38.00952148 52.90429688 C-39 51 -39 51 -39 49 C-35.71007678 50.06922505 -32.59011512 51.18696503 -29.4375 52.625 C-22.40782791 55.25102693 -14.12428516 55.19203275 -7.125 52.5 C-1.04095143 49.31791935 2.9594744 44.66917437 5.4375 38.3125 C7.58066065 26.1202972 6.1513252 12.83804917 0 2 C0 1.34 0 0.68 0 0 Z " fill="#C378CA" transform="translate(160,184)"/>
<path d="M0 0 C2.16991838 4.19149877 4.32393355 8.39064556 6.46362305 12.59765625 C7.19368091 14.02760296 7.92803274 15.45536585 8.66674805 16.88085938 C9.72801654 18.93059919 10.77358124 20.98770353 11.81640625 23.046875 C12.14967422 23.68244324 12.4829422 24.31801147 12.8263092 24.97283936 C15.05092641 29.41871754 15.05092641 29.41871754 14.79663086 32.32128906 C14 34 14 34 12.4375 35.8125 C10.31069323 39.04894508 10.46819534 41.21089181 11 45 C12.97537485 47.90133181 14.38294446 49.68702151 17.9375 50.375 C22.07731371 50.5004489 25.21723399 49.72926446 29 48 C29.99 48 30.98 48 32 48 C32.59167969 49.0621875 33.18335937 50.124375 33.79296875 51.21875 C34.59065083 52.64611008 35.38886156 54.0731748 36.1875 55.5 C36.59734131 56.23234863 37.00718262 56.96469727 37.42944336 57.71923828 C39.55499413 61.4979018 41.71650053 65.22717424 44.0625 68.875 C46 72 46 72 46 74 C30.44070562 74.68531965 15.03771132 73.08254763 1 66 C0.01 65.505 0.01 65.505 -1 65 C-1.00364563 65.56661346 -1.00729126 66.13322693 -1.01104736 66.7170105 C-1.05310789 72.65549614 -1.12261559 78.59322576 -1.20751953 84.53125 C-1.23561141 86.74243581 -1.25688408 88.95371984 -1.27099609 91.16503906 C-1.29258913 94.35792909 -1.33932349 97.5496527 -1.390625 100.7421875 C-1.39246796 102.20686966 -1.39246796 102.20686966 -1.39434814 103.70114136 C-1.56757394 111.96086226 -3.53234078 120.05360605 -9.25 126.3125 C-9.77078125 126.90675781 -10.2915625 127.50101562 -10.828125 128.11328125 C-16.66063293 133.18001026 -23.00019789 136.01642502 -30.3125 138.3125 C-31.10978516 138.57611328 -31.90707031 138.83972656 -32.72851562 139.11132812 C-38.56132305 141 -38.56132305 141 -42 141 C-41.05600303 137.95016365 -40.19389622 135.29943274 -38.45117188 132.6081543 C-36.23987904 127.11005592 -36.57926956 121.76618253 -36.59375 115.89453125 C-36.58291382 114.61954269 -36.57207764 113.34455414 -36.56091309 112.03092957 C-36.52667932 107.95806083 -36.51046574 103.88547911 -36.5 99.8125 C-36.486193 94.46458776 -36.45153099 89.11729643 -36.40625 83.76953125 C-36.40927124 82.55457474 -36.41229248 81.33961823 -36.41540527 80.08784485 C-36.3182688 68.9339366 -34.85911018 59.33211218 -27 51 C-24.20610593 48.33415941 -21.47038805 45.73519403 -18 44 C-18.02094727 43.44650879 -18.04189453 42.89301758 -18.06347656 42.32275391 C-18.61118892 25.6660586 -16.829533 16.01319404 -5.5078125 3.328125 C-2.34796348 0 -2.34796348 0 0 0 Z " fill="#6E3C26" transform="translate(66,143)"/>
<path d="M0 0 C4.87322409 2.87395267 8.55187012 6.4108458 12.4609375 10.48828125 C15.17517122 13.17328476 18.0150973 15.65546474 20.89892578 18.1550293 C24.25905682 21.10558824 27.50127124 24.17792465 30.75 27.25 C35.14613858 31.39651557 39.55411487 35.52297836 44.04516602 39.56665039 C55.04662734 49.50602374 63.81415732 60.06539116 67 75 C67 78.63 67 82.26 67 86 C51.16 86 35.32 86 19 86 C19 69 19 69 22 64.4375 C22.99 63.633125 23.98 62.82875 25 62 C23.93640259 61.38910522 23.93640259 61.38910522 22.85131836 60.76586914 C-9.50174166 42.17236752 -9.50174166 42.17236752 -24 33 C-20.88373348 28.79984584 -17.73070935 24.63419091 -14.4921875 20.52734375 C-13.89792969 19.77259766 -13.30367188 19.01785156 -12.69140625 18.24023438 C-11.47557061 16.69886854 -10.2567929 15.15981909 -9.03515625 13.62304688 C-5.59687214 9.24466547 -2.62279991 4.91285655 0 0 Z " fill="#FDB684" transform="translate(421,402)"/>
<path d="M0 0 C5.8797505 4.87724437 11.26880817 10.13886878 16.65234375 15.5546875 C17.55247696 16.45623566 18.45261017 17.35778381 19.38002014 18.28665161 C21.75072823 20.66198217 24.11924515 23.03945405 26.48669434 25.41802979 C28.91180728 27.85344717 31.33982085 30.28596912 33.76757812 32.71875 C38.51437128 37.47652769 43.25829281 42.2371538 48 47 C44.28450169 49.98586873 40.68896239 51.10105825 36.125 52.25 C29.0094865 54.12835513 21.99952504 56.22792855 15 58.5 C6.83472112 61.13789324 -1.36078945 63.55185595 -9.640625 65.80078125 C-15.04730408 67.27298208 -20.41610166 68.87144997 -25.78442383 70.47705078 C-30.89964027 72 -30.89964027 72 -32 72 C-32 64.08 -32 56.16 -32 48 C-34.64 48 -37.28 48 -40 48 C-35.65786299 41.92100818 -30.86737209 36.32580477 -25.95678711 30.70727539 C-21.96862443 26.13780075 -18.09188363 21.49397905 -14.2734375 16.78125 C-11.5500396 13.44953299 -8.78058535 10.15902143 -6 6.875 C-5.51837402 6.30571777 -5.03674805 5.73643555 -4.54052734 5.14990234 C-1.13613596 1.13613596 -1.13613596 1.13613596 0 0 Z " fill="#FDB684" transform="translate(232,224)"/>
<path d="M0 0 C9.9 0 19.8 0 30 0 C30.28833091 4.88875364 30.57426455 9.77753824 30.85449219 14.66674805 C30.95015838 16.32405245 31.04712564 17.98128235 31.14550781 19.63842773 C31.42629915 24.37606526 31.67568445 29.11357562 31.88967896 33.85470581 C31.99096877 35.82437941 32.13768844 37.79157922 32.28881836 39.75805664 C32.64993251 46.6332493 31.90069108 50.58115356 27.47729492 55.93579102 C26.8454126 56.63760498 26.21353027 57.33941895 25.5625 58.0625 C24.27776049 59.59300726 22.99390823 61.12425973 21.7109375 62.65625 C21.07897461 63.38972656 20.44701172 64.12320313 19.79589844 64.87890625 C17.28777373 67.84119383 14.97887061 70.93149159 12.6875 74.0625 C9.09042553 78.90957447 9.09042553 78.90957447 8 80 C3.59137757 80.3383999 -0.83006712 80.32513409 -5.25 80.375 C-7.11205078 80.43107422 -7.11205078 80.43107422 -9.01171875 80.48828125 C-19.25079026 80.5874757 -19.25079026 80.5874757 -22.32421875 77.76171875 C-23.99989435 75.00017411 -24.65676947 73.62602627 -24.5625 70.4375 C-24.56378906 69.69371094 -24.56507812 68.94992187 -24.56640625 68.18359375 C-23.76289253 65.08590981 -22.51491624 63.96695075 -20 62 C-16.48562876 60.57435884 -12.93017818 59.47810672 -9.3125 58.34375 C-5.91812584 56.9667869 -4.22913262 55.87215164 -2 53 C-1.02886844 49.99561602 -0.85142376 47.19320251 -0.79467773 44.04785156 C-0.77473251 43.06713684 -0.75478729 42.08642212 -0.73423767 41.07598877 C-0.70916893 39.4992337 -0.70916893 39.4992337 -0.68359375 37.890625 C-0.66281265 36.80867859 -0.64203156 35.72673218 -0.62062073 34.61199951 C-0.55527069 31.15806387 -0.49630771 27.70405263 -0.4375 24.25 C-0.39430096 21.90754429 -0.35068622 19.5650962 -0.30664062 17.22265625 C-0.19882245 11.48184717 -0.09964035 5.74098017 0 0 Z " fill="#FEB784" transform="translate(72,408)"/>
<path d="M0 0 C0.81218994 0.00507568 1.62437988 0.01015137 2.46118164 0.01538086 C3.08114014 0.02190674 3.70109863 0.02843262 4.33984375 0.03515625 C4.71692103 7.82690553 5.09091998 15.61879682 5.46148586 23.41085815 C5.63383405 27.03308797 5.80705924 30.65527033 5.98266602 34.27734375 C6.97970873 54.86038964 7.74251204 75.4359113 8.33984375 96.03515625 C-1.56015625 96.03515625 -11.46015625 96.03515625 -21.66015625 96.03515625 C-21.75069067 85.8730154 -21.82400659 75.71114443 -21.86740494 65.5486908 C-21.88823881 60.8293453 -21.9164793 56.11029114 -21.96191406 51.39111328 C-22.0055222 46.83289749 -22.02932493 42.27496111 -22.03966522 37.71655273 C-22.04702981 35.98148198 -22.06141108 34.24642572 -22.08307648 32.51147461 C-22.11231037 30.07242334 -22.11610406 27.63451206 -22.11425781 25.1953125 C-22.12863892 24.48536636 -22.14302002 23.77542023 -22.15783691 23.04396057 C-22.1056279 16.6281331 -19.87622902 11.56403452 -15.6953125 6.79296875 C-10.44965018 2.45101459 -6.95831828 -0.05636801 0 0 Z " fill="#B53F91" transform="translate(93.66015625,311.96484375)"/>
</svg>
