<?xml version="1.0" encoding="UTF-8"?>
<svg version="1.1" xmlns="http://www.w3.org/2000/svg" width="512" height="512">
<path d="M0 0 C8.66262163 4.98604385 12.31490302 13.61688578 16.27783203 22.32080078 C34.36033331 61.61106937 65.50718105 99.66191034 99.515625 126.16015625 C100.64303334 127.08561555 101.76787966 128.01420167 102.890625 128.9453125 C121.92652313 144.64409748 143.16392921 157.58409567 165.43603516 168.16992188 C166.85070127 168.84354077 168.2617317 169.52483683 169.66943359 170.21289062 C188.87392496 179.56946328 209.76687317 186.9312733 230.67016602 191.45214844 C235.67369198 192.61187077 239.93619665 194.43666597 243.515625 198.16015625 C246.26370065 202.7762881 246.89717719 206.19529904 246.91967773 211.5390625 C246.92997261 212.60856644 246.92997261 212.60856644 246.94047546 213.69967651 C246.95867727 216.04087614 246.9549162 218.38140151 246.94921875 220.72265625 C246.9537833 222.35880754 246.95908969 223.99495691 246.96510315 225.63110352 C246.97402087 229.05395313 246.97162595 232.47656924 246.96166992 235.89941406 C246.95017357 240.27759166 246.97040816 244.6549635 246.99958706 249.03303528 C247.01796398 252.40976039 247.01765381 255.78629284 247.01194954 259.16305542 C247.01179655 260.77693819 247.01782235 262.3908342 247.03024101 264.00466919 C247.04518076 266.26403893 247.03445467 268.52192551 247.01733398 270.78125 C247.01708473 272.70602173 247.01708473 272.70602173 247.01683044 274.66967773 C246.4234014 278.80241679 245.08694503 280.90887079 242.515625 284.16015625 C241.98382315 284.53984212 241.45202129 284.91952799 240.90410423 285.31071949 C238.62235169 288.34998499 239.10950995 291.82432204 239.14381409 295.47746277 C239.13998952 296.33601106 239.13616496 297.19455936 239.1322245 298.07912427 C239.12290999 300.96721961 239.13494955 303.85483923 239.14672852 306.74291992 C239.14426158 308.80917561 239.14042426 310.87543006 239.13531494 312.94168091 C239.12696335 317.39755091 239.12779618 321.85329319 239.13549995 326.30916405 C239.14706184 333.35609752 239.13493721 340.40286596 239.11888123 347.44978333 C239.08264753 364.95788572 239.07645579 382.46598463 239.07897949 399.97412109 C239.08069054 413.57063995 239.07356575 427.16702449 239.03900093 440.76350576 C239.02220284 447.76698481 239.02400601 454.77013652 239.03982365 461.77361429 C239.04562338 466.13562723 239.03487489 470.49748524 239.01957703 474.85947037 C239.0158526 476.87987125 239.01895361 478.90029821 239.02944756 480.92067528 C239.04283927 483.68348485 239.03159078 486.44516681 239.01441956 489.20793152 C239.02912972 490.40139302 239.02912972 490.40139302 239.04413706 491.61896485 C238.97247739 497.21193088 237.61648154 501.47598512 234.515625 506.16015625 C229.519814 510.91226915 225.43462445 511.30755856 218.79463577 511.29437733 C217.99635904 511.29672956 217.1980823 511.29908179 216.37561536 511.3015053 C213.67807011 511.30820701 210.9805729 511.30773672 208.28302002 511.30732727 C206.33851318 511.31062516 204.39400703 511.31435057 202.44950175 511.31846875 C197.08825023 511.32850527 191.7270099 511.33220819 186.36575031 511.33485806 C180.59055923 511.33875617 174.81537706 511.34833479 169.04019165 511.35707092 C155.08504134 511.37684841 141.12989029 511.38690279 127.17472947 511.39579871 C120.60770439 511.40017917 114.04068013 511.40554657 107.4736557 511.41078758 C85.6519194 511.4278005 63.83018382 511.44232075 42.00844193 511.44953632 C40.5969811 511.45001108 39.18552028 511.45048697 37.77405946 511.45096399 C36.72411277 511.45131855 36.72411277 511.45131855 35.65295503 511.45168028 C32.10652731 511.45288149 28.56009959 511.45409693 25.01367188 511.45532227 C23.95796921 511.45568249 23.95796921 511.45568249 22.88093921 511.45604999 C0.05703789 511.46394462 -22.76681149 511.48737981 -45.59069013 511.51987821 C-69.71519925 511.55416591 -93.83967779 511.5738853 -117.9642117 511.57718056 C-131.11733574 511.57934849 -144.27038344 511.58813844 -157.4234848 511.61364174 C-168.62253077 511.63530571 -179.82148186 511.64342036 -191.02054641 511.63367496 C-196.73681079 511.62911789 -202.45287923 511.63109812 -208.16911697 511.6504364 C-213.40000463 511.6679803 -218.63055212 511.66714191 -223.86144295 511.65153911 C-225.75581664 511.64914967 -227.65021334 511.65355531 -229.5445517 511.66536776 C-232.11679049 511.68041643 -234.68781298 511.67086341 -237.26002121 511.65514088 C-237.99802562 511.66536308 -238.73603003 511.67558529 -239.49639821 511.68611726 C-245.00738134 511.61243883 -248.05336631 510.21433347 -252.484375 507.16015625 C-256.98276335 501.35960285 -257.6297572 496.9756165 -257.60221863 489.83612061 C-257.60292321 488.97686674 -257.60362779 488.11761288 -257.60435373 487.23232102 C-257.60566615 484.34203529 -257.59998051 481.45180363 -257.59448242 478.56152344 C-257.59424037 476.49364725 -257.59451726 474.42577096 -257.59527588 472.3578949 C-257.59638342 467.89878725 -257.59494597 463.43968988 -257.59190941 458.98058319 C-257.58828288 451.92976225 -257.5974035 444.87899517 -257.60969543 437.82818604 C-257.61272833 436.0442899 -257.61272833 436.0442899 -257.61582249 434.22435546 C-257.61999126 431.79219049 -257.62419401 429.36002559 -257.62843001 426.92786074 C-257.65659351 410.50932999 -257.67669903 394.0909156 -257.65942383 377.67236328 C-257.64787139 366.60238676 -257.65743978 355.53265148 -257.69148141 344.46271825 C-257.70864996 338.60330458 -257.71490493 332.74432626 -257.695364 326.88491058 C-257.67714651 321.37224744 -257.68673269 315.86033445 -257.71762085 310.34773445 C-257.72399102 308.32530603 -257.72012313 306.30281533 -257.70522499 304.28043175 C-257.68637845 301.51676317 -257.70445795 298.75567122 -257.73161316 295.99212646 C-257.71734494 295.19357262 -257.70307672 294.39501878 -257.68837613 293.57226634 C-257.79625238 288.13159536 -259.28790438 285.44782923 -263.10068303 281.5762198 C-266.1431643 278.46255944 -265.62932143 275.44872391 -265.66137695 271.2512207 C-265.66794815 270.54040848 -265.67451935 269.82959625 -265.68128967 269.09724426 C-265.7010365 266.73930762 -265.71269035 264.38143482 -265.72265625 262.0234375 C-265.72673178 261.21759909 -265.7308073 260.41176067 -265.73500633 259.58150291 C-265.75587633 255.31353384 -265.7701721 251.04559697 -265.77954102 246.77758789 C-265.79058721 242.37704853 -265.82496331 237.97701739 -265.86471272 233.5766573 C-265.89091362 230.18705838 -265.89923608 226.79757968 -265.90282249 223.40788841 C-265.90768215 221.78643563 -265.91927847 220.164988 -265.93786049 218.54363441 C-265.96231951 216.2673743 -265.96127497 213.9924169 -265.9543457 211.71606445 C-265.96021194 210.42303909 -265.96607819 209.13001373 -265.97212219 207.79780579 C-265.246968 202.38955979 -263.14803009 198.67867826 -259.06640625 194.953125 C-253.96181279 191.94901677 -247.85276913 190.91352983 -242.171875 189.47265625 C-192.84653333 176.47883507 -148.86278637 152.61825847 -110.484375 119.16015625 C-109.68386719 118.47179687 -108.88335937 117.7834375 -108.05859375 117.07421875 C-95.91083736 106.41685936 -84.39738703 94.92854674 -74.484375 82.16015625 C-73.56040403 81.03389777 -72.63309748 79.91037053 -71.703125 78.7890625 C-56.15969263 59.94331603 -43.91021454 39.04696567 -32.7109375 17.40234375 C-25.66922986 3.91282572 -16.76448901 -5.66724078 0 0 Z M-112.484375 300.16015625 C-113.55747861 301.55689428 -114.62586217 302.9575261 -115.66943359 304.37646484 C-124.46085293 316.30184725 -135.67452967 326.89963484 -150.46484375 330.72265625 C-166.58419205 333.05818925 -181.09874984 330.89708486 -194.484375 321.16015625 C-197.24566551 318.81363538 -199.91772826 316.40725129 -202.55078125 313.91796875 C-204.17216899 312.04804412 -204.17216899 312.04804412 -205.484375 312.16015625 C-205.484375 371.89015625 -205.484375 431.62015625 -205.484375 493.16015625 C-76.124375 493.16015625 53.235625 493.16015625 186.515625 493.16015625 C186.515625 433.43015625 186.515625 373.70015625 186.515625 312.16015625 C183.050625 315.13015625 183.050625 315.13015625 179.515625 318.16015625 C165.59204156 329.19687231 151.8981132 332.5000792 134.515625 331.16015625 C118.86170076 328.15967789 105.28529829 317.3188576 96.265625 304.47265625 C95.33327757 303.04527673 94.40986132 301.61171591 93.515625 300.16015625 C90.25255595 303.21928348 87.5357977 306.40819462 84.828125 309.97265625 C76.36034594 320.62464747 64.82619251 328.07770904 51.515625 331.16015625 C40.82015164 332.25444075 30.32689823 331.82225062 20.515625 327.16015625 C19.53464844 326.69738281 18.55367187 326.23460937 17.54296875 325.7578125 C6.87389142 320.12729298 -2.01745729 311.32245551 -8.484375 301.16015625 C-11.98866942 302.32825439 -12.50346849 303.23019937 -14.609375 306.16015625 C-23.63435606 317.99958047 -36.13062106 329.0143806 -51.484375 331.16015625 C-69.81231954 332.75527366 -83.87463691 328.31851961 -98.109375 316.47265625 C-102.66705986 312.30163419 -106.16280933 307.51401921 -109.734375 302.50390625 C-110.311875 301.73046875 -110.889375 300.95703125 -111.484375 300.16015625 C-111.814375 300.16015625 -112.144375 300.16015625 -112.484375 300.16015625 Z " fill="#010101" transform="translate(265.484375,0.83984375)"/>
<path d="M0 0 C0.66 0 1.32 0 2 0 C2.18997559 0.67651611 2.37995117 1.35303223 2.57568359 2.05004883 C12.58054295 37.3995623 25.2929843 72.3647453 46 103 C46.42619629 103.63131836 46.85239258 104.26263672 47.29150391 104.91308594 C50.09425262 109.02123899 53.00827149 113.0274577 56 117 C56.66902344 117.89460938 57.33804688 118.78921875 58.02734375 119.7109375 C78.06414235 145.32419636 105.86592881 164.88818427 135 179 C135 179.33 135 179.66 135 180 C46.56 180 -41.88 180 -133 180 C-130.46539507 177.46539507 -129.03921925 176.33564218 -125.97265625 174.80078125 C-125.18673096 174.40068848 -124.40080566 174.0005957 -123.59106445 173.58837891 C-122.75663818 173.16733887 -121.92221191 172.74629883 -121.0625 172.3125 C-113.34524537 168.32403416 -106.04813254 164.10193852 -99 159 C-98.37496582 158.54866699 -97.74993164 158.09733398 -97.10595703 157.63232422 C-88.66837671 151.50967496 -80.53244424 145.22723985 -73 138 C-72.07058594 137.13375 -71.14117187 136.2675 -70.18359375 135.375 C-34.55891737 101.55031961 -9.62229386 47.56304841 0 0 Z " fill="#F4F4F4" transform="translate(255,50)"/>
<path d="M0 0 C157.74 0 315.48 0 478 0 C478 8.58 478 17.16 478 26 C320.26 26 162.52 26 0 26 C0 17.42 0 8.84 0 0 Z " fill="#5F7C8A" transform="translate(17,247)"/>
<path d="M0 0 C0.928125 0.86625 0.928125 0.86625 1.875 1.75 C3.98143108 0.70883498 6.06803779 -0.35402036 8.13671875 -1.46875 C17.68926794 -6.51421881 26.10597666 -8.53841746 36.875 -6.25 C47.87162287 -2.23407645 54.72616474 3.58907058 59.83203125 14.02734375 C64.21726451 25.47493769 65.1942701 39.8628531 60.18359375 51.25390625 C53.80681763 63.41736876 45.04193408 72.77057445 35.25 82.25 C25.14457339 92.2823313 17.35580456 104.16130628 11.33984375 117.03515625 C9.875 119.75 9.875 119.75 6.875 121.75 C1.28483607 122.38114754 1.28483607 122.38114754 -1.125 121.75 C-5.19102739 118.38029534 -7.22509485 114.95963794 -9.375 110.1875 C-15.9280825 96.38829028 -26.47076804 85.21163239 -37.3125 74.625 C-48.81929685 63.16516967 -57.28454914 50.37128188 -57.4375 33.75 C-57.46185161 21.18592237 -54.31173863 11.16132421 -45.5 2.07421875 C-32.79524005 -9.77767537 -13.93159496 -10.03074837 0 0 Z " fill="#000000" transform="translate(253.125,356.25)"/>
<path d="M0 0 C1.38590203 2.77180406 0.41136009 4.38138293 -0.51202393 7.20454407 C-0.75426697 7.9182164 -0.99651001 8.63188873 -1.24609375 9.3671875 C-1.49212341 10.10950119 -1.73815308 10.85181488 -1.99163818 11.61662292 C-2.79816407 14.03911731 -3.61683724 16.45726096 -4.4375 18.875 C-4.85257309 20.10716751 -4.85257309 20.10716751 -5.27603149 21.36422729 C-9.44935888 33.74357805 -13.73958561 46.03309185 -19 58 C-19.33 58.75877441 -19.66 59.51754883 -20 60.29931641 C-30.87979527 85.04157808 -45.21741794 107.5505807 -64 127 C-64.80953125 127.86109375 -65.6190625 128.7221875 -66.453125 129.609375 C-88.46413425 152.47242332 -131.89788413 181.66639424 -163.99935913 184.24050903 C-165.05192902 184.23606781 -166.1044989 184.23162659 -167.18896484 184.22705078 C-168.38975677 184.22689972 -169.59054871 184.22674866 -170.82772827 184.22659302 C-172.74991684 184.21110916 -172.74991684 184.21110916 -174.7109375 184.1953125 C-176.04757474 184.1915779 -177.38421474 184.18873304 -178.72085571 184.18673706 C-182.22255132 184.17913577 -185.7240785 184.15951788 -189.22570801 184.1373291 C-192.80539675 184.11679474 -196.38511296 184.10771918 -199.96484375 184.09765625 C-206.97663826 184.07626827 -213.98829368 184.0411151 -221 184 C-221 177.73 -221 171.46 -221 165 C-219.17339844 164.443125 -217.34679687 163.88625 -215.46484375 163.3125 C-163.04165922 147.25162318 -114.40581598 125.79987329 -73 89 C-72.26676514 88.35289062 -71.53353027 87.70578125 -70.77807617 87.0390625 C-64.46830671 81.42432698 -58.41137665 75.59448732 -52.4375 69.625 C-51.55642578 68.75617188 -50.67535156 67.88734375 -49.76757812 66.9921875 C-43.73941519 60.97737105 -38.29255221 54.66621701 -33 48 C-32.09474356 46.90044973 -31.18762105 45.80242856 -30.27734375 44.70703125 C-18.96927048 30.71824612 -9.10377831 15.49924122 0 0 Z " fill="#F3F3F3" transform="translate(238,46)"/>
<path d="M0 0 C3.05672651 2.65925743 4.82986085 5.96696868 6.8125 9.4375 C15.00568706 23.41043107 24.45387783 36.70856888 35 49 C35.7940625 49.97710937 36.588125 50.95421875 37.40625 51.9609375 C44.01032006 60.01113645 51.22371148 67.43799315 58.5625 74.8125 C59.04519348 75.30036987 59.52788696 75.78823975 60.02520752 76.29089355 C66.66950487 82.99130494 73.6105094 89.13000762 81 95 C82.20859011 96.00046016 83.41472966 97.00389648 84.6171875 98.01171875 C101.08413988 111.62373506 119.21783159 122.88111932 138 133 C138.93150879 133.50273437 139.86301758 134.00546875 140.82275391 134.5234375 C166.05812172 147.98913571 193.80703877 158.73123456 222 164 C222 170.6 222 177.2 222 184 C214.39227861 184.18284411 206.78541071 184.32868831 199.17600632 184.41449738 C195.64008868 184.45574356 192.10578785 184.51139329 188.57080078 184.60351562 C172.25662642 185.01696281 157.91278085 184.71807392 143.08081055 177.06817627 C141.09258361 176.04752745 139.08681082 175.11418454 137.04492188 174.20654297 C133.45254331 172.60469166 129.91101582 170.91084428 126.375 169.1875 C125.76202057 168.8897467 125.14904114 168.59199341 124.51748657 168.28521729 C103.83732463 158.20959064 84.650842 145.98812192 68 130 C67.10925781 129.16082031 66.21851563 128.32164062 65.30078125 127.45703125 C58.43932666 120.82524878 52.54302022 113.74785648 47 106 C46.59958496 105.44393066 46.19916992 104.88786133 45.78662109 104.31494141 C26.59746091 77.38210885 14.56101885 47.01331024 4.43359375 15.77734375 C4.21638168 15.11054092 3.99916962 14.4437381 3.77537537 13.75672913 C2.31902725 9.2081404 1.11957915 4.63982227 0 0 Z " fill="#F3F3F3" transform="translate(273,46)"/>
<path d="M0 0 C5.34953866 2.26463803 9.77843113 4.91110201 13.46875 9.4921875 C16.16714116 11.65090042 18.29732109 11.8737986 21.71875 11.69140625 C24.96514086 10.93871482 26.48324293 8.68019543 28.65625 6.2421875 C35.52838712 1.13996136 40.94303486 -1.80399614 49.65625 -0.7578125 C55.98013467 2.28251667 59.4796643 7.2166814 61.96875 13.6171875 C64.01137042 24.38736791 61.56902025 32.2433872 55.46875 41.3046875 C50.89668286 47.3693244 45.45348274 52.51926365 40.0300293 57.81567383 C33.17319721 64.56983838 26.82035983 71.70121048 22.0234375 80.1015625 C21.57226562 80.80796875 21.12109375 81.514375 20.65625 82.2421875 C19.99625 82.2421875 19.33625 82.2421875 18.65625 82.2421875 C17.30372118 80.38928367 16.02625693 78.48148395 14.78125 76.5546875 C8.41475037 67.01611658 0.54133784 59.02802522 -7.65625 51.0546875 C-15.60740077 43.15458746 -23.29536411 33.34094887 -23.78125 21.6796875 C-23.3674834 14.11176291 -20.95012158 8.30217464 -15.94140625 2.65234375 C-11.25790157 -1.48150757 -5.80816632 -1.87797378 0 0 Z " fill="#E71D62" transform="translate(236.34375,367.7578125)"/>
<path d="M0 0 C5.61 0 11.22 0 17 0 C17 67.65 17 135.3 17 205 C11.39 205 5.78 205 0 205 C0 137.35 0 69.7 0 0 Z " fill="#5E7A88" transform="translate(469,290)"/>
<path d="M0 0 C5.61 0 11.22 0 17 0 C17 67.65 17 135.3 17 205 C11.39 205 5.78 205 0 205 C0 137.35 0 69.7 0 0 Z " fill="#5E7A88" transform="translate(26,290)"/>
<path d="M0 0 C0.66 0 1.32 0 2 0 C2.18997559 0.67651611 2.37995117 1.35303223 2.57568359 2.05004883 C12.58054295 37.3995623 25.2929843 72.3647453 46 103 C46.42619629 103.63131836 46.85239258 104.26263672 47.29150391 104.91308594 C50.09425262 109.02123899 53.00827149 113.0274577 56 117 C56.66902344 117.89460938 57.33804688 118.78921875 58.02734375 119.7109375 C78.06414235 145.32419636 105.86592881 164.88818427 135 179 C131.37897521 180.32114945 129.54697283 179.69308849 126.09765625 178.11328125 C125.13545166 177.6757251 124.17324707 177.23816895 123.18188477 176.78735352 C121.63778931 176.05730103 121.63778931 176.05730103 120.0625 175.3125 C118.99507568 174.81355225 117.92765137 174.31460449 116.82788086 173.80053711 C56.08640751 144.94350152 20.14543434 98.44988751 -3.95361328 36.68115234 C-5.82983444 31.77629834 -5.82983444 31.77629834 -8 27 C-7.13151663 24.1040674 -6.20137243 21.28229328 -5.1875 18.4375 C-3.02731962 12.3330844 -1.30023849 6.3489694 0 0 Z " fill="#CBD4D8" transform="translate(255,50)"/>
<path d="M0 0 C1.38590203 2.77180406 0.41136009 4.38138293 -0.51202393 7.20454407 C-0.75426697 7.9182164 -0.99651001 8.63188873 -1.24609375 9.3671875 C-1.49212341 10.10950119 -1.73815308 10.85181488 -1.99163818 11.61662292 C-2.79816407 14.03911731 -3.61683724 16.45726096 -4.4375 18.875 C-4.85257309 20.10716751 -4.85257309 20.10716751 -5.27603149 21.36422729 C-9.44935888 33.74357805 -13.73958561 46.03309185 -19 58 C-19.33 58.75877441 -19.66 59.51754883 -20 60.29931641 C-30.87979527 85.04157808 -45.21741794 107.5505807 -64 127 C-64.80953125 127.86109375 -65.6190625 128.7221875 -66.453125 129.609375 C-86.66978062 150.60861084 -114.07477083 164.57057174 -140.375 176.375 C-141.01655029 176.66737549 -141.65810059 176.95975098 -142.3190918 177.26098633 C-146.63268077 179.12243974 -146.63268077 179.12243974 -150 178 C-149.07272095 177.47998413 -149.07272095 177.47998413 -148.12670898 176.94946289 C-97.11413554 148.31140658 -57.70391842 114.14554635 -36 58 C-36 57.01 -36 56.02 -36 55 C-37.65 56.32 -39.3 57.64 -41 59 C-39.39495114 55.21603007 -36.87776485 52.41616896 -34.1875 49.375 C-21.07416119 34.16764063 -10.2467264 17.22687895 0 0 Z " fill="#CCD4D8" transform="translate(238,46)"/>
<path d="M0 0 C3.05672651 2.65925743 4.82986085 5.96696868 6.8125 9.4375 C15.00568706 23.41043107 24.45387783 36.70856888 35 49 C35.7940625 49.97710937 36.588125 50.95421875 37.40625 51.9609375 C44.01032006 60.01113645 51.22371148 67.43799315 58.5625 74.8125 C59.04519348 75.30036987 59.52788696 75.78823975 60.02520752 76.29089355 C66.66950487 82.99130494 73.6105094 89.13000762 81 95 C82.20859011 96.00046016 83.41472966 97.00389648 84.6171875 98.01171875 C105.05328355 114.9047337 128.10528455 128.59479128 152 140 C152 140.66 152 141.32 152 142 C112.88354726 129.55929332 76.49895247 104.37368148 46.74609375 76.55859375 C44.10035397 74.09350192 41.40243923 71.70083 38.6875 69.3125 C35.1393927 66.12540838 31.9388681 62.82829017 28.86328125 59.1875 C26.52904553 56.44709747 24.11220192 53.78505086 21.6875 51.125 C20.84574219 50.19945312 20.00398438 49.27390625 19.13671875 48.3203125 C17.78610074 46.85364504 16.40983731 45.40983731 15 44 C12.6766225 40.51493376 11.51254745 36.94891674 10.21484375 33.0078125 C9.95369278 32.22485809 9.69254181 31.44190369 9.42347717 30.63522339 C8.87252441 28.98002658 8.32378455 27.32409177 7.77709961 25.66748047 C6.94234828 23.1396816 6.09967104 20.61463067 5.25585938 18.08984375 C4.72087914 16.47932438 4.18635875 14.86865218 3.65234375 13.2578125 C3.40129379 12.50557404 3.15024384 11.75333557 2.8915863 10.978302 C1.69472194 7.33889573 0.63828166 3.78866087 0 0 Z " fill="#CAD3D7" transform="translate(273,46)"/>
<path d="M0 0 C24.09 0 48.18 0 73 0 C67.16264532 11.67470936 58.03152136 20.04825141 46 25 C37.14167064 27.74311185 28.10724599 26.17111931 20 22 C11.61869854 16.49122174 3.75632109 9.39080273 0 0 Z " fill="#E71D62" transform="translate(66,290)"/>
<path d="M0 0 C24.42 0 48.84 0 74 0 C67.10568388 12.0650532 58.09055316 21.63181639 44.30859375 25.5625 C34.75597858 27.37280947 26.71787619 25.79313954 18.62109375 20.421875 C10.60846008 14.40223143 5.35466485 8.56746375 0 0 Z " fill="#E71D62" transform="translate(270,290)"/>
<path d="M0 0 C24.09 0 48.18 0 73 0 C71.16752218 4.58119455 69.25989723 7.41663179 66 10.9375 C65.51233154 11.46529053 65.02466309 11.99308105 64.5222168 12.53686523 C60.20520045 17.0534398 55.65212282 20.29722315 50 23 C49.33484375 23.33644531 48.6696875 23.67289062 47.984375 24.01953125 C40.72582414 27.25047157 33.04734752 27.05006229 25.6875 24.25 C15.39857264 19.59086308 5.8518657 11.77605799 0 2 C0 1.34 0 0.68 0 0 Z " fill="#E71D62" transform="translate(373,290)"/>
<path d="M0 0 C24.42 0 48.84 0 74 0 C65.85303988 12.22044018 56.93248959 22.82442186 42 26 C32.18488726 27.34514346 24.22071007 24.4827999 16.078125 19.05078125 C9.44769404 13.94974528 4.42172646 8.09503387 0 1 C0 0.67 0 0.34 0 0 Z " fill="#E71D62" transform="translate(168,290)"/>
<path d="M0 0 C5.89815111 5.22790666 9.03710485 10.56982457 10.00390625 18.52734375 C10.59510408 29.37868465 4.74230086 38.57432938 -2.25 46.4375 C-5.72102919 50.03369304 -9.30068062 53.51920253 -12.8762207 57.01098633 C-19.73305279 63.76515088 -26.08589017 70.89652298 -30.8828125 79.296875 C-31.33398438 80.00328125 -31.78515625 80.7096875 -32.25 81.4375 C-32.91 81.4375 -33.57 81.4375 -34.25 81.4375 C-35.53006797 79.65351386 -36.72660351 77.80896094 -37.875 75.9375 C-38.82246094 74.40609375 -38.82246094 74.40609375 -39.7890625 72.84375 C-40.27117187 72.0496875 -40.75328125 71.255625 -41.25 70.4375 C-40.239375 69.6125 -39.22875 68.7875 -38.1875 67.9375 C-34.8220261 65.05762554 -31.98644728 61.94079409 -29.1328125 58.5625 C-27.11323128 56.28313863 -24.95838852 54.22109758 -22.75 52.125 C-13.7688702 43.20517484 -8.33237794 33.15826325 -7.8125 20.4375 C-8.01480503 12.57794943 -10.92035559 5.93196662 -15.25 -0.5625 C-9.92881146 -2.33622951 -5.09000069 -2.44711572 0 0 Z " fill="#AA1355" transform="translate(289.25,368.5625)"/>
<path d="M0 0 C157.74 0 315.48 0 478 0 C478 8.58 478 17.16 478 26 C472.39 26 466.78 26 461 26 C461 17.75 461 9.5 461 1 C308.87 1 156.74 1 0 1 C0 0.67 0 0.34 0 0 Z " fill="#34444B" transform="translate(17,247)"/>
<path d="M0 0 C24.09 0 48.18 0 73 0 C71.16752218 4.58119455 69.25989723 7.41663179 66 10.9375 C65.51233154 11.46529053 65.02466309 11.99308105 64.5222168 12.53686523 C60.20520045 17.0534398 55.65212282 20.29722315 50 23 C49.33484375 23.33644531 48.6696875 23.67289062 47.984375 24.01953125 C42.4333767 26.49040244 36.98650772 26.29712446 31 26 C31 25.67 31 25.34 31 25 C32.03125 24.94585937 33.0625 24.89171875 34.125 24.8359375 C38.70417512 23.84809125 40.90419567 21.92774313 44 18.625 C44.48210937 18.14933594 44.96421875 17.67367188 45.4609375 17.18359375 C50.32420831 12.17879919 53.08113896 7.1582102 57 1 C28.785 1.495 28.785 1.495 0 2 C0 1.34 0 0.68 0 0 Z " fill="#AD1454" transform="translate(373,290)"/>
<path d="M0 0 C24.09 0 48.18 0 73 0 C67.16264532 11.67470936 58.03152136 20.04825141 46 25 C42.71055641 26.06774278 39.69808369 26.10354862 36.25 26.0625 C35.26515625 26.05347656 34.2803125 26.04445313 33.265625 26.03515625 C32.51796875 26.02355469 31.7703125 26.01195312 31 26 C31 25.67 31 25.34 31 25 C32.0415625 24.93554688 33.083125 24.87109375 34.15625 24.8046875 C38.73565793 23.84599031 40.28419058 22.46376684 43.5 19.125 C44.3765625 18.24070312 45.253125 17.35640625 46.15625 16.4453125 C49.8653998 11.95153486 52.87172322 6.91586351 56 2 C37.52 2 19.04 2 0 2 C0 1.34 0 0.68 0 0 Z " fill="#AC1454" transform="translate(66,290)"/>
<path d="M0 0 C24.42 0 48.84 0 74 0 C67.06748715 12.13189749 58.11321213 21.48093595 44.34765625 25.578125 C39.9152499 26.37463063 35.48206662 26.22619775 31 26 C31 25.67 31 25.34 31 25 C31.8353125 24.92265625 31.8353125 24.92265625 32.6875 24.84375 C40.18881084 23.72869028 43.09577069 20.74714372 48 15 C50.97 10.71 53.94 6.42 57 2 C38.19 1.67 19.38 1.34 0 1 C0 0.67 0 0.34 0 0 Z " fill="#AC1454" transform="translate(270,290)"/>
<path d="M0 0 C24.42 0 48.84 0 74 0 C65.9439365 12.08409526 56.89284706 23.0119447 42 26 C38.3162125 26.21950029 34.6843383 26.18593857 31 26 C31 25.67 31 25.34 31 25 C32.485 24.9690625 32.485 24.9690625 34 24.9375 C40.73991883 23.88396559 44.7857013 18.69487152 48.6953125 13.4921875 C53.19917492 7.46358895 53.19917492 7.46358895 57 1 C38.19 1 19.38 1 0 1 C0 0.67 0 0.34 0 0 Z " fill="#AD1454" transform="translate(168,290)"/>
<path d="M0 0 C8.91 1.98 8.91 1.98 18 4 C18 10.6 18 17.2 18 24 C12.39 24 6.78 24 1 24 C0.67 16.08 0.34 8.16 0 0 Z " fill="#CCD5D9" transform="translate(477,206)"/>
</svg>
