<?xml version="1.0" encoding="UTF-8"?>
<svg version="1.1" xmlns="http://www.w3.org/2000/svg" width="512" height="512">
<path d="M0 0 C4.59494956 2.41185527 7.79667228 5.71609185 11.30078125 9.484375 C18.11838936 16.5447669 25.28188778 22.61205924 33.17578125 28.421875 C33.73056152 28.83743652 34.2853418 29.25299805 34.85693359 29.68115234 C55.82068251 45.36269681 79.14829667 57.97039369 103.11328125 68.421875 C103.88148193 68.76629639 104.64968262 69.11071777 105.44116211 69.46557617 C109.35495903 71.17671582 109.35495903 71.17671582 113.46484375 70.73828125 C114.31175781 70.08666016 114.31175781 70.08666016 115.17578125 69.421875 C115.75199219 69.08027344 116.32820312 68.73867187 116.921875 68.38671875 C118.04873644 67.70227404 119.17374718 67.01477298 120.296875 66.32421875 C124.264059 64.4189807 128.40293361 64.29170835 132.74121094 64.26074219 C133.83294617 64.25113464 134.9246814 64.2415271 136.04949951 64.23162842 C137.22039124 64.22737854 138.39128296 64.22312866 139.59765625 64.21875 C141.41949432 64.21019989 141.41949432 64.21019989 143.27813721 64.20147705 C145.84687431 64.19203847 148.41562345 64.18549761 150.984375 64.18164062 C154.89735245 64.17194544 158.80980222 64.14091438 162.72265625 64.109375 C165.22265314 64.10284341 167.72265378 64.09759355 170.22265625 64.09375 C171.96684845 64.0752298 171.96684845 64.0752298 173.74627686 64.05633545 C181.39771148 64.07712853 188.88843774 64.29889867 194.67578125 69.796875 C196.955943 71.6887051 196.955943 71.6887051 199.06347656 71.06494141 C204.61830475 69.05772418 210.04709981 66.86307342 215.42578125 64.421875 C216.28421631 64.03233643 217.14265137 63.64279785 218.02709961 63.24145508 C249.00264119 48.99972988 279.68672048 30.71556448 302.95605469 5.39257812 C307.38556516 0.73226518 311.60495125 -1.24096697 317.98828125 -2.078125 C328.97062852 -1.5111587 338.15873783 7.71003969 346.17578125 14.421875 C347.1503125 15.22882812 348.12484375 16.03578125 349.12890625 16.8671875 C358.13828345 24.66673405 371.66340318 37.6138786 373.5703125 49.98046875 C373.81255476 56.01858134 372.85157083 60.31175436 368.828125 64.98828125 C354.33567576 79.21663119 330.77171568 87.49257088 311.86328125 93.671875 C310.48064087 94.12941162 310.48064087 94.12941162 309.07006836 94.59619141 C298.21962234 97.99827078 287.40392635 99.98097389 276.17578125 102.421875 C317.09578125 102.751875 358.01578125 103.081875 400.17578125 103.421875 C400.17578125 123.881875 400.17578125 144.341875 400.17578125 165.421875 C391.26578125 165.421875 382.35578125 165.421875 373.17578125 165.421875 C373.17578125 263.431875 373.17578125 361.441875 373.17578125 462.421875 C229.29578125 462.421875 85.41578125 462.421875 -62.82421875 462.421875 C-62.82421875 364.411875 -62.82421875 266.401875 -62.82421875 165.421875 C-71.73421875 165.421875 -80.64421875 165.421875 -89.82421875 165.421875 C-89.82421875 144.961875 -89.82421875 124.501875 -89.82421875 103.421875 C-28.44421875 102.926875 -28.44421875 102.926875 34.17578125 102.421875 C25.26578125 100.441875 16.35578125 98.461875 7.17578125 96.421875 C2.64601627 95.11521203 -1.6740729 93.83666041 -6.07421875 92.234375 C-7.64961426 91.67363281 -7.64961426 91.67363281 -9.25683594 91.1015625 C-51.05929984 75.80033059 -51.05929984 75.80033059 -61.82421875 60.421875 C-63.50704769 55.37338818 -63.83341842 50.13268488 -61.953125 45.08203125 C-53.25081244 28.8472252 -21.37207479 -10.33929282 0 0 Z " fill="#DB4D4D" transform="translate(100.82421875,25.578125)"/>
<path d="M0 0 C59.73 0 119.46 0 181 0 C181 118.47 181 236.94 181 359 C130.18 359 79.36 359 27 359 C27 260.99 27 162.98 27 62 C18.09 62 9.18 62 0 62 C0 41.54 0 21.08 0 0 Z " fill="#FECE8E" transform="translate(11,129)"/>
<path d="M0 0 C59.73 0 119.46 0 181 0 C181 20.46 181 40.92 181 62 C172.09 62 163.18 62 154 62 C154 160.01 154 258.02 154 359 C103.18 359 52.36 359 0 359 C0 240.53 0 122.06 0 0 Z " fill="#FEAA3A" transform="translate(320,129)"/>
<path d="M0 0 C12.68600006 0 24.63217342 0.08417716 37.125 1.375 C40.04351723 1.65930499 42.96293154 1.93321035 45.8828125 2.203125 C46.62291565 2.27173737 47.3630188 2.34034973 48.12554932 2.41104126 C58.2007554 3.32048199 68.30145996 3.83165339 78.40283203 4.35302734 C85.62451391 4.72869042 92.81434467 5.16872677 100 6 C99.60943124 29.00687359 98.58737365 51.93344576 97.10424805 74.89599609 C96.45727965 84.97598881 95.8944007 95.04608601 95.53125 105.140625 C95.21015533 113.97986695 94.7042499 122.79061556 94.078125 131.61328125 C93.23140535 143.62088727 92.61020213 155.62977536 92.06080627 167.6543541 C91.78076208 173.72890628 91.48503427 179.80272297 91.19107819 185.87661552 C90.94039165 191.0877375 90.69998803 196.29900287 90.47900391 201.51147461 C90.26051164 206.65022799 90.01531827 211.78710209 89.75229645 216.92376137 C89.65819565 218.8540246 89.57359046 220.78477791 89.49922943 222.71590233 C88.99481516 235.65168291 87.74355183 245.61956838 78.125 255.1875 C51.60822646 274.91339251 39.35850859 267 0 267 C0 178.89 0 90.78 0 0 Z " fill="#FECE8E" transform="translate(320,221)"/>
<path d="M0 0 C59.73 0 119.46 0 181 0 C181 27.06 181 54.12 181 82 C168.74875 81.319375 168.74875 81.319375 156.25 80.625 C153.71731445 80.48658691 151.18462891 80.34817383 148.57519531 80.20556641 C137.79988907 79.6025502 127.07080403 78.88155116 116.33969116 77.73060608 C107.21626867 76.77102842 98.06945838 76.26451753 88.91259766 75.73794556 C68.2346378 74.54362801 47.61620932 72.99036872 27 71 C27 68.03 27 65.06 27 62 C18.09 62 9.18 62 0 62 C0 41.54 0 21.08 0 0 Z " fill="#FECE8E" transform="translate(11,129)"/>
<path d="M0 0 C34.32 0 68.64 0 104 0 C103.5359375 13.1484375 103.5359375 13.1484375 103.0625 26.5625 C102.91953491 30.69567749 102.91953491 30.69567749 102.77368164 34.91235352 C102.69446858 37.10954843 102.61497867 39.30673339 102.53515625 41.50390625 C102.49708862 42.63405151 102.459021 43.76419678 102.4197998 44.92858887 C102.35907288 46.57184143 102.35907288 46.57184143 102.29711914 48.24829102 C102.24715538 49.66393089 102.24715538 49.66393089 102.19618225 51.10816956 C101.97138158 54.42185068 101.46970242 57.71208309 101 61 C67.67 61 34.34 61 0 61 C0 40.87 0 20.74 0 0 Z " fill="#FECE8E" transform="translate(320,129)"/>
<path d="M0 0 C50.82 0 101.64 0 154 0 C154 6.6 154 13.2 154 20 C146.96028488 19.61507584 139.92093488 19.22415762 132.88183594 18.828125 C130.49650674 18.69471589 128.11109166 18.56283182 125.72558594 18.43261719 C113.5664526 17.76790426 101.44880823 17.02934638 89.33969116 15.73060608 C80.21626867 14.77102842 71.06945838 14.26451753 61.91259766 13.73794556 C41.2346378 12.54362801 20.61620932 10.99036872 0 9 C0 6.03 0 3.06 0 0 Z " fill="#FDAA3A" transform="translate(38,191)"/>
<path d="M0 0 C4.10338177 0.43294767 7.09904004 2.01542407 10.64453125 3.9765625 C29.74158865 13.97440769 50.93194814 19.34904076 72.33203125 21.3515625 C72.33203125 24.9815625 72.33203125 28.6115625 72.33203125 32.3515625 C62.75072923 31.81303499 53.69045259 30.12561533 44.39453125 27.8515625 C43.67369354 27.67715637 42.95285583 27.50275024 42.21017456 27.32305908 C6.5984797 18.61801095 6.5984797 18.61801095 -4.66796875 7.3515625 C-4.85546875 4.9140625 -4.85546875 4.9140625 -4.66796875 2.3515625 C-2.66796875 0.3515625 -2.66796875 0.3515625 0 0 Z " fill="#9D3E40" transform="translate(134.66796875,88.6484375)"/>
<path d="M0 0 C2 2 2 2 2.3359375 4.44921875 C2 7 2 7 0.6640625 8.51953125 C-20.10829522 21.69127532 -50.26302617 32 -75 32 C-75 28.37 -75 24.74 -75 21 C-73.42734375 20.78085938 -71.8546875 20.56171875 -70.234375 20.3359375 C-49.35698078 17.29651171 -27.62530547 12.7109798 -9.2265625 1.8125 C-5.74534615 -0.14305011 -3.92121751 -0.54714663 0 0 Z " fill="#9D3E40" transform="translate(380,89)"/>
</svg>
