<?xml version="1.0" encoding="UTF-8"?>
<svg version="1.1" xmlns="http://www.w3.org/2000/svg" width="512" height="512">
<path d="M0 0 C1.07121094 0.73347656 2.14242187 1.46695313 3.24609375 2.22265625 C37.25274304 26.97406266 59.68858489 64.98066515 66.24609375 106.36328125 C72.11273666 147.62937582 62.86170008 191.01405999 37.66796875 224.59765625 C33.4746155 230.02536227 28.96386772 235.18264044 24.44628906 240.34033203 C17.86408692 247.89364232 11.62401737 255.70287604 5.55078125 263.66796875 C2.98260742 267.03333215 0.37095078 270.36315851 -2.25 273.6875 C-6.5212478 279.10861086 -10.76637178 284.5494621 -15 290 C-19.58728768 295.9051106 -24.19057189 301.7969281 -28.81640625 307.671875 C-32.56255732 312.43374633 -36.28304211 317.21531987 -40 322 C-44.58398478 327.90076659 -49.17528044 333.79529875 -53.80981445 339.65649414 C-56.41140015 342.95285122 -58.97447178 346.27488935 -61.51171875 349.62109375 C-62.12144531 350.41966797 -62.73117187 351.21824219 -63.359375 352.04101562 C-64.53939596 353.58790207 -65.71306264 355.13966625 -66.87890625 356.69726562 C-71.55347298 362.8038299 -77.20860756 370.06505155 -85 372 C-92.59697577 372.91248592 -99.60260185 372.43360173 -106 368 C-109.00604189 365.24890841 -111.49508275 362.20780363 -114 359 C-114.73605469 358.0615625 -115.47210938 357.123125 -116.23046875 356.15625 C-117.89014448 354.01193812 -119.54030829 351.86277153 -121.1796875 349.703125 C-124.33638177 345.54684848 -127.54230093 341.42946809 -130.75 337.3125 C-131.94924545 335.77215621 -133.14846391 334.23179139 -134.34765625 332.69140625 C-134.94980957 331.91812988 -135.55196289 331.14485352 -136.17236328 330.34814453 C-137.98986598 328.01302017 -139.80575788 325.6766529 -141.62109375 323.33984375 C-146.89836793 316.54747653 -152.17972897 309.75876555 -157.5 303 C-163.43274019 295.46316591 -169.31721918 287.88902129 -175.20166016 280.31445312 C-176.97104443 278.03726566 -178.74120248 275.76068243 -180.51171875 273.484375 C-181.08809082 272.74324463 -181.66446289 272.00211426 -182.25830078 271.23852539 C-183.41624295 269.75027592 -184.57476853 268.2624802 -185.73388672 266.77514648 C-188.75305703 262.89923043 -191.7591214 259.01407972 -194.74609375 255.11328125 C-195.36419922 254.30955078 -195.98230469 253.50582031 -196.61914062 252.67773438 C-197.78991768 251.15484391 -198.95689558 249.62902127 -200.11914062 248.09960938 C-203.29579108 243.97720944 -206.64254351 240.26837623 -210.3684082 236.63745117 C-232.61850561 214.30744919 -244.63830617 181.56440675 -249 151 C-249.19722656 149.72576172 -249.19722656 149.72576172 -249.3984375 148.42578125 C-254.64587461 107.7935993 -241.72076522 65.72999495 -217.125 33.4375 C-210.46318426 24.85517218 -203.41187609 16.90692651 -195 10 C-194.26394531 9.37609375 -193.52789062 8.7521875 -192.76953125 8.109375 C-138.10906544 -37.18836828 -58.21256661 -40.15154047 0 0 Z M-171 81 C-180.20474335 92.6702996 -183.26696177 105.30324346 -182 120 C-178.60679418 144.23718441 -160.33480755 162.79082666 -141.80859375 177.046875 C-137.81278544 180.12583334 -133.90439472 183.30639447 -130 186.5 C-124.48727663 191.00002056 -118.92886273 195.43260979 -113.31982422 199.81176758 C-106.13095941 205.43895614 -99.06995109 211.22467632 -92 217 C-88.70558199 215.41792023 -86.1753042 213.61470133 -83.375 211.25 C-78.46623198 207.17565736 -73.47924828 203.22097897 -68.4375 199.3125 C-67.6741333 198.72025635 -66.9107666 198.1280127 -66.12426758 197.51782227 C-62.95302173 195.05927514 -59.77967583 192.60344556 -56.60644531 190.14746094 C-44.28876967 180.61589224 -44.28876967 180.61589224 -32.1875 170.8125 C-30.88719769 169.73510666 -29.57782198 168.6682887 -28.25 167.625 C-14.74998351 156.93748694 -3.03014172 139.00998003 0 122 C0.2788715 119.03485607 0.33450471 116.1020141 0.3125 113.125 C0.30758545 112.33488525 0.3026709 111.54477051 0.29760742 110.73071289 C0.17764118 104.74532026 -0.53019364 99.50956802 -3 94 C-3.32871094 93.25878906 -3.65742188 92.51757812 -3.99609375 91.75390625 C-9.99973632 79.76739496 -20.3387244 70.1826966 -32.9375 65.625 C-45.92624563 61.81254734 -59.35833995 62.41740587 -71.6875 68.375 C-78.81018039 72.63123584 -84.38201316 78.98009041 -90 85 C-93.36081523 83.87972826 -93.97429735 83.06597578 -96.125 80.375 C-105.39315327 69.60390296 -116.92987404 64.14953581 -131.1328125 62.796875 C-146.59000956 62.43317625 -160.65943082 69.72480245 -171 81 Z " fill="#D50000" transform="translate(347,84)"/>
</svg>
