<?xml version="1.0" encoding="UTF-8"?>
<svg version="1.1" xmlns="http://www.w3.org/2000/svg" width="512" height="512">
<path d="M0 0 C3.20979811 1.98211892 4.97613388 3.69645049 6.3125 7.3125 C6.823637 10.64000187 7.12328346 13.95227525 7.3125 17.3125 C7.745625 16.838125 8.17875 16.36375 8.625 15.875 C11.92743483 12.81718997 15.76954629 12.97293504 20.03515625 13.03515625 C24.93001233 13.6312708 27.98535751 16.78822894 31.125 20.3125 C32.97902979 22.85516943 33.9595593 24.25368058 34.3125 27.3125 C34.9725 27.3125 35.6325 27.3125 36.3125 27.3125 C36.4775 26.466875 36.6425 25.62125 36.8125 24.75 C39.03828608 19.64924023 43.3142228 15.8116386 48.3125 13.3125 C53.74192153 12.75782432 57.86084818 12.83464702 62.3125 16.3125 C62.6425 16.6425 62.9725 16.9725 63.3125 17.3125 C63.34988281 16.64863281 63.38726562 15.98476563 63.42578125 15.30078125 C64.13317586 5.79950067 64.13317586 5.79950067 67.3125 2.3125 C72.94613644 -2.17958379 78.97954393 -2.12885073 85.9453125 -2.12109375 C90.51553895 -1.53258431 93.77171811 0.28531207 97.5625 2.8125 C100.38934919 6.85085598 100.68148775 11.49688017 101.3125 16.3125 C102.240625 15.57 102.240625 15.57 103.1875 14.8125 C107.61496492 12.68731684 111.48251084 12.63583485 116.3125 13.3125 C122.25223602 16.05391662 126.41207251 21.51164503 129.3125 27.3125 C129.74949219 26.53326172 129.74949219 26.53326172 130.1953125 25.73828125 C133.36789156 20.34090618 136.57911952 16.17919024 142.3125 13.3125 C147.74192153 12.75782432 151.86084818 12.83464702 156.3125 16.3125 C156.6425 16.6425 156.9725 16.9725 157.3125 17.3125 C157.34988281 16.64863281 157.38726562 15.98476563 157.42578125 15.30078125 C158.13317586 5.79950067 158.13317586 5.79950067 161.3125 2.3125 C166.94613644 -2.17958379 172.97954393 -2.12885073 179.9453125 -2.12109375 C184.51553895 -1.53258431 187.77171811 0.28531207 191.5625 2.8125 C194.38934919 6.85085598 194.68148775 11.49688017 195.3125 16.3125 C195.93125 15.8175 196.55 15.3225 197.1875 14.8125 C201.61496492 12.68731684 205.48251084 12.63583485 210.3125 13.3125 C216.25223602 16.05391662 220.41207251 21.51164503 223.3125 27.3125 C223.74949219 26.53326172 223.74949219 26.53326172 224.1953125 25.73828125 C227.36789156 20.34090618 230.57911952 16.17919024 236.3125 13.3125 C241.74192153 12.75782432 245.86084818 12.83464702 250.3125 16.3125 C250.6425 16.6425 250.9725 16.9725 251.3125 17.3125 C251.34988281 16.64863281 251.38726562 15.98476563 251.42578125 15.30078125 C252.13317586 5.79950067 252.13317586 5.79950067 255.3125 2.3125 C260.94613644 -2.17958379 266.97954393 -2.12885073 273.9453125 -2.12109375 C278.51553895 -1.53258431 281.77171811 0.28531207 285.5625 2.8125 C288.38934919 6.85085598 288.68148775 11.49688017 289.3125 16.3125 C289.93125 15.8175 290.55 15.3225 291.1875 14.8125 C295.61496492 12.68731684 299.48251084 12.63583485 304.3125 13.3125 C310.25223602 16.05391662 314.41207251 21.51164503 317.3125 27.3125 C317.74949219 26.53326172 317.74949219 26.53326172 318.1953125 25.73828125 C321.36789156 20.34090618 324.57911952 16.17919024 330.3125 13.3125 C335.74192153 12.75782432 339.86084818 12.83464702 344.3125 16.3125 C344.6425 16.6425 344.9725 16.9725 345.3125 17.3125 C345.34988281 16.64863281 345.38726562 15.98476563 345.42578125 15.30078125 C346.13317586 5.79950067 346.13317586 5.79950067 349.3125 2.3125 C354.94613644 -2.17958379 360.97954393 -2.12885073 367.9453125 -2.12109375 C372.51553895 -1.53258431 375.77171811 0.28531207 379.5625 2.8125 C382.38934919 6.85085598 382.68148775 11.49688017 383.3125 16.3125 C383.93125 15.8175 384.55 15.3225 385.1875 14.8125 C389.61496492 12.68731684 393.48251084 12.63583485 398.3125 13.3125 C403.79852276 15.84451051 407.1443922 20.28686971 410.3125 25.3125 C412.17216547 30.8914964 412.32635245 37.15806355 409.8125 42.5 C409.07 43.3971875 409.07 43.3971875 408.3125 44.3125 C411.2825 44.6425 414.2525 44.9725 417.3125 45.3125 C417.6125449 51.44611008 417.82840602 57.57532282 417.97167969 63.71459961 C418.0314766 65.79543561 418.11295547 67.87577955 418.21777344 69.95483398 C418.75734222 80.94458054 419.15100528 90.00721427 411.703125 98.71484375 C409.05534506 101.57115376 406.32575043 104.35721979 403.49188519 107.02895355 C396.91090468 114.09641586 397.32875718 121.65201849 397.42602539 130.75610352 C397.41812727 132.41259933 397.40715981 134.0690829 397.39337158 135.72554016 C397.36475028 140.20042181 397.37882809 144.67425226 397.40081334 149.14913297 C397.41648787 153.83370964 397.3925611 158.51808378 397.37290955 163.20262146 C397.3417171 172.06351798 397.34592597 180.92402665 397.36298412 189.78494734 C397.38067881 199.87694155 397.35870967 209.96872895 397.33347714 220.06069291 C397.28248012 240.81136683 397.28107093 261.56179791 397.3125 282.3125 C398.39917969 282.26738281 399.48585938 282.22226562 400.60546875 282.17578125 C405.45232342 282.35453774 407.01057088 283.85699278 410.3125 287.3125 C412.59467964 290.98383247 412.58925774 294.22172558 411.9140625 298.3828125 C410.88313458 301.68981503 409.02457711 303.26337507 406.3125 305.3125 C404.32685759 306.02078573 402.32782034 306.69368794 400.3125 307.3125 C400.34472656 308.4984375 400.37695312 309.684375 400.41015625 310.90625 C400.42996472 323.62989153 397.45211933 331.85548179 390.3125 342.3125 C391.25351562 342.75207031 392.19453125 343.19164062 393.1640625 343.64453125 C397.04932962 345.70285515 398.38133493 347.37589428 400.3125 351.3125 C401.18808846 355.78872262 400.66750404 358.62784935 398.5625 362.6875 C396.46056097 365.1397622 395.34918129 366.3635371 392.3125 367.3125 C390.9925 367.3125 389.6725 367.3125 388.3125 367.3125 C388.3125 393.0525 388.3125 418.7925 388.3125 445.3125 C392.9325 445.3125 397.5525 445.3125 402.3125 445.3125 C410.30975275 449.31112637 410.30975275 449.31112637 411.8828125 454.01953125 C412.45279335 457.06115635 412.40592192 459.97030764 412.375 463.0625 C412.36597656 464.23296875 412.35695313 465.4034375 412.34765625 466.609375 C412.33025391 467.94742188 412.33025391 467.94742188 412.3125 469.3125 C413.24578125 469.43367188 414.1790625 469.55484375 415.140625 469.6796875 C419.32859327 470.51521812 420.70060828 471.9750828 423.3125 475.3125 C425.3125 482.3125 425.3125 482.3125 425.3125 510.3125 C389.3425 510.3125 353.3725 510.3125 316.3125 510.3125 C316.3125 477.3125 316.3125 477.3125 319.3125 472.3125 C322.56421122 470.34792447 324.49942647 469.3125 328.3125 469.3125 C328.28929687 468.52746094 328.26609375 467.74242187 328.2421875 466.93359375 C328.04567591 455.49381219 328.04567591 455.49381219 330.3125 450.3125 C337.28383245 443.51991966 341.49481489 445.3125 352.3125 445.3125 C352.3125 419.5725 352.3125 393.8325 352.3125 367.3125 C350.3325 366.9825 348.3525 366.6525 346.3125 366.3125 C343.51829072 364.26341319 341.62038308 362.76290572 340.88012695 359.27563477 C340.69091797 357.28792318 340.50170898 355.30021159 340.3125 353.3125 C339.25675781 353.16554688 338.20101563 353.01859375 337.11328125 352.8671875 C313.18952443 349.32708478 290.60794587 341.69566748 269.3125 330.3125 C268.69600586 329.98491699 268.07951172 329.65733398 267.44433594 329.31982422 C258.82552078 324.69717269 250.97724071 319.38743873 243.3125 313.3125 C242.4565625 312.66152344 241.600625 312.01054687 240.71875 311.33984375 C214.13666642 290.56258264 195.87095327 263.23742333 180.75 233.5 C180.22962158 232.48595093 180.22962158 232.48595093 179.69873047 231.45141602 C178.24749198 228.54410406 177.3125 226.60726109 177.3125 223.3125 C176.6525 223.3125 175.9925 223.3125 175.3125 223.3125 C175.2196875 223.98667969 175.126875 224.66085938 175.03125 225.35546875 C174.13161704 229.0566761 172.54187866 232.25797708 170.8125 235.625 C170.45575195 236.3250415 170.09900391 237.02508301 169.73144531 237.74633789 C168.60339599 239.9413216 167.46109589 242.12820439 166.3125 244.3125 C165.96123047 244.98313477 165.60996094 245.65376953 165.24804688 246.34472656 C140.10682192 293.87808925 98.44027871 329.39001288 47.15087891 345.66113281 C22.25746855 353.3125 22.25746855 353.3125 12.3125 353.3125 C12.250625 354.529375 12.18875 355.74625 12.125 357 C11.69368104 360.3786652 11.2625346 361.37959639 9.125 364.25 C6.3125 366.3125 6.3125 366.3125 0.3125 367.3125 C0.3125 393.0525 0.3125 418.7925 0.3125 445.3125 C4.9325 445.3125 9.5525 445.3125 14.3125 445.3125 C21.37372449 448.84311224 21.37372449 448.84311224 23.3125 452.3125 C24.28528869 456.13036244 24.4181881 459.69488321 24.375 463.625 C24.36597656 464.69363281 24.35695313 465.76226562 24.34765625 466.86328125 C24.33605469 467.67152344 24.32445313 468.47976563 24.3125 469.3125 C25.199375 469.374375 26.08625 469.43625 27 469.5 C31.08694675 470.50245864 32.61514829 472.15274514 35.3125 475.3125 C40.5321211 485.7517422 36.3125 498.6410724 36.3125 510.3125 C0.3425 510.3125 -35.6275 510.3125 -72.6875 510.3125 C-72.6875 482.3125 -72.6875 482.3125 -69.6875 473.3125 C-66.15993212 470.72981637 -64.07839433 469.3125 -59.6875 469.3125 C-59.73970703 468.02666016 -59.73970703 468.02666016 -59.79296875 466.71484375 C-60.07328405 454.87485951 -60.07328405 454.87485951 -56.6875 449.3125 C-50.39852226 443.41658336 -44.95014973 445.3125 -35.6875 445.3125 C-35.6875 419.5725 -35.6875 393.8325 -35.6875 367.3125 C-37.6675 366.9825 -39.6475 366.6525 -41.6875 366.3125 C-45.73752295 362.80248011 -47.55302398 360.92621226 -48 355.5625 C-47.92769297 351.13570317 -46.65676749 348.67246058 -43.6875 345.3125 C-41.71158838 344.26570811 -39.71343246 343.25886023 -37.6875 342.3125 C-38.32558594 341.37792969 -38.96367188 340.44335938 -39.62109375 339.48046875 C-46.51704635 328.74574614 -48.03140238 319.96810771 -47.6875 307.3125 C-48.61949219 307.02632813 -49.55148438 306.74015625 -50.51171875 306.4453125 C-54.43803136 305.04478279 -56.16374123 303.6294401 -58.6875 300.3125 C-60.07391618 296.18727393 -59.98391718 293.16881629 -58.5625 289.0625 C-56.47964919 286.00765215 -54.87837832 284.198019 -51.6875 282.3125 C-49.35505872 282.24798567 -47.01974763 282.24132812 -44.6875 282.3125 C-44.60775579 260.59788453 -44.57959971 238.8837427 -44.61234188 217.16899395 C-44.62635169 207.08569087 -44.62367563 197.00291452 -44.58129883 186.91967773 C-44.5443925 178.12791682 -44.53922129 169.33679834 -44.57167059 160.54500991 C-44.58774742 155.89238769 -44.5882637 151.24096992 -44.55073357 146.58844566 C-44.51585466 142.2022946 -44.523652 137.81821924 -44.56312943 133.432127 C-44.57022872 131.82902037 -44.5621983 130.22575804 -44.53727531 128.62282944 C-44.39724071 118.95213403 -45.50081186 112.78815204 -52.46058941 105.43524933 C-53.1954699 104.73474205 -53.9303504 104.03423477 -54.6875 103.3125 C-62.37294307 95.53725342 -65.52293058 90.33461868 -65.6640625 79.19921875 C-65.63508736 75.12746507 -65.48198487 71.06795654 -65.3125 67 C-65.26224464 64.89138244 -65.21663403 62.78264881 -65.17578125 60.67382812 C-65.06653586 55.5504766 -64.89454142 50.43279365 -64.6875 45.3125 C-60.2325 44.8175 -60.2325 44.8175 -55.6875 44.3125 C-56.41646484 43.50039062 -56.41646484 43.50039062 -57.16015625 42.671875 C-59.98542701 38.30751813 -59.25399249 33.32080862 -58.6875 28.3125 C-56.92646869 22.00213781 -52.92678449 18.04194142 -47.6875 14.3125 C-44.01099261 12.4742463 -39.70953801 12.93365812 -35.6875 13.3125 C-32.5625 14.8125 -32.5625 14.8125 -30.6875 16.3125 C-30.62433594 15.58804687 -30.56117187 14.86359375 -30.49609375 14.1171875 C-29.8381239 8.92268871 -29.34289588 5.21049899 -25.25 1.6875 C-18.49581808 -3.3599016 -7.54854278 -3.49260935 0 0 Z M222.3125 39.3125 C221.3225 41.2925 220.3325 43.2725 219.3125 45.3125 C221.9525 45.3125 224.5925 45.3125 227.3125 45.3125 C226.00843116 43.29329663 224.67426581 41.29325027 223.3125 39.3125 C222.9825 39.3125 222.6525 39.3125 222.3125 39.3125 Z M316.3125 39.3125 C315.3225 41.2925 314.3325 43.2725 313.3125 45.3125 C315.9525 45.3125 318.5925 45.3125 321.3125 45.3125 C320.00843116 43.29329663 318.67426581 41.29325027 317.3125 39.3125 C316.9825 39.3125 316.6525 39.3125 316.3125 39.3125 Z M34.3125 40.3125 C32.6678326 42.77576712 32.6678326 42.77576712 31.3125 45.3125 C33.9525 45.3125 36.5925 45.3125 39.3125 45.3125 C37.9571674 42.77576712 37.9571674 42.77576712 36.3125 40.3125 C35.6525 40.3125 34.9925 40.3125 34.3125 40.3125 Z M128.3125 40.3125 C126.6678326 42.77576712 126.6678326 42.77576712 125.3125 45.3125 C127.9525 45.3125 130.5925 45.3125 133.3125 45.3125 C131.9571674 42.77576712 131.9571674 42.77576712 130.3125 40.3125 C129.6525 40.3125 128.9925 40.3125 128.3125 40.3125 Z " fill="#FEF9F6" transform="translate(79.6875,1.6875)"/>
<path d="M0 0 C3.23128051 1.42176343 5.35909765 3.16783467 7.875 5.625 C18.11125826 14.9137699 30.39977616 20.97846668 44.1875 21.875 C58.0855164 23.08035057 69.07135938 27.51612015 78.6875 37.75 C85.46079812 45.83775095 89.43265442 55.39996667 89 66 C89.9075 65.9175 90.815 65.835 91.75 65.75 C102.62750019 65.81592424 112.29768409 71.6429415 120 78.87890625 C127.22781147 86.58961029 131.26522763 95.8916965 132.34765625 106.36328125 C133.31584436 115.45082141 133.31584436 115.45082141 138.3671875 122.765625 C142.81023783 126.12448602 146.70597953 126.2798001 152.16162109 126.23950195 C152.98162094 126.24151611 153.80162079 126.24353027 154.64646912 126.24560547 C156.42470335 126.24914725 158.20295018 126.24838847 159.9811821 126.24382973 C162.79771169 126.23823301 165.61383001 126.24740108 168.43032837 126.2610321 C176.43729479 126.29814566 184.44412184 126.31669995 192.45117188 126.30541992 C197.35135342 126.29956337 202.25095645 126.31785598 207.15102005 126.35130882 C209.01607267 126.35925539 210.88118847 126.35799591 212.74622726 126.34728432 C215.35798604 126.33293009 217.96793078 126.34925486 220.57958984 126.37231445 C221.34654678 126.36054672 222.11350372 126.34877899 222.90370178 126.33665466 C228.72797472 126.4372641 231.06753201 128.00351465 235 132 C237.28217964 135.67133247 237.27675774 138.90922558 236.6015625 143.0703125 C235.57063458 146.37731503 233.71207711 147.95087507 231 150 C229.01435759 150.70828573 227.01532034 151.38118794 225 152 C225.03222656 153.1859375 225.06445312 154.371875 225.09765625 155.59375 C225.11746472 168.31739153 222.13961933 176.54298179 215 187 C215.94101562 187.43957031 216.88203125 187.87914062 217.8515625 188.33203125 C221.73682962 190.39035515 223.06883493 192.06339428 225 196 C225.87558846 200.47622262 225.35500404 203.31534935 223.25 207.375 C221.14806097 209.8272622 220.03668129 211.0510371 217 212 C215.68 212 214.36 212 213 212 C213 237.74 213 263.48 213 290 C217.62 290 222.24 290 227 290 C234.99725275 293.99862637 234.99725275 293.99862637 236.5703125 298.70703125 C237.14029335 301.74865635 237.09342192 304.65780764 237.0625 307.75 C237.05347656 308.92046875 237.04445313 310.0909375 237.03515625 311.296875 C237.01775391 312.63492188 237.01775391 312.63492188 237 314 C237.93328125 314.12117188 238.8665625 314.24234375 239.828125 314.3671875 C244.01609327 315.20271812 245.38810828 316.6625828 248 320 C250 327 250 327 250 355 C214.03 355 178.06 355 141 355 C141 322 141 322 144 317 C147.25171122 315.03542447 149.18692647 314 153 314 C152.97679687 313.21496094 152.95359375 312.42992187 152.9296875 311.62109375 C152.73317591 300.18131219 152.73317591 300.18131219 155 295 C161.97133245 288.20741966 166.18231489 290 177 290 C177 264.26 177 238.52 177 212 C175.02 211.67 173.04 211.34 171 211 C168.20579072 208.95091319 166.30788308 207.45040572 165.56762695 203.96313477 C165.37841797 201.97542318 165.18920898 199.98771159 165 198 C163.94425781 197.85304688 162.88851563 197.70609375 161.80078125 197.5546875 C137.87702443 194.01458478 115.29544587 186.38316748 94 175 C93.38350586 174.67241699 92.76701172 174.34483398 92.13183594 174.00732422 C83.51302078 169.38467269 75.66474071 164.07493873 68 158 C67.1440625 157.34902344 66.288125 156.69804687 65.40625 156.02734375 C38.82416642 135.25008264 20.55845327 107.92492333 5.4375 78.1875 C5.09058105 77.51146729 4.74366211 76.83543457 4.38623047 76.13891602 C2.93499198 73.23160406 2 71.29476109 2 68 C1.34 68 0.68 68 0 68 C-0.0928125 68.67417969 -0.185625 69.34835938 -0.28125 70.04296875 C-1.18088296 73.7441761 -2.77062134 76.94547708 -4.5 80.3125 C-4.85674805 81.0125415 -5.21349609 81.71258301 -5.58105469 82.43383789 C-6.70910401 84.6288216 -7.85140411 86.81570439 -9 89 C-9.35126953 89.67063477 -9.70253906 90.34126953 -10.06445312 91.03222656 C-35.20567808 138.56558925 -76.87222129 174.07751288 -128.16162109 190.34863281 C-153.05503145 198 -153.05503145 198 -163 198 C-163.061875 199.216875 -163.12375 200.43375 -163.1875 201.6875 C-163.61881896 205.0661652 -164.0499654 206.06709639 -166.1875 208.9375 C-169 211 -169 211 -175 212 C-175 237.74 -175 263.48 -175 290 C-170.38 290 -165.76 290 -161 290 C-153.93877551 293.53061224 -153.93877551 293.53061224 -152 297 C-151.02721131 300.81786244 -150.8943119 304.38238321 -150.9375 308.3125 C-150.94652344 309.38113281 -150.95554687 310.44976562 -150.96484375 311.55078125 C-150.97644531 312.35902344 -150.98804688 313.16726563 -151 314 C-150.113125 314.061875 -149.22625 314.12375 -148.3125 314.1875 C-144.22555325 315.18995864 -142.69735171 316.84024514 -140 320 C-134.7803789 330.4392422 -139 343.3285724 -139 355 C-174.97 355 -210.94 355 -248 355 C-248 327 -248 327 -245 318 C-241.47243212 315.41731637 -239.39089433 314 -235 314 C-235.05220703 312.71416016 -235.05220703 312.71416016 -235.10546875 311.40234375 C-235.38578405 299.56235951 -235.38578405 299.56235951 -232 294 C-225.71102226 288.10408336 -220.26264973 290 -211 290 C-211 264.26 -211 238.52 -211 212 C-212.98 211.67 -214.96 211.34 -217 211 C-221.05002295 207.48998011 -222.86552398 205.61371226 -223.3125 200.25 C-223.24019297 195.82320317 -221.96926749 193.35996058 -219 190 C-217.02408838 188.95320811 -215.02593246 187.94636023 -213 187 C-213.63808594 186.06542969 -214.27617187 185.13085938 -214.93359375 184.16796875 C-221.82954635 173.43324614 -223.34390238 164.65560771 -223 152 C-223.93199219 151.71382812 -224.86398438 151.42765625 -225.82421875 151.1328125 C-229.75053136 149.73228279 -231.47624123 148.3169401 -234 145 C-235.38641618 140.87477393 -235.29641718 137.85631629 -233.875 133.75 C-231.77465787 130.66949822 -230.14568387 129.01570053 -227 127 C-224.11071054 126.62466088 -221.60771462 126.47507379 -218.72485352 126.51757812 C-217.4946347 126.51170937 -217.4946347 126.51170937 -216.23956299 126.50572205 C-214.46407907 126.49975754 -212.68854616 126.50289815 -210.91308784 126.5141449 C-208.10048661 126.5314246 -205.28891162 126.52388956 -202.4763031 126.5098877 C-195.49191847 126.48025505 -188.50773064 126.49342382 -181.52331543 126.50506592 C-175.61871991 126.51327435 -169.71457315 126.50531155 -163.81004143 126.47593689 C-161.04345015 126.46885128 -158.27765233 126.48550988 -155.51112366 126.50305176 C-153.80892513 126.49734271 -152.10672983 126.49052485 -150.40454102 126.48242188 C-149.63915512 126.49373642 -148.87376923 126.50505096 -148.08518982 126.51670837 C-142.90146171 126.45785124 -140.00385109 125.24888482 -136 122 C-131.67577813 117.3154263 -131.35257526 112.58332115 -130.54296875 106.5078125 C-128.52721972 93.48520363 -123.44333014 82.95823884 -113.16796875 74.53125 C-105.32147848 68.98922444 -96.70866887 65.51456656 -87 66 C-87.0825 65.0925 -87.165 64.185 -87.25 63.25 C-87.18324125 52.23480663 -81.24326741 42.45073482 -73.828125 34.7421875 C-69.31241878 30.5223379 -64.76805587 27.2536698 -59 25 C-58.11699219 24.65324219 -57.23398438 24.30648437 -56.32421875 23.94921875 C-52.20666552 22.77346618 -48.25457659 22.50533133 -44 22.1875 C-26.13267968 20.51404781 -12.16174474 13.29306983 0 0 Z " fill="#FEB2CC" transform="translate(255,157)"/>
<path d="M0 0 C3.20979811 1.98211892 4.97613388 3.69645049 6.3125 7.3125 C6.823637 10.64000187 7.12328346 13.95227525 7.3125 17.3125 C7.745625 16.838125 8.17875 16.36375 8.625 15.875 C11.92743483 12.81718997 15.76954629 12.97293504 20.03515625 13.03515625 C24.93001233 13.6312708 27.98535751 16.78822894 31.125 20.3125 C32.97902979 22.85516943 33.9595593 24.25368058 34.3125 27.3125 C34.9725 27.3125 35.6325 27.3125 36.3125 27.3125 C36.4775 26.466875 36.6425 25.62125 36.8125 24.75 C39.03828608 19.64924023 43.3142228 15.8116386 48.3125 13.3125 C53.74192153 12.75782432 57.86084818 12.83464702 62.3125 16.3125 C62.6425 16.6425 62.9725 16.9725 63.3125 17.3125 C63.34988281 16.64863281 63.38726562 15.98476563 63.42578125 15.30078125 C64.13317586 5.79950067 64.13317586 5.79950067 67.3125 2.3125 C72.94613644 -2.17958379 78.97954393 -2.12885073 85.9453125 -2.12109375 C90.51553895 -1.53258431 93.77171811 0.28531207 97.5625 2.8125 C100.38934919 6.85085598 100.68148775 11.49688017 101.3125 16.3125 C102.240625 15.57 102.240625 15.57 103.1875 14.8125 C107.61496492 12.68731684 111.48251084 12.63583485 116.3125 13.3125 C122.25223602 16.05391662 126.41207251 21.51164503 129.3125 27.3125 C129.74949219 26.53326172 129.74949219 26.53326172 130.1953125 25.73828125 C133.36789156 20.34090618 136.57911952 16.17919024 142.3125 13.3125 C147.74192153 12.75782432 151.86084818 12.83464702 156.3125 16.3125 C156.6425 16.6425 156.9725 16.9725 157.3125 17.3125 C157.34988281 16.64863281 157.38726562 15.98476563 157.42578125 15.30078125 C158.13317586 5.79950067 158.13317586 5.79950067 161.3125 2.3125 C166.94613644 -2.17958379 172.97954393 -2.12885073 179.9453125 -2.12109375 C184.51553895 -1.53258431 187.77171811 0.28531207 191.5625 2.8125 C194.38934919 6.85085598 194.68148775 11.49688017 195.3125 16.3125 C195.93125 15.8175 196.55 15.3225 197.1875 14.8125 C201.61496492 12.68731684 205.48251084 12.63583485 210.3125 13.3125 C216.25223602 16.05391662 220.41207251 21.51164503 223.3125 27.3125 C223.74949219 26.53326172 223.74949219 26.53326172 224.1953125 25.73828125 C227.36789156 20.34090618 230.57911952 16.17919024 236.3125 13.3125 C241.74192153 12.75782432 245.86084818 12.83464702 250.3125 16.3125 C250.6425 16.6425 250.9725 16.9725 251.3125 17.3125 C251.34988281 16.64863281 251.38726562 15.98476563 251.42578125 15.30078125 C252.13317586 5.79950067 252.13317586 5.79950067 255.3125 2.3125 C260.94613644 -2.17958379 266.97954393 -2.12885073 273.9453125 -2.12109375 C278.51553895 -1.53258431 281.77171811 0.28531207 285.5625 2.8125 C288.38934919 6.85085598 288.68148775 11.49688017 289.3125 16.3125 C289.93125 15.8175 290.55 15.3225 291.1875 14.8125 C295.61496492 12.68731684 299.48251084 12.63583485 304.3125 13.3125 C310.25223602 16.05391662 314.41207251 21.51164503 317.3125 27.3125 C317.74949219 26.53326172 317.74949219 26.53326172 318.1953125 25.73828125 C321.36789156 20.34090618 324.57911952 16.17919024 330.3125 13.3125 C335.74192153 12.75782432 339.86084818 12.83464702 344.3125 16.3125 C344.6425 16.6425 344.9725 16.9725 345.3125 17.3125 C345.34988281 16.64863281 345.38726562 15.98476563 345.42578125 15.30078125 C346.13317586 5.79950067 346.13317586 5.79950067 349.3125 2.3125 C354.94613644 -2.17958379 360.97954393 -2.12885073 367.9453125 -2.12109375 C372.51553895 -1.53258431 375.77171811 0.28531207 379.5625 2.8125 C382.38934919 6.85085598 382.68148775 11.49688017 383.3125 16.3125 C383.93125 15.8175 384.55 15.3225 385.1875 14.8125 C389.61496492 12.68731684 393.48251084 12.63583485 398.3125 13.3125 C403.79852276 15.84451051 407.1443922 20.28686971 410.3125 25.3125 C412.17216547 30.8914964 412.32635245 37.15806355 409.8125 42.5 C409.07 43.3971875 409.07 43.3971875 408.3125 44.3125 C411.2825 44.6425 414.2525 44.9725 417.3125 45.3125 C417.6125449 51.44611008 417.82840602 57.57532282 417.97167969 63.71459961 C418.0314766 65.79543561 418.11295547 67.87577955 418.21777344 69.95483398 C418.76632184 81.12747428 419.07861925 90.09173376 411.52734375 98.94140625 C409.97996045 100.62502344 408.40095986 102.25136471 406.76469421 103.84851074 C404.66609245 105.96415782 402.90475857 108.30253689 401.125 110.6875 C398.41006098 114.21493902 398.41006098 114.21493902 397.3125 115.3125 C394.96763607 115.41852922 392.65186011 115.45902719 390.30612755 115.45789433 C389.18815079 115.46322025 389.18815079 115.46322025 388.04758865 115.46865377 C385.51815907 115.47942923 382.98876934 115.48297696 380.45932007 115.48658752 C378.64028268 115.49274495 376.82124666 115.49932056 375.00221217 115.50628132 C369.97849617 115.52413873 364.95478271 115.53554629 359.93104625 115.545838 C355.62823546 115.55545374 351.32543934 115.56877013 347.02263872 115.58210696 C331.6062602 115.62976604 316.18986089 115.66234662 300.7734375 115.69140625 C299.55747408 115.69371383 298.34151067 115.69602141 297.08869988 115.69839892 C272.96051981 115.74382724 248.83233077 115.78237187 224.70412254 115.80912876 C219.39568444 115.81511825 214.08724647 115.82120385 208.77880859 115.82739258 C207.45935854 115.82892556 206.13990848 115.83045854 204.78047509 115.83203798 C183.40036196 115.85743649 162.02045648 115.91464252 140.64044373 115.98385788 C118.70797072 116.05427726 96.77559959 116.09455522 74.84301531 116.10587829 C62.52140642 116.1130468 50.2001395 116.13388381 37.87864304 116.18890572 C27.38581408 116.23572744 16.89337849 116.25565282 6.40044872 116.24002422 C1.04444492 116.23290029 -4.31071601 116.23886869 -9.66658783 116.27960205 C-14.56853352 116.31658799 -19.46904244 116.31677369 -24.3710274 116.28747844 C-26.14569593 116.28339671 -27.92045764 116.2928996 -29.69496389 116.31724424 C-42.97326994 116.48850483 -42.97326994 116.48850483 -47.25701213 113.54975021 C-49.0378194 111.54905469 -50.37752174 109.63989574 -51.6875 107.3125 C-52.30802246 106.53334229 -52.92854492 105.75418457 -53.56787109 104.95141602 C-54.02758301 104.32936279 -54.48729492 103.70730957 -54.9609375 103.06640625 C-55.47527344 102.37482422 -55.98960938 101.68324219 -56.51953125 100.97070312 C-57.02871094 100.27912109 -57.53789063 99.58753906 -58.0625 98.875 C-59.11135496 97.45917279 -60.16080178 96.04378377 -61.2109375 94.62890625 C-61.66388184 94.01474854 -62.11682617 93.40059082 -62.58349609 92.76782227 C-63.61467531 91.33999317 -63.61467531 91.33999317 -64.6875 90.3125 C-64.7803726 88.90024954 -64.80496772 87.48341066 -64.80102539 86.06811523 C-64.80094986 85.16725693 -64.80087433 84.26639862 -64.80079651 83.33824158 C-64.79563522 82.35908279 -64.79047394 81.37992401 -64.78515625 80.37109375 C-64.7837413 79.37368668 -64.78232635 78.3762796 -64.78086853 77.34864807 C-64.77525114 74.14906876 -64.76269571 70.94955831 -64.75 67.75 C-64.74498724 65.58658955 -64.74042395 63.42317801 -64.73632812 61.25976562 C-64.72527606 55.94398371 -64.70799979 50.62825354 -64.6875 45.3125 C-60.2325 44.8175 -60.2325 44.8175 -55.6875 44.3125 C-56.17347656 43.77109375 -56.65945312 43.2296875 -57.16015625 42.671875 C-59.98542701 38.30751813 -59.25399249 33.32080862 -58.6875 28.3125 C-56.92646869 22.00213781 -52.92678449 18.04194142 -47.6875 14.3125 C-44.01099261 12.4742463 -39.70953801 12.93365812 -35.6875 13.3125 C-32.5625 14.8125 -32.5625 14.8125 -30.6875 16.3125 C-30.62433594 15.58804687 -30.56117187 14.86359375 -30.49609375 14.1171875 C-29.8381239 8.92268871 -29.34289588 5.21049899 -25.25 1.6875 C-18.49581808 -3.3599016 -7.54854278 -3.49260935 0 0 Z M222.3125 39.3125 C221.3225 41.2925 220.3325 43.2725 219.3125 45.3125 C221.9525 45.3125 224.5925 45.3125 227.3125 45.3125 C226.00843116 43.29329663 224.67426581 41.29325027 223.3125 39.3125 C222.9825 39.3125 222.6525 39.3125 222.3125 39.3125 Z M316.3125 39.3125 C315.3225 41.2925 314.3325 43.2725 313.3125 45.3125 C315.9525 45.3125 318.5925 45.3125 321.3125 45.3125 C320.00843116 43.29329663 318.67426581 41.29325027 317.3125 39.3125 C316.9825 39.3125 316.6525 39.3125 316.3125 39.3125 Z M34.3125 40.3125 C32.6678326 42.77576712 32.6678326 42.77576712 31.3125 45.3125 C33.9525 45.3125 36.5925 45.3125 39.3125 45.3125 C37.9571674 42.77576712 37.9571674 42.77576712 36.3125 40.3125 C35.6525 40.3125 34.9925 40.3125 34.3125 40.3125 Z M128.3125 40.3125 C126.6678326 42.77576712 126.6678326 42.77576712 125.3125 45.3125 C127.9525 45.3125 130.5925 45.3125 133.3125 45.3125 C131.9571674 42.77576712 131.9571674 42.77576712 130.3125 40.3125 C129.6525 40.3125 128.9925 40.3125 128.3125 40.3125 Z " fill="#FEED92" transform="translate(79.6875,1.6875)"/>
<path d="M0 0 C15.08363158 0.21299095 27.69662334 2.96967842 38.86328125 13.80859375 C45.81816552 21.21025859 50.79895609 30.66711679 51.125 40.9375 C51.08375 41.948125 51.0425 42.95875 51 44 C51.9075 43.9175 52.815 43.835 53.75 43.75 C64.62750019 43.81592424 74.29768409 49.6429415 82 56.87890625 C89.22781147 64.58961029 93.26522763 73.8916965 94.34765625 84.36328125 C95.31584436 93.45082141 95.31584436 93.45082141 100.3671875 100.765625 C104.81023783 104.12448602 108.70597953 104.2798001 114.16162109 104.23950195 C114.98162094 104.24151611 115.80162079 104.24353027 116.64646912 104.24560547 C118.42470335 104.24914725 120.20295018 104.24838847 121.9811821 104.24382973 C124.79771169 104.23823301 127.61383001 104.24740108 130.43032837 104.2610321 C138.43729479 104.29814566 146.44412184 104.31669995 154.45117188 104.30541992 C159.35135342 104.29956337 164.25095645 104.31785598 169.15102005 104.35130882 C171.01607267 104.35925539 172.88118847 104.35799591 174.74622726 104.34728432 C177.35798604 104.33293009 179.96793078 104.34925486 182.57958984 104.37231445 C183.34654678 104.36054672 184.11350372 104.34877899 184.90370178 104.33665466 C190.72797472 104.4372641 193.06753201 106.00351465 197 110 C199.28164215 113.67046781 199.28049826 116.91047035 198.59765625 121.0703125 C197.56050821 124.41901272 195.77142054 125.95155873 193 128 C186.38695384 130.62487932 179.87190772 130.16336325 172.84765625 129.9765625 C171.59238632 129.95153656 170.33711639 129.92651062 169.04380798 129.90072632 C165.72770739 129.83271393 162.41208533 129.7555157 159.09631348 129.67376709 C155.70434724 129.59243401 152.31213381 129.52331205 148.91992188 129.453125 C142.27966481 129.31327234 135.63976901 129.16129304 129 129 C128.75746209 144.4032687 128.75746209 144.4032687 134.5625 158.25 C134.98724609 158.92289063 135.41199219 159.59578125 135.84960938 160.2890625 C136.86307768 161.88328231 137.92572796 163.44610348 139 165 C138.01 165.66 137.02 166.32 136 167 C135.11570312 167.60070312 134.23140625 168.20140625 133.3203125 168.8203125 C129.45352473 170.19415945 127.76189372 169.64900652 124.08911133 167.97924805 C123.35845459 167.61484619 122.62779785 167.25044434 121.875 166.875 C121.09729248 166.50608643 120.31958496 166.13717285 119.51831055 165.75708008 C116.99348292 164.53903867 114.49524746 163.27747119 112 162 C111.15937012 161.57283691 110.31874023 161.14567383 109.45263672 160.70556641 C97.86940316 154.75094605 87.21256631 148.07554871 77 140 C75.98164063 139.20464844 74.96328125 138.40929687 73.9140625 137.58984375 C68.23653903 133.05560241 63.02961473 128.23773672 58 123 C57.154375 122.154375 56.30875 121.30875 55.4375 120.4375 C54.633125 119.633125 53.82875 118.82875 53 118 C52.22644165 117.25472046 52.22644165 117.25472046 51.43725586 116.49438477 C47.25919785 112.42410941 43.59351017 108.18540835 40.125 103.5 C39.6103418 102.80712891 39.09568359 102.11425781 38.56542969 101.40039062 C18.22071316 73.59215611 0 34.96566093 0 0 Z " fill="#FF3E80" transform="translate(293,179)"/>
<path d="M0 0 C-5.14136347 42.67331684 -21.30667681 81.16439629 -49 114 C-49.53238281 114.65613281 -50.06476563 115.31226563 -50.61328125 115.98828125 C-53.68756577 119.72548427 -57.01123429 122.88753364 -60.70703125 126.0078125 C-62.35010255 127.43535315 -63.94730087 128.91636258 -65.51171875 130.4296875 C-78.53877581 142.96618593 -93.95580549 152.76011639 -110 161 C-110.82773926 161.4345752 -111.65547852 161.86915039 -112.50830078 162.31689453 C-115.15430582 163.68837385 -117.82116356 165.00647175 -120.5 166.3125 C-121.32491943 166.74079102 -122.14983887 167.16908203 -122.99975586 167.61035156 C-128.81116899 170.33417511 -128.81116899 170.33417511 -132.37109375 169.33349609 C-134.36809613 168.34245295 -136.1833823 167.28885894 -138 166 C-137.22733228 163.06386266 -136.41611542 160.54763964 -134.56640625 158.11328125 C-129.94796246 151.94428079 -129.4975949 146.6006454 -129.31640625 139.12890625 C-129.28196411 138.15409302 -129.24752197 137.17927979 -129.21203613 136.17492676 C-129.12926686 133.78340756 -129.05894857 131.39220507 -129 129 C-130.06995712 129.02545395 -130.06995712 129.02545395 -131.16152954 129.05142212 C-137.89945143 129.20982345 -144.63751274 129.35798157 -151.37590981 129.49477577 C-154.83979082 129.56545266 -158.30349499 129.64002104 -161.76708984 129.72363281 C-165.75336464 129.81968856 -169.73989219 129.89854885 -173.7265625 129.9765625 C-175.58312973 130.02485703 -175.58312973 130.02485703 -177.47720337 130.0741272 C-179.21832901 130.10438492 -179.21832901 130.10438492 -180.99462891 130.13525391 C-182.01166901 130.15746002 -183.02870911 130.17966614 -184.0765686 130.20254517 C-188.74105628 129.87937376 -192.0888372 128.68843411 -195.8125 125.875 C-198.56834905 122.25302696 -199.3017993 119.51811303 -199 115 C-197.3575234 110.2550676 -195.2048507 107.69439656 -191 105 C-188.11071054 104.62466088 -185.60771462 104.47507379 -182.72485352 104.51757812 C-181.4946347 104.51170937 -181.4946347 104.51170937 -180.23956299 104.50572205 C-178.46407907 104.49975754 -176.68854616 104.50289815 -174.91308784 104.5141449 C-172.10048661 104.5314246 -169.28891162 104.52388956 -166.4763031 104.5098877 C-159.49191847 104.48025505 -152.50773064 104.49342382 -145.52331543 104.50506592 C-139.61871991 104.51327435 -133.71457315 104.50531155 -127.81004143 104.47593689 C-125.04345015 104.46885128 -122.27765233 104.48550988 -119.51112366 104.50305176 C-117.80892513 104.49734271 -116.10672983 104.49052485 -114.40454102 104.48242188 C-113.63915512 104.49373642 -112.87376923 104.50505096 -112.08518982 104.51670837 C-106.90146171 104.45785124 -104.00385109 103.24888482 -100 100 C-95.67577813 95.3154263 -95.35257526 90.58332115 -94.54296875 84.5078125 C-92.52721972 71.48520363 -87.44333014 60.95823884 -77.16796875 52.53125 C-69.32147848 46.98922444 -60.70866887 43.51456656 -51 44 C-51.0825 43.0925 -51.165 42.185 -51.25 41.25 C-51.18324125 30.23480663 -45.24326741 20.45073482 -37.828125 12.7421875 C-33.28419431 8.49596261 -28.76176559 5.33685343 -23 3 C-22.071875 2.608125 -21.14375 2.21625 -20.1875 1.8125 C-13.63443873 0.14211183 -6.7462131 -0.18233008 0 0 Z " fill="#FE3E80" transform="translate(219,179)"/>
<path d="M0 0 C11.88 0 23.76 0 36 0 C36 25.74 36 51.48 36 78 C40.62 78 45.24 78 50 78 C57.99725275 81.99862637 57.99725275 81.99862637 59.5703125 86.70703125 C60.14029335 89.74865635 60.09342192 92.65780764 60.0625 95.75 C60.05347656 96.92046875 60.04445313 98.0909375 60.03515625 99.296875 C60.02355469 100.18890625 60.01195312 101.0809375 60 102 C60.93328125 102.12117188 61.8665625 102.24234375 62.828125 102.3671875 C67.01609327 103.20271812 68.38810828 104.6625828 71 108 C73 115 73 115 73 143 C37.03 143 1.06 143 -36 143 C-36 110 -36 110 -33 105 C-29.74828878 103.03542447 -27.81307353 102 -24 102 C-24.02320313 101.21496094 -24.04640625 100.42992187 -24.0703125 99.62109375 C-24.26682409 88.18131219 -24.26682409 88.18131219 -22 83 C-15.02866755 76.20741966 -10.81768511 78 0 78 C0 52.26 0 26.52 0 0 Z " fill="#FDF2EA" transform="translate(432,369)"/>
<path d="M0 0 C11.88 0 23.76 0 36 0 C36 25.74 36 51.48 36 78 C40.62 78 45.24 78 50 78 C57.06122449 81.53061224 57.06122449 81.53061224 59 85 C59.97278869 88.81786244 60.1056881 92.38238321 60.0625 96.3125 C60.05347656 97.38113281 60.04445313 98.44976562 60.03515625 99.55078125 C60.02355469 100.35902344 60.01195313 101.16726563 60 102 C60.886875 102.061875 61.77375 102.12375 62.6875 102.1875 C66.77444675 103.18995864 68.30264829 104.84024514 71 108 C76.2196211 118.4392422 72 131.3285724 72 143 C36.03 143 0.06 143 -37 143 C-37 115 -37 115 -34 106 C-30.47243212 103.41731637 -28.39089433 102 -24 102 C-24.03480469 101.14277344 -24.06960937 100.28554688 -24.10546875 99.40234375 C-24.38578405 87.56235951 -24.38578405 87.56235951 -21 82 C-14.71102226 76.10408336 -9.26264973 78 0 78 C0 52.26 0 26.52 0 0 Z " fill="#FDF2EA" transform="translate(44,369)"/>
<path d="M0 0 C4.6894836 1.90602442 4.6894836 1.90602442 9.53515625 1.23046875 C10.18355469 0.85664062 10.83195312 0.4828125 11.5 0.09765625 C18.68962556 -3.97409209 26.78754223 -4.23370072 34.75 -2.16796875 C38.34888207 -0.95069981 41.90183419 0.37395613 45.44140625 1.75390625 C48.41385914 2.07965451 50.22722039 0.86084238 52.875 -0.46484375 C62.16235787 -4.52594177 70.90112809 -4.00774514 80.4140625 -0.87890625 C82.4375 -0.02734375 82.4375 -0.02734375 85.4375 1.97265625 C88.9725838 1.61111359 91.75805426 0.42910379 94.9375 -1.08984375 C103.11348947 -4.40640412 111.212742 -4.11186116 119.4375 -1.08984375 C120.283125 -0.73019531 121.12875 -0.37054688 122 0 C126.6894836 1.90602442 126.6894836 1.90602442 131.53515625 1.23046875 C132.18355469 0.85664062 132.83195313 0.4828125 133.5 0.09765625 C140.68962556 -3.97409209 148.78754223 -4.23370072 156.75 -2.16796875 C160.34888207 -0.95069981 163.90183419 0.37395613 167.44140625 1.75390625 C170.41385914 2.07965451 172.22722039 0.86084238 174.875 -0.46484375 C184.16235787 -4.52594177 192.90112809 -4.00774514 202.4140625 -0.87890625 C204.4375 -0.02734375 204.4375 -0.02734375 207.4375 1.97265625 C210.9725838 1.61111359 213.75805426 0.42910379 216.9375 -1.08984375 C225.11348947 -4.40640412 233.212742 -4.11186116 241.4375 -1.08984375 C242.283125 -0.73019531 243.12875 -0.37054688 244 0 C248.6894836 1.90602442 248.6894836 1.90602442 253.53515625 1.23046875 C254.18355469 0.85664062 254.83195312 0.4828125 255.5 0.09765625 C262.68962556 -3.97409209 270.78754223 -4.23370072 278.75 -2.16796875 C282.34888207 -0.95069981 285.90183419 0.37395613 289.44140625 1.75390625 C292.41385914 2.07965451 294.22722039 0.86084238 296.875 -0.46484375 C306.16235787 -4.52594177 314.90112809 -4.00774514 324.4140625 -0.87890625 C326.4375 -0.02734375 326.4375 -0.02734375 329.4375 1.97265625 C332.98272701 1.60948665 335.80312035 0.41934309 339 -1.08984375 C347.29384312 -4.46653471 355.73903853 -3.8735874 364.12109375 -1.0078125 C369.99673212 1.47917777 375.48177127 4.90437881 379.4375 9.97265625 C379.98417869 13.32106323 379.77788506 15.18551579 378.4375 18.28515625 C376.00136399 20.34064601 373.7993997 21.00472048 370.6328125 21.28515625 C367.06069403 20.77666964 364.86115955 18.73974267 362.19921875 16.41796875 C358.1215592 13.07266047 352.95954023 13.47435117 347.9296875 13.46875 C342.95178281 14.18703826 339.89061468 16.58153902 335.875 19.46484375 C333.4375 20.97265625 333.4375 20.97265625 329.5625 21.16015625 C326.20185379 19.88311069 324.137835 18.31768401 321.4375 15.97265625 C315.90498184 13.29165858 310.46961213 13.30776208 304.4375 13.97265625 C301.65820505 14.99290376 299.89419835 16.21787171 297.4375 17.97265625 C293.8056155 20.39391258 291.81749182 21.41262544 287.4375 20.97265625 C285.33984375 19.6953125 285.33984375 19.6953125 283.375 18.03515625 C278.09451835 13.61209934 273.24380027 13.58030844 266.484375 13.61328125 C262.59823698 14.07164625 260.24769495 15.36501004 257.15625 17.68359375 C253.62341553 20.3332196 250.91057371 21.52308121 246.4375 20.97265625 C244.3046875 19.6953125 244.3046875 19.6953125 242.3125 18.03515625 C237.09917634 13.74481402 232.57179532 13.47614656 225.9296875 13.46875 C220.95178281 14.18703826 217.89061468 16.58153902 213.875 19.46484375 C211.4375 20.97265625 211.4375 20.97265625 207.5625 21.16015625 C204.20185379 19.88311069 202.137835 18.31768401 199.4375 15.97265625 C193.90454507 13.29144692 188.46994743 13.308607 182.4375 13.97265625 C178.90782912 15.24760854 176.23324694 17.29747703 173.375 19.72265625 C170.44248678 21.61460026 168.87999322 21.56847238 165.4375 20.97265625 C163.27705438 19.57128612 161.32942414 18.04953158 159.3671875 16.3828125 C154.38770333 12.74395868 147.30699948 13.28124274 141.4375 13.97265625 C138.41562567 15.26019571 135.997718 16.93682025 133.4375 18.97265625 C129.8376586 21.37255052 128.68651872 21.61401757 124.4375 20.97265625 C122.23965795 19.57819207 120.26752583 18.04977839 118.26953125 16.3828125 C114.06126477 13.14361378 109.02188477 13.4744206 103.9296875 13.46875 C98.95178281 14.18703826 95.89061468 16.58153902 91.875 19.46484375 C89.4375 20.97265625 89.4375 20.97265625 85.5625 21.16015625 C82.20185379 19.88311069 80.137835 18.31768401 77.4375 15.97265625 C71.90498184 13.29165858 66.46961213 13.30776208 60.4375 13.97265625 C57.65820505 14.99290376 55.89419835 16.21787171 53.4375 17.97265625 C49.79781569 20.39911246 47.82396665 21.4074096 43.4375 20.97265625 C41.0859375 19.6953125 41.0859375 19.6953125 38.8125 18.03515625 C32.61163857 13.55910781 26.98448674 13.09376666 19.4375 13.97265625 C16.41437585 15.25868366 13.9980965 16.93651928 11.4375 18.97265625 C7.8376586 21.37255052 6.68651872 21.61401757 2.4375 20.97265625 C0.23965795 19.57819207 -1.73247417 18.04977839 -3.73046875 16.3828125 C-8.66154037 12.58725417 -15.69013192 13.22674345 -21.5625 13.97265625 C-25.36576516 15.73206146 -28.597738 18.00789425 -31.5625 20.97265625 C-35.59449561 21.52247383 -37.11782291 21.30133062 -40.4375 18.84765625 C-42.5625 15.97265625 -42.5625 15.97265625 -43.1875 12.97265625 C-42.3389627 8.89967722 -40.74728274 7.61534831 -37.5625 4.97265625 C-37.04300781 4.53824219 -36.52351563 4.10382813 -35.98828125 3.65625 C-25.31914235 -4.67512886 -12.26062513 -5.21450367 0 0 Z " fill="#FFC339" transform="translate(87.5625,74.02734375)"/>
<path d="M0 0 C0.86920578 -0.00540298 1.73841156 -0.01080597 2.63395691 -0.01637268 C5.48931581 -0.02881673 8.34365794 -0.01239922 11.19897461 0.00561523 C13.19241895 0.00546016 15.1858636 0.00396978 17.17930603 0.00120544 C21.34949127 -0.00017657 25.51933174 0.0123476 29.68945312 0.03515625 C35.02817409 0.06355858 40.36632331 0.06079581 45.70508671 0.04806614 C49.81868859 0.04110386 53.93215887 0.04890425 58.04574394 0.06132317 C60.01407809 0.06583101 61.98242639 0.0661803 63.9507618 0.06225777 C66.70314525 0.05933971 69.45474675 0.07588031 72.20703125 0.09765625 C73.4205275 0.09090378 73.4205275 0.09090378 74.65853882 0.08401489 C79.48479468 0.14729518 82.92537554 0.71221932 87.03881836 3.50170898 C93.57604209 14.39708187 90.03881836 28.79562995 90.03881836 41.50170898 C54.06881836 41.50170898 18.09881836 41.50170898 -18.96118164 41.50170898 C-18.96118164 13.50170898 -18.96118164 13.50170898 -15.96118164 4.50170898 C-10.81339993 0.33541632 -6.46385776 -0.07744045 0 0 Z " fill="#FEC337" transform="translate(25.961181640625,470.498291015625)"/>
<path d="M0 0 C0.86745346 -0.00686325 1.73490692 -0.0137265 2.62864685 -0.02079773 C5.48445188 -0.03903782 8.33970608 -0.03523221 11.19555664 -0.02954102 C13.18803587 -0.03410416 15.18051352 -0.03941013 17.17298889 -0.04542542 C21.34488324 -0.05435105 25.5165861 -0.05193959 29.68847656 -0.04199219 C35.02607979 -0.03050341 40.36302136 -0.05071557 45.70053768 -0.07990932 C49.81417517 -0.09828413 53.92765447 -0.09797629 58.04132271 -0.0922718 C60.00884492 -0.09211875 61.97637795 -0.09815024 63.94386101 -0.11056328 C66.69866937 -0.12549556 69.45226013 -0.11477991 72.20703125 -0.09765625 C73.01400452 -0.10732422 73.82097778 -0.11699219 74.65240479 -0.12695312 C80.27037537 -0.05408841 83.74251184 0.82216701 88.16821289 4.40405273 C91.16821289 13.40405273 91.16821289 13.40405273 91.16821289 41.40405273 C55.19821289 41.40405273 19.22821289 41.40405273 -17.83178711 41.40405273 C-17.83178711 8.40405273 -17.83178711 8.40405273 -14.83178711 3.40405273 C-9.95761715 0.09868365 -5.67742308 -0.03159189 0 0 Z " fill="#FEC337" transform="translate(413.831787109375,470.595947265625)"/>
<path d="M0 0 C3.20979811 1.98211892 4.97613388 3.69645049 6.3125 7.3125 C6.823637 10.64000187 7.12328346 13.95227525 7.3125 17.3125 C7.745625 16.838125 8.17875 16.36375 8.625 15.875 C11.92743483 12.81718997 15.76954629 12.97293504 20.03515625 13.03515625 C24.92810897 13.631039 27.96082534 16.76000054 31.0625 20.3125 C34.54031712 24.9495895 35.63389588 27.82765689 35.75 33.6875 C35.80994141 35.33878906 35.80994141 35.33878906 35.87109375 37.0234375 C35.17280317 41.13505056 33.5400903 43.74243205 30.3125 46.3125 C27.31142048 46.92117089 25.10952278 47.13677273 22.11328125 47.08886719 C21.30128265 47.0993811 20.48928406 47.10989502 19.65267944 47.12072754 C16.97599707 47.14707638 14.30170534 47.12967643 11.625 47.109375 C9.76081893 47.11341812 7.89664095 47.11924237 6.0324707 47.12677002 C2.12843666 47.13560952 -1.77477286 47.12277987 -5.67871094 47.09472656 C-10.6795362 47.06053984 -15.67842957 47.08022643 -20.67918396 47.11616135 C-24.52777628 47.13785788 -28.37591162 47.13093553 -32.22451782 47.11539459 C-34.06808705 47.11139618 -35.91169796 47.11628976 -37.75521851 47.13027191 C-40.33402134 47.14553912 -42.90971009 47.12225503 -45.48828125 47.08886719 C-46.24791168 47.10101257 -47.00754211 47.11315796 -47.79019165 47.12567139 C-50.67133348 47.05666889 -52.98956756 46.87464117 -55.28218079 45.0280838 C-59.25634612 40.46999477 -59.37387948 37.07156887 -59.1015625 31.28125 C-58.10015424 24.10134171 -54.83810434 19.90042968 -49.2734375 15.44140625 C-45.10323798 12.47296374 -40.64240482 12.84578997 -35.6875 13.3125 C-32.5625 14.8125 -32.5625 14.8125 -30.6875 16.3125 C-30.62433594 15.58804687 -30.56117187 14.86359375 -30.49609375 14.1171875 C-29.8381239 8.92268871 -29.34289588 5.21049899 -25.25 1.6875 C-18.49581808 -3.3599016 -7.54854278 -3.49260935 0 0 Z " fill="#FF3D80" transform="translate(79.6875,1.6875)"/>
<path d="M0 0 C4.72593871 2.73069369 4.72593871 2.73069369 6.7109375 5.56640625 C7.63570199 9.2024121 8.22377531 12.84858951 8.7109375 16.56640625 C9.3296875 16.07140625 9.9484375 15.57640625 10.5859375 15.06640625 C15.01340242 12.94122309 18.88094834 12.8897411 23.7109375 13.56640625 C29.19696026 16.09841676 32.5428297 20.54077596 35.7109375 25.56640625 C37.5402293 31.05428164 37.68595992 37.29135393 35.3984375 42.62890625 C32.79361383 45.61962972 31.21100605 46.52602202 27.2328186 46.84729004 C25.7655343 46.87139109 24.29804224 46.88434053 22.83056641 46.88867188 C22.02861343 46.89860168 21.22666046 46.90853149 20.40040588 46.91876221 C17.74606908 46.94798455 15.09197126 46.96160491 12.4375 46.97265625 C10.59288527 46.9841603 8.7482706 46.99567575 6.90365601 47.00720215 C3.03504319 47.02821572 -0.83348657 47.03990538 -4.70214844 47.046875 C-9.65800435 47.05784805 -14.61276217 47.10590989 -19.56827354 47.16281891 C-23.37901004 47.20007679 -27.18948204 47.21048298 -31.00038528 47.21354675 C-32.82726678 47.21959923 -34.65414365 47.23565495 -36.48084641 47.26191711 C-39.03804709 47.29605916 -41.59256581 47.29227868 -44.14990234 47.27929688 C-44.90332413 47.29772644 -45.65674591 47.31615601 -46.43299866 47.33514404 C-49.29722115 47.28962826 -51.59452428 47.12246079 -53.87886429 45.29359436 C-58.02090328 40.55741668 -58.02048883 36.7870261 -57.7734375 30.76171875 C-56.8309985 24.54466151 -53.7565957 20.66631834 -49.1015625 16.62890625 C-44.44578891 13.21467228 -40.96750286 12.98777416 -35.2890625 13.56640625 C-32.87036672 14.72536465 -31.16584154 15.68962721 -29.2890625 17.56640625 C-29.25167969 16.90253906 -29.21429688 16.23867188 -29.17578125 15.5546875 C-28.46838664 6.05340692 -28.46838664 6.05340692 -25.2890625 2.56640625 C-18.42300233 -2.90837331 -7.87737235 -3.43348652 0 0 Z " fill="#FF3D7F" transform="translate(454.2890625,1.43359375)"/>
<path d="M0 0 C4.72593871 2.73069369 4.72593871 2.73069369 6.7109375 5.56640625 C7.63570199 9.2024121 8.22377531 12.84858951 8.7109375 16.56640625 C9.3296875 16.07140625 9.9484375 15.57640625 10.5859375 15.06640625 C15.01340242 12.94122309 18.88094834 12.8897411 23.7109375 13.56640625 C29.19696026 16.09841676 32.5428297 20.54077596 35.7109375 25.56640625 C37.5420171 31.05964505 37.71896509 37.32125388 35.3359375 42.62890625 C33.7109375 44.56640625 33.7109375 44.56640625 31.7109375 46.56640625 C29.05812132 46.78583227 26.5079366 46.88096531 23.85229492 46.88867188 C23.04073441 46.89860168 22.22917389 46.90853149 21.39302063 46.91876221 C18.70078166 46.94803775 16.00877843 46.96161499 13.31640625 46.97265625 C11.44794201 46.98415746 9.57947786 46.99567295 7.71101379 47.00720215 C3.78934629 47.02823193 -0.1322391 47.03991046 -4.05395508 47.046875 C-9.07821517 47.05784079 -14.1013901 47.10588039 -19.12530994 47.16281891 C-22.98666036 47.2000789 -26.84774975 47.21048317 -30.70926476 47.21354675 C-32.5612652 47.21960051 -34.41326101 47.23566054 -36.26508522 47.26191711 C-38.85830595 47.29605764 -41.44888166 47.29227844 -44.04223633 47.27929688 C-44.8065799 47.29772644 -45.57092346 47.31615601 -46.35842896 47.33514404 C-49.24583425 47.28989633 -51.57746316 47.1337724 -53.88544273 45.29359436 C-58.02401516 40.56189812 -58.02020726 36.78015901 -57.7734375 30.76171875 C-56.8309985 24.54466151 -53.7565957 20.66631834 -49.1015625 16.62890625 C-44.44578891 13.21467228 -40.96750286 12.98777416 -35.2890625 13.56640625 C-32.87036672 14.72536465 -31.16584154 15.68962721 -29.2890625 17.56640625 C-29.25167969 16.90253906 -29.21429688 16.23867188 -29.17578125 15.5546875 C-28.46838664 6.05340692 -28.46838664 6.05340692 -25.2890625 2.56640625 C-18.42300233 -2.90837331 -7.87737235 -3.43348652 0 0 Z " fill="#FF3D80" transform="translate(266.2890625,1.43359375)"/>
<path d="M0 0 C4.72593871 2.73069369 4.72593871 2.73069369 6.7109375 5.56640625 C7.63570199 9.2024121 8.22377531 12.84858951 8.7109375 16.56640625 C9.3296875 16.07140625 9.9484375 15.57640625 10.5859375 15.06640625 C15.01340242 12.94122309 18.88094834 12.8897411 23.7109375 13.56640625 C29.19696026 16.09841676 32.5428297 20.54077596 35.7109375 25.56640625 C37.3432566 30.46336354 37.22815235 35.45632358 36.7109375 40.56640625 C34.90290346 43.64006411 33.85054286 44.99660357 30.7109375 46.56640625 C28.11384509 46.69064267 25.54250605 46.75523843 22.9440918 46.77514648 C22.14228485 46.78493027 21.34047791 46.79471405 20.51437378 46.80479431 C17.85465156 46.83476677 15.19497965 46.85613818 12.53515625 46.875 C11.17371459 46.88485774 11.17371459 46.88485774 9.78476906 46.89491463 C4.9809589 46.92751562 0.177171 46.95196521 -4.62670898 46.97143555 C-8.6049012 46.98925636 -12.5823856 47.02408735 -16.56030273 47.07397461 C-21.36078346 47.13411076 -26.16060729 47.16490207 -30.96144676 47.17460823 C-32.79113593 47.18317508 -34.62080698 47.20202351 -36.45028114 47.23135185 C-39.01231217 47.27021375 -41.57177805 47.27130899 -44.1340332 47.26342773 C-44.88902603 47.28342834 -45.64401886 47.30342896 -46.42189026 47.32403564 C-49.28965611 47.28445799 -51.59098703 47.1245196 -53.87984276 45.29457283 C-58.02142245 40.55900638 -58.02044269 36.78590092 -57.7734375 30.76171875 C-56.8309985 24.54466151 -53.7565957 20.66631834 -49.1015625 16.62890625 C-44.44578891 13.21467228 -40.96750286 12.98777416 -35.2890625 13.56640625 C-32.87036672 14.72536465 -31.16584154 15.68962721 -29.2890625 17.56640625 C-29.25167969 16.90253906 -29.21429688 16.23867188 -29.17578125 15.5546875 C-28.46838664 6.05340692 -28.46838664 6.05340692 -25.2890625 2.56640625 C-18.42300233 -2.90837331 -7.87737235 -3.43348652 0 0 Z " fill="#FFB3CC" transform="translate(172.2890625,1.43359375)"/>
<path d="M0 0 C4.72593871 2.73069369 4.72593871 2.73069369 6.7109375 5.56640625 C7.63570199 9.2024121 8.22377531 12.84858951 8.7109375 16.56640625 C9.3296875 16.07140625 9.9484375 15.57640625 10.5859375 15.06640625 C15.01340242 12.94122309 18.88094834 12.8897411 23.7109375 13.56640625 C29.19696026 16.09841676 32.5428297 20.54077596 35.7109375 25.56640625 C37.5402293 31.05428164 37.68595992 37.29135393 35.3984375 42.62890625 C32.79361383 45.61962972 31.21100605 46.52602202 27.2328186 46.84729004 C25.7655343 46.87139109 24.29804224 46.88434053 22.83056641 46.88867188 C22.02861343 46.89860168 21.22666046 46.90853149 20.40040588 46.91876221 C17.74606908 46.94798455 15.09197126 46.96160491 12.4375 46.97265625 C10.59288527 46.9841603 8.7482706 46.99567575 6.90365601 47.00720215 C3.03504319 47.02821572 -0.83348657 47.03990538 -4.70214844 47.046875 C-9.65800435 47.05784805 -14.61276217 47.10590989 -19.56827354 47.16281891 C-23.37901004 47.20007679 -27.18948204 47.21048298 -31.00038528 47.21354675 C-32.82726678 47.21959923 -34.65414365 47.23565495 -36.48084641 47.26191711 C-39.03804709 47.29605916 -41.59256581 47.29227868 -44.14990234 47.27929688 C-44.90332413 47.29772644 -45.65674591 47.31615601 -46.43299866 47.33514404 C-49.29722115 47.28962826 -51.59452428 47.12246079 -53.87886429 45.29359436 C-58.02090328 40.55741668 -58.02048883 36.7870261 -57.7734375 30.76171875 C-56.8309985 24.54466151 -53.7565957 20.66631834 -49.1015625 16.62890625 C-44.44578891 13.21467228 -40.96750286 12.98777416 -35.2890625 13.56640625 C-32.87036672 14.72536465 -31.16584154 15.68962721 -29.2890625 17.56640625 C-29.25167969 16.90253906 -29.21429688 16.23867188 -29.17578125 15.5546875 C-28.46838664 6.05340692 -28.46838664 6.05340692 -25.2890625 2.56640625 C-18.42300233 -2.90837331 -7.87737235 -3.43348652 0 0 Z " fill="#FFB3CC" transform="translate(360.2890625,1.43359375)"/>
<path d="M0 0 C0.3000449 6.13361008 0.51590602 12.26282282 0.65917969 18.40209961 C0.7189766 20.48293561 0.80045547 22.56327955 0.90527344 24.64233398 C1.44452619 35.6256437 1.84325226 44.70322313 -5.609375 53.40234375 C-7.22932732 55.13481262 -8.88126456 56.81924903 -10.57284546 58.48168945 C-12.52881211 60.56258869 -13.82314947 62.94183401 -15.25390625 65.40234375 C-17.56312679 68.3881512 -18.67119958 68.93455755 -22.43701172 69.68408203 C-26.61876321 69.99357483 -30.75666865 69.7874077 -34.9375 69.5625 C-36.39896512 69.51730005 -37.86056466 69.47624502 -39.32226562 69.43945312 C-42.88432703 69.34081999 -46.44130013 69.18586193 -50 69 C-48.65484572 66.12390547 -47.12028991 63.68944859 -45.1796875 61.1796875 C-44.64472656 60.47972656 -44.10976563 59.77976563 -43.55859375 59.05859375 C-42.42950703 57.59418661 -41.29928483 56.1306543 -40.16796875 54.66796875 C-39.63558594 53.97058594 -39.10320312 53.27320313 -38.5546875 52.5546875 C-38.06468262 51.92030762 -37.57467773 51.28592773 -37.06982422 50.63232422 C-35.81728032 49.04648655 -35.81728032 49.04648655 -36 47 C-35.360625 46.71125 -34.72125 46.4225 -34.0625 46.125 C-31.84793921 45.17176549 -31.84793921 45.17176549 -31 43 C-30.75212983 38.85496339 -30.75212983 38.85496339 -32 35 C-32.0165904 32.44358682 -31.97300981 29.91995478 -31.87890625 27.3671875 C-31.85529526 26.61535187 -31.83168427 25.86351624 -31.80735779 25.08889771 C-31.7306938 22.68407434 -31.64668156 20.27957082 -31.5625 17.875 C-31.50928203 16.24610948 -31.45654161 14.61720328 -31.40429688 12.98828125 C-31.27507502 8.9919844 -31.13926173 4.99595908 -31 1 C-28.08352657 0.82916055 -25.16689927 0.66327575 -22.25 0.5 C-21.44433594 0.45230469 -20.63867188 0.40460937 -19.80859375 0.35546875 C-13.20184564 -0.00868272 -6.61577093 -0.05135139 0 0 Z " fill="#FFE666" transform="translate(497,47)"/>
<path d="M0 0 C1.26173538 -0.00960754 2.52347076 -0.01921509 3.82344055 -0.02911377 C5.2028485 -0.03396222 6.58225855 -0.03824093 7.96166992 -0.04199219 C9.37790427 -0.04774668 10.7941386 -0.05350438 12.21037292 -0.05926514 C15.18029136 -0.0697672 18.1501828 -0.07561485 21.12011719 -0.07910156 C24.91643407 -0.08458039 28.71239123 -0.10859827 32.50859547 -0.13707352 C35.43492152 -0.15574517 38.36116177 -0.16090792 41.28754234 -0.16243744 C42.68651989 -0.16545501 44.08549624 -0.17345324 45.48441505 -0.18662262 C47.44656847 -0.20377364 49.40887085 -0.19994502 51.37109375 -0.1953125 C52.48567459 -0.19895813 53.60025543 -0.20260376 54.74861145 -0.20635986 C59.208664 0.31712222 62.6107945 1.80478215 65.69213867 5.09863281 C68.17604042 9.41277796 67.9876431 13.49665405 67.94213867 18.41113281 C67.93311523 19.67441406 67.9240918 20.93769531 67.91479492 22.23925781 C67.90319336 23.20347656 67.8915918 24.16769531 67.87963867 25.16113281 C57.07505782 25.18425594 46.27048281 25.20204774 35.4658823 25.21294498 C30.44941398 25.21817388 25.43296252 25.22527164 20.41650391 25.23657227 C15.57954173 25.24740092 10.74259584 25.2534096 5.90562248 25.25601006 C4.05595582 25.25786435 2.2062901 25.26148503 0.35663033 25.26686287 C-2.22483147 25.27407301 -4.80622515 25.27512377 -7.38769531 25.2746582 C-8.16021133 25.27825348 -8.93272736 25.28184875 -9.72865295 25.28555298 C-15.00630917 25.27518497 -15.00630917 25.27518497 -16.12036133 24.16113281 C-16.56134506 17.65918664 -16.75983739 11.19422096 -14.12036133 5.16113281 C-9.62647174 0.78247116 -6.12284946 0.03758951 0 0 Z " fill="#FEED92" transform="translate(424.120361328125,446.8388671875)"/>
<path d="M0 0 C1.26173538 -0.00960754 2.52347076 -0.01921509 3.82344055 -0.02911377 C5.2028485 -0.03396222 6.58225855 -0.03824093 7.96166992 -0.04199219 C9.37790427 -0.04774668 10.7941386 -0.05350438 12.21037292 -0.05926514 C15.18029136 -0.0697672 18.1501828 -0.07561485 21.12011719 -0.07910156 C24.91643407 -0.08458039 28.71239123 -0.10859827 32.50859547 -0.13707352 C35.43492152 -0.15574517 38.36116177 -0.16090792 41.28754234 -0.16243744 C42.68651989 -0.16545501 44.08549624 -0.17345324 45.48441505 -0.18662262 C47.44656847 -0.20377364 49.40887085 -0.19994502 51.37109375 -0.1953125 C52.48567459 -0.19895813 53.60025543 -0.20260376 54.74861145 -0.20635986 C59.18357754 0.31417779 62.57726755 1.81385234 65.69213867 5.03613281 C68.04672253 9.24959866 68.01631126 13.6720628 68.00463867 18.41113281 C68.00850586 19.99667969 68.00850586 19.99667969 68.01245117 21.61425781 C67.87963867 24.16113281 67.87963867 24.16113281 66.87963867 25.16113281 C64.32912393 25.26151012 61.80566689 25.29730769 59.25463867 25.29052734 C58.45630615 25.29227966 57.65797363 25.29403198 56.83544922 25.2958374 C54.18349058 25.30025649 51.53159805 25.29731774 48.87963867 25.29394531 C47.04500312 25.29461834 45.21036766 25.29558835 43.37573242 25.29684448 C39.52546339 25.29832153 35.67521752 25.29616667 31.82495117 25.29150391 C26.8780737 25.28580661 21.93125048 25.28908558 16.984375 25.29507637 C13.19441312 25.29868179 9.40446421 25.29754348 5.61450195 25.29494858 C3.78995762 25.29427926 1.96541212 25.29510791 0.14086914 25.29742813 C-2.40457294 25.29995435 -4.94992592 25.29611451 -7.49536133 25.29052734 C-8.25695557 25.29255157 -9.0185498 25.29457581 -9.80322266 25.29666138 C-15.00609875 25.27539539 -15.00609875 25.27539539 -16.12036133 24.16113281 C-16.66223128 16.97093534 -16.93747718 10.43210886 -13.12036133 4.16113281 C-9.08736752 0.38020111 -5.37277099 0.03298462 0 0 Z " fill="#FEED92" transform="translate(36.120361328125,446.8388671875)"/>
<path d="M0 0 C18.81 0 37.62 0 57 0 C57 24.375 57 24.375 48 37 C15.4489176 39.63740622 15.4489176 39.63740622 7.21875 35.65380859 C2.30582848 31.32210323 0.94946762 26.32397699 0 20 C0 13.4 0 6.8 0 0 Z " fill="#FDF1EA" transform="translate(33,308)"/>
<path d="M0 0 C18.81 0 37.62 0 57 0 C57 26.77795074 57 26.77795074 51.65234375 33.8671875 C45.42498408 39.38013625 36.23839987 38.76525578 28.375 38.875 C27.54191315 38.90219116 26.70882629 38.92938232 25.85049438 38.95739746 C12.63873421 39.24000887 12.63873421 39.24000887 8.45861816 35.69152832 C5.51990358 32.17209823 3.73570137 28.23260661 2 24 C1.34 22.68 0.68 21.36 0 20 C0 13.4 0 6.8 0 0 Z " fill="#FDF1EA" transform="translate(422,308)"/>
<path d="M0 0 C9.97679521 2.18956383 19.73683387 5.95068555 28 12 C28.89976562 12.64582031 29.79953125 13.29164063 30.7265625 13.95703125 C41.96770699 22.55046815 52.704158 35.6248984 55 50 C55.53367187 50.14695313 56.06734375 50.29390625 56.6171875 50.4453125 C65.28189562 53.05371944 72.96121888 57.18202132 79 64 C79.33 64.33 79.66 64.66 80 65 C79.75792934 68.26795396 79.52903176 71.03529503 77.9375 73.9375 C74.64041167 75.7455807 71.57720707 75.78387494 68 75 C65.56755193 73.67321014 63.39826377 72.15889726 61.16015625 70.52734375 C57.17407474 67.70897508 53.06948665 66.25377649 48.3125 65.125 C44.16665211 63.71697619 43.19751323 62.78881591 41 59 C40.34539614 57.11418378 39.72389481 55.21674106 39.125 53.3125 C34.63879425 39.08581641 26.01549331 29.08678918 13 22 C5.22087164 17.96637789 -1.9792324 16.33367942 -10.65234375 15.75 C-14.8266291 14.81480422 -16.40818705 13.35411088 -19 10 C-19 6.54798882 -18.82940532 4.20615214 -16.84765625 1.32421875 C-12.39345682 -1.86811446 -5.24338629 -0.71907332 0 0 Z " fill="#FFC43B" transform="translate(322,143)"/>
<path d="M0 0 C1.40234375 1.18359375 1.40234375 1.18359375 2.96484375 4.12109375 C3.02734375 7.74609375 3.02734375 7.74609375 1.96484375 11.12109375 C-1.33353607 14.47484206 -4.47166958 14.60629593 -9.03515625 14.99609375 C-23.2256098 16.54849767 -36.97865445 23.40678974 -46.1875 34.46875 C-51.2059038 41.67275884 -55.06142738 49.8692352 -57.33203125 58.3515625 C-58.23495904 60.62393078 -59.08118053 61.63335952 -61.03515625 63.12109375 C-63.03195699 63.78202639 -65.05840861 64.35581306 -67.09765625 64.87109375 C-71.91765362 66.24211522 -75.37950995 67.8148817 -79.34765625 70.87109375 C-82.40645941 73.17887369 -84.53828157 74.64291697 -88.41015625 74.87109375 C-92.03515625 74.12109375 -92.03515625 74.12109375 -94.59765625 72.05859375 C-96.03515625 69.12109375 -96.03515625 69.12109375 -96.28515625 65.68359375 C-93.37771403 57.39738342 -83.46612704 54.07159324 -76.01171875 50.44140625 C-73.03515625 49.12109375 -73.03515625 49.12109375 -71.03515625 49.12109375 C-70.66390625 47.86296875 -70.29265625 46.60484375 -69.91015625 45.30859375 C-64.1375055 28.17858827 -52.22713384 15.00005359 -36.62890625 6.19921875 C-26.30322316 1.23305688 -11.36672531 -4.9088545 0 0 Z " fill="#FFC43B" transform="translate(206.03515625,143.87890625)"/>
<path d="M0 0 C1.95728027 -0.01407143 1.95728027 -0.01407143 3.95410156 -0.02842712 C5.3704494 -0.01794849 6.7867909 -0.00657943 8.203125 0.00561523 C9.66373771 0.00546016 11.12435083 0.00396973 12.58496094 0.00120544 C15.64146181 -0.00017687 18.69749247 0.01235053 21.75390625 0.03515625 C25.66469008 0.06354097 29.57469305 0.06080161 33.48553467 0.04806614 C36.50023018 0.04109915 39.51474634 0.04890977 42.52941895 0.06132317 C43.97106233 0.0658278 45.41272504 0.06618312 46.85437012 0.06225777 C48.8716958 0.05933589 50.8890175 0.07804721 52.90625 0.09765625 C54.05254883 0.10305923 55.19884766 0.10846222 56.37988281 0.11402893 C60.92155825 0.68694732 63.49481327 2.59519789 66.765625 5.68920898 C68.95081873 9.33119854 69.25431328 12.40763686 68.453125 16.50170898 C66.35882782 20.54071069 64.69834263 22.87828445 60.453125 24.50170898 C57.62075806 24.79364014 57.62075806 24.79364014 54.31103516 24.85229492 C52.44857651 24.89178253 52.44857651 24.89178253 50.54849243 24.93206787 C49.19639776 24.95058954 47.84429575 24.96858189 46.4921875 24.98608398 C45.09979326 25.00989418 43.70740836 25.03425556 42.31503296 25.05914307 C39.39823196 25.10900984 36.48143346 25.15180335 33.56445312 25.18969727 C29.83637739 25.23874689 26.10888785 25.3058831 22.38120461 25.37844467 C19.50560259 25.43230293 16.62991278 25.4761915 13.7541008 25.51715851 C12.38021136 25.53797168 11.00636543 25.56191153 9.63258743 25.5891037 C7.70655948 25.62578574 5.78026479 25.6475292 3.85400391 25.66870117 C2.76020416 25.68487488 1.66640442 25.70104858 0.53945923 25.7177124 C-4.20259117 25.3858303 -7.57020407 24.23963813 -11.359375 21.37670898 C-14.11522405 17.75473595 -14.8486743 15.01982202 -14.546875 10.50170898 C-12.00314812 3.15316467 -7.69790064 0.00111589 0 0 Z " fill="#FEC338" transform="translate(34.546875,283.498291015625)"/>
<path d="M0 0 C1.30170135 -0.0159874 2.60340271 -0.03197479 3.94454956 -0.04844666 C5.36293139 -0.05482353 6.78131794 -0.06021622 8.19970703 -0.06469727 C9.65935354 -0.0736682 11.11899913 -0.08279013 12.5786438 -0.09205627 C15.63676179 -0.10853214 18.69477049 -0.11624381 21.75292969 -0.11914062 C25.66272348 -0.1245235 29.57148362 -0.16220371 33.48098564 -0.20788479 C36.49569406 -0.23769554 39.51015473 -0.24486503 42.52499771 -0.24586678 C43.96586975 -0.2500611 45.40674307 -0.26246394 46.84746933 -0.28338432 C59.51736144 -0.45271992 59.51736144 -0.45271992 63.42285156 2.69677734 C66.65541094 6.60281704 67.82304484 9.25913111 67.52001953 14.30639648 C66.81140783 18.62322637 65.13961274 20.67724063 61.58251953 23.30639648 C54.74963053 26.05801935 47.77637095 25.51532163 40.51220703 25.38842773 C39.14414119 25.36983879 37.77606839 25.35175544 36.4079895 25.33415222 C33.55177984 25.29481166 30.69583749 25.2474956 27.83984375 25.19482422 C24.18727826 25.12837317 20.53484507 25.08481922 16.88187981 25.04756641 C14.06092799 25.01577418 11.24031574 24.97039036 8.41962051 24.92108727 C6.42064245 24.88896502 4.42147527 24.8694015 2.42233276 24.85005188 C1.20401764 24.82380234 -0.01429749 24.7975528 -1.26953125 24.77050781 C-2.87334152 24.74480461 -2.87334152 24.74480461 -4.509552 24.71858215 C-7.8384342 24.2467282 -9.72360502 23.29186689 -12.41748047 21.30639648 C-15.29103002 16.94652819 -16.15776526 13.48839003 -15.41748047 8.30639648 C-11.65237085 1.77721829 -7.22708115 0.06712745 0 0 Z " fill="#FEC239" transform="translate(424.41748046875,283.693603515625)"/>
<path d="M0 0 C1.29682205 -0.01429802 1.29682205 -0.01429802 2.61984253 -0.02888489 C4.01675827 -0.02751778 4.01675827 -0.02751778 5.44189453 -0.02612305 C6.4024173 -0.03040817 7.36294006 -0.0346933 8.35256958 -0.03910828 C10.38510347 -0.04485258 12.41765793 -0.04535111 14.45019531 -0.04101562 C17.55585981 -0.03786094 20.66056696 -0.0612954 23.76611328 -0.08666992 C25.7413725 -0.08894347 27.71663427 -0.08964616 29.69189453 -0.08862305 C30.61912323 -0.09783279 31.54635193 -0.10704254 32.50167847 -0.11653137 C37.39167915 -0.08155554 40.74758593 0.06803134 44.69970703 3.2746582 C47.09301628 5.91989475 48.57379559 7.87481929 48.89892578 11.48950195 C48.64717256 15.81246447 48.04871223 17.84511335 45.26220703 21.2746582 C42.04255012 23.78756115 40.51647412 24.39994821 36.52880859 24.45166016 C35.23671478 24.47091301 35.23671478 24.47091301 33.91851807 24.49055481 C32.98521667 24.49794174 32.05191528 24.50532867 31.09033203 24.51293945 C30.13076599 24.5210112 29.17119995 24.52908295 28.18255615 24.53739929 C26.14825246 24.55124561 24.11392548 24.56196531 22.07958984 24.56982422 C18.97594807 24.58701287 15.87337812 24.63089134 12.77001953 24.67504883 C10.79346486 24.68517786 8.81690114 24.69369331 6.84033203 24.70043945 C5.45252533 24.72670158 5.45252533 24.72670158 4.03668213 24.75349426 C-1.73296227 24.73418145 -4.86654514 24.04051869 -9.30029297 20.2746582 C-11.64845174 17.28609249 -11.71545833 14.05570682 -11.62451172 10.3059082 C-11.09031701 6.95914617 -9.43153071 4.83214349 -7.30029297 2.2746582 C-4.20084614 0.20836032 -3.51377169 0.02130419 0 0 Z " fill="#FEC338" transform="translate(43.30029296875,344.725341796875)"/>
<path d="M0 0 C0.8644725 -0.0127597 1.72894501 -0.02551941 2.61961365 -0.03866577 C4.00878746 -0.04200424 4.00878746 -0.04200424 5.42602539 -0.04541016 C6.86468712 -0.05539536 6.86468712 -0.05539536 8.33241272 -0.06558228 C10.35895878 -0.07569816 12.38553809 -0.08039962 14.41210938 -0.08007812 C17.50910375 -0.08445207 20.60467363 -0.12078517 23.70141602 -0.15869141 C25.67211427 -0.16455965 27.64281929 -0.16852899 29.61352539 -0.17041016 C30.53761703 -0.18478119 31.46170868 -0.19915222 32.4138031 -0.21395874 C36.66934653 -0.18377811 38.95668934 -0.10676482 42.62744141 2.20996094 C46.24051092 6.0477496 47.04729748 8.86852106 46.90649414 14.25927734 C46.37262028 17.64481892 44.77892066 19.73233182 42.58618164 22.29052734 C39.71319109 24.05505492 37.53809128 24.54721502 34.18823242 24.58105469 C32.8963652 24.60019424 32.8963652 24.60019424 31.57839966 24.61972046 C30.65542084 24.62194611 29.73244202 24.62417175 28.78149414 24.62646484 C27.34638992 24.63645004 27.34638992 24.63645004 25.8822937 24.64663696 C23.85994385 24.65675376 21.83756068 24.66145428 19.81518555 24.66113281 C16.72917347 24.66550187 13.64459663 24.70182057 10.55883789 24.73974609 C8.59139485 24.74561535 6.62394504 24.74958401 4.65649414 24.75146484 C3.2780986 24.77302139 3.2780986 24.77302139 1.87185669 24.79501343 C-3.86377151 24.75433238 -7.02118793 24.06074497 -11.41381836 20.29052734 C-13.75422174 16.62728728 -13.62409852 13.38109774 -12.95678711 9.22021484 C-11.91630693 5.52239318 -9.80743127 3.12530322 -6.55296326 1.1758728 C-4.20521926 0.20419272 -2.53216824 0.02547768 0 0 Z " fill="#FEC238" transform="translate(433.413818359375,344.70947265625)"/>
<path d="M0 0 C5.59665996 7.15128773 4.48783377 15.64876339 4.375 24.3125 C4.33375 28.788125 4.2925 33.26375 4.25 37.875 C-6.31 37.875 -16.87 37.875 -27.75 37.875 C-28 22.25 -28 22.25 -28.04785156 17.35302734 C-28.0784668 16.0686377 -28.10908203 14.78424805 -28.140625 13.4609375 C-28.16157227 12.1517334 -28.18251953 10.8425293 -28.20410156 9.49365234 C-28.96351528 4.45964959 -31.20191379 1.42308621 -34.75 -2.125 C-30.54208145 -2.32270851 -26.33366185 -2.50636206 -22.125 -2.6875 C-20.93519531 -2.74357422 -19.74539063 -2.79964844 -18.51953125 -2.85742188 C-17.36582031 -2.90576172 -16.21210938 -2.95410156 -15.0234375 -3.00390625 C-13.96560059 -3.0510376 -12.90776367 -3.09816895 -11.81787109 -3.14672852 C-7.07984234 -3.11317093 -3.80213825 -2.93801592 0 0 Z " fill="#F7B722" transform="translate(500.75,474.125)"/>
<path d="M0 0 C3.36186418 4.05401269 3.25950212 6.89715251 3.22265625 11.9765625 C3.2212413 12.70620209 3.21982635 13.43584167 3.21836853 14.18759155 C3.21276531 16.52093585 3.20021235 18.85418464 3.1875 21.1875 C3.18248541 22.76822778 3.17792243 24.34895707 3.17382812 25.9296875 C3.16364517 29.80735818 3.14407055 33.68482202 3.125 37.5625 C-7.105 37.5625 -17.335 37.5625 -27.875 37.5625 C-27.91238281 35.31050781 -27.94976562 33.05851562 -27.98828125 30.73828125 C-28.03454821 28.54718546 -28.08576279 26.35625702 -28.13745117 24.1652832 C-28.17061916 22.64748379 -28.19867632 21.12956344 -28.22143555 19.61157227 C-28.25513278 17.42411981 -28.30745204 15.23776736 -28.36328125 13.05078125 C-28.38946533 11.73634033 -28.41564941 10.42189941 -28.44262695 9.06762695 C-29.0274843 4.32635257 -30.39734922 1.78683922 -34.0625 -1.25 C-34.660625 -1.641875 -35.25875 -2.03375 -35.875 -2.4375 C-31.68793153 -2.63560076 -27.50034345 -2.81908516 -23.3125 -3 C-22.13107422 -3.05607422 -20.94964844 -3.11214844 -19.73242188 -3.16992188 C-4.49406885 -3.81018881 -4.49406885 -3.81018881 0 0 Z " fill="#F7B723" transform="translate(112.875,474.4375)"/>
<path d="M0 0 C1.78083984 -0.03867187 1.78083984 -0.03867187 3.59765625 -0.078125 C8.16416155 0.37051412 11.54726045 1.81182115 14.75 5.125 C17.10458386 9.33846585 17.07417259 13.76092998 17.0625 18.5 C17.06636719 20.08554687 17.06636719 20.08554687 17.0703125 21.703125 C16.9375 24.25 16.9375 24.25 15.9375 25.25 C13.64598583 25.33790975 11.35177476 25.35694038 9.05859375 25.34765625 C8.02860008 25.34553383 8.02860008 25.34553383 6.97779846 25.34336853 C4.77682199 25.33775479 2.57594591 25.32520007 0.375 25.3125 C-1.11393083 25.30748676 -2.60286324 25.30292355 -4.09179688 25.29882812 C-7.74873075 25.28778093 -11.40560558 25.27050713 -15.0625 25.25 C-15.10084961 24.08033691 -15.13919922 22.91067383 -15.17871094 21.70556641 C-15.20219604 21.00796204 -15.22568115 20.31035767 -15.24987793 19.59161377 C-15.29585384 18.14776401 -15.33113793 16.7035635 -15.36035156 15.25927734 C-15.60275335 10.23390563 -16.78055828 7.2386372 -20.0625 3.25 C-21.0525 2.59 -22.0425 1.93 -23.0625 1.25 C-15.38048565 0.63979744 -7.70541635 0.15288525 0 0 Z " fill="#FEE666" transform="translate(87.0625,446.75)"/>
<path d="M0 0 C1.09441406 -0.02578125 2.18882812 -0.0515625 3.31640625 -0.078125 C7.78673793 0.39184729 11.16818354 1.89314447 14.25 5.1875 C16.73390175 9.50164514 16.54550443 13.58552123 16.5 18.5 C16.49097656 19.76328125 16.48195313 21.0265625 16.47265625 22.328125 C16.46105469 23.29234375 16.44945312 24.2565625 16.4375 25.25 C12.04093827 25.27465504 7.6444128 25.29283842 3.24780273 25.30493164 C1.75105082 25.30997121 0.25430384 25.31680287 -1.24243164 25.32543945 C-3.38949807 25.33752159 -5.53649962 25.34323191 -7.68359375 25.34765625 C-9.62383423 25.35551147 -9.62383423 25.35551147 -11.60327148 25.36352539 C-14.5625 25.25 -14.5625 25.25 -15.5625 24.25 C-15.73244813 20.94167633 -15.85961652 17.64042893 -15.90429688 14.328125 C-16.15171975 8.06775091 -18.30848654 5.50401346 -22.5625 1.25 C-15.0483187 0.66065245 -7.5369464 0.16087399 0 0 Z " fill="#FEE566" transform="translate(475.5625,446.75)"/>
<path d="M0 0 C2.3778152 3.77653002 3.125 5.92362949 3.125 10.375 C1.98248212 13.98295121 0.94984858 16.52170837 -1.6875 19.25 C-6.31801735 21.63140892 -11.27180467 21.4722798 -16.3671875 21.25390625 C-17.56601562 21.20556641 -18.76484375 21.15722656 -20 21.10742188 C-21.2375 21.05134766 -22.475 20.99527344 -23.75 20.9375 C-25.01070313 20.88529297 -26.27140625 20.83308594 -27.5703125 20.77929688 C-30.67215237 20.65005355 -33.77363488 20.51510469 -36.875 20.375 C-36.07707031 19.75109375 -35.27914063 19.1271875 -34.45703125 18.484375 C-30.54391075 15.28757459 -30.01458486 13.59138238 -29.4375 8.5625 C-29.49240485 5.12032652 -30.32364114 3.33562637 -32.40234375 0.61328125 C-32.8624585 0.00137939 -33.32257324 -0.61052246 -33.79663086 -1.2409668 C-34.15249268 -1.69769775 -34.50835449 -2.15442871 -34.875 -2.625 C-30.85462032 -2.82320989 -26.83369488 -3.0066467 -22.8125 -3.1875 C-21.67876953 -3.24357422 -20.54503906 -3.29964844 -19.37695312 -3.35742188 C-4.39477345 -4.01261924 -4.39477345 -4.01261924 0 0 Z " fill="#F7B723" transform="translate(488.875,287.625)"/>
<path d="M0 0 C4.30481935 -0.17385876 8.607749 -0.30043227 12.91503906 -0.38452148 C14.37796645 -0.41959166 15.84065076 -0.4672653 17.30273438 -0.52807617 C29.37590887 -1.01741805 29.37590887 -1.01741805 33.30908203 1.4465332 C36.01387775 4.45217418 37.33615603 7.00414535 37.625 11.0625 C36.92897827 15.44743691 35.87543785 17.64532251 33 21 C29.3641205 23.49477596 25.92171946 23.22953746 21.609375 23.1953125 C20.90476135 23.1924826 20.20014771 23.18965271 19.47418213 23.18673706 C17.2326124 23.17557801 14.99144814 23.15048193 12.75 23.125 C11.22656829 23.11496464 9.70313029 23.10583976 8.1796875 23.09765625 C4.45299414 23.07565291 0.72653667 23.04115272 -3 23 C-2.01 22.34 -1.02 21.68 0 21 C2.42397262 19.21766719 3.76476306 17.84306393 4.58203125 14.9140625 C5.16288994 11.07145889 5.32471469 8.7112798 3.6875 5.125 C3.130625 4.42375 2.57375 3.7225 2 3 C1.34 2.01 0.68 1.02 0 0 Z " fill="#F7B623" transform="translate(66,285)"/>
<path d="M0 0 C3.72890255 -0.1164862 7.45733514 -0.18734576 11.1875 -0.25 C12.77014648 -0.30027344 12.77014648 -0.30027344 14.38476562 -0.3515625 C22.25350634 -0.4508526 22.25350634 -0.4508526 26.15625 1.90625 C29.60547916 5.82317125 30.46032406 8.60830759 30.3203125 13.96875 C29.78643864 17.35429158 28.19273902 19.44180448 26 22 C22.93271533 23.9315869 20.60931003 24.23913793 17.015625 24.1953125 C16.08105469 24.18886719 15.14648438 24.18242187 14.18359375 24.17578125 C13.21550781 24.15902344 12.24742187 24.14226562 11.25 24.125 C10.26644531 24.11597656 9.28289062 24.10695313 8.26953125 24.09765625 C5.84610593 24.07412785 3.42317778 24.04125368 1 24 C1.78375 23.2575 2.5675 22.515 3.375 21.75 C6.2158094 18.77391396 7.89861346 16.91958508 8.1171875 12.78125 C7.60297779 7.8161209 7.60297779 7.8161209 5.125 3.5625 C3.44882782 2.33002045 1.73109639 1.15406426 0 0 Z " fill="#F7B723" transform="translate(450,345)"/>
<path d="M0 0 C3.3956697 -0.08745946 6.79104773 -0.14054444 10.1875 -0.1875 C11.14720703 -0.21263672 12.10691406 -0.23777344 13.09570312 -0.26367188 C21.99338568 -0.35603536 21.99338568 -0.35603536 26 3 C28.39330925 5.64523654 29.87408856 7.60016108 30.19921875 11.21484375 C29.94746553 15.53780627 29.3490052 17.57045514 26.5625 21 C23.10090571 23.70173213 21.5196815 24.12361254 17.2109375 24.09765625 C16.26992187 24.09443359 15.32890625 24.09121094 14.359375 24.08789062 C12.88210937 24.07532227 12.88210937 24.07532227 11.375 24.0625 C10.38242188 24.05798828 9.38984375 24.05347656 8.3671875 24.04882812 C5.9113984 24.03702145 3.45572896 24.020554 1 24 C1.42152344 23.51789063 1.84304687 23.03578125 2.27734375 22.5390625 C3.09912109 21.59160156 3.09912109 21.59160156 3.9375 20.625 C4.48277344 19.99851562 5.02804688 19.37203125 5.58984375 18.7265625 C7.93587477 15.85413671 8.13182486 14.25204844 7.8125 10.625 C7.41399344 7.40071961 7.15268562 6.1984913 5.125 3.5625 C3.44882782 2.33002045 1.73109639 1.15406426 0 0 Z " fill="#F7B724" transform="translate(62,345)"/>
<path d="M0 0 C2.9375 2.0625 2.9375 2.0625 5 5 C5 8.54361243 4.65850044 10.86591591 2.875 13.9375 C-0.18452459 15.6712306 -2.56817525 15.42145216 -6 15 C-8.4375 13.4375 -8.4375 13.4375 -10 11 C-10.56783945 7.02512383 -10.62340519 4.93510779 -8.375 1.5625 C-5.24316508 -0.49791771 -3.68455227 -0.6767545 0 0 Z " fill="#FFC53F" transform="translate(371,139)"/>
<path d="M0 0 C2.4375 1.5625 2.4375 1.5625 4 4 C4.56288002 7.94016013 4.60396028 10.05782196 2.4375 13.4375 C-0.96719488 15.61999672 -3.03430012 15.63734462 -7 15 C-9.5 12.9375 -9.5 12.9375 -11 10 C-10.93977486 6.50694211 -10.63658168 4.09633511 -8.875 1.0625 C-5.81547541 -0.6712306 -3.43182475 -0.42145216 0 0 Z " fill="#FFC53E" transform="translate(147,139)"/>
<path d="M0 0 C2.375 0.9375 2.375 0.9375 4 3 C4.50786669 6.06431924 4.61329775 8.95008689 4 12 C2.47985637 14.08729202 1.59145183 14.8676388 -0.9375 15.43359375 C-6.43168077 15.4439994 -6.43168077 15.4439994 -9 13.4375 C-10.38885542 10.05216491 -10.45310904 7.62487235 -10 4 C-7.24846472 -0.12730291 -4.82246105 -0.70327557 0 0 Z " fill="#FFC43D" transform="translate(397,139)"/>
<path d="M0 0 C2.375 1.5625 2.375 1.5625 4 4 C4.56288002 7.94016013 4.60396028 10.05782196 2.4375 13.4375 C-0.90506283 15.58016848 -3.10495209 15.49573337 -7 15 C-9.1642907 13.40183163 -9.89960563 12.49925851 -10.43359375 9.84375 C-10.44406064 3.56361543 -10.44406064 3.56361543 -8.375 0.9375 C-5.29946814 -0.27652573 -3.28060601 -0.47842171 0 0 Z " fill="#FFC43C" transform="translate(121,139)"/>
<path d="M0 0 C2.375 1.5 2.375 1.5 4 4 C4.6293407 7.51440821 4.63147635 10.7370473 3 14 C-0.26205554 15.63102777 -3.43555389 15.51981506 -7 15 C-9 14 -9 14 -10 12 C-10.75912409 5.16788321 -10.75912409 5.16788321 -8.375 1.5 C-5.27859404 -0.45562482 -3.60146865 -0.60024477 0 0 Z " fill="#FFC43D" transform="translate(397,166)"/>
<path d="M0 0 C2.375 1.5625 2.375 1.5625 4 4 C4.45310904 7.62487235 4.38885542 10.05216491 3 13.4375 C0.28486205 15.55870152 -1.74916293 15.51337798 -5.125 15.30859375 C-7 15 -7 15 -9 14 C-10.63147635 10.7370473 -10.6293407 7.51440821 -10 4 C-7.31163109 -0.13595217 -4.79825109 -0.79970851 0 0 Z " fill="#FFC43C" transform="translate(121,166)"/>
</svg>
