<?xml version="1.0" encoding="UTF-8"?>
<svg version="1.1" xmlns="http://www.w3.org/2000/svg" width="512" height="512">
<path d="M0 0 C5.76749034 6.0565531 6.35603511 11.83088725 6.2734375 19.859375 C5.18221452 42.39691099 -5.5263369 65.40758205 -20.97674561 81.61802673 C-21.57370326 82.25054539 -22.17066091 82.88306404 -22.78570819 83.53474993 C-31.4470388 92.65163307 -40.36026222 101.52533597 -49.24687195 110.42157376 C-51.94249633 113.12116584 -54.63531459 115.82355504 -57.32858276 118.52549744 C-63.79782683 125.01430224 -70.27173518 131.49844331 -76.74629796 137.98194042 C-79.19065085 140.42981446 -81.63469178 142.87799985 -84.07871796 145.32620009 C-94.8726913 156.13860168 -105.66800163 166.94966631 -116.46733475 177.75671482 C-119.09672241 180.38801182 -121.72610451 183.01931437 -124.35546875 185.65063477 C-125.0088451 186.30449486 -125.66222146 186.95835495 -126.33539709 187.63202899 C-136.94619336 198.25114623 -147.54842768 208.87876947 -158.14716974 219.50991643 C-169.058345 230.45417747 -179.9770505 241.39087975 -190.9031837 252.32020801 C-197.02617599 258.44536138 -203.14586141 264.57373941 -209.25711823 270.71060371 C-214.45319009 275.92840127 -219.65606288 281.13929559 -224.86786464 286.34138335 C-227.52335112 288.99233387 -230.17554524 291.64636566 -232.81901932 294.30929947 C-235.68975103 297.20098085 -238.57588905 300.07679019 -241.46368408 302.95143127 C-242.28879651 303.78751295 -243.11390894 304.62359463 -243.96402478 305.48501211 C-253.12329849 314.54411287 -263.42031659 321.13170556 -276.625 321.1875 C-278.08391081 321.14036596 -279.54273061 321.08371548 -281 321 C-279.57244148 317.70658146 -277.8363209 315.65356316 -275.2265625 313.20703125 C-274.1128125 312.13678711 -274.1128125 312.13678711 -272.9765625 311.04492188 C-271.42270271 309.56978754 -269.86288838 308.10089746 -268.296875 306.63867188 C-262.58432233 301.11884373 -258.81704513 295.94730479 -257.50390625 287.99609375 C-257.70178886 279.3552196 -259.32709726 273.01273417 -265.25390625 266.5390625 C-270.0656373 262.2978499 -275.86365244 260.24598804 -282.1875 259.75 C-295.98529057 260.65477315 -304.24330307 269.99908122 -313.39135742 279.3762207 C-314.26497925 280.27087036 -314.26497925 280.27087036 -315.15625 281.18359375 C-315.68025391 281.72556396 -316.20425781 282.26753418 -316.74414062 282.82592773 C-318 284 -318 284 -319 284 C-319.92959698 270.88235369 -316.30099272 261.92383727 -308 252 C-304.91542621 248.64895819 -301.70877462 245.42984956 -298.48277283 242.21534729 C-297.53346326 241.26229301 -296.58458448 240.30880947 -295.63609511 239.35493892 C-293.04963679 236.75633655 -290.45705676 234.16392082 -287.86333668 231.57256925 C-285.05864877 228.76829169 -282.25970722 225.95828799 -279.45996094 223.14907837 C-273.98151395 217.65406748 -268.49756754 212.16457751 -263.01139151 206.67728419 C-258.54848728 202.21342726 -254.08717089 197.74798953 -249.62695503 193.28144646 C-236.96083737 180.5977287 -224.29054848 167.91819906 -211.6148768 155.24402917 C-210.93251677 154.56174906 -210.25015674 153.87946894 -209.54711914 153.17651367 C-208.86391799 152.49339428 -208.18071683 151.81027488 -207.47681261 151.1064549 C-196.41108056 140.04153533 -185.35535441 128.96667799 -174.30414134 117.88725913 C-162.93673374 106.49106967 -151.56182954 95.10240997 -140.17915922 83.72146457 C-133.79687516 77.33984259 -127.41766409 70.95521903 -121.04652214 64.56247139 C-115.62104464 59.11871216 -110.18858832 53.68203555 -104.74720513 48.25417323 C-101.97586505 45.48932772 -99.20773141 42.72147451 -96.44838905 39.94465065 C-76.96607733 20.34657968 -30.79055875 -20.89142448 0 0 Z M-62 37 C-61.67 38.98 -61.34 40.96 -61 43 C-59.989375 43.144375 -58.97875 43.28875 -57.9375 43.4375 C-56.638125 43.623125 -55.33875 43.80875 -54 44 C-52.205625 44.0928125 -52.205625 44.0928125 -50.375 44.1875 C-46.81164547 45.04534461 -45.06843209 46.09625721 -42.85546875 49.046875 C-41.45321241 52.2483735 -41.79107879 55.30632724 -42.1171875 58.73046875 C-42.2080599 61.0666026 -42.2080599 61.0666026 -40.66796875 62.77734375 C-38.32790854 64.49265721 -36.82805081 64.43508474 -34 64 C-31.24691476 59.87037214 -30.54416156 56.43493702 -31.46875 51.49609375 C-33.65012266 43.5411967 -36.82739694 39.27304012 -44 35 C-47.03306113 33.98897962 -49.25940239 33.8017465 -52.4375 33.75 C-53.38496094 33.72421875 -54.33242188 33.6984375 -55.30859375 33.671875 C-58.3902834 34.04758172 -59.71972555 34.9515265 -62 37 Z " fill="#FE747B" transform="translate(460,91)"/>
<path d="M0 0 C3.49306193 0.91562228 6.99197584 1.80830341 10.49055099 2.70258331 C14.9528803 3.84452651 19.41468256 4.98837146 23.87420273 6.14124298 C34.70362095 8.94042523 45.54671802 11.68048898 56.40095139 14.38178253 C57.17723892 14.57502609 57.95352646 14.76826965 58.75333786 14.96736908 C61.90777129 15.75247822 65.06227381 16.53730879 68.21688843 17.32168961 C76.96528938 19.49718815 85.71080763 21.68417165 94.45563889 23.87397003 C95.24594498 24.0718663 96.03625107 24.26976257 96.85050583 24.4736557 C114.85125737 28.98215085 132.84522906 33.51737906 150.83480072 38.07026672 C153.13535751 38.65221726 155.43610923 39.23339083 157.7369194 39.81433868 C161.34235114 40.7248436 164.94720273 41.63761152 168.55162239 42.55211449 C170.47296652 43.03912841 172.39481019 43.52417028 174.31667709 44.00911713 C182.52127641 46.09485152 190.66057248 48.35448556 198.78767014 50.72162628 C197.34569055 54.02190503 195.55947836 56.19718142 193.01652145 58.733284 C192.2312558 59.52129898 191.44599014 60.30931396 190.63692856 61.12120819 C189.77450043 61.97644577 188.9120723 62.83168335 188.02350998 63.71283722 C187.11613586 64.62050339 186.20876175 65.52816956 185.27389145 66.46334076 C182.7888781 68.94892766 180.29774889 71.42830206 177.80547667 73.90660763 C175.20072 76.49885744 172.60163015 79.09677632 170.00193405 81.69409943 C165.07963798 86.61018061 160.15226611 91.52114151 155.22305071 96.43028378 C149.61094413 102.02003169 144.00451898 107.61546316 138.3985641 113.21137953 C126.86790986 124.72113156 115.33014099 136.22372424 103.78767014 147.72162628 C100.38403065 146.39544189 97.400089 144.97719397 94.33063889 142.99115753 C93.47768234 142.44314484 92.6247258 141.89513214 91.74592209 141.330513 C90.83157394 140.73770538 89.9172258 140.14489777 88.97517014 139.53412628 C86.99398106 138.26108504 85.01218886 136.98898203 83.02985764 135.71772003 C82.00344162 135.05884796 80.9770256 134.39997589 79.91950607 133.721138 C74.83626939 130.47576004 69.71877933 127.28581528 64.60017014 124.09662628 C57.48321209 119.65825828 50.37456759 115.20784827 43.28767014 110.72162628 C36.13708872 106.19570903 28.96640505 101.70274623 21.78767014 97.22162628 C10.67154024 90.28184828 -0.41221469 83.29213322 -11.4847908 76.28314972 C-19.96796248 70.91446726 -28.4597271 65.56054425 -36.97819901 60.24799347 C-40.01810942 58.35082043 -43.05480807 56.44858541 -46.09123611 54.54584503 C-50.21154413 51.96512335 -54.34592407 49.40904518 -58.48967361 46.86615753 C-60.48076605 45.63081405 -62.4716593 44.39514947 -64.46232986 43.15912628 C-65.38505692 42.59983429 -66.30778397 42.0405423 -67.25847244 41.46430206 C-73.31228637 37.68059715 -76.90155876 34.65393958 -79.21232986 27.72162628 C-79.83884541 20.7215199 -79.38409209 15.69096614 -74.87639236 10.04975128 C-54.30755503 -12.62613768 -25.94240542 -6.83642683 0 0 Z " fill="#FE6279" transform="translate(120.21232986450195,111.27837371826172)"/>
<path d="M0 0 C0.99 0.495 0.99 0.495 2 1 C2.84069824 3.52774048 2.84069824 3.52774048 3.68554688 6.96337891 C3.84265137 7.59235549 3.99975586 8.22133207 4.16162109 8.86936855 C4.68842252 10.98659283 5.2034537 13.10651117 5.71875 15.2265625 C6.09139998 16.73321609 6.46483062 18.23967678 6.83898926 19.74595642 C7.64400713 22.99294341 8.44402557 26.24110667 9.24023438 29.49026489 C10.51105221 34.67522549 11.79331913 39.85730848 13.078125 45.03881836 C13.51611738 46.80552572 13.95410564 48.5722341 14.39208984 50.33894348 C14.61040466 51.21947702 14.82871948 52.10001057 15.0536499 53.00722694 C15.72356926 55.71085558 16.39243298 58.41474347 17.06103516 61.11869812 C20.77324678 76.12609668 24.54881456 91.11684387 28.35836983 106.0997982 C29.45555466 110.41557878 30.54902057 114.73227738 31.63898659 119.0498867 C35.35882211 133.78475848 39.11990683 148.50685933 42.99053955 163.20292664 C44.56542076 169.18475568 46.12316081 175.17101413 47.67708206 181.15831852 C48.74095227 185.25231724 49.81402562 189.3433824 50.91064453 193.42874146 C63.38631155 239.95378794 63.38631155 239.95378794 51.54296875 261.671875 C50.13180778 263.89100941 48.63645188 265.94298415 47 268 C46.50371094 268.65742188 46.00742187 269.31484375 45.49609375 269.9921875 C41.73777594 274.72197649 38.45394714 277.56581738 32.234375 278.34765625 C25.05542326 278.69938881 20.54566593 277.66249878 15 273 C12.81680502 270.40640365 11.13528131 267.6158058 9.4375 264.6875 C8.4053417 262.98283442 7.37276953 261.27841939 6.33984375 259.57421875 C5.53135986 258.21949463 5.53135986 258.21949463 4.70654297 256.83740234 C1.70627626 251.84897606 -1.4053008 246.93017053 -4.5 242 C-5.78158952 239.94812869 -7.06284293 237.89604741 -8.34375 235.84375 C-11.54666765 230.71908176 -14.76800971 225.60636949 -18 220.5 C-23.17684221 212.32086989 -28.30799264 204.11366027 -33.43359375 195.90234375 C-37.27149019 189.75700037 -41.12512731 183.62208883 -45 177.5 C-49.52586201 170.34938334 -54.01887978 163.17873534 -58.5 156 C-64.47560088 146.42828811 -70.48315558 136.87748857 -76.51757812 127.34277344 C-79.15964278 123.16733661 -81.79852543 118.98989023 -84.4375 114.8125 C-84.92178467 114.04639404 -85.40606934 113.28028809 -85.9050293 112.4909668 C-86.82423956 111.03612349 -87.73998583 109.57908439 -88.65185547 108.11962891 C-89.57464742 106.66876333 -90.52306436 105.23396822 -91.49267578 103.81396484 C-91.96044434 103.11609863 -92.42821289 102.41823242 -92.91015625 101.69921875 C-93.33562744 101.08264404 -93.76109863 100.46606934 -94.19946289 99.83081055 C-95.26403449 97.39615899 -94.90557672 96.48112565 -94 94 C-92.40891933 92.03977585 -92.40891933 92.03977585 -90.31114197 89.95037842 C-89.51883682 89.15394928 -88.72653168 88.35752014 -87.91021729 87.53695679 C-87.03484314 86.67236847 -86.15946899 85.80778015 -85.25756836 84.91699219 C-84.3405867 83.99957245 -83.42360504 83.08215271 -82.47883606 82.13693237 C-79.964988 79.62222316 -77.44199393 77.11687442 -74.91727138 74.61308956 C-72.28003304 71.9945979 -69.65128112 69.36761497 -67.0216217 66.74151611 C-62.04107465 61.77029543 -57.05292927 56.80677187 -52.06201702 51.8459599 C-46.38025659 46.19772504 -40.70700668 40.54097495 -35.03445995 34.88348913 C-23.3657583 23.2461499 -11.68640154 11.61956517 0 0 Z " fill="#FE6279" transform="translate(390,234)"/>
<path d="M0 0 C1.35329147 0.97282063 2.69411955 1.96440643 4 3 C6.15292894 1.92851916 8.29900645 0.84618418 10.4375 -0.25390625 C11.283125 -0.68574219 12.12875 -1.11757813 13 -1.5625 C13.845625 -1.99691406 14.69125 -2.43132813 15.5625 -2.87890625 C23.71540988 -6.62872217 34.93581179 -6.24786074 43.53515625 -4.12890625 C54.78711277 0.29928309 62.60746516 7.1253037 68 18 C72.28360163 29.99121929 71.34997365 44.55391395 66 56 C65.51402344 57.04285156 65.02804687 58.08570313 64.52734375 59.16015625 C54.6301895 78.79068205 38.29178883 94.9466767 20.65380859 107.79492188 C19.54294085 108.60437614 18.43912442 109.4235891 17.34228516 110.25195312 C15.76557425 111.44025361 14.16437889 112.59585124 12.5625 113.75 C11.65628906 114.40484375 10.75007813 115.0596875 9.81640625 115.734375 C5.9708091 117.46249355 4.04294331 117.15761348 0 116 C-2.74429173 114.4498725 -5.16390778 112.58744351 -7.625 110.625 C-8.66551514 109.81796631 -8.66551514 109.81796631 -9.72705078 108.99462891 C-11.83359105 107.34827628 -13.9199488 105.67965636 -16 104 C-16.60779297 103.51080078 -17.21558594 103.02160156 -17.84179688 102.51757812 C-36.6676964 87.24932891 -57.0513383 67.10752815 -61 42 C-61.77350692 28.9842586 -60.53537917 18.32055652 -52 8 C-38.48410169 -6.33041572 -17.32813195 -10.08440466 0 0 Z " fill="#FEA480" transform="translate(305,5)"/>
<path d="M0 0 C2.39244988 3.8065117 2.63240591 7.87808553 3.0703125 12.24609375 C3.19924393 13.45653099 3.19924393 13.45653099 3.33078003 14.69142151 C3.51094541 16.40155051 3.68721356 18.11209395 3.85986328 19.82299805 C4.12101831 22.39823672 4.39739925 24.97149541 4.67578125 27.54492188 C7.29217704 52.30593277 7.29217704 52.30593277 4.34375 58.453125 C3.18359375 59.71382813 3.18359375 59.71382813 2 61 C1.1234375 61.96421875 0.246875 62.9284375 -0.65625 63.921875 C-1.59895112 64.86979884 -2.54692522 65.81250682 -3.5 66.75 C-3.97308594 67.23082031 -4.44617188 67.71164062 -4.93359375 68.20703125 C-9.03006397 72.28080634 -12.01041773 74.2807087 -17.8125 74.5 C-18.62332031 74.5515625 -19.43414062 74.603125 -20.26953125 74.65625 C-24.65643696 73.6018864 -27.22218303 71.41511709 -30 68 C-32.97968797 62.88107788 -35.45728466 57.56166873 -37.9375 52.1875 C-38.64240816 50.6912815 -39.34879309 49.19575788 -40.05664062 47.70092773 C-41.43472197 44.78427402 -42.80361387 41.86362245 -44.16357422 38.93847656 C-45.69168928 35.65354494 -47.24526921 32.38181146 -48.81640625 29.1171875 C-49.54457502 27.5991042 -50.27247643 26.08089261 -51 24.5625 C-51.31960693 23.89694092 -51.63921387 23.23138184 -51.96850586 22.5456543 C-54 18.23291623 -54 18.23291623 -54 16 C-53.40574219 16.0721875 -52.81148437 16.144375 -52.19921875 16.21875 C-35.51332513 18.08715488 -19.93662011 16.60967966 -6.24609375 5.83203125 C-4.10499342 3.93888307 -2.02571082 2.01547996 0 0 Z " fill="#FF2172" transform="translate(220,404)"/>
<path d="M0 0 C0.7426561 0.05208115 1.48531219 0.10416229 2.25047302 0.15782166 C11.20038971 0.82036677 20.11830117 1.8133151 29.03515625 2.81640625 C30.74019074 3.00495231 32.44526876 3.19310512 34.15039062 3.38085938 C38.25832576 3.83403471 42.3656445 4.29244065 46.47265625 4.75390625 C45.02929469 7.77141942 43.55894136 9.8544783 41.22265625 12.25390625 C31.17274701 23.52071473 28.77256525 36.1496824 29.47265625 50.75390625 C29.77110007 54.09116318 30.11150207 57.42289268 30.47265625 60.75390625 C25.26594005 58.31007596 20.07054712 55.84331061 14.87841797 53.36865234 C12.39337488 52.19043908 9.9058161 51.01890347 7.41455078 49.85400391 C3.7150664 48.12393211 0.02313207 46.37847323 -3.66531372 44.625 C-5.1502089 43.92232693 -6.63757184 43.22484399 -8.12741089 42.53271484 C-10.2545194 41.5433869 -12.37191748 40.53550713 -14.48828125 39.5234375 C-15.12410629 39.23294022 -15.75993134 38.94244293 -16.4150238 38.6431427 C-21.56499133 36.14270118 -24.95262275 32.90334825 -27.52734375 27.75390625 C-28.05484364 21.42390756 -27.45864284 18.9695601 -23.52734375 13.75390625 C-21.60844567 11.58380819 -19.59049146 9.53641316 -17.52734375 7.50390625 C-17.0065625 6.97539062 -16.48578125 6.446875 -15.94921875 5.90234375 C-10.57727663 0.55753265 -7.48991702 -0.60365019 0 0 Z " fill="#FF2173" transform="translate(102.52734375,327.24609375)"/>
<path d="M0 0 C4.35703832 2.24879397 6.80337947 4.99608209 9.00390625 9.3125 C10.69701372 15.29481305 9.6533536 19.84083014 7.00390625 25.3125 C4.51839061 28.62991871 1.66511788 31.49366539 -1.28515625 34.3984375 C-2.10301605 35.22203766 -2.92087585 36.04563782 -3.76351929 36.89419556 C-5.48943908 38.6241818 -7.2228933 40.34668044 -8.96337891 42.06201172 C-11.61310904 44.67961211 -14.22930172 47.32768112 -16.84375 49.98046875 C-18.53063176 51.66338538 -20.21937396 53.34443968 -21.91015625 55.0234375 C-23.07316757 56.2046669 -23.07316757 56.2046669 -24.25967407 57.40975952 C-28.99023498 62.0210962 -33.32637491 65.31221122 -39.99609375 66.3125 C-46.44597718 65.91782076 -50.50776836 63.91029674 -54.99609375 59.3125 C-56.95488053 56.16228621 -57.31944191 53.62544104 -57.37109375 49.9375 C-57.39945312 49.02226562 -57.4278125 48.10703125 -57.45703125 47.1640625 C-56.28204414 39.89507442 -49.66259363 34.67235273 -44.6875 29.703125 C-43.48189674 28.49109406 -43.48189674 28.49109406 -42.25193787 27.25457764 C-40.5574684 25.5543833 -38.86039653 23.85677909 -37.16088867 22.16162109 C-34.56215227 19.56605418 -31.97704633 16.95742144 -29.39257812 14.34765625 C-27.74169635 12.69450228 -26.09003005 11.04213131 -24.4375 9.390625 C-23.28103722 8.2203476 -23.28103722 8.2203476 -22.10121155 7.02642822 C-21.37373215 6.30517761 -20.64625275 5.583927 -19.89672852 4.84082031 C-19.26259537 4.20605774 -18.62846222 3.57129517 -17.97511292 2.91729736 C-12.86395309 -1.22736983 -6.19203211 -2.13267642 0 0 Z " fill="#FF2373" transform="translate(183.99609375,360.6875)"/>
<path d="M0 0 C5.84829571 3.46355377 10.40263628 8.30578724 12.88671875 14.62890625 C14.14259039 21.66178745 13.93661425 27.79088124 10.51171875 34.12890625 C7.55425554 37.85088376 4.35670049 41.25301188 1.0078125 44.62255859 C-0.46541743 46.10588572 -1.91598572 47.60859123 -3.36328125 49.1171875 C-8.32127289 54.21210042 -8.32127289 54.21210042 -10.48828125 56.12890625 C-11.14828125 56.12890625 -11.80828125 56.12890625 -12.48828125 56.12890625 C-16.77828125 38.96890625 -21.06828125 21.80890625 -25.48828125 4.12890625 C-17.68121081 -1.07580738 -9.26374187 -3.24303679 0 0 Z " fill="#FE817C" transform="translate(441.48828125,289.87109375)"/>
<path d="M0 0 C5.57633596 3.34343872 9.64183894 8.06347041 12.0625 14.0625 C13.3172329 21.73031218 12.64951117 28.66691289 8.46875 35.34765625 C6.625 36.5 6.625 36.5 3.51953125 36.19921875 C2.15436077 35.88065601 0.79393417 35.54141947 -0.5625 35.1875 C-1.31337891 35.00525879 -2.06425781 34.82301758 -2.83789062 34.63525391 C-4.61050663 34.20172621 -6.38101067 33.75951704 -8.14990234 33.31103516 C-11.24291502 32.53321622 -14.34088564 31.78058002 -17.44172668 31.0348053 C-20.35564249 30.33289793 -23.26758847 29.62306198 -26.17910767 28.9112854 C-27.64321798 28.55371733 -29.10771769 28.19773993 -30.57260132 27.84335327 C-32.6544393 27.33773503 -34.73367813 26.82254794 -36.8125 26.3046875 C-38.02808594 26.00546387 -39.24367187 25.70624023 -40.49609375 25.39794922 C-43.375 24.5 -43.375 24.5 -45.375 22.5 C-42.22523992 19.23324883 -39.0523893 15.98986605 -35.875 12.75 C-34.988125 11.82960938 -34.10125 10.90921875 -33.1875 9.9609375 C-23.94555099 0.58307748 -13.40382364 -5.84135505 0 0 Z " fill="#FE817C" transform="translate(252.375,100.5)"/>
<path d="M0 0 C2.75 2.1875 2.75 2.1875 5 5 C5.46535156 5.53109375 5.93070313 6.0621875 6.41015625 6.609375 C10.52136358 11.9688319 10.5275139 17.03656445 10.46875 23.6328125 C9.94838175 27.3707911 9.06184535 29.8416278 7 33 C3.78931649 34.28879511 1.52159567 33.86987844 -1.76855469 33.01196289 C-2.70922791 32.77163834 -3.64990112 32.53131378 -4.61907959 32.28370667 C-5.62650208 32.01606003 -6.63392456 31.74841339 -7.671875 31.47265625 C-8.70942932 31.20488876 -9.74698364 30.93712128 -10.815979 30.66123962 C-14.12969779 29.80386861 -17.43980451 28.9333641 -20.75 28.0625 C-22.99586836 27.47894956 -25.24195971 26.89625663 -27.48828125 26.31445312 C-32.99481384 24.88624261 -38.49843842 23.4472338 -44 22 C-44 18 -44 18 -42.71826172 16.23242188 C-41.83291748 15.3594043 -41.83291748 15.3594043 -40.9296875 14.46875 C-40.28 13.82292969 -39.6303125 13.17710938 -38.9609375 12.51171875 C-38.27257812 11.84785156 -37.58421875 11.18398437 -36.875 10.5 C-36.20984375 9.83613281 -35.5446875 9.17226562 -34.859375 8.48828125 C-24.73150932 -1.46085739 -13.7779845 -6.4470569 0 0 Z " fill="#FE7179" transform="translate(182,85)"/>
<path d="M0 0 C4.92924563 3.83055835 8.30242089 7.90868674 10 14 C10.84998581 21.6923716 10.37757895 27.53032797 6 34 C2.92691803 37.52189917 -0.38227899 40.7616154 -3.75 44 C-4.63816406 44.87011719 -5.52632813 45.74023438 -6.44140625 46.63671875 C-8.61875201 48.76723987 -10.8048978 50.88780404 -13 53 C-14.86035583 50.20946625 -15.52355846 48.54796936 -16.32861328 45.37670898 C-16.56871124 44.44241562 -16.8088092 43.50812225 -17.05618286 42.54551697 C-17.30834564 41.53920731 -17.56050842 40.53289764 -17.8203125 39.49609375 C-18.08383514 38.46186783 -18.34735779 37.42764191 -18.61886597 36.36207581 C-19.17458069 34.17640134 -19.72749899 31.99001424 -20.27783203 29.80297852 C-21.12291257 26.44579257 -21.97672195 23.09092104 -22.83203125 19.73632812 C-23.3703052 17.61471356 -23.90808261 15.49297293 -24.4453125 13.37109375 C-24.70152374 12.36275986 -24.95773499 11.35442596 -25.22171021 10.3155365 C-25.45550385 9.38439529 -25.68929749 8.45325409 -25.93017578 7.49389648 C-26.13732208 6.67243637 -26.34446838 5.85097626 -26.55789185 5.00462341 C-27 3 -27 3 -27 1 C-19.11548697 -4.47535627 -8.34235047 -4.89810204 0 0 Z " fill="#FE727B" transform="translate(461,364)"/>
</svg>
