<?xml version="1.0" encoding="UTF-8"?>
<svg version="1.1" xmlns="http://www.w3.org/2000/svg" width="512" height="512">
<path d="M0 0 C0.08796382 3.66651247 0.14071247 7.33274918 0.1875 11 C0.21263672 12.02996094 0.23777344 13.05992188 0.26367188 14.12109375 C0.3253001 20.57151468 -0.50365211 25.07612683 -3 31 C-3.03108489 34.94643008 -2.22039042 38.33966672 -0.97265625 42.078125 C2.40576922 53.79280364 1.25413268 69.12878469 -4 80 C-4.350625 80.77988281 -4.70125 81.55976563 -5.0625 82.36328125 C-9.09298682 90.46623912 -15.66845202 96.66845202 -22 103 C-15.07 103.495 -15.07 103.495 -8 104 C-8 109.28 -8 114.56 -8 120 C-6.5975 120.103125 -5.195 120.20625 -3.75 120.3125 C7.80185282 121.49226369 18.16108862 123.92336577 26 133 C32.81090114 142.8123152 32 145.95069571 32 160 C42.56 160 53.12 160 64 160 C64 157.03 64 154.06 64 151 C66.27730527 140.24998753 72.76756402 131.83324578 81.59375 125.5078125 C92.43679855 118.7133048 103.62989653 119.55211991 116 120 C114.61002184 114.49032754 112.00205492 111.29856688 108.375 107.125 C92.06933895 87.5601642 86.138002 64.13935403 88 39 C89.93463215 28.26105387 96.86335321 19.78759735 105.58203125 13.5078125 C116.08878428 6.95594389 128.30624065 6.2529782 140.28515625 8.66015625 C150.39825985 11.94584814 158.50276671 18.96678592 164 28 C166.06056255 32.62982648 167.5844589 37.3378356 168.8125 42.25 C170.27779646 45.64331812 172.29552043 47.34581417 174.96875 49.84375 C177.37245826 52.39537877 179.15125559 55.12431829 181.0625 58.0625 C188.44131113 69.18265729 198.48236727 79.21541971 210 86 C210.58023926 86.34869141 211.16047852 86.69738281 211.75830078 87.05664062 C230.79163502 98.34491261 250.15001671 102.00922374 272 104 C263.17395907 127.20948958 236.54797064 145.82423469 214.95605469 156.12402344 C209.10088409 158.74613428 203.05749018 160.89858422 197 163 C197.75023437 163.4125 198.50046875 163.825 199.2734375 164.25 C213.23492459 172.12751413 225.54597358 181.82683212 232 197 C232 197.99 232 198.98 232 200 C233.12535156 199.82597656 234.25070312 199.65195312 235.41015625 199.47265625 C242.31654421 198.73495596 248.48412017 198.34880786 254.18359375 202.8125 C258.20921885 206.52624168 261.6696976 210.66200092 265 215 C265.495 215.64050293 265.99 216.28100586 266.5 216.94091797 C281.42199424 236.75919157 288.37580646 259.58401685 288.37060547 284.23413086 C288.37499985 286.56241959 288.41150118 288.88883882 288.44921875 291.21679688 C288.53122465 302.04453547 287.37272275 311.25685746 279.703125 319.46875 C272.81512967 325.66162653 265.68086581 328.26944693 256.4140625 328.1953125 C255.36138687 328.19106766 255.36138687 328.19106766 254.28744507 328.18673706 C252.06644972 328.17562512 249.84587155 328.15053834 247.625 328.125 C246.11068295 328.11495854 244.59635951 328.10583473 243.08203125 328.09765625 C239.38788742 328.07571554 235.69398449 328.04124875 232 328 C232.00888245 328.57105469 232.01776489 329.14210938 232.0269165 329.73046875 C232.1157504 335.70058126 232.17588306 341.6705045 232.21972656 347.64111328 C232.23978046 349.86612582 232.26703065 352.09108607 232.30175781 354.31591797 C232.35054934 357.52324365 232.37303162 360.72986951 232.390625 363.9375 C232.41127014 364.92427734 232.43191528 365.91105469 232.45318604 366.92773438 C232.4555561 374.30464406 230.94173561 379.64302935 226.03515625 385.2421875 C225.38417969 385.78101563 224.73320312 386.31984375 224.0625 386.875 C223.41410156 387.42929687 222.76570313 387.98359375 222.09765625 388.5546875 C216.51558028 392.40081061 211.29811223 392.32063614 204.73046875 392.3359375 C203.73549881 392.3425943 202.74052887 392.3492511 201.71540833 392.35610962 C199.61326949 392.36621898 197.51109867 392.37092717 195.40893555 392.37060547 C192.20892828 392.37497077 189.01030962 392.41128761 185.81054688 392.44921875 C183.76302552 392.45508899 181.71549765 392.459057 179.66796875 392.4609375 C178.71875046 392.47530853 177.76953217 392.48967957 176.79154968 392.50448608 C169.56314585 392.45529602 164.24132145 390.84039144 158.7578125 386.03515625 C158.21898437 385.38417969 157.68015625 384.73320312 157.125 384.0625 C156.57070313 383.41410156 156.01640625 382.76570313 155.4453125 382.09765625 C145.11823628 367.10944022 152 341.45648285 152 328 C83.36 328 14.72 328 -56 328 C-56 343.51 -56 359.02 -56 375 C-60.52533784 384.05067568 -60.52533784 384.05067568 -63.9375 386.875 C-64.58589844 387.42929687 -65.23429687 387.98359375 -65.90234375 388.5546875 C-71.48441972 392.40081061 -76.70188777 392.32063614 -83.26953125 392.3359375 C-84.26450119 392.3425943 -85.25947113 392.3492511 -86.28459167 392.35610962 C-88.38673051 392.36621898 -90.48890133 392.37092717 -92.59106445 392.37060547 C-95.79107172 392.37497077 -98.98969038 392.41128761 -102.18945312 392.44921875 C-104.23697448 392.45508899 -106.28450235 392.459057 -108.33203125 392.4609375 C-109.28124954 392.47530853 -110.23046783 392.48967957 -111.20845032 392.50448608 C-118.43685415 392.45529602 -123.75867855 390.84039144 -129.2421875 386.03515625 C-129.78101563 385.38417969 -130.31984375 384.73320312 -130.875 384.0625 C-131.42929688 383.41410156 -131.98359375 382.76570313 -132.5546875 382.09765625 C-135.20867321 378.2457905 -136.25215446 374.77465217 -136.22705078 370.11791992 C-136.22689972 369.17732224 -136.22674866 368.23672455 -136.22659302 367.2676239 C-136.21627045 366.2653627 -136.20594788 365.2631015 -136.1953125 364.23046875 C-136.1924826 363.19432938 -136.18965271 362.15819 -136.18673706 361.09065247 C-136.17556454 357.78948293 -136.15046505 354.48858719 -136.125 351.1875 C-136.11496643 348.94596747 -136.10584124 346.70443067 -136.09765625 344.46289062 C-136.07563478 338.9751674 -136.04218621 333.48760326 -136 328 C-136.91700684 328.02094727 -137.83401367 328.04189453 -138.77880859 328.06347656 C-142.22683035 328.13221946 -145.67410935 328.18207152 -149.12255859 328.21972656 C-150.60640048 328.23966981 -152.09016555 328.2668349 -153.57373047 328.30175781 C-164.93193044 328.56216159 -174.76914153 327.82823102 -183.46875 319.703125 C-189.65226529 312.82554167 -192.31302042 305.51828851 -192.30078125 296.28515625 C-192.30506638 295.55235947 -192.3093515 294.81956268 -192.31376648 294.06455994 C-192.31948802 292.51562526 -192.32002614 290.96666373 -192.31567383 289.41772461 C-192.31255087 287.10025303 -192.33586861 284.78410751 -192.36132812 282.46679688 C-192.47401627 256.52702698 -183.58281652 233.01111703 -167 213 C-166.31623291 212.11538086 -166.31623291 212.11538086 -165.61865234 211.21289062 C-157.50121796 200.8413723 -157.50121796 200.8413723 -151.65722656 199.43701172 C-146.37139933 198.89973316 -141.25297149 199.31021586 -136 200 C-135.89816406 199.28328125 -135.79632813 198.5665625 -135.69140625 197.828125 C-133.58906002 189.2286975 -126.32584306 180.98695861 -120 175 C-119.41041504 174.69570068 -118.82083008 174.39140137 -118.21337891 174.07788086 C-116.02725954 172.89329372 -114.59377491 171.92256437 -113 170 C-112.09035723 165.77301822 -112.24983005 161.61882777 -112.375 157.3125 C-112.61412328 146.79705357 -111.57069573 139.25630009 -104.5 131.125 C-103.675 130.42375 -102.85 129.7225 -102 129 C-101.278125 128.29875 -100.55625 127.5975 -99.8125 126.875 C-92.1397173 121.75981153 -81.08010081 120 -72 120 C-72 114.72 -72 109.44 -72 104 C-69.36 104 -66.72 104 -64 104 C-62.99376278 93.44888402 -64.82691195 86.93570706 -71.625 78.6875 C-73.50657643 76.44457699 -75.40430358 74.21783137 -77.31933594 72.00341797 C-86.98307864 60.48385484 -89.2734514 49.68053895 -88 35 C-86.26749466 25.93050897 -80.00926344 18.88195189 -72.84765625 13.33203125 C-66.50367023 9.17982543 -60.63687868 7.71827201 -53.05859375 7.83203125 C-51.49853295 7.8314708 -49.93847171 7.82870244 -48.37841797 7.82397461 C-47.57031677 7.82315887 -46.76221558 7.82234314 -45.92962646 7.82150269 C-30.04889681 7.76413432 -14.6055633 0 0 0 Z " fill="#E16076" transform="translate(208,104)"/>
<path d="M0 0 C0.08796382 3.66651247 0.14071247 7.33274918 0.1875 11 C0.21263672 12.02996094 0.23777344 13.05992188 0.26367188 14.12109375 C0.3253001 20.57151468 -0.50365211 25.07612683 -3 31 C-3.03108489 34.94643008 -2.22039042 38.33966672 -0.97265625 42.078125 C2.40576922 53.79280364 1.25413268 69.12878469 -4 80 C-4.350625 80.77988281 -4.70125 81.55976563 -5.0625 82.36328125 C-9.09298682 90.46623912 -15.66845202 96.66845202 -22 103 C-15.07 103.495 -15.07 103.495 -8 104 C-8 109.28 -8 114.56 -8 120 C-6.5975 120.103125 -5.195 120.20625 -3.75 120.3125 C7.80185282 121.49226369 18.16108862 123.92336577 26 133 C32.81090114 142.8123152 32 145.95069571 32 160 C42.56 160 53.12 160 64 160 C64 157.03 64 154.06 64 151 C66.27730527 140.24998753 72.76756402 131.83324578 81.59375 125.5078125 C92.43679855 118.7133048 103.62989653 119.55211991 116 120 C114.61002184 114.49032754 112.00205492 111.29856688 108.375 107.125 C92.06933895 87.5601642 86.138002 64.13935403 88 39 C89.93463215 28.26105387 96.86335321 19.78759735 105.58203125 13.5078125 C116.08878428 6.95594389 128.30624065 6.2529782 140.28515625 8.66015625 C150.39825985 11.94584814 158.50276671 18.96678592 164 28 C166.06056255 32.62982648 167.5844589 37.3378356 168.8125 42.25 C170.27779646 45.64331812 172.29552043 47.34581417 174.96875 49.84375 C177.37245826 52.39537877 179.15125559 55.12431829 181.0625 58.0625 C188.44131113 69.18265729 198.48236727 79.21541971 210 86 C210.58023926 86.34869141 211.16047852 86.69738281 211.75830078 87.05664062 C230.79163502 98.34491261 250.15001671 102.00922374 272 104 C263.17395907 127.20948958 236.54797064 145.82423469 214.95605469 156.12402344 C209.10088409 158.74613428 203.05749018 160.89858422 197 163 C197.75023437 163.4125 198.50046875 163.825 199.2734375 164.25 C213.23492459 172.12751413 225.54597358 181.82683212 232 197 C232 197.99 232 198.98 232 200 C110.56 200 -10.88 200 -136 200 C-134.05455875 190.27279375 -127.13550618 181.75324692 -120 175 C-119.41041504 174.69570068 -118.82083008 174.39140137 -118.21337891 174.07788086 C-116.02725954 172.89329372 -114.59377491 171.92256437 -113 170 C-112.09035723 165.77301822 -112.24983005 161.61882777 -112.375 157.3125 C-112.61412328 146.79705357 -111.57069573 139.25630009 -104.5 131.125 C-103.675 130.42375 -102.85 129.7225 -102 129 C-101.278125 128.29875 -100.55625 127.5975 -99.8125 126.875 C-92.1397173 121.75981153 -81.08010081 120 -72 120 C-72 114.72 -72 109.44 -72 104 C-69.36 104 -66.72 104 -64 104 C-62.99376278 93.44888402 -64.82691195 86.93570706 -71.625 78.6875 C-73.50657643 76.44457699 -75.40430358 74.21783137 -77.31933594 72.00341797 C-86.98307864 60.48385484 -89.2734514 49.68053895 -88 35 C-86.26749466 25.93050897 -80.00926344 18.88195189 -72.84765625 13.33203125 C-66.50367023 9.17982543 -60.63687868 7.71827201 -53.05859375 7.83203125 C-51.49853295 7.8314708 -49.93847171 7.82870244 -48.37841797 7.82397461 C-47.57031677 7.82315887 -46.76221558 7.82234314 -45.92962646 7.82150269 C-30.04889681 7.76413432 -14.6055633 0 0 0 Z " fill="#FB9AB4" transform="translate(208,104)"/>
<path d="M0 0 C8.25 0 16.5 0 25 0 C25.99 1.98 26.98 3.96 28 6 C30.93217492 7.46608746 33.5184883 7.12961842 36.79421806 7.13422108 C37.50444431 7.13657331 38.21467056 7.13892554 38.94641882 7.14134905 C41.35043319 7.14805967 43.75439377 7.14758021 46.15841675 7.14717102 C47.88970908 7.15046835 49.62100065 7.15419364 51.35229123 7.1583125 C56.12871223 7.16835528 60.90512067 7.17205294 65.68155074 7.17470181 C70.82547655 7.17859805 75.96939234 7.18817676 81.11331177 7.19691467 C93.54419293 7.216697 105.97507492 7.22674694 118.40596789 7.23564246 C124.25412689 7.24002194 130.10228499 7.24538958 135.95044327 7.25063133 C155.38049825 7.26764438 174.81055265 7.28214023 194.24061394 7.28938007 C199.28524654 7.29129009 204.32987914 7.2932104 209.37451172 7.29516602 C210.62838968 7.29564976 211.88226764 7.2961335 213.1741419 7.2966319 C233.5020998 7.30493844 253.82999896 7.33028554 274.15793119 7.36274669 C295.00900383 7.39577294 315.86004658 7.41382476 336.71114552 7.41702431 C348.42610828 7.41919339 360.14098536 7.42800008 371.8559227 7.45348549 C381.82942141 7.47513189 391.80281366 7.48327285 401.7763332 7.47351871 C406.86844591 7.46895653 411.96033866 7.47097101 417.05242157 7.49028015 C421.70957505 7.50778821 426.36634611 7.50701557 431.02350296 7.49138286 C432.71260602 7.48898787 434.40173471 7.49342717 436.09079836 7.50521151 C438.37903722 7.52019344 440.6658968 7.51075511 442.95409966 7.49498463 C444.86398558 7.49644984 444.86398558 7.49644984 446.81245506 7.49794465 C450.58160124 6.90914474 451.73440862 6.01201992 454 3 C454.33 2.01 454.66 1.02 455 0 C463.25 0 471.5 0 480 0 C480 9.52216077 478.27856327 16.42838175 471.703125 23.46875 C464.81512967 29.66162653 457.68086581 32.26944693 448.4140625 32.1953125 C447.71227875 32.1924826 447.010495 32.18965271 446.28744507 32.18673706 C444.06644972 32.17562512 441.84587155 32.15053834 439.625 32.125 C438.11068295 32.11495854 436.59635951 32.10583473 435.08203125 32.09765625 C431.38788742 32.07571554 427.69398449 32.04124875 424 32 C424.00888245 32.57105469 424.01776489 33.14210938 424.0269165 33.73046875 C424.1157504 39.70058126 424.17588306 45.6705045 424.21972656 51.64111328 C424.23978046 53.86612582 424.26703065 56.09108607 424.30175781 58.31591797 C424.35054934 61.52324365 424.37303162 64.72986951 424.390625 67.9375 C424.41127014 68.92427734 424.43191528 69.91105469 424.45318604 70.92773438 C424.4555561 78.30464406 422.94173561 83.64302935 418.03515625 89.2421875 C417.38417969 89.78101563 416.73320312 90.31984375 416.0625 90.875 C415.41410156 91.42929687 414.76570313 91.98359375 414.09765625 92.5546875 C408.51558028 96.40081061 403.29811223 96.32063614 396.73046875 96.3359375 C395.73549881 96.3425943 394.74052887 96.3492511 393.71540833 96.35610962 C391.61326949 96.36621898 389.51109867 96.37092717 387.40893555 96.37060547 C384.20892828 96.37497077 381.01030962 96.41128761 377.81054688 96.44921875 C375.76302552 96.45508899 373.71549765 96.459057 371.66796875 96.4609375 C370.71875046 96.47530853 369.76953217 96.48967957 368.79154968 96.50448608 C361.56314585 96.45529602 356.24132145 94.84039144 350.7578125 90.03515625 C349.94957031 89.05869141 349.94957031 89.05869141 349.125 88.0625 C348.57070313 87.41410156 348.01640625 86.76570313 347.4453125 86.09765625 C337.11823628 71.10944022 344 45.45648285 344 32 C275.36 32 206.72 32 136 32 C136 47.51 136 63.02 136 79 C131.47466216 88.05067568 131.47466216 88.05067568 128.0625 90.875 C127.41410156 91.42929687 126.76570313 91.98359375 126.09765625 92.5546875 C120.51558028 96.40081061 115.29811223 96.32063614 108.73046875 96.3359375 C107.73549881 96.3425943 106.74052887 96.3492511 105.71540833 96.35610962 C103.61326949 96.36621898 101.51109867 96.37092717 99.40893555 96.37060547 C96.20892828 96.37497077 93.01030962 96.41128761 89.81054688 96.44921875 C87.76302552 96.45508899 85.71549765 96.459057 83.66796875 96.4609375 C82.71875046 96.47530853 81.76953217 96.48967957 80.79154968 96.50448608 C73.56314585 96.45529602 68.24132145 94.84039144 62.7578125 90.03515625 C62.21898437 89.38417969 61.68015625 88.73320312 61.125 88.0625 C60.57070312 87.41410156 60.01640625 86.76570313 59.4453125 86.09765625 C56.79132679 82.2457905 55.74784554 78.77465217 55.77294922 74.11791992 C55.77310028 73.17732224 55.77325134 72.23672455 55.77340698 71.2676239 C55.78372955 70.2653627 55.79405212 69.2631015 55.8046875 68.23046875 C55.8075174 67.19432938 55.81034729 66.15819 55.81326294 65.09065247 C55.82443546 61.78948293 55.84953495 58.48858719 55.875 55.1875 C55.88503357 52.94596747 55.89415876 50.70443067 55.90234375 48.46289062 C55.92436522 42.9751674 55.95781379 37.48760326 56 32 C54.62448975 32.0314209 54.62448975 32.0314209 53.22119141 32.06347656 C49.77316965 32.13221946 46.32589065 32.18207152 42.87744141 32.21972656 C41.39359952 32.23966981 39.90983445 32.2668349 38.42626953 32.30175781 C27.06806956 32.56216159 17.23085847 31.82823102 8.53125 23.703125 C1.97671342 16.41287513 0 9.8214775 0 0 Z " fill="#CC495A" transform="translate(16,400)"/>
<path d="M0 0 C0.08796382 3.66651247 0.14071247 7.33274918 0.1875 11 C0.21263672 12.02996094 0.23777344 13.05992188 0.26367188 14.12109375 C0.3253001 20.57151468 -0.50365211 25.07612683 -3 31 C-3.03108489 34.94643008 -2.22039042 38.33966672 -0.97265625 42.078125 C2.40576922 53.79280364 1.25413268 69.12878469 -4 80 C-4.350625 80.77988281 -4.70125 81.55976563 -5.0625 82.36328125 C-9.09298682 90.46623912 -15.66845202 96.66845202 -22 103 C-15.07 103.495 -15.07 103.495 -8 104 C-8 109.28 -8 114.56 -8 120 C-6.5975 120.103125 -5.195 120.20625 -3.75 120.3125 C7.80185282 121.49226369 18.16108862 123.92336577 26 133 C30.53548862 139.53417852 32.15369186 144.15560131 32.0625 152.1875 C32.05798828 152.93708984 32.05347656 153.68667969 32.04882812 154.45898438 C32.03706354 156.30602383 32.01912865 158.15302213 32 160 C31.39961096 160.00146656 30.79922192 160.00293312 30.18063927 160.00444412 C15.51307907 160.04163634 0.84571862 160.10081401 -13.82164955 160.18390274 C-20.91495728 160.2235655 -28.00815612 160.2560223 -35.1015625 160.27099609 C-41.29044701 160.28407935 -47.47909064 160.31121182 -53.66783941 160.35461307 C-56.93913748 160.37707977 -60.21007961 160.39082244 -63.48146439 160.39188385 C-86.90838494 160.31181432 -86.90838494 160.31181432 -108.328125 169.046875 C-110 170 -110 170 -112 170 C-112.14688806 165.87538319 -112.23460044 161.75145076 -112.3125 157.625 C-112.35439453 156.46871094 -112.39628906 155.31242188 -112.43945312 154.12109375 C-112.57122238 144.79183035 -110.66404175 138.21364801 -104.5 131.125 C-103.675 130.42375 -102.85 129.7225 -102 129 C-101.278125 128.29875 -100.55625 127.5975 -99.8125 126.875 C-92.1397173 121.75981153 -81.08010081 120 -72 120 C-72 114.72 -72 109.44 -72 104 C-69.36 104 -66.72 104 -64 104 C-62.99376278 93.44888402 -64.82691195 86.93570706 -71.625 78.6875 C-73.50657643 76.44457699 -75.40430358 74.21783137 -77.31933594 72.00341797 C-86.98307864 60.48385484 -89.2734514 49.68053895 -88 35 C-86.26749466 25.93050897 -80.00926344 18.88195189 -72.84765625 13.33203125 C-66.50367023 9.17982543 -60.63687868 7.71827201 -53.05859375 7.83203125 C-51.49853295 7.8314708 -49.93847171 7.82870244 -48.37841797 7.82397461 C-47.57031677 7.82315887 -46.76221558 7.82234314 -45.92962646 7.82150269 C-30.04889681 7.76413432 -14.6055633 0 0 0 Z " fill="#A58066" transform="translate(208,104)"/>
<path d="M0 0 C10.30496499 7.42233659 15.35713905 16.5926187 18.39453125 28.7421875 C19.85982771 32.13550562 21.87755168 33.83800167 24.55078125 36.3359375 C26.95448951 38.88756627 28.73328684 41.61650579 30.64453125 44.5546875 C38.02334238 55.67484479 48.06439852 65.70760721 59.58203125 72.4921875 C60.16227051 72.84087891 60.74250977 73.18957031 61.34033203 73.54882812 C80.37366627 84.83710011 99.73204796 88.50141124 121.58203125 90.4921875 C116.5813308 103.64233103 104.63825362 114.04889294 94.58203125 123.4921875 C93.73253906 124.33652344 92.88304687 125.18085938 92.0078125 126.05078125 C89.58203125 127.4921875 89.58203125 127.4921875 86.69140625 127 C83.2499048 125.33113121 80.01984449 123.47020325 76.83203125 121.3671875 C76.21859863 120.96612793 75.60516602 120.56506836 74.97314453 120.15185547 C50.42037523 103.87962797 32.56061254 82.53644259 19.72924805 56.21020508 C15.81244403 48.22203066 15.81244403 48.22203066 8.37109375 43.7421875 C3.72421235 43.20536366 0.22703842 43.26865946 -3.84765625 45.98828125 C-8.77989034 50.71193827 -11.19400197 57.08352481 -11.53581238 63.81187439 C-11.53325943 64.60992996 -11.53070648 65.40798553 -11.52807617 66.23022461 C-11.52930733 67.6092244 -11.52930733 67.6092244 -11.53056335 69.01608276 C-11.52821182 70.00722076 -11.52586029 70.99835876 -11.5234375 72.01953125 C-11.7726324 131.55617845 -11.7726324 131.55617845 -19.41796875 154.4921875 C-33.60796875 154.4921875 -47.79796875 154.4921875 -62.41796875 154.4921875 C-60.43796875 152.1821875 -58.45796875 149.8721875 -56.41796875 147.4921875 C-66.31796875 147.1621875 -76.21796875 146.8321875 -86.41796875 146.4921875 C-86.41796875 134.42454544 -83.78949467 126.26156812 -75.41796875 117.4921875 C-65.11383629 107.65553931 -55.11206198 106.07290607 -41.32714844 106.28735352 C-39.02336639 106.34209644 -36.72087134 106.4088071 -34.41796875 106.4921875 C-35.80794691 100.98251504 -38.41591383 97.79075438 -42.04296875 93.6171875 C-58.3486298 74.0523517 -64.27996675 50.63154153 -62.41796875 25.4921875 C-60.4833366 14.75324137 -53.55461554 6.27978485 -44.8359375 0 C-31.48165159 -8.32755148 -13.35428591 -8.32755148 0 0 Z " fill="#D7DFEE" transform="translate(358.41796875,117.5078125)"/>
<path d="M0 0 C105.6 0 211.2 0 320 0 C320 10.56 320 21.12 320 32 C214.4 32 108.8 32 0 32 C0 21.44 0 10.88 0 0 Z " fill="#CC4A5A" transform="translate(96,336)"/>
<path d="M0 0 C5.79197415 3.83594609 8.03219413 8.34769791 10.875 14.5625 C24.57499421 43.16478547 48.03108209 69.20106506 77 83 C75.69319885 86.92040346 73.34524235 88.08576278 70 90.1875 C69.07634644 90.77362061 69.07634644 90.77362061 68.1340332 91.37158203 C63.30045169 94.35935128 58.32382137 96.94945127 53.1875 99.375 C52.50751953 99.69621826 51.82753906 100.01743652 51.12695312 100.34838867 C43.13728608 104.00452979 35.03553808 106.38168328 26.4375 108.125 C25.23963867 108.37830078 25.23963867 108.37830078 24.01757812 108.63671875 C15.85476449 110.32649435 8.0122875 111.15058466 -0.3125 111.09765625 C-1.16682617 111.0962413 -2.02115234 111.09482635 -2.90136719 111.09336853 C-5.60094873 111.08781962 -8.30044399 111.07527697 -11 111.0625 C-12.84244671 111.05747839 -14.68489473 111.05291664 -16.52734375 111.04882812 C-21.01826186 111.03786699 -25.50911636 111.02063825 -30 111 C-28.20120505 97.83450544 -28.20120505 97.83450544 -26.96484375 91.5546875 C-23.52068187 73.0774242 -23.46469452 54.6625396 -23.41577148 35.91357422 C-23.4041095 34.24621216 -23.4041095 34.24621216 -23.39221191 32.54516602 C-23.37855453 30.44950729 -23.37707589 28.3537184 -23.39025879 26.25805664 C-23.32626891 17.59711799 -21.68682113 9.79259191 -16 3 C-11.20189426 -1.13413811 -6.01360175 -2.2080399 0 0 Z " fill="#FEFEFE" transform="translate(369,161)"/>
<path d="M0 0 C21.12 0 42.24 0 64 0 C64 5.28 64 10.56 64 16 C65.4025 16.103125 66.805 16.20625 68.25 16.3125 C79.80185282 17.49226369 90.16108862 19.92336577 98 29 C102.53548862 35.53417852 104.15369186 40.15560131 104.0625 48.1875 C104.05798828 48.93708984 104.05347656 49.68667969 104.04882812 50.45898438 C104.03706354 52.30602383 104.01912865 54.15302213 104 56 C103.39961096 56.00146656 102.79922192 56.00293312 102.18063927 56.00444412 C87.51307907 56.04163634 72.84571862 56.10081401 58.17835045 56.18390274 C51.08504272 56.2235655 43.99184388 56.2560223 36.8984375 56.27099609 C30.70955299 56.28407935 24.52090936 56.31121182 18.33216059 56.35461307 C15.06086252 56.37707977 11.78992039 56.39082244 8.51853561 56.39188385 C-14.90838494 56.31181432 -14.90838494 56.31181432 -36.328125 65.046875 C-38 66 -38 66 -40 66 C-40.14688806 61.87538319 -40.23460044 57.75145076 -40.3125 53.625 C-40.35439453 52.46871094 -40.39628906 51.31242187 -40.43945312 50.12109375 C-40.57122238 40.79183035 -38.66404175 34.21364801 -32.5 27.125 C-31.675 26.42375 -30.85 25.7225 -30 25 C-29.278125 24.29875 -28.55625 23.5975 -27.8125 22.875 C-20.1397173 17.75981153 -9.08010081 16 0 16 C0 10.72 0 5.44 0 0 Z " fill="#788499" transform="translate(136,208)"/>
<path d="M0 0 C26.4 0 52.8 0 80 0 C80.0825 7.59 80.165 15.18 80.25 23 C80.28641602 25.38089844 80.32283203 27.76179688 80.36035156 30.21484375 C80.37204459 32.12238669 80.38223496 34.02993968 80.390625 35.9375 C80.4213208 37.39833008 80.4213208 37.39833008 80.45263672 38.88867188 C80.45638586 46.28197412 78.9538484 51.62920679 74.03515625 57.2421875 C73.38417969 57.78101563 72.73320312 58.31984375 72.0625 58.875 C71.41410156 59.42929687 70.76570313 59.98359375 70.09765625 60.5546875 C64.51558028 64.40081061 59.29811223 64.32063614 52.73046875 64.3359375 C51.73549881 64.3425943 50.74052887 64.3492511 49.71540833 64.35610962 C47.61326949 64.36621898 45.51109867 64.37092717 43.40893555 64.37060547 C40.20892828 64.37497077 37.01030962 64.41128761 33.81054688 64.44921875 C31.76302552 64.45508899 29.71549765 64.459057 27.66796875 64.4609375 C26.71875046 64.47530853 25.76953217 64.48967957 24.79154968 64.50448608 C17.56314585 64.45529602 12.24132145 62.84039144 6.7578125 58.03515625 C6.21898437 57.38417969 5.68015625 56.73320312 5.125 56.0625 C4.57070313 55.41410156 4.01640625 54.76570313 3.4453125 54.09765625 C0.79132679 50.2457905 -0.25215446 46.77465217 -0.22705078 42.11791992 C-0.22680908 41.16429565 -0.22656738 40.21067139 -0.22631836 39.22814941 C-0.21608643 38.23891479 -0.20585449 37.24968018 -0.1953125 36.23046875 C-0.19329834 35.3115686 -0.19128418 34.39266846 -0.18920898 33.44592285 C-0.1787763 30.0263975 -0.15085374 26.60694353 -0.125 23.1875 C-0.063125 11.7096875 -0.063125 11.7096875 0 0 Z " fill="#4B4B4B" transform="translate(360,432)"/>
<path d="M0 0 C26.4 0 52.8 0 80 0 C80.0825 7.59 80.165 15.18 80.25 23 C80.28641602 25.38089844 80.32283203 27.76179688 80.36035156 30.21484375 C80.37204459 32.12238669 80.38223496 34.02993968 80.390625 35.9375 C80.4213208 37.39833008 80.4213208 37.39833008 80.45263672 38.88867188 C80.45638586 46.28197412 78.9538484 51.62920679 74.03515625 57.2421875 C73.38417969 57.78101563 72.73320312 58.31984375 72.0625 58.875 C71.41410156 59.42929687 70.76570313 59.98359375 70.09765625 60.5546875 C64.51558028 64.40081061 59.29811223 64.32063614 52.73046875 64.3359375 C51.73549881 64.3425943 50.74052887 64.3492511 49.71540833 64.35610962 C47.61326949 64.36621898 45.51109867 64.37092717 43.40893555 64.37060547 C40.20892828 64.37497077 37.01030962 64.41128761 33.81054688 64.44921875 C31.76302552 64.45508899 29.71549765 64.459057 27.66796875 64.4609375 C26.71875046 64.47530853 25.76953217 64.48967957 24.79154968 64.50448608 C17.56314585 64.45529602 12.24132145 62.84039144 6.7578125 58.03515625 C6.21898438 57.38417969 5.68015625 56.73320312 5.125 56.0625 C4.57070312 55.41410156 4.01640625 54.76570313 3.4453125 54.09765625 C0.79132679 50.2457905 -0.25215446 46.77465217 -0.22705078 42.11791992 C-0.22680908 41.16429565 -0.22656738 40.21067139 -0.22631836 39.22814941 C-0.21608643 38.23891479 -0.20585449 37.24968018 -0.1953125 36.23046875 C-0.19329834 35.3115686 -0.19128418 34.39266846 -0.18920898 33.44592285 C-0.1787763 30.0263975 -0.15085374 26.60694353 -0.125 23.1875 C-0.063125 11.7096875 -0.063125 11.7096875 0 0 Z " fill="#4B4B4B" transform="translate(72,432)"/>
<path d="M0 0 C9.04361023 6.51382312 14.82643174 14.67019669 17.58203125 25.4921875 C17.83203125 29.1796875 17.83203125 29.1796875 17.58203125 31.4921875 C17.01097656 31.2034375 16.43992187 30.9146875 15.8515625 30.6171875 C8.1103739 27.07273231 0.36932693 25.91222027 -7.96484375 28.1875 C-16.53633008 31.70476508 -23.40972726 37.04070156 -27.41796875 45.4921875 C-29.21943726 50.09846874 -29.67921479 53.98297541 -29.7265625 58.91796875 C-29.74964682 60.36214894 -29.77318197 61.80632198 -29.79711914 63.25048828 C-29.8109111 64.36861908 -29.8109111 64.36861908 -29.82498169 65.50933838 C-29.99189903 78.07642639 -30.39793137 90.22209854 -33.41796875 102.4921875 C-49.80348666 90.5647114 -58.96587043 67.76997671 -62.41796875 48.4921875 C-63.49135228 33.30492102 -63.6023778 19.67827489 -53.390625 7.55859375 C-39.45028894 -7.04425333 -17.51265688 -10.92065518 0 0 Z " fill="#A58066" transform="translate(358.41796875,117.5078125)"/>
<path d="M0 0 C0 31.68 0 63.36 0 96 C-13.2 96 -26.4 96 -40 96 C-40.4965988 62.72788041 -35.34836441 34.42975941 -11.60546875 9.359375 C-10.42980513 8.15104507 -9.24886129 6.94782847 -8.0625 5.75 C-7.21051025 4.88955078 -7.21051025 4.88955078 -6.34130859 4.01171875 C-2.25689592 0 -2.25689592 0 0 0 Z " fill="#F69B33" transform="translate(56,304)"/>
<path d="M0 0 C17.57233866 8.78616933 28.83886382 30.73002472 35.24609375 48.4453125 C39.00751223 60.10157636 40.29502315 70.96012733 40.125 83.1875 C40.08375 87.415625 40.0425 91.64375 40 96 C26.8 96 13.6 96 0 96 C0 64.32 0 32.64 0 0 Z " fill="#F69B32" transform="translate(456,304)"/>
<path d="M0 0 C4.31815299 3.79474051 6.51422376 7.26451013 8.0625 12.8125 C8.7225 12.8125 9.3825 12.8125 10.0625 12.8125 C10.26875 11.966875 10.475 11.12125 10.6875 10.25 C12.3757338 6.0294155 14.72509303 2.89514308 18.0625 -0.1875 C23.90926955 -2.13642318 30.00202262 -2.18094445 35.5625 0.5 C39.03956102 3.71628144 40.85159306 6.25634882 41.49609375 11.01171875 C41.50825659 21.87313354 39.73742974 29.78051992 32.1796875 37.80859375 C28.01994589 41.74576616 23.56943345 45.2847708 19.0625 48.8125 C18.30066406 49.451875 17.53882813 50.09125 16.75390625 50.75 C16.07199219 51.306875 15.39007813 51.86375 14.6875 52.4375 C14.10226562 52.92476562 13.51703125 53.41203125 12.9140625 53.9140625 C10.29200031 55.18637116 8.83720869 54.57644577 6.0625 53.8125 C4.04541016 52.61669922 4.04541016 52.61669922 2.1015625 51.1171875 C1.38226563 50.56546875 0.66296875 50.01375 -0.078125 49.4453125 C-0.81546875 48.86523438 -1.5528125 48.28515625 -2.3125 47.6875 C-3.04210937 47.130625 -3.77171875 46.57375 -4.5234375 46 C-12.96339566 39.45903242 -20.84604179 32.77799585 -22.9375 21.8125 C-23.92437102 8.38458287 -23.92437102 8.38458287 -21.25 4.125 C-15.26597961 -1.85902039 -8.01800342 -3.24132053 0 0 Z " fill="#C681A0" transform="translate(302.9375,17.1875)"/>
<path d="M0 0 C4.31815299 3.79474051 6.51422376 7.26451013 8.0625 12.8125 C8.7225 12.8125 9.3825 12.8125 10.0625 12.8125 C10.26875 11.966875 10.475 11.12125 10.6875 10.25 C12.3757338 6.0294155 14.72509303 2.89514308 18.0625 -0.1875 C23.90926955 -2.13642318 30.00202262 -2.18094445 35.5625 0.5 C39.03956102 3.71628144 40.85159306 6.25634882 41.49609375 11.01171875 C41.50825659 21.87313354 39.73742974 29.78051992 32.1796875 37.80859375 C28.01994589 41.74576616 23.56943345 45.2847708 19.0625 48.8125 C18.30066406 49.451875 17.53882813 50.09125 16.75390625 50.75 C16.07199219 51.306875 15.39007813 51.86375 14.6875 52.4375 C14.10226563 52.92476562 13.51703125 53.41203125 12.9140625 53.9140625 C10.29200031 55.18637116 8.83720869 54.57644577 6.0625 53.8125 C4.04541016 52.61669922 4.04541016 52.61669922 2.1015625 51.1171875 C1.38226563 50.56546875 0.66296875 50.01375 -0.078125 49.4453125 C-0.81546875 48.86523438 -1.5528125 48.28515625 -2.3125 47.6875 C-3.04210937 47.130625 -3.77171875 46.57375 -4.5234375 46 C-12.96339566 39.45903242 -20.84604179 32.77799585 -22.9375 21.8125 C-23.92437102 8.38458287 -23.92437102 8.38458287 -21.25 4.125 C-15.26597961 -1.85902039 -8.01800342 -3.24132053 0 0 Z " fill="#C681A0" transform="translate(190.9375,17.1875)"/>
<path d="M0 0 C26.4 0 52.8 0 80 0 C80 10.56 80 21.12 80 32 C53.6 32 27.2 32 0 32 C0 21.44 0 10.88 0 0 Z " fill="#AECEFC" transform="translate(216,368)"/>
<path d="M0 0 C4.81612957 7.22419435 5.53063079 15.38519741 5.4375 23.875 C5.43065186 24.83881592 5.42380371 25.80263184 5.41674805 26.7956543 C5.25198348 34.11502684 4.21184141 40.35444656 1 47 C0.4740625 48.16982422 0.4740625 48.16982422 -0.0625 49.36328125 C-3.28097006 55.83374709 -8.06681306 60.79476231 -13 66 C-13.45375 66.57492188 -13.9075 67.14984375 -14.375 67.7421875 C-15.5 69.125 -15.5 69.125 -18 71 C-20.21289062 71.18310547 -20.21289062 71.18310547 -22.65625 71.1171875 C-23.46900391 71.10026855 -24.28175781 71.08334961 -25.11914062 71.06591797 C-25.73982422 71.04416504 -26.36050781 71.02241211 -27 71 C-26.99363525 70.31599121 -26.98727051 69.63198242 -26.98071289 68.92724609 C-26.87151456 51.30449552 -26.87151456 51.30449552 -33.4765625 35.3671875 C-36.38944038 28.92898049 -35.52724409 21.91275584 -35 15 C-33.865625 14.97421875 -32.73125 14.9484375 -31.5625 14.921875 C-20.13178628 14.75254285 -20.13178628 14.75254285 -10 10 C-9.45214844 9.60425781 -8.90429688 9.20851562 -8.33984375 8.80078125 C-5.05477042 6.24213692 -2.47456674 3.33114753 0 0 Z " fill="#E9A891" transform="translate(203,137)"/>
<path d="M0 0 C-2.43371511 8.40182051 -5.34613045 16.20170277 -9.4375 23.9375 C-9.79642334 24.62191162 -10.15534668 25.30632324 -10.52514648 26.01147461 C-11.25522423 27.35436878 -12.01575355 28.68115156 -12.80566406 29.98974609 C-14.04888837 32.00357244 -14.04888837 32.00357244 -15.04589844 34.26416016 C-16.47813675 36.86577216 -17.54940606 38.29390405 -20 40 C-25.49058716 40.99264635 -30.82316536 40.75536753 -36.375 40.5 C-37.88922918 40.45983649 -39.40356035 40.42334067 -40.91796875 40.390625 C-44.61411071 40.3028147 -48.30640538 40.1649776 -52 40 C-52.32707753 29.42885438 -49.89284279 21.27953635 -42.97265625 13.06640625 C-30.34010309 -0.16650587 -17.34844902 -0.62812933 0 0 Z " fill="#A5B9DB" transform="translate(324,224)"/>
<path d="M0 0 C0.80395025 4.22282518 1.11811363 8.19613764 1.09765625 12.4921875 C1.09515869 13.5735498 1.09266113 14.65491211 1.09008789 15.76904297 C1.08098389 17.12400879 1.07187988 18.47897461 1.0625 19.875 C1.041875 24.20625 1.02125 28.5375 1 33 C-12.2 33 -25.4 33 -39 33 C-39 22.44 -39 11.88 -39 1 C-33.60652984 0.85746374 -28.21305773 0.71500585 -22.81958008 0.57275391 C-20.98331581 0.52429851 -19.14705279 0.475796 -17.31079102 0.42724609 C-14.67724932 0.35762454 -12.04370326 0.28817033 -9.41015625 0.21875 C-8.58411392 0.19687622 -7.75807159 0.17500244 -6.90699768 0.15246582 C-1.11387171 0 -1.11387171 0 0 0 Z " fill="#FED88B" transform="translate(495,367)"/>
<path d="M0 0 C12.54 0 25.08 0 38 0 C38 10.56 38 21.12 38 32 C24.8 32 11.6 32 -2 32 C-2.04125 27.648125 -2.0825 23.29625 -2.125 18.8125 C-2.14320801 17.44843018 -2.16141602 16.08436035 -2.18017578 14.67895508 C-2.1851709 13.59509521 -2.19016602 12.51123535 -2.1953125 11.39453125 C-2.20578613 10.28956299 -2.21625977 9.18459473 -2.22705078 8.04614258 C-2 5 -2 5 0 0 Z " fill="#FED88B" transform="translate(18,368)"/>
</svg>
