<?xml version="1.0" encoding="iso-8859-1"?>
<!-- Uploaded to: SVG Repo, www.svgrepo.com, Generator: SVG Repo Mixer Tools -->
<svg fill="#000000" height="800px" width="800px" version="1.1" id="Layer_1" xmlns="http://www.w3.org/2000/svg" xmlns:xlink="http://www.w3.org/1999/xlink" 
	 viewBox="0 0 512 512" xml:space="preserve">
<g>
	<g>
		<g>
			<path d="M61.979,172.132c-4.465,0-8.084,3.621-8.084,8.086v1.077c0,4.466,3.62,8.086,8.084,8.086
				c4.465,0,8.084-3.621,8.084-8.086v-1.077C70.063,175.754,66.444,172.132,61.979,172.132z"/>
			<path d="M94.316,172.133c-4.465,0-8.084,3.621-8.084,8.086v1.077c0,4.466,3.62,8.086,8.084,8.086s8.084-3.621,8.084-8.086v-1.077
				C102.4,175.754,98.78,172.133,94.316,172.133z"/>
			<path d="M460.8,256.156c28.231,0,51.2-22.954,51.2-51.167v-48.465c0-28.214-22.969-51.167-51.2-51.167H357.523
				c-41.573-29.095-97.472-29.093-139.044,0H51.2c-28.231,0-51.2,22.954-51.2,51.167v48.465c0,28.214,22.969,51.167,51.2,51.167
				h126.962c5.899,12.54,13.996,24.094,24.093,34.182c40.055,40.019,101.381,46.137,147.939,18.351l14.804,14.792
				c-2.446,4.364-3.747,9.304-3.747,14.445c0,7.915,3.084,15.357,8.685,20.952l60.975,60.925c5.779,5.774,13.367,8.66,20.958,8.66
				c7.589-0.001,15.18-2.888,20.957-8.66l30.487-30.462c5.601-5.595,8.686-13.036,8.686-20.951c0-7.916-3.084-15.357-8.685-20.953
				l-60.974-60.925c-9.577-9.567-24.129-11.206-35.41-4.917l-14.785-14.774c2.079-3.464,3.977-7.021,5.691-10.665H460.8z
				 M460.8,121.53c19.316,0,35.032,15.698,35.032,34.995v48.465c0,19.297-15.716,34.995-35.032,34.995h-56.745
				c3.431-11.306,5.208-23.183,5.208-35.331c0-31.175-11.703-60.553-33.03-83.124H460.8z M171.946,239.985H51.2
				c-19.316,0-35.032-15.698-35.032-34.995v-48.465c0-19.297,15.716-34.995,35.032-34.995h148.566
				c-21.327,22.571-33.03,51.95-33.03,83.124C166.736,216.802,168.515,228.679,171.946,239.985z M411.854,297.954
				c2.627-2.626,6.078-3.939,9.53-3.939c3.45,0,6.902,1.313,9.53,3.939l60.974,60.925c2.544,2.542,3.944,5.919,3.944,9.511
				c0,3.593-1.401,6.97-3.944,9.51L461.4,408.362c-5.255,5.252-13.806,5.252-19.06,0l-60.975-60.925
				c-2.543-2.541-3.943-5.918-3.943-9.51c0-3.593,1.4-6.97,3.943-9.51L411.854,297.954z M394.701,292.234l-19.05,19.033
				L363.7,299.326c3.474-2.778,6.826-5.771,10.044-8.986c3.207-3.205,6.213-6.558,9.01-10.043L394.701,292.234z M385.379,244.294
				c-0.231,0.437-0.423,0.896-0.571,1.373c-2.558,6.026-5.688,11.809-9.363,17.287c-0.23,0.292-0.434,0.595-0.618,0.91
				c-3.658,5.331-7.84,10.365-12.512,15.034c-4.807,4.803-9.964,9.04-15.396,12.717c-0.072,0.047-0.143,0.095-0.213,0.144
				c-17.674,11.899-38.187,17.848-58.708,17.847c-26.91-0.002-53.829-10.239-74.315-30.708
				c-9.711-9.702-17.286-20.968-22.492-33.232c-0.148-0.479-0.341-0.939-0.571-1.374c-5.063-12.42-7.714-25.824-7.714-39.639
				c0-28.045,10.931-54.412,30.779-74.243c40.977-40.944,107.654-40.945,148.632,0c19.847,19.831,30.778,46.198,30.778,74.243
				C393.094,218.467,390.444,231.873,385.379,244.294z"/>
			<path d="M228.934,145.624c-15.779,15.766-24.47,36.73-24.47,59.03s8.69,43.262,24.47,59.03
				c16.287,16.273,37.673,24.409,59.067,24.407c21.388-0.001,42.784-8.137,59.066-24.407c15.78-15.766,24.47-36.73,24.47-59.03
				s-8.69-43.262-24.47-59.03C314.497,113.081,261.503,113.082,228.934,145.624z M335.64,252.243
				c-26.269,26.248-69.01,26.247-95.279,0c-12.721-12.712-19.729-29.612-19.729-47.589s7.006-34.877,19.729-47.589
				c26.268-26.247,69.009-26.248,95.278,0c12.722,12.712,19.729,29.613,19.729,47.589
				C355.368,222.63,348.362,239.531,335.64,252.243z"/>
			<path d="M126.653,172.133c-4.465,0-8.084,3.621-8.084,8.086v1.077c0,4.466,3.62,8.086,8.084,8.086
				c4.465,0,8.084-3.621,8.084-8.086v-1.077C134.737,175.754,131.117,172.133,126.653,172.133z"/>
		</g>
	</g>
</g>
</svg>