<?xml version="1.0" encoding="UTF-8"?>
<svg version="1.1" xmlns="http://www.w3.org/2000/svg" width="512" height="512">
<path d="M0 0 C1.43903395 -0.00445557 2.87806545 -0.00977067 4.31709337 -0.01586872 C8.26288856 -0.03002136 12.20860487 -0.03171253 16.15442181 -0.03127182 C20.413674 -0.03292248 24.67289394 -0.04599382 28.93212891 -0.0574646 C38.24234154 -0.08029622 47.55253134 -0.08823351 56.86276817 -0.09329104 C62.68037123 -0.09655077 68.49796769 -0.10307499 74.31556702 -0.11029243 C90.43455543 -0.12985743 106.55353771 -0.14626174 122.67253876 -0.14916897 C123.70368342 -0.14935654 124.73482808 -0.14954411 125.79721954 -0.14973736 C127.88746166 -0.1501036 129.97770378 -0.1504673 132.0679459 -0.15082847 C133.10549568 -0.15101128 134.14304545 -0.1511941 135.21203613 -0.15138245 C136.25085814 -0.151563 137.28968014 -0.15174354 138.3599816 -0.15192956 C155.181829 -0.15546904 172.00354821 -0.18247769 188.82535118 -0.21988034 C206.11145176 -0.25800647 223.39748882 -0.27732677 240.68363237 -0.27762848 C250.38289727 -0.27821215 260.08200931 -0.28664529 269.78123474 -0.31562614 C278.04265059 -0.34019788 286.30385785 -0.34738406 294.56530041 -0.33237862 C298.77586403 -0.32523286 302.98601628 -0.32596545 307.1965332 -0.34878922 C311.06096525 -0.36953504 314.92467374 -0.36663562 318.78909928 -0.34591437 C320.82863477 -0.34082353 322.86818779 -0.3600787 324.90762663 -0.38057607 C340.00638783 -0.24485699 352.4257581 4.52309181 363.65930176 14.71165466 C364.42242676 15.55727966 365.18555176 16.40290466 365.97180176 17.27415466 C366.51320801 17.81169373 367.05461426 18.34923279 367.61242676 18.90306091 C378.5624957 30.30541531 381.27687509 44.35597474 381.30773926 59.57102966 C381.31439606 60.72282715 381.32105286 61.87462463 381.32791138 63.06132507 C381.33798686 65.48169874 381.34272999 67.90209989 381.34240723 70.32249451 C381.34680501 74.02689248 381.38324768 77.73012132 381.42102051 81.43431091 C381.42688476 83.79237977 381.43085677 86.15045426 381.43273926 88.50852966 C381.44711029 89.61380005 381.46148132 90.71907043 381.47628784 91.85783386 C381.44893735 96.44349501 381.42951459 99.44165254 379.19299316 103.50950623 C376.97180176 105.27415466 376.97180176 105.27415466 372.97180176 105.27415466 C373.30180176 116.82415466 373.63180176 128.37415466 373.97180176 140.27415466 C377.4960212 131.42905487 380.93072015 122.7243993 383.59680176 113.58665466 C386.10789633 105.18242404 388.99690273 99.66848678 396.97180176 95.27415466 C404.05204146 92.54870675 411.45248699 91.92837534 418.79211426 94.11399841 C431.00693274 99.66109488 435.65607151 110.74976311 440.97180176 122.27415466 C441.50934082 123.41110779 442.04687988 124.54806091 442.60070801 125.71946716 C460.96906597 166.29291582 461.39176156 211.86335877 446.15930176 253.46165466 C435.97529777 280.06240534 420.04993115 302.29240029 399.97180176 322.27415466 C399.26539551 323.00376404 398.55898926 323.73337341 397.83117676 324.48509216 C397.13508301 325.19923279 396.43898926 325.91337341 395.72180176 326.64915466 C395.03602051 327.35813904 394.35023926 328.06712341 393.64367676 328.79759216 C390.97180176 331.27415466 390.97180176 331.27415466 388.77960014 332.52678776 C384.83883513 334.94356609 382.37581753 336.77292988 381.14465714 341.34762383 C380.84378989 345.27314346 380.82599797 349.14747881 380.90588379 353.07859802 C380.90346884 354.58388377 380.89705068 356.0891676 380.88694763 357.59442139 C380.87388797 360.82692861 380.88914361 364.05760332 380.92673111 367.28991508 C380.98620995 372.40512603 380.98330087 377.519168 380.97250366 382.63464355 C380.96295796 390.72838947 380.99654964 398.8213057 381.04787338 406.91487271 C381.13834918 421.40145643 381.15574325 435.8882281 381.15706718 450.37506396 C381.15923915 455.45519289 381.18025404 460.53479483 381.21725774 465.61478603 C381.23797061 468.78035898 381.24673023 471.94589331 381.25288582 475.11152458 C381.25844152 476.57401506 381.2691951 478.03649694 381.28566933 479.49890518 C381.3892073 488.93285063 381.33661996 497.06243131 374.84680176 504.52415466 C374.06949707 505.46001404 374.06949707 505.46001404 373.27648926 506.41477966 C365.90990339 512.35799131 358.35074728 512.85180121 349.17454529 512.78208923 C347.90659876 512.7883292 346.63865223 512.79456916 345.33228308 512.80099821 C341.83342826 512.81761912 338.33501264 512.80947866 334.83615673 512.79705334 C331.05491096 512.78797534 327.2737389 512.80198609 323.49250793 512.81297302 C316.0934938 512.83073309 308.69464223 512.82692966 301.2956218 512.81532246 C295.28139854 512.80627918 289.26722075 512.805068 283.25299263 512.80941772 C282.39615984 512.81003066 281.53932705 512.81064359 280.65652962 512.81127509 C278.91575927 512.81255403 277.17498892 512.81385088 275.43421859 512.81516546 C259.12225319 512.82656372 242.8103778 512.81346905 226.49842716 512.79196399 C212.50798029 512.77409049 198.51766616 512.77720065 184.52722168 512.79563904 C168.27102316 512.81705357 152.01490345 512.82546852 135.7586928 512.81318998 C134.02472692 512.81191582 132.29076103 512.81065833 130.55679512 512.80941772 C129.70370152 512.80880062 128.85060793 512.80818352 127.97166301 512.80754772 C121.96551971 512.8040968 115.95942648 512.80991752 109.95329094 512.81933594 C102.63264982 512.83056363 95.31218023 512.82749959 87.99155872 512.80621296 C84.25784281 512.79571333 80.52441269 512.79156197 76.79069901 512.80480957 C72.74090959 512.81896117 68.69183944 512.80204395 64.64207458 512.78208923 C63.46532242 512.79101212 62.28857026 512.79993501 61.07615894 512.80912828 C53.18422927 512.73362075 48.14487048 511.44273251 41.76477051 506.59837341 C34.16346874 498.84911444 32.84545264 490.73926375 32.84875393 480.11901951 C32.84760008 479.430528 32.84644624 478.7420365 32.84525743 478.03268161 C32.84261704 475.73274124 32.84709159 473.43287131 32.85154724 471.13293457 C32.85111101 469.46459847 32.85023515 467.79626244 32.84895808 466.12792677 C32.84672327 461.5488992 32.85072055 456.96989504 32.85573614 452.39087045 C32.86005499 447.45093371 32.85859319 442.51099828 32.85783386 437.57106018 C32.85730954 429.01406606 32.86044679 420.45707956 32.8660717 411.90008736 C32.87419908 399.52811569 32.87680319 387.15614771 32.87805969 374.78417366 C32.88024826 354.71141459 32.88690307 334.63865958 32.8963623 314.56590271 C32.90554146 295.067205 32.91261983 275.56850839 32.91687012 256.06980896 C32.91713284 254.86788881 32.91739556 253.66596865 32.91766625 252.42762668 C32.91897129 246.39794041 32.920235 240.36825413 32.92147815 234.33856785 C32.93184469 184.31709383 32.94973295 134.29562478 32.97180176 84.27415466 C21.09180176 84.27415466 9.21180176 84.27415466 -3.02819824 84.27415466 C-3.68819824 85.92415466 -4.34819824 87.57415466 -5.02819824 89.27415466 C-7.45914953 91.98560033 -8.87349116 92.2575789 -12.52819824 92.64915466 C-25.59685278 92.08941713 -37.06621214 86.70679211 -46.02819824 77.27415466 C-53.75850643 67.45565932 -55.82061677 55.48326972 -55.02819824 43.27415466 C-52.94279128 29.41856945 -46.26228334 17.79480748 -35.02819824 9.27415466 C-23.61787051 1.94755657 -13.33366354 -0.02598985 0 0 Z " fill="#FEEAD1" transform="translate(55.0281982421875,-0.2741546630859375)"/>
<path d="M0 0 C1.43903395 -0.00445557 2.87806545 -0.00977067 4.31709337 -0.01586872 C8.26288856 -0.03002136 12.20860487 -0.03171253 16.15442181 -0.03127182 C20.413674 -0.03292248 24.67289394 -0.04599382 28.93212891 -0.0574646 C38.24234154 -0.08029622 47.55253134 -0.08823351 56.86276817 -0.09329104 C62.68037123 -0.09655077 68.49796769 -0.10307499 74.31556702 -0.11029243 C90.43455543 -0.12985743 106.55353771 -0.14626174 122.67253876 -0.14916897 C123.70368342 -0.14935654 124.73482808 -0.14954411 125.79721954 -0.14973736 C127.88746166 -0.1501036 129.97770378 -0.1504673 132.0679459 -0.15082847 C133.10549568 -0.15101128 134.14304545 -0.1511941 135.21203613 -0.15138245 C136.25085814 -0.151563 137.28968014 -0.15174354 138.3599816 -0.15192956 C155.181829 -0.15546904 172.00354821 -0.18247769 188.82535118 -0.21988034 C206.11145176 -0.25800647 223.39748882 -0.27732677 240.68363237 -0.27762848 C250.38289727 -0.27821215 260.08200931 -0.28664529 269.78123474 -0.31562614 C278.04265059 -0.34019788 286.30385785 -0.34738406 294.56530041 -0.33237862 C298.77586403 -0.32523286 302.98601628 -0.32596545 307.1965332 -0.34878922 C311.06096525 -0.36953504 314.92467374 -0.36663562 318.78909928 -0.34591437 C320.82863477 -0.34082353 322.86818779 -0.3600787 324.90762663 -0.38057607 C340.00638783 -0.24485699 352.4257581 4.52309181 363.65930176 14.71165466 C364.42242676 15.55727966 365.18555176 16.40290466 365.97180176 17.27415466 C366.51320801 17.81169373 367.05461426 18.34923279 367.61242676 18.90306091 C378.5624957 30.30541531 381.27687509 44.35597474 381.30773926 59.57102966 C381.31439606 60.72282715 381.32105286 61.87462463 381.32791138 63.06132507 C381.33798686 65.48169874 381.34272999 67.90209989 381.34240723 70.32249451 C381.34680501 74.02689248 381.38324768 77.73012132 381.42102051 81.43431091 C381.42688476 83.79237977 381.43085677 86.15045426 381.43273926 88.50852966 C381.44711029 89.61380005 381.46148132 90.71907043 381.47628784 91.85783386 C381.43100048 99.45084192 381.43100048 99.45084192 379.18908691 103.47044373 C376.53875176 105.62643097 374.45446722 105.87092076 371.06945801 105.93821716 C367.56305896 104.82818395 366.20676566 103.19880737 363.97180176 100.27415466 C363.25509595 96.60716345 363.34579557 92.99590915 363.40539551 89.27024841 C363.39694359 87.65884727 363.39694359 87.65884727 363.38832092 86.01489258 C363.37187072 82.58003697 363.38738717 79.14646529 363.40930176 75.71165466 C363.4259769 72.30195151 363.43484911 68.89311638 363.41957092 65.48339844 C363.41040431 63.36518032 363.41906822 61.24677725 363.44920349 59.12875366 C363.40455339 46.85688384 359.56381214 37.19292418 351.15930176 28.37181091 C343.84929482 21.40077607 334.83640712 18.14680767 324.78067303 18.15110683 C323.23478781 18.14812026 323.23478781 18.14812026 321.65767258 18.14507335 C320.53218894 18.1479862 319.4067053 18.15089904 318.24711609 18.15390015 C316.44598664 18.15261851 316.44598664 18.15261851 314.60847074 18.15131098 C311.27908441 18.14994871 307.94975688 18.15307381 304.62037766 18.15808904 C301.02874829 18.16240751 297.43712074 18.16094612 293.8454895 18.16018677 C287.62390399 18.15966242 281.40232896 18.16279993 275.18074608 18.16842461 C266.18538214 18.17655165 257.19002327 18.17915606 248.19465605 18.1804126 C233.6002675 18.18260122 219.00588454 18.18925617 204.41149902 18.19871521 C190.23441597 18.20789423 176.05733444 18.21497267 161.88024902 18.21922302 C161.00637294 18.21948575 160.13249685 18.21974847 159.23213967 18.22001915 C154.84815997 18.22132419 150.46418027 18.2225879 146.08020055 18.22383106 C109.71073034 18.23419776 73.34126648 18.25181093 36.97180176 18.27415466 C37.45731003 18.88940002 37.9428183 19.50464539 38.44303894 20.13853455 C39.07732315 20.94705872 39.71160736 21.75558289 40.3651123 22.58860779 C40.99499557 23.38947815 41.62487885 24.19034851 42.27384949 25.01548767 C44.13749438 27.49456395 45.54327245 29.93250452 46.78430176 32.77415466 C47.16199707 33.60946716 47.53969238 34.44477966 47.92883301 35.30540466 C51.40099768 45.18871983 51.25284577 54.77542765 51.22335815 65.10282898 C51.22549813 66.93019599 51.2285246 68.75756213 51.23235857 70.58492637 C51.2403844 75.59445979 51.2360986 80.60391835 51.2298398 85.61345148 C51.22530135 91.02039812 51.2323485 96.42733061 51.23814392 101.83427429 C51.24677186 111.19935364 51.24858633 120.56441409 51.24619675 129.92949677 C51.24309924 143.47524565 51.2547369 157.02095276 51.27074654 170.56669113 C51.29670119 192.55153201 51.31672507 214.53637292 51.3302002 236.52122498 C51.33101057 237.83667564 51.33182094 239.1521263 51.33265586 240.50743911 C51.34148262 255.19196582 51.3478319 269.8764907 51.35015869 284.5610199 C51.35031854 285.55207507 51.35031854 285.55207507 51.35048161 286.56315155 C51.3510148 289.89499422 51.351529 293.22683688 51.35204299 296.55867955 C51.35224698 297.87534298 51.35245096 299.19200641 51.35266113 300.54856873 C51.35286107 301.86362924 51.353061 303.17868976 51.353267 304.5336006 C51.35699634 326.44148278 51.37605466 348.34931957 51.40775549 370.25717902 C51.42669541 383.7738011 51.43261605 397.2903069 51.42193832 410.80693862 C51.41563265 420.06109782 51.42362166 429.31517342 51.44299243 438.56931427 C51.45370357 443.91271734 51.45777658 449.25591757 51.44452095 454.59931946 C51.4325172 459.4869439 51.4387455 464.37418702 51.45971294 469.26177809 C51.46403421 471.03345387 51.4615358 472.80516157 51.45167176 474.57681516 C51.43926528 476.97873499 51.45129478 479.3793241 51.4695797 481.78117752 C51.46010429 482.47459051 51.45062889 483.1680035 51.44086635 483.882429 C51.49309753 487.2687161 51.96243695 489.25808795 53.67932522 492.20366412 C56.41236597 494.67205799 57.51989141 494.89823024 61.15364838 494.89498043 C62.20764784 494.90616907 63.26164731 494.91735771 64.34758615 494.9288854 C65.50438175 494.91568543 66.66117734 494.90248546 67.85302734 494.8888855 C69.08277204 494.89456875 70.31251674 494.90025201 71.57952642 494.90610749 C74.99515409 494.91680664 78.40937692 494.9050235 81.82486796 494.88380086 C85.50727289 494.86634174 89.18960217 494.87768446 92.87202454 494.88546753 C100.08662343 494.89615023 107.30093093 494.88017466 114.51548541 494.85532927 C122.91339331 494.82742865 131.31124184 494.82605638 139.7091884 494.82588626 C154.69115716 494.82469832 169.67299188 494.79970923 184.65490723 494.76121521 C199.19951994 494.72386885 213.74403516 494.70261978 228.28869629 494.69969177 C229.18446945 494.69950896 230.08024261 494.69932615 231.00316042 494.6991378 C231.89736997 494.69895883 232.79157952 494.69877986 233.71288633 494.69859546 C235.51323923 494.69823005 237.31359212 494.69785768 239.11394501 494.69747829 C240.00177208 494.69729278 240.88959916 494.69710727 241.80433008 494.69691613 C255.65529193 494.69334697 269.50623868 494.67489618 283.35718521 494.65498505 C288.38082942 494.64795905 293.40447005 494.6431783 298.42811811 494.6400237 C306.39643177 494.63497748 314.36467751 494.6235669 322.33295619 494.5987234 C325.9749247 494.58749049 329.6168264 494.57938763 333.25881386 494.57985687 C337.20279529 494.58022114 341.14662838 494.56510402 345.09057617 494.54830933 C346.24737176 494.55072441 347.40416736 494.55313949 348.59601736 494.55562776 C349.65001683 494.54856217 350.70401629 494.54149658 351.78995514 494.53421688 C352.70063452 494.53226596 353.61131391 494.53031504 354.54958963 494.52830499 C357.15205779 494.25524132 358.761503 493.65349107 360.97180176 492.27415466 C363.18180152 489.10934787 363.22973698 486.30878407 363.25027466 482.51615906 C363.26701988 480.75355995 363.26701988 480.75355995 363.28410339 478.95535278 C363.28734367 477.02729546 363.28734367 477.02729546 363.29064941 475.06028748 C363.29994964 473.69025074 363.31011845 472.32021967 363.3210907 470.95019531 C363.34839427 467.23362057 363.36354112 463.51708374 363.37651873 459.80043507 C363.39214772 455.91530826 363.41893868 452.03025889 363.44454956 448.14518738 C363.49134146 440.7894533 363.52808357 433.43370466 363.56122243 426.07789779 C363.59944092 417.70306769 363.64885179 409.32831536 363.69920659 400.95355082 C363.80253256 383.72714168 363.89179079 366.50068754 363.97180176 349.27415466 C362.87113876 349.82858749 361.77047577 350.38302032 360.63645935 350.95425415 C359.17918639 351.68620753 357.72187328 352.41808097 356.26452637 353.14988708 C355.54064476 353.51478996 354.81676315 353.87969284 354.07094574 354.25565338 C331.8278115 365.41307416 306.36106981 370.56043959 282.12414551 363.04563904 C275.78143994 360.77216472 269.85135501 357.53441838 263.97180176 354.27415466 C263.79366943 354.83030457 263.61553711 355.38645447 263.43200684 355.9594574 C262.18838663 359.77497287 260.90625944 363.54292446 259.35852051 367.24681091 C255.25532638 377.08535595 252.3599455 386.87482945 250.10144043 397.30174255 C249.87947998 398.28006042 249.65751953 399.2583783 249.42883301 400.26634216 C249.15003296 401.57127625 249.15003296 401.57127625 248.86560059 402.90257263 C247.77050426 405.80827209 246.32685392 407.28235325 243.97180176 409.27415466 C240.15305633 410.28850892 236.9011219 409.78528074 233.47180176 407.89915466 C229.95949379 401.75261572 232.03839652 393.77040559 233.69714355 387.23460388 C233.95278076 386.29890564 234.20841797 385.3632074 234.47180176 384.39915466 C234.8755603 382.90086121 234.8755603 382.90086121 235.28747559 381.37229919 C241.72967259 358.2842551 252.2265969 336.21138471 266.97180176 317.27415466 C267.94053223 315.97284607 267.94053223 315.97284607 268.92883301 314.64524841 C273.94349007 308.16674668 279.64618653 302.39668352 285.40930176 296.58665466 C286.19619385 295.79041687 286.98308594 294.99417908 287.79382324 294.17381287 C293.21750938 288.77928332 298.90596515 283.93038247 304.97180176 279.27415466 C305.63639404 278.76086609 306.30098633 278.24757751 306.98571777 277.71873474 C308.82643869 276.30837481 310.67730487 274.91300107 312.53430176 273.52415466 C313.20848145 273.01884216 313.88266113 272.51352966 314.57727051 271.99290466 C320.17451842 267.82078629 325.85882574 263.78030362 331.59484863 259.80149841 C335.25556295 257.24876479 338.82726531 254.63221269 342.31945801 251.85227966 C343.02715332 251.29540466 343.73484863 250.73852966 344.46398926 250.16477966 C345.80389964 249.10296389 347.1317492 248.02567091 348.44445801 246.93040466 C351.70110375 244.36372624 354.03176676 242.93973388 358.24523926 242.81712341 C361.97180176 243.27415466 361.97180176 243.27415466 365.03430176 245.33665466 C366.97180176 248.27415466 366.97180176 248.27415466 367.09680176 251.77415466 C363.74861694 262.19072965 348.49950569 269.95001198 339.72180176 276.08665466 C301.38397507 302.51126988 301.38397507 302.51126988 273.97180176 339.27415466 C275.82194229 340.2402379 277.67713649 341.19664536 279.53430176 342.14915466 C280.56684082 342.68282654 281.59937988 343.21649841 282.66320801 343.76634216 C290.40456315 347.29427969 297.27570185 347.6106215 305.65930176 347.58665466 C306.76725098 347.60276794 307.8752002 347.61888123 309.01672363 347.63548279 C338.77179528 347.65287324 365.80953536 329.77420056 386.45324707 309.74143982 C387.88890538 308.35425229 389.34769702 306.99112285 390.80773926 305.62962341 C413.36280754 284.07628452 429.44491891 253.68512529 435.97180176 223.27415466 C436.22667358 222.17526917 436.22667358 222.17526917 436.48669434 221.05418396 C438.30181407 212.43827433 438.41284013 203.8507429 438.40930176 195.08665466 C438.41003693 194.294133 438.41077209 193.50161133 438.41152954 192.68507385 C438.35062946 167.59771244 432.26839197 145.02920842 420.78430176 122.77415466 C420.3683374 121.96615417 419.95237305 121.15815369 419.52380371 120.32566833 C416.71094176 114.91792545 416.71094176 114.91792545 411.97180176 111.27415466 C407.4313979 111.43142739 407.4313979 111.43142739 403.40148926 113.34446716 C401.2413897 116.26001137 400.56429097 119.56651399 399.65930176 123.02415466 C392.91277678 147.12327422 381.36838036 168.62970266 364.21398926 186.87962341 C362.34287275 188.87787153 360.5818707 190.9092463 358.84680176 193.02415466 C355.56209615 196.86834309 351.85609243 200.04811783 347.97180176 203.27415466 C347.17153564 203.95091248 347.17153564 203.95091248 346.35510254 204.64134216 C335.71414573 213.62665106 324.5703634 221.57976243 312.97180176 229.27415466 C311.34516602 230.35334167 311.34516602 230.35334167 309.68566895 231.45433044 C309.11380356 231.83362198 308.54193817 232.21291351 307.95274353 232.60369873 C306.1680205 233.78782651 304.3839861 234.97298697 302.59997559 236.15818787 C300.29083307 237.69208378 297.97791353 239.22000698 295.6619873 240.74363708 C267.17470928 259.19123857 267.17470928 259.19123857 251.32336426 288.06321716 C250.90460917 290.69672138 250.79492594 293.29913778 250.65930176 295.96165466 C250.34386847 299.81101009 250.057921 301.14497579 247.84680176 304.46165466 C244.13772165 306.79998777 242.27787945 307.11999135 237.97180176 306.27415466 C234.47955986 303.59924597 233.27222077 302.01342263 232.52648926 297.69602966 C231.89277703 281.89547147 238.74033032 266.52700231 249.28430176 255.02415466 C251.1471929 253.06942864 253.04949146 251.17233554 254.97180176 249.27415466 C255.74137207 248.50587341 256.51094238 247.73759216 257.30383301 246.94602966 C267.137529 237.63166004 278.74905599 230.40494252 289.98742676 222.93040466 C290.70486557 222.4531041 291.42230438 221.97580353 292.16148376 221.48403931 C295.78449267 219.07540722 299.41114773 216.67256993 303.04431152 214.27928162 C321.54600477 202.05806793 341.07200505 188.76283331 354.97180176 171.27415466 C355.58475098 170.50506775 355.58475098 170.50506775 356.21008301 169.72044373 C369.42708105 152.95161552 377.57506129 133.98040962 383.59680176 113.58665466 C386.11110683 105.18262041 388.99495113 99.66956215 396.97180176 95.27415466 C404.05204146 92.54870675 411.45248699 91.92837534 418.79211426 94.11399841 C431.00693274 99.66109488 435.65607151 110.74976311 440.97180176 122.27415466 C441.50934082 123.41110779 442.04687988 124.54806091 442.60070801 125.71946716 C460.96906597 166.29291582 461.39176156 211.86335877 446.15930176 253.46165466 C435.97529777 280.06240534 420.04993115 302.29240029 399.97180176 322.27415466 C399.26539551 323.00376404 398.55898926 323.73337341 397.83117676 324.48509216 C397.13508301 325.19923279 396.43898926 325.91337341 395.72180176 326.64915466 C395.03602051 327.35813904 394.35023926 328.06712341 393.64367676 328.79759216 C390.97180176 331.27415466 390.97180176 331.27415466 388.77960014 332.52678776 C384.83883513 334.94356609 382.37581753 336.77292988 381.14465714 341.34762383 C380.84378989 345.27314346 380.82599797 349.14747881 380.90588379 353.07859802 C380.90346884 354.58388377 380.89705068 356.0891676 380.88694763 357.59442139 C380.87388797 360.82692861 380.88914361 364.05760332 380.92673111 367.28991508 C380.98620995 372.40512603 380.98330087 377.519168 380.97250366 382.63464355 C380.96295796 390.72838947 380.99654964 398.8213057 381.04787338 406.91487271 C381.13834918 421.40145643 381.15574325 435.8882281 381.15706718 450.37506396 C381.15923915 455.45519289 381.18025404 460.53479483 381.21725774 465.61478603 C381.23797061 468.78035898 381.24673023 471.94589331 381.25288582 475.11152458 C381.25844152 476.57401506 381.2691951 478.03649694 381.28566933 479.49890518 C381.3892073 488.93285063 381.33661996 497.06243131 374.84680176 504.52415466 C374.06949707 505.46001404 374.06949707 505.46001404 373.27648926 506.41477966 C365.90990339 512.35799131 358.35074728 512.85180121 349.17454529 512.78208923 C347.90659876 512.7883292 346.63865223 512.79456916 345.33228308 512.80099821 C341.83342826 512.81761912 338.33501264 512.80947866 334.83615673 512.79705334 C331.05491096 512.78797534 327.2737389 512.80198609 323.49250793 512.81297302 C316.0934938 512.83073309 308.69464223 512.82692966 301.2956218 512.81532246 C295.28139854 512.80627918 289.26722075 512.805068 283.25299263 512.80941772 C282.39615984 512.81003066 281.53932705 512.81064359 280.65652962 512.81127509 C278.91575927 512.81255403 277.17498892 512.81385088 275.43421859 512.81516546 C259.12225319 512.82656372 242.8103778 512.81346905 226.49842716 512.79196399 C212.50798029 512.77409049 198.51766616 512.77720065 184.52722168 512.79563904 C168.27102316 512.81705357 152.01490345 512.82546852 135.7586928 512.81318998 C134.02472692 512.81191582 132.29076103 512.81065833 130.55679512 512.80941772 C129.70370152 512.80880062 128.85060793 512.80818352 127.97166301 512.80754772 C121.96551971 512.8040968 115.95942648 512.80991752 109.95329094 512.81933594 C102.63264982 512.83056363 95.31218023 512.82749959 87.99155872 512.80621296 C84.25784281 512.79571333 80.52441269 512.79156197 76.79069901 512.80480957 C72.74090959 512.81896117 68.69183944 512.80204395 64.64207458 512.78208923 C63.46532242 512.79101212 62.28857026 512.79993501 61.07615894 512.80912828 C53.18422927 512.73362075 48.14487048 511.44273251 41.76477051 506.59837341 C34.16346874 498.84911444 32.84545264 490.73926375 32.84875393 480.11901951 C32.84760008 479.430528 32.84644624 478.7420365 32.84525743 478.03268161 C32.84261704 475.73274124 32.84709159 473.43287131 32.85154724 471.13293457 C32.85111101 469.46459847 32.85023515 467.79626244 32.84895808 466.12792677 C32.84672327 461.5488992 32.85072055 456.96989504 32.85573614 452.39087045 C32.86005499 447.45093371 32.85859319 442.51099828 32.85783386 437.57106018 C32.85730954 429.01406606 32.86044679 420.45707956 32.8660717 411.90008736 C32.87419908 399.52811569 32.87680319 387.15614771 32.87805969 374.78417366 C32.88024826 354.71141459 32.88690307 334.63865958 32.8963623 314.56590271 C32.90554146 295.067205 32.91261983 275.56850839 32.91687012 256.06980896 C32.91713284 254.86788881 32.91739556 253.66596865 32.91766625 252.42762668 C32.91897129 246.39794041 32.920235 240.36825413 32.92147815 234.33856785 C32.93184469 184.31709383 32.94973295 134.29562478 32.97180176 84.27415466 C21.09180176 84.27415466 9.21180176 84.27415466 -3.02819824 84.27415466 C-3.68819824 85.92415466 -4.34819824 87.57415466 -5.02819824 89.27415466 C-7.45914953 91.98560033 -8.87349116 92.2575789 -12.52819824 92.64915466 C-25.59685278 92.08941713 -37.06621214 86.70679211 -46.02819824 77.27415466 C-53.75850643 67.45565932 -55.82061677 55.48326972 -55.02819824 43.27415466 C-52.94279128 29.41856945 -46.26228334 17.79480748 -35.02819824 9.27415466 C-23.61787051 1.94755657 -13.33366354 -0.02598985 0 0 Z " fill="#010101" transform="translate(55.0281982421875,-0.2741546630859375)"/>
<path d="M0 0 C6.3015307 1.94774585 8.81813493 8.14760885 11.75 13.6875 C28.87022177 46.34103612 35.04368499 86.70337787 24.26318359 122.47412109 C17.69954216 143.05003075 8.66939831 161.94265754 -4.5625 179.0625 C-5.2328125 179.95582031 -5.903125 180.84914063 -6.59375 181.76953125 C-27.04703255 208.00479944 -57.75890384 233.14809002 -91.5625 238.0625 C-108.6110305 239.21798551 -123.17754678 239.02131377 -137.5625 229.0625 C-120.89598227 200.30688842 -93.26556314 180.41523206 -66.5625 161.6875 C-59.05812204 156.42488895 -59.05812204 156.42488895 -51.625 151.0625 C-50.68785156 150.381875 -49.75070312 149.70125 -48.78515625 149 C-46.56372027 147.06356371 -45.50363144 145.83117737 -44.5625 143.0625 C-44.63828955 139.44787214 -44.63828955 139.44787214 -45.5625 136.0625 C-49.26931651 133.59128899 -52.26233294 133.36756504 -56.5625 134.0625 C-59.69648729 135.77017098 -59.69648729 135.77017098 -62.5 138.3125 C-63.62864351 139.24307142 -64.76030617 140.16998986 -65.89453125 141.09375 C-66.48830566 141.58230469 -67.08208008 142.07085937 -67.69384766 142.57421875 C-70.91621064 145.14065784 -74.30432665 147.46476852 -77.6875 149.8125 C-107.67872052 170.82953994 -134.74748982 192.77564182 -154.5625 224.0625 C-161.33852889 217.84724591 -166.48643863 208.94175599 -167.5 199.6875 C-167.520625 198.49125 -167.54125 197.295 -167.5625 196.0625 C-166.758125 195.60875 -165.95375 195.155 -165.125 194.6875 C-162.47393428 193.31524335 -162.47393428 193.31524335 -161.5625 191.0625 C-161.35217674 189.26121659 -161.14583881 187.45929876 -160.96777344 185.65454102 C-160.24425734 178.49643613 -159.27204758 172.35153431 -155.5625 166.0625 C-155.15257812 165.340625 -154.74265625 164.61875 -154.3203125 163.875 C-144.33565278 147.62877401 -127.0399569 137.12886738 -111.31640625 127.1015625 C-95.75971487 117.17970958 -80.54462911 107.13594332 -66.5625 95.0625 C-65.7478125 94.36511719 -64.933125 93.66773438 -64.09375 92.94921875 C-62.81620997 91.84119845 -61.54557835 90.72511074 -60.28515625 89.59765625 C-59.05847082 88.5044876 -57.81421193 87.43090403 -56.55859375 86.37109375 C-32.34158041 65.83028737 -18.62173507 36.43817842 -9.53125 6.6875 C-7.72650709 1.79722888 -5.15203795 0.09038663 0 0 Z " fill="#CAE1F8" transform="translate(465.5625,109.9375)"/>
<path d="M0 0 C37.334704 -0.045773 74.66940378 -0.08101696 112.00413016 -0.10213066 C116.41136351 -0.10463209 120.81859681 -0.10722073 125.22583008 -0.10986328 C126.10323465 -0.1103879 126.98063922 -0.11091252 127.88463181 -0.11145304 C142.09333659 -0.12015677 156.30202519 -0.13592658 170.51072038 -0.15430559 C185.08904315 -0.17300552 199.66735744 -0.18411692 214.24569172 -0.18817699 C223.24202919 -0.19092185 232.23832094 -0.19959283 241.23464435 -0.21583293 C247.40290431 -0.22640095 253.57114062 -0.22960104 259.73940898 -0.22700275 C263.29870088 -0.22572118 266.85791285 -0.22769242 270.41719055 -0.23841095 C274.27710376 -0.24994987 278.13691285 -0.24597591 281.99684143 -0.24050903 C283.68216479 -0.24924756 283.68216479 -0.24924756 285.40153509 -0.25816262 C290.999246 -0.23668918 295.71603072 0.10730354 301 2 C300.81135093 6.0559551 300.30681129 7.6758811 297.47414589 10.66834068 C293.76565419 13.57633643 290.11496788 13.69407272 285.53866577 13.61904907 C284.70079423 13.62528805 283.86292268 13.63152703 282.99966109 13.63795507 C280.19899674 13.65284713 277.39973364 13.63224605 274.59912109 13.61181641 C272.58817043 13.6153583 270.57722265 13.62113669 268.56628418 13.62898254 C264.23806844 13.64116014 259.91024686 13.63769536 255.58204269 13.62215042 C248.7311468 13.59782462 241.88059562 13.60933392 235.0296936 13.62582397 C222.95098074 13.65032468 210.87242453 13.64451944 198.79370117 13.63201904 C180.63105946 13.61345051 162.46844849 13.61835743 144.30582869 13.65205324 C137.50335416 13.66353504 130.70113126 13.65917092 123.89867091 13.64203286 C119.65449905 13.63410267 115.41039948 13.63840718 111.16622925 13.64574242 C109.20716489 13.64654875 107.2480903 13.64225216 105.28905106 13.63229942 C88.97580222 13.55347535 75.37419331 14.61719718 62.7109375 26.0703125 C50.18940027 39.15461545 49.69847957 55.13905577 49.72825623 72.25416565 C49.72396398 73.99465232 49.7187989 75.73513701 49.71284157 77.47561878 C49.69903612 82.23558134 49.69748388 86.99547981 49.69798481 91.75545943 C49.69634267 96.8971526 49.68320719 102.03881802 49.67144775 107.18049622 C49.65261043 116.08172564 49.64088097 124.9829414 49.63390923 133.8841877 C49.62373016 146.75597351 49.60166189 159.62771797 49.57652331 172.49948227 C49.53595841 193.38742285 49.50348113 214.2753674 49.47680664 235.16333008 C49.47520934 236.41264314 49.47361204 237.66195621 49.47196633 238.94912725 C49.47036743 240.20005442 49.46876853 241.4509816 49.46712118 242.73981565 C49.44440759 260.49655034 49.41977546 278.25328098 49.39282227 296.01000977 C49.39092612 297.26052714 49.38902997 298.51104452 49.38707637 299.79945637 C49.35534111 320.62142882 49.31959836 341.44339328 49.28178078 362.26535553 C49.25870692 375.11261455 49.23976502 387.95986808 49.22611404 400.80714064 C49.21661258 409.59775123 49.20378657 418.38835264 49.18830519 427.17895473 C49.17950949 432.2566235 49.17242509 437.33428085 49.16966438 442.41195679 C49.16712601 447.05311392 49.16009596 451.69424099 49.14939214 456.33538627 C49.14633456 458.02081316 49.14499541 459.70624416 49.14548045 461.39167375 C49.1459058 463.66959703 49.14029394 465.94742519 49.13307858 468.22533512 C49.13071773 470.12904223 49.13071773 470.12904223 49.12830919 472.07120806 C49 475 49 475 48 477 C43.94343719 477.1238616 39.88761022 477.21445733 35.82958984 477.2746582 C34.45016298 477.2997593 33.07086858 477.33384873 31.69189453 477.37719727 C29.70664128 477.43802875 27.72040641 477.46357937 25.734375 477.48828125 C23.94338379 477.52755737 23.94338379 477.52755737 22.11621094 477.56762695 C19 477 19 477 16.83645111 474.93231064 C14.60443969 471.36839826 14.44315392 468.58913119 14.50057125 464.51540279 C14.49516629 463.76696756 14.48976133 463.01853233 14.48419258 462.24741724 C14.47090204 459.73109302 14.48616989 457.21575045 14.50120544 454.69944763 C14.49747959 452.88051859 14.49199122 451.06159245 14.48488861 449.24267346 C14.47040889 444.23753487 14.48082565 439.23270663 14.49517167 434.227579 C14.50626718 428.83200541 14.49429916 423.43647883 14.48498535 418.04090881 C14.47188047 408.68775508 14.47306925 399.33469067 14.48357964 389.98153496 C14.49850746 376.44532173 14.48861288 362.90921347 14.47206045 349.37300623 C14.44558304 327.395071 14.43474105 305.41715929 14.43579102 283.43920898 C14.4358785 281.46539424 14.4358785 281.46539424 14.43596775 279.45170445 C14.43623358 274.12038475 14.43654866 268.78906506 14.43693101 263.45774537 C14.43793212 248.79629281 14.43657061 234.13484104 14.43383789 219.47338867 C14.433598 218.16123508 14.43335811 216.84908149 14.43311094 215.49716567 C14.42870282 193.6108577 14.41246187 171.72457155 14.3886171 149.83827645 C14.37454943 136.33883935 14.37166389 122.83948523 14.38323999 109.34004528 C14.39056842 100.08581587 14.38749507 90.83162822 14.37628155 81.57740282 C14.37021405 76.23926257 14.36910482 70.90123918 14.38115883 65.56310654 C14.39213694 60.67193854 14.38926603 55.78097741 14.37561537 50.88981796 C14.37312846 49.12462387 14.37567393 47.35941363 14.38388925 45.5942369 C14.43459015 33.94332161 14.17272107 22.56669698 8.125 12.1875 C7.65320313 11.35605469 7.18140625 10.52460938 6.6953125 9.66796875 C5.31742973 7.49954954 3.8915788 5.41828731 2.39404297 3.33325195 C1.94527802 2.7076387 1.49651306 2.08202545 1.03414917 1.43745422 C0.52224533 0.72591438 0.52224533 0.72591438 0 0 Z " fill="#FEF2E3" transform="translate(91,17)"/>
<path d="M0 0 C3.31677461 2.06686429 3.31677461 2.06686429 5.96875 0.921875 C6.8246875 0.51453125 7.680625 0.1071875 8.5625 -0.3125 C10.24946127 -1.00132086 11.9369603 -1.68882621 13.625 -2.375 C14.46160156 -2.71660156 15.29820312 -3.05820313 16.16015625 -3.41015625 C25.96002202 -7.09108144 37.1828092 -6.27498236 46.84375 -2.57421875 C57.08880494 2.18031106 64.40294122 9.0995322 68.5625 19.6875 C73.53209875 34.64973281 70.75490142 52.03467413 63.875 65.9375 C53.61265777 85.66476474 38.76425756 99.77292639 17.62109375 106.8125 C2.73734362 111.07043107 -9.57734909 107.83658823 -23.125 100.9375 C-41.96264949 90.06643355 -54.52928572 72.46390642 -60.4375 51.6875 C-62.62100195 39.92162324 -63.74910705 25.25944181 -57.4375 14.6875 C-57.025 13.9140625 -56.6125 13.140625 -56.1875 12.34375 C-51.08864616 3.65252187 -42.88114296 -1.55969652 -33.41796875 -4.65625 C-22.23025026 -7.11960086 -10.03830701 -5.53514125 0 0 Z " fill="#FD6C79" transform="translate(257.4375,77.3125)"/>
<path d="M0 0 C6.50803851 2.01157554 9.11316169 8.68196636 12.1875 14.375 C12.59871094 15.09623047 13.00992188 15.81746094 13.43359375 16.56054688 C16.7196426 22.64683337 17.50664056 27.18172537 15.625 34.01171875 C8.90919557 49.49783358 -0.78795542 63.15667023 -12.2265625 75.515625 C-13.48900136 76.89206335 -14.74443294 78.27585454 -15.95629883 79.69702148 C-21.118996 85.74547167 -26.70260801 91.35452648 -32.33227539 96.96264648 C-33.99676277 98.6217732 -35.65583447 100.28618051 -37.31445312 101.95117188 C-42.3591808 106.99905731 -47.43012758 111.96936406 -52.86108398 116.60620117 C-55.43574677 118.80994109 -57.89517442 121.12762051 -60.375 123.4375 C-65.02426847 127.73866334 -69.83510484 131.76901298 -74.76953125 135.7421875 C-78.91072402 139.18256303 -82.83774139 142.84107484 -86.78515625 146.5 C-89.66943553 149.16116345 -92.60587133 151.74949008 -95.5703125 154.3203125 C-98.79339805 157.13893241 -101.9611855 160.0186708 -105.13671875 162.890625 C-107.19164514 164.73046248 -109.27422426 166.52573495 -111.375 168.3125 C-126.02937986 181.03761619 -126.02937986 181.03761619 -135.875 197.4375 C-137.98262433 201.96498931 -140.91791704 205.2678693 -144.1328125 209.0625 C-147.98349262 213.81703751 -151.26358233 218.91187377 -154.5625 224.0625 C-161.33852889 217.84724591 -166.48643863 208.94175599 -167.5 199.6875 C-167.520625 198.49125 -167.54125 197.295 -167.5625 196.0625 C-166.758125 195.60875 -165.95375 195.155 -165.125 194.6875 C-162.47393428 193.31524335 -162.47393428 193.31524335 -161.5625 191.0625 C-161.35217674 189.26121659 -161.14583881 187.45929876 -160.96777344 185.65454102 C-160.24425734 178.49643613 -159.27204758 172.35153431 -155.5625 166.0625 C-155.15257812 165.340625 -154.74265625 164.61875 -154.3203125 163.875 C-144.33565278 147.62877401 -127.0399569 137.12886738 -111.31640625 127.1015625 C-95.75971487 117.17970958 -80.54462911 107.13594332 -66.5625 95.0625 C-65.7478125 94.36511719 -64.933125 93.66773438 -64.09375 92.94921875 C-62.81620997 91.84119845 -61.54557835 90.72511074 -60.28515625 89.59765625 C-59.05847082 88.5044876 -57.81421193 87.43090403 -56.55859375 86.37109375 C-32.34158041 65.83028737 -18.62173507 36.43817842 -9.53125 6.6875 C-7.72650709 1.79722888 -5.15203795 0.09038663 0 0 Z " fill="#ECF5FD" transform="translate(465.5625,109.9375)"/>
<path d="M0 0 C3.31677461 2.06686429 3.31677461 2.06686429 5.96875 0.921875 C6.8246875 0.51453125 7.680625 0.1071875 8.5625 -0.3125 C10.24946127 -1.00132086 11.9369603 -1.68882621 13.625 -2.375 C14.46160156 -2.71660156 15.29820312 -3.05820313 16.16015625 -3.41015625 C25.96002202 -7.09108144 37.1828092 -6.27498236 46.84375 -2.57421875 C57.08880494 2.18031106 64.40294122 9.0995322 68.5625 19.6875 C73.53209875 34.64973281 70.75490142 52.03467413 63.875 65.9375 C53.61265777 85.66476474 38.76425756 99.77292639 17.62109375 106.8125 C2.73734362 111.07043107 -9.57734909 107.83658823 -23.125 100.9375 C-41.96264949 90.06643355 -54.52928572 72.46390642 -60.4375 51.6875 C-62.62100195 39.92162324 -63.74910705 25.25944181 -57.4375 14.6875 C-57.025 13.9140625 -56.6125 13.140625 -56.1875 12.34375 C-51.08864616 3.65252187 -42.88114296 -1.55969652 -33.41796875 -4.65625 C-22.23025026 -7.11960086 -10.03830701 -5.53514125 0 0 Z M-41.2109375 20.7109375 C-46.16515845 28.69449101 -45.44671124 39.25468021 -43.78515625 48.19921875 C-39.17504509 64.60171727 -29.59161942 76.57072763 -15.4375 85.6875 C-7.41944665 90.04960706 0.34965428 93.45053378 9.5625 91.6875 C26.14921304 86.56227055 38.09874677 76.86722662 46.8359375 61.96875 C50.39011477 55.21420497 53.02486371 48.3488171 53.5625 40.6875 C53.63726562 39.78257813 53.71203125 38.87765625 53.7890625 37.9453125 C54.15537714 30.36838329 52.87020357 24.97603126 48.5625 18.6875 C43.69432846 13.4136475 36.63739871 11.56974774 29.625 11.25 C23.02597285 11.46585603 17.01032261 13.64764782 11.9375 17.875 C9.35103645 19.84888008 7.19409695 20.76665094 3.93359375 21.0625 C-0.42748298 20.37277452 -3.87033537 17.73178777 -7.5546875 15.4140625 C-19.3661764 8.33997294 -32.45928588 10.39474481 -41.2109375 20.7109375 Z " fill="#030202" transform="translate(257.4375,77.3125)"/>
<path d="M0 0 C8.89207984 6.24782373 15.08707909 14.49759605 18 25 C18.25718427 27.89719652 18.2340275 30.77301415 18.1953125 33.6796875 C18.19329834 34.40099854 18.19128418 35.12230957 18.18920898 35.86547852 C18.17882024 38.53538459 18.15089814 41.20519933 18.125 43.875 C18.08375 49.85625 18.0425 55.8375 18 62 C5.79 62 -6.42 62 -19 62 C-19.99 60.02 -20.98 58.04 -22 56 C-24.59774391 53.40225609 -26.47308846 53.37179717 -30.0625 52.6875 C-38.45138218 50.80787187 -44.51663957 48.63209226 -49.5 41.375 C-53.84858114 34.29647626 -53.72389475 27.06857965 -53 19 C-51.82867144 15.26730153 -50.18903613 12.22882829 -48 9 C-47.278125 7.9275 -46.55625 6.855 -45.8125 5.75 C-32.99647232 -6.78122706 -15.61013354 -8.57655604 0 0 Z " fill="#FDD7AB" transform="translate(71,22)"/>
<path d="M0 0 C0.92860336 -0.0065712 1.85720673 -0.0131424 2.81394958 -0.01991272 C5.89574254 -0.03966964 8.97748673 -0.05131333 12.05932617 -0.0612793 C13.11037725 -0.06535482 14.16142834 -0.06943035 15.24432945 -0.07362938 C20.80676452 -0.09449982 26.36917485 -0.10879762 31.93164062 -0.11816406 C37.68200987 -0.1292336 43.43199269 -0.16363721 49.18222523 -0.20333576 C53.59942859 -0.22945895 58.01653927 -0.23785206 62.4338131 -0.24144554 C64.55372415 -0.24632222 66.67363077 -0.2579668 68.79346657 -0.27648354 C71.75975953 -0.30078439 74.7250446 -0.29992645 77.69140625 -0.29296875 C79.00623489 -0.31218384 79.00623489 -0.31218384 80.34762573 -0.33178711 C84.44712643 -0.29671908 86.5150062 -0.15372876 90.06156921 2.08137512 C92.4112038 4.57045272 92.96241099 5.59662244 93.41479492 8.98950195 C92.91740738 13.21729609 91.24598415 14.50517759 88.03979492 17.17700195 C84.67607504 18.85886189 80.87144603 18.3333984 77.17138672 18.33813477 C76.25253693 18.34309967 75.33368713 18.34806458 74.38699341 18.35317993 C71.33765929 18.36782255 68.28837721 18.37460731 65.23901367 18.38012695 C63.12392678 18.38587699 61.0088399 18.39163474 58.89375305 18.3973999 C54.45423133 18.40791609 50.01472775 18.41375461 45.57519531 18.41723633 C39.88542977 18.42272015 34.19590365 18.44674328 28.50621319 18.47520828 C24.13533325 18.49382952 19.764511 18.49904001 15.39359474 18.5005722 C13.29602564 18.50360078 11.1984576 18.5116362 9.10092735 18.52475739 C6.16589518 18.54180576 3.23144827 18.53994041 0.29638672 18.53344727 C-0.57081497 18.54266205 -1.43801666 18.55187683 -2.33149719 18.56137085 C-7.03803679 18.52874227 -10.13112257 18.22519671 -13.96020508 15.17700195 C-16.02549044 12.2265943 -16.56690258 9.73051591 -15.96020508 6.17700195 C-10.83123771 0.23819763 -7.5292432 0.02293772 0 0 Z " fill="#0D0C0A" transform="translate(173.960205078125,230.822998046875)"/>
<path d="M0 0 C0.93821091 -0.0065712 1.87642181 -0.0131424 2.84306335 -0.01991272 C5.96275909 -0.03970021 9.08240656 -0.05132104 12.20214844 -0.0612793 C13.26514915 -0.06535482 14.32814987 -0.06943035 15.42336273 -0.07362938 C21.05063179 -0.09451442 26.6778763 -0.10880499 32.30517578 -0.11816406 C38.12395317 -0.12922734 43.942348 -0.16361959 49.76099014 -0.20333576 C54.22880778 -0.22946036 58.69653378 -0.23785227 63.16442108 -0.24144554 C65.3094516 -0.24632307 67.45447773 -0.25797003 69.5994339 -0.27648354 C72.60175485 -0.30078392 75.60307993 -0.29992631 78.60546875 -0.29296875 C79.49294296 -0.30577881 80.38041718 -0.31858887 81.29478455 -0.33178711 C85.41905078 -0.2969306 87.52166994 -0.16246688 91.09002686 2.08137512 C93.43208906 4.57089929 93.98471538 5.60094155 94.43652344 8.98950195 C94.06152344 12.17700195 94.06152344 12.17700195 92.1375885 14.83677673 C87.87582243 18.0790659 84.689221 17.87580681 79.46948242 17.80810547 C78.50957397 17.81526077 77.54966553 17.82241608 76.56066895 17.82978821 C73.39249874 17.84667643 70.22574315 17.82727268 67.05761719 17.8059082 C64.85474022 17.80673682 62.65186332 17.80919591 60.44898987 17.81321716 C55.83470018 17.81607517 51.22089589 17.80137188 46.60668945 17.77392578 C40.68917773 17.73982349 34.77253289 17.7458681 28.85497952 17.76458836 C24.30736553 17.77515077 19.75995366 17.76622766 15.21235847 17.75120354 C13.03024966 17.74601707 10.84811978 17.74650914 8.66601372 17.75274849 C5.61826966 17.75819217 2.571772 17.73785272 -0.47583008 17.71044922 C-1.83106026 17.72023804 -1.83106026 17.72023804 -3.21366882 17.73022461 C-9.29967218 17.6370651 -9.29967218 17.6370651 -12.46348572 15.35850525 C-14.59857676 12.20071741 -15.00518336 9.9792892 -14.93847656 6.17700195 C-12.56347656 3.30200195 -12.56347656 3.30200195 -9.93847656 1.17700195 C-7.8070838 -0.95439081 -2.95213387 0.00886362 0 0 Z " fill="#060605" transform="translate(172.9384765625,405.822998046875)"/>
<path d="M0 0 C0.95015488 -0.00408875 1.90030975 -0.00817749 2.8792572 -0.01239014 C6.01526263 -0.0183992 9.14915725 0.0185202 12.28491211 0.05664062 C14.46536234 0.06275732 16.64582038 0.06650841 18.82627869 0.06799316 C23.39360514 0.0771949 27.96022545 0.10602854 32.52734375 0.15039062 C38.38414894 0.20698893 44.24039851 0.22881744 50.09745121 0.23775482 C54.59872503 0.24606494 59.09988639 0.26570073 63.60110283 0.289505 C65.76087991 0.30090537 67.92066776 0.31042445 70.0804615 0.31803894 C73.09680321 0.3317764 76.11270514 0.35904526 79.12890625 0.390625 C80.47011032 0.39397858 80.47011032 0.39397858 81.83840942 0.3973999 C83.07269936 0.41453033 83.07269936 0.41453033 84.33192444 0.43200684 C85.04442887 0.43795616 85.75693331 0.44390549 86.49102879 0.4500351 C88.89089783 0.7640742 90.45158556 1.42770287 92.49975586 2.71289062 C94.82511649 6.20093158 94.83433484 7.61429816 94.49975586 11.71289062 C93.62461555 14.33831154 93.05807314 15.37769904 90.67974758 16.80555153 C88.38367298 17.76120573 86.84174573 17.9685667 84.36988831 17.98031616 C83.5554425 17.98884613 82.7409967 17.9973761 81.90187073 18.00616455 C81.01708542 18.00525818 80.13230011 18.00435181 79.22070312 18.00341797 C77.81272964 18.0134938 77.81272964 18.0134938 76.37631226 18.02377319 C73.27287507 18.04277412 70.16965385 18.04667829 67.06616211 18.04882812 C64.90909231 18.05525398 62.7520234 18.06198218 60.59495544 18.06900024 C56.07321145 18.08097782 51.55154389 18.08468051 47.02978516 18.08349609 C41.23460579 18.08329274 35.43991592 18.11061006 29.64485264 18.14504051 C25.18989305 18.16727158 20.73505203 18.17133482 16.28004265 18.17027664 C14.14339445 18.17263773 12.00674324 18.18148974 9.87014961 18.19694138 C6.88248453 18.21652672 3.89588519 18.21079267 0.90820312 18.19873047 C0.02544205 18.20996948 -0.85731903 18.2212085 -1.76683044 18.23278809 C-5.81716489 18.19121266 -7.9804555 18.02627926 -11.51795959 15.89346313 C-14.3211429 12.80987734 -14.64302866 10.8536416 -14.50024414 6.71289062 C-10.5975019 0.22477883 -7.27177029 -0.15022284 0 0 Z " fill="#010000" transform="translate(172.500244140625,318.287109375)"/>
<path d="M0 0 C2.05558571 0.02680351 4.10571465 0.00020868 6.16113281 -0.03173828 C17.18090329 0.02259984 17.18090329 0.02259984 20.95800781 2.97216797 C23.05957031 5.65185547 23.05957031 5.65185547 23.68457031 9.15185547 C22.94840732 13.27436824 22.08134207 14.77694182 19.05957031 17.65185547 C16.28988958 18.16212062 14.13856279 18.35532613 11.37207031 18.31591797 C10.63255127 18.3207016 9.89303223 18.32548523 9.13110352 18.33041382 C7.5711046 18.33380888 6.01103417 18.32463356 4.45117188 18.30371094 C2.06641679 18.27693235 -0.31363306 18.30346416 -2.69824219 18.33544922 C-4.21648172 18.33214504 -5.73471832 18.32573862 -7.25292969 18.31591797 C-8.31870239 18.3310997 -8.31870239 18.3310997 -9.40600586 18.34658813 C-13.11274137 18.25906488 -14.65814176 17.9204242 -17.38183594 15.32910156 C-19.46882842 11.74420814 -19.66927853 9.73340897 -18.94042969 5.65185547 C-13.9283972 -0.73895175 -7.67635146 -0.11931201 0 0 Z " fill="#060605" transform="translate(342.9404296875,405.34814453125)"/>
</svg>
