<?xml version="1.0" encoding="UTF-8"?>
<svg version="1.1" xmlns="http://www.w3.org/2000/svg" width="512" height="512">
<path d="M0 0 C1.69202983 1.47133029 3.35871809 2.9722659 5 4.5 C10.61834053 9.7214405 16.2959151 13.70032109 23.5625 16.25 C32.67562006 15.58722763 41.8609501 5.63268491 48.890625 0.21484375 C49.73625 -0.42839844 50.581875 -1.07164063 51.453125 -1.734375 C52.20754883 -2.31413086 52.96197266 -2.89388672 53.73925781 -3.49121094 C61.24596565 -8.50108722 68.63436077 -6.56173367 77 -5 C145.13321222 8.85068041 210.65415695 47.00748977 249.6340332 105.5793457 C255.29175532 114.33630504 260.10104072 123.35732323 259 134 C258.13758706 136.94096287 256.88881589 139.5859159 255.5 142.3125 C255.1383374 143.04742676 254.7766748 143.78235352 254.40405273 144.53955078 C242.762069 167.66206929 223.20866454 188.09105132 203 204 C201.4840625 205.2065625 201.4840625 205.2065625 199.9375 206.4375 C141.42902259 252.57266543 66.08410137 275.94993823 -8.18847656 267.359375 C-71.10004491 259.31788242 -128.49074937 229.67296614 -174 186 C-174.89460938 185.14664063 -175.78921875 184.29328125 -176.7109375 183.4140625 C-182.62995381 177.64074505 -187.95516816 171.5488277 -193 165 C-193.41813965 164.45827148 -193.8362793 163.91654297 -194.26708984 163.35839844 C-202.03589942 153.19539092 -210.62096955 141.26606558 -211 128 C-210.20233897 125.1284203 -209.48375957 123.48629983 -208 121 C-207.5565625 120.175 -207.113125 119.35 -206.65625 118.5 C-198.73308983 104.20724048 -188.80682793 91.21286001 -178 79 C-177.24074219 78.12988281 -176.48148438 77.25976562 -175.69921875 76.36328125 C-166.84976828 66.35067033 -157.47823438 57.29013249 -147 49 C-146.2471875 48.36835937 -145.494375 47.73671875 -144.71875 47.0859375 C-131.37748459 35.98344608 -116.3715541 26.97952302 -101 19 C-100.32710938 18.6498584 -99.65421875 18.2997168 -98.9609375 17.93896484 C-75.64099553 5.98749459 -50.17332545 -1.65211431 -24.375 -5.9375 C-23.6113916 -6.06624512 -22.8477832 -6.19499023 -22.06103516 -6.32763672 C-12.8826637 -7.70573945 -7.35619291 -5.22333224 0 0 Z M-79.2109375 110.81640625 C-80.59938963 111.27872115 -81.98803516 111.74045559 -83.37686157 112.2016449 C-86.2509182 113.1582364 -89.12279966 114.12101087 -91.99316406 115.08862305 C-95.67583936 116.32960173 -99.36335384 117.55543933 -103.05251122 118.77699375 C-105.90413182 119.72282257 -108.75329569 120.67587422 -111.60173416 121.63123894 C-112.96223793 122.08668976 -114.32346103 122.53999762 -115.68540573 122.99112129 C-117.57314653 123.61771843 -119.45733163 124.25499776 -121.34130859 124.89282227 C-122.41303314 125.25239517 -123.48475769 125.61196808 -124.58895874 125.98243713 C-127.14829376 126.75479358 -127.14829376 126.75479358 -128 129 C-35.6135697 155.44838783 32.8349959 168.43242551 154.578125 135.6953125 C156.38694908 135.20355278 156.38694908 135.20355278 158.23231506 134.70185852 C164.85086662 132.89290029 171.4403277 131.01242784 178 129 C178 128.34 178 127.68 178 127 C172.06450297 124.82794938 166.12776141 122.6593445 160.18994141 120.49365234 C158.17854499 119.7595263 156.16746626 119.02452911 154.15673828 118.28857422 C144.10296806 114.60938621 134.04514976 110.95576781 123.890625 107.5625 C123.16634308 107.3201059 122.44206116 107.07771179 121.6958313 106.82797241 C102.93296066 100.63337389 88.1113385 103.56344851 69.94189453 110.35009766 C53.16187093 116.60138027 37.97246455 120.02125987 20 119 C18.93313965 118.94416748 18.93313965 118.94416748 17.84472656 118.88720703 C4.24116709 118.06738987 -7.64080843 114.26311528 -20.265625 109.34375 C-41.72826974 101.00095123 -57.87058031 103.61176275 -79.2109375 110.81640625 Z " fill="#010000" transform="translate(253,9)"/>
<path d="M0 0 C2.27467803 1.62042454 4.56415551 3.21801433 6.85742188 4.81201172 C11.09678287 7.76231828 15.32347208 10.73023937 19.54736328 13.70263672 C23.01790438 16.14157101 26.4957221 18.57002131 29.97338867 20.9987793 C36.67198008 25.67928328 43.36534051 30.36744168 50.02929688 35.09716797 C51.07859375 35.84095703 52.12789063 36.58474609 53.20898438 37.35107422 C62.40362127 44.16778778 62.40362127 44.16778778 64.90429688 48.97216797 C65.29101562 49.69275391 65.67773438 50.41333984 66.07617188 51.15576172 C68.31456351 56.09482152 69.40422364 60.32692479 69.39480591 65.76095581 C69.3989299 67.6034063 69.3989299 67.6034063 69.40313721 69.483078 C69.39606041 70.83084206 69.38879081 72.17860511 69.38134766 73.52636719 C69.38078307 74.95580538 69.38110102 76.38524415 69.38223267 77.81468201 C69.38280535 81.68408915 69.37106478 85.55337174 69.35708475 89.42275 C69.34456326 93.47063912 69.34340577 97.51853126 69.34103394 101.56643677 C69.33482333 109.22673815 69.3184182 116.88698229 69.29833496 124.5472585 C69.27596289 133.27031914 69.26497924 141.99338255 69.25494409 150.71646476 C69.2340516 168.65589825 69.19888379 186.5952785 69.15429688 204.53466797 C70.09660156 204.66099609 71.03890625 204.78732422 72.00976562 204.91748047 C75.69591232 205.64097262 76.85009723 206.63308324 79.15429688 209.53466797 C80.44850223 213.41728402 80.30999385 217.10228677 80.31542969 221.14941406 C80.32039459 222.0293956 80.3253595 222.90937714 80.33047485 223.81602478 C80.34509203 226.7300596 80.35189747 229.64404 80.35742188 232.55810547 C80.36317334 234.58208213 80.36893108 236.60605877 80.37469482 238.6300354 C80.38520331 242.87526707 80.39104709 247.12047981 80.39453125 251.36572266 C80.40001805 256.80548047 80.42405077 262.24498823 80.4525032 267.68466759 C80.47112554 271.86596407 80.47633495 276.04720025 80.47786713 280.2285347 C80.48089469 282.23399855 80.48892671 284.23946131 80.50205231 286.24488449 C80.51910551 289.05049433 80.51723439 291.85549219 80.51074219 294.66113281 C80.51995697 295.4893605 80.52917175 296.3175882 80.53866577 297.1709137 C80.50503658 301.809827 80.11113924 304.74738889 77.15429688 308.53466797 C76.53248126 309.33116084 76.53248126 309.33116084 75.89810371 310.14374447 C73.43721758 312.10663639 71.71406162 311.91481569 68.58816528 311.92234802 C66.8510881 311.93720497 66.8510881 311.93720497 65.07891846 311.95236206 C63.80715759 311.94786041 62.53539673 311.94335876 61.22509766 311.9387207 C59.87317337 311.94442255 58.52125389 311.95138609 57.16934204 311.95951843 C53.49567821 311.97748796 49.82225275 311.97627416 46.14855814 311.97057605 C43.08196629 311.96748894 40.01542055 311.97357146 36.94883525 311.97961479 C29.71340989 311.99367152 22.47810255 311.99208989 15.24267578 311.98071289 C7.77913584 311.96923649 0.31595543 311.98329644 -7.14753711 312.01010936 C-13.55529177 312.03226734 -19.96293359 312.03890337 -26.37072384 312.03303295 C-30.19780718 312.02966164 -34.02466016 312.03208949 -37.85171127 312.04928398 C-41.45187379 312.06475229 -45.05150418 312.06079953 -48.65164566 312.04197884 C-50.60086137 312.03653571 -52.55010095 312.05080888 -54.49926758 312.06567383 C-55.66295868 312.05583969 -56.82664978 312.04600555 -58.02560425 312.03587341 C-59.03475828 312.03566413 -60.04391232 312.03545485 -61.08364677 312.03523922 C-64.59826442 311.39828026 -66.2851076 309.97290289 -68.84570312 307.53466797 C-70.52734894 304.17137633 -70.02052296 300.36670388 -70.03857422 296.66625977 C-70.04675171 295.74740997 -70.0549292 294.82856018 -70.06335449 293.88186646 C-70.0882246 290.83254656 -70.1047281 287.78327324 -70.11914062 284.73388672 C-70.1244643 283.6938682 -70.12978798 282.65384968 -70.13527298 281.58231544 C-70.16201079 276.07824057 -70.18138423 270.57418844 -70.19580078 265.07006836 C-70.21245581 259.3801419 -70.25723926 253.69079385 -70.30817223 248.00108624 C-70.34179928 243.63020651 -70.35337322 239.25946488 -70.35902786 234.88846779 C-70.36575222 232.79086699 -70.38100487 230.69327565 -70.40491867 228.5958004 C-70.43647708 225.66047147 -70.43662095 222.72671324 -70.42919922 219.79125977 C-70.44560455 218.92405807 -70.46200989 218.05685638 -70.47891235 217.16337585 C-70.43464501 212.8884148 -70.23013729 211.05601872 -67.62173462 207.51863098 C-64.81075979 205.50969481 -63.1764812 205.0729793 -59.84570312 204.53466797 C-59.8484685 203.57498423 -59.85123388 202.61530048 -59.85408306 201.62653542 C-59.92073343 178.2564849 -59.97000496 154.88644673 -60.00113964 131.51632118 C-60.01659701 120.21462243 -60.03766496 108.91298653 -60.07202148 97.61132812 C-60.10195839 87.75880114 -60.12128634 77.90631969 -60.12796861 68.05374849 C-60.13187358 62.83870899 -60.14102735 57.62379972 -60.1628933 52.40880203 C-60.1833262 47.49555845 -60.18952318 42.58249819 -60.18502617 37.66921616 C-60.18584833 35.87056735 -60.19177328 34.07191211 -60.20331955 32.27330017 C-60.28217643 19.35046302 -59.95223381 8.51167585 -50.84570312 -1.46533203 C-34.77415137 -17.17973819 -16.32690184 -11.64595262 0 0 Z " fill="#010000" transform="translate(69.845703125,200.46533203125)"/>
<path d="M0 0 C8.35454443 -0.4030581 15.25253515 0.49330128 23.1875 3.0625 C25.29641235 3.71114154 27.40580328 4.35822874 29.515625 5.00390625 C30.58748047 5.33664551 31.65933594 5.66938477 32.76367188 6.01220703 C37.96298709 7.59914347 43.19877885 9.04953706 48.4375 10.5 C50.53262408 11.08307468 52.62767598 11.6664088 54.72265625 12.25 C56.27944092 12.683125 56.27944092 12.683125 57.86767578 13.125 C60.97499806 13.99301583 64.07963744 14.8700301 67.18359375 15.75 C79.23169746 19.15932061 91.3062852 22.42687561 103.44091797 25.515625 C108.84413696 26.89623457 114.21215796 28.34413209 119.5625 29.91796875 C127.70901961 32.26427896 135.94321275 34.17482545 144.2121582 36.03710938 C146.80054181 36.62229647 149.38554917 37.2210413 151.97070312 37.8203125 C169.577011 41.84392212 186.5132364 43.40988983 204.5625 43.375 C205.48109802 43.37545319 206.39969604 43.37590637 207.34613037 43.37637329 C220.93202075 43.3567469 233.86657233 42.58402829 247.16699219 39.60791016 C249.98055758 39.00417198 252.80332299 38.47914388 255.63497925 37.96791077 C264.34288376 36.39108876 272.92140456 34.42815848 281.5 32.25 C282.18732208 32.077034 282.87464417 31.90406799 283.58279419 31.7258606 C295.50509991 28.72242165 307.30493461 25.37593339 319.0859375 21.85888672 C324.18876671 20.35488595 329.31295636 18.92792342 334.4375 17.5 C335.98667114 17.0678418 335.98667114 17.0678418 337.56713867 16.62695312 C339.65841442 16.04402366 341.74980483 15.46150537 343.84130859 14.87939453 C357.19534835 11.16156711 370.54497128 7.42811515 383.875 3.625 C384.75510742 3.37419678 385.63521484 3.12339355 386.54199219 2.86499023 C387.35055664 2.63368408 388.15912109 2.40237793 388.9921875 2.1640625 C389.69714355 1.96248535 390.40209961 1.7609082 391.12841797 1.55322266 C392.7629071 1.07008251 394.38306425 0.53897858 396 0 C398.22818441 -0.06937062 400.45834524 -0.08457084 402.6875 -0.0625 C404.45673828 -0.04896484 404.45673828 -0.04896484 406.26171875 -0.03515625 C407.16535156 -0.02355469 408.06898438 -0.01195312 409 0 C397.76442982 24.20398949 372.35595955 45.95020941 351 61 C349.85263381 61.83952845 348.70548918 62.67935981 347.55859375 63.51953125 C328.64744582 77.03950975 306.9621336 86.67412883 285 94 C284.1332666 94.29342285 283.2665332 94.5868457 282.37353516 94.88916016 C269.4817765 99.19632025 256.43636851 102.00092785 243 104 C241.29324097 104.26925293 241.29324097 104.26925293 239.55200195 104.54394531 C228.89194137 106.07448127 218.37051409 106.30760673 207.6105957 106.26074219 C204.70177182 106.25005245 201.79357055 106.26068496 198.88476562 106.2734375 C182.15977562 106.28662239 165.78500324 105.18438919 149.515625 101.12109375 C148.77248047 100.93659668 148.02933594 100.75209961 147.26367188 100.56201172 C146.51666016 100.37654785 145.76964844 100.19108398 145 100 C143.87174805 99.73147217 143.87174805 99.73147217 142.72070312 99.45751953 C102.80670347 89.95378257 66.07238917 71.01337874 36 43 C34.60855334 41.78661781 33.21291361 40.57802197 31.8125 39.375 C24.3820359 32.86591345 18.13411015 25.74208077 12 18 C11.55624023 17.44376953 11.11248047 16.88753906 10.65527344 16.31445312 C9.283325 14.590549 7.92140744 12.85919646 6.5625 11.125 C6.13735107 10.58987793 5.71220215 10.05475586 5.27416992 9.50341797 C2.90373867 6.44538436 1.35556403 3.60495665 0 0 Z " fill="#DC498B" transform="translate(73,149)"/>
<path d="M0 0 C1.51677994 1.13970848 3.02161524 2.29544576 4.515625 3.46484375 C6.10917505 4.66215798 7.70422283 5.85748148 9.30078125 7.05078125 C10.44957764 7.91848145 10.44957764 7.91848145 11.62158203 8.80371094 C21.54703827 16.20429024 30.09420435 20.61815388 42.765625 19.40234375 C51.46605876 17.2922499 57.87864943 12.81665216 64.765625 7.27734375 C66.59868915 5.83689696 68.43201074 4.39677771 70.265625 2.95703125 C71.0596875 2.32265137 71.85375 1.68827148 72.671875 1.03466797 C76.45926131 -1.91804482 78.23805575 -2.83667219 83.05566406 -2.31787109 C83.76432617 -2.2245752 84.47298828 -2.1312793 85.203125 -2.03515625 C86.32605957 -1.89134521 86.32605957 -1.89134521 87.47167969 -1.74462891 C130.56716837 4.27096817 173.85850852 26.81994964 205.1015625 56.85546875 C207.2263505 58.88679101 209.3695194 60.79143784 211.640625 62.65234375 C215.44649957 65.87483608 218.54898814 69.60526114 221.765625 73.40234375 C222.70672695 74.47146825 223.64957242 75.53905946 224.59375 76.60546875 C241.765625 96.12255774 241.765625 96.12255774 241.765625 100.40234375 C233.3483314 100.84816878 226.6393085 99.91798142 218.74609375 97.03125 C217.21374336 96.49571251 217.21374336 96.49571251 215.6504364 95.94935608 C212.34769622 94.78775771 209.05631223 93.59762331 205.765625 92.40234375 C203.5152151 91.5946709 201.26472613 90.78721831 199.01416016 89.97998047 C192.0252583 87.46099362 185.05076621 84.90343527 178.078125 82.33984375 C158.54180358 75.15213565 158.54180358 75.15213565 138.87109375 68.34375 C138.01647049 68.05644516 137.16184723 67.76914032 136.28132629 67.47312927 C114.61127074 60.3105533 93.51171247 65.4964424 72.75732422 73.12255859 C47.61229305 82.3588081 24.29286656 81.57628605 -0.24609375 70.96484375 C-10.62464426 66.7672472 -20.02005558 64.71606332 -31.234375 64.77734375 C-32.38292969 64.74511719 -33.53148437 64.71289062 -34.71484375 64.6796875 C-58.17896575 64.65409958 -82.27177471 76.3002698 -104.25128174 83.69207764 C-111.31007358 86.0650126 -118.37155014 88.42994388 -125.43311501 90.79461098 C-127.87189117 91.61212878 -130.30987009 92.43198702 -132.74772644 93.25224304 C-155.27323835 100.8195927 -155.27323835 100.8195927 -161.859375 100.58984375 C-163.39464844 100.54923828 -163.39464844 100.54923828 -164.9609375 100.5078125 C-165.71117187 100.47300781 -166.46140625 100.43820313 -167.234375 100.40234375 C-160.41131674 80.48047312 -136.1917748 59.89358704 -120.234375 47.40234375 C-119.24953125 46.61214844 -118.2646875 45.82195312 -117.25 45.0078125 C-90.24973085 23.53864166 -58.79213861 8.39662233 -25.234375 0.40234375 C-24.57453613 0.2415332 -23.91469727 0.08072266 -23.23486328 -0.08496094 C-6.13924784 -4.20489808 -6.13924784 -4.20489808 0 0 Z " fill="#DC498B" transform="translate(240.234375,27.59765625)"/>
<path d="M0 0 C2.56142346 1.24190228 4.40166785 2.32527384 6.625 4 C7.24415283 4.43860352 7.86330566 4.87720703 8.5012207 5.32910156 C9.89704192 6.31874032 11.28677887 7.31699807 12.67138672 8.32226562 C16.16240156 10.83749461 19.70866391 13.27139178 23.2487793 15.71679688 C27.20227046 18.45208594 31.14109461 21.20816401 35.08105469 23.96289062 C37.90646645 25.93472366 40.73746214 27.89824843 43.5703125 29.859375 C64.09677404 44.09677404 64.09677404 44.09677404 70 50 C70.24609566 52.47937965 70.24609566 52.47937965 70.24050903 55.66934204 C70.24325836 56.8753154 70.24600769 58.08128876 70.24884033 59.32380676 C70.24176161 60.6672068 70.23449198 62.01060583 70.22705078 63.35400391 C70.22648687 64.76314791 70.22680283 66.1722925 70.22793579 67.58143616 C70.2285111 71.41389128 70.21672803 75.24622196 70.20278788 79.07864809 C70.19031018 83.08118342 70.18911236 87.08372141 70.18673706 91.08627319 C70.18051356 98.66879279 70.16409102 106.25125492 70.14403808 113.83374918 C70.11753277 124.07776498 70.10671346 134.32179643 70.09503365 144.56583786 C70.07621101 160.71060165 70.03637116 176.85524414 70 193 C41.95 193 13.9 193 -15 193 C-15.16121214 146.3066958 -15.16121214 146.3066958 -15.1953125 126.77148438 C-15.21906648 113.27166684 -15.24702295 99.77194902 -15.30175781 86.2722168 C-15.34159826 76.44134548 -15.36742634 66.61055489 -15.37635398 56.77960509 C-15.38157344 51.57306438 -15.39385967 46.36675462 -15.42292023 41.16028786 C-15.45004513 36.26097521 -15.45845088 31.36198894 -15.45243073 26.46260834 C-15.45353227 24.663464 -15.46150355 22.86430888 -15.4768219 21.06522942 C-15.49670441 18.60992273 -15.4919461 16.1558506 -15.48101807 13.70051575 C-15.49266943 12.98747262 -15.5043208 12.2744295 -15.51632524 11.53977901 C-15.45882904 6.76526906 -14.37640967 4.35429939 -11 1 C-7.51972704 -0.74013648 -3.80551297 -0.45088264 0 0 Z " fill="#DD498B" transform="translate(47,212)"/>
<path d="M0 0 C8.75661711 -0.47396324 15.99118891 0.70540051 24.3125 3.375 C25.8603418 3.85066406 25.8603418 3.85066406 27.43945312 4.3359375 C29.42222236 4.94562951 31.40179557 5.56584854 33.37744141 6.19824219 C35.59353763 6.875738 37.78449617 7.40823098 40.04296875 7.9140625 C43.76174793 9.27974363 44.22092421 10.54068596 46 14 C47.79726091 15.98586236 49.59297406 17.87768048 51.5 19.75 C52.29567383 20.53769775 52.29567383 20.53769775 53.10742188 21.34130859 C57.28254664 25.41838495 61.66046059 29.16650804 66.234375 32.79296875 C69.13485505 35.10761738 71.93611156 37.51860927 74.75 39.9375 C96.08798346 57.68719613 121.84493537 71.08590933 147.9453125 80.2644043 C149.4669796 80.80917414 150.98164211 81.37359714 152.4921875 81.94848633 C159.23472585 84.49082417 165.98763814 86.41697208 173 88.0625 C174.08289307 88.31926514 175.16578613 88.57603027 176.28149414 88.84057617 C192.16090079 92.5219611 208.24687587 95.11547521 224.57421875 95.203125 C225.45315292 95.21000336 226.3320871 95.21688171 227.23765564 95.22396851 C230.05431323 95.24102494 232.87079353 95.24742076 235.6875 95.25 C237.12606354 95.25250763 237.12606354 95.25250763 238.59368896 95.25506592 C255.37520495 95.25682127 271.64884655 94.51335092 287.97021484 90.28271484 C290.25403673 89.96461697 291.81810518 90.30740302 294 91 C277.16764572 96.55037732 260.60676998 101.54705855 243 104 C241.8752124 104.17515137 240.7504248 104.35030273 239.59155273 104.53076172 C228.91610211 106.06582938 218.38660783 106.30767682 207.6105957 106.26074219 C204.70177182 106.25005245 201.79357055 106.26068496 198.88476562 106.2734375 C182.15977562 106.28662239 165.78500324 105.18438919 149.515625 101.12109375 C148.77248047 100.93659668 148.02933594 100.75209961 147.26367188 100.56201172 C146.51666016 100.37654785 145.76964844 100.19108398 145 100 C143.87174805 99.73147217 143.87174805 99.73147217 142.72070312 99.45751953 C102.80670347 89.95378257 66.07238917 71.01337874 36 43 C34.60855334 41.78661781 33.21291361 40.57802197 31.8125 39.375 C24.3820359 32.86591345 18.13411015 25.74208077 12 18 C11.55624023 17.44376953 11.11248047 16.88753906 10.65527344 16.31445312 C9.283325 14.590549 7.92140744 12.85919646 6.5625 11.125 C6.13735107 10.58987793 5.71220215 10.05475586 5.27416992 9.50341797 C2.90373867 6.44538436 1.35556403 3.60495665 0 0 Z " fill="#D1367D" transform="translate(73,149)"/>
<path d="M0 0 C34.98 0 69.96 0 106 0 C106 6.93 106 13.86 106 21 C103.37998047 21.03867187 103.37998047 21.03867187 100.70703125 21.078125 C98.40882923 21.1344075 96.11065311 21.1917548 93.8125 21.25 C92.08676758 21.27126953 92.08676758 21.27126953 90.32617188 21.29296875 C89.21435547 21.32519531 88.10253906 21.35742188 86.95703125 21.390625 C85.93585205 21.41157227 84.91467285 21.43251953 83.86254883 21.45410156 C80.30401333 22.13272718 78.59827039 23.52424308 76 26 C74.76285105 28.4742979 75.04418638 29.71499333 75.375 32.4375 C75.46523437 33.21996094 75.55546875 34.00242187 75.6484375 34.80859375 C75.96651128 37.16946986 75.96651128 37.16946986 77 40 C80.17509982 41.05836661 82.64282383 41.20243789 85.98046875 41.31640625 C87.14384766 41.35830078 88.30722656 41.40019531 89.50585938 41.44335938 C90.72080078 41.48267578 91.93574219 41.52199219 93.1875 41.5625 C94.41404297 41.60568359 95.64058594 41.64886719 96.90429688 41.69335938 C99.93606192 41.79953014 102.968016 41.90027764 106 42 C106 49.26 106 56.52 106 64 C70.69 64 35.38 64 -1 64 C-1 56.74 -1 49.48 -1 42 C4.00220703 41.97873047 4.00220703 41.97873047 9.10546875 41.95703125 C12.33905129 41.92640822 15.57242851 41.88731995 18.8059082 41.84741211 C21.05127693 41.82423055 23.29675442 41.80983605 25.54223633 41.80444336 C28.77233673 41.7951553 32.00072609 41.75416577 35.23046875 41.70703125 C36.73386055 41.71293022 36.73386055 41.71293022 38.2676239 41.71894836 C42.95436244 41.62107224 45.27025255 41.54554936 49.1105957 38.67456055 C51.48926518 35.30741698 52 33.11361585 52 29 C50.41161066 25.42612398 49.28365642 24.18910428 46 22 C43.84120666 21.67370844 43.84120666 21.67370844 41.43676758 21.68115234 C40.51603958 21.66128265 39.59531158 21.64141296 38.64668274 21.62094116 C37.65597275 21.60938995 36.66526276 21.59783875 35.64453125 21.5859375 C34.11937141 21.55688828 34.11937141 21.55688828 32.56340027 21.5272522 C29.31318573 21.46743259 26.06293583 21.42106124 22.8125 21.375 C20.61001052 21.33682244 18.40753601 21.29777084 16.20507812 21.2578125 C10.80346291 21.16008256 5.40200874 21.0805321 0 21 C0 14.07 0 7.14 0 0 Z " fill="#FDDD75" transform="translate(22,427)"/>
<path d="M0 0 C0.00146656 0.55216187 0.00293312 1.10432373 0.00444412 1.67321777 C0.04168557 15.18151596 0.10117357 28.68956367 0.18390274 42.19766235 C0.22325554 48.73041729 0.25550372 55.26303988 0.27099609 61.79589844 C0.28624312 68.11142246 0.32083069 74.42658234 0.36830902 80.74194336 C0.38304018 83.14018573 0.39103621 85.53848011 0.39188385 87.93676758 C0.40341236 104.21345597 0.83910997 119.7180625 8.8125 134.375 C9.32744019 135.36185791 9.32744019 135.36185791 9.8527832 136.36865234 C21.36568602 157.96428372 38.15500192 170.82144047 61 178.875 C65.27433143 180.17151932 69.62778831 181.09779759 74 182 C74 185.63 74 189.26 74 193 C45.95 193 17.9 193 -11 193 C-11.16121214 146.3066958 -11.16121214 146.3066958 -11.1953125 126.77148438 C-11.21906648 113.27166684 -11.24702295 99.77194902 -11.30175781 86.2722168 C-11.34159826 76.44134548 -11.36742634 66.61055489 -11.37635398 56.77960509 C-11.38157344 51.57306438 -11.39385967 46.36675462 -11.42292023 41.16028786 C-11.45004513 36.26097521 -11.45845088 31.36198894 -11.45243073 26.46260834 C-11.45353227 24.663464 -11.46150355 22.86430888 -11.4768219 21.06522942 C-11.49670441 18.60992273 -11.4919461 16.1558506 -11.48101807 13.70051575 C-11.49266943 12.98747262 -11.5043208 12.2744295 -11.51632524 11.53977901 C-11.45882904 6.76526906 -10.37640967 4.35429939 -7 1 C-4.53721199 -0.231394 -2.7204945 -0.07159196 0 0 Z " fill="#D3377F" transform="translate(43,212)"/>
<path d="M0 0 C14.52 0 29.04 0 44 0 C43.67 0.66 43.34 1.32 43 2 C45.0971595 2.97357186 47.20321917 3.92797596 49.3125 4.875 C50.48425781 5.40867187 51.65601563 5.94234375 52.86328125 6.4921875 C64.12445562 10.90957708 76.28408127 10.41796527 88.1875 10.625 C90.01629304 10.66325859 91.84506957 10.70231465 93.67382812 10.7421875 C98.11574859 10.8373203 102.55775298 10.92165798 107 11 C107 14.63 107 18.26 107 22 C71.69 22 36.38 22 0 22 C0 14.74 0 7.48 0 0 Z " fill="#F6C562" transform="translate(21,469)"/>
<path d="M0 0 C0 0.66 0 1.32 0 2 C-0.99 2 -1.98 2 -3 2 C-3 2.66 -3 3.32 -3 4 C-4.05316406 4.53367187 -5.10632813 5.06734375 -6.19140625 5.6171875 C-35.63380911 20.74062633 -62.49274603 41.93470524 -83 68 C-83.69996094 68.8559375 -84.39992187 69.711875 -85.12109375 70.59375 C-89.42233891 75.86257205 -93.34295975 81.26509596 -97 87 C-96.34 87.66 -95.68 88.32 -95 89 C-103.54562257 92.08745074 -110.90808586 93.58974578 -120 93 C-113.17694174 73.07812937 -88.9573998 52.49124329 -73 40 C-72.01515625 39.20980469 -71.0303125 38.41960937 -70.015625 37.60546875 C-52.981971 24.06121755 -22.53949353 0 0 0 Z " fill="#CF367C" transform="translate(193,35)"/>
<path d="M0 0 C3.63 0 7.26 0 11 0 C13.33333333 7 15.66666667 14 18 21 C12.06 21 6.12 21 0 21 C0 14.07 0 7.14 0 0 Z " fill="#FFCC66" transform="translate(22,427)"/>
</svg>
