<?xml version="1.0" encoding="UTF-8"?>
<svg version="1.1" xmlns="http://www.w3.org/2000/svg" width="512" height="512">
<path d="M0 0 C4.10997383 2.97023319 7.25331448 6.52556843 8.859375 11.34375 C9.87253782 19.19255562 8.48476943 25.20517001 5.35424805 32.4140625 C-0.97447602 47.01510825 -7.28458963 65.21623267 -2.17578125 80.8515625 C0.86291616 88.16736984 5.77067023 92.93731016 12.859375 96.34375 C19.01736904 98.61248465 24.18685015 99.0685025 30.546875 97.34375 C36.58762633 95.73679285 43.3447572 94.96300729 49.265625 97.2890625 C55.58201074 101.03647046 58.66883801 105.03759549 60.546875 112.15625 C64.98094061 130.90813643 64.74222548 151.35101625 56.78027344 169.0690918 C56.24052887 170.27325996 56.24052887 170.27325996 55.68988037 171.50175476 C55.4158136 172.10961319 55.14174683 172.71747162 54.859375 173.34375 C62.98325781 176.01382449 71.10846665 178.67984655 79.234375 181.34375 C80.4606662 181.74580658 81.6869574 182.14786316 82.95040894 182.56210327 C103.14831682 189.18074091 123.37540588 195.70303509 143.63623047 202.12695312 C149.05054255 203.84581145 154.45699832 205.58778244 159.859375 207.34375 C160.60757507 207.58397888 161.35577515 207.82420776 162.12664795 208.07171631 C164.11436187 208.71432206 166.0949995 209.37473461 168.07421875 210.04296875 C169.13632568 210.39576904 170.19843262 210.74856934 171.29272461 211.11206055 C174.24864675 212.53055452 175.18227166 213.55470105 176.859375 216.34375 C177.25810242 218.95074463 177.25810242 218.95074463 177.29174805 221.93847656 C177.31154221 223.05933655 177.33133636 224.18019653 177.35173035 225.33502197 C177.36131523 227.14145172 177.36131523 227.14145172 177.37109375 228.984375 C177.39802055 230.84035309 177.39802055 230.84035309 177.42549133 232.73382568 C177.47047666 236.01517851 177.5027789 239.29633411 177.52893066 242.57788086 C177.55876679 245.92967522 177.60553568 249.28118543 177.65039062 252.6328125 C177.73542039 259.20301615 177.80373072 265.77323533 177.859375 272.34375 C178.77899521 272.63443108 178.77899521 272.63443108 179.7171936 272.9309845 C186.11073059 274.95298136 192.50203091 276.98193156 198.89208984 279.01489258 C201.27564002 279.77220514 203.65975057 280.52775638 206.04443359 281.28149414 C209.47643282 282.36660102 212.90635211 283.4580727 216.3359375 284.55078125 C217.93001938 285.05252617 217.93001938 285.05252617 219.55630493 285.56440735 C232.08969555 289.57407055 232.08969555 289.57407055 234.859375 292.34375 C234.98019361 294.62775603 235.02967865 296.91554874 235.05224609 299.20263672 C235.06042358 299.91972809 235.06860107 300.63681946 235.07702637 301.37564087 C235.10192119 303.75823112 235.11840588 306.14076168 235.1328125 308.5234375 C235.13813618 309.33518559 235.14345985 310.14693367 235.14894485 310.98328018 C235.17569313 315.27904569 235.19506334 319.57478194 235.20947266 323.87060547 C235.22613275 328.31539769 235.27091622 332.75945016 235.3218441 337.20396233 C235.35544473 340.61484665 235.36704208 344.0255538 235.37269974 347.43658829 C235.37943133 349.07532536 235.39470279 350.71405001 235.41859055 352.3526268 C235.45009647 354.64439509 235.45030233 356.93414761 235.44287109 359.22607422 C235.45095795 360.53099823 235.4590448 361.83592224 235.46737671 363.1803894 C234.859375 366.34375 234.859375 366.34375 232.67102051 368.15994263 C229.89339174 369.32942769 227.14297321 370.43077738 224.28955078 371.40234375 C223.18390778 371.78201294 222.07826477 372.16168213 220.93911743 372.55285645 C219.73975555 372.95822632 218.54039368 373.36359619 217.3046875 373.78125 C216.02866014 374.21720925 214.75281598 374.65370504 213.47714233 375.09069824 C210.74604212 376.02509596 208.01377343 376.95596016 205.28051758 377.8840332 C200.9291834 379.36160453 196.58056665 380.84705762 192.23242188 382.33398438 C187.76752578 383.86051624 183.30251544 385.38670466 178.83660889 386.91027832 C166.43143596 391.14277865 154.04024021 395.41482351 141.65423584 399.703125 C126.15537275 405.06856881 110.65137576 410.41902777 95.140625 415.75 C94.47336836 415.97937696 93.80611172 416.20875393 93.11863518 416.44508171 C86.35178546 418.77122032 79.58447892 421.09600277 72.81504345 423.41460705 C69.47667011 424.55812337 66.1386266 425.70259974 62.80078125 426.84765625 C61.81314631 427.18645152 61.81314631 427.18645152 60.80555916 427.53209114 C51.45201767 430.74286597 42.11728052 434.00401481 32.79365158 437.30057907 C28.34216769 438.87264202 23.88713706 440.43464898 19.43286133 441.9987793 C17.02983556 442.84636503 14.62874556 443.69946129 12.22973633 444.55834961 C8.93251367 445.73867562 5.62928863 446.90045932 2.32421875 448.05859375 C1.3606395 448.40945541 0.39706024 448.76031708 -0.59571838 449.12181091 C-9.30734027 452.13716723 -15.4849682 450.43872711 -23.9375 447.4921875 C-24.78664978 447.20167511 -25.63579956 446.91116272 -26.51068115 446.61184692 C-29.30613465 445.65358342 -32.09836509 444.68627575 -34.890625 443.71875 C-36.86638079 443.03926074 -38.842295 442.36023194 -40.81835938 441.68164062 C-55.89274798 436.49731261 -70.94161018 431.23908645 -85.98730469 425.97216797 C-98.68323096 421.53094653 -111.404884 417.16935105 -124.140625 412.84375 C-139.55221958 407.6093149 -154.93318174 402.29381717 -170.29470825 396.91430664 C-186.14263407 391.36644704 -202.02488179 385.92335084 -217.92578125 380.52929688 C-222.13953082 379.09957082 -226.35140526 377.66445807 -230.56170654 376.22460938 C-232.35462001 375.61221908 -234.14816528 375.00167668 -235.94219971 374.39257812 C-238.73042714 373.44463206 -241.51585121 372.4888338 -244.30078125 371.53125 C-245.15868759 371.24113037 -246.01659393 370.95101074 -246.90049744 370.65209961 C-248.08489159 370.24229858 -248.08489159 370.24229858 -249.29321289 369.82421875 C-250.33802574 369.46686646 -250.33802574 369.46686646 -251.40394592 369.10229492 C-253.140625 368.34375 -253.140625 368.34375 -255.140625 366.34375 C-255.40805054 363.31410217 -255.40805054 363.31410217 -255.43115234 359.37133789 C-255.43786957 358.65410049 -255.44458679 357.9368631 -255.45150757 357.19789124 C-255.47054675 354.82065962 -255.47441463 352.44370941 -255.4765625 350.06640625 C-255.48298611 348.41735211 -255.48971414 346.76829914 -255.49673462 345.11924744 C-255.50872204 341.65995643 -255.51241392 338.2007654 -255.51123047 334.74145508 C-255.51102714 330.3046148 -255.53833613 325.8684141 -255.57277489 321.4317255 C-255.59499154 318.02511134 -255.59906964 314.6186524 -255.59801102 311.21197319 C-255.60037463 309.57606233 -255.60924074 307.94014768 -255.62467575 306.30430794 C-255.64423202 304.01759937 -255.63854013 301.73228679 -255.62646484 299.44555664 C-255.62931488 298.14364883 -255.63216492 296.84174103 -255.63510132 295.50038147 C-255.140625 292.34375 -255.140625 292.34375 -253.44271851 290.51870728 C-250.93261197 289.23758297 -248.50951319 288.29389793 -245.82128906 287.44262695 C-244.76049133 287.10250076 -243.6996936 286.76237457 -242.60675049 286.41194153 C-240.89875275 285.87738594 -240.89875275 285.87738594 -239.15625 285.33203125 C-237.98551941 284.95894333 -236.81478882 284.58585541 -235.60858154 284.20146179 C-231.8715441 283.01239451 -228.13117826 281.834205 -224.390625 280.65625 C-221.85496107 279.85250153 -219.32008645 279.04629699 -216.78515625 278.24023438 C-210.57288684 276.26654299 -204.35785048 274.30176983 -198.140625 272.34375 C-198.13919998 271.65328079 -198.13777496 270.96281158 -198.13630676 270.25141907 C-198.11662009 263.06475095 -198.06236759 255.87893335 -197.98803711 248.69262695 C-197.96206484 246.01058387 -197.94834279 243.32889307 -197.94506836 240.64672852 C-197.9357918 236.79124939 -197.89482444 232.93720998 -197.84765625 229.08203125 C-197.8515889 227.88290604 -197.85552155 226.68378082 -197.85957336 225.44831848 C-197.71677975 217.30088304 -197.71677975 217.30088304 -195.31005859 213.30273438 C-190.68540701 210.44429929 -185.89457944 208.87894454 -180.72265625 207.26171875 C-179.57685089 206.89009109 -178.43104553 206.51846344 -177.2505188 206.13557434 C-174.13578731 205.12861529 -171.01711237 204.1352875 -167.89609909 203.14801025 C-164.63950024 202.11426475 -161.38855351 201.06304109 -158.13696289 200.01367188 C-152.1187845 198.07433308 -146.09586768 196.15021162 -140.07067585 194.23278618 C-133.20749031 192.04819066 -126.34975486 189.84669271 -119.4921875 187.64453125 C-110.09947031 184.62998331 -100.70398963 181.6242821 -91.30227661 178.63789368 C-85.89961009 176.91828098 -80.51471177 175.15070512 -75.140625 173.34375 C-75.55054688 172.37695312 -75.96046875 171.41015625 -76.3828125 170.4140625 C-76.92755966 169.09915557 -77.47180321 167.78403992 -78.015625 166.46875 C-78.28503906 165.83710938 -78.55445313 165.20546875 -78.83203125 164.5546875 C-92.50609419 131.20331448 -77.17072148 86.67354867 -64.140625 55.34375 C-55.23225321 34.64225997 -43.6419113 9.2295535 -21.89453125 -0.6796875 C-14.31405832 -3.54371367 -7.20946202 -4.03729873 0 0 Z " fill="#040302" transform="translate(266.140625,31.65625)"/>
<path d="M0 0 C13.49913487 3.37478372 13.49913487 3.37478372 19.47631836 5.35327148 C20.13131695 5.56873501 20.78631554 5.78419853 21.46116257 6.00619125 C23.58874365 6.7071323 25.71427749 7.41406905 27.83984375 8.12109375 C29.35979773 8.62306427 30.87988663 9.12462644 32.40010071 9.62580872 C35.59985268 10.6815193 38.79874848 11.7397674 41.99694824 12.8001709 C46.96427763 14.44706282 51.93356967 16.0879702 56.90332031 17.72753906 C58.55459779 18.2723638 60.20587343 18.8171941 61.85714722 19.36203003 C62.66832882 19.62967037 63.47951042 19.89731071 64.31527328 20.17306137 C66.75102297 20.97693879 69.18659004 21.78136711 71.62210083 22.58596802 C83.48786872 26.5055075 95.36181601 30.39891663 107.25 34.25 C107.95115936 34.47767059 108.65231873 34.70534119 109.37472534 34.93991089 C115.56885644 36.95083288 121.76898279 38.93088757 127.99755859 40.83251953 C134.63706234 42.87186319 141.23916631 45.01585738 147.83509445 47.19157791 C149.91097136 47.87631266 151.9873666 48.55945667 154.06387329 49.24227905 C158.50137297 50.70179822 162.93820287 52.16334686 167.375 53.625 C170.28118496 54.58222886 173.18744203 55.53923844 176.09375 56.49609375 C176.81104908 56.73229809 177.52834816 56.96850243 178.26738358 57.21186447 C181.87332783 58.39882627 185.47998893 59.58353682 189.08807373 60.76397705 C190.52323705 61.23359271 191.95839738 61.70321753 193.39355469 62.17285156 C194.10080059 62.40420429 194.80804649 62.63555702 195.53672409 62.87392044 C199.91848081 64.30984794 204.29297507 65.76598598 208.66322136 67.23655891 C211.52189891 68.19639761 214.38399874 69.14573606 217.24678421 70.09324265 C218.59320304 70.54167671 219.93806283 70.99482316 221.28120041 71.45299149 C223.13336643 72.08427273 224.99163114 72.69757415 226.85009766 73.31005859 C227.89702789 73.66184174 228.94395813 74.01362488 230.02261353 74.37606812 C235.1925034 75.45945422 239.61074565 73.92092836 244.52368164 72.29760742 C245.58240982 71.95022018 246.641138 71.60283295 247.73194885 71.24491882 C248.86325729 70.8689003 249.99456573 70.49288177 251.16015625 70.10546875 C252.34161728 69.71684158 253.52307831 69.32821442 254.74034119 68.92781067 C257.8779713 67.89507848 261.0143735 66.85872817 264.15014648 65.82037354 C268.53527229 64.36916169 272.92245428 62.92418136 277.30967712 61.47932434 C279.63881571 60.71187465 281.96743486 59.94284591 284.29542542 59.17192078 C289.64567758 57.40543696 295.00350832 55.67978028 300.39233398 54.03442383 C306.90035633 52.04581486 313.36723051 49.9418055 319.8296814 47.81022644 C321.87539905 47.13550453 323.92164627 46.46240951 325.96801758 45.78967285 C330.31246392 44.36115414 334.65628189 42.93073131 339 41.5 C344.04397542 39.83861835 349.08822421 38.17807628 354.13314819 36.51957703 C356.12336068 35.86485013 358.11308368 35.20865196 360.1027832 34.55236816 C366.95073979 32.30053051 373.81540908 30.12510765 380.7097168 28.01989746 C386.1041008 26.34778652 391.46642695 24.57924582 396.8296814 22.81022644 C398.87539905 22.13550453 400.92164627 21.46240951 402.96801758 20.78967285 C407.31246392 19.36115414 411.65628189 17.93073131 416 16.5 C421.04397542 14.83861835 426.08822421 13.17807628 431.13314819 11.51957703 C433.12336068 10.86485013 435.11308368 10.20865196 437.1027832 9.55236816 C443.01244184 7.60907433 448.92804081 5.68611523 454.86328125 3.82226562 C455.83177002 3.51792603 456.80025879 3.21358643 457.7980957 2.90002441 C461.82271989 1.76874138 465.91895416 0.90689908 470 0 C470 19.14 470 38.28 470 58 C461.151875 60.990625 452.30375 63.98125 443.1875 67.0625 C424.08676029 73.52859507 405.00697032 80.0453545 385.97763062 86.71902466 C372.67539953 91.38359431 359.34763841 95.96703086 346 100.5 C332.36813474 105.1298349 318.75566468 109.80988399 305.16763306 114.56689453 C302.51957371 115.49315335 299.87067682 116.4169713 297.22143555 117.33984375 C296.34800003 117.64414307 295.47456451 117.94844238 294.57466125 118.26196289 C292.80148006 118.8797028 291.02827648 119.49737844 289.25505066 120.11499023 C283.46004257 122.13560964 277.67206103 124.1754086 271.8866272 126.2232666 C267.84244059 127.65077245 263.7933839 129.06408001 259.74316406 130.47436523 C257.80857664 131.15140637 255.87605991 131.83439732 253.94580078 132.52368164 C251.26724085 133.47937117 248.58210537 134.41376682 245.89453125 135.34375 C244.71773552 135.77216187 244.71773552 135.77216187 243.51716614 136.20922852 C234.98565904 139.10845548 228.37150586 137.0489224 220.10546875 134.1484375 C219.25773392 133.85792511 218.40999908 133.56741272 217.53657532 133.26809692 C214.75089754 132.31124475 211.96924091 131.34323157 209.1875 130.375 C207.21635833 129.69534694 205.24500027 129.01632118 203.2734375 128.33789062 C197.17815397 126.23711323 191.08836277 124.12073998 185 122 C184.06867249 121.67567993 183.13734497 121.35135986 182.17779541 121.01721191 C174.16750402 118.22681547 166.15909514 115.43104895 158.15307617 112.62841797 C144.53902853 107.86583468 130.89353127 103.19983287 117.23672485 98.56149292 C102.8180617 93.6626863 88.43166941 88.67724947 74.06015015 83.64196777 C57.15116898 77.72018167 40.19724421 71.93424055 23.22729492 66.18969727 C22.26850433 65.86467728 21.30971375 65.53965729 20.3218689 65.20478821 C18.53981512 64.60082343 16.75739409 63.99794059 14.97451782 63.39640808 C14.1712204 63.1241188 13.36792297 62.85182953 12.5402832 62.57128906 C11.85279495 62.33895569 11.1653067 62.10662231 10.45698547 61.86724854 C6.95249786 60.63026045 3.4797667 59.30491251 0 58 C0 38.86 0 19.72 0 0 Z " fill="#B9E2F3" transform="translate(21,334)"/>
<path d="M0 0 C18.36567588 4.59141897 18.36567588 4.59141897 24.76171875 6.875 C25.48510941 7.12620605 26.20850006 7.37741211 26.95381165 7.63623047 C29.20071566 8.41764089 31.44424694 9.20817737 33.6875 10 C35.94201722 10.79011745 38.19724591 11.57811813 40.45332336 12.36376953 C41.83699215 12.84617911 43.21975191 13.33121061 44.60124207 13.81982422 C49.85737737 15.66109894 55.17010099 17.28890148 60.49617004 18.9152832 C66.56412145 20.79380154 72.59276522 22.79167645 78.625 24.78125 C80.00918546 25.23672237 81.39341301 25.69206685 82.77767944 26.14729309 C85.68847587 27.10471161 88.59905458 28.06278774 91.50946045 29.02139282 C98.29168829 31.25502447 105.07556379 33.4836435 111.85935593 35.71251869 C113.35300038 36.20327096 114.84663493 36.69405333 116.34025955 37.18486595 C133.70089233 42.89008758 133.70089233 42.89008758 151.07226562 48.5625 C152.59376081 49.05805059 154.11492647 49.55461417 155.63574219 50.05224609 C157.68075609 50.72118018 159.72689216 51.38654991 161.7734375 52.05078125 C162.87091309 52.40825439 163.96838867 52.76572754 165.09912109 53.1340332 C172.73591051 55.41375817 179.09977682 55.59206033 186.73876953 53.04394531 C187.37239914 52.83579193 188.00602875 52.62763855 188.65885925 52.41317749 C190.73688023 51.72789094 192.80969644 51.02809486 194.8828125 50.328125 C196.34350681 49.84351341 197.80452173 49.35986721 199.26583862 48.87713623 C203.10747938 47.60543374 206.94493938 46.32156056 210.78155518 45.03479004 C215.40618396 43.48606034 220.03538822 41.95107804 224.66410637 40.41462326 C228.27450259 39.21598421 231.88415535 38.01527236 235.4914856 36.80743408 C242.54763292 34.44843626 249.62245918 32.17492355 256.74020386 30.00726318 C262.12563433 28.34318801 267.47682143 26.5758173 272.8296814 24.81022644 C274.87539905 24.13550453 276.92164627 23.46240951 278.96801758 22.78967285 C283.31246392 21.36115414 287.65628189 19.93073131 292 18.5 C297.04397542 16.83861835 302.08822421 15.17807628 307.13314819 13.51957703 C309.12336068 12.86485013 311.11308368 12.20865196 313.1027832 11.55236816 C320.14999514 9.23500867 327.21249069 6.98563822 334.31040955 4.82830811 C338.39224074 3.57123424 342.41437757 2.15503641 346.44140625 0.734375 C349 0 349 0 353 0 C353 15.84 353 31.68 353 48 C338.27115391 52.83979633 338.27115391 52.83979633 331.76367188 54.9765625 C327.40308592 56.40838891 323.04254614 57.84035425 318.68237305 59.2734375 C302.82657355 64.48461992 286.96335253 69.67062285 271.07588577 74.78452492 C259.04916795 78.65577033 247.03794307 82.57291182 235.03210449 86.50836182 C231.70091749 87.59903349 228.36867539 88.68642697 225.03613281 89.77294922 C211.91244533 94.0462909 211.91244533 94.0462909 198.82084656 98.41654968 C196.81142203 99.0962386 194.8000748 99.76984009 192.7878418 100.44116211 C190.52567257 101.19813254 188.26753079 101.96731834 186.01489258 102.75219727 C174.73017817 106.49625705 166.92807966 103.16002659 156.0625 99.25 C148.49280543 96.54451259 140.95153423 93.93159588 133.22265625 91.71484375 C121.1675773 88.24981895 109.28612939 84.23775511 97.375 80.3125 C92.46784079 78.69932395 87.56011254 77.08788293 82.65234375 75.4765625 C80.86477409 74.88928627 80.86477409 74.88928627 79.04109192 74.29014587 C72.36793709 72.09933174 65.69097282 69.92142326 59.00390625 67.7734375 C57.92967407 67.42834389 57.92967407 67.42834389 56.83374023 67.07627869 C53.71050845 66.07413119 50.58615246 65.07572106 47.46044922 64.08129883 C41.85094094 62.28671189 36.28970289 60.40306928 30.75 58.40234375 C25.56270123 56.53195633 20.3756345 54.84426017 15.0625 53.375 C13.67715228 52.99140512 12.29301159 52.60342246 10.91015625 52.2109375 C10.32371338 52.04899902 9.73727051 51.88706055 9.13305664 51.72021484 C6.0185713 50.668626 3.02143789 49.29490195 0 48 C0 32.16 0 16.32 0 0 Z " fill="#FDFDFD" transform="translate(80,256)"/>
<path d="M0 0 C1.7890625 1.8203125 1.7890625 1.8203125 3.625 4.125 C14.19766772 16.4079522 30.8861232 24.71769854 47 26 C62.7248416 26.79057399 75.85816779 25.43649941 90 18 C90.88816406 17.53464844 91.77632812 17.06929687 92.69140625 16.58984375 C100.52840852 12.18689568 107.79851793 6.39246005 113 -1 C116.99013099 -0.29125704 120.74092031 0.81321286 124.59326172 2.06616211 C125.23670029 2.27457733 125.88013885 2.48299255 126.54307556 2.69772339 C128.6728149 3.38828584 130.80123805 4.08281681 132.9296875 4.77734375 C134.44003191 5.26787779 135.95046044 5.75815285 137.46096802 6.2481842 C141.457875 7.54556394 145.45369656 8.84625513 149.44927979 10.14770508 C153.39268629 11.4316464 157.33697333 12.71287544 161.28125 13.99414062 C165.93911538 15.50731802 170.59693343 17.02063873 175.2543335 18.5352478 C190.1613355 23.38234642 205.07909099 28.19590034 220 33 C220 33.66 220 34.32 220 35 C218.23076172 35.56207153 218.23076172 35.56207153 216.42578125 36.13549805 C190.03338098 44.526213 163.68380951 53.03889026 137.375 61.6875 C136.00119336 62.13901724 134.62738355 62.59052482 133.25357056 63.04202271 C127.89164424 64.80427205 122.52981867 66.5668277 117.16810608 68.32972717 C106.51946709 71.83071951 95.86935796 75.32712471 85.2119751 78.80142212 C83.56121967 79.33996007 81.91077481 79.87945119 80.26068115 80.42001343 C75.51546039 81.97423343 70.76198281 83.49791537 66 85 C64.39946777 85.5273877 64.39946777 85.5273877 62.76660156 86.06542969 C57.22109531 87.78051543 53.88092907 88.45327472 48.375 86 C43.58211786 83.96912351 38.88971436 82.31255011 33.8671875 80.91015625 C21.38748472 77.33464083 9.09192262 73.17002657 -3.23371887 69.10248947 C-8.70390219 67.29836887 -14.17624848 65.50080787 -19.64812469 63.70182991 C-21.67843498 63.03423073 -23.70863878 62.36630845 -25.73883057 61.698349 C-35.50481543 58.48610021 -45.27993662 55.30310197 -55.06323242 52.14401245 C-60.66324697 50.33473009 -66.26029733 48.51629544 -71.85693359 46.69659424 C-73.34282064 46.21361324 -74.82883188 45.73101425 -76.31494141 45.24871826 C-81.04935863 43.71177219 -85.78103444 42.16683879 -90.50915527 40.61062622 C-91.98753966 40.12530106 -93.46677426 39.64255716 -94.94689941 39.16256714 C-96.96178302 38.5086376 -98.97337297 37.84544129 -100.984375 37.1796875 C-102.12616211 36.80569824 -103.26794922 36.43170898 -104.44433594 36.04638672 C-107 35 -107 35 -108 33 C-102.40464912 30.89193193 -96.79827646 28.90131388 -91.07226562 27.17578125 C-84.22234227 25.08417935 -77.41572964 22.86942503 -70.61473083 20.62503052 C-68.46820164 19.91669459 -66.32113898 19.20999593 -64.1739502 18.50366211 C-59.61550993 17.00382705 -55.05770482 15.50206822 -50.5 14 C-45.20821034 12.25600179 -39.91614547 10.51284799 -34.62339783 8.77175903 C-32.53346588 8.08380294 -30.44402846 7.39436061 -28.35461426 6.70483398 C-24.57347473 5.458351 -20.78660828 4.22976946 -17 3 C-15.77547119 2.59120605 -14.55094238 2.18241211 -13.28930664 1.76123047 C-12.13229248 1.38498535 -10.97527832 1.00874023 -9.78320312 0.62109375 C-8.76262817 0.28392334 -7.74205322 -0.05324707 -6.69055176 -0.40063477 C-3.9372922 -1.01396921 -2.58533976 -1.05620478 0 0 Z " fill="#EF4E55" transform="translate(200,215)"/>
<path d="M0 0 C0 10.23 0 20.46 0 31 C-3.76535156 32.29550781 -7.53070313 33.59101563 -11.41015625 34.92578125 C-16.62766799 36.72116875 -21.8451047 38.51677418 -27.0625 40.3125 C-27.74891571 40.54875092 -28.43533142 40.78500183 -29.14254761 41.02841187 C-50.04640489 48.22332017 -70.94593844 55.43060253 -91.83972168 62.65472412 C-104.48472326 67.02667838 -117.13190814 71.39214284 -129.78496552 75.74072456 C-131.79708424 76.43232303 -133.80910799 77.12419714 -135.82110596 77.81614685 C-141.77565434 79.86377714 -147.73060439 81.91018156 -153.68803406 83.94941616 C-165.12219695 87.86436649 -176.54795663 91.78605449 -187.87890625 95.9921875 C-189.45138611 96.57047521 -191.02389449 97.14868537 -192.59643555 97.72680664 C-195.30838648 98.72519639 -198.0062423 99.75230413 -200.69848633 100.80249023 C-217.52668483 107.02712666 -230.14382489 103.30135489 -246.25 97.4375 C-248.19085045 96.75090835 -250.13252002 96.06662836 -252.07495117 95.38452148 C-256.08544179 93.9724585 -260.09114572 92.54792892 -264.09326172 91.11230469 C-272.2701795 88.18160917 -280.4754625 85.33299521 -288.67956543 82.47952271 C-291.33319785 81.55529116 -293.98560791 80.62762953 -296.63769531 79.69897461 C-309.89994498 75.05770742 -323.19386306 70.51371892 -336.5 66 C-353.43233865 60.25470801 -370.34169875 54.44846246 -387.2121582 48.52368164 C-388.95913118 47.91027356 -390.70612007 47.29691082 -392.453125 46.68359375 C-393.31350876 46.38145462 -394.17389252 46.07931549 -395.06034851 45.76802063 C-400.51945998 43.85553507 -405.98904711 41.97652609 -411.46739197 40.11987305 C-415.16104313 38.86704381 -418.8510431 37.60365593 -422.540802 36.3394165 C-424.28046648 35.74659023 -426.02186638 35.15882797 -427.7651062 34.57659912 C-439.38546161 30.69325846 -449.06855135 27.29084785 -455.87890625 16.45703125 C-457.73672213 12.38537205 -457.90362684 8.41368001 -458 4 C-450.26164399 5.54084142 -442.90379565 7.87969537 -435.421875 10.3671875 C-434.09982745 10.80318959 -432.77764505 11.23878298 -431.45533752 11.67399597 C-428.66176596 12.59428436 -425.86906507 13.51714871 -423.07705688 14.44216919 C-418.72755416 15.88312068 -414.37608531 17.31806304 -410.02416992 18.75170898 C-408.57224704 19.23007719 -407.12032748 19.70845547 -405.66841125 20.18684387 C-404.95320124 20.42249369 -404.23799122 20.6581435 -403.50110817 20.90093422 C-401.34472478 21.61167248 -399.18852907 22.32297719 -397.03239441 23.0344696 C-385.80196544 26.73997053 -374.56231964 30.41629051 -363.3125 34.0625 C-362.5956604 34.29539734 -361.8788208 34.52829468 -361.14025879 34.76824951 C-359.13162457 35.42082963 -357.12254494 36.07201716 -355.11328125 36.72265625 C-354.03860596 37.07078369 -352.96393066 37.41891113 -351.85668945 37.77758789 C-348.57452195 38.82851586 -345.27875933 39.83279668 -341.98266602 40.83911133 C-335.34967438 42.87601567 -328.75424138 45.01803191 -322.16490555 47.19157791 C-320.08902864 47.87631266 -318.0126334 48.55945667 -315.93612671 49.24227905 C-311.49862703 50.70179822 -307.06179713 52.16334686 -302.625 53.625 C-299.71881504 54.58222886 -296.81255797 55.53923844 -293.90625 56.49609375 C-293.18895092 56.73229809 -292.47165184 56.96850243 -291.73261642 57.21186447 C-288.12667217 58.39882627 -284.52001107 59.58353682 -280.91192627 60.76397705 C-279.47676295 61.23359271 -278.04160262 61.70321753 -276.60644531 62.17285156 C-275.89919941 62.40420429 -275.19195351 62.63555702 -274.46327591 62.87392044 C-270.08151919 64.30984794 -265.70702493 65.76598598 -261.33677864 67.23655891 C-258.47810109 68.19639761 -255.61600126 69.14573606 -252.75321579 70.09324265 C-251.40679696 70.54167671 -250.06193717 70.99482316 -248.71879959 71.45299149 C-246.86663357 72.08427273 -245.00836886 72.69757415 -243.14990234 73.31005859 C-242.10297211 73.66184174 -241.05604187 74.01362488 -239.97738647 74.37606812 C-234.8074966 75.45945422 -230.38925435 73.92092836 -225.47631836 72.29760742 C-224.41759018 71.95022018 -223.358862 71.60283295 -222.26805115 71.24491882 C-221.13674271 70.8689003 -220.00543427 70.49288177 -218.83984375 70.10546875 C-217.65838272 69.71684158 -216.47692169 69.32821442 -215.25965881 68.92781067 C-212.1220287 67.89507848 -208.9856265 66.85872817 -205.84985352 65.82037354 C-201.46472771 64.36916169 -197.07754572 62.92418136 -192.69032288 61.47932434 C-190.36118429 60.71187465 -188.03256514 59.94284591 -185.70457458 59.17192078 C-180.35432242 57.40543696 -174.99649168 55.67978028 -169.60766602 54.03442383 C-163.09964367 52.04581486 -156.63276949 49.9418055 -150.1703186 47.81022644 C-148.12460095 47.13550453 -146.07835373 46.46240951 -144.03198242 45.78967285 C-139.68753608 44.36115414 -135.34371811 42.93073131 -131 41.5 C-125.95602458 39.83861835 -120.91177579 38.17807628 -115.86685181 36.51957703 C-113.87663932 35.86485013 -111.88691632 35.20865196 -109.8972168 34.55236816 C-103.04926021 32.30053051 -96.18459092 30.12510765 -89.2902832 28.01989746 C-83.8958992 26.34778652 -78.53357305 24.57924582 -73.1703186 22.81022644 C-71.12460095 22.13550453 -69.07835373 21.46240951 -67.03198242 20.78967285 C-62.68753608 19.36115414 -58.34371811 17.93073131 -54 16.5 C-48.95602458 14.83861835 -43.91177579 13.17807628 -38.86685181 11.51957703 C-36.87663932 10.86485013 -34.88691632 10.20865196 -32.8972168 9.55236816 C-25.92301144 7.25901568 -18.93449955 5.03116294 -11.90893555 2.90002441 C-9.86536345 2.26774338 -7.83485226 1.59242609 -5.81567383 0.8861084 C-3 0 -3 0 0 0 Z " fill="#FDFDFD" transform="translate(491,334)"/>
<path d="M0 0 C1.45670965 0.48276645 2.91369134 0.96471267 4.3709259 1.44589233 C7.44814448 2.4637679 10.52350501 3.486999 13.59744263 4.51473999 C18.37514599 6.11207732 23.15676416 7.6974417 27.93920898 9.28051758 C33.43670742 11.10096323 38.93344474 12.92366072 44.42898083 14.75002193 C55.32875002 18.37183167 66.24384585 21.94483286 77.171875 25.48046875 C78.56870623 25.93393494 79.96551706 26.38746397 81.36230469 26.84106445 C86.98467127 28.66229297 92.61491984 30.44819298 98.26806641 32.171875 C104.70891301 34.14965205 111.09212136 36.27444583 117.47265625 38.4375 C119.76336342 39.20469764 122.05438855 39.97094646 124.34570312 40.73632812 C127.90116501 41.9241112 131.45463592 43.1166243 135.00317383 44.32495117 C138.46723289 45.50280265 141.93776839 46.65947132 145.41015625 47.8125 C146.46552078 48.17696732 147.52088531 48.54143463 148.60823059 48.91694641 C157.79647226 51.93073268 163.82851562 50.9638586 172.9921875 47.92578125 C173.78521271 47.66926788 174.57823792 47.41275452 175.39529419 47.14846802 C178.30270502 46.20478318 181.20597907 45.24893385 184.109375 44.29296875 C185.97639263 43.6819346 187.84341592 43.07091762 189.71056747 42.46029282 C199.90043065 39.12706263 210.08298949 35.77167347 220.26556396 32.41625977 C224.74987008 30.93864749 229.23451503 29.46207203 233.71960831 27.98685074 C235.78295749 27.30773636 237.84581991 26.62715885 239.90866089 25.94650269 C247.02417132 23.60319669 254.15714605 21.33108834 261.32241821 19.14434814 C267.02159361 17.40332348 272.68842177 15.56086606 278.359375 13.73046875 C279.01102631 13.52042206 279.66267761 13.31037537 280.33407593 13.09396362 C292.60790592 9.1354337 304.84608529 5.07257098 317.06933594 0.96069336 C319.61744525 0.1038431 322.1680966 -0.74336055 324.72119141 -1.58544922 C326.81819247 -2.27961429 328.91024969 -2.98917451 330.99365234 -3.72314453 C331.84008301 -4.00786621 332.68651367 -4.29258789 333.55859375 -4.5859375 C334.25686279 -4.83029541 334.95513184 -5.07465332 335.67456055 -5.32641602 C342.32828348 -6.36653975 348.75091524 -4.07283413 354.984375 -1.984375 C356.19927612 -1.58696861 356.19927612 -1.58696861 357.4387207 -1.18153381 C359.99790521 -0.34267867 362.55362819 0.50620484 365.109375 1.35546875 C366.85524886 1.92970542 368.60134076 2.50327965 370.34765625 3.07617188 C374.60412087 4.47412688 378.85751334 5.88107891 383.109375 7.29296875 C383.109375 7.95296875 383.109375 8.61296875 383.109375 9.29296875 C378.72233229 10.77213532 374.33383464 12.24688354 369.9440918 13.71801758 C368.459336 14.21623315 366.97494435 14.71553559 365.4909668 15.21606445 C357.78851983 17.81318834 350.08323282 20.33929105 342.26953125 22.58203125 C330.38010916 26.00777753 318.65874955 29.97062541 306.91014099 33.84571838 C301.68694314 35.56733293 296.46146539 37.28202873 291.23648071 38.99821091 C289.31749454 39.62860534 287.39860845 40.25930365 285.47973633 40.89004517 C276.6152184 43.80263264 267.7434366 46.69055891 258.859375 49.54296875 C245.26514355 53.90930228 231.69126175 58.33700874 218.11856079 62.76974487 C208.23388257 65.99782885 198.34870561 69.22381445 188.44921875 72.40625 C187.71909576 72.64105072 186.98897278 72.87585144 186.23672485 73.11776733 C182.90283792 74.18935854 179.56821478 75.25857592 176.23242188 76.32421875 C174.51442383 76.87529297 174.51442383 76.87529297 172.76171875 77.4375 C171.29206665 77.90700073 171.29206665 77.90700073 169.79272461 78.38598633 C167.10926991 79.22943804 167.10926991 79.22943804 164.69360352 80.47143555 C159.11968278 82.24339996 153.29691283 79.8560308 147.94116211 78.07495117 C147.25990768 77.85024139 146.57865326 77.62553162 145.87675476 77.39401245 C143.62823508 76.65092106 141.38255159 75.89960601 139.13671875 75.1484375 C137.53401421 74.61751715 135.93110956 74.08720054 134.32801819 73.55744934 C130.08799019 72.15489915 125.85018654 70.745753 121.61297607 69.3347168 C114.14423331 66.84839271 106.67209352 64.3723099 99.19921875 61.8984375 C98.3787846 61.62658504 97.55835045 61.35473259 96.71305466 61.07464218 C81.5528595 56.05478951 66.33930628 51.21359328 51.10056019 46.4381218 C45.53856429 44.69467303 39.97994159 42.94802048 34.45713806 41.08326721 C31.3290438 40.0302955 28.19373719 38.99980849 25.05859375 37.96801758 C24.4087448 37.75413832 23.75889585 37.54025906 23.08935452 37.31989861 C20.99193425 36.62971057 18.89441898 35.93981196 16.796875 35.25 C16.06405304 35.00898748 15.33123108 34.76797497 14.57620239 34.51965904 C10.68304492 33.23933805 6.78979572 31.95929637 2.89648438 30.67944336 C-0.26645616 29.63962545 -3.42921249 28.59925023 -6.59179688 27.55834961 C-25.3331116 21.39025509 -44.08422107 15.26037257 -62.890625 9.29296875 C-62.890625 8.63296875 -62.890625 7.97296875 -62.890625 7.29296875 C-20.41062438 -6.86703146 -20.41062438 -6.86703146 0 0 Z " fill="#6CAE2E" transform="translate(95.890625,318.70703125)"/>
<path d="M0 0 C2.75329021 1.79562405 4.52627461 3.05254922 6 6 C6.94420568 13.01409931 4.53848069 17.73918316 1.66015625 24.07421875 C-1.29314607 30.79652994 -3.13717788 37.9134599 -5 45 C-5.24878906 45.9384375 -5.49757812 46.876875 -5.75390625 47.84375 C-8.55338502 59.90304318 -7.8550376 72.46520768 -1.64453125 83.3828125 C3.92851241 91.24184994 12.29394518 98.27254968 21.78125 100.6875 C29.43338267 101.76526517 36.73250102 101.63994703 44 99 C49.79830639 98.2752117 49.79830639 98.2752117 52.7421875 100.05078125 C58.30735458 104.56415838 58.96741026 109.01117801 59.79785156 115.8828125 C61.15332537 130.07927247 60.44389876 142.77693672 55 156 C54.47599609 157.37671875 54.47599609 157.37671875 53.94140625 158.78125 C49.24690709 169.64910154 39.52745893 178.31901645 30 185 C29 183 29 183 29.55859375 181.00390625 C29.84863281 180.19824219 30.13867188 179.39257812 30.4375 178.5625 C36.15510479 160.25567364 28.24029902 138.08730151 20.00585938 121.59033203 C15.83817772 113.70613038 10.98161664 104.81776208 2 102 C-3.08517436 101.27823332 -6.68981347 101.18768435 -11.125 103.9375 C-13.70137268 108.14557538 -13.85022462 111.18712133 -13 116 C-12.12627726 118.66017371 -11.11985665 121.18483521 -9.97265625 123.73828125 C-7.71883085 128.97910417 -7.19071938 134.35282205 -8 140 C-9.88065695 143.62335065 -12.07120586 145.69040195 -16 147 C-19.78334172 146.91302663 -23.55660517 146.74068691 -27.3359375 146.546875 C-31.12846931 146.69344901 -31.12846931 146.69344901 -33.89453125 149.29296875 C-38.91838786 155.75221297 -38.64971753 164.15630864 -38 172 C-37.18960451 176.38925187 -36.16712732 180.6927444 -35 185 C-49.86084151 176.04133668 -59.88905034 163.35818074 -64.61230469 146.64599609 C-68.20709582 132.12807391 -65.76925604 117.44869326 -63 103 C-62.8767334 102.30567871 -62.7534668 101.61135742 -62.62646484 100.89599609 C-56.86955008 68.68964161 -43.24695621 26.14089306 -17 5 C-11.62194388 1.49185262 -6.55832046 -1.15735067 0 0 Z " fill="#FB8B06" transform="translate(259,39)"/>
<path d="M0 0 C5.94 1.485 5.94 1.485 12 3 C12.02578125 4.30195313 12.0515625 5.60390625 12.078125 6.9453125 C12.13442701 8.67190756 12.19177387 10.39846876 12.25 12.125 C12.26417969 12.9809375 12.27835938 13.836875 12.29296875 14.71875 C12.50401471 20.20594487 12.99803941 23.91314934 17 28 C23.2283665 31.02803526 29.96116629 33.0530276 36.55859375 35.1171875 C38.4563043 35.7188955 40.35400908 36.32062171 42.25170898 36.92236328 C43.2546701 37.23884827 44.25763123 37.55533325 45.29098511 37.88140869 C65.77671986 44.35029528 86.20502376 50.9871279 106.61114502 57.7019043 C110.21167251 58.88658358 113.8128775 60.06918682 117.41435432 61.25097656 C129.72147199 65.28949245 142.02806127 69.32825508 154.30693054 73.45205688 C158.31214055 74.79600272 162.32071566 76.12971019 166.3298645 77.46185303 C168.12295471 78.06103828 169.91427202 78.66556092 171.70358276 79.27593994 C174.12236096 80.10098972 176.54651383 80.90785191 178.97265625 81.7109375 C179.64869904 81.94725891 180.32474182 82.18358032 181.02127075 82.42706299 C191.1066404 85.70523616 199.57997517 83.63214816 209.39453125 80.328125 C210.59128983 79.93839005 211.7880484 79.54865509 213.02107239 79.14710999 C216.27848287 78.08601401 219.52970484 77.00702537 222.78009796 75.92465591 C226.21166852 74.78554597 229.64882823 73.66355543 233.08544922 72.53979492 C238.82996888 70.65904044 244.57118233 68.76850726 250.31005859 66.87060547 C258.76014292 64.07632117 267.21701491 61.30303063 275.67578125 58.53515625 C278.37983779 57.65017615 281.08385767 56.76508413 283.7878418 55.87988281 C284.44536344 55.66464148 285.10288507 55.44940014 285.78033161 55.22763634 C291.3808775 53.39369761 296.97885803 51.55199699 302.57667542 49.70974731 C307.19383133 48.19164847 311.81273752 46.67893804 316.43225098 45.16802979 C318.9168064 44.35462203 321.40079432 43.53962943 323.88415527 42.72259521 C327.76165166 41.44739231 331.6424147 40.18239868 335.5234375 38.91796875 C337.31232895 38.32789787 337.31232895 38.32789787 339.13735962 37.72590637 C340.24106903 37.36800522 341.34477844 37.01010406 342.48193359 36.64135742 C343.45343353 36.32357834 344.42493347 36.00579926 345.4258728 35.6783905 C348 35 348 35 352 35 C352 23.45 352 11.9 352 0 C352.33 0 352.66 0 353 0 C353 15.84 353 31.68 353 48 C338.27115391 52.83979633 338.27115391 52.83979633 331.76367188 54.9765625 C327.40308592 56.40838891 323.04254614 57.84035425 318.68237305 59.2734375 C302.82657355 64.48461992 286.96335253 69.67062285 271.07588577 74.78452492 C259.04916795 78.65577033 247.03794307 82.57291182 235.03210449 86.50836182 C231.70091749 87.59903349 228.36867539 88.68642697 225.03613281 89.77294922 C211.91244533 94.0462909 211.91244533 94.0462909 198.82084656 98.41654968 C196.81142203 99.0962386 194.8000748 99.76984009 192.7878418 100.44116211 C190.52567257 101.19813254 188.26753079 101.96731834 186.01489258 102.75219727 C174.73017817 106.49625705 166.92807966 103.16002659 156.0625 99.25 C148.49280543 96.54451259 140.95153423 93.93159588 133.22265625 91.71484375 C121.1675773 88.24981895 109.28612939 84.23775511 97.375 80.3125 C92.46784079 78.69932395 87.56011254 77.08788293 82.65234375 75.4765625 C80.86477409 74.88928627 80.86477409 74.88928627 79.04109192 74.29014587 C72.36793709 72.09933174 65.69097282 69.92142326 59.00390625 67.7734375 C57.92967407 67.42834389 57.92967407 67.42834389 56.83374023 67.07627869 C53.71050845 66.07413119 50.58615246 65.07572106 47.46044922 64.08129883 C41.85094094 62.28671189 36.28970289 60.40306928 30.75 58.40234375 C25.56270123 56.53195633 20.3756345 54.84426017 15.0625 53.375 C13.67715228 52.99140512 12.29301159 52.60342246 10.91015625 52.2109375 C10.32371338 52.04899902 9.73727051 51.88706055 9.13305664 51.72021484 C6.0185713 50.668626 3.02143789 49.29490195 0 48 C0 32.16 0 16.32 0 0 Z " fill="#B8E0F2" transform="translate(80,256)"/>
<path d="M0 0 C-0.33 0.66 -0.66 1.32 -1 2 C-0.06994141 2.23783203 -0.06994141 2.23783203 0.87890625 2.48046875 C7.11443634 4.12330856 13.22132947 6.03079578 19.32861328 8.09912109 C23.18111507 9.40130724 27.04351225 10.64067413 30.9375 11.8125 C38.33662409 14.0588264 45.65791655 16.53464009 52.98413086 19.00708008 C57.92805045 20.66922119 62.8795024 22.28145124 67.87109375 23.79492188 C74.92499595 25.95855777 81.93501693 28.24709731 88.94085693 30.56016541 C91.18819796 31.30211451 93.43607601 32.04241695 95.68408203 32.78234863 C101.26189816 34.61864446 106.83882263 36.4576421 112.41577148 38.29656982 C117.1501535 39.85755403 121.88488316 41.41747572 126.62005615 42.97605896 C128.80970726 43.69724511 130.99885926 44.41993112 133.18798828 45.1427002 C134.56017075 45.5946361 135.93240258 46.04642216 137.3046875 46.49804688 C137.95652008 46.71327248 138.60835266 46.92849808 139.27993774 47.15024567 C142.45975978 48.19378236 145.64600403 49.20236376 148.85644531 50.14672852 C150.04077148 50.49598389 151.22509766 50.84523926 152.4453125 51.20507812 C153.49477051 51.50546997 154.54422852 51.80586182 155.62548828 52.11535645 C158 53 158 53 159 55 C154.50304791 56.51564938 150.00471142 58.02709549 145.50512695 59.53491211 C143.97936305 60.04682173 142.45396201 60.55981434 140.92895508 61.07397461 C136.60167402 62.53249697 132.26909958 63.97205012 127.9239502 65.37652588 C126.18132758 65.9412391 124.44247682 66.51755918 122.70410156 67.09521484 C117.18465811 68.80110488 113.85262414 69.44066291 108.375 67 C103.58211786 64.96912351 98.88971436 63.31255011 93.8671875 61.91015625 C81.38748472 58.33464083 69.09192262 54.17002657 56.76628113 50.10248947 C51.29609781 48.29836887 45.82375152 46.50080787 40.35187531 44.70182991 C38.32156502 44.03423073 36.29136122 43.36630845 34.26116943 42.698349 C24.49518457 39.48610021 14.72006338 36.30310197 4.93676758 33.14401245 C-0.66324697 31.33473009 -6.26029733 29.51629544 -11.85693359 27.69659424 C-13.34282064 27.21361324 -14.82883188 26.73101425 -16.31494141 26.24871826 C-21.04935863 24.71177219 -25.78103444 23.16683879 -30.50915527 21.61062622 C-31.98753966 21.12530106 -33.46677426 20.64255716 -34.94689941 20.16256714 C-36.96178302 19.5086376 -38.97337297 18.84544129 -40.984375 18.1796875 C-42.69705566 17.61870361 -42.69705566 17.61870361 -44.44433594 17.04638672 C-47 16 -47 16 -48 14 C-41.35955283 11.49818824 -34.68769349 9.25458694 -27.890625 7.21875 C-24.77318705 6.26367732 -21.6917993 5.21871175 -18.609375 4.15625 C-17.66433105 3.83245361 -16.71928711 3.50865723 -15.74560547 3.17504883 C-13.85144671 2.52341826 -11.95976207 1.86454516 -10.07080078 1.19799805 C-8.76344971 0.75000854 -8.76344971 0.75000854 -7.4296875 0.29296875 C-6.64835449 0.0199292 -5.86702148 -0.25311035 -5.06201172 -0.53442383 C-3 -1 -3 -1 0 0 Z " fill="#D42E36" transform="translate(140,234)"/>
<path d="M0 0 C1.42089358 0.47116445 2.84202686 0.94160659 4.26338196 1.41137695 C7.28553837 2.41158161 10.30621757 3.41607983 13.32577515 4.42410278 C20.48070519 6.81224249 27.64314802 9.17769801 34.80485344 11.54542351 C37.2095821 12.34068734 39.61402735 13.13680374 42.01844788 13.93299866 C55.43569013 18.37319081 68.88358475 22.71208497 82.3515625 26.99609375 C86.32047253 28.25991466 90.289207 29.52428566 94.2578125 30.7890625 C95.20699051 31.09148361 96.15616852 31.39390472 97.1341095 31.70549011 C109.34183706 35.59984637 121.52191533 39.57907944 133.703125 43.55541992 C135.42968095 44.11899792 137.15624334 44.6825562 138.8828125 45.24609375 C139.71675537 45.51831253 140.55069824 45.79053131 141.40991211 46.07099915 C149.38349991 48.67189585 157.3669457 51.2418027 165.3515625 53.80859375 C178.15310707 57.92589262 190.91868756 62.14573612 203.6640625 66.43359375 C200.44083349 69.65682276 196.21776878 70.61478632 191.9765625 72.12109375 C191.09033203 72.45431641 190.20410156 72.78753906 189.29101562 73.13085938 C188.42025391 73.44087891 187.54949219 73.75089844 186.65234375 74.0703125 C185.86384033 74.35608154 185.07533691 74.64185059 184.26293945 74.9362793 C178.50776335 76.03757509 172.93024479 74.02280938 167.49584961 72.21557617 C166.81459518 71.99086639 166.13334076 71.76615662 165.43144226 71.53463745 C163.18292258 70.79154606 160.93723909 70.04023101 158.69140625 69.2890625 C157.08870171 68.75814215 155.48579706 68.22782554 153.88270569 67.69807434 C149.64267769 66.29552415 145.40487404 64.886378 141.16766357 63.4753418 C133.69892081 60.98901771 126.22678102 58.5129349 118.75390625 56.0390625 C117.9334721 55.76721004 117.11303795 55.49535759 116.26774216 55.21526718 C101.107547 50.19541451 85.89399378 45.35421828 70.65524769 40.5787468 C65.09325179 38.83529803 59.53462909 37.08864548 54.01182556 35.22389221 C50.8837313 34.1709205 47.74842469 33.14043349 44.61328125 32.10864258 C43.9634323 31.89476332 43.31358335 31.68088406 42.64404202 31.46052361 C40.54662175 30.77033557 38.44910648 30.08043696 36.3515625 29.390625 C35.61874054 29.14961248 34.88591858 28.90859997 34.13088989 28.66028404 C30.23773242 27.37996305 26.34448322 26.09992137 22.45117188 24.82006836 C19.28823134 23.78025045 16.12547501 22.73987523 12.96289062 21.69897461 C-5.7784241 15.53088009 -24.52953357 9.40099757 -43.3359375 3.43359375 C-43.3359375 2.77359375 -43.3359375 2.11359375 -43.3359375 1.43359375 C-40.01211058 0.21825194 -36.67578953 -0.95839736 -33.3359375 -2.12890625 C-32.40136719 -2.47115234 -31.46679688 -2.81339844 -30.50390625 -3.16601562 C-29.58222656 -3.48505859 -28.66054688 -3.80410156 -27.7109375 -4.1328125 C-26.87304688 -4.43131104 -26.03515625 -4.72980957 -25.171875 -5.03735352 C-16.54500077 -6.64672304 -8.05452507 -2.70617053 0 0 Z " fill="#87C833" transform="translate(76.3359375,324.56640625)"/>
<path d="M0 0 C0 3.23364994 -0.6066043 4.68309513 -1.94140625 7.5859375 C-2.35688721 8.50584473 -2.77236816 9.42575195 -3.20043945 10.37353516 C-3.87465942 11.85926025 -3.87465942 11.85926025 -4.5625 13.375 C-12.1061578 30.40596553 -17.47565355 47.57263122 -21.48291016 65.74853516 C-21.96387066 67.84268897 -22.51141223 69.90716216 -23.07421875 71.98046875 C-28.08858626 91.95084061 -26.41474953 113.57345294 -16.69335938 131.57202148 C-14.82053595 135.07048702 -14 136.94239185 -14 141 C-14.66666667 142.33333333 -15.33333333 143.66666667 -16 145 C-18.61841413 155.47365651 -16.76836286 165.78342278 -14 176 C-28.86084151 167.04133668 -38.88905034 154.35818074 -43.61230469 137.64599609 C-47.20709582 123.12807391 -44.76925604 108.44869326 -42 94 C-41.8767334 93.30567871 -41.7534668 92.61135742 -41.62646484 91.89599609 C-36.01435915 60.4997582 -23.28036768 22.54260955 0 0 Z " fill="#D24D20" transform="translate(238,48)"/>
<path d="M0 0 C4.4598671 0.37165559 6.74294845 2.01888625 10 5 C11.49004644 7.20315991 12.79958861 9.30306516 14.0625 11.625 C14.40829102 12.24818115 14.75408203 12.8713623 15.11035156 13.51342773 C23.54699032 28.98657375 31.33246599 50.16029172 26.1640625 67.86328125 C22.7370453 74.52181467 16.9546449 79.98568496 10.0625 82.9375 C2.60592909 85.28224203 -5.05859273 84.57225606 -12 81 C-18.08397618 76.73827755 -22.57359599 72.10172722 -25 65 C-25.42997934 61.80543755 -25.38615323 58.71531101 -25.25 55.5 C-25.23195312 54.67757812 -25.21390625 53.85515625 -25.1953125 53.0078125 C-25.1487283 51.00469196 -25.07700699 49.00218179 -25 47 C-23.125 45.9375 -23.125 45.9375 -21 45 C-20.34 45.33 -19.68 45.66 -19 46 C-11.88298924 46.76253687 -6.98134399 44.87090524 -1 41 C3.23463135 36.76536865 5.27889546 32.11465384 5.4375 26.125 C5.35058222 19.73654342 3.36547191 14.21414051 1.19140625 8.28515625 C-0.59755623 3.35231216 -0.59755623 3.35231216 -1 1 C-0.67 0.67 -0.34 0.34 0 0 Z " fill="#F9CF2F" transform="translate(255,149)"/>
<path d="M0 0 C5.18684553 0.2509764 5.18684553 0.2509764 8 2 C9.27236273 4.59453325 9.99860377 7.20484567 10.82421875 9.97265625 C13.32376996 16.40837782 18.68778036 21.98692899 24.625 25.5 C30.6052599 28.08737775 37.56744441 28.36344502 44 29 C41.57710026 32.27389584 39.6640103 34.55547894 35.9375 36.25 C35.26589844 36.56453125 34.59429687 36.8790625 33.90234375 37.203125 C27.08079816 40.06061021 20.16432826 39.73993331 13.26953125 37.16796875 C6.00568346 33.42977514 0.67801949 27.71809803 -2 20 C-2.47435606 16.84822703 -2.47455097 13.80539157 -2.375 10.625 C-2.37371094 9.81933594 -2.37242187 9.01367188 -2.37109375 8.18359375 C-2.28212691 2.28212691 -2.28212691 2.28212691 0 0 Z " fill="#EAAD00" transform="translate(232,194)"/>
<path d="M0 0 C-4.96426882 5.26820365 -9.46247356 9.80078493 -16 13 C-15.01 9.04 -14.02 5.08 -13 1 C-11.906875 0.855625 -10.81375 0.71125 -9.6875 0.5625 C-1.88372093 -0.62790698 -1.88372093 -0.62790698 0 0 Z " fill="#CA4B1E" transform="translate(304,211)"/>
</svg>
