<?xml version="1.0" encoding="UTF-8"?>
<svg version="1.1" xmlns="http://www.w3.org/2000/svg" width="512" height="512">
<path d="M0 0 C36.96 0 73.92 0 112 0 C112.33 15.18 112.66 30.36 113 46 C114.34696337 55.10049348 114.34696337 55.10049348 117.75 62.5625 C118.53697266 63.91021484 118.53697266 63.91021484 119.33984375 65.28515625 C119.88769531 66.18105469 120.43554688 67.07695313 121 68 C121.83724609 69.39025391 121.83724609 69.39025391 122.69140625 70.80859375 C123.7183552 72.51357647 124.7538008 74.21349421 125.80078125 75.90625 C127.69646066 79.2159704 128.12448036 81.83488534 128.12025452 85.57475281 C128.12231651 86.98189545 128.12231651 86.98189545 128.12442017 88.41746521 C128.12082489 89.44461136 128.11722961 90.47175751 128.11352539 91.5300293 C128.11367142 92.61311371 128.11381744 93.69619812 128.1139679 94.81210327 C128.11327007 98.39949533 128.10548372 101.98683574 128.09765625 105.57421875 C128.09579161 108.0585782 128.09436792 110.54293802 128.09336853 113.02729797 C128.0899378 118.90271603 128.0820527 124.77811496 128.07201904 130.65352517 C128.05974734 137.99883149 128.05437462 145.3441389 128.04882812 152.68945312 C128.03809721 165.79297848 128.02102512 178.8964874 128 192 C133.61 192 139.22 192 145 192 C148.98042035 220.87032621 152.93277825 249.7443836 156.84765038 278.62367353 C157.31310765 282.05708584 157.77879653 285.49046669 158.24462891 288.92382812 C158.33733796 289.60715833 158.43004702 290.29048854 158.52556545 290.99452573 C160.01419723 301.96266072 161.52144423 312.92815658 163.03596765 323.89274281 C164.59730729 335.19942605 166.13733346 346.50885218 167.65997839 357.82081461 C168.51269817 364.15095807 169.37414512 370.47959498 170.25892639 376.80534363 C171.09671752 382.79738675 171.9079635 388.79250657 172.70155525 394.79055786 C172.99222929 396.95519758 173.29143219 399.11871876 173.60136223 401.28068542 C176.62313192 422.43394182 176 442.240615 176 464 C22.88 464 -130.24 464 -288 464 C-288 418.01276777 -288 418.01276777 -285.15429688 398.16210938 C-284.84661691 395.87082712 -284.54128635 393.5792284 -284.23805237 391.28735352 C-283.42888314 385.2204272 -282.58803665 379.15831928 -281.74019814 373.09669304 C-280.85197399 366.70400624 -279.99465361 360.30716811 -279.13366699 353.9107666 C-277.69127734 343.22524044 -276.23072626 332.54235076 -274.75537109 321.86132812 C-273.23912195 310.88386441 -271.73445876 299.90490994 -270.24462891 288.92382812 C-270.15203204 288.24135409 -270.05943518 287.55888006 -269.96403235 286.85572499 C-269.4993431 283.43027064 -269.03487384 280.00478651 -268.57051373 276.57928753 C-264.74773497 248.38147242 -260.88244117 220.18966723 -257 192 C-227.63 192 -198.26 192 -168 192 C-167.34 190.35 -166.68 188.7 -166 187 C-150.0930368 161.40533741 -123.02687736 146.77106391 -94.46826172 139.56982422 C-79.00514139 136 -79.00514139 136 -72 136 C-71.9690625 134.7625 -71.9690625 134.7625 -71.9375 133.5 C-70.57364265 128.4082659 -67.59538274 125.76409812 -64 122 C-62.92269811 120.83628169 -61.84733492 119.670767 -60.7734375 118.50390625 C-54.69714504 111.91985498 -48.52482677 105.47353452 -42.1484375 99.1796875 C-40.23729194 97.24074346 -38.45056573 95.26017728 -36.6875 93.1875 C-33.47758442 89.42862024 -30.01188739 85.97282796 -26.5 82.5 C-22.35677047 78.39832567 -18.31198557 74.28149281 -14.55078125 69.8203125 C-13.45655353 68.53590415 -12.32478099 67.2830297 -11.16796875 66.0546875 C5.43524813 48.22807569 -0.54132831 23.27711751 0 0 Z M-1 105 C-2.6737709 106.77075575 -4.30974904 108.56251898 -5.9375 110.375 C-13.97854599 119.22343575 -22.50182511 127.59407316 -31 136 C-30.20266953 138.17790518 -30.20266953 138.17790518 -28.1015625 138.65429688 C-27.28429687 138.84056641 -26.46703125 139.02683594 -25.625 139.21875 C-24.72136719 139.42886719 -23.81773437 139.63898438 -22.88671875 139.85546875 C-21.93410156 140.06816406 -20.98148437 140.28085938 -20 140.5 C-19.07832031 140.71269531 -18.15664063 140.92539063 -17.20703125 141.14453125 C-11.4784403 142.46154158 -5.73808942 143.72486902 0 145 C0 131.8 0 118.6 0 105 C-0.33 105 -0.66 105 -1 105 Z " fill="#A8A8A8" transform="translate(312,24)"/>
<path d="M0 0 C36.96 0 73.92 0 112 0 C112.33 15.18 112.66 30.36 113 46 C114.34696337 55.10049348 114.34696337 55.10049348 117.75 62.5625 C118.27464844 63.46097656 118.79929687 64.35945313 119.33984375 65.28515625 C119.88769531 66.18105469 120.43554688 67.07695313 121 68 C121.83724609 69.39025391 121.83724609 69.39025391 122.69140625 70.80859375 C123.7183552 72.51357647 124.7538008 74.21349421 125.80078125 75.90625 C127.77750225 79.35746322 128.12750118 82.08994915 128.14044189 85.98994446 C128.14615204 87.02033844 128.15186218 88.05073242 128.15774536 89.11235046 C128.15942215 90.80724358 128.15942215 90.80724358 128.16113281 92.53637695 C128.16609772 93.72686646 128.17106262 94.91735596 128.17617798 96.1439209 C128.18828677 99.41057666 128.19574488 102.67719663 128.20018864 105.94387078 C128.20312131 107.98571247 128.2072265 110.02754857 128.21169281 112.06938744 C128.22536531 118.46060291 128.23503299 124.85180558 128.2388947 131.24303466 C128.24337404 138.61556137 128.26091705 145.98790254 128.2898953 153.36037284 C128.31152801 159.06239459 128.32159984 164.76436421 128.32293582 170.46642655 C128.32398278 173.87042926 128.32986706 177.27425751 128.34775543 180.67821693 C128.36479314 184.47743441 128.36294089 188.27619937 128.35644531 192.07543945 C128.3656601 193.1992955 128.37487488 194.32315155 128.3843689 195.48106384 C128.35010486 201.8725764 127.97226558 206.66313651 123.53515625 211.64453125 C118.58544819 215.57016178 115.35542398 216.37540593 109.0234375 216.28125 C103.37647235 215.49634365 100.27566144 211.22056377 97 207 C96.96261719 207.86882812 96.92523438 208.73765625 96.88671875 209.6328125 C96.10140893 223.39883164 96.10140893 223.39883164 90.0625 228.8125 C85.31292451 232.20505392 80.82789919 232.81005549 75 232 C70.55025073 229.68955326 68.03596146 226.91171957 65 223 C64.92523438 224.07378906 64.85046875 225.14757812 64.7734375 226.25390625 C63.56695916 240.30641218 63.56695916 240.30641218 58.6328125 244.87109375 C53.96102972 248.10110625 48.55102317 248.89926575 43 248 C38.6075116 245.71928487 35.7250028 243.10984028 33 239 C32.26807664 236.25105663 31.99274214 233.51696304 31.75 230.6875 C31.63398438 229.57665039 31.63398438 229.57665039 31.515625 228.44335938 C31.32848259 226.63041732 31.16212296 224.81535046 31 223 C30.43732422 223.72316406 30.43732422 223.72316406 29.86328125 224.4609375 C26.24194942 228.9305914 23.81276116 231.55352425 17.8984375 232.24609375 C12.40304733 232.54935107 9.29241728 231.69347534 5 228 C0.84013272 223.50284618 -0.11152869 220.2320259 -0.15821838 214.22906494 C-0.1680072 213.27276688 -0.17779602 212.31646881 -0.18788147 211.33119202 C-0.19363693 210.28893967 -0.1993924 209.24668732 -0.20532227 208.17285156 C-0.21522186 207.07011398 -0.22512146 205.9673764 -0.23532104 204.83122253 C-0.26692171 201.18437857 -0.29168794 197.53752158 -0.31640625 193.890625 C-0.336977 191.36285055 -0.35797351 188.83507953 -0.37937927 186.30731201 C-0.42894377 180.3327935 -0.47421237 174.35825736 -0.51740164 168.3836906 C-0.56681837 161.58079387 -0.62172002 154.77794486 -0.67708123 147.97509432 C-0.79082168 133.98344077 -0.89767794 119.99174138 -1 106 C-1.73664383 106.8072905 -2.47328766 107.61458099 -3.23225403 108.44633484 C-4.2183509 109.52505361 -5.20449326 110.60373079 -6.19067383 111.68237305 C-6.67385323 112.21213493 -7.15703262 112.74189682 -7.65485382 113.2877121 C-12.20348241 118.25952992 -16.91084465 123.05958941 -21.6875 127.8125 C-22.47705078 128.60591797 -23.26660156 129.39933594 -24.08007812 130.21679688 C-28.34977631 134.47945516 -32.70880326 138.55896497 -37.28295898 142.49243164 C-40.05209693 144.92374499 -42.53145485 147.60949583 -45.04296875 150.30078125 C-48.88545893 153.63707512 -52.89384896 154.4593722 -57.9453125 154.31640625 C-62.75369292 153.57595223 -66.09858458 150.97257979 -69.375 147.4375 C-72.60966007 142.58550989 -72.61238138 137.65343389 -72 132 C-69.67446361 127.15513253 -65.86787343 123.75920932 -62.0546875 120.05078125 C-60.20257343 118.20218831 -58.50187996 116.30865791 -56.8125 114.3125 C-53.55569937 110.51664272 -50.0538727 107.01377824 -46.5 103.5 C-43.05060998 100.08930738 -39.63880013 96.70378415 -36.5 93 C-33.36117236 89.29618339 -29.94917019 85.91095358 -26.5 82.5 C-22.35677986 78.39831736 -18.31198601 74.28149333 -14.55078125 69.8203125 C-13.45655353 68.53590415 -12.32478099 67.2830297 -11.16796875 66.0546875 C5.43524813 48.22807569 -0.54132831 23.27711751 0 0 Z " fill="#FBBE9D" transform="translate(312,24)"/>
<path d="M0 0 C0.09796875 0.59167969 0.1959375 1.18335938 0.296875 1.79296875 C1.24937208 6.82642313 2.15354246 10.36723454 6 14 C10.47394959 16.94873951 14.74278098 17.98572857 20 17 C24.73802435 15.18859205 27.29557382 12.7691728 30.48657227 9.0090332 C37.07695867 1.39154708 37.07695867 1.39154708 42.03125 0.3828125 C44.79981032 0.77526306 47.25436248 1.47394418 49.90640259 2.33093262 C54.06357537 3.659473 58.25233967 4.88649802 62.43359375 6.13671875 C63.81750305 6.55117249 63.81750305 6.55117249 65.22937012 6.97399902 C67.48611327 7.64977999 69.74299244 8.32510276 72 9 C72.00586624 9.91153336 72.01173248 10.82306671 72.01777649 11.76222229 C72.07577502 20.36915773 72.14789284 28.97583565 72.23571491 37.58252048 C72.28036716 42.00689928 72.3196345 46.43118709 72.34643555 50.85571289 C72.37252004 55.12879522 72.4129585 59.40152645 72.46318626 63.67439079 C72.47982027 65.30134641 72.49135609 66.9283627 72.49761391 68.55539131 C72.50729307 70.8414163 72.53539598 73.12655007 72.56762695 75.41235352 C72.57873001 76.71141129 72.58983307 78.01046906 72.60127258 79.34889221 C73.18480456 84.69223717 74.52408858 88.6320821 78.5625 92.375 C83.10026624 95.40017749 86.62811258 95.49823576 92 95 C98.0186804 92.84235986 100.55627351 89.16558973 104 84 C104.05607422 85.50240234 104.05607422 85.50240234 104.11328125 87.03515625 C104.35315284 98.82449746 104.35315284 98.82449746 110.5625 108.375 C114.72197189 111.14798126 118.06135064 111.51704271 123 111 C126.68208427 109.87936566 129.79632811 108.13578126 133 106 C131.54018213 118.06174516 123.99498811 128.28058957 116 137 C115.22785156 137.85335937 114.45570313 138.70671875 113.66015625 139.5859375 C99.24729341 154.76966659 80.6834915 163.75308138 61 170 C60.0821875 170.30679688 59.164375 170.61359375 58.21875 170.9296875 C34.59719486 178.18060791 6.92968593 178.75208892 -17 173 C-18.29035156 172.73316406 -19.58070313 172.46632813 -20.91015625 172.19140625 C-41.46966364 167.76967966 -61.39830413 158.10816092 -77 144 C-77.92683594 143.16726563 -78.85367188 142.33453125 -79.80859375 141.4765625 C-90.87662684 131.00721636 -97.64074093 119.58338476 -102 105 C-102.36480469 103.88367188 -102.72960937 102.76734375 -103.10546875 101.6171875 C-107.12304325 85.37144956 -102.73146335 66.49402208 -95 52 C-77.96990775 25.40553271 -50.2025401 9.97257454 -20 3 C-5.47123288 0 -5.47123288 0 0 0 Z " fill="#B7B6B6" transform="translate(240,160)"/>
<path d="M0 0 C0.33 0 0.66 0 1 0 C1.07294785 0.54821915 1.14589569 1.09643829 1.22105408 1.66127014 C1.98314976 7.38808448 2.74571383 13.11483631 3.50854492 18.84155273 C3.79284382 20.97630249 4.07702491 23.11106793 4.36108398 25.24584961 C4.77035751 28.3214936 5.18006031 31.39708016 5.58984375 34.47265625 C5.71592514 35.42084732 5.84200653 36.36903839 5.97190857 37.34596252 C6.48911262 41.22515561 7.01029694 45.10281608 7.57543945 48.9753418 C8.8631546 58.14929402 7.98028891 66.26556021 5 75 C4.73316406 75.82113281 4.46632813 76.64226562 4.19140625 77.48828125 C-4.17904045 100.81392607 -25.36195982 117.55981781 -47 128 C-57.60573597 132.78863638 -68.60795261 136.59812252 -80 139 C-81.27182129 139.27287842 -81.27182129 139.27287842 -82.56933594 139.55126953 C-125.92772838 148.50292368 -172.19636279 142.6170743 -209.6875 118.25 C-225.70540396 107.40334569 -238.76233907 93.6115574 -245 75 C-245.31710938 74.07445312 -245.63421875 73.14890625 -245.9609375 72.1953125 C-249.18082285 61.76761039 -248.04282161 51.64799895 -246.46875 40.98828125 C-246.31337769 39.89404343 -246.15800537 38.7998056 -245.9979248 37.67240906 C-245.50577347 34.21803614 -245.00307569 30.76529705 -244.5 27.3125 C-244.16205861 24.95387649 -243.82481242 22.59515326 -243.48828125 20.23632812 C-242.66688267 14.48970882 -241.83684745 8.7443888 -241 3 C-240.67 3 -240.34 3 -240 3 C-239.76925781 4.08796875 -239.53851563 5.1759375 -239.30078125 6.296875 C-233.86628258 31.14516239 -221.74389754 49.86287162 -200.40625 63.91015625 C-165.52568858 85.3105007 -123.7121764 91.81395694 -83.70605469 82.46386719 C-78.72214075 81.20867529 -73.85173704 79.6917953 -69 78 C-68.36400879 77.77973145 -67.72801758 77.55946289 -67.07275391 77.33251953 C-52.24820528 72.07810423 -38.63989072 64.64059962 -27 54 C-26.19949219 53.26910156 -25.39898437 52.53820312 -24.57421875 51.78515625 C-10.39588845 38.22638324 -0.89220758 19.76239795 0 0 Z " fill="#919191" transform="translate(376,249)"/>
<path d="M0 0 C153.12 0 306.24 0 464 0 C464 10.56 464 21.12 464 32 C310.88 32 157.76 32 0 32 C0 21.44 0 10.88 0 0 Z " fill="#919191" transform="translate(24,456)"/>
<path d="M0 0 C1.00853027 -0.00700928 2.01706055 -0.01401855 3.05615234 -0.02124023 C6.39188114 -0.03885406 9.72676248 -0.02718497 13.0625 -0.01367188 C15.37890791 -0.0163658 17.69531472 -0.02024739 20.01171875 -0.02526855 C24.86729698 -0.03116822 29.72258096 -0.02258526 34.578125 -0.00390625 C40.80614646 0.01888316 47.03347845 0.00576265 53.26147461 -0.01819611 C58.04497485 -0.0326412 62.82831127 -0.02805393 67.61181641 -0.01768494 C69.90836671 -0.0150141 72.20493183 -0.01829988 74.50146484 -0.02760315 C77.7097114 -0.03774714 80.91683706 -0.02229671 84.125 0 C85.55271729 -0.01214539 85.55271729 -0.01214539 87.00927734 -0.02453613 C90.77558095 0.02402553 93.33032633 0.10891753 96.65124512 1.96247864 C98.81648194 5.88267447 98.6198867 9.50564549 98.58007812 13.91674805 C98.5870874 14.868479 98.59409668 15.82020996 98.60131836 16.80078125 C98.61893579 19.95016592 98.60725734 23.09865287 98.59375 26.24804688 C98.59644494 28.44037549 98.60032739 30.63270294 98.60534668 32.82502747 C98.61124775 37.42423867 98.60266308 42.02313934 98.58398438 46.62231445 C98.56126196 52.50234738 98.57427182 58.38164728 98.59827423 64.26165295 C98.61277302 68.7922969 98.60810631 73.32276904 98.59776306 77.85341835 C98.59510356 80.02023722 98.59833806 82.18707194 98.60768127 84.3538723 C98.61790629 87.39347572 98.60225927 90.43191796 98.58007812 93.47143555 C98.58817505 94.358517 98.59627197 95.24559845 98.60461426 96.15956116 C98.49976317 103.96432017 96.06513128 111.16594582 90.7265625 117.04492188 C78.59441255 127.78158978 65.9882035 129.56521451 50.38427734 128.72021484 C39.81903531 127.79811696 30.49635003 122.3817104 23.3359375 114.65429688 C17.53737522 107.00765481 17.22213958 98.76154276 18.0625 89.51757812 C20.66245939 79.80637847 26.8124277 74.08111342 35.203125 69.06445312 C45.93807339 63.25702203 60.13622851 62.34322598 71.98828125 65.38476562 C79.34313725 67.79821538 79.34313725 67.79821538 81.0625 69.51757812 C81.3925 62.58757812 81.7225 55.65757813 82.0625 48.51757812 C55.6625 48.51757812 29.2625 48.51757812 2.0625 48.51757812 C2.22041732 66.21301713 2.22041732 66.21301713 2.42285156 83.90795898 C2.43454384 86.14110547 2.44473439 88.37426054 2.453125 90.60742188 C2.47358887 91.748927 2.49405273 92.89043213 2.51513672 94.06652832 C2.51894794 102.86188499 0.80681421 110.34918457 -5.2734375 117.04492188 C-17.40558745 127.78158978 -30.0117965 129.56521451 -45.61572266 128.72021484 C-56.18096469 127.79811696 -65.50364997 122.3817104 -72.6640625 114.65429688 C-78.46262478 107.00765481 -78.77786042 98.76154276 -77.9375 89.51757812 C-75.33754061 79.80637847 -69.1875723 74.08111342 -60.796875 69.06445312 C-50.06192661 63.25702203 -35.86377149 62.34322598 -24.01171875 65.38476562 C-16.65686275 67.79821538 -16.65686275 67.79821538 -14.9375 69.51757812 C-14.93385437 68.71213562 -14.93020874 67.90669312 -14.92645264 67.07684326 C-14.88857752 59.48428783 -14.83173112 51.89222333 -14.75359726 44.29998398 C-14.71409653 40.39674962 -14.6819211 36.49374171 -14.66650391 32.59033203 C-14.65135392 28.82289403 -14.61693927 25.0560785 -14.56919098 21.28891754 C-14.5543598 19.85207786 -14.54645798 18.41514931 -14.54561615 16.97823334 C-14.54325036 14.96487565 -14.51390935 12.95160444 -14.48339844 10.93847656 C-14.47007477 9.21972321 -14.47007477 9.21972321 -14.45648193 7.46624756 C-13.9375 4.51757812 -13.9375 4.51757812 -12.5244751 2.14862061 C-8.49995064 -0.38877156 -4.66598585 -0.03969287 0 0 Z M2.0625 16.51757812 C2.0625 21.79757813 2.0625 27.07757813 2.0625 32.51757812 C28.4625 32.51757812 54.8625 32.51757812 82.0625 32.51757812 C82.0625 27.23757812 82.0625 21.95757812 82.0625 16.51757812 C55.6625 16.51757812 29.2625 16.51757812 2.0625 16.51757812 Z " fill="#2986C5" transform="translate(93.9375,15.482421875)"/>
<path d="M0 0 C2.87369006 2.49053138 5.46828543 5.16528767 8 8 C11.1727756 6.58358232 13.45136875 4.84951943 16 2.5 C20.69490453 -1.82811511 24.15864387 -3.55014894 30.5625 -3.37109375 C36.965463 -2.39628368 41.60772483 1.09012377 45.5 6.125 C50.01011616 12.56444363 49.59096022 19.3757808 49 27 C45.10184853 42.05800223 31.31110456 51.98659012 19 60 C18.13246094 60.57878906 17.26492188 61.15757812 16.37109375 61.75390625 C15.22833984 62.46353516 15.22833984 62.46353516 14.0625 63.1875 C13.41410156 63.59355469 12.76570313 63.99960937 12.09765625 64.41796875 C8.1040852 65.52605457 4.8306287 63.45463405 1.359375 61.5546875 C-11.43205233 53.32068488 -24.34732114 44.29936295 -30.3125 29.8125 C-31.71533307 22.03315296 -32.52560722 13.74219757 -28.3359375 6.71484375 C-21.0787805 -2.6006297 -10.70340392 -6.21161626 0 0 Z " fill="#D0313E" transform="translate(247,231)"/>
<path d="M0 0 C2 3 2 3 3.0625 5.375 C6.50777799 10.04279599 12.29313474 12.9816746 18 14 C25.86792591 14.54770033 32.7608271 14.2477631 40 11 C41.3921875 10.4121875 41.3921875 10.4121875 42.8125 9.8125 C46.0263748 7.14957517 47.38820297 3.79087457 49 0 C49.33 0 49.66 0 50 0 C51.03029776 4.0165186 52.04494733 8.0365807 53.0456543 12.06054688 C53.38779459 13.42716864 53.73409204 14.79275695 54.0847168 16.15722656 C54.5897519 18.12564218 55.07941764 20.09736502 55.56640625 22.0703125 C56.01415405 23.84559326 56.01415405 23.84559326 56.47094727 25.65673828 C57.0237093 29.14982702 56.88850803 31.59064421 56 35 C50.99518119 41.61927649 42.42616724 45.25404142 34.3984375 46.71875 C20.89597584 48.30210055 6.93055961 46.2432065 -3.9375 37.6875 C-6.51941544 34.32318594 -6.68486007 32.20669443 -7 28 C-6.47094727 24.63500977 -6.47094727 24.63500977 -5.56640625 21.19140625 C-5.24736328 19.95068359 -4.92832031 18.70996094 -4.59960938 17.43164062 C-4.25419135 16.1418507 -3.90848467 14.85213804 -3.5625 13.5625 C-3.21950149 12.24575514 -2.87769331 10.9286996 -2.53710938 9.61132812 C-1.70304859 6.40430567 -0.85703823 3.20094404 0 0 Z " fill="#919191" transform="translate(391,377)"/>
<path d="M0 0 C2 3 2 3 3.0625 5.375 C6.50777799 10.04279599 12.29313474 12.9816746 18 14 C25.86792591 14.54770033 32.7608271 14.2477631 40 11 C41.3921875 10.4121875 41.3921875 10.4121875 42.8125 9.8125 C46.0263748 7.14957517 47.38820297 3.79087457 49 0 C49.33 0 49.66 0 50 0 C51.03029776 4.0165186 52.04494733 8.0365807 53.0456543 12.06054688 C53.38779459 13.42716864 53.73409204 14.79275695 54.0847168 16.15722656 C54.5897519 18.12564218 55.07941764 20.09736502 55.56640625 22.0703125 C56.01415405 23.84559326 56.01415405 23.84559326 56.47094727 25.65673828 C57.0237093 29.14982702 56.88850803 31.59064421 56 35 C50.99518119 41.61927649 42.42616724 45.25404142 34.3984375 46.71875 C20.89597584 48.30210055 6.93055961 46.2432065 -3.9375 37.6875 C-6.51941544 34.32318594 -6.68486007 32.20669443 -7 28 C-6.47094727 24.63500977 -6.47094727 24.63500977 -5.56640625 21.19140625 C-5.24736328 19.95068359 -4.92832031 18.70996094 -4.59960938 17.43164062 C-4.25419135 16.1418507 -3.90848467 14.85213804 -3.5625 13.5625 C-3.21950149 12.24575514 -2.87769331 10.9286996 -2.53710938 9.61132812 C-1.70304859 6.40430567 -0.85703823 3.20094404 0 0 Z " fill="#919191" transform="translate(71,377)"/>
<path d="M0 0 C3.91003406 0.63837291 5.48877616 1.47208959 8.0625 4.5 C8.56554803 8.88370427 8.31108814 11.66101503 7.0625 15.875 C5.04363173 23.19339746 5.93172135 29.30862204 8.0625 36.5 C8.49896745 39.42267443 8.40845621 41.48523871 8.0625 44.5 C5.52778234 47.48202078 3.87537661 48.33065071 0.0625 49.125 C-3.33350796 48.41749834 -4.80957474 47.31857375 -6.8359375 44.5078125 C-11.99539986 35.10368608 -12.42813504 23.31869979 -10.17578125 13.015625 C-6.5014189 1.10662449 -6.5014189 1.10662449 0 0 Z " fill="#CDCCCB" transform="translate(178.9375,231.5)"/>
<path d="M0 0 C4.55555556 0.55555556 4.55555556 0.55555556 6 2 C6.10556617 4.36222218 6.14678498 6.69535384 6.14526367 9.05834961 C6.15030159 10.16565681 6.15030159 10.16565681 6.15544128 11.29533386 C6.16497882 13.74768738 6.16689579 16.19997282 6.16796875 18.65234375 C6.17117939 20.35006235 6.17454331 22.04778066 6.17805481 23.74549866 C6.1840531 27.30909873 6.18589399 30.87267453 6.18530273 34.4362793 C6.18520107 39.01093044 6.1988542 43.5854265 6.21607494 48.16004086 C6.22717344 51.6678184 6.22922261 55.17555821 6.22869301 58.68335152 C6.22987634 60.37031145 6.23431778 62.05727227 6.24202538 63.74421501 C6.25178209 66.10034025 6.24896453 68.45612558 6.24291992 70.81225586 C6.24853943 71.51415039 6.25415894 72.21604492 6.25994873 72.93920898 C6.22831577 77.77168423 6.22831577 77.77168423 4 80 C-0.55555556 79.44444444 -0.55555556 79.44444444 -2 78 C-2.10556617 75.63777782 -2.14678498 73.30464616 -2.14526367 70.94165039 C-2.14862228 70.20344559 -2.1519809 69.46524078 -2.15544128 68.70466614 C-2.16497882 66.25231262 -2.16689579 63.80002718 -2.16796875 61.34765625 C-2.17117939 59.64993765 -2.17454331 57.95221934 -2.17805481 56.25450134 C-2.1840531 52.69090127 -2.18589399 49.12732547 -2.18530273 45.5637207 C-2.18520107 40.98906956 -2.1988542 36.4145735 -2.21607494 31.83995914 C-2.22717344 28.3321816 -2.22922261 24.82444179 -2.22869301 21.31664848 C-2.22987634 19.62968855 -2.23431778 17.94272773 -2.24202538 16.25578499 C-2.25178209 13.89965975 -2.24896453 11.54387442 -2.24291992 9.18774414 C-2.24853943 8.48584961 -2.25415894 7.78395508 -2.25994873 7.06079102 C-2.22831577 2.22831577 -2.22831577 2.22831577 0 0 Z " fill="#F2A781" transform="translate(370,168)"/>
<path d="M0 0 C4.55555556 0.55555556 4.55555556 0.55555556 6 2 C6.10474558 4.10594428 6.13856457 6.21543766 6.14526367 8.32397461 C6.15030159 9.31423897 6.15030159 9.31423897 6.15544128 10.32450867 C6.16497695 12.51713925 6.1668957 14.70969369 6.16796875 16.90234375 C6.17117955 18.4207004 6.17454349 19.93905673 6.17805481 21.45741272 C6.18405265 24.64438596 6.18589404 27.83133206 6.18530273 31.01831055 C6.18520108 35.108696 6.19885343 39.19890797 6.21607494 43.28925228 C6.22717571 46.42644556 6.22922254 49.56359666 6.22869301 52.70080757 C6.22987603 54.2091386 6.23431575 55.71747061 6.24202538 57.22578239 C6.25178662 59.33285659 6.24896282 61.43955098 6.24291992 63.54663086 C6.24434494 64.74718613 6.24576996 65.94774139 6.24723816 67.18467712 C6 70 6 70 4 72 C-0.55555556 71.44444444 -0.55555556 71.44444444 -2 70 C-2.10474558 67.89405572 -2.13856457 65.78456234 -2.14526367 63.67602539 C-2.14862228 63.01584915 -2.1519809 62.35567291 -2.15544128 61.67549133 C-2.16497695 59.48286075 -2.1668957 57.29030631 -2.16796875 55.09765625 C-2.17117955 53.5792996 -2.17454349 52.06094327 -2.17805481 50.54258728 C-2.18405265 47.35561404 -2.18589404 44.16866794 -2.18530273 40.98168945 C-2.18520108 36.891304 -2.19885343 32.80109203 -2.21607494 28.71074772 C-2.22717571 25.57355444 -2.22922254 22.43640334 -2.22869301 19.29919243 C-2.22987603 17.7908614 -2.23431575 16.28252939 -2.24202538 14.77421761 C-2.25178662 12.66714341 -2.24896282 10.56044902 -2.24291992 8.45336914 C-2.24434494 7.25281387 -2.24576996 6.05225861 -2.24723816 4.81532288 C-2 2 -2 2 0 0 Z " fill="#F2A781" transform="translate(338,168)"/>
<path d="M0 0 C4.55555556 0.55555556 4.55555556 0.55555556 6 2 C6.10434618 3.86090576 6.13854637 5.72578276 6.14526367 7.58959961 C6.15164352 8.78431381 6.15802338 9.97902802 6.16459656 11.20994568 C6.16570938 12.51093704 6.1668222 13.81192841 6.16796875 15.15234375 C6.17117976 16.49133846 6.17454371 17.83033282 6.17805481 19.16932678 C6.18405208 21.9796734 6.18589411 24.78998923 6.18530273 27.6003418 C6.18520109 31.2064636 6.19885245 34.81238858 6.21607494 38.41846371 C6.22717859 41.18507295 6.22922245 43.95163438 6.22869301 46.71826363 C6.2304519 48.69589314 6.24130352 50.67350774 6.25224304 52.65110779 C6.24916641 53.84897415 6.24608978 55.04684052 6.24291992 56.28100586 C6.24434494 57.33944199 6.24576996 58.39787811 6.24723816 59.48838806 C6 62 6 62 4 64 C-0.55555556 63.44444444 -0.55555556 63.44444444 -2 62 C-2.10434618 60.13909424 -2.13854637 58.27421724 -2.14526367 56.41040039 C-2.15164352 55.21568619 -2.15802338 54.02097198 -2.16459656 52.79005432 C-2.16570938 51.48906296 -2.1668222 50.18807159 -2.16796875 48.84765625 C-2.17117976 47.50866154 -2.17454371 46.16966718 -2.17805481 44.83067322 C-2.18405208 42.0203266 -2.18589411 39.21001077 -2.18530273 36.3996582 C-2.18520109 32.7935364 -2.19885245 29.18761142 -2.21607494 25.58153629 C-2.22717859 22.81492705 -2.22922245 20.04836562 -2.22869301 17.28173637 C-2.2304519 15.30410686 -2.24130352 13.32649226 -2.25224304 11.34889221 C-2.24916641 10.15102585 -2.24608978 8.95315948 -2.24291992 7.71899414 C-2.24434494 6.66055801 -2.24576996 5.60212189 -2.24723816 4.51161194 C-2 2 -2 2 0 0 Z " fill="#F2A781" transform="translate(402,168)"/>
<path d="M0 0 C0.33 0 0.66 0 1 0 C1.93506494 26.28571429 1.93506494 26.28571429 -5.375 34.75 C-8.59869029 36.28509061 -10.47340168 36.60027206 -14 36 C-16.375 34.5 -16.375 34.5 -18 32 C-18.37508886 28.99928911 -18.37000912 26.94584184 -18 24 C-17.87882812 22.98292969 -17.75765625 21.96585937 -17.6328125 20.91796875 C-17.05990313 17.67279031 -16.44088763 14.96759615 -15 12 C-12.73429732 10.63359357 -10.80888722 10.16273581 -8.2265625 9.6328125 C-4.43601872 8.55550006 -3.13882644 6.20823967 -1 3 C-0.67 2.01 -0.34 1.02 0 0 Z " fill="#CCCBCA" transform="translate(343,244)"/>
</svg>
