<?xml version="1.0" encoding="UTF-8"?>
<svg version="1.1" xmlns="http://www.w3.org/2000/svg" width="512" height="512">
<path d="M0 0 C2.74490753 1.32276719 5.1195265 3.00062546 7.5625 4.8125 C8.25722412 5.31023926 8.95194824 5.80797852 9.66772461 6.32080078 C11.79554034 7.85883492 13.90083844 9.42313458 16 11 C16.61359375 11.45906738 17.2271875 11.91813477 17.859375 12.39111328 C37.75495068 27.39532647 56.47922917 44.34681489 73 63 C73.52158691 63.58217285 74.04317383 64.1643457 74.58056641 64.76416016 C103.86131164 97.49073311 123.8173415 135.15636615 138.19702148 176.50424194 C146.41247058 200.08545006 155.97735695 223.56222877 172 243 C172.69480469 243.87011719 173.38960937 244.74023438 174.10546875 245.63671875 C182.05475586 255.09188174 192.13910704 262.33033146 204 266 C204.58652344 266.19207031 205.17304688 266.38414062 205.77734375 266.58203125 C209.17178433 267.22035312 212.55858602 267.1904677 216 267.1875 C216.78673096 267.18814453 217.57346191 267.18878906 218.3840332 267.18945312 C224.36718911 267.137605 230.24353059 266.6596147 236.1875 266 C249.24290228 264.56126702 262.73356229 263.21591953 275.01953125 268.765625 C282.58600653 271.83752917 290.57650953 273.44146074 298.50234985 275.31591797 C340.85143063 285.40076775 394.16297843 298.51187398 422 335 C424.54913679 339.25413319 424.65143922 343.15227695 424 348 C418.93871431 359.22285087 402.72212938 364.63423846 392 369 C357.0211595 382.19034488 320.47177209 389.76551688 283.9732666 397.37969971 C281.19372831 397.95958327 278.41469962 398.54185225 275.63574219 399.12451172 C265.77545084 401.1860923 255.90218905 403.14957693 246 405 C245.01644531 405.19062012 244.03289062 405.38124023 243.01953125 405.57763672 C230.28331629 407.98750135 217.61206635 408.29769342 204.6875 408.375 C203.8870224 408.38312714 203.0865448 408.39125427 202.2618103 408.39962769 C175.74946411 408.60153377 148.93599192 402.63063039 129.38671875 383.578125 C121.84942362 375.43636594 116.99727375 366.37338135 112.21044922 356.48046875 C98.23514499 327.84208817 81.60630874 301.34624378 61 277 C60.14261334 275.96926194 59.28587495 274.9379844 58.4296875 273.90625 C48.43715497 261.9119678 37.76628469 250.67649582 26.75 239.625 C26.27823334 239.1505545 25.80646667 238.67610901 25.32040405 238.18728638 C20.29594107 233.141194 15.23177842 228.21491357 9.81884766 223.58642578 C8.0231894 222.02022613 6.31673451 220.39206136 4.61328125 218.7265625 C-1.81634607 212.58705134 -6.65388385 208.47204297 -16.00390625 208.609375 C-20.22160157 209.15927009 -24.24428436 209.93071007 -28 212 C-30.89613404 217.79226808 -28.64565754 225.4987367 -27.25 231.5 C-18.59712346 272.47131271 -17.05643587 315.83906432 -14.64581299 357.55926514 C-14.54949721 359.21275988 -14.44831142 360.86597898 -14.34197998 362.51885986 C-14.20097676 364.75292117 -14.08118297 366.9869998 -13.96875 369.22265625 C-13.86723633 371.05969116 -13.86723633 371.05969116 -13.76367188 372.93383789 C-14.03099302 376.40210878 -14.35949062 377.7348437 -17 380 C-21.44903978 380.85633826 -25.97824341 380.60216453 -30.5 380.5625 C-31.74910156 380.58634766 -32.99820313 380.61019531 -34.28515625 380.63476562 C-35.48011719 380.63283203 -36.67507812 380.63089844 -37.90625 380.62890625 C-39.00259766 380.62963135 -40.09894531 380.63035645 -41.22851562 380.63110352 C-44 380 -44 380 -45.58828831 378.03587532 C-47.47041651 373.98837284 -47.88309325 370.20447737 -48.35887146 365.79489136 C-48.46886838 364.86480794 -48.57886531 363.93472452 -48.69219548 362.97645676 C-49.05798392 359.85904086 -49.40671957 356.73995369 -49.75561523 353.62060547 C-50.01452578 351.38459312 -50.27451135 349.14870503 -50.53549194 346.91293335 C-51.09561795 342.09506207 -51.64826834 337.27641205 -52.19521904 332.45702744 C-53.06197141 324.82162193 -53.9462298 317.18830642 -54.83302307 309.5552063 C-56.07642263 298.83756713 -57.31276024 288.11914607 -58.54223633 277.39990234 C-58.62023718 276.71987235 -58.69823803 276.03984236 -58.77860255 275.3392054 C-59.09447341 272.58521175 -59.41031345 269.83121456 -59.72611576 267.07721304 C-60.59201414 259.52643579 -61.45927964 251.97581592 -62.32739258 244.42529297 C-62.40499168 243.75034026 -62.48259077 243.07538756 -62.56254136 242.37998174 C-63.86272209 231.07323406 -65.1700719 219.76732746 -66.48176724 208.46190941 C-67.35962582 200.89051533 -68.2285034 193.31816268 -69.09016597 185.74490905 C-69.63110335 181.00592974 -70.17943889 176.2678263 -70.72961044 171.52991104 C-70.9810243 169.35162057 -71.22943445 167.17298069 -71.47441673 164.99395752 C-72.8095548 153.13334052 -74.52005901 141.53861387 -77.17797947 129.89789009 C-78.18521239 125.12175242 -78.58548604 120.61544018 -78.4375 115.75 C-78.42283691 114.92338867 -78.40817383 114.09677734 -78.39306641 113.24511719 C-77.34690668 78.76849039 -56.4568236 47.80634581 -33 24 C-32.29230469 23.27329102 -31.58460937 22.54658203 -30.85546875 21.79785156 C-28.4955665 19.37746442 -26.12511979 16.96795182 -23.75 14.5625 C-23.00524414 13.80445068 -22.26048828 13.04640137 -21.49316406 12.26538086 C-7.73865438 -1.50594737 -7.73865438 -1.50594737 0 0 Z " fill="#D8000C" transform="translate(83,52)"/>
<path d="M0 0 C2.74490753 1.32276719 5.1195265 3.00062546 7.5625 4.8125 C8.25722412 5.31023926 8.95194824 5.80797852 9.66772461 6.32080078 C11.79554034 7.85883492 13.90083844 9.42313458 16 11 C16.61359375 11.45906738 17.2271875 11.91813477 17.859375 12.39111328 C37.75495068 27.39532647 56.47922917 44.34681489 73 63 C73.52158691 63.58217285 74.04317383 64.1643457 74.58056641 64.76416016 C103.86131164 97.49073311 123.8173415 135.15636615 138.19702148 176.50424194 C146.41247058 200.08545006 155.97735695 223.56222877 172 243 C172.69480469 243.87011719 173.38960937 244.74023438 174.10546875 245.63671875 C182.05475586 255.09188174 192.13910704 262.33033146 204 266 C204.58652344 266.19207031 205.17304688 266.38414062 205.77734375 266.58203125 C209.17178433 267.22035312 212.55858602 267.1904677 216 267.1875 C216.78673096 267.18814453 217.57346191 267.18878906 218.3840332 267.18945312 C224.36718911 267.137605 230.24353059 266.6596147 236.1875 266 C249.24290228 264.56126702 262.73356229 263.21591953 275.01953125 268.765625 C282.58600653 271.83752917 290.57650953 273.44146074 298.50234985 275.31591797 C340.85143063 285.40076775 394.16297843 298.51187398 422 335 C424.54913679 339.25413319 424.65143922 343.15227695 424 348 C418.93871431 359.22285087 402.72212938 364.63423846 392 369 C357.0211595 382.19034488 320.47177209 389.76551688 283.9732666 397.37969971 C281.19372831 397.95958327 278.41469962 398.54185225 275.63574219 399.12451172 C265.77545084 401.1860923 255.90218905 403.14957693 246 405 C245.01644531 405.19062012 244.03289062 405.38124023 243.01953125 405.57763672 C230.28331629 407.98750135 217.61206635 408.29769342 204.6875 408.375 C203.8870224 408.38312714 203.0865448 408.39125427 202.2618103 408.39962769 C175.74946411 408.60153377 148.93599192 402.63063039 129.38671875 383.578125 C121.84942362 375.43636594 116.99727375 366.37338135 112.21044922 356.48046875 C98.23514499 327.84208817 81.60630874 301.34624378 61 277 C60.14261334 275.96926194 59.28587495 274.9379844 58.4296875 273.90625 C48.43715497 261.9119678 37.76628469 250.67649582 26.75 239.625 C26.27823334 239.1505545 25.80646667 238.67610901 25.32040405 238.18728638 C20.29594107 233.141194 15.23177842 228.21491357 9.81884766 223.58642578 C8.0231894 222.02022613 6.31673451 220.39206136 4.61328125 218.7265625 C-1.81634607 212.58705134 -6.65388385 208.47204297 -16.00390625 208.609375 C-20.22160157 209.15927009 -24.24428436 209.93071007 -28 212 C-30.89613404 217.79226808 -28.64565754 225.4987367 -27.25 231.5 C-18.59712346 272.47131271 -17.05643587 315.83906432 -14.64581299 357.55926514 C-14.54949721 359.21275988 -14.44831142 360.86597898 -14.34197998 362.51885986 C-14.20097676 364.75292117 -14.08118297 366.9869998 -13.96875 369.22265625 C-13.86723633 371.05969116 -13.86723633 371.05969116 -13.76367188 372.93383789 C-14.03099302 376.40210878 -14.35949062 377.7348437 -17 380 C-21.44903978 380.85633826 -25.97824341 380.60216453 -30.5 380.5625 C-31.74910156 380.58634766 -32.99820313 380.61019531 -34.28515625 380.63476562 C-35.48011719 380.63283203 -36.67507812 380.63089844 -37.90625 380.62890625 C-39.00259766 380.62963135 -40.09894531 380.63035645 -41.22851562 380.63110352 C-44 380 -44 380 -45.58828831 378.03587532 C-47.47041651 373.98837284 -47.88309325 370.20447737 -48.35887146 365.79489136 C-48.46886838 364.86480794 -48.57886531 363.93472452 -48.69219548 362.97645676 C-49.05798392 359.85904086 -49.40671957 356.73995369 -49.75561523 353.62060547 C-50.01452578 351.38459312 -50.27451135 349.14870503 -50.53549194 346.91293335 C-51.09561795 342.09506207 -51.64826834 337.27641205 -52.19521904 332.45702744 C-53.06197141 324.82162193 -53.9462298 317.18830642 -54.83302307 309.5552063 C-56.07642263 298.83756713 -57.31276024 288.11914607 -58.54223633 277.39990234 C-58.62023718 276.71987235 -58.69823803 276.03984236 -58.77860255 275.3392054 C-59.09447341 272.58521175 -59.41031345 269.83121456 -59.72611576 267.07721304 C-60.59201414 259.52643579 -61.45927964 251.97581592 -62.32739258 244.42529297 C-62.40499168 243.75034026 -62.48259077 243.07538756 -62.56254136 242.37998174 C-63.86272209 231.07323406 -65.1700719 219.76732746 -66.48176724 208.46190941 C-67.35962582 200.89051533 -68.2285034 193.31816268 -69.09016597 185.74490905 C-69.63110335 181.00592974 -70.17943889 176.2678263 -70.72961044 171.52991104 C-70.9810243 169.35162057 -71.22943445 167.17298069 -71.47441673 164.99395752 C-72.8095548 153.13334052 -74.52005901 141.53861387 -77.17797947 129.89789009 C-78.18521239 125.12175242 -78.58548604 120.61544018 -78.4375 115.75 C-78.42283691 114.92338867 -78.40817383 114.09677734 -78.39306641 113.24511719 C-77.34690668 78.76849039 -56.4568236 47.80634581 -33 24 C-32.29230469 23.27329102 -31.58460937 22.54658203 -30.85546875 21.79785156 C-28.4955665 19.37746442 -26.12511979 16.96795182 -23.75 14.5625 C-23.00524414 13.80445068 -22.26048828 13.04640137 -21.49316406 12.26538086 C-7.73865438 -1.50594737 -7.73865438 -1.50594737 0 0 Z M-4 12 C-18.13934568 24.63971811 -31.88109922 37.56668904 -43 53 C-43.42474609 53.58040039 -43.84949219 54.16080078 -44.28710938 54.75878906 C-55.49966533 70.22058143 -66.24397222 89.51774565 -67 109 C-67.07476562 110.25554687 -67.14953125 111.51109375 -67.2265625 112.8046875 C-68.10698813 133.46613555 -59.07479058 148.5153993 -45.47998047 163.41796875 C-38.26409059 171.13142411 -29.7824524 177.31274868 -21.38671875 183.66015625 C-15.38586088 188.20738196 -9.51939889 192.91853552 -3.66650391 197.65380859 C-2.12945406 198.89542782 -0.58647606 200.12969879 0.95703125 201.36328125 C6.84542445 206.1060071 12.45085661 211.0759028 17.98046875 216.2265625 C20.13387539 218.22880237 22.3420019 220.14943856 24.578125 222.05859375 C29.92258447 226.71685884 34.89938901 231.74980413 39.90014648 236.76977539 C41.5592732 238.43426277 43.22368051 240.09333447 44.88867188 241.75195312 C50.46874615 247.32822427 55.9118885 252.96558438 61 259 C61.87675089 260.00985603 62.75430811 261.01901278 63.6328125 262.02734375 C85.88490877 288.01137466 105.03996547 316.16591217 120.00634766 346.96044922 C130.96345771 369.45079256 142.78833152 384.39448126 167 393 C179.37686379 396.85360228 191.54988448 397.20947297 204.4375 397.1875 C205.1471994 397.18656342 205.8568988 397.18562683 206.58810425 397.18466187 C223.8653887 397.13532528 239.79163003 395.25293927 256.62890625 391.41015625 C263.61674326 389.83133737 270.64822115 388.51405781 277.6875 387.1875 C350.37224743 377.04741035 350.37224743 377.04741035 413 345 C412.63507806 339.59737516 409.85606851 337.16966494 406.09375 333.5859375 C376.9631545 308.35116761 322.14653262 284 283 284 C282.74089844 285.12921875 282.74089844 285.12921875 282.4765625 286.28125 C278.39490543 301.70916479 269.21526297 313.92047395 258 325 C256.98486328 326.03060547 256.98486328 326.03060547 255.94921875 327.08203125 C244.80941032 337.66830883 230.2725589 341.6253422 215.30371094 341.47167969 C190.01279465 340.74356798 163.51900218 327.97059356 145.9375 310.0625 C125.64324352 286.67361372 117.72981913 255.96757077 108.47529602 227.13807678 C101.21404669 204.52865704 93.77703082 182.07197605 85 160 C84.74945862 159.36870178 84.49891724 158.73740356 84.24078369 158.0869751 C65.89285593 111.97363796 43.6543009 64.80090267 11 27 C10.2265625 26.10410156 9.453125 25.20820312 8.65625 24.28515625 C4.67314593 19.76433314 0.67674762 15.78689435 -4 12 Z " fill="#020000" transform="translate(83,52)"/>
<path d="M0 0 C2 0 2 0 4.2578125 2.13671875 C5.16273437 3.08160156 6.06765625 4.02648437 7 5 C7.95267416 5.94709337 8.90846405 6.89106194 9.8671875 7.83203125 C14.83161608 12.74333374 19.72710805 17.64911765 24.25 22.9765625 C26.31104961 25.35965111 28.47079617 27.63830168 30.625 29.9375 C37.26480139 37.22410091 43.15179451 45.07230503 49 53 C49.42168457 53.56976563 49.84336914 54.13953125 50.27783203 54.7265625 C69.99243405 81.59732513 82.05418664 112.25901917 93.3046875 143.37109375 C105.51707236 176.92613925 121.79804132 213.94113416 156 230 C164.2204923 233.76589987 171.32748894 234.5450046 180.3125 234.3125 C182.02276367 234.29799805 182.02276367 234.29799805 183.76757812 234.28320312 C189.87591966 234.21092362 189.87591966 234.21092362 195.93212891 233.49780273 C201.2547702 232.63413366 206.61343006 232.77516273 211.99536133 232.75976562 C214.0604608 232.75000963 216.12458432 232.71890858 218.18945312 232.6875 C219.49978516 232.68234375 220.81011719 232.6771875 222.16015625 232.671875 C223.35261963 232.6625293 224.54508301 232.65318359 225.77368164 232.64355469 C229.59583707 233.06582839 232.26176623 234.26176623 235 237 C236.46585435 246.42334942 230.08347273 254.76277157 224.8125 262.0625 C215.61261185 273.820481 205.94184251 283.5777375 191 287 C170.31614956 289.08173224 153.87692239 283.83104303 136 274 C135.05253906 273.4946875 134.10507813 272.989375 133.12890625 272.46875 C121.28942783 265.81943295 113.13980772 256.33605978 106 245 C105.59813477 244.37029297 105.19626953 243.74058594 104.78222656 243.09179688 C95.54273693 228.21629302 90.83303861 211.40058391 85.55419922 194.84423828 C83.0062887 186.8716922 80.34120571 178.9378014 77.6875 171 C77.17530978 169.46486529 76.66318335 167.9297093 76.15112305 166.39453125 C72.53486339 155.55999213 68.91505454 144.73096285 65 134 C64.62085449 132.9598877 64.24170898 131.91977539 63.85107422 130.84814453 C48.11994397 87.96665476 29.56196887 45.29391159 4.109375 7.23046875 C2.55026379 4.8427188 1.17321094 2.5875819 0 0 Z " fill="#1F2729" transform="translate(120,96)"/>
<path d="M0 0 C1.04414063 1.051875 1.04414063 1.051875 2.109375 2.125 C11.00212874 11.00528143 20.21133016 19.19345972 30.31347656 26.68554688 C33.79332017 29.27038587 37.04187644 31.80430693 40 35 C39.19175781 35.17015625 38.38351563 35.3403125 37.55078125 35.515625 C29.45103373 37.16295423 29.45103373 37.16295423 23 42 C17.19396266 52.032491 20.00406759 63.17869637 22.33705139 73.91366577 C23.6541376 80.02675912 24.68743203 86.13035773 25.51171875 92.328125 C25.63905396 93.27653259 25.76638916 94.22494019 25.89758301 95.2020874 C27.20616197 105.19462791 28.14379018 115.21010586 29 125.25 C29.08237915 126.19780334 29.1647583 127.14560669 29.24963379 128.12213135 C30.51647324 142.69866111 31.67687312 157.28297926 32.75 171.875 C32.81493652 172.73774536 32.87987305 173.60049072 32.94677734 174.48937988 C33.73317708 185.01733159 34.1778698 195.44046263 34 206 C30.7 206 27.4 206 24 206 C22.61898525 198.15956021 21.505986 190.33784382 20.66796875 182.421875 C20.42702104 180.20759883 20.18605345 177.99332483 19.94506836 175.77905273 C19.82163055 174.63298553 19.69819275 173.48691833 19.5710144 172.30612183 C17.66845398 154.66470715 15.6931941 137.03738313 13.4375 119.4375 C11.64974688 105.47247102 10.02754107 91.49586934 8.5 77.5 C6.8652429 62.52638768 5.13004503 47.56990541 3.25 32.625 C3.14308838 31.77429932 3.03617676 30.92359863 2.92602539 30.04711914 C2.62387463 27.6484312 2.3202886 25.2499325 2.015625 22.8515625 C1.92730408 22.15572052 1.83898315 21.45987854 1.74798584 20.74295044 C1.33855468 17.5447292 0.90595484 14.35231186 0.44262695 11.16137695 C-0.08814379 7.37045012 -0.06703498 3.82099411 0 0 Z " fill="#D4000C" transform="translate(23,215)"/>
</svg>
