<?xml version="1.0" encoding="UTF-8"?>
<svg version="1.1" xmlns="http://www.w3.org/2000/svg" width="512" height="512">
<path d="M0 0 C1.55487373 -0.01564648 1.55487373 -0.01564648 3.14115906 -0.03160906 C4.27849991 -0.02268617 5.41584076 -0.01376328 6.58764648 -0.00457001 C8.40163689 -0.01392995 8.40163689 -0.01392995 10.25227356 -0.02347898 C13.61069497 -0.0366909 16.96822396 -0.03191306 20.32659149 -0.01953411 C23.94765828 -0.01049813 27.56864608 -0.02444609 31.18969727 -0.0354538 C38.28392102 -0.05325923 45.37797568 -0.04939009 52.47220612 -0.03780323 C58.2367746 -0.02877711 64.00129562 -0.02754134 69.76586914 -0.0318985 C70.99558425 -0.0328179 70.99558425 -0.0328179 72.2501421 -0.03375587 C73.91546505 -0.03503474 75.58078799 -0.0363316 77.24611092 -0.03764623 C92.869301 -0.04905796 108.49239727 -0.03592906 124.11557198 -0.01444477 C137.52688339 0.00342676 150.93805632 0.00032282 164.34936523 -0.01811981 C179.91587098 -0.03951609 195.48229447 -0.04795927 211.04881287 -0.03567076 C212.70807901 -0.03439653 214.36734516 -0.03313905 216.02661133 -0.0318985 C216.84304517 -0.0312814 217.65947901 -0.03066429 218.50065327 -0.03002849 C224.25965153 -0.02657186 230.0185977 -0.03241067 235.77758789 -0.04181671 C242.7939737 -0.0530243 249.81018047 -0.05002293 256.82654572 -0.02869374 C260.40784054 -0.01816643 263.98883664 -0.01408969 267.57012939 -0.02729034 C271.44853395 -0.04137015 275.32644715 -0.02458196 279.20483398 -0.00457001 C280.91084526 -0.01795434 280.91084526 -0.01795434 282.65132141 -0.03160906 C283.6879039 -0.02117807 284.72448639 -0.01074708 285.79248047 0 C286.68797104 0.00064941 287.58346161 0.00129882 288.50608826 0.00196791 C291.69229725 0.67035826 292.89919657 1.98273635 294.89624023 4.50336456 C295.3503418 7.52777863 295.3503418 7.52777863 295.28686523 11.01898956 C295.2675293 12.8945755 295.2675293 12.8945755 295.24780273 14.80805206 C295.1975293 16.76098175 295.1975293 16.76098175 295.14624023 18.75336456 C295.12819336 20.07078644 295.11014648 21.38820831 295.09155273 22.74555206 C295.04440294 25.99888764 294.97860067 29.25076081 294.89624023 32.50336456 C296.22037241 32.49783381 296.22037241 32.49783381 297.57125473 32.49219131 C319.03647822 32.40390882 340.50167047 32.33768834 361.9670372 32.29611588 C372.34747583 32.27547811 382.72779338 32.2473343 393.1081543 32.20160675 C402.15417633 32.16177618 411.20011069 32.13594059 420.24621797 32.12701058 C425.03746278 32.12178942 429.82845675 32.10949264 434.61962128 32.08044434 C439.12742822 32.05333491 443.63488051 32.04491047 448.14276123 32.05093384 C449.79880957 32.04983159 451.45486952 32.04185099 453.11084747 32.02654266 C455.36948214 32.00668388 457.62677221 32.01140918 459.88543701 32.0223465 C461.15013699 32.01865932 462.41483696 32.01497215 463.71786118 32.01117325 C467.618465 32.61520546 468.53952619 33.38032756 470.89624023 36.50336456 C471.28861709 39.09639048 471.43455033 41.265297 471.3996048 43.8560257 C471.40541856 44.60232711 471.41123232 45.34862852 471.41722226 46.11754513 C471.43188631 48.63254345 471.4179078 51.14657557 471.4041748 53.66156769 C471.4087812 55.4770864 471.41513235 57.29260138 471.42308378 59.10810852 C471.43983615 64.10814202 471.43150397 69.10787151 471.41913891 74.10790634 C471.41011484 79.4958506 471.42404498 84.88374137 471.43505859 90.27167511 C471.45287672 100.83102045 471.44898918 111.39025228 471.43740803 121.94960213 C471.42838692 130.52881174 471.42714397 139.10798946 471.4315033 147.68720245 C471.43211623 148.90666455 471.43272916 150.12612664 471.43336067 151.38254213 C471.43463952 153.85959308 471.43593638 156.33664402 471.43725103 158.81369495 C471.44866648 182.05953087 471.43552799 205.30530376 471.41404957 228.55112934 C471.39617773 248.51180182 471.39928156 268.47238126 471.41772461 288.43305206 C471.43911429 311.59378085 471.44756775 334.75445436 471.43527555 357.91519165 C471.43400131 360.38330332 471.43274383 362.85141499 471.4315033 365.31952667 C471.43057764 367.14122525 471.43057764 367.14122525 471.42963329 368.99972582 C471.42617468 377.57199712 471.43201973 386.14423345 471.44142151 394.71649933 C471.45262174 405.1584176 471.44964311 415.60021555 471.42829853 426.04211998 C471.4177615 431.37321218 471.41371138 436.70410353 471.42689514 442.0351944 C471.43877003 446.91063278 471.43233787 451.78568316 471.41098493 456.66108608 C471.40649798 458.42952813 471.4088317 460.19800262 471.41848809 461.96642399 C471.43056896 464.36165661 471.41826334 466.75554238 471.3996048 469.15070343 C471.40896946 469.84496398 471.41833413 470.53922453 471.42798257 471.25452328 C471.37743555 474.4782617 471.0593482 476.27209737 469.18376493 478.9314456 C466.46793864 480.79768069 465.06610908 481.00435509 461.79248047 481.00672913 C460.23760674 481.02237561 460.23760674 481.02237561 458.65132141 481.03833818 C457.51398056 481.0294153 456.37663971 481.02049241 455.20483398 481.01129913 C453.39084358 481.02065908 453.39084358 481.02065908 451.54020691 481.03020811 C448.1817855 481.04342003 444.82425651 481.03864218 441.46588898 481.02626324 C437.84482218 481.01722725 434.22383439 481.03117522 430.6027832 481.04218292 C423.50855945 481.05998835 416.41450478 481.05611922 409.32027435 481.04453236 C403.55570587 481.03550624 397.79118484 481.03427047 392.02661133 481.03862762 C390.79689621 481.03954702 390.79689621 481.03954702 389.54233837 481.04048499 C387.87701542 481.04176387 386.21169248 481.04306072 384.54636955 481.04437536 C368.92317947 481.05578708 353.30008319 481.04265819 337.67690849 481.02117389 C324.26559708 481.00330236 310.85442415 481.0064063 297.44311523 481.02484894 C281.87660948 481.04624522 266.310186 481.05468839 250.7436676 481.04239988 C249.08440146 481.04112566 247.42513531 481.03986818 245.76586914 481.03862762 C244.9494353 481.03801052 244.13300146 481.03739342 243.2918272 481.03675762 C237.53282894 481.03330098 231.77388277 481.0391398 226.01489258 481.04854584 C218.99850677 481.05975342 211.9823 481.05675205 204.96593475 481.03542286 C201.38463993 481.02489556 197.80364383 481.02081882 194.22235107 481.03401947 C190.34394652 481.04809928 186.46603332 481.03131108 182.58764648 481.01129913 C180.88163521 481.02468346 180.88163521 481.02468346 179.14115906 481.03833818 C178.10457657 481.0279072 177.06799408 481.01747621 176 481.00672913 C175.10450943 481.00607972 174.20901886 481.00543031 173.28639221 481.00476122 C170.10018322 480.33637086 168.8932839 479.02399278 166.89624023 476.50336456 C166.44213867 473.4789505 166.44213867 473.4789505 166.50561523 469.98773956 C166.51850586 468.73734894 166.53139648 467.48695831 166.54467773 466.19867706 C166.59495117 464.24574738 166.59495117 464.24574738 166.64624023 462.25336456 C166.66428711 460.93594269 166.68233398 459.61852081 166.70092773 458.26117706 C166.74807753 455.00784149 166.8138798 451.75596831 166.89624023 448.50336456 C166.01348545 448.50705173 165.13073067 448.51073891 164.22122574 448.51453781 C142.75600225 448.6028203 121.29081 448.66904078 99.82544327 448.71061325 C89.44500464 448.73125102 79.06468709 448.75939483 68.68432617 448.80512238 C59.63830414 448.84495295 50.59236978 448.87078854 41.5462625 448.87971854 C36.75501769 448.8849397 31.96402372 448.89723649 27.17285919 448.92628479 C22.66505225 448.95339421 18.15759996 448.96181865 13.64971924 448.95579529 C11.9936709 448.95689754 10.33761095 448.96487813 8.681633 448.98018646 C6.42299833 449.00004524 4.16570826 448.99531995 1.90704346 448.98438263 C0.64234348 448.9880698 -0.62235649 448.99175697 -1.92538071 448.99555588 C-5.82598453 448.39152367 -6.74704573 447.62640156 -9.10375977 444.50336456 C-9.49613663 441.91033864 -9.64206986 439.74143213 -9.60712433 437.15070343 C-9.61293809 436.40440202 -9.61875185 435.65810061 -9.62474179 434.889184 C-9.63940584 432.37418568 -9.62542733 429.86015356 -9.61169434 427.34516144 C-9.61630073 425.52964273 -9.62265189 423.71412774 -9.63060331 421.89862061 C-9.64735568 416.89858711 -9.6390235 411.89885761 -9.62665844 406.89882278 C-9.61763437 401.51087853 -9.63156451 396.12298776 -9.64257812 390.73505402 C-9.66039625 380.17570868 -9.65650871 369.61647685 -9.64492756 359.057127 C-9.63590645 350.47791739 -9.6346635 341.89873966 -9.63902283 333.31952667 C-9.63963576 332.10006458 -9.64024869 330.88060248 -9.6408802 329.62418699 C-9.64215905 327.14713604 -9.64345591 324.6700851 -9.64477056 322.19303417 C-9.65618601 298.94719826 -9.64304752 275.70142536 -9.6215691 252.45559978 C-9.60369726 232.49492731 -9.60680109 212.53434786 -9.62524414 192.57367706 C-9.64663382 169.41294827 -9.65508728 146.25227476 -9.64279509 123.09153748 C-9.64152084 120.62342581 -9.64026336 118.15531414 -9.63902283 115.68720245 C-9.63840573 114.47273674 -9.63778862 113.25827102 -9.63715282 112.00700331 C-9.63369421 103.43473201 -9.63953926 94.86249568 -9.64894104 86.2902298 C-9.66014127 75.84831152 -9.65716264 65.40651357 -9.63581806 54.96460915 C-9.62528103 49.63351694 -9.62123091 44.3026256 -9.63441467 38.97153473 C-9.64628956 34.09609635 -9.63985741 29.22104597 -9.61850446 24.34564304 C-9.61401751 22.577201 -9.61635123 20.80872651 -9.62600762 19.04030514 C-9.63808849 16.64507252 -9.62578287 14.25118675 -9.60712433 11.8560257 C-9.61648899 11.16176515 -9.62585366 10.4675046 -9.6355021 9.75220585 C-9.58495508 6.52846743 -9.26686773 4.73463176 -7.39128447 2.07528353 C-4.67545817 0.20904844 -3.27362861 0.00237403 0 0 Z " fill="#FEEFF0" transform="translate(25.103759765625,15.496635437011719)"/>
<path d="M0 0 C1.55487373 -0.01564648 1.55487373 -0.01564648 3.14115906 -0.03160906 C4.27849991 -0.02268617 5.41584076 -0.01376328 6.58764648 -0.00457001 C8.40163689 -0.01392995 8.40163689 -0.01392995 10.25227356 -0.02347898 C13.61069497 -0.0366909 16.96822396 -0.03191306 20.32659149 -0.01953411 C23.94765828 -0.01049813 27.56864608 -0.02444609 31.18969727 -0.0354538 C38.28392102 -0.05325923 45.37797568 -0.04939009 52.47220612 -0.03780323 C58.2367746 -0.02877711 64.00129562 -0.02754134 69.76586914 -0.0318985 C70.99558425 -0.0328179 70.99558425 -0.0328179 72.2501421 -0.03375587 C73.91546505 -0.03503474 75.58078799 -0.0363316 77.24611092 -0.03764623 C92.869301 -0.04905796 108.49239727 -0.03592906 124.11557198 -0.01444477 C137.52688339 0.00342676 150.93805632 0.00032282 164.34936523 -0.01811981 C179.91587098 -0.03951609 195.48229447 -0.04795927 211.04881287 -0.03567076 C212.70807901 -0.03439653 214.36734516 -0.03313905 216.02661133 -0.0318985 C216.84304517 -0.0312814 217.65947901 -0.03066429 218.50065327 -0.03002849 C224.25965153 -0.02657186 230.0185977 -0.03241067 235.77758789 -0.04181671 C242.7939737 -0.0530243 249.81018047 -0.05002293 256.82654572 -0.02869374 C260.40784054 -0.01816643 263.98883664 -0.01408969 267.57012939 -0.02729034 C271.44853395 -0.04137015 275.32644715 -0.02458196 279.20483398 -0.00457001 C280.91084526 -0.01795434 280.91084526 -0.01795434 282.65132141 -0.03160906 C283.6879039 -0.02117807 284.72448639 -0.01074708 285.79248047 0 C286.68797104 0.00064941 287.58346161 0.00129882 288.50608826 0.00196791 C291.69229725 0.67035826 292.89919657 1.98273635 294.89624023 4.50336456 C295.3503418 7.52777863 295.3503418 7.52777863 295.28686523 11.01898956 C295.2675293 12.8945755 295.2675293 12.8945755 295.24780273 14.80805206 C295.1975293 16.76098175 295.1975293 16.76098175 295.14624023 18.75336456 C295.12819336 20.07078644 295.11014648 21.38820831 295.09155273 22.74555206 C295.04440294 25.99888764 294.97860067 29.25076081 294.89624023 32.50336456 C296.22037241 32.49783381 296.22037241 32.49783381 297.57125473 32.49219131 C319.03647822 32.40390882 340.50167047 32.33768834 361.9670372 32.29611588 C372.34747583 32.27547811 382.72779338 32.2473343 393.1081543 32.20160675 C402.15417633 32.16177618 411.20011069 32.13594059 420.24621797 32.12701058 C425.03746278 32.12178942 429.82845675 32.10949264 434.61962128 32.08044434 C439.12742822 32.05333491 443.63488051 32.04491047 448.14276123 32.05093384 C449.79880957 32.04983159 451.45486952 32.04185099 453.11084747 32.02654266 C455.36948214 32.00668388 457.62677221 32.01140918 459.88543701 32.0223465 C461.15013699 32.01865932 462.41483696 32.01497215 463.71786118 32.01117325 C467.618465 32.61520546 468.53952619 33.38032756 470.89624023 36.50336456 C471.28861709 39.09639048 471.43455033 41.265297 471.3996048 43.8560257 C471.40541856 44.60232711 471.41123232 45.34862852 471.41722226 46.11754513 C471.43188631 48.63254345 471.4179078 51.14657557 471.4041748 53.66156769 C471.4087812 55.4770864 471.41513235 57.29260138 471.42308378 59.10810852 C471.43983615 64.10814202 471.43150397 69.10787151 471.41913891 74.10790634 C471.41011484 79.4958506 471.42404498 84.88374137 471.43505859 90.27167511 C471.45287672 100.83102045 471.44898918 111.39025228 471.43740803 121.94960213 C471.42838692 130.52881174 471.42714397 139.10798946 471.4315033 147.68720245 C471.43211623 148.90666455 471.43272916 150.12612664 471.43336067 151.38254213 C471.43463952 153.85959308 471.43593638 156.33664402 471.43725103 158.81369495 C471.44866648 182.05953087 471.43552799 205.30530376 471.41404957 228.55112934 C471.39617773 248.51180182 471.39928156 268.47238126 471.41772461 288.43305206 C471.43911429 311.59378085 471.44756775 334.75445436 471.43527555 357.91519165 C471.43400131 360.38330332 471.43274383 362.85141499 471.4315033 365.31952667 C471.43057764 367.14122525 471.43057764 367.14122525 471.42963329 368.99972582 C471.42617468 377.57199712 471.43201973 386.14423345 471.44142151 394.71649933 C471.45262174 405.1584176 471.44964311 415.60021555 471.42829853 426.04211998 C471.4177615 431.37321218 471.41371138 436.70410353 471.42689514 442.0351944 C471.43877003 446.91063278 471.43233787 451.78568316 471.41098493 456.66108608 C471.40649798 458.42952813 471.4088317 460.19800262 471.41848809 461.96642399 C471.43056896 464.36165661 471.41826334 466.75554238 471.3996048 469.15070343 C471.40896946 469.84496398 471.41833413 470.53922453 471.42798257 471.25452328 C471.37743555 474.4782617 471.0593482 476.27209737 469.18376493 478.9314456 C466.46793864 480.79768069 465.06610908 481.00435509 461.79248047 481.00672913 C460.23760674 481.02237561 460.23760674 481.02237561 458.65132141 481.03833818 C457.51398056 481.0294153 456.37663971 481.02049241 455.20483398 481.01129913 C453.39084358 481.02065908 453.39084358 481.02065908 451.54020691 481.03020811 C448.1817855 481.04342003 444.82425651 481.03864218 441.46588898 481.02626324 C437.84482218 481.01722725 434.22383439 481.03117522 430.6027832 481.04218292 C423.50855945 481.05998835 416.41450478 481.05611922 409.32027435 481.04453236 C403.55570587 481.03550624 397.79118484 481.03427047 392.02661133 481.03862762 C390.79689621 481.03954702 390.79689621 481.03954702 389.54233837 481.04048499 C387.87701542 481.04176387 386.21169248 481.04306072 384.54636955 481.04437536 C368.92317947 481.05578708 353.30008319 481.04265819 337.67690849 481.02117389 C324.26559708 481.00330236 310.85442415 481.0064063 297.44311523 481.02484894 C281.87660948 481.04624522 266.310186 481.05468839 250.7436676 481.04239988 C249.08440146 481.04112566 247.42513531 481.03986818 245.76586914 481.03862762 C244.9494353 481.03801052 244.13300146 481.03739342 243.2918272 481.03675762 C237.53282894 481.03330098 231.77388277 481.0391398 226.01489258 481.04854584 C218.99850677 481.05975342 211.9823 481.05675205 204.96593475 481.03542286 C201.38463993 481.02489556 197.80364383 481.02081882 194.22235107 481.03401947 C190.34394652 481.04809928 186.46603332 481.03131108 182.58764648 481.01129913 C180.88163521 481.02468346 180.88163521 481.02468346 179.14115906 481.03833818 C178.10457657 481.0279072 177.06799408 481.01747621 176 481.00672913 C175.10450943 481.00607972 174.20901886 481.00543031 173.28639221 481.00476122 C170.10018322 480.33637086 168.8932839 479.02399278 166.89624023 476.50336456 C166.44213867 473.4789505 166.44213867 473.4789505 166.50561523 469.98773956 C166.51850586 468.73734894 166.53139648 467.48695831 166.54467773 466.19867706 C166.59495117 464.24574738 166.59495117 464.24574738 166.64624023 462.25336456 C166.66428711 460.93594269 166.68233398 459.61852081 166.70092773 458.26117706 C166.74807753 455.00784149 166.8138798 451.75596831 166.89624023 448.50336456 C166.01348545 448.50705173 165.13073067 448.51073891 164.22122574 448.51453781 C142.75600225 448.6028203 121.29081 448.66904078 99.82544327 448.71061325 C89.44500464 448.73125102 79.06468709 448.75939483 68.68432617 448.80512238 C59.63830414 448.84495295 50.59236978 448.87078854 41.5462625 448.87971854 C36.75501769 448.8849397 31.96402372 448.89723649 27.17285919 448.92628479 C22.66505225 448.95339421 18.15759996 448.96181865 13.64971924 448.95579529 C11.9936709 448.95689754 10.33761095 448.96487813 8.681633 448.98018646 C6.42299833 449.00004524 4.16570826 448.99531995 1.90704346 448.98438263 C0.64234348 448.9880698 -0.62235649 448.99175697 -1.92538071 448.99555588 C-5.82598453 448.39152367 -6.74704573 447.62640156 -9.10375977 444.50336456 C-9.49613663 441.91033864 -9.64206986 439.74143213 -9.60712433 437.15070343 C-9.61293809 436.40440202 -9.61875185 435.65810061 -9.62474179 434.889184 C-9.63940584 432.37418568 -9.62542733 429.86015356 -9.61169434 427.34516144 C-9.61630073 425.52964273 -9.62265189 423.71412774 -9.63060331 421.89862061 C-9.64735568 416.89858711 -9.6390235 411.89885761 -9.62665844 406.89882278 C-9.61763437 401.51087853 -9.63156451 396.12298776 -9.64257812 390.73505402 C-9.66039625 380.17570868 -9.65650871 369.61647685 -9.64492756 359.057127 C-9.63590645 350.47791739 -9.6346635 341.89873966 -9.63902283 333.31952667 C-9.63963576 332.10006458 -9.64024869 330.88060248 -9.6408802 329.62418699 C-9.64215905 327.14713604 -9.64345591 324.6700851 -9.64477056 322.19303417 C-9.65618601 298.94719826 -9.64304752 275.70142536 -9.6215691 252.45559978 C-9.60369726 232.49492731 -9.60680109 212.53434786 -9.62524414 192.57367706 C-9.64663382 169.41294827 -9.65508728 146.25227476 -9.64279509 123.09153748 C-9.64152084 120.62342581 -9.64026336 118.15531414 -9.63902283 115.68720245 C-9.63840573 114.47273674 -9.63778862 113.25827102 -9.63715282 112.00700331 C-9.63369421 103.43473201 -9.63953926 94.86249568 -9.64894104 86.2902298 C-9.66014127 75.84831152 -9.65716264 65.40651357 -9.63581806 54.96460915 C-9.62528103 49.63351694 -9.62123091 44.3026256 -9.63441467 38.97153473 C-9.64628956 34.09609635 -9.63985741 29.22104597 -9.61850446 24.34564304 C-9.61401751 22.577201 -9.61635123 20.80872651 -9.62600762 19.04030514 C-9.63808849 16.64507252 -9.62578287 14.25118675 -9.60712433 11.8560257 C-9.61648899 11.16176515 -9.62585366 10.4675046 -9.6355021 9.75220585 C-9.58495508 6.52846743 -9.26686773 4.73463176 -7.39128447 2.07528353 C-4.67545817 0.20904844 -3.27362861 0.00237403 0 0 Z M182.89624023 48.50336456 C182.89624023 185.78336456 182.89624023 323.06336456 182.89624023 464.50336456 C272.65624023 464.50336456 362.41624023 464.50336456 454.89624023 464.50336456 C454.89624023 327.22336456 454.89624023 189.94336456 454.89624023 48.50336456 C365.13624023 48.50336456 275.37624023 48.50336456 182.89624023 48.50336456 Z " fill="#000000" transform="translate(25.103759765625,15.496635437011719)"/>
<path d="M0 0 C5.28 0 10.56 0 16 0 C16 2.64 16 5.28 16 8 C21.28 8 26.56 8 32 8 C32 5.36 32 2.72 32 0 C40.58 0 49.16 0 58 0 C61.3753491 9.00093093 61.3753491 9.00093093 62.4296875 12.55859375 C62.66486084 13.34709717 62.90003418 14.13560059 63.14233398 14.94799805 C63.38411377 15.76953369 63.62589355 16.59106934 63.875 17.4375 C64.13547119 18.31510986 64.39594238 19.19271973 64.66430664 20.09692383 C65.19530275 21.88780092 65.72501999 23.67905773 66.25341797 25.47070312 C66.91619434 27.71608024 67.5838617 29.95990887 68.25390625 32.203125 C70.09862104 38.40173077 71.89873629 44.6098818 73.62109375 50.84375 C76.71700584 62.0482111 79.93700603 73.17966585 83.51074219 84.24169922 C85.94760099 91.78770097 88.21402589 99.37337445 90.41601562 106.99072266 C90.99393882 108.97914568 91.58114062 110.96456712 92.171875 112.94921875 C94.34961128 120.27546575 96.45427545 127.61704901 98.48925781 134.984375 C101.29770928 145.14062728 104.27133696 155.21454356 107.51074219 165.24169922 C109.50800191 171.42643399 111.44422012 177.622588 113.20727539 183.87866211 C114.20256565 187.39770909 115.28477604 190.83653582 116.55859375 194.265625 C120.04476126 203.96559392 120.21923142 210.85720614 116.78271484 220.73632812 C115.91616762 223.24244972 115.12079463 225.7652209 114.33203125 228.296875 C113.15186066 232.0719712 111.95067091 235.83921815 110.73046875 239.6015625 C108.54880473 246.36006897 106.55604717 253.16876125 104.58398438 259.99072266 C104.00606118 261.97914568 103.41885938 263.96456712 102.828125 265.94921875 C100.65038872 273.27546575 98.54572455 280.61704901 96.51074219 287.984375 C93.70229072 298.14062728 90.72866304 308.21454356 87.48925781 318.24169922 C85.05239901 325.78770097 82.78597411 333.37337445 80.58398438 340.99072266 C80.00606118 342.97914568 79.41885938 344.96456712 78.828125 346.94921875 C76.65019747 354.27610915 74.54530325 361.61832338 72.51025391 368.98632812 C68.13218505 384.81788877 63.19367884 400.41896349 58 416 C49.42 416 40.84 416 32 416 C32 413.36 32 410.72 32 408 C26.72 408 21.44 408 16 408 C16 410.64 16 413.28 16 416 C10.72 416 5.44 416 0 416 C0 278.72 0 141.44 0 0 Z " fill="#E16674" transform="translate(32,32)"/>
<path d="M0 0 C65.01 0 130.02 0 197 0 C197 5.28 197 10.56 197 16 C195.6683783 16.00364563 194.33675659 16.00729126 192.96478271 16.01104736 C180.4277257 16.04795655 167.89091524 16.10568466 155.35404587 16.18390274 C148.90838335 16.22344551 142.46285885 16.25560072 136.01708984 16.27099609 C129.79887187 16.28611772 123.58103316 16.32048363 117.3629837 16.36830902 C114.98831729 16.3831692 112.61359674 16.39104365 110.23888397 16.39188385 C106.91763159 16.39424125 103.59743785 16.42122316 100.27636719 16.45410156 C99.29021927 16.4490712 98.30407135 16.44404083 97.28804016 16.43885803 C96.38222702 16.45277084 95.47641388 16.46668365 94.54315186 16.48101807 C93.75778423 16.48470524 92.97241661 16.48839241 92.16324997 16.49219131 C89.06502967 17.21947813 87.9713815 18.52131511 86 21 C85.39826944 24.1147753 85.39826944 24.1147753 85.49219131 27.6610527 C85.48588756 28.33257569 85.47958381 29.00409867 85.47308904 29.69597083 C85.45676609 31.95657469 85.46901393 34.21612748 85.48101807 36.47674561 C85.47514531 38.10950099 85.46751957 39.74225086 85.458287 41.3749907 C85.43796573 45.86967143 85.44259649 50.36403764 85.45119452 54.85874343 C85.45612651 59.70265402 85.4380705 64.5464843 85.42277527 69.3903656 C85.39942779 77.78536547 85.39071629 86.18027889 85.39188385 94.57530975 C85.3935509 106.71316501 85.3732407 118.85090478 85.34752855 130.98872927 C85.30641311 150.68046883 85.2831259 170.37218767 85.27099609 190.06396484 C85.25917353 209.19517002 85.23898826 228.32633615 85.20751953 247.45751953 C85.20558343 248.63633189 85.20364733 249.81514425 85.20165256 251.0296782 C85.1918882 256.94330404 85.18195905 262.85692959 85.17194796 268.77055502 C85.08908035 317.84703048 85.03839794 366.92346564 85 416 C56.95 416 28.9 416 0 416 C1.33414865 409.32925675 2.75499829 403.01868316 4.75 396.5625 C5.01240479 395.69906982 5.27480957 394.83563965 5.54516602 393.94604492 C7.0604103 388.9815964 8.6231536 384.03348457 10.20776367 379.09082031 C13.12143077 369.99401826 15.76682595 360.84203869 18.31738281 351.63696289 C23.02963994 334.63620943 27.91049119 317.66975582 33.328125 300.87890625 C36.54939359 290.85646159 39.50589491 280.78386764 42.31689453 270.63867188 C46.0969833 257.00119461 49.99792431 243.39292782 54.1875 229.875 C54.48398438 228.90820312 54.78046875 227.94140625 55.0859375 226.9453125 C55.76162928 224.76808342 56.45741167 222.59706621 57.1640625 220.4296875 C61.09648665 207.8298795 59.03386359 200.31791783 55 188 C53.99262201 184.87733623 52.99424612 181.75186816 52 178.625 C51.74001221 177.80781494 51.48002441 176.99062988 51.2121582 176.14868164 C49.3108153 170.11747573 47.64568063 164.04650276 46.0546875 157.92578125 C43.0545866 146.57159822 39.45029 135.37078013 35.875 124.1875 C33.73242991 117.47880813 31.82679024 110.74325087 30.0546875 103.92578125 C27.0545866 92.57159822 23.45029 81.37078013 19.875 70.1875 C17.73242991 63.47880813 15.82679024 56.74325087 14.0546875 49.92578125 C11.46225238 40.11445029 8.42764028 30.40369527 5.31640625 20.74609375 C5.0436084 19.89692383 4.77081055 19.04775391 4.48974609 18.17285156 C3.97074028 16.56497599 3.44665982 14.95872584 2.91650391 13.35449219 C2.6797998 12.62262695 2.4430957 11.89076172 2.19921875 11.13671875 C1.88730591 10.18865356 1.88730591 10.18865356 1.5690918 9.22143555 C0.79530613 6.2009826 0.4409508 3.08665558 0 0 Z " fill="#FEC8CE" transform="translate(107,32)"/>
<path d="M0 0 C10.54109275 6.09484984 15.45369568 14.78893032 20.47265625 25.4296875 C25.03767025 24.06843332 28.8389717 22.15161588 32.97265625 19.8046875 C40.98023468 15.58752013 48.42131167 14.98809295 57.29296875 17.1015625 C65.77642087 20.05909627 71.54965921 25.23127447 75.97265625 32.9921875 C79.81155377 41.37273155 79.96225758 50.11486187 76.91015625 58.8046875 C72.59761826 67.65602364 66.42265988 72.61385309 57.78515625 76.9921875 C56.84470459 77.48686523 55.90425293 77.98154297 54.93530273 78.49121094 C52.88654665 79.5688563 50.83439542 80.64006606 48.77929688 81.70556641 C44.0577098 84.16745713 39.37160571 86.69422111 34.68310547 89.21826172 C32.26316381 90.52098363 29.84039986 91.81817528 27.41455078 93.10986328 C22.4538903 95.75191671 17.49867017 98.39475288 12.60546875 101.16015625 C11.92025146 101.54268555 11.23503418 101.92521484 10.52905273 102.31933594 C8.83111045 103.27133702 7.14161329 104.23836136 5.453125 105.20703125 C1.82533076 106.69523518 -0.6416184 106.93966075 -4.52734375 106.4296875 C-7.82507101 103.67162478 -9.73574102 100.61896629 -11.76171875 96.859375 C-12.33535156 95.79847656 -12.90898437 94.73757812 -13.5 93.64453125 C-14.08652344 92.54238281 -14.67304688 91.44023437 -15.27734375 90.3046875 C-16.18033203 88.63986328 -16.18033203 88.63986328 -17.1015625 86.94140625 C-21.52734375 78.70202664 -21.52734375 78.70202664 -21.52734375 76.4296875 C-22.18734375 76.4296875 -22.84734375 76.4296875 -23.52734375 76.4296875 C-23.76195312 77.12835938 -23.9965625 77.82703125 -24.23828125 78.546875 C-25.76110156 81.95245496 -27.83706177 84.6668931 -30.15234375 87.5546875 C-31.05479453 88.69941135 -31.95581401 89.8452649 -32.85546875 90.9921875 C-33.30470703 91.56453125 -33.75394531 92.136875 -34.21679688 92.7265625 C-36.83665143 96.1312021 -39.28147977 99.66434213 -41.73828125 103.1875 C-44.33018231 106.43586509 -46.10908262 108.12840949 -50.23046875 109.00390625 C-55.21648284 108.1354891 -58.35504962 105.32206658 -62.27734375 102.2421875 C-63.97844358 100.94696643 -65.68028404 99.65271759 -67.3828125 98.359375 C-68.24181152 97.7003418 -69.10081055 97.04130859 -69.98583984 96.36230469 C-73.803174 93.45951726 -77.69280863 90.66153149 -81.58984375 87.8671875 C-83.06649752 86.80220987 -84.54305972 85.73710526 -86.01953125 84.671875 C-89.1454501 82.42104884 -92.27669848 80.17781657 -95.41015625 77.9375 C-96.21445068 77.3607251 -97.01874512 76.7839502 -97.84741211 76.18969727 C-99.37231076 75.09630546 -100.89902969 74.00544562 -102.42797852 72.91772461 C-111.9808602 66.06046352 -119.8761005 59.4807932 -122.52734375 47.4296875 C-123.44829857 38.50351 -121.9611711 31.39053945 -116.83203125 23.98046875 C-111.44275923 17.38024694 -103.88843198 12.07532208 -95.1796875 11.19140625 C-82.15616926 10.83536762 -73.61455262 17.03029291 -63.52734375 24.4296875 C-59.59536311 22.92807017 -58.11804299 20.70485929 -55.83984375 17.2421875 C-49.54649043 8.36634908 -43.10538631 3.82213654 -32.52734375 1.4296875 C-31.11023401 1.07729787 -29.69353311 0.72325797 -28.27734375 0.3671875 C-27.03984375 0.0578125 -25.80234375 -0.2515625 -24.52734375 -0.5703125 C-23.59921875 -0.9415625 -22.67109375 -1.3128125 -21.71484375 -1.6953125 C-14.27771866 -3.73687625 -7.00965059 -3.22155098 0 0 Z " fill="#030202" transform="translate(367.52734375,115.5703125)"/>
<path d="M0 0 C0.97312637 -0.00137466 1.94625275 -0.00274933 2.9488678 -0.00416565 C4.54029854 0.00122726 4.54029854 0.00122726 6.16387939 0.00672913 C7.28612411 0.0065831 8.40836884 0.00643707 9.56462097 0.00628662 C13.27643767 0.00698365 16.98820427 0.0147663 20.70001221 0.02259827 C23.27262342 0.02446319 25.84523499 0.02588674 28.41784668 0.02688599 C34.49864455 0.03031487 40.57942173 0.03819752 46.6602118 0.04823548 C53.58399136 0.05941667 60.50777179 0.06491212 67.43155813 0.06993091 C81.67209415 0.08038066 95.91261504 0.09796761 110.15313721 0.12025452 C110.15313721 2.76025452 110.15313721 5.40025452 110.15313721 8.12025452 C109.60537502 8.12172108 109.05761284 8.12318764 108.4932518 8.12469864 C95.16440792 8.16175181 81.83582181 8.22099929 68.50718307 8.30415726 C62.06152056 8.34370002 55.61599606 8.37585523 49.17022705 8.39125061 C42.95200908 8.40637224 36.73417037 8.44073814 30.51612091 8.48856354 C28.14145449 8.50342371 25.76673394 8.51129817 23.39202118 8.51213837 C20.0707688 8.51449576 16.75057505 8.54147768 13.42950439 8.57435608 C12.44335648 8.56932571 11.45720856 8.56429535 10.44117737 8.55911255 C9.53536423 8.57302536 8.62955109 8.58693817 7.69628906 8.60127258 C6.91092144 8.60495975 6.12555382 8.60864693 5.31638718 8.61244583 C2.21816688 9.33973265 1.1245187 10.64156962 -0.84686279 13.12025452 C-1.44859335 16.23502982 -1.44859335 16.23502982 -1.35467148 19.78130722 C-1.36097523 20.4528302 -1.36727898 21.12435319 -1.37377375 21.81622535 C-1.3900967 24.0768292 -1.37784887 26.33638199 -1.36584473 28.59700012 C-1.37171749 30.22975551 -1.37934322 31.86250538 -1.38857579 33.49524522 C-1.40889706 37.98992594 -1.40426631 42.48429215 -1.39566827 46.97899795 C-1.39073628 51.82290853 -1.40879229 56.66673881 -1.42408752 61.51062012 C-1.44743501 69.90561999 -1.45614651 78.3005334 -1.45497894 86.69556427 C-1.45331189 98.83341953 -1.47362209 110.97115929 -1.49933425 123.10898378 C-1.54044968 142.80072335 -1.56373689 162.49244219 -1.5758667 182.18421936 C-1.58768926 201.31542453 -1.60787453 220.44659066 -1.63934326 239.57777405 C-1.64127936 240.75658641 -1.64321546 241.93539877 -1.64521024 243.14993271 C-1.65497459 249.06355855 -1.66490374 254.97718411 -1.67491484 260.89080954 C-1.75778242 309.96727247 -1.81144332 359.04373617 -1.84686279 408.12025452 C-7.12686279 408.12025452 -12.40686279 408.12025452 -17.84686279 408.12025452 C-17.91527462 357.91875188 -17.96837841 307.71725516 -18.00005878 257.51571506 C-18.00381098 251.59133295 -18.00769394 245.66695094 -18.01165771 239.74256897 C-18.01244465 238.56311231 -18.01323158 237.38365565 -18.01404236 236.16845787 C-18.02710254 217.06135353 -18.05075976 197.95427622 -18.07832118 178.84718793 C-18.10635833 159.24709073 -18.12303547 139.6470077 -18.12912828 120.04689127 C-18.13324822 107.94888443 -18.14626903 95.85095398 -18.17061219 83.75297064 C-18.1864485 75.46120412 -18.19126792 67.16947719 -18.18736693 58.87769663 C-18.1854421 54.09107217 -18.18842929 49.30458137 -18.20447922 44.51798058 C-18.21906412 40.13635849 -18.21982431 35.75496012 -18.20955948 31.3733278 C-18.20829056 29.78774491 -18.21210806 28.20214814 -18.22151234 26.61659264 C-18.23355513 24.46093885 -18.22706109 22.30609223 -18.21600628 20.15045071 C-18.21714544 18.95319251 -18.2182846 17.7559343 -18.21945828 16.52239555 C-17.71824236 11.94583115 -16.39921179 7.96651492 -13.38201904 4.37806702 C-8.78657599 0.84311083 -5.69445373 -0.00621665 0 0 Z " fill="#D6A9AE" transform="translate(193.84686279296875,39.87974548339844)"/>
<path d="M0 0 C4.95 0 9.9 0 15 0 C17.22621622 5.74996083 19.13463002 11.52395361 20.875 17.4375 C21.26570679 18.75391479 21.26570679 18.75391479 21.66430664 20.09692383 C22.19530275 21.88780092 22.72501999 23.67905773 23.25341797 25.47070312 C23.91619434 27.71608024 24.5838617 29.95990887 25.25390625 32.203125 C27.09862104 38.40173077 28.89873629 44.6098818 30.62109375 50.84375 C33.71700584 62.0482111 36.93700603 73.17966585 40.51074219 84.24169922 C42.94760099 91.78770097 45.21402589 99.37337445 47.41601562 106.99072266 C47.99393882 108.97914568 48.58114062 110.96456712 49.171875 112.94921875 C51.34961128 120.27546575 53.45427545 127.61704901 55.48925781 134.984375 C58.29770928 145.14062728 61.27133696 155.21454356 64.51074219 165.24169922 C66.50800191 171.42643399 68.44422012 177.622588 70.20727539 183.87866211 C71.20256565 187.39770909 72.28477604 190.83653582 73.55859375 194.265625 C77.04476126 203.96559392 77.21923142 210.85720614 73.78271484 220.73632812 C72.91616762 223.24244972 72.12079463 225.7652209 71.33203125 228.296875 C70.15186066 232.0719712 68.95067091 235.83921815 67.73046875 239.6015625 C65.54880473 246.36006897 63.55604717 253.16876125 61.58398438 259.99072266 C61.00606118 261.97914568 60.41885938 263.96456712 59.828125 265.94921875 C57.65038872 273.27546575 55.54572455 280.61704901 53.51074219 287.984375 C50.70229072 298.14062728 47.72866304 308.21454356 44.48925781 318.24169922 C42.05239901 325.78770097 39.78597411 333.37337445 37.58398438 340.99072266 C37.00606118 342.97914568 36.41885938 344.96456712 35.828125 346.94921875 C33.65019747 354.27610915 31.54530325 361.61832338 29.51025391 368.98632812 C25.1331972 384.81422872 20.21122207 400.42911959 15 416 C9.72 416 4.44 416 -1 416 C13.62101591 364.54883008 13.62101591 364.54883008 20.43725586 342.42626953 C22.87846352 334.47582054 25.19342314 326.49023732 27.5 318.5 C30.36693143 308.56889074 33.29800054 298.66164311 36.3359375 288.78125 C38.80680781 280.71125157 41.15918658 272.60838716 43.5 264.5 C46.18812781 255.18903484 48.9156046 245.89277359 51.75 236.625 C52.029646 235.70187012 52.30929199 234.77874023 52.59741211 233.82763672 C53.88824865 229.5760567 55.20998851 225.34088619 56.61328125 221.125 C56.85916992 220.36106934 57.10505859 219.59713867 57.35839844 218.81005859 C57.80580402 217.42161202 58.26952423 216.03823667 58.75488281 214.66259766 C60.48336589 209.19950906 59.53588442 205.31039034 58 200 C57.76369873 199.1136084 57.52739746 198.2272168 57.28393555 197.31396484 C56.4837219 194.32728433 55.65214667 191.35082716 54.8125 188.375 C54.50425293 187.27816895 54.19600586 186.18133789 53.87841797 185.05126953 C51.60966006 177.03160826 49.22048632 169.05408929 46.7668457 161.08935547 C44.25715807 152.91779589 41.86982911 144.7128682 39.5 136.5 C36.89644555 127.48018301 34.25917539 118.4737667 31.5 109.5 C28.53486855 99.8563949 25.71519739 90.17341406 22.91699219 80.48046875 C20.50632863 72.13430583 18.05321222 63.80391215 15.5 55.5 C12.25414197 44.94329703 9.17033561 34.34132438 6.10742188 23.73046875 C5.74712891 22.48265625 5.38683594 21.23484375 5.015625 19.94921875 C4.67337891 18.76118652 4.33113281 17.5731543 3.97851562 16.34912109 C2.86559732 12.53998602 1.70109953 8.74848419 0.50683594 4.96411133 C0 3 0 3 0 0 Z " fill="#F46E7E" transform="translate(75,32)"/>
<path d="M0 0 C4.94642937 3.46947398 7.184501 9.58207723 9.828125 14.8203125 C10.95036521 17.01383991 12.07898023 19.20412102 13.21484375 21.390625 C13.95093872 22.8449292 13.95093872 22.8449292 14.7019043 24.32861328 C16.06868985 26.95274498 16.06868985 26.95274498 19.140625 28.6953125 C23.75083439 29.16188981 26.46159154 28.35726745 30.44140625 26.0703125 C31.41916016 25.52890625 32.39691406 24.9875 33.40429688 24.4296875 C35.42800159 23.27847047 37.4488728 22.12225738 39.46679688 20.9609375 C45.38114159 17.69892203 50.29919991 15.32898065 57.140625 16.6953125 C61.46548 18.89854052 64.74235251 21.45221502 67.140625 25.6953125 C67.93626601 30.54222762 67.69457977 34.44289302 65.703125 38.9453125 C59.34511456 45.76854322 50.54319383 49.71788357 42.328125 53.8828125 C33.19598746 58.55880892 24.15991838 63.36163358 15.24682617 68.4440918 C14.48217041 68.87375244 13.71751465 69.30341309 12.9296875 69.74609375 C12.26662598 70.12419189 11.60356445 70.50229004 10.92041016 70.8918457 C9.140625 71.6953125 9.140625 71.6953125 6.140625 71.6953125 C5.64771973 70.75961426 5.15481445 69.82391602 4.64697266 68.85986328 C2.35566801 64.5120371 0.06126911 60.16584883 -2.234375 55.8203125 C-2.6447702 55.04332001 -3.05516541 54.26632751 -3.47799683 53.46578979 C-8.58888752 43.79573303 -13.72274074 34.14495803 -19.12841797 24.63525391 C-22.41767587 18.82656442 -23.654516 14.32906029 -22.859375 7.6953125 C-20.78005644 3.28715716 -18.14495589 0.52619519 -13.8515625 -1.67578125 C-8.92302312 -3.23165349 -4.57166183 -2.08597685 0 0 Z " fill="#DE6572" transform="translate(362.859375,131.3046875)"/>
<path d="M0 0 C6.25206683 2.37147363 11.15831024 6.25100577 16.34423828 10.38232422 C22.22920202 15.39861723 22.22920202 15.39861723 29.48046875 17.08984375 C34.12638398 15.65120851 35.65530195 13.47506721 38.3125 9.5625 C39.16199882 8.37575654 40.01222964 7.18953665 40.86328125 6.00390625 C41.92095703 4.51697266 41.92095703 4.51697266 43 3 C43.66 2.34 44.32 1.68 45 1 C45.12375 1.680625 45.2475 2.36125 45.375 3.0625 C47.14995249 11.40477669 50.72966471 23.72966471 57 30 C57.5351612 33.49099338 57.1052645 34.83717597 55.1640625 37.83984375 C54.32876501 38.88136057 53.48164528 39.9134697 52.625 40.9375 C51.71122701 42.07366312 50.79984948 43.21175613 49.890625 44.3515625 C49.41689453 44.94227539 48.94316406 45.53298828 48.45507812 46.14160156 C45.99006886 49.28986507 43.68336123 52.54853587 41.375 55.8125 C40.93752441 56.42923584 40.50004883 57.04597168 40.04931641 57.68139648 C39.03077582 59.11944464 38.01505329 60.5594882 37 62 C31.08596936 58.11171266 25.28360222 54.10382834 19.5625 49.9375 C17.99363316 48.79797939 16.42461823 47.65866264 14.85546875 46.51953125 C14.05802246 45.94025879 13.26057617 45.36098633 12.43896484 44.76416016 C10.00425536 43.003078 7.56042396 41.25547348 5.11328125 39.51171875 C4.31913818 38.94396729 3.52499512 38.37621582 2.70678711 37.79125977 C1.20336795 36.7169392 -0.30217591 35.64558276 -1.81030273 34.57788086 C-16.83824929 23.80875356 -16.83824929 23.80875356 -18 18 C-18.46077591 13.77622083 -18.31341845 11.59201262 -16.3125 7.8125 C-11.42889938 1.87298573 -7.72157717 -0.62270784 0 0 Z " fill="#DF6573" transform="translate(279,143)"/>
<path d="M0 0 C42.24 0 84.48 0 128 0 C128 5.28 128 10.56 128 16 C85.76 16 43.52 16 0 16 C0 10.72 0 5.44 0 0 Z " fill="#000000" transform="translate(280,392)"/>
<path d="M0 0 C4.324855 2.20322802 7.60172751 4.75690252 10 9 C10.79564101 13.84691512 10.55395477 17.74758052 8.5625 22.25 C2.20448956 29.07323072 -6.59743117 33.02257107 -14.8125 37.1875 C-23.94463754 41.86349642 -32.98070662 46.66632108 -41.89379883 51.7487793 C-42.65845459 52.17843994 -43.42311035 52.60810059 -44.2109375 53.05078125 C-44.87399902 53.42887939 -45.53706055 53.80697754 -46.22021484 54.1965332 C-48 55 -48 55 -51 55 C-54 49.25 -54 49.25 -54 47 C-53.23856689 46.5968457 -52.47713379 46.19369141 -51.69262695 45.77832031 C-48.84826973 44.26913146 -46.00646253 42.75527211 -43.16625977 41.23828125 C-41.9403621 40.58472749 -40.71348738 39.93300281 -39.4855957 39.28320312 C-37.71304925 38.34475385 -35.944375 37.39900244 -34.17578125 36.453125 C-32.58117065 35.60476074 -32.58117065 35.60476074 -30.9543457 34.73925781 C-25.58920923 31.58073933 -21.41906878 28.38712108 -19.4453125 22.28515625 C-18.60819116 17.989402 -18.65060847 13.57973345 -18.4765625 9.21484375 C-18 6 -18 6 -16.625 4.171875 C-11.26769767 0.30843582 -6.51150149 -1.05212771 0 0 Z " fill="#FB7281" transform="translate(420,148)"/>
<path d="M0 0 C23.76 0 47.52 0 72 0 C72 5.28 72 10.56 72 16 C48.24 16 24.48 16 0 16 C0 10.72 0 5.44 0 0 Z " fill="#000000" transform="translate(368,288)"/>
<path d="M0 0 C23.76 0 47.52 0 72 0 C72 5.28 72 10.56 72 16 C48.24 16 24.48 16 0 16 C0 10.72 0 5.44 0 0 Z " fill="#000000" transform="translate(248,288)"/>
<path d="M0 0 C21.12 0 42.24 0 64 0 C64 5.28 64 10.56 64 16 C42.88 16 21.76 16 0 16 C0 10.72 0 5.44 0 0 Z " fill="#000000" transform="translate(312,360)"/>
<path d="M0 0 C-0.17917969 0.67546875 -0.35835938 1.3509375 -0.54296875 2.046875 C-0.75566406 2.93890625 -0.96835937 3.8309375 -1.1875 4.75 C-1.40792969 5.63171875 -1.62835938 6.5134375 -1.85546875 7.421875 C-2.03991857 10.71206095 -0.92708449 11.43887476 1 14 C0.86328125 16.55078125 0.86328125 16.55078125 0.3125 19.3125 C-0.17021291 23.23402916 -0.17021291 23.23402916 0.8359375 26.95703125 C5.0429643 32.14894004 10.96942731 35.89652619 16.33837891 39.78222656 C19.18164064 41.86600404 21.96323161 44.02909664 24.75 46.1875 C29.47072393 49.83170276 34.21780152 53.43679329 39 57 C38.34 58.65 37.68 60.3 37 62 C31.08596936 58.11171266 25.28360222 54.10382834 19.5625 49.9375 C17.99363316 48.79797939 16.42461823 47.65866264 14.85546875 46.51953125 C14.05802246 45.94025879 13.26057617 45.36098633 12.43896484 44.76416016 C10.00425536 43.003078 7.56042396 41.25547348 5.11328125 39.51171875 C4.31913818 38.94396729 3.52499512 38.37621582 2.70678711 37.79125977 C1.20336795 36.7169392 -0.30217591 35.64558276 -1.81030273 34.57788086 C-16.83824929 23.80875356 -16.83824929 23.80875356 -18 18 C-18.46077591 13.77622083 -18.31341845 11.59201262 -16.3125 7.8125 C-11.24720668 1.65200812 -7.85582629 -0.14547826 0 0 Z " fill="#F6707E" transform="translate(279,143)"/>
<path d="M0 0 C0.33 0 0.66 0 1 0 C1.12375 0.680625 1.2475 1.36125 1.375 2.0625 C3.14995249 10.40477669 6.72966471 22.72966471 13 29 C13.32893979 32.01699465 13.23796544 33.59418394 11.6875 36.23828125 C11.130625 36.92277344 10.57375 37.60726562 10 38.3125 C9.443125 39.00988281 8.88625 39.70726562 8.3125 40.42578125 C7.6628125 41.20501953 7.6628125 41.20501953 7 42 C4.3464875 39.61296957 2.78555604 37.08924066 1.08203125 33.96484375 C0.55029297 32.99095703 0.01855469 32.01707031 -0.52929688 31.01367188 C-1.07650391 29.99853516 -1.62371094 28.98339844 -2.1875 27.9375 C-2.74630859 26.91849609 -3.30511719 25.89949219 -3.88085938 24.84960938 C-8 17.26013049 -8 17.26013049 -8 15 C-8.66 14.67 -9.32 14.34 -10 14 C-8.35810616 11.6638026 -6.7117475 9.33099647 -5.0625 7 C-4.59392578 6.33226562 -4.12535156 5.66453125 -3.64257812 4.9765625 C-2.45337627 3.29970233 -1.22940446 1.64761213 0 0 Z " fill="#B6525E" transform="translate(323,144)"/>
<path d="M0 0 C5.28 0 10.56 0 16 0 C16 5.28 16 10.56 16 16 C10.72 16 5.44 16 0 16 C0 10.72 0 5.44 0 0 Z " fill="#000000" transform="translate(48,408)"/>
<path d="M0 0 C5.28 0 10.56 0 16 0 C16 5.28 16 10.56 16 16 C10.72 16 5.44 16 0 16 C0 10.72 0 5.44 0 0 Z " fill="#000000" transform="translate(48,376)"/>
<path d="M0 0 C5.28 0 10.56 0 16 0 C16 5.28 16 10.56 16 16 C10.72 16 5.44 16 0 16 C0 10.72 0 5.44 0 0 Z " fill="#000000" transform="translate(48,344)"/>
<path d="M0 0 C5.28 0 10.56 0 16 0 C16 5.28 16 10.56 16 16 C10.72 16 5.44 16 0 16 C0 10.72 0 5.44 0 0 Z " fill="#000000" transform="translate(48,312)"/>
<path d="M0 0 C5.28 0 10.56 0 16 0 C16 5.28 16 10.56 16 16 C10.72 16 5.44 16 0 16 C0 10.72 0 5.44 0 0 Z " fill="#000000" transform="translate(336,288)"/>
<path d="M0 0 C5.28 0 10.56 0 16 0 C16 5.28 16 10.56 16 16 C10.72 16 5.44 16 0 16 C0 10.72 0 5.44 0 0 Z " fill="#000000" transform="translate(48,280)"/>
<path d="M0 0 C5.28 0 10.56 0 16 0 C16 5.28 16 10.56 16 16 C10.72 16 5.44 16 0 16 C0 10.72 0 5.44 0 0 Z " fill="#000000" transform="translate(48,248)"/>
<path d="M0 0 C5.28 0 10.56 0 16 0 C16 5.28 16 10.56 16 16 C10.72 16 5.44 16 0 16 C0 10.72 0 5.44 0 0 Z " fill="#000000" transform="translate(48,216)"/>
<path d="M0 0 C5.28 0 10.56 0 16 0 C16 5.28 16 10.56 16 16 C10.72 16 5.44 16 0 16 C0 10.72 0 5.44 0 0 Z " fill="#000000" transform="translate(48,184)"/>
<path d="M0 0 C5.28 0 10.56 0 16 0 C16 5.28 16 10.56 16 16 C10.72 16 5.44 16 0 16 C0 10.72 0 5.44 0 0 Z " fill="#000000" transform="translate(48,152)"/>
<path d="M0 0 C5.28 0 10.56 0 16 0 C16 5.28 16 10.56 16 16 C10.72 16 5.44 16 0 16 C0 10.72 0 5.44 0 0 Z " fill="#000000" transform="translate(48,120)"/>
<path d="M0 0 C5.28 0 10.56 0 16 0 C16 5.28 16 10.56 16 16 C10.72 16 5.44 16 0 16 C0 10.72 0 5.44 0 0 Z " fill="#000000" transform="translate(48,88)"/>
<path d="M0 0 C5.28 0 10.56 0 16 0 C16 5.28 16 10.56 16 16 C10.72 16 5.44 16 0 16 C0 10.72 0 5.44 0 0 Z " fill="#000000" transform="translate(48,56)"/>
<path d="M0 0 C2.9375 2 2.9375 2 5 5 C5.38022707 7.91696592 5.0649833 10.26062629 4 13 C1.06162832 15.85194898 -0.53597436 16 -4.625 16 C-8 15 -8 15 -10 12.875 C-11.30782688 9.11499772 -11.06090617 6.81926223 -10 3 C-7.0879799 -0.34343049 -4.29142741 -0.70064121 0 0 Z " fill="#FEC5CB" transform="translate(275,152)"/>
<path d="M0 0 C2.0625 1.5625 2.0625 1.5625 3 4 C3.17821261 6.85140177 2.92914963 9.292848 2 12 C-0.93837168 14.85194898 -2.53597436 15 -6.625 15 C-10 14 -10 14 -12 11.875 C-13.30782688 8.11499772 -13.06090617 5.81926223 -12 2 C-8.81688665 -2.07438508 -4.54417813 -1.38635943 0 0 Z " fill="#FFC5CC" transform="translate(421,153)"/>
</svg>
