<?xml version="1.0" encoding="UTF-8"?>
<svg version="1.1" xmlns="http://www.w3.org/2000/svg" width="512" height="512">
<path d="M0 0 C0.78979248 0.00539795 1.57958496 0.0107959 2.39331055 0.01635742 C8.34499429 0.17183248 12.99090033 1.19214149 18.0625 4.4375 C19.073125 5.015 20.08375 5.5925 21.125 6.1875 C21.764375 6.6 22.40375 7.0125 23.0625 7.4375 C23.57039062 7.09976562 24.07828125 6.76203125 24.6015625 6.4140625 C25.63410156 5.74503906 25.63410156 5.74503906 26.6875 5.0625 C27.36039063 4.62164063 28.03328125 4.18078125 28.7265625 3.7265625 C37.28068365 -0.99393914 47.83608783 -0.69388465 57.265625 1.01953125 C66.72907633 3.98023959 74.05384704 10.93053738 79.125 19.3203125 C83.58794804 29.39913682 83.70230576 42.29553999 80.5625 52.8125 C76.07489614 64.17272796 68.66746735 72.05566266 60.0625 80.4375 C60.92939453 80.45208252 61.79628906 80.46666504 62.68945312 80.48168945 C65.94013607 80.54315012 69.19021977 80.61737623 72.44042969 80.69995117 C73.8407107 80.73297667 75.24111769 80.76107655 76.64160156 80.78393555 C94.02506217 81.0753131 94.02506217 81.0753131 100.3046875 86.3046875 C100.84351563 86.96726562 101.38234375 87.62984375 101.9375 88.3125 C102.49179687 88.96992187 103.04609375 89.62734375 103.6171875 90.3046875 C106.79061191 94.98763271 107.30949192 98.90927462 107.28955078 104.52270508 C107.28984283 105.21593872 107.29013489 105.90917236 107.29043579 106.62341309 C107.28904897 108.90141574 107.27351867 111.17908615 107.2578125 113.45703125 C107.25408006 115.0417208 107.25123418 116.62641266 107.24923706 118.21110535 C107.24161877 122.37204413 107.22198588 126.53284221 107.1998291 130.69372559 C107.17933172 134.94358416 107.17022703 139.19346557 107.16015625 143.44335938 C107.1387382 151.77480399 107.10462416 160.10613447 107.0625 168.4375 C108.29444092 168.42372314 109.52638184 168.40994629 110.7956543 168.39575195 C112.43017363 168.38460884 114.0646953 168.37380308 115.69921875 168.36328125 C116.9139386 168.34835632 116.9139386 168.34835632 118.15319824 168.33312988 C125.64707674 168.29698272 131.94656444 168.931204 137.9375 173.75 C143.64965782 180.9741996 145.1920653 185.45571265 145.17602539 194.61450195 C145.17617142 195.31748917 145.17631744 196.02047638 145.1764679 196.74476624 C145.17577441 199.05513659 145.16800857 201.36542508 145.16015625 203.67578125 C145.15829006 205.28289241 145.15686711 206.89000415 145.15586853 208.49711609 C145.15205915 212.71718937 145.14224239 216.93722797 145.13116455 221.1572876 C145.12091643 225.46748384 145.11636363 229.7776857 145.11132812 234.08789062 C145.10061867 242.53777629 145.08356127 250.98763383 145.0625 259.4375 C145.62122803 259.42178955 146.17995605 259.4060791 146.75561523 259.38989258 C149.3369699 259.32675076 151.9181613 259.28826296 154.5 259.25 C155.37849609 259.22486328 156.25699219 259.19972656 157.16210938 259.17382812 C164.76358503 259.08967895 170.89154992 260.46313486 177.375 264.5 C185.90103863 273.8191585 184.58759985 285.62615499 184.453125 297.4453125 C184.4456536 299.38157565 184.43996492 301.31784642 184.43597412 303.25411987 C184.42078851 308.32097691 184.38156849 313.38736662 184.3371582 318.45404053 C184.29605202 323.63596273 184.27793048 328.81796133 184.2578125 334 C184.21506672 344.14603732 184.14690215 354.29172962 184.0625 364.4375 C184.80298584 364.42178955 185.54347168 364.4060791 186.30639648 364.38989258 C189.70418473 364.32702461 193.10185004 364.28834559 196.5 364.25 C198.24700195 364.21229492 198.24700195 364.21229492 200.02929688 364.17382812 C209.52751442 364.0935615 217.53648707 365.24944492 225.0625 371.4375 C230.64965206 377.45340234 232.51814905 382.62906663 233.4375 390.75 C232.64597953 398.5332846 230.18396243 405.71777646 224.09639645 410.88458633 C215.74657553 417.25981307 206.87856329 416.98931697 196.80249023 416.89160156 C195.16571582 416.89047177 193.52893938 416.89110952 191.89216614 416.89337158 C187.47117261 416.89451451 183.05061732 416.87107392 178.62972522 416.84307575 C174.00130637 416.81799145 169.37287636 416.81571457 164.74440002 416.81097412 C155.98977624 416.79856494 147.23535336 416.7657713 138.48081785 416.72557616 C128.50984783 416.68079427 118.53886797 416.65885529 108.56782234 416.63879442 C88.06593629 416.59703677 67.56423083 416.52672488 47.0625 416.4375 C47.4625288 419.27406785 47.8819354 422.10553901 48.3125 424.9375 C48.42207031 425.72898437 48.53164063 426.52046875 48.64453125 427.3359375 C50.17992932 437.19480932 54.63144174 444.75846993 62.0625 451.4375 C69.4551665 456.20397668 77.36833111 458.47533764 86.10546875 459.18359375 C87.44076591 459.30000756 88.77605202 459.41654813 90.11132812 459.53320312 C92.17301747 459.70507152 94.23491026 459.87378886 96.29711914 460.03930664 C111.30190493 461.26282646 124.22958774 462.83259568 134.875 474.3125 C140.60436189 481.25154155 143.18808202 487.90653724 143.3125 496.875 C143.33828125 497.98746094 143.3640625 499.09992188 143.390625 500.24609375 C142.91316031 504.89000626 141.21466121 507.24734314 138.016325 510.55115318 C133.94374739 513.15194836 130.74254738 513.00091628 126.00442505 512.95889282 C125.09037616 512.96654392 124.17632726 512.97419501 123.23457992 512.98207796 C120.17063853 513.00272169 117.10744789 512.99475745 114.04345703 512.98681641 C111.8472016 512.99551036 109.65095224 513.00587657 107.45471191 513.01779175 C101.48771792 513.04459847 95.52097706 513.04572614 89.55393457 513.04066515 C84.57372489 513.0385274 79.5935666 513.0482882 74.61336792 513.05787599 C62.19248854 513.08134551 49.771722 513.07961101 37.35083853 513.06676237 C26.56957489 513.05642603 15.78867277 513.07892953 5.00748064 513.11695881 C-6.06798817 513.15572597 -17.14331001 513.17164305 -28.21885026 513.16471231 C-34.4348049 513.16108439 -40.65042848 513.16638068 -46.86632919 513.19414139 C-52.71222778 513.21927203 -58.55740247 513.21543567 -64.40328979 513.18931961 C-66.54828255 513.18458306 -68.69332605 513.19007565 -70.83826065 513.20656586 C-73.76816792 513.2274659 -76.69563819 513.21133542 -79.62545776 513.1859436 C-80.47322969 513.20069217 -81.32100162 513.21544074 -82.19446361 513.23063624 C-87.75604399 513.12931397 -90.60309679 511.75432048 -94.63597023 507.91900003 C-98.09307282 503.9838633 -97.25833856 499.10013301 -97.22265625 494.125 C-96.38898195 483.34433507 -90.38195131 475.54568256 -82.7421875 468.3671875 C-73.21170945 461.81000622 -62.74133585 461.38268802 -51.5625 460.4375 C-29.19417726 458.62180008 -29.19417726 458.62180008 -11 446.3671875 C-4.91490445 439.09042741 -3.14606589 432.41931644 -1.86328125 423.13671875 C-1.68837158 421.88076904 -1.51346191 420.62481934 -1.33325195 419.33081055 C-1.20265381 418.37601807 -1.07205566 417.42122559 -0.9375 416.4375 C-2.20695245 416.44441345 -2.20695245 416.44441345 -3.5020504 416.45146656 C-24.11814439 416.5620082 -44.73418713 416.64468696 -65.35051537 416.69656086 C-75.32053665 416.72231511 -85.29035981 416.75741243 -95.26025391 416.81469727 C-103.95255216 416.8646174 -112.64470687 416.89681121 -121.33714449 416.90794247 C-125.93750255 416.91444667 -130.53745008 416.92967514 -135.13767624 416.96615028 C-139.4731973 417.00024604 -143.80814116 417.01052577 -148.14378357 417.00303841 C-149.72959664 417.00440692 -151.31543027 417.01425851 -152.90112686 417.03352737 C-162.96964902 417.14981092 -171.28748006 416.51668516 -179.06665611 409.52345753 C-184.34573761 404.16376379 -186.50696768 398.38404631 -187.3125 391 C-186.37461429 382.09008577 -183.8462059 375.38475578 -176.9375 369.4375 C-170.81679996 365.43059011 -165.0362631 364.30400856 -157.76171875 364.33984375 C-156.60478516 364.34306641 -155.44785156 364.34628906 -154.25585938 364.34960938 C-153.05767578 364.35798828 -151.85949219 364.36636719 -150.625 364.375 C-148.7987207 364.38176758 -148.7987207 364.38176758 -146.93554688 364.38867188 C-143.93614774 364.40043422 -140.93684911 364.41687174 -137.9375 364.4375 C-137.94638245 363.36976349 -137.95526489 362.30202698 -137.9644165 361.20193481 C-138.04571589 351.10983468 -138.10556763 341.01780151 -138.14474869 330.92544746 C-138.1655697 325.73759371 -138.1937867 320.5500056 -138.23925781 315.36230469 C-138.28291174 310.35021246 -138.30667832 305.33837479 -138.31700897 300.32610703 C-138.32436537 298.41964591 -138.33873032 296.51319778 -138.36042023 294.60684586 C-138.60141918 272.53527213 -138.60141918 272.53527213 -131.25 264.5 C-123.86550432 259.90210646 -116.95126253 259.00460437 -108.375 259.25 C-107.46169922 259.26353516 -106.54839844 259.27707031 -105.60742188 259.29101562 C-103.38346741 259.32594685 -101.16082048 259.37498414 -98.9375 259.4375 C-98.94749275 258.11444603 -98.94749275 258.11444603 -98.95768738 256.7646637 C-99.01797566 248.42344286 -99.06356414 240.08229595 -99.09293652 231.74090672 C-99.10854516 227.45323398 -99.12969488 223.16574236 -99.16381836 218.87817383 C-99.19658417 214.73493118 -99.21438907 210.59186197 -99.22213173 206.44849968 C-99.2276445 204.87336436 -99.23840913 203.29823777 -99.25469017 201.72317696 C-99.44462996 182.57411482 -99.44462996 182.57411482 -93.5 175.5625 C-92.654375 174.86125 -91.80875 174.16 -90.9375 173.4375 C-90.339375 172.880625 -89.74125 172.32375 -89.125 171.75 C-83.08973009 168.12883806 -76.25397579 168.16817722 -69.4375 168.3125 C-68.61507812 168.32152344 -67.79265625 168.33054688 -66.9453125 168.33984375 C-64.94257917 168.36313135 -62.93999846 168.39899041 -60.9375 168.4375 C-60.94638245 167.56577148 -60.95526489 166.69404297 -60.9644165 165.79589844 C-61.04475738 157.55740425 -61.1055632 149.31904273 -61.14474869 141.08024597 C-61.16557209 136.84515593 -61.19379279 132.61039116 -61.23925781 128.37548828 C-61.28290424 124.28410674 -61.30667653 120.19303693 -61.31700897 116.10144043 C-61.3243668 114.54499407 -61.33873476 112.98856365 -61.36042023 111.43225098 C-61.48498807 102.11695053 -61.50629803 94.84078169 -55.2265625 87.4140625 C-54.40285156 86.74503906 -54.40285156 86.74503906 -53.5625 86.0625 C-53.01851562 85.60101563 -52.47453125 85.13953125 -51.9140625 84.6640625 C-47.12759224 81.6938023 -42.32561086 81.16540028 -36.7890625 81.0234375 C-36.13167084 81.00407135 -35.47427917 80.9847052 -34.79696655 80.9647522 C-32.71893865 80.90547539 -30.64085376 80.85878206 -28.5625 80.8125 C-27.1445085 80.77427222 -25.72653903 80.73521777 -24.30859375 80.6953125 C-20.85176539 80.59981829 -17.39477017 80.51559811 -13.9375 80.4375 C-14.71013184 79.70644043 -15.48276367 78.97538086 -16.27880859 78.22216797 C-27.5628267 67.4524403 -35.77938592 55.7650398 -36.40795898 39.68530273 C-36.55197171 28.11786753 -34.00101295 19.05526772 -25.9375 10.4375 C-18.0819086 3.17945823 -10.69696528 -0.14028433 0 0 Z " fill="#020102" transform="translate(232.9375,-0.4375)"/>
<path d="M0 0 C2.05894513 0.96816927 3.8808002 2.07374755 5.77734375 3.33203125 C7.65177127 4.54125245 9.52680827 5.74952924 11.40234375 6.95703125 C12.28148437 7.54742187 13.160625 8.1378125 14.06640625 8.74609375 C21.94065839 13.35264471 30.82208566 13.54258167 39.640625 11.75 C44.61252432 10.13689489 48.62884416 7.80886232 52.86865234 4.82861328 C59.25194115 0.3674755 63.79751096 -1.86744818 71.88671875 -1.22265625 C76.12145022 -0.41004562 79.20147584 0.95958043 82.77734375 3.33203125 C84.65177127 4.54125245 86.52680827 5.74952924 88.40234375 6.95703125 C89.28148437 7.54742187 90.160625 8.1378125 91.06640625 8.74609375 C98.94065839 13.35264471 107.82208566 13.54258167 116.640625 11.75 C121.61252432 10.13689489 125.62884416 7.80886232 129.86865234 4.82861328 C136.24984763 0.36893861 140.79289462 -1.86287092 148.87890625 -1.2265625 C154.98861915 -0.04908414 159.21293419 2.94074174 164.27734375 6.39453125 C172.92053023 12.1908957 180.3027944 13.36406499 190.77734375 12.33203125 C198.27653567 10.58624572 204.66678118 6.1216459 211.08984375 2.0390625 C216.78319251 -1.57720699 222.14103357 -1.10006266 228.77734375 -0.66796875 C231.90234375 0.39453125 231.90234375 0.39453125 234.77734375 2.33203125 C236.60850985 3.5020966 238.44208822 4.66839068 240.27734375 5.83203125 C241.17453125 6.41984375 242.07171875 7.00765625 242.99609375 7.61328125 C245.82282076 9.36013502 248.80522213 10.84597044 251.77734375 12.33203125 C251.77734375 23.55203125 251.77734375 34.77203125 251.77734375 46.33203125 C248.8421283 46.33567688 245.90691284 46.33932251 242.88275146 46.34307861 C215.97803377 46.37834114 189.07340178 46.43335148 162.16877155 46.5099522 C158.64392754 46.51996989 155.11908307 46.52981398 151.59423828 46.53955078 C150.54162044 46.54246284 150.54162044 46.54246284 149.46773759 46.54543373 C138.09905781 46.57647093 126.73039822 46.59343917 115.36168405 46.60522547 C103.69987734 46.61762815 92.03818282 46.64540767 80.37644219 46.68664432 C73.82469377 46.70932225 67.273097 46.72493814 60.72130585 46.7239151 C54.55876748 46.72317223 48.39656516 46.74097266 42.23411369 46.77319908 C39.96855386 46.78174098 37.70295652 46.78341916 35.43738747 46.77783394 C32.3511512 46.7712371 29.26599775 46.78901136 26.17987061 46.81304932 C24.82578838 46.80140869 24.82578838 46.80140869 23.44435096 46.7895329 C18.48151966 46.84108608 18.48151966 46.84108608 14.20921707 49.20431137 C12.44159229 51.83094763 12.37863482 53.22210159 12.77734375 56.33203125 C13.10734375 57.32203125 13.43734375 58.31203125 13.77734375 59.33203125 C16.66038837 60.29304612 18.46405243 60.45862771 21.45853233 60.46231651 C22.42632256 60.46594086 23.39411278 60.46956521 24.39122999 60.47329938 C25.45687354 60.47223113 26.5225171 60.47116288 27.62045288 60.47006226 C29.31572205 60.47429418 29.31572205 60.47429418 31.04523909 60.47861159 C34.8522691 60.48697972 38.65927012 60.48829772 42.46630859 60.48974609 C45.18767007 60.49384546 47.90902771 60.49948916 50.63038635 60.50514221 C56.50058202 60.51667251 62.37077482 60.52491436 68.24097824 60.53126144 C77.51757454 60.54158176 86.79413494 60.56214353 96.07070923 60.5843811 C99.24354351 60.59186093 102.41637794 60.59927464 105.58921242 60.60666847 C106.7786264 60.60944432 106.7786264 60.60944432 107.99206894 60.61227625 C117.02009976 60.63320717 126.04813455 60.65203394 135.07617188 60.66992188 C136.31426023 60.67237915 136.31426023 60.67237915 137.57736047 60.67488606 C150.95626253 60.70117707 164.33516735 60.71981718 177.71408431 60.73651378 C191.44501664 60.75392669 205.17589471 60.78276294 218.9067837 60.82140315 C227.37896075 60.84481733 235.85104935 60.85879899 244.32325901 60.86073078 C250.12801806 60.86283813 255.93268908 60.87575024 261.73740862 60.89721011 C265.08793349 60.9092527 268.43813523 60.91475424 271.78870201 60.91049767 C275.41941667 60.90662111 279.04961121 60.92099944 282.68026733 60.94003296 C284.2720405 60.93173842 284.2720405 60.93173842 285.8959707 60.92327631 C294.91351485 61.00520148 294.91351485 61.00520148 298.77734375 64.33203125 C301.23875622 68.02414995 301.46384582 71.0455793 300.77734375 75.33203125 C298.61070555 78.89150829 296.62782995 80.82230062 292.77734375 82.33203125 C289.89576685 82.58618158 289.89576685 82.58618158 286.47663307 82.59209347 C285.17306252 82.59915906 283.86949197 82.60622465 282.52641928 82.61350435 C281.07633854 82.6112529 279.6262581 82.6088064 278.17617798 82.60618591 C276.63844872 82.6106371 275.10072176 82.61595075 273.56299818 82.62205464 C269.3308146 82.6362592 265.09870438 82.63789747 260.86650038 82.63745773 C256.30470727 82.63910375 251.74294458 82.65216615 247.1811676 82.66365051 C237.20404751 82.68651519 227.22694867 82.69442251 217.24980593 82.69947696 C211.02239318 82.70273188 204.79498661 82.70925307 198.56757736 82.71647835 C181.33178977 82.73604519 164.09600793 82.75244924 146.86020851 82.75535488 C145.75693937 82.75554245 144.65367023 82.75573002 143.51696869 82.75592327 C141.28030006 82.75628953 139.04363143 82.75665323 136.8069628 82.75701439 C135.14149571 82.7572886 135.14149571 82.7572886 133.44238281 82.75756836 C131.77488765 82.75783918 131.77488765 82.75783918 130.07370572 82.75811548 C112.05251732 82.76165867 94.03144829 82.78868976 76.01030131 82.82606625 C57.51635634 82.86411704 39.02247066 82.88351212 20.52848566 82.88381439 C10.14144485 82.88439965 -0.24545351 82.89293549 -10.63245773 82.92181206 C-19.4753727 82.94628265 -28.31809326 82.95363805 -37.1610329 82.93856453 C-41.67424015 82.9313782 -46.18706317 82.93232695 -50.70022774 82.95497513 C-54.83075567 82.97550494 -58.96060252 82.97302157 -63.09112258 82.95210028 C-64.5863943 82.94859385 -66.08171456 82.95356415 -67.57692258 82.96780472 C-80.14927474 83.07984106 -80.14927474 83.07984106 -84.08860207 79.91861057 C-87.05611346 76.32183985 -87.6116666 74.0880957 -87.5859375 69.37109375 C-86.98231022 65.98299225 -84.80706145 64.41216226 -82.22265625 62.33203125 C-81.72765625 61.83703125 -81.72765625 61.83703125 -81.22265625 61.33203125 C-79.1582824 61.21343425 -77.08987717 61.16460588 -75.0222168 61.14257812 C-74.37500671 61.13428482 -73.72779663 61.12599152 -73.06097412 61.1174469 C-71.65102813 61.10001031 -70.24105258 61.08485345 -68.83106041 61.07167053 C-66.59927598 61.05068629 -64.3676387 61.02365751 -62.13594055 60.99499512 C-57.39406888 60.93520043 -52.65212847 60.88313473 -47.91015625 60.83203125 C-42.42651104 60.77279134 -36.94293727 60.71040101 -31.45942116 60.64015198 C-29.26143802 60.61360808 -27.06344771 60.59277024 -24.86540222 60.57214355 C-23.51402449 60.55553367 -22.16264994 60.53866122 -20.8112793 60.52148438 C-19.04375557 60.50269226 -19.04375557 60.50269226 -17.24052429 60.48352051 C-14.71785773 60.3568891 -12.62371622 60.07003106 -10.22265625 59.33203125 C-9.97515625 58.09453125 -9.72765625 56.85703125 -9.47265625 55.58203125 C-9.3334375 54.8859375 -9.19421875 54.18984375 -9.05078125 53.47265625 C-9.03723423 51.17104413 -9.03723423 51.17104413 -10.8671875 49.23632812 C-13.79403453 46.87009608 -15.35405877 46.79873732 -19.08203125 46.72265625 C-20.08717773 46.69204102 -21.09232422 46.66142578 -22.12792969 46.62988281 C-23.39668945 46.6140918 -24.66544922 46.59830078 -25.97265625 46.58203125 C-32.03640625 46.45828125 -32.03640625 46.45828125 -38.22265625 46.33203125 C-38.22265625 35.11203125 -38.22265625 23.89203125 -38.22265625 12.33203125 C-33.60265625 10.02203125 -28.98265625 7.71203125 -24.22265625 5.33203125 C-22.71703125 4.19765625 -21.21140625 3.06328125 -19.66015625 1.89453125 C-13.83428607 -2.15966572 -6.65881984 -2.00115675 0 0 Z " fill="#FEEBE2" transform="translate(149.22265625,318.66796875)"/>
<path d="M0 0 C3.71628123 2.08813848 7.27914104 4.39058347 10.8203125 6.76171875 C18.67347262 11.5926021 28.3173527 11.68211653 37.2109375 9.73046875 C43.47593729 7.40170238 49.09211608 3.62608461 54.7109375 0.0546875 C59.68151891 -3.10249866 63.56707638 -3.25529098 69.3984375 -2.65234375 C75.32491701 -0.77844737 80.50290097 3.29987656 85.58984375 6.76171875 C88.9380946 8.79657662 88.9380946 8.79657662 95.3984375 10.34765625 C95.3984375 15.29765625 95.3984375 20.24765625 95.3984375 25.34765625 C93.73593208 25.35645561 93.73593208 25.35645561 92.0398407 25.36543274 C81.60688489 25.42258686 71.17413898 25.49530995 60.7413969 25.58337116 C55.37749921 25.62814405 50.01367869 25.66738484 44.6496582 25.6940918 C39.47536857 25.72005583 34.30137482 25.76040901 29.12726784 25.81084251 C27.1509042 25.82755804 25.17448932 25.83904304 23.1980648 25.84527016 C20.43470437 25.85486043 17.672109 25.88285821 14.90893555 25.9152832 C14.08750565 25.91384811 13.26607574 25.91241302 12.41975403 25.91093445 C8.27119062 25.87335862 8.27119062 25.87335862 4.69205952 27.68898296 C3.1456724 29.39121194 3.1456724 29.39121194 2.9609375 32.28515625 C3.50163591 36.07004512 4.45704135 36.98552321 7.3984375 39.34765625 C9.82178837 39.93937128 9.82178837 39.93937128 12.49085999 39.84645081 C13.51854996 39.85602814 14.54623993 39.86560547 15.60507202 39.87547302 C17.28761581 39.86085777 17.28761581 39.86085777 19.00415039 39.84594727 C20.18985123 39.85146606 21.37555206 39.85698486 22.59718323 39.8626709 C25.84517291 39.87443689 29.09259879 39.86878212 32.34056783 39.8563664 C35.73983411 39.84832428 39.13896336 39.86515411 42.53819275 39.88011169 C50.44409529 39.91092271 58.34986974 39.91243275 66.25582123 39.91046143 C76.32288205 39.9090682 86.38984478 39.91937196 96.45683283 39.95903915 C99.84117083 39.97153693 103.2252529 39.9771537 106.60960579 39.9675312 C110.38058583 39.95833911 114.1511561 39.96676325 117.92211914 39.97875977 C119.04583923 39.9710405 120.16955933 39.96332123 121.32733154 39.95536804 C122.35220169 39.96212555 123.37707184 39.96888306 124.43299866 39.97584534 C125.32470796 39.97525903 126.21641726 39.97467272 127.13514805 39.97406864 C129.88271593 40.42759318 130.77364486 41.11439986 132.3984375 43.34765625 C132.73901367 46.3503418 132.73901367 46.3503418 132.69140625 49.984375 C132.68173828 51.28310547 132.67207031 52.58183594 132.66210938 53.91992188 C132.63704335 55.29167264 132.61164851 56.66341743 132.5859375 58.03515625 C132.5708877 59.41860549 132.5571998 60.80207026 132.54492188 62.18554688 C132.50950973 65.57330832 132.46011804 68.96028764 132.3984375 72.34765625 C131.74399658 72.59435059 131.08955566 72.84104492 130.4152832 73.09521484 C125.46908453 75.00743555 120.99132893 76.97408397 116.5859375 79.97265625 C109.91725995 84.48411019 104.48505777 86.52191099 96.3984375 85.34765625 C93.1382225 84.05576833 90.32001992 82.27369945 87.3984375 80.34765625 C77.2440663 73.77623565 68.63889195 71.08029596 56.3984375 72.34765625 C49.53513616 74.04568784 44.29079705 77.69041378 38.63671875 81.796875 C34.10299237 84.93804319 29.40160687 85.97324538 23.94921875 85.86328125 C19.57833537 84.97973361 16.1385745 82.58681658 12.40234375 80.234375 C9.62197433 78.48805715 6.83092836 76.94537993 3.8984375 75.47265625 C3.125 75.08335937 2.3515625 74.6940625 1.5546875 74.29296875 C-5.28827072 71.2929762 -13.87208476 71.16904037 -21.0625 72.9609375 C-26.95469694 75.44705033 -32.31934085 79.18622558 -37.68359375 82.640625 C-42.75874835 85.60962441 -47.80037315 86.15564663 -53.6015625 85.34765625 C-59.28992917 83.2288056 -64.43338746 79.98386861 -69.421875 76.55859375 C-72.67530173 74.75113445 -76.10072953 73.6067916 -79.6015625 72.34765625 C-79.67576461 68.27262831 -79.7301882 64.19786233 -79.76635742 60.12231445 C-79.78143647 58.73617706 -79.801903 57.35008731 -79.82788086 55.96411133 C-79.86429966 53.97107479 -79.87969268 51.97768902 -79.89453125 49.984375 C-79.91809692 48.18552856 -79.91809692 48.18552856 -79.94213867 46.3503418 C-79.6015625 43.34765625 -79.6015625 43.34765625 -78.40740967 41.68304443 C-75.96668492 39.87817687 -74.38810391 39.97567106 -71.36743164 39.97875977 C-70.29944839 39.97187637 -69.23146515 39.96499298 -68.13111877 39.957901 C-66.40139076 39.96713844 -66.40139076 39.96713844 -64.63671875 39.9765625 C-62.20377462 39.95918174 -59.77083195 39.94159734 -57.33789062 39.92382812 C-53.4951717 39.91374354 -49.65254608 39.91016136 -45.80981445 39.91186523 C-42.10599714 39.90830319 -38.40290715 39.88098818 -34.69921875 39.8515625 C-32.97252708 39.86383629 -32.97252708 39.86383629 -31.21095276 39.87635803 C-30.13981735 39.86632248 -29.06868195 39.85628693 -27.96508789 39.84594727 C-26.55302818 39.84619652 -26.55302818 39.84619652 -25.11244202 39.84645081 C-21.83406298 39.19518992 -20.64170394 37.94622058 -18.6015625 35.34765625 C-17.93475882 32.30486253 -17.93475882 32.30486253 -18.6015625 29.34765625 C-21.43665549 26.64633173 -23.49946738 25.95990289 -27.3671875 25.8359375 C-28.25664062 25.80048828 -29.14609375 25.76503906 -30.0625 25.72851562 C-30.98289063 25.70595703 -31.90328125 25.68339844 -32.8515625 25.66015625 C-33.78742188 25.62599609 -34.72328125 25.59183594 -35.6875 25.55664062 C-37.99177096 25.47434523 -40.29664713 25.40931912 -42.6015625 25.34765625 C-42.6015625 20.72765625 -42.6015625 16.10765625 -42.6015625 11.34765625 C-41.25964844 10.69410156 -41.25964844 10.69410156 -39.890625 10.02734375 C-33.27709107 6.7788155 -26.83637586 3.43811036 -20.58984375 -0.48828125 C-13.8855767 -4.41337277 -6.68674701 -3.27298669 0 0 Z " fill="#FEBDE4" transform="translate(229.6015625,143.65234375)"/>
<path d="M0 0 C0.99340739 -0.00583219 1.98681479 -0.01166439 3.01032543 -0.01767331 C4.65169208 -0.01200433 4.65169208 -0.01200433 6.32621765 -0.00622082 C7.4863931 -0.01004636 8.64656855 -0.01387191 9.84190083 -0.01781338 C13.06742478 -0.02636573 16.29280404 -0.02590249 19.518332 -0.02163279 C22.99486406 -0.0191721 26.47136901 -0.02817148 29.94789124 -0.03567028 C36.76046327 -0.04843721 43.57299593 -0.05020853 50.38557792 -0.04787002 C55.92085952 -0.04608908 61.45612914 -0.04783166 66.9914093 -0.05209446 C67.77833926 -0.05268965 68.56526921 -0.05328484 69.37604553 -0.05389806 C70.97453173 -0.05510977 72.57301794 -0.05632391 74.17150414 -0.05754044 C89.17085412 -0.06842346 104.17018164 -0.06624976 119.1695329 -0.06015559 C132.90224597 -0.05498457 146.63488816 -0.06624541 160.36758721 -0.08525381 C174.45782802 -0.1046081 188.54803525 -0.11289253 202.63828945 -0.10913056 C210.55313894 -0.107215 218.46792805 -0.10974058 226.38276672 -0.1238451 C233.11992969 -0.13572917 239.85699513 -0.13719732 246.59415936 -0.12505493 C250.03351785 -0.11914547 253.47269769 -0.11812339 256.91204453 -0.13005733 C260.63539424 -0.14042908 264.35825721 -0.1325012 268.08158875 -0.11974621 C269.17583318 -0.12712049 270.27007761 -0.13449478 271.39748096 -0.14209253 C272.39088836 -0.13488598 273.38429575 -0.12767944 274.4078064 -0.12025452 C275.69774521 -0.12033704 275.69774521 -0.12033704 277.0137434 -0.12042123 C279.72522815 0.34371249 280.6117533 1.03293895 282.2039032 3.25447559 C282.46549642 6.05436688 282.55294658 8.62675489 282.49687195 11.42244434 C282.49262711 12.21725712 282.48838226 13.01206989 282.48400879 13.8309679 C282.4672225 16.3683158 282.42957144 18.90486797 282.3914032 21.44197559 C282.37635625 23.16266724 282.36266786 24.88337135 282.35038757 26.60408497 C282.31731927 30.82118821 282.26553814 35.03769701 282.2039032 39.25447559 C277.68515705 37.49969584 273.80801377 35.2570447 269.7039032 32.69197559 C261.54348747 27.99973655 252.40868709 28.08718123 243.2039032 29.25447559 C236.01482112 31.54365082 230.222293 35.83280145 224.2039032 40.25447559 C219.52880191 42.90791146 214.43818799 43.01454389 209.2039032 42.25447559 C205.94274687 40.96221467 203.13046435 39.17394074 200.2039032 37.25447559 C198.47950688 36.18425087 196.75026058 35.12180363 195.0164032 34.06697559 C194.23909851 33.57842091 193.46179382 33.08986622 192.66093445 32.58650684 C184.29625225 28.05175863 172.75024014 27.63574609 163.5789032 30.19197559 C158.72761816 32.11559925 154.37134051 35.18963924 150.07450867 38.1175127 C144.70062784 41.7623992 144.70062784 41.7623992 141.2039032 42.25447559 C140.5645282 42.36791309 139.9251532 42.48135059 139.2664032 42.59822559 C130.43795888 43.26704713 123.8143609 37.81025869 116.8914032 32.94197559 C108.88178384 27.91267972 98.34265894 28.20710293 89.2039032 29.25447559 C85.39407489 30.36278928 82.47062805 32.03442481 79.2039032 34.25447559 C78.22292664 34.86678028 77.24195007 35.47908497 76.23124695 36.10994434 C74.29400208 37.32228468 72.36702936 38.55129657 70.4539032 39.80135059 C65.56987688 42.95561759 60.85299835 43.02382061 55.18437195 41.82869434 C50.09133363 40.13793009 46.04291675 37.19722132 41.79374695 33.97322559 C35.51783995 29.80821944 30.17740203 28.72438115 22.8289032 28.81697559 C21.56155334 28.8294231 21.56155334 28.8294231 20.26860046 28.84212208 C10.16030931 29.1171177 4.26934779 32.90525552 -3.72969055 38.86385059 C-5.7960968 40.25447559 -5.7960968 40.25447559 -7.7960968 40.25447559 C-7.8701292 34.87934371 -7.92464249 29.50450706 -7.96089172 24.12898731 C-7.97599931 22.29950766 -7.99648648 20.47006435 -8.02241516 18.64070606 C-8.05871265 16.01447567 -8.07580295 13.3887231 -8.08906555 10.76228809 C-8.10454941 9.94140705 -8.12003326 9.12052601 -8.13598633 8.27476978 C-8.13667297 5.96980762 -8.13667297 5.96980762 -7.7960968 2.25447559 C-4.56685038 0.10164465 -3.71928652 0.00374877 0 0 Z " fill="#FDBCE3" transform="translate(118.79609680175781,274.7455244064331)"/>
<path d="M0 0 C6.6 0 13.2 0 20 0 C20.99 2.97 20.99 2.97 22 6 C24.88304462 6.96101487 26.68670868 7.12659646 29.68118858 7.13028526 C30.64897881 7.13390961 31.61676903 7.13753396 32.61388624 7.14126813 C33.67952979 7.14019988 34.74517335 7.13913163 35.84310913 7.13803101 C37.5383783 7.14226293 37.5383783 7.14226293 39.26789534 7.14658034 C43.07492535 7.15494847 46.88192637 7.15626647 50.68896484 7.15771484 C53.41032632 7.16181421 56.13168396 7.16745791 58.8530426 7.17311096 C64.72323827 7.18464126 70.59343107 7.19288311 76.46363449 7.19923019 C85.74023079 7.20955051 95.01679119 7.23011228 104.29336548 7.25234985 C107.46619976 7.25982968 110.63903419 7.26724339 113.81186867 7.27463722 C115.00128265 7.27741307 115.00128265 7.27741307 116.21472519 7.280245 C125.24275601 7.30117592 134.2707908 7.32000269 143.29882812 7.33789062 C144.53691648 7.3403479 144.53691648 7.3403479 145.80001672 7.34285481 C159.17891878 7.36914582 172.5578236 7.38778593 185.93674056 7.40448253 C199.66767289 7.42189544 213.39855096 7.45073169 227.12943995 7.4893719 C235.601617 7.51278608 244.0737056 7.52676774 252.54591526 7.52869953 C258.35067431 7.53080688 264.15534533 7.54371899 269.96006487 7.56517886 C273.31058974 7.57722145 276.66079148 7.58272299 280.01135826 7.57846642 C283.64207292 7.57458986 287.27226746 7.58896819 290.90292358 7.60800171 C292.49469675 7.59970717 292.49469675 7.59970717 294.11862695 7.59124506 C303.1361711 7.67317023 303.1361711 7.67317023 307 11 C309.46141247 14.6921187 309.68650207 17.71354805 309 22 C306.8333618 25.55947704 304.8504862 27.49026937 301 29 C298.1184231 29.25415033 298.1184231 29.25415033 294.69928932 29.26006222 C293.39571877 29.26712781 292.09214822 29.2741934 290.74907553 29.2814731 C289.29899479 29.27922165 287.84891435 29.27677515 286.39883423 29.27415466 C284.86110497 29.27860585 283.32337801 29.2839195 281.78565443 29.29002339 C277.55347085 29.30422795 273.32136063 29.30586622 269.08915663 29.30542648 C264.52736352 29.3070725 259.96560083 29.3201349 255.40382385 29.33161926 C245.42670376 29.35448394 235.44960492 29.36239126 225.47246218 29.36744571 C219.24504943 29.37070063 213.01764286 29.37722182 206.79023361 29.3844471 C189.55444602 29.40401394 172.31866418 29.42041799 155.08286476 29.42332363 C153.97959562 29.4235112 152.87632648 29.42369877 151.73962494 29.42389202 C149.50295631 29.42425828 147.26628768 29.42462198 145.02961905 29.42498314 C143.36415196 29.42525735 143.36415196 29.42525735 141.66503906 29.42553711 C139.9975439 29.42580793 139.9975439 29.42580793 138.29636197 29.42608423 C120.27517357 29.42962742 102.25410454 29.45665851 84.23295756 29.494035 C65.73901259 29.53208579 47.24512691 29.55148087 28.75114191 29.55178314 C18.3641011 29.5523684 7.97720274 29.56090424 -2.40980148 29.58978081 C-11.25271645 29.6142514 -20.09543701 29.6216068 -28.93837665 29.60653328 C-33.4515839 29.59934695 -37.96440692 29.6002957 -42.47757149 29.62294388 C-46.60809942 29.64347369 -50.73794627 29.64099032 -54.86846633 29.62006903 C-56.36373805 29.6165626 -57.85905831 29.6215329 -59.35426633 29.63577347 C-71.92661849 29.74780981 -71.92661849 29.74780981 -75.86594582 26.58657932 C-78.83345721 22.9898086 -79.38901035 20.75606445 -79.36328125 16.0390625 C-78.75965397 12.650961 -76.5844052 11.08013101 -74 9 C-73.67 8.67 -73.34 8.34 -73 8 C-70.93562615 7.881403 -68.86722092 7.83257463 -66.79956055 7.81054688 C-66.15235046 7.80225357 -65.50514038 7.79396027 -64.83831787 7.78541565 C-63.42837188 7.76797906 -62.01839633 7.7528222 -60.60840416 7.73963928 C-58.37661973 7.71865504 -56.14498245 7.69162626 -53.9132843 7.66296387 C-49.17141263 7.60316918 -44.42947222 7.55110348 -39.6875 7.5 C-34.20385479 7.44076009 -28.72028102 7.37836976 -23.23676491 7.30812073 C-21.03878177 7.28157683 -18.84079146 7.26073899 -16.64274597 7.2401123 C-15.29136824 7.22350242 -13.93999369 7.20662997 -12.58862305 7.18945312 C-10.82109932 7.17066101 -10.82109932 7.17066101 -9.01786804 7.15148926 C-5.36648392 7.10126143 -5.36648392 7.10126143 -2 6 C-1.34 4.02 -0.68 2.04 0 0 Z " fill="#DEDEDE" transform="translate(141,372)"/>
<path d="M0 0 C5.94 0 11.88 0 18 0 C18.2475 2.7225 18.495 5.445 18.75 8.25 C20.31926922 23.04939537 24.95189301 34.90848481 35.92578125 45.33984375 C45.52458274 53.02250031 55.98252831 57.10318068 68.12890625 58.02734375 C69.8405178 58.18138517 71.55210567 58.33568995 73.26367188 58.49023438 C75.918128 58.71694512 78.57289839 58.93834471 81.22827148 59.15405273 C83.82156529 59.36878407 86.41251666 59.60337994 89.00390625 59.83984375 C90.17923668 59.92600197 90.17923668 59.92600197 91.37831116 60.01390076 C97.73269373 60.60689127 103.14429709 62.53571583 108.0234375 66.74609375 C111.78306996 71.45106732 114 74.78523922 114 81 C44.7 81 -24.6 81 -96 81 C-94.8055896 72.63912722 -92.45851176 69.20544992 -86.4375 63.625 C-78.35977473 59.80643897 -68.51951613 59.81759297 -59.7121582 59.06347656 C-39.6436977 57.27862491 -24.25227712 53.24783863 -10.78515625 37.37109375 C-2.51729918 26.38949803 -0.80657837 13.38920089 0 0 Z " fill="#C4BFC6" transform="translate(247,416)"/>
<path d="M0 0 C1.66568527 -0.01268921 1.66568527 -0.01268921 3.36502075 -0.02563477 C5.19321854 -0.01652573 5.19321854 -0.01652573 7.05834961 -0.00723267 C8.34144012 -0.01248962 9.62453064 -0.01774658 10.94650269 -0.02316284 C14.4671616 -0.03685185 17.98755709 -0.03153143 21.50822067 -0.02202559 C25.19038357 -0.01443712 28.87252373 -0.02147233 32.5546875 -0.02618408 C38.73856664 -0.03164402 44.92233834 -0.02444383 51.10620117 -0.01016235 C58.25844845 0.0061647 65.41043919 0.00087635 72.56268024 -0.01564157 C78.70033879 -0.02924971 84.83792004 -0.03117942 90.9755888 -0.02332556 C94.64271437 -0.01864531 98.30971931 -0.01803376 101.97683716 -0.02793503 C106.06405871 -0.03819947 110.15083707 -0.02397836 114.23803711 -0.00723267 C115.45683563 -0.01330536 116.67563416 -0.01937805 117.93136597 -0.02563477 C119.59705124 -0.01294556 119.59705124 -0.01294556 121.29638672 0 C122.74651405 0.00169662 122.74651405 0.00169662 124.22593689 0.00342751 C126.64819336 0.38095093 126.64819336 0.38095093 128.46139526 1.65971947 C130.60018158 4.76163403 130.00838132 8.56897116 129.94116211 12.20516968 C129.93691727 13.06657059 129.93267242 13.9279715 129.92829895 14.81547546 C129.91150584 17.56678524 129.87385292 20.31736255 129.83569336 23.06845093 C129.82064732 24.93367472 129.80695877 26.79891 129.79467773 28.66415405 C129.76160029 33.23670191 129.70981396 37.80870223 129.64819336 42.38095093 C125.85330353 40.92143892 122.71356367 39.21654745 119.33569336 36.94345093 C109.98417968 30.97439964 102.92248336 29.27137714 91.64819336 30.38095093 C84.28347359 32.07313365 78.39513138 36.34849764 72.31225586 40.67391968 C67.22352752 43.93458578 61.56503909 44.28337632 55.64819336 43.38095093 C52.05618725 41.74672525 48.90820242 39.59068593 45.64819336 37.38095093 C35.80936851 31.51580332 27.73263915 28.95177799 16.14038086 30.77548218 C9.36925884 32.50736982 3.59036791 36.07010064 -2.34790039 39.63876343 C-5.35180664 41.38095093 -5.35180664 41.38095093 -8.35180664 42.38095093 C-8.42592035 36.88171344 -8.48039128 31.38276614 -8.51660156 25.88314819 C-8.53169537 24.01200294 -8.55217253 22.1408931 -8.578125 20.26986694 C-8.61448257 17.58154567 -8.63152679 14.89369179 -8.64477539 12.20516968 C-8.66025925 11.36757614 -8.6757431 10.5299826 -8.69169617 9.66700745 C-8.69337712 3.87633583 -8.69337712 3.87633583 -7.16500854 1.65971947 C-4.68788696 -0.08728132 -3.02033835 0.00353373 0 0 Z " fill="#FDBCE3" transform="translate(195.351806640625,96.61904907226563)"/>
<path d="M0 0 C4.243817 2.40167331 8.30496042 5.13404967 12.3515625 7.8515625 C20.31510473 12.51034945 29.94432488 12.79709447 38.83984375 10.8203125 C44.94012594 8.58584933 50.13073438 4.89029903 55.3984375 1.14453125 C60.24380755 -1.9602 65.41527286 -2.36404192 71.0625 -1.5625 C74.29948215 -0.24959815 77.1327973 1.54816074 80.0625 3.4375 C81.80922378 4.50537747 83.55925721 5.56785953 85.3125 6.625 C86.10140625 7.11355469 86.8903125 7.60210937 87.703125 8.10546875 C95.82289562 12.68964388 105.14717738 12.71875001 114.125 10.4375 C119.67927829 8.54294584 124.49579995 5.27537563 129.375 2.08203125 C132.0625 0.4375 132.0625 0.4375 134.0625 0.4375 C134.0625 9.6775 134.0625 18.9175 134.0625 28.4375 C64.1025 28.4375 -5.8575 28.4375 -77.9375 28.4375 C-77.9375 19.1975 -77.9375 9.9575 -77.9375 0.4375 C-73.48292016 1.92235995 -70.81957826 2.95445614 -67.0625 5.375 C-57.12284338 11.39769564 -47.90997593 13.44966315 -36.16796875 10.81640625 C-30.04256863 8.58988763 -24.80862103 4.87235558 -19.50390625 1.14453125 C-13.77539246 -2.66575875 -6.21310276 -3.00385547 0 0 Z " fill="#FDEAE1" transform="translate(227.9375,231.5625)"/>
<path d="M0 0 C2.36968712 1.57979142 4.09823518 3.10514493 6.125 5.0625 C9.44699232 7.94834453 11.92567433 8.87872444 16.33203125 8.61328125 C21.58209129 7.05066495 25.61735231 3.26697411 29.8125 -0.125 C34.15369314 -2.29559657 39.67941361 -1.68974057 44.26171875 -0.4765625 C50.66140459 2.06592729 54.99019996 6.01526727 57.9375 12.2578125 C60.50800672 19.94638169 59.27395462 26.78508939 55.875 34 C50.39127549 44.37434613 42.29068797 52.12474866 32.8125 58.875 C31.86246094 59.55175781 30.91242188 60.22851562 29.93359375 60.92578125 C24.10056414 64.72067275 19.06697896 67.15108734 12.0078125 66.671875 C-1.49935113 63.3033403 -14.90584749 51.42424847 -22.75 40.1875 C-23.5924291 38.76733251 -24.40671847 37.32997172 -25.1875 35.875 C-25.80044922 34.81925781 -25.80044922 34.81925781 -26.42578125 33.7421875 C-29.91265586 27.05601557 -30.59097025 19.83282093 -28.52734375 12.54296875 C-25.89565591 6.58464519 -21.38583806 2.77671452 -15.875 -0.5 C-10.47116507 -1.7567058 -5.25086175 -1.85324532 0 0 Z " fill="#FD636E" transform="translate(241.1875,16.125)"/>
<path d="M0 0 C0.99 0 1.98 0 3 0 C4.46484375 2.01171875 4.46484375 2.01171875 5.9375 4.6875 C10.97593969 13.75669145 17.29874294 19.28821469 27 23 C39.22528863 26.30878676 52.54448604 26.48889618 65.11816406 27.26708984 C73.05418168 27.78476313 80.28023348 28.33349547 87 33 C87.763125 33.515625 88.52625 34.03125 89.3125 34.5625 C89.869375 35.036875 90.42625 35.51125 91 36 C91 36.66 91 37.32 91 38 C34.57 38 -21.86 38 -80 38 C-78.8055896 29.63912722 -76.45851176 26.20544992 -70.4375 20.625 C-62.35977473 16.80643897 -52.51951613 16.81759297 -43.7121582 16.06347656 C-27.10980603 14.58689416 -12.29011912 12.29011912 0 0 Z " fill="#DDDDDD" transform="translate(231,459)"/>
<path d="M0 0 C3.71628123 2.08813848 7.27914104 4.39058347 10.8203125 6.76171875 C18.67347262 11.5926021 28.3173527 11.68211653 37.2109375 9.73046875 C43.47593729 7.40170238 49.09211608 3.62608461 54.7109375 0.0546875 C59.68151891 -3.10249866 63.56707638 -3.25529098 69.3984375 -2.65234375 C75.32491701 -0.77844737 80.50290097 3.29987656 85.58984375 6.76171875 C88.9380946 8.79657662 88.9380946 8.79657662 95.3984375 10.34765625 C95.3984375 15.29765625 95.3984375 20.24765625 95.3984375 25.34765625 C93.73593208 25.35645561 93.73593208 25.35645561 92.0398407 25.36543274 C81.60688489 25.42258686 71.17413898 25.49530995 60.7413969 25.58337116 C55.37749921 25.62814405 50.01367869 25.66738484 44.6496582 25.6940918 C39.47536857 25.72005583 34.30137482 25.76040901 29.12726784 25.81084251 C27.1509042 25.82755804 25.17448932 25.83904304 23.1980648 25.84527016 C20.43470437 25.85486043 17.672109 25.88285821 14.90893555 25.9152832 C14.08750565 25.91384811 13.26607574 25.91241302 12.41975403 25.91093445 C8.28363917 25.86426217 8.28363917 25.86426217 4.72721577 27.68507671 C3.18156168 29.42284569 3.18156168 29.42284569 2.3984375 32.34765625 C-0.87192978 32.49275787 -4.14147257 32.58164998 -7.4140625 32.66015625 C-8.34283203 32.70205078 -9.27160156 32.74394531 -10.22851562 32.78710938 C-12.77852174 32.83313837 -15.09634021 32.83181027 -17.6015625 32.34765625 C-19.61328125 29.890625 -19.61328125 29.890625 -20.6015625 27.34765625 C-22.95095138 26.17296181 -24.55229455 26.14730736 -27.171875 26.03125 C-28.06777344 25.98935547 -28.96367187 25.94746094 -29.88671875 25.90429688 C-30.82386719 25.86498047 -31.76101562 25.82566406 -32.7265625 25.78515625 C-33.67144531 25.74197266 -34.61632812 25.69878906 -35.58984375 25.65429688 C-37.92690422 25.54806685 -40.2642138 25.44734354 -42.6015625 25.34765625 C-42.6015625 20.72765625 -42.6015625 16.10765625 -42.6015625 11.34765625 C-41.70695313 10.91195312 -40.81234375 10.47625 -39.890625 10.02734375 C-33.27709107 6.7788155 -26.83637586 3.43811036 -20.58984375 -0.48828125 C-13.8855767 -4.41337277 -6.68674701 -3.27298669 0 0 Z " fill="#FCE9E0" transform="translate(229.6015625,143.65234375)"/>
<path d="M0 0 C6.22572404 3.10735253 10.05817279 7.88158826 12.25 14.4375 C13.9319944 24.42527206 10.50776626 32.17252425 5.25 40.4375 C-0.07320324 47.54819953 -6.53537188 53.29932873 -13.75 58.4375 C-14.70003906 59.11425781 -15.65007812 59.79101562 -16.62890625 60.48828125 C-23.59517178 65.02044096 -29.44284546 67.12400051 -37.75 65.4375 C-41.00604342 64.08889762 -43.87524851 62.47015257 -46.75 60.4375 C-46.04875 59.880625 -45.3475 59.32375 -44.625 58.75 C-43.67625 57.986875 -42.7275 57.22375 -41.75 56.4375 C-40.3578125 55.4165625 -40.3578125 55.4165625 -38.9375 54.375 C-30.34242137 47.10905724 -23.389123 35.82457284 -22.4140625 24.5546875 C-22.35757037 18.78119134 -22.45173269 13.08580584 -23.75 7.4375 C-24.41 7.1075 -25.07 6.7775 -25.75 6.4375 C-24.67130607 5.47394756 -23.58681257 4.51688583 -22.5 3.5625 C-21.89671875 3.02882813 -21.2934375 2.49515625 -20.671875 1.9453125 C-14.44479894 -2.94015775 -7.22916227 -2.85007582 0 0 Z " fill="#FC4654" transform="translate(287.75,16.5625)"/>
<path d="M0 0 C11.44603786 0 15.17495414 2.35600443 24.21875 8.28125 C27.04547701 10.02810377 30.02787838 11.51393919 33 13 C33 24.22 33 35.44 33 47 C-43.89 47 -120.78 47 -200 47 C-200 46.67 -200 46.34 -200 46 C-134 46 -68 46 0 46 C0 30.82 0 15.64 0 0 Z " fill="#F9DACC" transform="translate(368,318)"/>
<path d="M0 0 C7.5796875 -0.0928125 7.5796875 -0.0928125 15.3125 -0.1875 C17.69915894 -0.22846802 17.69915894 -0.22846802 20.1340332 -0.27026367 C21.38531006 -0.27775635 22.63658691 -0.28524902 23.92578125 -0.29296875 C25.85031128 -0.31653442 25.85031128 -0.31653442 27.8137207 -0.34057617 C31 0 31 0 32.92382812 1.10351562 C34.54839039 3.96640121 34.33581871 6.36583839 34.29296875 9.63671875 C34.2784668 11.58481445 34.2784668 11.58481445 34.26367188 13.57226562 C34.23860585 14.94401639 34.21321101 16.31576118 34.1875 17.6875 C34.1724502 19.07094924 34.1587623 20.45441401 34.14648438 21.83789062 C34.11107223 25.22565207 34.06168054 28.61263139 34 32 C33.34555908 32.24669434 32.69111816 32.49338867 32.0168457 32.74755859 C27.07064703 34.6597793 22.59289143 36.62642772 18.1875 39.625 C13.0001838 43.1342922 9.05049877 45.29467997 2.6875 45.125 C1.80449219 45.10695312 0.92148437 45.08890625 0.01171875 45.0703125 C-0.65214844 45.04710937 -1.31601562 45.02390625 -2 45 C-0.515 44.505 -0.515 44.505 1 44 C0.67 29.48 0.34 14.96 0 0 Z " fill="#FBAADE" transform="translate(328,184)"/>
<path d="M0 0 C2.875 1.8125 2.875 1.8125 5 5 C5.41111401 8.7052301 5.29247535 12.28881273 5 16 C6.24716797 15.94779297 6.24716797 15.94779297 7.51953125 15.89453125 C9.14955078 15.85392578 9.14955078 15.85392578 10.8125 15.8125 C11.89144531 15.77769531 12.97039062 15.74289063 14.08203125 15.70703125 C17 16 17 16 18.828125 17.30078125 C20.7970366 20.15570307 20.94104401 22.58055261 21 26 C18.91374661 29.42741629 17.8255689 30.72481037 14 32 C12.43881572 32.06740865 10.8749748 32.08514456 9.3125 32.0625 C8.10013672 32.04896484 8.10013672 32.04896484 6.86328125 32.03515625 C6.24839844 32.02355469 5.63351563 32.01195312 5 32 C5.04640625 32.66386719 5.0928125 33.32773438 5.140625 34.01171875 C5.31448913 38.26518048 5.36591825 41.23767032 3.5 45.125 C0.47144689 47.39641483 -1.36785992 47.7468015 -5.09375 47.46875 C-7 47 -7 47 -9.5 45.125 C-11.61183532 40.72534308 -11.33528878 36.79649232 -11 32 C-11.88751953 32.05220703 -11.88751953 32.05220703 -12.79296875 32.10546875 C-17.72123437 32.27430004 -21.01654416 32.25919114 -25 29 C-27 26 -27 26 -26.8125 22.5 C-25.75378117 17.93936504 -25.75378117 17.93936504 -23 16 C-20.08203125 15.70703125 -20.08203125 15.70703125 -16.8125 15.8125 C-15.72582031 15.83957031 -14.63914062 15.86664063 -13.51953125 15.89453125 C-12.27236328 15.94673828 -12.27236328 15.94673828 -11 16 C-11.08701172 14.89591797 -11.08701172 14.89591797 -11.17578125 13.76953125 C-11.5435454 5.8153181 -11.5435454 5.8153181 -8.875 1.8125 C-5.45015775 -0.34663968 -3.96628159 -0.82630866 0 0 Z " fill="#000000" transform="translate(73,199)"/>
<path d="M0 0 C1.90625 0.3984375 1.90625 0.3984375 4.40625 1.7109375 C6.82381131 6.04240152 6.20728515 10.54842678 5.90625 15.3984375 C7.123125 15.3571875 8.34 15.3159375 9.59375 15.2734375 C14.17917518 15.28964042 17.29504176 15.94835008 20.78125 19.0859375 C22.44208755 22.49988135 21.82577707 24.78600973 20.90625 28.3984375 C19.73828125 30.1015625 19.73828125 30.1015625 17.90625 31.3984375 C14.98828125 31.69140625 14.98828125 31.69140625 11.71875 31.5859375 C10.63207031 31.55886719 9.54539062 31.53179687 8.42578125 31.50390625 C7.17861328 31.45169922 7.17861328 31.45169922 5.90625 31.3984375 C5.95265625 32.21828125 5.9990625 33.038125 6.046875 33.8828125 C6.10101563 35.49929687 6.10101563 35.49929687 6.15625 37.1484375 C6.20265625 38.21578125 6.2490625 39.283125 6.296875 40.3828125 C5.90625 43.3984375 5.90625 43.3984375 4.10546875 45.75390625 C1.90625 47.3984375 1.90625 47.3984375 -1.53125 47.9609375 C-5.09375 47.3984375 -5.09375 47.3984375 -8.03125 45.5859375 C-11.02993896 40.95160002 -10.51709995 36.77027798 -10.09375 31.3984375 C-10.92519531 31.43324219 -11.75664062 31.46804687 -12.61328125 31.50390625 C-14.24330078 31.54451172 -14.24330078 31.54451172 -15.90625 31.5859375 C-16.98519531 31.62074219 -18.06414062 31.65554687 -19.17578125 31.69140625 C-22.09375 31.3984375 -22.09375 31.3984375 -23.92578125 30.06640625 C-25.71133762 27.51646454 -25.97016751 25.48799981 -26.09375 22.3984375 C-24.81626002 19.27568422 -23.80229935 17.82356711 -20.90625 16.0859375 C-17.19310111 15.17827888 -13.91339945 15.26895786 -10.09375 15.3984375 C-10.14015625 14.73457031 -10.1865625 14.07070312 -10.234375 13.38671875 C-10.40823913 9.13325702 -10.45966825 6.16076718 -8.59375 2.2734375 C-5.55417303 -0.00624523 -3.73107716 -0.29236052 0 0 Z " fill="#000000" transform="translate(409.09375,79.6015625)"/>
<path d="M0 0 C4.50293372 -0.06888341 9.00403919 -0.12860848 13.50708008 -0.16479492 C15.03871861 -0.17987936 16.57031398 -0.20034978 18.10180664 -0.22631836 C20.30365654 -0.26271847 22.50493533 -0.27972913 24.70703125 -0.29296875 C25.39150833 -0.30845261 26.07598541 -0.32393646 26.78120422 -0.33988953 C31.54939991 -0.34157656 31.54939991 -0.34157656 33.68359375 1.27624512 C36.00780142 4.3196554 35.36092901 8.14793312 35.29296875 11.82421875 C35.28872391 12.68561966 35.28447906 13.54702057 35.28010559 14.43452454 C35.26331248 17.18583431 35.22565956 19.93641162 35.1875 22.6875 C35.17245396 24.5527238 35.15876541 26.41795907 35.14648438 28.28320312 C35.11340693 32.85575098 35.0616206 37.4277513 35 42 C31.20511017 40.54048799 28.06537031 38.83559652 24.6875 36.5625 C16.45343841 31.26760211 11.18638123 30.01863812 1 29 C0.67 19.43 0.34 9.86 0 0 Z " fill="#F8A8DB" transform="translate(290,97)"/>
<path d="M0 0 C4.35990873 -0.07418046 8.71948279 -0.12861544 13.07983398 -0.16479492 C14.56297199 -0.17987768 16.04606544 -0.20034689 17.52905273 -0.22631836 C19.66140745 -0.26272616 21.79317235 -0.27973073 23.92578125 -0.29296875 C25.85031128 -0.31653442 25.85031128 -0.31653442 27.8137207 -0.34057617 C31 0 31 0 32.92382812 1.0078125 C34.66931797 4.23902782 34.3647095 7.59122 34.29296875 11.16796875 C34.28872391 11.96278152 34.28447906 12.7575943 34.28010559 13.57649231 C34.2633193 16.11384021 34.22566824 18.65039238 34.1875 21.1875 C34.17245305 22.90819165 34.15876466 24.62889576 34.14648438 26.34960938 C34.11341607 30.56671262 34.06163495 34.78322142 34 39 C29.48125385 37.24522025 25.60411057 35.00256911 21.5 32.4375 C16.4061137 29.50851538 12.02328715 28.64305529 6.1875 28.375 C5.49462891 28.33632813 4.80175781 28.29765625 4.08789062 28.2578125 C2.39232985 28.16426432 0.69620288 28.08107636 -1 28 C-0.01 27.67 0.98 27.34 2 27 C1.86095156 23.24971611 1.71258389 19.49985719 1.5625 15.75 C1.52318359 14.68652344 1.48386719 13.62304688 1.44335938 12.52734375 C1.40146484 11.50253906 1.35957031 10.47773438 1.31640625 9.421875 C1.27974854 8.47924805 1.24309082 7.53662109 1.20532227 6.56542969 C1.02060772 4.25748623 0.64138388 2.21859476 0 0 Z " fill="#FBA9DD" transform="translate(367,275)"/>
<path d="M0 0 C4.22955053 -0.08093399 8.45755211 -0.1404757 12.6875 -0.1875 C13.88568359 -0.21263672 15.08386719 -0.23777344 16.31835938 -0.26367188 C17.47529297 -0.27333984 18.63222656 -0.28300781 19.82421875 -0.29296875 C20.88729248 -0.3086792 21.95036621 -0.32438965 23.0456543 -0.34057617 C26.4515233 0.05205148 28.26569571 0.96157034 31 3 C33.46141247 6.6921187 33.68650207 9.71354805 33 14 C30.83376283 17.55881821 28.85092303 19.49229093 25 21 C22.1115191 21.24839699 22.1115191 21.24839699 18.68252945 21.24609566 C17.37525871 21.25007775 16.06798796 21.25405985 14.72110295 21.25816262 C13.26688775 21.25245646 11.81267326 21.24656526 10.35845947 21.24050903 C8.816456 21.24138089 7.27445281 21.24313151 5.7324512 21.24568737 C1.48866379 21.25016876 -2.75502306 21.24214635 -6.99879766 21.23213124 C-11.57273055 21.22351045 -16.14665758 21.22641593 -20.72059631 21.22793579 C-28.64741107 21.22898551 -36.57419296 21.22269982 -44.50099945 21.21146011 C-55.96188787 21.19521986 -67.42276036 21.18999862 -78.88365903 21.18748413 C-97.47729863 21.18310471 -116.0709207 21.1697889 -134.66455078 21.15087891 C-152.72867749 21.1325265 -170.79279945 21.11836687 -188.85693359 21.10986328 C-190.52658128 21.10907511 -190.52658128 21.10907511 -192.22995922 21.10827102 C-197.81393523 21.10566098 -203.39791127 21.10313356 -208.98188734 21.10064721 C-255.32127037 21.07990702 -301.66063428 21.04467476 -348 21 C-348 20.67 -348 20.34 -348 20 C-233.16 20 -118.32 20 0 20 C0 13.4 0 6.8 0 0 Z " fill="#B2AFB3" transform="translate(417,380)"/>
<path d="M0 0 C0 9.24 0 18.48 0 28 C-69.96 28 -139.92 28 -212 28 C-212 27.67 -212 27.34 -212 27 C-152.93 27 -93.86 27 -33 27 C-33 22.05 -33 17.1 -33 12 C-30.6075 11.649375 -28.215 11.29875 -25.75 10.9375 C-17.65280328 9.57012832 -11.79154485 6.67411462 -5 2 C-2 0 -2 0 0 0 Z " fill="#F1D3C6" transform="translate(362,232)"/>
<path d="M0 0 C11.18209182 -0.82490841 17.14831087 3.25992032 26.19140625 9.4140625 C29.5396571 11.44892037 29.5396571 11.44892037 36 13 C36 17.95 36 22.9 36 28 C7.62 28 -20.76 28 -50 28 C-50 27.67 -50 27.34 -50 27 C-32.84 27 -15.68 27 2 27 C2 18.42 2 9.84 2 1 C1.34 0.67 0.68 0.34 0 0 Z " fill="#F8D8CA" transform="translate(289,141)"/>
</svg>
