<?xml version="1.0" encoding="UTF-8"?>
<svg version="1.1" xmlns="http://www.w3.org/2000/svg" width="512" height="512">
<path d="M0 0 C1.13501953 0.79857422 1.13501953 0.79857422 2.29296875 1.61328125 C3.21722656 2.2475 4.14148438 2.88171875 5.09375 3.53515625 C5.61662598 3.90576172 6.13950195 4.27636719 6.67822266 4.65820312 C8.77577297 6.13347828 10.89798566 7.56912771 13.0234375 9.00390625 C31.75626029 21.67572618 31.75626029 21.67572618 38.48046875 26.92578125 C39.04765625 27.32539062 39.61484375 27.725 40.19921875 28.13671875 C42.31503834 31.09112538 42.50186308 34.38698611 42.48046875 37.92578125 C41.7786527 40.9845801 40.58143304 43.7517048 39.31640625 46.6171875 C38.95960785 47.46551651 38.60280945 48.31384552 38.23519897 49.18788147 C37.00126558 52.10834173 35.74041786 55.01645782 34.48046875 57.92578125 C33.5182412 60.18795281 32.5577006 62.45084249 31.59863281 64.71435547 C28.72752898 71.47440359 25.8285379 78.2221393 22.92224121 84.96710205 C21.00989083 89.40672163 19.10139114 93.84799819 17.19271851 98.28919983 C16.18304669 100.63791926 15.17252781 102.98627478 14.16104126 105.33421326 C13.70651581 106.39044388 13.25199036 107.4466745 12.78369141 108.53491211 C12.18701157 109.92002235 12.18701157 109.92002235 11.57827759 111.33311462 C10.51193518 113.8514678 9.48681686 116.38293247 8.48046875 118.92578125 C9.79015625 118.89097656 11.09984375 118.85617188 12.44921875 118.8203125 C37.44772408 118.36377171 61.53726055 121.72144077 84.78881836 131.1340332 C92.75987435 134.19936508 98.79258014 131.56329768 106.29296875 128.67578125 C114.41957046 125.68741343 122.53898637 123.66084422 131.04296875 122.05078125 C132.11200439 121.84807617 133.18104004 121.64537109 134.2824707 121.43652344 C144.94247894 119.51657795 155.34541746 118.76853838 166.16796875 118.86328125 C167.16763672 118.86779297 168.16730469 118.87230469 169.19726562 118.87695312 C171.62506672 118.8885694 174.05273275 118.90489957 176.48046875 118.92578125 C176.04927734 117.91306152 175.61808594 116.9003418 175.17382812 115.85693359 C172.34094621 109.20211683 169.50863084 102.54706775 166.68359375 95.88891602 C166.296875 94.97748337 165.91015625 94.06605072 165.51171875 93.1269989 C164.71348478 91.24560417 163.91530862 89.36418491 163.1171875 87.48274231 C160.74287634 81.88893368 158.35810996 76.29974792 155.96350098 70.71459961 C154.48338598 67.25893629 153.00996013 63.80044595 151.5378418 60.34136963 C150.83655065 58.69780453 150.13231487 57.05549256 149.42504883 55.41448975 C148.43578435 53.11808356 147.45702946 50.81745651 146.48046875 48.515625 C146.18958374 47.84745255 145.89869873 47.17928009 145.59899902 46.49085999 C143.53070653 41.57208737 141.9389474 36.70107819 142.98046875 31.36328125 C147.45457765 24.09285429 156.32022523 19.55186633 163.29296875 14.98828125 C165.3627358 13.62614902 167.43175396 12.26287812 169.5 10.8984375 C170.99781006 9.91061279 170.99781006 9.91061279 172.52587891 8.90283203 C176.2365646 6.41984304 179.88774452 3.85870371 183.52612305 1.27124023 C187.4396006 -1.42297273 190.83831 -1.49698203 195.48046875 -1.07421875 C198.67782264 -0.35075406 201.735298 0.6880357 204.8293457 1.76464844 C205.73014359 2.06724075 206.63094147 2.36983307 207.55903625 2.68159485 C210.53296493 3.68380249 213.50072926 4.70309872 216.46875 5.72265625 C218.57030152 6.43481573 220.67221206 7.14591653 222.77445984 7.85601807 C228.32625299 9.73456599 233.87296563 11.62769937 239.41876221 13.52386475 C244.92914243 15.40504713 250.44425471 17.27224027 255.95898438 19.140625 C265.51733146 22.3807381 275.06924347 25.63932772 284.61853218 28.90602875 C290.30332214 30.84838694 295.99345056 32.77343381 301.69150639 34.67652512 C304.98354178 35.77648682 308.27314384 36.88361245 311.56249046 37.99158478 C313.05668022 38.4926094 314.55207747 38.99004984 316.04876137 39.48357391 C318.07505507 40.15199228 320.09677313 40.83280707 322.11791992 41.51660156 C323.23543137 41.8885968 324.35294281 42.26059204 325.50431824 42.64385986 C329.41050837 44.32637849 332.49534614 46.16088783 334.60650635 49.94313049 C334.9583902 51.0087748 334.9583902 51.0087748 335.31738281 52.09594727 C335.59406799 52.9068129 335.87075317 53.71767853 336.15582275 54.55311584 C336.43311218 55.41988449 336.71040161 56.28665314 336.99609375 57.1796875 C337.29739197 58.07695053 337.59869019 58.97421356 337.90911865 59.89866638 C338.86502103 62.75700223 339.79797484 65.62223379 340.73046875 68.48828125 C341.37219514 70.42042164 342.01540843 72.35206887 342.66015625 74.28320312 C344.0746459 78.52951289 345.4747821 82.78024175 346.86236572 87.03541565 C347.39599285 88.66742572 347.93749409 90.29685728 348.48046875 91.92578125 C348.75390625 94.1953125 348.75390625 94.1953125 348.85546875 96.73828125 C348.90445313 97.56972656 348.9534375 98.40117188 349.00390625 99.2578125 C348.23342411 103.18497146 346.44174596 105.38628492 343.48046875 107.92578125 C339.36213244 110.66153868 335.05941446 113.04435389 330.73046875 115.42578125 C329.47390607 116.12877231 328.21797398 116.83289159 326.96264648 117.53808594 C323.7578356 119.33510173 320.54567394 121.11851376 317.33148193 122.89868164 C314.48691167 124.47709125 311.64973549 126.06860915 308.8125 127.66015625 C304.69634621 129.96905582 300.57763826 132.27327765 296.45703125 134.57421875 C287.42768751 139.62603447 278.45219048 144.77251356 269.48046875 149.92578125 C270.351875 150.59222656 271.22328125 151.25867188 272.12109375 151.9453125 C280.28523322 158.24201176 288.01305151 164.81916162 295.48046875 171.92578125 C296.18558594 172.57804688 296.89070313 173.2303125 297.6171875 173.90234375 C312.55422232 188.14251893 323.86426554 206.32413323 332.48046875 224.92578125 C333.01414062 226.05371094 333.5478125 227.18164062 334.09765625 228.34375 C338.57034392 238.22769451 341.78574278 248.42870403 344.48046875 258.92578125 C344.69509766 259.75561523 344.90972656 260.58544922 345.13085938 261.44042969 C348.39850076 274.7651451 348.86887503 288.02756402 348.91796875 301.67578125 C348.92423279 302.48850494 348.93049683 303.30122864 348.93695068 304.13858032 C349.01149267 319.43532898 347.33061719 334.572213 343.29296875 349.36328125 C343.08502686 350.13220703 342.87708496 350.90113281 342.6628418 351.69335938 C334.77491711 379.62141044 320.43211114 404.92589145 300.48046875 425.92578125 C299.30713152 427.29509343 298.13992909 428.66969912 296.98046875 430.05078125 C269.76294761 461.11151718 225.93950974 479.89736561 185.48046875 483.92578125 C182.7302967 484.0819249 179.98466144 484.13481963 177.23046875 484.1640625 C176.46314423 484.17385635 175.6958197 484.18365021 174.90524292 484.19374084 C148.41610088 484.4619942 122.21021936 482.72799236 97.79296875 471.36328125 C94.39919004 469.92524627 92.70479039 469.84237261 89.265625 471.15234375 C88.47921631 471.44004639 87.69280762 471.72774902 86.88256836 472.02416992 C85.69352905 472.47046753 85.69352905 472.47046753 84.48046875 472.92578125 C74.88621768 476.20049124 65.28326211 479.15212041 55.35546875 481.23828125 C54.5989502 481.3973999 53.84243164 481.55651855 53.06298828 481.72045898 C45.0581861 483.32336019 37.11592865 484.07940065 28.95703125 484.12890625 C28.17740524 484.13592056 27.39777924 484.14293488 26.5945282 484.15016174 C24.09811541 484.16754076 21.60193977 484.17401221 19.10546875 484.17578125 C18.25254242 484.17645599 17.39961609 484.17713074 16.52084351 484.17782593 C4.25217324 484.16238384 -7.54186179 483.80404808 -19.51953125 480.92578125 C-20.27041016 480.75949219 -21.02128906 480.59320313 -21.79492188 480.421875 C-53.31250231 473.39483395 -82.13869121 458.13952445 -105.51953125 435.92578125 C-106.88884343 434.75244402 -108.26344912 433.58524159 -109.64453125 432.42578125 C-140.68936495 405.22219472 -159.52139227 361.37509328 -163.51953125 320.92578125 C-163.67689731 318.09102296 -163.72869436 315.2605938 -163.7578125 312.421875 C-163.76760635 311.62957489 -163.77740021 310.83727478 -163.78749084 310.02096558 C-163.95802369 292.64656542 -163.86558152 275.86705155 -159.51953125 258.92578125 C-159.31054199 258.0867627 -159.10155273 257.24774414 -158.88623047 256.38330078 C-150.54064109 223.76986274 -133.78284539 195.98898012 -110.51953125 171.92578125 C-109.51019531 170.83910156 -109.51019531 170.83910156 -108.48046875 169.73046875 C-103.87301911 164.88774508 -98.74422689 160.82798682 -93.44189453 156.78076172 C-90.24450533 154.33433534 -87.29286765 151.86387031 -84.51953125 148.92578125 C-85.28652344 148.7246875 -86.05351563 148.52359375 -86.84375 148.31640625 C-92.03162751 146.35372358 -96.58126086 143.51780108 -101.33203125 140.67578125 C-109.91552217 135.59916918 -118.54969632 130.63934183 -127.26953125 125.80078125 C-135.16744349 121.3958441 -143.04040357 116.95410943 -150.83203125 112.36328125 C-152.06808105 111.64857666 -152.06808105 111.64857666 -153.32910156 110.91943359 C-161.29858007 106.17119195 -161.29858007 106.17119195 -163.51953125 101.92578125 C-164.34893412 94.78869132 -162.90927032 88.63893751 -160.59765625 81.9375 C-160.29639832 81.03127396 -159.99514038 80.12504791 -159.68475342 79.19136047 C-159.04966087 77.29237968 -158.40724512 75.39583355 -157.7578125 73.50170898 C-156.76824657 70.60952653 -155.80642152 67.70916033 -154.84765625 64.80664062 C-154.22427558 62.95388146 -153.59932941 61.10164812 -152.97265625 59.25 C-152.5442746 57.95771736 -152.5442746 57.95771736 -152.10723877 56.639328 C-151.82725037 55.83111099 -151.54726196 55.02289398 -151.25878906 54.19018555 C-151.01896301 53.48532516 -150.77913696 52.78046478 -150.53204346 52.054245 C-148.19163003 47.13431901 -145.59467089 44.54632109 -140.43192577 42.67320824 C-139.44528926 42.34311225 -139.44528926 42.34311225 -138.4387207 42.00634766 C-137.73744458 41.75797968 -137.03616846 41.5096117 -136.31364155 41.25371742 C-134.05466743 40.45992648 -131.78833916 39.69096784 -129.51953125 38.92578125 C-128.04115006 38.41885239 -126.56282756 37.91175235 -125.08456421 37.40447998 C-120.33657565 35.78675375 -115.57496882 34.21118877 -110.8125 32.63671875 C-109.03580919 32.04659059 -107.25922585 31.45613879 -105.48274231 30.86538696 C-100.82994567 29.3188483 -96.17604786 27.77565402 -91.52178955 26.23352051 C-84.16932671 23.79710146 -76.81813981 21.3568477 -69.46774673 18.9141922 C-66.76019955 18.01510568 -64.05197386 17.11808405 -61.34371948 16.22113037 C-52.6376915 13.33251381 -43.95215772 10.39706749 -35.29931641 7.35253906 C-33.68118661 6.78599568 -32.06304817 6.21947698 -30.44490051 5.65298462 C-27.44790246 4.60297644 -24.45729715 3.536975 -21.4695282 2.46102905 C-20.12612266 1.98859564 -18.78253086 1.51669142 -17.4387207 1.04541016 C-16.28918411 0.63416901 -15.13964752 0.22292786 -13.95527649 -0.20077515 C-9.22157955 -1.40418722 -4.60736054 -1.96437852 0 0 Z M-76.07421875 217.28222656 C-89.6425124 232.7115767 -99.24692311 251.10041321 -104.51953125 270.92578125 C-104.78419189 271.90901367 -104.78419189 271.90901367 -105.05419922 272.91210938 C-113.367706 305.57290312 -105.90032735 340.33223375 -89.0625 368.89453125 C-85.70921857 374.34726951 -81.80303556 379.17899013 -77.51953125 383.92578125 C-76.813125 384.76238281 -76.10671875 385.59898437 -75.37890625 386.4609375 C-59.7141758 404.68949973 -38.72311331 416.76575585 -15.89453125 423.67578125 C-14.91021118 423.97427979 -14.91021118 423.97427979 -13.90600586 424.27880859 C-2.88326513 427.43280416 7.79851605 428.20591213 19.23046875 428.05078125 C21.15246094 428.03724609 21.15246094 428.03724609 23.11328125 428.0234375 C26.23588096 428.00013452 29.358069 427.96742179 32.48046875 427.92578125 C30.92885172 424.6180118 28.99565427 422.01355732 26.64770508 419.20800781 C-4.33165006 382.15244228 -18.73724482 334.82558704 -15.296875 286.81884766 C-14.07257354 273.16831743 -11.65791049 259.99095552 -7.51953125 246.92578125 C-7.28282715 246.17055176 -7.04612305 245.41532227 -6.80224609 244.63720703 C0.68640096 221.34084163 12.93958188 200.89656811 28.5703125 182.23046875 C30.27604098 180.17243234 31.89772569 178.07910566 33.48046875 175.92578125 C-6.87502485 169.46890227 -49.01152829 187.66884135 -76.07421875 217.28222656 Z M151.48046875 175.92578125 C152.26421875 176.81265625 153.04796875 177.69953125 153.85546875 178.61328125 C187.01629836 217.59861255 203.96534976 265.65199329 200.26220703 316.94921875 C196.46938587 357.15712251 180.80383979 393.34544989 154.24609375 423.703125 C152.27313334 425.71368586 152.27313334 425.71368586 152.48046875 427.92578125 C192.34678056 429.04901934 225.23629762 419.80452513 255.04516602 392.35498047 C270.99475713 377.09794083 281.8637936 357.34114477 288.23046875 336.36328125 C288.42930664 335.71568848 288.62814453 335.0680957 288.83300781 334.40087891 C294.99968246 312.96560244 294.29384506 289.32230306 288.48046875 267.92578125 C288.30918457 267.26755371 288.13790039 266.60932617 287.96142578 265.93115234 C282.37340479 245.04451479 270.11308982 227.4848625 255.48046875 211.92578125 C254.67416016 211.02279297 254.67416016 211.02279297 253.8515625 210.1015625 C234.46144268 189.25353894 203.17947324 176.82421692 175.12890625 175.01171875 C167.15553892 174.75299592 159.37527897 174.68737965 151.48046875 175.92578125 Z M84.54296875 205.11328125 C84.03056641 205.59603516 83.51816406 206.07878906 82.99023438 206.57617188 C79.76097962 209.63309029 76.60926999 212.76620492 73.48046875 215.92578125 C72.78566406 216.62316406 72.09085938 217.32054687 71.375 218.0390625 C49.65588615 240.98064054 38.96458322 273.30962575 39.328125 304.57421875 C40.9961667 341.27113607 56.59432953 373.04219584 83.48046875 397.92578125 C87.14167098 401.44939914 87.14167098 401.44939914 91.48046875 403.92578125 C96.17123851 402.86682821 99.27990599 399.71332007 102.66796875 396.48828125 C103.23676758 395.95187012 103.80556641 395.41545898 104.39160156 394.86279297 C128.56850271 371.81812471 143.87092169 341.67749543 145.48046875 307.92578125 C145.53332031 306.9925 145.58617187 306.05921875 145.640625 305.09765625 C146.65390636 270.73420137 132.93262538 237.88568722 109.57421875 213.00390625 C106.34775486 209.80152045 102.98260804 206.82119027 99.48046875 203.92578125 C98.11921875 202.71921875 98.11921875 202.71921875 96.73046875 201.48828125 C91.39587377 197.7837014 88.37760643 201.38396446 84.54296875 205.11328125 Z " fill="#FEB34D" transform="translate(163.51953125,28.07421875)"/>
<path d="M0 0 C0.8326236 0.28972183 1.66524719 0.57944366 2.52310181 0.87794495 C3.87429863 1.33183342 3.87429863 1.33183342 5.25279236 1.79489136 C8.22672104 2.797099 11.19448536 3.81639523 14.1625061 4.83595276 C16.26405762 5.54811224 18.36596816 6.25921304 20.46821594 6.96931458 C26.02000909 8.8478625 31.56672173 10.74099587 37.11251831 12.63716125 C42.62289853 14.51834364 48.13801081 16.38553678 53.65274048 18.25392151 C63.21108756 21.49403461 72.76299957 24.75262423 82.31228828 28.01932526 C87.99707824 29.96168345 93.68720667 31.88673032 99.38526249 33.78982162 C102.67729788 34.88978333 105.96689995 35.99690896 109.25624657 37.10488129 C110.75043632 37.6059059 112.24583358 38.10334635 113.74251747 38.59687042 C115.76881118 39.26528879 117.79052924 39.94610357 119.81167603 40.62989807 C120.92918747 41.00189331 122.04669891 41.37388855 123.19807434 41.75715637 C127.10426448 43.439675 130.18910224 45.27418433 132.30026245 49.056427 C132.53485168 49.76685654 132.76944092 50.47728607 133.01113892 51.20924377 C133.2878241 52.02010941 133.56450928 52.83097504 133.84957886 53.66641235 C134.12686829 54.533181 134.40415771 55.39994965 134.68984985 56.29298401 C134.99114807 57.19024704 135.29244629 58.08751007 135.60287476 59.01196289 C136.55877713 61.87029874 137.49173094 64.7355303 138.42422485 67.60157776 C139.06595125 69.53371815 139.70916454 71.46536538 140.35391235 73.39649963 C141.76840201 77.6428094 143.16853821 81.89353826 144.55612183 86.14871216 C145.08974895 87.78072223 145.6312502 89.41015379 146.17422485 91.03907776 C146.44766235 93.30860901 146.44766235 93.30860901 146.54922485 95.85157776 C146.59820923 96.68302307 146.6471936 97.51446838 146.69766235 98.37110901 C145.92718021 102.29826797 144.13550207 104.49958143 141.17422485 107.03907776 C137.05588854 109.77483519 132.75317056 112.1576504 128.42422485 114.53907776 C127.16766217 115.24206881 125.91173008 115.9461881 124.65640259 116.65138245 C121.4515917 118.44839824 118.23943004 120.23181027 115.02523804 122.01197815 C111.12118346 124.17827981 107.2298535 126.36734876 103.33633423 128.55250549 C101.28102621 129.7040025 99.22374985 130.8519937 97.16445923 131.99635315 C92.11195143 134.80687161 87.09432315 137.66045049 82.1234436 140.61329651 C81.16236694 141.17951721 80.20129028 141.74573792 79.21109009 142.32911682 C77.40252627 143.39825292 75.60075792 144.47900091 73.80728149 145.57325745 C73.00540405 146.04537659 72.20352661 146.51749573 71.37734985 147.00392151 C70.68286743 147.42278625 69.98838501 147.841651 69.27285767 148.27320862 C66.51039876 149.28133258 64.96029593 148.89253875 62.17422485 148.03907776 C60.36343384 147.13453674 60.36343384 147.13453674 58.6703186 146.03517151 C57.69772095 145.42427673 57.69772095 145.42427673 56.70547485 144.80104065 C56.01453735 144.3639679 55.32359985 143.92689514 54.61172485 143.47657776 C37.26418441 132.87339084 15.0117177 124.16017123 -5.3296814 122.42189026 C-7.05650146 122.24581238 -7.05650146 122.24581238 -8.81820679 122.06617737 C-11.11581449 121.84372506 -13.41981759 121.67826613 -15.72592163 121.57643127 C-19.24800252 121.2106757 -21.69557068 120.71071697 -24.82577515 119.03907776 C-27.68923093 115.13718759 -29.29726328 110.93015832 -30.93521118 106.42179871 C-32.23007464 102.95736672 -33.71215427 99.580364 -35.1807251 96.18670654 C-37.24564541 91.40329647 -39.24847388 86.59375753 -41.26327515 81.78907776 C-42.48412144 78.8863765 -43.70576684 75.98401249 -44.92749023 73.0816803 C-45.72783582 71.17794782 -46.52666051 69.27357518 -47.32391357 67.36854553 C-49.24596244 62.77731378 -51.18533282 58.19542143 -53.17001343 53.63087463 C-53.53957657 52.77407104 -53.90913971 51.91726746 -54.28990173 51.03450012 C-54.97970333 49.43737519 -55.67594061 47.84300671 -56.38008118 46.25215149 C-58.58110176 41.13248235 -60.42647237 36.11765105 -59.32577515 30.47657776 C-54.85166625 23.2061508 -45.98601866 18.66516283 -39.01327515 14.10157776 C-36.94350809 12.73944553 -34.87448993 11.37617463 -32.8062439 10.01173401 C-31.30843384 9.0239093 -31.30843384 9.0239093 -29.78036499 8.01612854 C-26.0696793 5.53313955 -22.41849938 2.97200022 -18.78012085 0.38453674 C-12.81572797 -3.72161805 -6.45423772 -2.1403724 0 0 Z " fill="#0FB1F8" transform="translate(365.8257751464844,28.960922241210938)"/>
<path d="M0 0 C1.13501953 0.79857422 1.13501953 0.79857422 2.29296875 1.61328125 C3.21722656 2.2475 4.14148438 2.88171875 5.09375 3.53515625 C5.61662598 3.90576172 6.13950195 4.27636719 6.67822266 4.65820312 C8.77577297 6.13347828 10.89798566 7.56912771 13.0234375 9.00390625 C31.75626029 21.67572618 31.75626029 21.67572618 38.48046875 26.92578125 C39.04765625 27.32539062 39.61484375 27.725 40.19921875 28.13671875 C42.31511273 31.09122925 42.50229292 34.38686091 42.48046875 37.92578125 C41.77721213 40.98584163 40.57858092 43.75437679 39.3125 46.62109375 C38.95549515 47.46962921 38.5984903 48.31816467 38.23066711 49.19241333 C37.43334489 51.07963579 36.62715438 52.96312873 35.8135376 54.84338379 C34.396056 58.12096521 33.00372912 61.40848758 31.61474609 64.69824219 C28.75976291 71.44508468 25.87374531 78.17831966 22.98052979 84.90881348 C21.88489665 87.45988655 20.79245647 90.01232179 19.69999981 92.56475639 C18.38257678 95.64162078 17.06229141 98.71725359 15.7421875 101.79296875 C15.25779709 102.92419159 14.77340668 104.05541443 14.27433777 105.22091675 C13.0231774 108.12865054 11.75353182 111.02759613 10.48046875 113.92578125 C10.06331856 114.93773056 10.06331856 114.93773056 9.63774109 115.97012329 C8.57347407 118.4009621 7.96878826 119.70582401 5.49780273 120.81884766 C4.74829346 120.88765137 3.99878418 120.95645508 3.2265625 121.02734375 C2.38150146 121.12241211 1.53644043 121.21748047 0.66577148 121.31542969 C-0.69439087 121.43192871 -0.69439087 121.43192871 -2.08203125 121.55078125 C-3.99931331 121.77207556 -5.91598364 121.99872914 -7.83203125 122.23046875 C-8.79238281 122.34229492 -9.75273437 122.45412109 -10.7421875 122.56933594 C-32.19898032 125.32310857 -52.9299679 133.19862016 -71.4453125 144.24609375 C-72.07840332 144.6212915 -72.71149414 144.99648926 -73.36376953 145.38305664 C-75.09711667 146.42237618 -76.81479468 147.48770176 -78.53125 148.5546875 C-82.01482775 150.15303494 -82.9256288 149.95289618 -86.51953125 148.92578125 C-89.0012207 147.74926758 -89.0012207 147.74926758 -91.6328125 146.2578125 C-93.11515381 145.42334595 -93.11515381 145.42334595 -94.62744141 144.57202148 C-95.68495605 143.96688721 -96.7424707 143.36175293 -97.83203125 142.73828125 C-98.93853027 142.11187744 -100.0450293 141.48547363 -101.18505859 140.84008789 C-109.69619581 136.00704255 -118.16038323 131.09285526 -126.59423828 126.1262207 C-131.68027878 123.13658436 -136.78940807 120.20681028 -141.9609375 117.3671875 C-143.00813965 116.78912354 -144.0553418 116.21105957 -145.13427734 115.61547852 C-147.12494947 114.52081446 -149.12108567 113.4360054 -151.12353516 112.36303711 C-156.34041679 109.48677577 -160.5249699 107.17099187 -163.51953125 101.92578125 C-164.45482164 94.83095498 -162.89439136 88.59580298 -160.59765625 81.9375 C-160.29639832 81.03127396 -159.99514038 80.12504791 -159.68475342 79.19136047 C-159.04966087 77.29237968 -158.40724512 75.39583355 -157.7578125 73.50170898 C-156.76824657 70.60952653 -155.80642152 67.70916033 -154.84765625 64.80664062 C-154.22427558 62.95388146 -153.59932941 61.10164812 -152.97265625 59.25 C-152.5442746 57.95771736 -152.5442746 57.95771736 -152.10723877 56.639328 C-151.82725037 55.83111099 -151.54726196 55.02289398 -151.25878906 54.19018555 C-151.01896301 53.48532516 -150.77913696 52.78046478 -150.53204346 52.054245 C-148.19163003 47.13431901 -145.59467089 44.54632109 -140.43192577 42.67320824 C-139.44528926 42.34311225 -139.44528926 42.34311225 -138.4387207 42.00634766 C-137.73744458 41.75797968 -137.03616846 41.5096117 -136.31364155 41.25371742 C-134.05466743 40.45992648 -131.78833916 39.69096784 -129.51953125 38.92578125 C-128.04115006 38.41885239 -126.56282756 37.91175235 -125.08456421 37.40447998 C-120.33657565 35.78675375 -115.57496882 34.21118877 -110.8125 32.63671875 C-109.03580919 32.04659059 -107.25922585 31.45613879 -105.48274231 30.86538696 C-100.82994567 29.3188483 -96.17604786 27.77565402 -91.52178955 26.23352051 C-84.16932671 23.79710146 -76.81813981 21.3568477 -69.46774673 18.9141922 C-66.76019955 18.01510568 -64.05197386 17.11808405 -61.34371948 16.22113037 C-52.6376915 13.33251381 -43.95215772 10.39706749 -35.29931641 7.35253906 C-33.68118661 6.78599568 -32.06304817 6.21947698 -30.44490051 5.65298462 C-27.44790246 4.60297644 -24.45729715 3.536975 -21.4695282 2.46102905 C-20.12612266 1.98859564 -18.78253086 1.51669142 -17.4387207 1.04541016 C-16.28918411 0.63416901 -15.13964752 0.22292786 -13.95527649 -0.20077515 C-9.22157955 -1.40418722 -4.60736054 -1.96437852 0 0 Z " fill="#10B2F8" transform="translate(163.51953125,28.07421875)"/>
<path d="M0 0 C3.17441126 1.87578847 5.900715 3.86678659 8.25 6.75 C10.68874429 5.66611365 12.50285366 4.53814964 14.5625 2.8125 C22.40017758 -3.20246186 30.76219609 -3.22503123 40.25 -2.25 C48.67373941 0.10690118 54.17642493 5.58785315 58.56640625 12.9609375 C62.97635915 22.21108261 62.62613779 32.8067048 59.375 42.375 C51.01074586 61.55388132 32.94447419 75.34653769 14.41796875 84.0859375 C9.82911761 85.49153154 5.78971881 84.96256174 1.51855469 82.92333984 C-6.42724471 78.65169468 -13.86204187 73.56913704 -20.75 67.75 C-21.48476562 67.17121094 -22.21953125 66.59242187 -22.9765625 65.99609375 C-33.26972368 57.52457449 -41.75602022 45.57470542 -43.12109375 32.08203125 C-43.45488399 21.99752003 -41.89740582 14.41516982 -35.625 6.4375 C-26.34292961 -3.196312 -12.20369446 -5.81300239 0 0 Z " fill="#FC4E5A" transform="translate(246.75,2.25)"/>
<path d="M0 0 C7.83037541 0.37759526 14.74299045 2.62337089 22.13671875 5.11328125 C23.37492874 5.52410446 24.61313873 5.93492767 25.88887024 6.35820007 C28.49536673 7.22410135 31.09960835 8.0963943 33.70239258 8.97338867 C37.02350955 10.09184254 40.34977156 11.19399106 43.67788982 12.29140949 C46.87544543 13.34826382 50.06833891 14.41887499 53.26171875 15.48828125 C54.44932297 15.88010086 55.63692719 16.27192047 56.86051941 16.6756134 C69.91986683 21.10278855 69.91986683 21.10278855 73.24121094 25.72875977 C73.48645508 26.35580811 73.73169922 26.98285645 73.984375 27.62890625 C74.29568359 28.41668457 74.60699219 29.20446289 74.92773438 30.01611328 C75.45850586 31.49313721 75.45850586 31.49313721 76 33 C76.2256665 33.61977722 76.45133301 34.23955444 76.68383789 34.87811279 C78.32415464 39.40290754 79.89331565 43.94911765 81.42871094 48.51049805 C82.24854506 50.93320048 83.08895361 53.34815609 83.9296875 55.76367188 C89.62397373 72.42634424 89.62397373 72.42634424 88 79 C84.30418387 85.84912714 76.86254998 88.86232272 70.25 92.5 C68.99343732 93.20299106 67.73750523 93.90711034 66.48217773 94.61230469 C63.27736685 96.40932048 60.06520519 98.19273251 56.85101318 99.97290039 C52.94695861 102.13920205 49.05562865 104.32827101 45.16210938 106.51342773 C43.10680135 107.66492474 41.049525 108.81291594 38.99023438 109.95727539 C33.93772658 112.76779385 28.9200983 115.62137273 23.94921875 118.57421875 C22.50760376 119.4235498 22.50760376 119.4235498 21.03686523 120.29003906 C19.22830142 121.35917517 17.42653307 122.43992315 15.63305664 123.53417969 C14.8311792 124.00629883 14.02930176 124.47841797 13.203125 124.96484375 C12.50864258 125.3837085 11.81416016 125.80257324 11.09863281 126.23413086 C8.35088982 127.23688444 6.77123861 126.83542842 4 126 C1.10546875 124.37109375 1.10546875 124.37109375 -1.8125 122.4375 C-2.78832031 121.79683594 -3.76414062 121.15617187 -4.76953125 120.49609375 C-5.87361328 119.75552734 -5.87361328 119.75552734 -7 119 C-6.07038578 117.84775972 -5.1309875 116.70340824 -4.1875 115.5625 C-3.66542969 114.92441406 -3.14335937 114.28632813 -2.60546875 113.62890625 C-1 112 -1 112 2 111 C2 110.34 2 109.68 2 109 C3.47068414 107.69136629 5.00601318 106.4553144 6.5625 105.25 C13.4139723 99.77058121 19.7374788 93.7969494 26.11132812 87.77539062 C29.612453 84.48426083 33.15663142 81.23965214 36.70068359 77.99487305 C43.27485561 72.21315177 43.27485561 72.21315177 48 65 C47.3922876 64.8450708 46.7845752 64.6901416 46.15844727 64.53051758 C37.62527488 62.28519373 29.29287107 59.50610376 20.9375 56.6875 C19.46893255 56.19460408 18.00026328 55.70201139 16.53149414 55.2097168 C13.65852973 54.2463974 10.78606386 53.28161636 7.9140625 52.31542969 C2.92523434 50.63769318 -2.06827749 48.97409883 -7.0625 47.3125 C-8.44924934 46.8503522 -9.83597228 46.38812516 -11.22265625 45.92578125 C-12.13917969 45.62027344 -13.05570312 45.31476563 -14 45 C-13.43639324 39.12481397 -12.21926027 33.95266717 -10.3125 28.37890625 C-10.04993408 27.59353989 -9.78736816 26.80817352 -9.5168457 25.99900818 C-8.96561776 24.3549995 -8.41080116 22.71219004 -7.85253906 21.07055664 C-6.9949988 18.54778714 -6.14897346 16.0213732 -5.3046875 13.49414062 C-4.76628618 11.89300669 -4.22724679 10.29208713 -3.6875 8.69140625 C-3.43331299 7.93420792 -3.17912598 7.17700958 -2.91723633 6.39686584 C-1.11667719 1.11667719 -1.11667719 1.11667719 0 0 Z " fill="#0A9EF5" transform="translate(424,51)"/>
<path d="M0 0 C1.13501953 0.79857422 1.13501953 0.79857422 2.29296875 1.61328125 C3.21722656 2.2475 4.14148438 2.88171875 5.09375 3.53515625 C5.61662598 3.90576172 6.13950195 4.27636719 6.67822266 4.65820312 C8.77577297 6.13347828 10.89798566 7.56912771 13.0234375 9.00390625 C31.75626029 21.67572618 31.75626029 21.67572618 38.48046875 26.92578125 C39.04765625 27.32539062 39.61484375 27.725 40.19921875 28.13671875 C42.31511273 31.09122925 42.50229292 34.38686091 42.48046875 37.92578125 C41.77721213 40.98584163 40.57858092 43.75437679 39.3125 46.62109375 C38.95549515 47.46962921 38.5984903 48.31816467 38.23066711 49.19241333 C37.43334489 51.07963579 36.62715438 52.96312873 35.8135376 54.84338379 C34.396056 58.12096521 33.00372912 61.40848758 31.61474609 64.69824219 C28.75976291 71.44508468 25.87374531 78.17831966 22.98052979 84.90881348 C21.88489665 87.45988655 20.79245647 90.01232179 19.69999981 92.56475639 C18.38257678 95.64162078 17.06229141 98.71725359 15.7421875 101.79296875 C15.25779709 102.92419159 14.77340668 104.05541443 14.27433777 105.22091675 C13.02317747 108.12865038 11.75349152 111.0275787 10.48046875 113.92578125 C10.20209671 114.6013205 9.92372467 115.27685974 9.63691711 115.97286987 C8.56983832 118.41112629 7.98387109 119.70735039 5.48754883 120.79052734 C4.37996216 120.86907959 4.37996216 120.86907959 3.25 120.94921875 C2.44755859 121.02011719 1.64511719 121.09101563 0.81835938 121.1640625 C-0.43170898 121.23173828 -0.43170898 121.23173828 -1.70703125 121.30078125 C-2.55201172 121.36910156 -3.39699219 121.43742187 -4.26757812 121.5078125 C-6.34971151 121.67250102 -8.43453586 121.80250935 -10.51953125 121.92578125 C-10.33890137 121.0435791 -10.15827148 120.16137695 -9.97216797 119.25244141 C-6.65429856 102.99425253 -3.39813738 86.72637307 -0.47833252 70.39129639 C-0.21584221 68.92384902 0.04865797 67.45675964 0.31524658 65.99005127 C0.68800393 63.93326208 1.0523469 61.87516248 1.4140625 59.81640625 C1.72428345 58.0689209 1.72428345 58.0689209 2.04077148 56.28613281 C2.49759915 52.79486354 2.55683888 49.44272383 2.48046875 45.92578125 C-3.33225956 47.95172719 -9.14483308 49.97811648 -14.95727539 52.00488281 C-16.92663594 52.6915224 -18.89603572 53.37804949 -20.86547852 54.06445312 C-22.77876808 54.73130157 -24.69198652 55.39835411 -26.60513306 56.06561279 C-28.50167024 56.72685951 -30.39845951 57.38738369 -32.29550171 58.04718018 C-36.7335368 59.59303161 -41.16509994 61.15293268 -45.58251953 62.75683594 C-46.36248795 63.03832489 -47.14245636 63.31981384 -47.94606018 63.60983276 C-49.38986733 64.13220841 -50.83186026 64.65963825 -52.27159119 65.19314575 C-55.60974404 66.39756077 -57.91056626 66.92578125 -61.51953125 66.92578125 C-72.19091797 34.91162109 -72.19091797 34.91162109 -72.87493896 32.84393311 C-73.45964824 31.10397872 -74.07597038 29.3747274 -74.69580078 27.64697266 C-75.51953125 24.92578125 -75.51953125 24.92578125 -75.51953125 20.92578125 C-67.18767488 18.04287636 -58.85137334 15.17332292 -50.50918579 12.32044983 C-46.63520772 10.99516031 -42.76288179 9.66542079 -38.89404297 8.32519531 C-35.15645179 7.03062442 -31.41490368 5.74815787 -27.67037964 4.4737854 C-26.24647339 3.9868664 -24.82401481 3.49569142 -23.40310669 3.00009155 C-6.65126278 -2.83580971 -6.65126278 -2.83580971 0 0 Z " fill="#0A9EF5" transform="translate(163.51953125,28.07421875)"/>
<path d="M0 0 C6.17092981 0.33659617 11.7816055 1.64844637 17.6875 3.375 C18.41187256 3.58406982 19.13624512 3.79313965 19.88256836 4.00854492 C24.16646153 5.29602159 28.04384923 6.86928573 32 9 C28.0580583 13.88049925 23.88049925 18.0580583 19 22 C18.8246875 21.32195312 18.649375 20.64390625 18.46875 19.9453125 C16.33457796 15.66561644 13.04332564 13.02094333 9.5 9.875 C8.13296725 8.64594812 6.76828249 7.41427835 5.40625 6.1796875 C4.80103516 5.64069824 4.19582031 5.10170898 3.57226562 4.54638672 C2 3 2 3 0 0 Z " fill="#FE9E31" transform="translate(199,204)"/>
</svg>
