<?xml version="1.0" encoding="UTF-8"?>
<svg version="1.1" xmlns="http://www.w3.org/2000/svg" width="512" height="512">
<path d="M0 0 C1.55352502 -0.00457991 3.10704803 -0.00989072 4.66056824 -0.0158844 C7.89529723 -0.02474572 11.12977844 -0.02247409 14.36450195 -0.01245117 C18.45889525 -0.00098513 22.55242292 -0.02117227 26.64670277 -0.05036831 C29.84971832 -0.06893775 33.05253442 -0.06839699 36.25559044 -0.06273079 C37.76269429 -0.06258001 39.26981387 -0.06841639 40.77686501 -0.08102226 C54.68544528 -0.18099913 68.6444252 1.75079191 81.23046875 8.05859375 C81.92527344 8.39705322 82.62007813 8.7355127 83.3359375 9.08422852 C104.41222709 19.77464467 120.4335311 38.93257497 127.83984375 61.328125 C130.15076849 69.19029286 131.57591471 76.75033129 131.66992188 84.96386719 C131.6866394 86.21496277 131.70335693 87.46605835 131.72058105 88.75506592 C131.72726303 89.41318016 131.73394501 90.0712944 131.74082947 90.7493515 C131.76205555 92.82591811 131.78905471 94.90234135 131.81750488 96.9788208 C131.88693283 102.12954426 131.94680475 107.28036977 132.00653076 112.43121338 C132.0574932 116.79889642 132.11229149 121.16649747 132.17234802 125.53406525 C132.19887091 127.57865453 132.21970642 129.62325192 132.24035645 131.66790771 C132.25707397 132.90639465 132.2737915 134.14488159 132.29101562 135.42089844 C132.30980774 137.05801788 132.30980774 137.05801788 132.32897949 138.72821045 C132.36712522 141.53138694 132.36712522 141.53138694 133.48046875 144.43359375 C133.58363335 146.23497912 133.63537725 148.03953368 133.65625 149.84375 C133.68009766 150.91689453 133.70394531 151.99003906 133.72851562 153.09570312 C133.77096259 155.33510222 133.80249181 157.57473907 133.82226562 159.81445312 C133.98966433 166.3507888 134.89947339 171.35195591 137.57885742 177.31811523 C140.09998874 183.23352353 139.00313217 189.72667076 136.91796875 195.62109375 C133.52412459 203.11136735 128.7478169 208.37354421 121.27734375 211.83984375 C119.48046875 212.43359375 119.48046875 212.43359375 116.48046875 212.43359375 C116.80660156 213.10261719 117.13273437 213.77164063 117.46875 214.4609375 C118.70995285 218.10786942 118.70998754 221.1494643 118.66796875 224.99609375 C118.66152344 226.29675781 118.65507812 227.59742188 118.6484375 228.9375 C118.51769338 231.6588021 118.29870697 233.86105278 117.48046875 236.43359375 C118.50527344 236.39878906 119.53007812 236.36398438 120.5859375 236.328125 C121.94659811 236.2999734 123.30727655 236.27267471 124.66796875 236.24609375 C125.34150391 236.22095703 126.01503906 236.19582031 126.70898438 236.16992188 C132.18103969 236.08984302 135.15675756 237.4418413 139.23046875 240.93359375 C142.10469345 244.38266339 141.59552641 248.24446653 141.578125 252.5078125 C141.57600258 253.53356133 141.57600258 253.53356133 141.57383728 254.58003235 C141.56824751 256.76043097 141.55569697 258.94072626 141.54296875 261.12109375 C141.53795242 262.60090997 141.53338975 264.08072781 141.52929688 265.56054688 C141.51828146 269.18492932 141.50102387 272.80925145 141.48046875 276.43359375 C143.21550659 276.37171875 143.21550659 276.37171875 144.9855957 276.30859375 C159.12974802 275.8472617 159.12974802 275.8472617 164.48046875 280.43359375 C166.374629 283.44008451 166.65623969 285.43423974 166.3671875 288.94140625 C165.61721758 305.8332949 171.44269625 316.51113306 180.52636719 330.42382812 C183.28156003 334.66745848 185.84414171 339.01617839 188.41796875 343.37109375 C189.37467417 344.96191765 190.33305218 346.55173667 191.29296875 348.140625 C194.82920354 354.00662788 198.34815124 359.88280594 201.85134888 365.76858521 C202.88587332 367.50473099 203.92419996 369.2386094 204.96264648 370.97241211 C217.26710417 391.66354383 217.26710417 391.66354383 215.48046875 404.43359375 C213.30371568 411.86251247 209.19741481 416.66803308 202.48046875 420.43359375 C195.99992426 423.59217846 187.9514619 423.62633473 181.03515625 421.78125 C172.0356166 417.66969561 167.00821001 409.57323197 162.48046875 401.18359375 C159.38915658 395.55476062 156.25620305 390.00317929 152.7890625 384.59472656 C152.16700928 383.62271301 151.54495605 382.65069946 150.90405273 381.64923096 C150.19937866 380.55249054 150.19937866 380.55249054 149.48046875 379.43359375 C149.47688622 380.42531019 149.47688622 380.42531019 149.47323132 381.43706131 C149.41411051 397.51978139 149.33857936 413.60232783 149.24475384 429.6848793 C149.19977686 437.46226904 149.16036665 445.23961279 149.1340332 453.01708984 C149.11106844 459.79547625 149.07768763 466.57371735 149.03176719 473.35198855 C149.00781422 476.94148085 148.98909913 480.53082906 148.98285484 484.12039948 C148.97569112 488.12637369 148.94527458 492.131846 148.9128418 496.13769531 C148.91427689 497.32955948 148.91571198 498.52142365 148.91719055 499.74940491 C148.9046524 500.84032944 148.89211426 501.93125397 148.87919617 503.05523682 C148.8745872 504.00284 148.86997824 504.95044319 148.86522961 505.92676163 C148.36942647 509.15706742 148.05421114 510.34982285 145.48046875 512.43359375 C142.18474888 513.04436739 138.916188 512.97229026 135.57299805 512.94152832 C134.54349627 512.94776828 133.5139945 512.95400825 132.45329571 512.9604373 C128.98686332 512.97645385 125.5211257 512.96372885 122.0546875 512.95117188 C119.57638131 512.95658912 117.09807833 512.96370953 114.61978149 512.97241211 C108.57715506 512.98879474 102.53480358 512.98634641 96.49218774 512.97476155 C91.58237084 512.96573724 86.67260967 512.96449886 81.76278687 512.96885681 C80.71560927 512.96977621 80.71560927 512.96977621 79.64727658 512.97071418 C78.22917436 512.97199305 76.81107215 512.9732899 75.39296997 512.97460455 C62.08750827 512.98601764 48.7821567 512.97288526 35.47671306 512.95140308 C24.05375614 512.9335314 12.6309618 512.9366353 1.20800781 512.95507812 C-12.04901273 512.97647202 -25.30593668 512.98491894 -38.56297207 512.97262907 C-39.97593115 512.97135484 -41.38889025 512.97009736 -42.80184937 512.96885681 C-43.49709805 512.96823971 -44.19234674 512.96762261 -44.90866357 512.96698681 C-49.81402069 512.96352944 -54.71931666 512.96937053 -59.62466431 512.97877502 C-66.2238423 512.9911485 -72.82275998 512.98237106 -79.42192459 512.959198 C-81.8491731 512.95389235 -84.27644738 512.95545613 -86.70368576 512.96424866 C-90.00683181 512.97511421 -93.30897886 512.96154879 -96.61206055 512.94152832 C-97.58179463 512.95045121 -98.55152872 512.95937409 -99.55064869 512.96856737 C-106.01021726 512.89216786 -106.01021726 512.89216786 -108.61620045 510.54580307 C-109.67955024 508.05943003 -109.88145818 506.27767101 -109.86010742 503.57324219 C-109.85988083 502.61254822 -109.85965424 501.65185425 -109.85942078 500.66204834 C-109.84393692 499.63275208 -109.82845306 498.60345581 -109.8125 497.54296875 C-109.80825516 496.48321838 -109.80401031 495.42346802 -109.79963684 494.331604 C-109.78285155 490.94867488 -109.7451988 487.56634266 -109.70703125 484.18359375 C-109.69198426 481.88933152 -109.67829588 479.59505995 -109.66601562 477.30078125 C-109.63294853 471.67818195 -109.58275028 466.0559305 -109.51953125 460.43359375 C-110.13927322 460.44025558 -110.7590152 460.44691742 -111.39753723 460.45378113 C-117.83731915 460.52005884 -124.27700447 460.56536284 -130.71704102 460.59838867 C-133.12170343 460.61349191 -135.52633823 460.63397583 -137.9309082 460.65991211 C-141.38369556 460.69622726 -144.83611929 460.71330475 -148.2890625 460.7265625 C-149.90637016 460.74978828 -149.90637016 460.74978828 -151.55635071 460.77348328 C-152.55716171 460.77370987 -153.55797272 460.77393646 -154.58911133 460.77416992 C-155.47069412 460.78083176 -156.35227692 460.78749359 -157.26057434 460.7943573 C-159.51953125 460.43359375 -159.51953125 460.43359375 -161.30937195 459.10835266 C-163.23706419 456.44058838 -162.80270897 453.96724357 -162.70703125 450.74609375 C-162.67996094 449.56660156 -162.65289062 448.38710938 -162.625 447.171875 C-162.59019531 446.26824219 -162.55539063 445.36460937 -162.51953125 444.43359375 C-163.46054688 444.48 -164.4015625 444.52640625 -165.37109375 444.57421875 C-176.81200736 444.90583943 -176.81200736 444.90583943 -180.26953125 442.62109375 C-182.84082112 440.1212286 -184.41056691 438.46627146 -184.79368591 434.83537292 C-184.80432571 433.79423843 -184.81496552 432.75310394 -184.82592773 431.68041992 C-184.84191513 430.49876755 -184.85790253 429.31711517 -184.87437439 428.09965515 C-184.87973709 426.82153458 -184.88509979 425.543414 -184.890625 424.2265625 C-184.90416771 422.25663078 -184.90416771 422.25663078 -184.91798401 420.24690247 C-184.934472 417.46527654 -184.94217344 414.68377091 -184.94506836 411.90209961 C-184.95044522 408.34758956 -184.98809427 404.79421979 -185.03381252 401.24003124 C-185.07082064 397.83971414 -185.07210147 394.4395741 -185.078125 391.0390625 C-185.09765732 389.76701462 -185.11718964 388.49496674 -185.13731384 387.18437195 C-185.08706995 377.33761051 -185.08706995 377.33761051 -182.10961914 373.64575195 C-178.0057556 370.14069893 -175.09161505 370.3087671 -169.89453125 370.37109375 C-168.83492187 370.37786133 -168.83492187 370.37786133 -167.75390625 370.38476562 C-166.0090785 370.396555 -164.26429425 370.41449051 -162.51953125 370.43359375 C-162.52619308 369.60087448 -162.53285492 368.76815521 -162.53971863 367.91020203 C-162.59979818 360.06746286 -162.64548953 352.22480084 -162.67496777 344.38188457 C-162.69063227 340.34962342 -162.71188455 336.31755222 -162.74584961 332.28540039 C-162.77841554 328.39505455 -162.79637836 324.50489155 -162.80416298 320.61441994 C-162.80971151 319.12922092 -162.82054636 317.64403205 -162.83672142 316.15891075 C-162.85845976 314.08057303 -162.86149981 312.00299343 -162.86010742 309.92456055 C-162.86676926 308.74097458 -162.87343109 307.55738861 -162.8802948 306.3379364 C-162.51953125 303.43359375 -162.51953125 303.43359375 -161.30639648 301.54919434 C-158.94037513 300.07200694 -157.37306676 300.07198013 -154.58911133 300.09301758 C-153.08789482 300.09335747 -153.08789482 300.09335747 -151.55635071 300.09370422 C-149.93904305 300.11693001 -149.93904305 300.11693001 -148.2890625 300.140625 C-147.1835051 300.14486984 -146.07794769 300.14911469 -144.93888855 300.15348816 C-141.40302313 300.17029938 -137.8677248 300.2079569 -134.33203125 300.24609375 C-131.93685718 300.26113739 -129.54167419 300.27482635 -127.14648438 300.28710938 C-121.2706394 300.3202109 -115.39512583 300.37043482 -109.51953125 300.43359375 C-109.39545898 299.62752686 -109.27138672 298.82145996 -109.14355469 297.9909668 C-108.88880371 296.39055542 -108.88880371 296.39055542 -108.62890625 294.7578125 C-108.46358398 293.70424561 -108.29826172 292.65067871 -108.12792969 291.56518555 C-105.69337402 279.0338671 -98.22383334 268.51037182 -88.51953125 260.43359375 C-82.55272134 256.53221804 -76.25344624 253.72058375 -69.51953125 251.43359375 C-69.99003906 250.74394531 -70.46054688 250.05429688 -70.9453125 249.34375 C-77.7862227 239.01864951 -80.73240805 230.98765616 -79.51953125 218.43359375 C-78.91310926 216.41451059 -78.26203326 214.40669669 -77.51953125 212.43359375 C-78.34453125 212.39234375 -79.16953125 212.35109375 -80.01953125 212.30859375 C-86.49218487 210.69043034 -91.95642214 206.03276521 -95.51953125 200.43359375 C-98.92968514 193.81457977 -100.57168557 187.86203243 -99.51953125 180.43359375 C-98.89942743 178.74930091 -98.23354634 177.08139903 -97.53125 175.4296875 C-95.14153011 169.07789521 -94.89192279 163.16540237 -94.83203125 156.43359375 C-94.79000281 154.22519012 -94.74459199 152.01684748 -94.6953125 149.80859375 C-94.68411377 148.84695312 -94.67291504 147.8853125 -94.66137695 146.89453125 C-94.51953125 144.43359375 -94.51953125 144.43359375 -93.51953125 141.43359375 C-93.41750193 139.47362932 -93.37376101 137.51043351 -93.36181641 135.54785156 C-93.34642319 133.72885345 -93.34642319 133.72885345 -93.33071899 131.87310791 C-93.32341766 130.55759949 -93.31611633 129.24209106 -93.30859375 127.88671875 C-93.29561421 126.51445729 -93.28179638 125.14220352 -93.2671814 123.7699585 C-93.20584205 117.95234263 -93.15194037 112.13474075 -93.11816406 106.31689453 C-93.09692546 102.75353901 -93.0613827 99.19054736 -93.01740646 95.62740326 C-92.99676442 93.63882816 -92.9912465 91.65011391 -92.98623657 89.66143799 C-92.65015344 64.29277994 -83.4547015 42.4001741 -65.51953125 24.43359375 C-64.83503906 23.7375 -64.15054688 23.04140625 -63.4453125 22.32421875 C-46.16442711 5.84189554 -23.25902493 -0.06123614 0 0 Z " fill="#DFA967" transform="translate(240.51953125,-0.43359375)"/>
<path d="M0 0 C1.55352502 -0.00457991 3.10704803 -0.00989072 4.66056824 -0.0158844 C7.89529723 -0.02474572 11.12977844 -0.02247409 14.36450195 -0.01245117 C18.45889525 -0.00098513 22.55242292 -0.02117227 26.64670277 -0.05036831 C29.84971832 -0.06893775 33.05253442 -0.06839699 36.25559044 -0.06273079 C37.76269429 -0.06258001 39.26981387 -0.06841639 40.77686501 -0.08102226 C54.68544528 -0.18099913 68.6444252 1.75079191 81.23046875 8.05859375 C81.92527344 8.39705322 82.62007812 8.7355127 83.3359375 9.08422852 C104.41222709 19.77464467 120.4335311 38.93257497 127.83984375 61.328125 C130.15076849 69.19029286 131.57591471 76.75033129 131.66992188 84.96386719 C131.69499817 86.84051056 131.69499817 86.84051056 131.72058105 88.75506592 C131.72726303 89.41318016 131.73394501 90.0712944 131.74082947 90.7493515 C131.76205555 92.82591811 131.78905471 94.90234135 131.81750488 96.9788208 C131.88693283 102.12954426 131.94680475 107.28036977 132.00653076 112.43121338 C132.0574932 116.79889642 132.11229149 121.16649747 132.17234802 125.53406525 C132.19887091 127.57865453 132.21970642 129.62325192 132.24035645 131.66790771 C132.26543274 133.52563812 132.26543274 133.52563812 132.29101562 135.42089844 C132.3035437 136.5123114 132.31607178 137.60372437 132.32897949 138.72821045 C132.36712522 141.53138694 132.36712522 141.53138694 133.48046875 144.43359375 C133.58363335 146.23497912 133.63537725 148.03953368 133.65625 149.84375 C133.68009766 150.91689453 133.70394531 151.99003906 133.72851562 153.09570312 C133.77096259 155.33510222 133.80249181 157.57473907 133.82226562 159.81445312 C133.98966433 166.3507888 134.89947339 171.35195591 137.57885742 177.31811523 C140.09998874 183.23352353 139.00313217 189.72667076 136.91796875 195.62109375 C133.52412459 203.11136735 128.7478169 208.37354421 121.27734375 211.83984375 C119.48046875 212.43359375 119.48046875 212.43359375 116.48046875 212.43359375 C116.80660156 213.10261719 117.13273438 213.77164063 117.46875 214.4609375 C118.70995285 218.10786942 118.70998754 221.1494643 118.66796875 224.99609375 C118.65830078 226.94708984 118.65830078 226.94708984 118.6484375 228.9375 C118.51769338 231.6588021 118.29870697 233.86105278 117.48046875 236.43359375 C118.50527344 236.39878906 119.53007812 236.36398438 120.5859375 236.328125 C121.94659811 236.2999734 123.30727655 236.27267471 124.66796875 236.24609375 C125.34150391 236.22095703 126.01503906 236.19582031 126.70898438 236.16992188 C132.18103969 236.08984302 135.15675756 237.4418413 139.23046875 240.93359375 C142.10469345 244.38266339 141.59552641 248.24446653 141.578125 252.5078125 C141.57600258 253.53356133 141.57600258 253.53356133 141.57383728 254.58003235 C141.56824751 256.76043097 141.55569697 258.94072626 141.54296875 261.12109375 C141.53795242 262.60090997 141.53338975 264.08072781 141.52929688 265.56054688 C141.51828146 269.18492932 141.50102387 272.80925145 141.48046875 276.43359375 C143.21550659 276.37171875 143.21550659 276.37171875 144.9855957 276.30859375 C159.12974802 275.8472617 159.12974802 275.8472617 164.48046875 280.43359375 C166.54612409 283.6578497 166.73746522 286.25098874 166.75512695 290.04077148 C166.76465897 291.16551376 166.77419098 292.29025604 166.78401184 293.44908142 C166.78264473 295.26479393 166.78264473 295.26479393 166.78125 297.1171875 C166.78553513 298.3648439 166.78982025 299.61250031 166.79423523 300.89796448 C166.7999787 303.53669315 166.80141393 306.17503067 166.79614258 308.8137207 C166.79034947 312.18754518 166.80727927 315.5608204 166.83048725 318.9345541 C166.84880083 322.16209433 166.8450386 325.38960468 166.84375 328.6171875 C166.85295975 329.82563828 166.86216949 331.03408905 166.87165833 332.27915955 C166.86231514 333.97100121 166.86231514 333.97100121 166.8527832 335.69702148 C166.85341263 336.68645248 166.85404205 337.67588348 166.85469055 338.69529724 C166.24687359 343.14288167 163.90496776 346.57984458 160.48046875 349.43359375 C157.49679149 350.42815284 155.28004955 350.62919007 152.15625 350.75 C151.12822266 350.79189453 150.10019531 350.83378906 149.04101562 350.87695312 C147.96916016 350.91626953 146.89730469 350.95558594 145.79296875 350.99609375 C144.70951172 351.03927734 143.62605469 351.08246094 142.50976562 351.12695312 C139.83346084 351.23306213 137.15706349 351.33511736 134.48046875 351.43359375 C135.47046875 352.91859375 135.47046875 352.91859375 136.48046875 354.43359375 C136.48046875 355.42359375 136.48046875 356.41359375 136.48046875 357.43359375 C133.33360428 359.26875743 130.989691 359.7004628 127.36401367 359.75585938 C126.34583054 359.77507446 125.3276474 359.79428955 124.27861023 359.81408691 C122.63636223 359.82683655 122.63636223 359.82683655 120.9609375 359.83984375 C119.82900467 359.8512439 118.69707184 359.86264404 117.53083801 359.87438965 C115.13607515 359.89327616 112.74126047 359.90635228 110.34643555 359.9140625 C106.69161835 359.93346818 103.03905455 359.99551655 99.38476562 360.05859375 C97.05600292 360.07165536 94.72722415 360.0821557 92.3984375 360.08984375 C91.30967819 360.11453735 90.22091888 360.13923096 89.09916687 360.16467285 C82.85147861 360.1281816 79.23498373 359.43727439 74.69038391 355.01599121 C72.52958462 352.18997215 72.35244733 349.54937704 72.33329773 346.1269989 C72.32256477 344.80859009 72.32256477 344.80859009 72.31161499 343.46354675 C72.30892609 342.5019313 72.30623718 341.54031586 72.3034668 340.54956055 C72.2968956 339.53463531 72.2903244 338.51971008 72.28355408 337.47402954 C72.26381879 334.1102898 72.25215861 330.74659469 72.2421875 327.3828125 C72.23811197 326.23463358 72.23403645 325.08645466 72.22983742 323.90348244 C72.20897682 317.82766525 72.1946744 311.75187065 72.18530273 305.67602539 C72.17423165 299.39780578 72.13982327 293.11993995 72.10013103 286.84184551 C72.07400027 282.01627437 72.06561408 277.19078803 72.06202126 272.36515236 C72.05714704 270.05069397 72.04550944 267.73623958 72.02698326 265.4218502 C72.0026654 262.18288396 72.00354363 258.94483992 72.01049805 255.70581055 C71.99128296 254.27249641 71.99128296 254.27249641 71.97167969 252.81022644 C72.01566828 247.18861812 72.64430437 243.84721025 76.48046875 239.43359375 C77.47046875 238.77359375 78.46046875 238.11359375 79.48046875 237.43359375 C78.99889832 234.25522893 78.20249991 231.78870604 76.91796875 228.80859375 C75.48046875 225.43359375 75.48046875 225.43359375 75.48046875 222.43359375 C74.84882813 222.79710937 74.2171875 223.160625 73.56640625 223.53515625 C66.95127897 227.25259089 60.25482338 230.34137128 53.25390625 233.234375 C50.62022403 234.17104041 50.62022403 234.17104041 49.48046875 235.43359375 C49.35814231 236.9061002 49.30272315 238.38425086 49.27514648 239.86157227 C49.25520126 240.80247208 49.23525604 241.74337189 49.21470642 242.71278381 C49.19799393 243.73569016 49.18128143 244.7585965 49.1640625 245.8125 C49.13289085 247.37519875 49.13289085 247.37519875 49.10108948 248.96946716 C49.03547818 252.31160622 48.97665544 255.6538266 48.91796875 258.99609375 C48.87479453 261.25586793 48.83118061 263.51563376 48.78710938 265.77539062 C48.67895408 271.32804272 48.57996686 276.88075266 48.48046875 282.43359375 C34.62046875 282.43359375 20.76046875 282.43359375 6.48046875 282.43359375 C6.15046875 264.28359375 5.82046875 246.13359375 5.48046875 227.43359375 C2.51046875 226.11359375 -0.45953125 224.79359375 -3.51953125 223.43359375 C-11.99452344 219.30903208 -19.45483167 214.68265306 -26.51953125 208.43359375 C-27.13183594 207.91539062 -27.74414062 207.3971875 -28.375 206.86328125 C-41.37896252 195.01985543 -49.57955353 176.0904421 -50.69364929 158.71861267 C-50.74801137 155.9820014 -50.7453031 153.25258324 -50.71484375 150.515625 C-50.71201385 149.5323674 -50.70918396 148.5491098 -50.70626831 147.53605652 C-50.69520016 144.43927089 -50.67012178 141.34278985 -50.64453125 138.24609375 C-50.63448414 136.12825943 -50.62536134 134.01042051 -50.6171875 131.89257812 C-50.59530484 126.73946852 -50.56086964 121.58658251 -50.51953125 116.43359375 C-55.13953125 116.76359375 -59.75953125 117.09359375 -64.51953125 117.43359375 C-64.84953125 122.38359375 -65.17953125 127.33359375 -65.51953125 132.43359375 C-67.36417969 132.47226562 -67.36417969 132.47226562 -69.24609375 132.51171875 C-70.87894057 132.56802381 -72.5117517 132.6253706 -74.14453125 132.68359375 C-74.95277344 132.69777344 -75.76101562 132.71195313 -76.59375 132.7265625 C-83.63205984 133.01267266 -87.60275372 135.41090535 -92.51953125 140.43359375 C-92.58964764 132.608912 -92.6426505 124.78430655 -92.67496777 116.95938778 C-92.69049378 113.32429185 -92.71148637 109.6894139 -92.74584961 106.05444336 C-92.77891799 102.53362003 -92.79648187 99.0130037 -92.80416298 95.49203682 C-92.81224418 93.52326238 -92.83558334 91.55456895 -92.85942078 89.58592224 C-92.86404126 64.29782516 -83.34568323 42.29096492 -65.51953125 24.43359375 C-64.83503906 23.7375 -64.15054688 23.04140625 -63.4453125 22.32421875 C-46.16442711 5.84189554 -23.25902493 -0.06123614 0 0 Z " fill="#FEE0B6" transform="translate(240.51953125,-0.43359375)"/>
<path d="M0 0 C0.96741623 -0.00845947 1.93483246 -0.01691895 2.93156433 -0.02563477 C4.52131828 -0.01652573 4.52131828 -0.01652573 6.14318848 -0.00723267 C7.26046829 -0.01248962 8.37774811 -0.01774658 9.52888489 -0.02316284 C13.23184073 -0.03639522 16.93436869 -0.02761298 20.6373291 -0.01748657 C23.20418379 -0.01950637 25.77103791 -0.02241701 28.33789062 -0.02618408 C33.7214557 -0.03061184 39.10485917 -0.02444679 44.48840332 -0.01016235 C50.71362688 0.00616454 56.93855569 0.00087612 63.16377211 -0.01564157 C69.1508336 -0.03089188 75.13775079 -0.02928291 81.12483215 -0.02049637 C83.67340638 -0.01849096 86.2219881 -0.02096552 88.77055359 -0.02793503 C92.32856351 -0.03552902 95.88600247 -0.0239734 99.44396973 -0.00723267 C100.50380569 -0.01330536 101.56364166 -0.01937805 102.65559387 -0.02563477 C104.10671822 -0.01294556 104.10671822 -0.01294556 105.5871582 0 C106.84923977 0.00169662 106.84923977 0.00169662 108.13681793 0.00342751 C110.2935791 0.38095093 110.2935791 0.38095093 112.06392097 1.51807213 C113.85370824 4.22952232 113.67128984 6.3337583 113.67453003 9.56796265 C113.6829895 10.86353088 113.69144897 12.15909912 113.70016479 13.493927 C113.69433167 14.93283206 113.68818715 16.37173589 113.6817627 17.81063843 C113.68582702 19.32343933 113.69116812 20.83623725 113.69769287 22.34902954 C113.7113889 26.46056625 113.70605847 30.57187754 113.69655561 34.68341827 C113.68897082 38.98217892 113.69600134 43.28092001 113.70071411 47.5796814 C113.70617511 54.79928052 113.69897103 62.01878764 113.68469238 69.2383728 C113.66836518 77.59030213 113.67365345 85.94201177 113.6901716 94.29393578 C113.70377667 101.45918346 113.70571093 108.62436493 113.69785559 115.78962135 C113.69317367 120.07154569 113.69256841 124.35336669 113.70246506 128.63528442 C113.71111825 132.66052303 113.70514321 136.68547785 113.68778229 140.71068573 C113.68380859 142.18975096 113.68496655 143.66883999 113.69157028 145.14789581 C113.69974019 147.16323506 113.68768911 149.17862637 113.67453003 151.19393921 C113.67339895 152.32292633 113.67226788 153.45191345 113.67110252 154.6151123 C113.2935791 157.38095093 113.2935791 157.38095093 112.06392097 159.24382973 C109.76917031 160.71778776 108.30955943 160.75824213 105.5871582 160.76190186 C104.61974197 160.77036133 103.65232574 160.7788208 102.65559387 160.78753662 C101.06583992 160.77842758 101.06583992 160.77842758 99.44396973 160.76913452 C98.32668991 160.77439148 97.2094101 160.77964844 96.05827332 160.7850647 C92.35531748 160.79829708 88.65278952 160.78951484 84.9498291 160.77938843 C82.38297442 160.78140822 79.81612029 160.78431887 77.24926758 160.78808594 C71.8657025 160.7925137 66.48229903 160.78634864 61.09875488 160.77206421 C54.87353132 160.75573731 48.64860251 160.76102574 42.4233861 160.77754343 C36.43632461 160.79279374 30.44940741 160.79118476 24.46232605 160.78239822 C21.91375182 160.78039281 19.3651701 160.78286737 16.81660461 160.78983688 C13.25859469 160.79743088 9.70115573 160.78587526 6.14318848 160.76913452 C5.08335251 160.77520721 4.02351654 160.78127991 2.93156433 160.78753662 C1.48043999 160.77484741 1.48043999 160.77484741 0 160.76190186 C-1.26208157 160.76020524 -1.26208157 160.76020524 -2.54965973 160.75847435 C-5.22386497 160.29037657 -6.11527263 159.55450361 -7.7064209 157.38095093 C-7.99938965 154.24423218 -7.99938965 154.24423218 -7.8939209 150.69345093 C-7.86685059 149.51395874 -7.83978027 148.33446655 -7.81188965 147.11923218 C-7.77708496 146.21559937 -7.74228027 145.31196655 -7.7064209 144.38095093 C-8.64743652 144.42735718 -9.58845215 144.47376343 -10.5579834 144.52157593 C-21.99889701 144.85319661 -21.99889701 144.85319661 -25.4564209 142.56845093 C-28.02771077 140.06858578 -29.59745656 138.41362863 -29.98057556 134.7827301 C-29.99121536 133.74159561 -30.00185516 132.70046112 -30.01281738 131.6277771 C-30.02880478 130.44612473 -30.04479218 129.26447235 -30.06126404 128.04701233 C-30.06662674 126.76889175 -30.07198944 125.49077118 -30.07751465 124.17391968 C-30.09105736 122.20398796 -30.09105736 122.20398796 -30.10487366 120.19425964 C-30.12136165 117.41263371 -30.12906309 114.63112809 -30.13195801 111.84945679 C-30.13733487 108.29494674 -30.17498392 104.74157697 -30.22070217 101.18738842 C-30.25771029 97.78707132 -30.25899112 94.38693127 -30.26501465 90.98641968 C-30.28454697 89.7143718 -30.30407928 88.44232391 -30.32420349 87.13172913 C-30.2739596 77.28496769 -30.2739596 77.28496769 -27.29650879 73.59310913 C-23.19264525 70.0880561 -20.2785047 70.25612428 -15.0814209 70.31845093 C-14.02181152 70.32521851 -14.02181152 70.32521851 -12.9407959 70.3321228 C-11.19596815 70.34391218 -9.4511839 70.36184768 -7.7064209 70.38095093 C-7.71308273 69.54823166 -7.71974457 68.71551239 -7.72660828 67.8575592 C-7.78668783 60.01482004 -7.83237918 52.17215802 -7.86185741 44.32924175 C-7.87752192 40.2969806 -7.8987742 36.26490939 -7.93273926 32.23275757 C-7.96530519 28.34241173 -7.983268 24.45224873 -7.99105263 20.56177711 C-7.99660116 19.0765781 -8.00743601 17.59138923 -8.02361107 16.10626793 C-8.04534941 14.0279302 -8.04838946 11.95035061 -8.04699707 9.87191772 C-8.05365891 8.68833176 -8.06032074 7.50474579 -8.06718445 6.28529358 C-7.7064209 3.38095093 -7.7064209 3.38095093 -6.47802448 1.72323895 C-4.18379707 -0.01502462 -2.86285551 0.00384853 0 0 Z " fill="#A6A8AB" transform="translate(85.7064208984375,299.6190490722656)"/>
<path d="M0 0 C1.55352502 -0.00457991 3.10704803 -0.00989072 4.66056824 -0.0158844 C7.89529723 -0.02474572 11.12977844 -0.02247409 14.36450195 -0.01245117 C18.45889525 -0.00098513 22.55242292 -0.02117227 26.64670277 -0.05036831 C29.84971832 -0.06893775 33.05253442 -0.06839699 36.25559044 -0.06273079 C37.76269429 -0.06258001 39.26981387 -0.06841639 40.77686501 -0.08102226 C54.68544528 -0.18099913 68.6444252 1.75079191 81.23046875 8.05859375 C81.92527344 8.39705322 82.62007812 8.7355127 83.3359375 9.08422852 C104.41222709 19.77464467 120.4335311 38.93257497 127.83984375 61.328125 C130.14788254 69.18047438 131.61078243 76.71020294 131.59399414 84.91967773 C131.59391861 86.16043564 131.59384308 87.40119354 131.59376526 88.67955017 C131.58866029 90.0129297 131.58344432 91.34630881 131.578125 92.6796875 C131.57625722 94.05973764 131.57483502 95.43978844 131.57383728 96.81983948 C131.57004043 100.43160877 131.56023469 104.0433371 131.5491333 107.65509033 C131.53885793 111.34883063 131.5343266 115.04257762 131.52929688 118.73632812 C131.51860957 125.96876856 131.50156763 133.20117539 131.48046875 140.43359375 C131.00996094 140.01207031 130.53945313 139.59054688 130.0546875 139.15625 C129.12076172 138.33447266 129.12076172 138.33447266 128.16796875 137.49609375 C127.55308594 136.95082031 126.93820312 136.40554687 126.3046875 135.84375 C123.5012574 133.6766445 120.9000763 133.29778362 117.46875 133.1171875 C116.71142578 133.07529297 115.95410156 133.03339844 115.17382812 132.99023438 C114.38814453 132.95091797 113.60246094 132.91160156 112.79296875 132.87109375 C111.99568359 132.82791016 111.19839844 132.78472656 110.37695312 132.74023438 C108.41165428 132.63432007 106.44608379 132.53346824 104.48046875 132.43359375 C104.47635986 131.5614624 104.47225098 130.68933105 104.46801758 129.79077148 C104.44090125 126.52661664 104.3916799 123.26429853 104.32788086 120.00073242 C104.30481348 118.59362204 104.29033171 117.18634175 104.28491211 115.77905273 C104.33720798 104.5693737 104.33720798 104.5693737 98.48046875 95.43359375 C88.56799623 86.95720382 77.28011345 84.5608907 64.48046875 85.43359375 C48.44674393 87.5667355 33.18826835 96.92584848 19.140625 104.4765625 C7.92643054 110.49512404 7.92643054 110.49512404 3.54296875 110.30859375 C1.48046875 109.43359375 1.48046875 109.43359375 -0.51953125 107.43359375 C-0.93359375 104.83203125 -0.93359375 104.83203125 -1.14453125 101.80859375 C-1.21929687 100.80570312 -1.2940625 99.8028125 -1.37109375 98.76953125 C-1.42007813 97.99867187 -1.4690625 97.2278125 -1.51953125 96.43359375 C-6.51741179 95.16258502 -8.89827409 95.65855036 -13.37109375 98.15234375 C-14.47066406 98.755625 -15.57023437 99.35890625 -16.703125 99.98046875 C-17.83878906 100.625 -18.97445312 101.26953125 -20.14453125 101.93359375 C-21.25699219 102.5471875 -22.36945313 103.16078125 -23.515625 103.79296875 C-27.95853777 106.25493206 -32.37955851 108.71050968 -36.66992188 111.43188477 C-43.20342078 115.5341803 -48.04360212 117.47616639 -55.76953125 117.37109375 C-56.62160156 117.38720703 -57.47367188 117.40332031 -58.3515625 117.41992188 C-60.40726519 117.45456855 -62.46359173 117.4486477 -64.51953125 117.43359375 C-64.84953125 122.38359375 -65.17953125 127.33359375 -65.51953125 132.43359375 C-67.36417969 132.47226562 -67.36417969 132.47226562 -69.24609375 132.51171875 C-70.87894057 132.56802381 -72.5117517 132.6253706 -74.14453125 132.68359375 C-74.95277344 132.69777344 -75.76101562 132.71195313 -76.59375 132.7265625 C-83.63205984 133.01267266 -87.60275372 135.41090535 -92.51953125 140.43359375 C-92.58964764 132.608912 -92.6426505 124.78430655 -92.67496777 116.95938778 C-92.69049378 113.32429185 -92.71148637 109.6894139 -92.74584961 106.05444336 C-92.77891799 102.53362003 -92.79648187 99.0130037 -92.80416298 95.49203682 C-92.81224418 93.52326238 -92.83558334 91.55456895 -92.85942078 89.58592224 C-92.86404126 64.29782516 -83.34568323 42.29096492 -65.51953125 24.43359375 C-64.83503906 23.7375 -64.15054688 23.04140625 -63.4453125 22.32421875 C-46.16442711 5.84189554 -23.25902493 -0.06123614 0 0 Z " fill="#F29600" transform="translate(240.51953125,-0.43359375)"/>
<path d="M0 0 C2.83031604 3.39421781 5.17211285 6.80862138 7.35546875 10.6484375 C7.97284912 11.72794678 8.59022949 12.80745605 9.22631836 13.91967773 C9.8735083 15.05993408 10.52069824 16.20019043 11.1875 17.375 C12.54471659 19.74993579 13.90517677 22.12300805 15.265625 24.49609375 C15.91595703 25.63159668 16.56628906 26.76709961 17.23632812 27.93701172 C19.922975 32.6029408 22.69707036 37.2114731 25.48046875 41.8203125 C28.72933522 47.20129099 31.95371634 52.59682641 35.16873169 57.99807739 C35.87807229 59.18838659 36.5887023 60.37792853 37.30075073 61.56661987 C50.80314054 84.11197909 50.80314054 84.11197909 49 97 C46.82324693 104.42891872 42.71694606 109.23443933 36 113 C29.51945551 116.15858471 21.47099315 116.19274098 14.5546875 114.34765625 C5.55514785 110.23610186 0.52774126 102.13963822 -4 93.75 C-7.09131217 88.12116687 -10.2242657 82.56958554 -13.69140625 77.16113281 C-14.31345947 76.18911926 -14.9355127 75.21710571 -15.57641602 74.21563721 C-16.04619873 73.48447693 -16.51598145 72.75331665 -17 72 C-17.00238835 72.66114429 -17.00477671 73.32228859 -17.00723743 74.00346756 C-17.06635824 90.08618764 -17.14188939 106.16873408 -17.23571491 122.25128555 C-17.28069189 130.02867529 -17.3201021 137.80601904 -17.34643555 145.58349609 C-17.36940031 152.3618825 -17.40278112 159.1401236 -17.44870156 165.9183948 C-17.47265453 169.5078871 -17.49136962 173.09723531 -17.49761391 176.68680573 C-17.50477763 180.69277994 -17.53519417 184.69825225 -17.56762695 188.70410156 C-17.56547432 190.49189781 -17.56547432 190.49189781 -17.5632782 192.31581116 C-17.58208542 193.95219795 -17.58208542 193.95219795 -17.60127258 195.62164307 C-17.60588155 196.56924625 -17.61049051 197.51684944 -17.61523914 198.49316788 C-18.07700302 201.50169771 -18.83191165 202.87440911 -21 205 C-22.88402843 205.49219131 -22.88402843 205.49219131 -25.04325867 205.48101807 C-25.8635556 205.48651672 -26.68385254 205.49201538 -27.52900696 205.49768066 C-28.87336067 205.47610901 -28.87336067 205.47610901 -30.24487305 205.45410156 C-31.66467468 205.45497772 -31.66467468 205.45497772 -33.11315918 205.45587158 C-36.24638353 205.45308158 -39.37866029 205.42194587 -42.51171875 205.390625 C-44.68218974 205.38316588 -46.85266746 205.3774714 -49.02314758 205.37347412 C-54.7394567 205.35819196 -60.45536011 205.31888758 -66.17150879 205.2746582 C-72.00295523 205.23376135 -77.83446715 205.21547503 -83.66601562 205.1953125 C-95.11085546 205.15239609 -106.55539401 205.0841133 -118 205 C-120.33413684 170.85569256 -120.02424275 144.24984185 -101.40283203 114.90136719 C-97.83622382 109.22330287 -94.95770616 103.21577087 -92.05163574 97.18115234 C-90.91988116 94.83382897 -89.77595925 92.49270633 -88.62988281 90.15234375 C-86.11942116 85.02251153 -83.62146295 79.8866558 -81.125 74.75 C-79.84429503 72.11668913 -78.56334384 69.48349829 -77.28219604 66.85040283 C-76.49390455 65.23006889 -75.70590462 63.60959306 -74.91824341 61.98895264 C-74.38661087 60.89565643 -74.38661087 60.89565643 -73.84423828 59.78027344 C-73.53527618 59.14458435 -73.22631409 58.50889526 -72.9079895 57.85394287 C-71.94958625 55.89706465 -70.9769947 53.94765381 -70 52 C-68.93040039 51.97494385 -67.86080078 51.9498877 -66.75878906 51.92407227 C-62.78536273 51.82980472 -58.81210332 51.72963142 -54.83886719 51.62768555 C-53.12015695 51.58440984 -51.40140576 51.54272959 -49.68261719 51.50268555 C-47.210161 51.44480435 -44.73790953 51.38116164 -42.265625 51.31640625 C-41.49881409 51.29969376 -40.73200317 51.28298126 -39.94195557 51.26576233 C-36.47826016 51.16987135 -33.33633749 50.92084138 -30 50 C-30.99 47.69 -31.98 45.38 -33 43 C-32.29915283 42.98541748 -31.59830566 42.97083496 -30.8762207 42.95581055 C-27.68776991 42.88114513 -24.50034487 42.78454525 -21.3125 42.6875 C-20.20970703 42.66494141 -19.10691406 42.64238281 -17.97070312 42.61914062 C-16.90400391 42.58369141 -15.83730469 42.54824219 -14.73828125 42.51171875 C-13.26935425 42.47244263 -13.26935425 42.47244263 -11.77075195 42.43237305 C-7.45807153 41.75938362 -4.96133799 40.18358067 -2.21948242 36.80786133 C-0.65982911 33.21675567 -0.52255265 29.92457956 -0.48828125 26.07421875 C-0.46135445 24.95283257 -0.46135445 24.95283257 -0.43388367 23.80879211 C-0.37996151 21.43508442 -0.34594446 19.06157568 -0.3125 16.6875 C-0.27931079 15.07223805 -0.24481965 13.45700229 -0.20898438 11.84179688 C-0.12424601 7.89467524 -0.05734951 3.94761073 0 0 Z " fill="#383838" transform="translate(407,307)"/>
<path d="M0 0 C1.05058594 0.53109375 2.10117188 1.0621875 3.18359375 1.609375 C12.23055196 6.19103936 12.23055196 6.19103936 21.4375 10.4375 C25 12 25 12 26 13 C26.09675527 14.4804285 26.12371762 15.96547273 26.12304783 17.44905949 C26.12503888 18.41595111 26.12702993 19.38284273 26.12908131 20.3790341 C26.12616847 21.45391394 26.12325563 22.52879377 26.12025452 23.63624573 C26.12110894 24.76824416 26.12196337 25.90024258 26.12284368 27.066544 C26.12450178 30.89146493 26.11897174 34.71634281 26.11352539 38.54125977 C26.112688 41.27043689 26.11335704 43.99961315 26.1139679 46.72879028 C26.11449333 52.62086502 26.11134451 58.51292872 26.10573006 64.40500069 C26.09761767 72.92404322 26.09500011 81.44308039 26.09374207 89.96212637 C26.09155113 103.78228975 26.08488993 117.60244724 26.07543945 131.42260742 C26.0662664 144.85099254 26.05918505 158.27937606 26.05493164 171.70776367 C26.05466892 172.53489872 26.05440619 173.36203378 26.05413551 174.21423353 C26.05283051 178.36355062 26.05156679 182.51286772 26.05032361 186.66218483 C26.03994971 221.10812746 26.02233028 255.5540631 26 290 C13.40464599 290.09257084 0.80937254 290.16369942 -11.78625202 290.20724869 C-17.63456019 290.22814735 -23.48263608 290.25650687 -29.33081055 290.30175781 C-34.97180154 290.34513382 -40.61256875 290.36911992 -46.25371361 290.37950897 C-48.40878003 290.38691515 -50.56383384 290.40137719 -52.71880531 290.42292023 C-55.7311844 290.45184428 -58.74263196 290.45596057 -61.75512695 290.45410156 C-62.65136276 290.46848267 -63.54759857 290.48286377 -64.47099304 290.49768066 C-70.50128967 290.45725807 -70.50128967 290.45725807 -73.05525684 288.11557388 C-74.16928339 285.62092182 -74.36213686 283.87066937 -74.34057617 281.13964844 C-74.34034958 280.17895447 -74.34012299 279.2182605 -74.33988953 278.22845459 C-74.32440567 277.19915833 -74.30892181 276.16986206 -74.29296875 275.109375 C-74.28872391 274.04962463 -74.28447906 272.98987427 -74.28010559 271.89801025 C-74.2633203 268.51508113 -74.22566755 265.13274891 -74.1875 261.75 C-74.17245301 259.45573777 -74.15876463 257.1614662 -74.14648438 254.8671875 C-74.11341728 249.2445882 -74.06321903 243.62233675 -74 238 C-73.19011627 237.99191315 -72.38023254 237.98382629 -71.54580688 237.97549438 C-63.92332269 237.8976396 -56.30103245 237.81037705 -48.67878151 237.71247292 C-44.75984887 237.66246998 -40.84094371 237.61614057 -36.921875 237.578125 C-33.14163767 237.5413223 -29.36162809 237.49497657 -25.58158493 237.44193649 C-24.13749552 237.42336573 -22.69335724 237.40826772 -21.2491951 237.39665604 C-19.23064937 237.37984008 -17.21222812 237.34966895 -15.19384766 237.31884766 C-13.46843246 237.29886215 -13.46843246 237.29886215 -11.7081604 237.2784729 C-8.85191072 237.27262362 -8.85191072 237.27262362 -7 235 C-6.70018734 232.18888649 -6.70018734 232.18888649 -6.75949097 228.83712769 C-6.75674164 227.52177032 -6.75399231 226.20641296 -6.75115967 224.85119629 C-6.75823847 223.38500886 -6.7655081 221.91882235 -6.77294922 220.45263672 C-6.7735131 218.91541552 -6.77319723 217.37819378 -6.77206421 215.8409729 C-6.77148879 211.65935965 -6.78327367 207.47786039 -6.79721212 203.29627371 C-6.80968798 198.92938402 -6.81088749 194.56249192 -6.81326294 190.19558716 C-6.81948698 181.92245851 -6.83591026 173.64938252 -6.85596192 165.37627709 C-6.87829222 155.95924677 -6.88930712 146.54221398 -6.89935279 137.12516379 C-6.92027572 117.75007325 -6.95696345 98.37505492 -7 79 C-40.165 78.505 -40.165 78.505 -74 78 C-71.19883301 61.19299808 -66.20876478 48.99350172 -53 38 C-42.46392566 31.11102832 -32.07839431 28.12435086 -19.625 27.4375 C-18.88894531 27.39431641 -18.15289062 27.35113281 -17.39453125 27.30664062 C-15.59651932 27.20156201 -13.79828042 27.10037907 -12 27 C-11.67201416 26.21761963 -11.34402832 25.43523926 -11.00610352 24.62915039 C-9.79109897 21.73411828 -8.57391304 18.84001626 -7.35522461 15.9465332 C-6.8276507 14.69267184 -6.30095469 13.43844073 -5.77514648 12.18383789 C-5.02036299 10.38331289 -4.26218582 8.5842117 -3.50390625 6.78515625 C-3.04830322 5.70113525 -2.5927002 4.61711426 -2.12329102 3.50024414 C-1 1 -1 1 0 0 Z " fill="#6D6E70" transform="translate(205,222)"/>
<path d="M0 0 C1.08667969 0.02707031 2.17335937 0.05414063 3.29296875 0.08203125 C4.54013672 0.13423828 4.54013672 0.13423828 5.8125 0.1875 C5.82708252 1.48260498 5.84166504 2.77770996 5.85668945 4.11206055 C5.915212 8.9747914 5.99243581 13.83708495 6.07495117 18.69946289 C6.10794908 20.79314002 6.13605685 22.88690074 6.15893555 24.98071289 C6.32592133 41.80225796 6.32592133 41.80225796 9.8125 58.1875 C10.18890625 59.41726562 10.5653125 60.64703125 10.953125 61.9140625 C18.20208929 80.85325792 31.10544762 95.96988808 49.6875 104.5625 C51.23050781 105.22378906 51.23050781 105.22378906 52.8046875 105.8984375 C61.0625 109.4375 61.0625 109.4375 62.8125 111.1875 C62.9060919 112.90615409 62.92994611 114.62865744 62.92602539 116.34985352 C62.92591209 118.00145226 62.92591209 118.00145226 62.92579651 119.68641663 C62.92063522 120.8843132 62.91547394 122.08220978 62.91015625 123.31640625 C62.9087413 124.53577377 62.90732635 125.7551413 62.90586853 127.01145935 C62.90024967 130.9243307 62.88769396 134.83714581 62.875 138.75 C62.86998743 141.39518147 62.8654241 144.04036383 62.86132812 146.68554688 C62.85112296 153.18623726 62.83155121 159.68680533 62.8125 166.1875 C76.6725 166.1875 90.5325 166.1875 104.8125 166.1875 C104.8125 181.11678253 104.8125 181.11678253 102.1015625 188.37109375 C101.81761627 189.18243271 101.53367004 189.99377167 101.24111938 190.82969666 C100.32501108 193.43509798 99.3816662 196.0296517 98.4375 198.625 C97.79571752 200.43430304 97.1560904 202.24437197 96.51855469 204.05517578 C95.553767 206.79362096 94.58729304 209.53135182 93.61279297 212.26635742 C91.58205581 217.96716984 89.61713911 223.68480434 87.7265625 229.43359375 C87.49542755 230.13610764 87.2642926 230.83862152 87.02615356 231.56242371 C85.95725083 234.81921641 84.89479607 238.07804789 83.83447266 241.33764648 C83.46112793 242.47145752 83.0877832 243.60526855 82.703125 244.7734375 C82.38375977 245.7536084 82.06439453 246.7337793 81.73535156 247.74365234 C80.8125 250.1875 80.8125 250.1875 78.8125 253.1875 C75.6875 253.375 75.6875 253.375 72.8125 253.1875 C66.47830448 241.17383 62.12744111 228.22437564 57.625 215.4375 C57.37011559 214.7160807 57.11523117 213.99466141 56.85262299 213.25138092 C45.74153308 181.60495857 43.80524154 152.62529851 45.8125 119.1875 C45.05759277 118.84704651 44.30268555 118.50659302 43.52490234 118.15582275 C42.53441895 117.70769226 41.54393555 117.25956177 40.5234375 116.79785156 C39.54165527 116.35427307 38.55987305 115.91069458 37.54833984 115.45367432 C34.55990707 114.07059744 31.67862545 112.5582257 28.8125 110.9375 C26.10971634 109.41325573 23.76177635 108.17059212 20.8125 107.1875 C20.48451416 107.96988037 20.15652832 108.75226074 19.81860352 109.55834961 C18.60359897 112.45338172 17.38641304 115.34748374 16.16772461 118.2409668 C15.6401507 119.49482816 15.11345469 120.74905927 14.58764648 122.00366211 C13.83286299 123.80418711 13.07468582 125.6032883 12.31640625 127.40234375 C11.86080322 128.48636475 11.4052002 129.57038574 10.93579102 130.68725586 C9.8125 133.1875 9.8125 133.1875 8.8125 134.1875 C5.58188241 134.67926242 2.32132881 134.84403103 -0.9375 135.0625 C-2.29875 135.19011719 -2.29875 135.19011719 -3.6875 135.3203125 C-10.43829282 135.75457403 -10.43829282 135.75457403 -14.16015625 132.9375 C-14.82917969 132.03 -15.49820313 131.1225 -16.1875 130.1875 C-16.68636719 129.53007812 -17.18523437 128.87265625 -17.69921875 128.1953125 C-22.92714728 119.82367944 -24.00574636 111.9944233 -23.1875 102.1875 C-22.58448416 100.16739695 -21.93455117 98.15888504 -21.1875 96.1875 C-22.0125 96.14625 -22.8375 96.105 -23.6875 96.0625 C-30.16015362 94.44433659 -35.62439089 89.78667146 -39.1875 84.1875 C-42.59720741 77.56935262 -44.24118429 71.61516579 -43.1875 64.1875 C-42.56318979 62.49806141 -41.89346854 60.82494625 -41.1875 59.16796875 C-38.81879413 52.87622573 -38.66338561 47.10111059 -38.6875 40.4375 C-38.73961617 25.82760138 -38.73961617 25.82760138 -32.69702148 19.66821289 C-27.9724076 15.71042478 -23.72205195 15.56220115 -17.75 15.875 C-16.50959961 15.90883789 -16.50959961 15.90883789 -15.24414062 15.94335938 C-13.22446423 16.00173153 -11.20573279 16.09139368 -9.1875 16.1875 C-9.23970703 14.83205078 -9.23970703 14.83205078 -9.29296875 13.44921875 C-9.32003906 12.26972656 -9.34710938 11.09023437 -9.375 9.875 C-9.40980469 8.70324219 -9.44460937 7.53148438 -9.48046875 6.32421875 C-9.1875 3.1875 -9.1875 3.1875 -8.0559082 1.50317383 C-5.35288926 -0.40020643 -3.26288611 -0.10525439 0 0 Z " fill="#FEC987" transform="translate(184.1875,115.8125)"/>
<path d="M0 0 C1.63418129 -0.00430527 1.63418129 -0.00430527 3.30137634 -0.00869751 C5.59846518 -0.01073415 7.89557153 -0.0052324 10.19262695 0.00732422 C13.70628625 0.02339835 17.21879797 0.00745317 20.73242188 -0.01171875 C22.96745045 -0.00973655 25.20247831 -0.00589336 27.4375 0 C28.48656021 -0.00607269 29.53562042 -0.01214539 30.61647034 -0.0184021 C36.94219881 0.04255736 40.51473322 0.70905704 45.40234375 4.8984375 C48.27656845 8.34750714 47.76740141 12.20931028 47.75 16.47265625 C47.74858505 17.1564888 47.7471701 17.84032135 47.74571228 18.5448761 C47.74012251 20.72527472 47.72757197 22.90557001 47.71484375 25.0859375 C47.70982742 26.56575372 47.70526475 28.04557156 47.70117188 29.52539062 C47.69015646 33.14977307 47.67289887 36.7740952 47.65234375 40.3984375 C48.80903564 40.3571875 49.96572754 40.3159375 51.1574707 40.2734375 C65.30162302 39.81210545 65.30162302 39.81210545 70.65234375 44.3984375 C72.71799909 47.62269345 72.90934022 50.21583249 72.92700195 54.00561523 C72.93653397 55.13035751 72.94606598 56.25509979 72.95588684 57.41392517 C72.95497543 58.62440018 72.95406403 59.83487518 72.953125 61.08203125 C72.95741013 62.32968765 72.96169525 63.57734406 72.96611023 64.86280823 C72.9718537 67.5015369 72.97328893 70.13987442 72.96801758 72.77856445 C72.96222447 76.15238893 72.97915427 79.52566415 73.00236225 82.89939785 C73.02067583 86.12693808 73.0169136 89.35444843 73.015625 92.58203125 C73.02483475 93.79048203 73.03404449 94.9989328 73.04353333 96.2440033 C73.03730453 97.37189774 73.03107574 98.49979218 73.0246582 99.66186523 C73.02528763 100.65129623 73.02591705 101.64072723 73.02656555 102.66014099 C72.41874859 107.10772542 70.07684276 110.54468833 66.65234375 113.3984375 C63.66866649 114.39299659 61.45192455 114.59403382 58.328125 114.71484375 C57.30009766 114.75673828 56.27207031 114.79863281 55.21289062 114.84179688 C54.14103516 114.88111328 53.06917969 114.92042969 51.96484375 114.9609375 C50.88138672 115.00412109 49.79792969 115.04730469 48.68164062 115.09179688 C46.00533584 115.19790588 43.32893849 115.29996111 40.65234375 115.3984375 C41.64234375 116.8834375 41.64234375 116.8834375 42.65234375 118.3984375 C42.65234375 119.3884375 42.65234375 120.3784375 42.65234375 121.3984375 C39.50547928 123.23360118 37.161566 123.66530655 33.53588867 123.72070312 C32.51770554 123.73991821 31.4995224 123.7591333 30.45048523 123.77893066 C29.35565323 123.78743042 28.26082123 123.79593018 27.1328125 123.8046875 C26.00087967 123.81608765 24.86894684 123.82748779 23.70271301 123.8392334 C21.30795015 123.85811991 18.91313547 123.87119603 16.51831055 123.87890625 C12.86349335 123.89831193 9.21092955 123.9603603 5.55664062 124.0234375 C3.22787792 124.03649911 0.89909915 124.04699945 -1.4296875 124.0546875 C-2.51844681 124.0793811 -3.60720612 124.10407471 -4.72895813 124.1295166 C-10.97664639 124.09302535 -14.59314127 123.40211814 -19.13774109 118.98083496 C-21.29854038 116.1548159 -21.47567767 113.51422079 -21.49482727 110.09184265 C-21.50198257 109.21290344 -21.50913788 108.33396423 -21.51651001 107.4283905 C-21.51919891 106.46677505 -21.52188782 105.50515961 -21.5246582 104.5144043 C-21.5312294 103.49947906 -21.5378006 102.48455383 -21.54457092 101.43887329 C-21.56430621 98.07513355 -21.57596639 94.71143844 -21.5859375 91.34765625 C-21.59001303 90.19947733 -21.59408855 89.05129841 -21.59828758 87.86832619 C-21.61914818 81.792509 -21.6334506 75.7167144 -21.64282227 69.64086914 C-21.65389335 63.36264953 -21.68830173 57.0847837 -21.72799397 50.80668926 C-21.75412473 45.98111812 -21.76251092 41.15563178 -21.76610374 36.32999611 C-21.77097796 34.01553772 -21.78261556 31.70108333 -21.80114174 29.38669395 C-21.8254596 26.14772771 -21.82458137 22.90968367 -21.81762695 19.6706543 C-21.83043701 18.71511154 -21.84324707 17.75956879 -21.85644531 16.77507019 C-21.81240216 11.14648993 -21.16530768 7.8331602 -17.34765625 3.3984375 C-12.01684943 -0.48326271 -6.33101381 -0.03671918 0 0 Z " fill="#C7C7C9" transform="translate(334.34765625,235.6015625)"/>
<path d="M0 0 C2.29655712 2.10815101 3.6990641 4.04769232 5.04956055 6.8503418 C5.61111092 8.00381355 5.61111092 8.00381355 6.18400574 9.18058777 C6.58090103 10.01173599 6.97779633 10.84288422 7.38671875 11.69921875 C7.80742142 12.56706497 8.22812408 13.43491119 8.66157532 14.32905579 C10.00942732 17.11240762 11.34872532 19.89977235 12.6875 22.6875 C14.005049 25.41724465 15.32433806 28.1461186 16.64663696 30.87356567 C17.51905585 32.68235863 18.38356248 34.49498804 19.24032593 36.31124878 C21.13164596 40.29668066 23.03062879 44.1632687 25.41064453 47.88134766 C33.33731854 60.64359968 31.88985792 74.43549645 31.5 89 C31.4597958 91.6249453 31.42330739 94.24995027 31.390625 96.875 C31.30324716 103.2513206 31.17002597 109.62537544 31 116 C18.40464599 116.09257084 5.80937254 116.16369942 -6.78625202 116.20724869 C-12.63456019 116.22814735 -18.48263608 116.25650687 -24.33081055 116.30175781 C-29.97180154 116.34513382 -35.61256875 116.36911992 -41.25371361 116.37950897 C-43.40878003 116.38691515 -45.56383384 116.40137719 -47.71880531 116.42292023 C-50.7311844 116.45184428 -53.74263196 116.45596057 -56.75512695 116.45410156 C-57.65136276 116.46848267 -58.54759857 116.48286377 -59.47099304 116.49768066 C-65.45436539 116.45757261 -65.45436539 116.45757261 -68.05651855 114.27539062 C-69.12056095 111.7092436 -69.36249095 109.91552056 -69.34057617 107.13964844 C-69.34034958 106.17895447 -69.34012299 105.2182605 -69.33988953 104.22845459 C-69.32440567 103.19915833 -69.30892181 102.16986206 -69.29296875 101.109375 C-69.28872391 100.04962463 -69.28447906 98.98987427 -69.28010559 97.89801025 C-69.2633203 94.51508113 -69.22566755 91.13274891 -69.1875 87.75 C-69.17245301 85.45573777 -69.15876463 83.1614662 -69.14648438 80.8671875 C-69.11341728 75.2445882 -69.06321903 69.62233675 -69 64 C-68.19233688 63.99413376 -67.38467377 63.98826752 -66.55253601 63.98222351 C-58.94501422 63.92434532 -51.33782177 63.85229728 -43.73059368 63.76428509 C-39.81952152 63.71953685 -35.90855459 63.68029089 -31.99731445 63.65356445 C-28.22347912 63.62757539 -24.45004781 63.5872051 -20.67646217 63.53681374 C-19.23600091 63.52011506 -17.79546972 63.50861947 -16.35492516 63.50238609 C-14.33896226 63.49277852 -12.32312559 63.46303898 -10.30737305 63.43237305 C-8.58528877 63.41571846 -8.58528877 63.41571846 -6.82841492 63.39872742 C-4.04132797 63.20029774 -4.04132797 63.20029774 -2.1328125 61.83850098 C-0.5220725 59.22434632 -0.59972029 57.21331592 -0.56762695 54.15161133 C-0.54783279 52.9505928 -0.52803864 51.74957428 -0.50764465 50.51216125 C-0.50125473 49.21521835 -0.49486481 47.91827545 -0.48828125 46.58203125 C-0.47143541 45.24108734 -0.45328529 43.90015924 -0.43388367 42.55924988 C-0.38636642 39.03297869 -0.35656867 35.50677156 -0.33044434 31.98028564 C-0.3006472 28.3806086 -0.25411406 24.78115232 -0.20898438 21.18164062 C-0.12293207 14.12122007 -0.05559556 7.06073136 0 0 Z " fill="#383838" transform="translate(200,396)"/>
<path d="M0 0 C0.8680908 1.91040052 1.71901783 3.82860737 2.5625 5.75 C3.03816406 6.81734375 3.51382812 7.8846875 4.00390625 8.984375 C5.00799277 12.02419773 5.30436445 13.13921999 4 16 C2.37446717 17.70680947 0.70884005 19.37660195 -1 21 C-2.15382333 23.30764665 -2.13047018 24.62537702 -2.14044189 27.19306946 C-2.14615204 28.07207916 -2.15186218 28.95108887 -2.15774536 29.85673523 C-2.15886322 30.823517 -2.15998108 31.79029877 -2.16113281 32.78637695 C-2.16609772 33.80276245 -2.17106262 34.81914795 -2.17617798 35.86633301 C-2.19082422 39.24032256 -2.19760587 42.61426509 -2.203125 45.98828125 C-2.20887463 48.32757062 -2.21463238 50.66685996 -2.22039795 53.00614929 C-2.23091509 57.91645528 -2.23675302 62.82674487 -2.24023438 67.73706055 C-2.24571915 74.03215756 -2.269744 80.32703828 -2.29820633 86.62206745 C-2.31682129 91.45617813 -2.32203772 96.29023661 -2.32357025 101.12438011 C-2.32660012 103.44523488 -2.33463984 105.76608866 -2.34775543 108.08690834 C-2.36479096 111.33325313 -2.36294151 114.57906823 -2.35644531 117.82543945 C-2.3656601 118.78614853 -2.37487488 119.7468576 -2.3843689 120.73667908 C-2.34659965 126.75537527 -1.57233044 130.27741661 2.671875 134.76953125 C6.07445669 136.5678756 9.48307828 136.57103157 13.25 136.6875 C13.99507813 136.72166016 14.74015625 136.75582031 15.5078125 136.79101562 C17.33802492 136.87314054 19.16898669 136.93825653 21 137 C19.28475047 143.01859746 16.39407289 148.38825785 13.5625 153.9375 C9.36161766 162.24766458 5.24425274 170.58852388 1.25 179 C-4.42731564 190.93651129 -4.42731564 190.93651129 -6.89916992 195.85546875 C-7.51836359 197.09749742 -8.12361783 198.34655533 -8.71606445 199.6015625 C-10.70548507 203.73867028 -12.96728554 207.45396364 -15.5703125 211.23828125 C-30.82318765 235.08236682 -27.79321419 262.67435227 -27 290 C-27.33 290 -27.66 290 -28 290 C-28.05306297 240.11775088 -27.97739582 190.23529616 -27.81609344 140.35330772 C-27.77589294 127.78314234 -27.74362971 115.21304569 -27.72900391 102.64282227 C-27.7160277 91.50254245 -27.68923648 80.36239937 -27.64538693 69.22219664 C-27.622818 63.37168745 -27.60708728 57.52134634 -27.60811615 51.67078972 C-27.60885695 46.22397749 -27.59114275 40.77754691 -27.55883217 35.33083344 C-27.55028781 33.33410188 -27.54861374 31.33732774 -27.55419731 29.34058571 C-27.56078503 26.62499574 -27.54304898 23.91064058 -27.51898193 21.19517517 C-27.52674235 20.4005051 -27.53450277 19.60583503 -27.54249835 18.78708404 C-27.45863981 13.47711239 -27.45863981 13.47711239 -25.13846207 11.06348515 C-22.54963441 9.7760273 -19.94809525 8.66649273 -17.25 7.625 C-12.67384261 5.78671455 -8.65926839 3.74034887 -4.62109375 0.91796875 C-3 0 -3 0 0 0 Z " fill="#6D6E70" transform="translate(316,222)"/>
<path d="M0 0 C15.02240075 -0.6362123 15.02240075 -0.6362123 20.55664062 4.10742188 C22.62229596 7.33167783 22.8136371 9.92481687 22.83129883 13.71459961 C22.84559685 15.40171303 22.84559685 15.40171303 22.86018372 17.12290955 C22.85927231 18.33338455 22.8583609 19.54385956 22.85742188 20.79101562 C22.861707 22.03867203 22.86599213 23.28632843 22.8704071 24.5717926 C22.87615058 27.21052127 22.87758581 29.84885879 22.87231445 32.48754883 C22.86652135 35.86137331 22.88345115 39.23464852 22.90665913 42.60838223 C22.92497271 45.83592245 22.92121048 49.06343281 22.91992188 52.29101562 C22.92913162 53.4994664 22.93834137 54.70791718 22.9478302 55.95298767 C22.94160141 57.08088211 22.93537262 58.20877655 22.92895508 59.37084961 C22.9295845 60.36028061 22.93021393 61.34971161 22.93086243 62.36912537 C22.32304547 66.81670979 19.98113963 70.2536727 16.55664062 73.10742188 C12.87526338 74.33454762 9.43635731 74.30807211 5.59960938 74.34570312 C4.81902664 74.35377487 4.03844391 74.36184662 3.23420715 74.37016296 C1.58251148 74.38398507 -0.06921252 74.3947156 -1.72094727 74.40258789 C-4.23639573 74.41978878 -6.75052514 74.46368794 -9.265625 74.5078125 C-10.87303724 74.51794129 -12.48046063 74.52645681 -14.08789062 74.53320312 C-15.20850639 74.55946526 -15.20850639 74.55946526 -16.35176086 74.58625793 C-21.53916951 74.5649015 -24.44329528 73.36814486 -28.44335938 70.10742188 C-30.84611068 66.83220179 -30.74204048 63.65437062 -30.75585938 59.66992188 C-30.78099609 58.00123047 -30.78099609 58.00123047 -30.80664062 56.29882812 C-30.41092645 52.82250039 -29.44703224 50.93582552 -27.44335938 48.10742188 C-27.93191406 47.57890625 -28.42046875 47.05039062 -28.92382812 46.50585938 C-30.8867058 43.40764115 -30.81107672 41.3767664 -30.75585938 37.73242188 C-30.75199219 36.6315625 -30.748125 35.53070313 -30.74414062 34.39648438 C-30.44335938 31.10742188 -30.44335938 31.10742188 -29.29882812 27.94335938 C-28.14525809 25.21798138 -28.14525809 25.21798138 -29.29101562 23.13085938 C-29.67128906 22.463125 -30.0515625 21.79539062 -30.44335938 21.10742188 C-31.05586884 16.1170816 -31.65121033 10.57700562 -29.39257812 5.95898438 C-27.17035075 3.27133475 -25.06817815 1.28292567 -21.54248047 0.90209961 C-20.77500488 0.86544189 -20.0075293 0.82878418 -19.21679688 0.79101562 C-18.35715332 0.74871826 -17.49750977 0.7064209 -16.61181641 0.6628418 C-12.80787377 0.50226635 -9.00411291 0.34356435 -5.19921875 0.20703125 C-3.46590425 0.14438133 -1.73277252 0.07618105 0 0 Z " fill="#FEE1B7" transform="translate(384.443359375,275.892578125)"/>
<path d="M0 0 C1.78177315 -0.0215413 3.56344158 -0.05559858 5.34472656 -0.10253906 C7.92113219 -0.16979127 10.49534831 -0.19704048 13.07250977 -0.21606445 C13.86131027 -0.24389511 14.65011078 -0.27172577 15.46281433 -0.30039978 C20.95281993 -0.28019288 23.70567541 1.15183543 27.68318176 4.91905212 C30.78436208 8.42315883 30.2502286 12.11027812 30.24438477 16.58081055 C30.00904551 19.28160868 29.53459055 20.90071088 28.31079102 23.2800293 C27.87766602 24.3112793 27.44454102 25.3425293 26.99829102 26.4050293 C27.97764025 28.0839137 28.98173021 29.74841169 29.99829102 31.4050293 C30.77215074 37.71055297 30.47026947 42.03924441 26.99829102 47.4050293 C27.66109485 49.83531002 28.19938822 51.6061265 29.99829102 53.4050293 C31.07720555 64.17876161 31.07720555 64.17876161 28.95141602 68.56518555 C26.58458962 71.39841597 24.49941895 73.26543967 20.7902832 73.61035156 C19.88439453 73.64700928 18.97850586 73.68366699 18.04516602 73.72143555 C16.53672119 73.78488159 16.53672119 73.78488159 14.99780273 73.84960938 C13.92546387 73.88852295 12.853125 73.92743652 11.74829102 73.9675293 C10.66177246 74.0070874 9.57525391 74.04664551 8.45581055 74.08740234 C6.29005979 74.16305683 4.12420456 74.23578359 1.95825195 74.30541992 C-0.52705754 74.3890562 -3.00986388 74.49423984 -5.49389648 74.6081543 C-15.04213744 74.89562822 -15.04213744 74.89562822 -18.75170898 72.5925293 C-21.32299886 70.09266414 -22.89274465 68.437707 -23.27586365 64.80680847 C-23.28650345 63.76567398 -23.29714325 62.72453949 -23.30810547 61.65185547 C-23.32409286 60.47020309 -23.34008026 59.28855072 -23.35655212 58.0710907 C-23.36191483 56.79297012 -23.36727753 55.51484955 -23.37280273 54.19799805 C-23.38634544 52.22806633 -23.38634544 52.22806633 -23.40016174 50.21833801 C-23.41664973 47.43671208 -23.42435117 44.65520646 -23.42724609 41.87353516 C-23.43262295 38.3190251 -23.470272 34.76565534 -23.51599026 31.21146679 C-23.55299837 27.81114969 -23.5542792 24.41100964 -23.56030273 21.01049805 C-23.57983505 19.73845016 -23.59936737 18.46640228 -23.61949158 17.1558075 C-23.56924769 7.30904606 -23.56924769 7.30904606 -20.59179688 3.6171875 C-14.87012741 -1.26961117 -7.20378503 0.0654589 0 0 Z " fill="#FEE1B7" transform="translate(79.001708984375,369.594970703125)"/>
<path d="M0 0 C19.14 0 38.28 0 58 0 C58 14.92928253 58 14.92928253 55.2890625 22.18359375 C55.00511627 22.99493271 54.72117004 23.80627167 54.42861938 24.64219666 C53.51251108 27.24759798 52.5691662 29.8421517 51.625 32.4375 C50.98321752 34.24680304 50.3435904 36.05687197 49.70605469 37.86767578 C48.741267 40.60612096 47.77479304 43.34385182 46.80029297 46.07885742 C44.76955581 51.77966984 42.80463911 57.49730434 40.9140625 63.24609375 C40.68292755 63.94860764 40.4517926 64.65112152 40.21365356 65.37492371 C39.14475083 68.63171641 38.08229607 71.89054789 37.02197266 75.15014648 C36.64862793 76.28395752 36.2752832 77.41776855 35.890625 78.5859375 C35.57125977 79.5661084 35.25189453 80.5462793 34.92285156 81.55615234 C34 84 34 84 32 87 C28.875 87.1875 28.875 87.1875 26 87 C22.04186087 79.72706359 19.43761668 72.05804959 16.796875 64.23828125 C16.55782692 63.53369467 16.31877884 62.82910809 16.07248688 62.10317039 C14.80797191 58.37510432 13.55046031 54.64476361 12.29882812 50.91235352 C11.01615558 47.09182318 9.70996739 43.27978538 8.39808273 39.4692049 C7.38275768 36.50588375 6.38525478 33.53677482 5.39225006 30.56590843 C4.91879059 29.15933074 4.43890471 27.75489686 3.95204926 26.35289955 C3.26775799 24.37691842 2.60946948 22.39384345 1.95605469 20.4074707 C1.57729187 19.28798538 1.19852905 18.16850006 0.80828857 17.01509094 C0 13 0 13 0 0 Z " fill="#FD3845" transform="translate(231,282)"/>
<path d="M0 0 C-3.64200921 1.9339677 -7.0110179 2.67569032 -11.0625 3.5 C-32.83658172 8.55356895 -51.09691349 22.75895216 -63.15234375 41.3125 C-72.79250791 57.06512728 -76.21608085 73.29946911 -76.4140625 91.64453125 C-76.43342865 92.78033127 -76.4527948 93.91613129 -76.4727478 95.08634949 C-76.53182347 98.66166014 -76.57863712 102.23700427 -76.625 105.8125 C-76.66324624 108.25847644 -76.70230166 110.70444037 -76.7421875 113.15039062 C-76.83746433 119.10014813 -76.92271518 125.04998301 -77 131 C-77.89638184 131.12189697 -78.79276367 131.24379395 -79.71630859 131.36938477 C-80.89016113 131.53752686 -82.06401367 131.70566895 -83.2734375 131.87890625 C-84.43794434 132.04205322 -85.60245117 132.2052002 -86.80224609 132.37329102 C-92.26125975 133.443171 -95.161465 136.10599484 -99 140 C-99.07011639 132.17531825 -99.12311925 124.3507128 -99.15543652 116.52579403 C-99.17096253 112.8906981 -99.19195512 109.25582015 -99.22631836 105.62084961 C-99.25938674 102.10002628 -99.27695062 98.57940995 -99.28463173 95.05844307 C-99.29271293 93.08966863 -99.31605209 91.1209752 -99.33988953 89.15232849 C-99.34451001 63.86423141 -89.82615198 41.85737117 -72 24 C-71.31550781 23.30390625 -70.63101563 22.6078125 -69.92578125 21.890625 C-50.3580703 3.22715208 -25.88173051 -0.65222764 0 0 Z " fill="#CF7A00" transform="translate(247,0)"/>
<path d="M0 0 C0.74617584 0.00424484 1.49235168 0.00848969 2.26113892 0.01286316 C4.62499348 0.02954493 6.98796926 0.06717536 9.3515625 0.10546875 C10.9622272 0.12052926 12.57290537 0.13421527 14.18359375 0.14648438 C18.11491765 0.17941371 22.04559151 0.23112113 25.9765625 0.29296875 C25.9765625 0.62296875 25.9765625 0.95296875 25.9765625 1.29296875 C24.95175781 1.31875 23.92695313 1.34453125 22.87109375 1.37109375 C21.51037551 1.42739933 20.14970007 1.48474612 18.7890625 1.54296875 C17.77875977 1.56423828 17.77875977 1.56423828 16.74804688 1.5859375 C11.91920061 1.82149098 9.38328594 2.87982963 5.9765625 6.29296875 C4.81359509 8.61890357 4.84599023 9.97162665 4.83612061 12.56196594 C4.83041046 13.45780396 4.82470032 14.35364197 4.81881714 15.27662659 C4.81769928 16.26210983 4.81658142 17.24759308 4.81542969 18.26293945 C4.81046478 19.29883209 4.80549988 20.33472473 4.80038452 21.40200806 C4.78573763 24.84092871 4.77895653 28.27980323 4.7734375 31.71875 C4.76768794 34.10287986 4.76193019 36.4870097 4.75616455 38.87113953 C4.74564724 43.87560238 4.73980941 48.88004913 4.73632812 53.88452148 C4.73084318 60.30068502 4.70681802 66.71663637 4.67835617 73.13273335 C4.65974232 78.05949019 4.65452484 82.98619581 4.65299225 87.91298485 C4.64996215 90.27849678 4.64192167 92.64400773 4.62880707 95.00948524 C4.61177381 98.31809295 4.61362045 101.62618083 4.62011719 104.93481445 C4.6109024 105.91422501 4.60168762 106.89363556 4.5921936 107.90272522 C4.62262363 112.84383569 4.7050995 116.30932466 7.9765625 120.29296875 C10.04611097 122.07641053 10.04611097 122.07641053 11.9765625 123.29296875 C8.45636904 123.46859565 4.93731315 123.57425341 1.4140625 123.66796875 C0.42341797 123.71824219 -0.56722656 123.76851563 -1.58789062 123.8203125 C-6.71060975 123.9224265 -10.12894311 123.80164524 -14.17578125 120.45703125 C-16.73116872 117.97900978 -17.91143371 115.95541107 -18.15765858 112.30076122 C-18.16193206 111.53701341 -18.16620554 110.77326559 -18.17060852 109.9863739 C-18.17776382 109.10743469 -18.18491913 108.22849548 -18.19229126 107.32292175 C-18.19498016 106.3613063 -18.19766907 105.39969086 -18.20043945 104.40893555 C-18.20701065 103.39401031 -18.21358185 102.37908508 -18.22035217 101.33340454 C-18.24008746 97.9696648 -18.25174764 94.60596969 -18.26171875 91.2421875 C-18.26579428 90.09400858 -18.2698698 88.94582966 -18.27406883 87.76285744 C-18.29492943 81.68704025 -18.30923185 75.61124565 -18.31860352 69.53540039 C-18.3296746 63.25718078 -18.36408298 56.97931495 -18.40377522 50.70122051 C-18.42990598 45.87564937 -18.43829217 41.05016303 -18.44188499 36.22452736 C-18.44675921 33.91006897 -18.45839681 31.59561458 -18.47692299 29.2812252 C-18.50124085 26.04225896 -18.50036262 22.80421492 -18.4934082 19.56518555 C-18.50621826 18.60964279 -18.51902832 17.65410004 -18.53222656 16.66960144 C-18.48822314 11.04609839 -17.85230202 7.7144953 -14.0234375 3.29296875 C-9.45822243 0.20907635 -5.36339123 -0.11651638 0 0 Z " fill="#A7A9AB" transform="translate(331.0234375,235.70703125)"/>
<path d="M0 0 C2 2 2 2 3.125 4.8125 C5.62833459 9.06816881 8.52662614 10.98786693 13 13 C16.34484275 13.67869778 19.59370091 13.78895415 23 13.8125 C23.87011719 13.83763672 24.74023438 13.86277344 25.63671875 13.88867188 C27.75733699 13.94693062 29.87871207 13.97647765 32 14 C32.32871094 14.93199219 32.65742188 15.86398438 32.99609375 16.82421875 C38.20667805 31.01514485 46.13650754 44.42433836 59 53 C56.95022906 59.48408915 54.53890107 65.74519931 51.875 72 C51.51535156 72.85722656 51.15570313 73.71445313 50.78515625 74.59765625 C48.13188959 80.86811041 48.13188959 80.86811041 47 82 C43.76938241 82.49176242 40.50882881 82.65653103 37.25 82.875 C36.3425 82.96007812 35.435 83.04515625 34.5 83.1328125 C27.74920718 83.56707403 27.74920718 83.56707403 24.02734375 80.75 C23.35832031 79.8425 22.68929687 78.935 22 78 C21.50113281 77.34257812 21.00226563 76.68515625 20.48828125 76.0078125 C15.26035272 67.63617944 14.18175364 59.8069233 15 50 C15.60301584 47.97989695 16.25294883 45.97138504 17 44 C16.175 43.95875 15.35 43.9175 14.5 43.875 C8.02734638 42.25683659 2.56310911 37.59917146 -1 32 C-4.960878 24.31204583 -6.54636015 17.39492466 -4.12890625 8.9609375 C-1.49588323 1.49588323 -1.49588323 1.49588323 0 0 Z " fill="#CF7A00" transform="translate(146,168)"/>
<path d="M0 0 C4.09341315 3.76089499 5.6489241 8.19975178 6.328125 13.6171875 C6.67834646 22.44777154 4.30410755 29.49909112 -1.25 36.375 C-4.62923937 39.97272468 -8.29815717 42.44634759 -13 44 C-13.99 44 -14.98 44 -16 44 C-15.51080078 45.00353516 -15.51080078 45.00353516 -15.01171875 46.02734375 C-13.7705159 49.67427567 -13.77048121 52.71587055 -13.8125 56.5625 C-13.81894531 57.86316406 -13.82539063 59.16382813 -13.83203125 60.50390625 C-14 64 -14 64 -15 68 C-27.21 68.33 -39.42 68.66 -52 69 C-53.98 63.72 -55.96 58.44 -58 53 C-56.164375 51.39125 -54.32875 49.7825 -52.4375 48.125 C-41.82325332 38.50864955 -36.20911952 27.23067447 -31 14 C-29.081875 13.97873047 -29.081875 13.97873047 -27.125 13.95703125 C-25.41663204 13.91009806 -23.70829983 13.86185088 -22 13.8125 C-21.16082031 13.80669922 -20.32164062 13.80089844 -19.45703125 13.79492188 C-13.18256179 13.57604503 -8.81583372 12.10958047 -4 8 C-2.29661666 5.89157946 -2.29661666 5.89157946 -1.5 3.6875 C-1.005 2.470625 -0.51 1.25375 0 0 Z " fill="#F29600" transform="translate(373,168)"/>
<path d="M0 0 C13.86252035 20.79378052 12.2206901 46.71519747 11.91254544 70.49837661 C11.85543681 75.66712447 11.85093143 80.8359444 11.84031677 86.00495911 C11.8125878 95.74743908 11.73907204 105.48898617 11.64817137 115.23105937 C11.54680325 126.34137755 11.49789874 137.4517455 11.45291245 148.56241262 C11.35939403 171.37545455 11.2015788 194.1876745 11 217 C7.37 217 3.74 217 0 217 C0 145.39 0 73.78 0 0 Z " fill="#B2794E" transform="translate(231,295)"/>
<path d="M0 0 C0.73605469 0.00451172 1.47210938 0.00902344 2.23046875 0.01367188 C4.02868158 0.02534858 5.82685197 0.04327989 7.625 0.0625 C5.58642282 6.48252383 3.21603923 12.69943797 0.61328125 18.91015625 C0.05364937 20.25611122 0.05364937 20.25611122 -0.51728821 21.6292572 C-1.69606941 24.46241341 -2.87920554 27.29372627 -4.0625 30.125 C-4.86812851 32.05912403 -5.67346981 33.99336773 -6.47851562 35.92773438 C-8.44016416 40.64094347 -10.40770613 45.35162874 -12.375 50.0625 C-26.235 50.0625 -40.095 50.0625 -54.375 50.0625 C-51.57383301 33.25549808 -46.58376478 21.05600172 -33.375 10.0625 C-22.86188683 3.18854139 -12.51720586 -0.1471281 0 0 Z " fill="#282828" transform="translate(185.375,249.9375)"/>
<path d="M0 0 C1.26092972 0.00212242 1.26092972 0.00212242 2.54733276 0.00428772 C5.23732025 0.00989388 7.92722509 0.02244739 10.6171875 0.03515625 C12.43880088 0.04017046 14.26041557 0.0447335 16.08203125 0.04882812 C20.55211527 0.05986531 25.02213736 0.07713405 29.4921875 0.09765625 C29.4921875 0.42765625 29.4921875 0.75765625 29.4921875 1.09765625 C27.84669922 1.11892578 27.84669922 1.11892578 26.16796875 1.140625 C24.71350052 1.18754333 23.25907473 1.23579063 21.8046875 1.28515625 C21.08345703 1.29095703 20.36222656 1.29675781 19.61914062 1.30273438 C15.44874555 1.47412047 13.88522242 1.77523262 10.53515625 4.5234375 C7.66783363 8.13637365 7.36285851 9.84312884 7.33105469 14.38598633 C7.32144714 15.49085892 7.3118396 16.59573151 7.30194092 17.73408508 C7.29769104 18.93300888 7.29344116 20.13193268 7.2890625 21.3671875 C7.28051239 23.20962288 7.28051239 23.20962288 7.27178955 25.08927917 C7.2623288 27.69273006 7.25580132 30.29619297 7.25195312 32.8996582 C7.24539955 36.88313773 7.21124081 40.86625061 7.1796875 44.84960938 C7.17315711 47.37629901 7.16790678 49.90299235 7.1640625 52.4296875 C7.1517157 53.6225386 7.1393689 54.81538971 7.12664795 56.04438782 C7.12964905 57.15871689 7.13265015 58.27304596 7.13574219 59.42114258 C7.13209656 60.39884109 7.12845093 61.37653961 7.12469482 62.38386536 C7.74132987 66.93747604 10.14393576 70.06828563 13.4921875 73.09765625 C6.09984046 74.50572235 -4.65908006 76.55396588 -11.2578125 72.28515625 C-13.82910237 69.7852911 -15.39884816 68.13033396 -15.78196716 64.49943542 C-15.79260696 63.45830093 -15.80324677 62.41716644 -15.81420898 61.34448242 C-15.83019638 60.16283005 -15.84618378 58.98117767 -15.86265564 57.76371765 C-15.86801834 56.48559708 -15.87338104 55.2074765 -15.87890625 53.890625 C-15.89244896 51.92069328 -15.89244896 51.92069328 -15.90626526 49.91096497 C-15.92275325 47.12933904 -15.93045469 44.34783341 -15.93334961 41.56616211 C-15.93872647 38.01165206 -15.97637552 34.45828229 -16.02209377 30.90409374 C-16.05910189 27.50377664 -16.06038272 24.1036366 -16.06640625 20.703125 C-16.08593857 19.43107712 -16.10547089 18.15902924 -16.12559509 16.84843445 C-16.0753512 7.00167301 -16.0753512 7.00167301 -13.09790039 3.30981445 C-8.78907772 -0.37029132 -5.45636126 -0.03430684 0 0 Z " fill="#FEC988" transform="translate(71.5078125,369.90234375)"/>
<path d="M0 0 C1.33478394 0.01861084 1.33478394 0.01861084 2.6965332 0.03759766 C5.86078755 0.09025102 9.02381012 0.17043843 12.1875 0.25 C14.21512999 0.29022484 16.24276038 0.33043161 18.270401 0.37011719 C21.10200129 0.42859154 23.93324166 0.49818658 26.76449585 0.57141113 C28.17102829 0.6071251 29.57762889 0.64024868 30.98428345 0.67077637 C32.97284367 0.71597425 34.9610586 0.77565626 36.94921875 0.8359375 C38.10381592 0.8673584 39.25841309 0.8987793 40.44799805 0.93115234 C43.1875 1.25 43.1875 1.25 45.1875 3.25 C46.57909298 10.86714051 44.29758877 16.90936719 40.1875 23.25 C34.77416321 29.66053041 27.98936216 34.70265451 19.49609375 35.50390625 C10.6256127 35.85510026 3.45154556 34.03767211 -3.625 28.5625 C-8.8875565 23.67317445 -12.29633779 17.13238685 -13.05078125 9.99609375 C-13.07527344 9.23425781 -13.09976563 8.47242188 -13.125 7.6875 C-13.16238281 6.92308594 -13.19976562 6.15867188 -13.23828125 5.37109375 C-12.8125 3.25 -12.8125 3.25 -11.34375 1.48828125 C-7.62127895 -0.3327424 -4.04929824 -0.10249437 0 0 Z " fill="#FFA05F" transform="translate(243.8125,180.75)"/>
<path d="M0 0 C0.98613281 0.00322266 1.97226562 0.00644531 2.98828125 0.00976562 C4.02082031 0.01814453 5.05335938 0.02652344 6.1171875 0.03515625 C7.67759766 0.04192383 7.67759766 0.04192383 9.26953125 0.04882812 C11.84380712 0.06063673 14.41796896 0.0771055 16.9921875 0.09765625 C16.56558838 0.53190918 16.13898926 0.96616211 15.69946289 1.41357422 C12.08063373 5.30497379 12.08063373 5.30497379 10.30078125 10.23046875 C10.34332031 11.21789062 10.38585937 12.2053125 10.4296875 13.22265625 C10.45869141 14.71152344 10.45869141 14.71152344 10.48828125 16.23046875 C11.04989607 19.42601352 12.28928776 21.37207842 13.9921875 24.09765625 C13.2421875 26.28515625 13.2421875 26.28515625 11.9921875 28.09765625 C9.76033481 32.56136164 10.18075907 39.53127796 11.6640625 44.22265625 C12.52821226 45.99629085 12.52821226 45.99629085 13.9921875 48.09765625 C13.50492187 48.62488281 13.01765625 49.15210938 12.515625 49.6953125 C10.545881 52.80144727 10.59182914 54.87932531 10.6171875 58.53515625 C10.60945313 59.64761719 10.60171875 60.76007813 10.59375 61.90625 C11.1501127 66.36260616 12.55234019 68.97582942 16.10009766 71.73999023 C17.03668213 72.41203491 17.03668213 72.41203491 17.9921875 73.09765625 C14.45080132 73.21447437 10.9099151 73.28511125 7.3671875 73.34765625 C6.36816406 73.38117188 5.36914062 73.4146875 4.33984375 73.44921875 C-1.59975252 73.5278889 -5.43518728 73.32992425 -10.0078125 69.09765625 C-12.41056381 65.82243617 -12.3064936 62.644605 -12.3203125 58.66015625 C-12.34544922 56.99146484 -12.34544922 56.99146484 -12.37109375 55.2890625 C-11.97537958 51.81273477 -11.01148536 49.9260599 -9.0078125 47.09765625 C-9.49636719 46.56914062 -9.98492187 46.040625 -10.48828125 45.49609375 C-12.45115892 42.39787552 -12.37552984 40.36700078 -12.3203125 36.72265625 C-12.31644531 35.62179687 -12.31257813 34.5209375 -12.30859375 33.38671875 C-12.0078125 30.09765625 -12.0078125 30.09765625 -10.86328125 26.93359375 C-9.70971121 24.20821575 -9.70971121 24.20821575 -10.85546875 22.12109375 C-11.23574219 21.45335937 -11.61601562 20.785625 -12.0078125 20.09765625 C-12.62032196 15.10731598 -13.21566346 9.56723999 -10.95703125 4.94921875 C-7.54169324 0.81857396 -5.14283234 -0.02955651 0 0 Z " fill="#FEC987" transform="translate(366.0078125,276.90234375)"/>
<path d="M0 0 C0.33 0 0.66 0 1 0 C1 31.35 1 62.7 1 95 C-5.93 95 -12.86 95 -20 95 C-22.37862455 59.203145 -21.70775615 31.2438289 -1 1 C-0.67 0.67 -0.34 0.34 0 0 Z " fill="#282828" transform="translate(309,417)"/>
<path d="M0 0 C0.98291016 0.00966797 1.96582031 0.01933594 2.97851562 0.02929688 C4.00267578 0.05443359 5.02683594 0.07957031 6.08203125 0.10546875 C7.11779297 0.11900391 8.15355469 0.13253906 9.22070312 0.14648438 C11.77916824 0.18185486 14.33658905 0.23121331 16.89453125 0.29296875 C15.90453125 1.77796875 15.90453125 1.77796875 14.89453125 3.29296875 C14.56447489 6.30614462 14.56447489 6.30614462 14.57568359 9.78393555 C14.56563797 10.43786285 14.55559235 11.09179016 14.54524231 11.76553345 C14.51438111 13.92440929 14.49736744 16.08316096 14.48046875 18.2421875 C14.46175942 19.74006725 14.44218618 21.23793643 14.42178345 22.73579407 C14.37043124 26.67633845 14.3308222 30.61691702 14.29364014 34.55761719 C14.25361976 38.57951332 14.20251847 42.60126688 14.15234375 46.62304688 C14.05554785 54.5129307 13.97217911 62.40287322 13.89453125 70.29296875 C6.63453125 70.29296875 -0.62546875 70.29296875 -8.10546875 70.29296875 C-8.17321125 61.60907541 -8.22826538 52.9253572 -8.26090527 44.24125957 C-8.27656977 40.20899842 -8.29782205 36.17692722 -8.33178711 32.14477539 C-8.36435304 28.25442955 -8.38231586 24.36426655 -8.39010048 20.47379494 C-8.39564901 18.98859592 -8.40648386 17.50340705 -8.42265892 16.01828575 C-8.44439726 13.93994803 -8.44743731 11.86236843 -8.44604492 9.78393555 C-8.45270676 8.60034958 -8.45936859 7.41676361 -8.4662323 6.1973114 C-8.10546875 3.29296875 -8.10546875 3.29296875 -6.73168945 1.40856934 C-4.43325133 -0.16817785 -2.76774656 -0.04799561 0 0 Z " fill="#8B8D8F" transform="translate(86.10546875,299.70703125)"/>
<path d="M0 0 C6.85345997 -2.07986983 13.36142163 -3.33667373 20 0 C27.3696627 7.84986679 31.93708993 18.18131839 36.77783203 27.70166016 C39.99973407 34.00450933 43.61032671 40.05581609 47.25 46.125 C47.83370361 47.14134521 48.41740723 48.15769043 49.01879883 49.20483398 C53.15937043 56.24902718 57.78204606 62.68211556 66 65 C67.9924325 65.37593066 69.9918674 65.71979545 72 66 C71 69 71 69 68.3125 70.6875 C61.950634 73.15863803 54.0985386 73.1034527 47.5625 71.34375 C38.60310815 67.28402557 33.56823184 59.2082705 29.0625 50.875 C28.02131314 48.99770854 26.9783462 47.12140323 25.93359375 45.24609375 C25.43327637 44.34358887 24.93295898 43.44108398 24.41748047 42.51123047 C22.57948564 39.25501021 20.62152137 36.09897817 18.625 32.9375 C16.1990509 29.06195914 14.04628893 25.1814296 12.0625 21.0625 C9.41072818 15.56797002 6.25780636 10.53223764 2.89477539 5.45532227 C0 1.08363334 0 1.08363334 0 0 Z " fill="#282828" transform="translate(374,350)"/>
<path d="M0 0 C1.24040039 0.03383789 1.24040039 0.03383789 2.50585938 0.06835938 C4.52553577 0.12673153 6.54426721 0.21639368 8.5625 0.3125 C8.58755615 1.37049805 8.6126123 2.42849609 8.63842773 3.51855469 C8.73365654 7.49960408 8.8335796 11.48052497 8.93481445 15.46142578 C8.97773229 17.17395999 9.01943082 18.88652525 9.05981445 20.59912109 C9.28711128 30.20171051 9.58585621 39.74977922 10.5625 49.3125 C7.35447767 49.42948258 4.14700975 49.50000607 0.9375 49.5625 C0.03386719 49.59601563 -0.86976563 49.62953125 -1.80078125 49.6640625 C-7.71938231 49.75046544 -10.90236688 49.19255833 -15.4375 45.3125 C-21.0324807 39.11805709 -20.80297237 32.35496414 -20.8125 24.4375 C-20.83699219 23.37402344 -20.86148438 22.31054688 -20.88671875 21.21484375 C-20.91111739 14.66787423 -20.54576241 10.51098092 -16.4375 5.3125 C-11.29035606 0.35951357 -6.96881493 -0.36500642 0 0 Z " fill="#FEE1B7" transform="translate(166.4375,131.6875)"/>
<path d="M0 0 C4.29 0 8.58 0 13 0 C16.16437837 9.13026241 19.3122773 18.26599198 22.43944645 27.4090662 C23.89212859 31.6546776 25.35035277 35.89821067 26.8215332 40.13745117 C28.2418496 44.2307961 29.64722531 48.32899459 31.04250908 52.43093681 C31.57666584 53.99279069 32.11612612 55.5528414 32.66102791 57.11097908 C33.42506077 59.29865426 34.16975355 61.49205999 34.91040039 63.68774414 C35.33897842 64.93350723 35.76755646 66.17927032 36.2091217 67.46278381 C37.43578157 72.94904022 36.60411073 77.53437704 33.9375 82.4375 C33.57527344 83.11683594 33.21304688 83.79617188 32.83984375 84.49609375 C32.56269531 84.99238281 32.28554688 85.48867188 32 86 C30.02 86 28.04 86 26 86 C22.03400361 78.71782936 19.43606729 71.03547003 16.796875 63.203125 C16.55782692 62.49729027 16.31877884 61.79145554 16.07248688 61.06423187 C14.80812359 57.33078166 13.55053206 53.59513464 12.29882812 49.85742188 C11.01511575 46.02821118 9.70929872 42.20693809 8.39808273 38.38707352 C7.38377486 35.4191648 6.38590979 32.44590914 5.39225006 29.47103119 C4.9182513 28.06102281 4.43833718 26.65298687 3.95204926 25.24716949 C0.9756598 16.62029904 -0.5324371 9.19388879 0 0 Z " fill="#E52A37" transform="translate(231,283)"/>
<path d="M0 0 C7.26 0 14.52 0 22 0 C22.03738281 3.41859375 22.07476562 6.8371875 22.11328125 10.359375 C22.15948765 13.66901055 22.21072464 16.97853261 22.26245117 20.28808594 C22.29571251 22.58879708 22.32374063 24.88959006 22.34643555 27.19042969 C22.37995873 30.49709968 22.4322746 33.80301888 22.48828125 37.109375 C22.49467117 38.13867126 22.5010611 39.16796753 22.50764465 40.22845459 C22.53733589 41.66949554 22.53733589 41.66949554 22.56762695 43.13964844 C22.57873001 43.98348083 22.58983307 44.82731323 22.60127258 45.69671631 C23.08222454 48.47497724 24.17109181 49.8938938 26 52 C22.22942453 52.11597653 18.45930607 52.18717396 14.6875 52.25 C13.61564453 52.28351562 12.54378906 52.31703125 11.43945312 52.3515625 C10.41142578 52.36445312 9.38339844 52.37734375 8.32421875 52.390625 C7.37635498 52.41157227 6.42849121 52.43251953 5.4519043 52.45410156 C3 52 3 52 1.36804199 50.27539062 C-0.2198902 47.63426847 -0.36471816 46.19763375 -0.34057617 43.13964844 C-0.34034958 42.17895447 -0.34012299 41.2182605 -0.33988953 40.22845459 C-0.32440567 39.19915833 -0.30892181 38.16986206 -0.29296875 37.109375 C-0.28872391 36.04962463 -0.28447906 34.98987427 -0.28010559 33.89801025 C-0.2633203 30.51508113 -0.22566755 27.13274891 -0.1875 23.75 C-0.17245301 21.45573777 -0.15876463 19.1614662 -0.14648438 16.8671875 C-0.11596985 11.244377 -0.05724627 5.62285621 0 0 Z " fill="#282828" transform="translate(131,460)"/>
<path d="M0 0 C6.6 0.33 13.2 0.66 20 1 C20.804375 3.206875 21.60875 5.41375 22.4375 7.6875 C27.36250959 20.37224693 35.54849997 32.36566665 47 40 C44.37589493 48.64411081 40.68616238 56.76925385 37 65 C28.54084258 61.81352685 24.76060103 57.00064123 21 49 C19.80833828 45.42501484 19.8674928 42.51861586 19.875 38.75 C19.87113281 36.82414062 19.87113281 36.82414062 19.8671875 34.859375 C19.995403 31.13358355 20.40081442 27.67120054 21 24 C20.13117188 23.57589844 19.26234375 23.15179688 18.3671875 22.71484375 C10.61586811 18.76982102 4.75267338 15.25510373 0.625 7.375 C0 5 0 5 0 0 Z " fill="#F29500" transform="translate(158,181)"/>
<path d="M0 0 C-6.27 15.18 -12.54 30.36 -19 46 C-25.27 46 -31.54 46 -38 46 C-38 32.38894746 -33.03444108 21.24691617 -23.75 11.25 C-17.72798958 5.59584994 -8.49027702 -2.12256925 0 0 Z " fill="#383838" transform="translate(192,254)"/>
<path d="M0 0 C4.31189662 2.22579545 6.88529999 4.93984747 8.87109375 9.30859375 C9.62880084 14.47974935 9.67605603 19.49067168 7.30859375 24.24609375 C3.76210825 28.7019345 0.77128381 30.85583948 -4.78125 31.72265625 C-10.39430515 32.01524349 -14.43130573 31.51245751 -18.7578125 27.77734375 C-23.17435894 23.04622847 -23.72552867 18.25287829 -23.546875 12 C-22.72728957 6.72248264 -19.81947942 3.8499987 -16.00390625 0.37109375 C-10.86667911 -1.52744671 -5.2397316 -1.701711 0 0 Z " fill="#6D6E71" transform="translate(146.12890625,336.69140625)"/>
<path d="M0 0 C0.91120605 0.01047363 1.82241211 0.02094727 2.76123047 0.03173828 C3.74736328 0.03818359 4.73349609 0.04462891 5.74951172 0.05126953 C7.29832031 0.07640625 7.29832031 0.07640625 8.87841797 0.10205078 C9.91869141 0.11107422 10.95896484 0.12009766 12.03076172 0.12939453 C14.60520889 0.15301331 17.17920009 0.18594929 19.75341797 0.22705078 C18.76341797 1.71205078 18.76341797 1.71205078 17.75341797 3.22705078 C16.89338297 10.25066994 19.27282856 16.46684896 23.10888672 22.28173828 C26.44828461 26.45374744 29.99386218 28.84727289 34.75341797 31.22705078 C34.42341797 31.88705078 34.09341797 32.54705078 33.75341797 33.22705078 C26.19137996 35.74773012 18.15737395 34.7713182 11.00341797 31.48095703 C3.57893163 27.34335266 -1.30568925 21.42814219 -3.86767578 13.24267578 C-4.28979509 10.99717513 -4.414981 8.88653459 -4.43408203 6.60205078 C-4.44826172 5.82603516 -4.46244141 5.05001953 -4.47705078 4.25048828 C-4.12778373 1.18404199 -3.02161978 0.30537996 0 0 Z " fill="#FF822D" transform="translate(235.24658203125,181.77294921875)"/>
<path d="M0 0 C3.28200929 0.95751519 4.30235514 2.71599384 6.03515625 5.59375 C6.42578125 9.14453125 6.42578125 9.14453125 6.28515625 12.90625 C6.2490625 14.16050781 6.21296875 15.41476563 6.17578125 16.70703125 C6.10617187 18.13595703 6.10617187 18.13595703 6.03515625 19.59375 C7.86046875 19.47 7.86046875 19.47 9.72265625 19.34375 C12.90889018 19.36072816 14.09799667 19.62647938 17.03515625 21.15625 C19.03515625 23.59375 19.03515625 23.59375 19.59765625 27.09375 C18.93769895 31.20015096 18.32381514 32.14181913 15.03515625 34.59375 C11.57421875 35.08984375 11.57421875 35.08984375 7.66015625 35.03125 C5.73042969 35.02931641 5.73042969 35.02931641 3.76171875 35.02734375 C-1.16004535 34.45468566 -4.3871126 33.26468046 -7.81640625 29.6328125 C-9.63751948 24.81367612 -9.3967043 20.07356371 -9.33984375 14.96875 C-9.35144531 13.91945312 -9.36304688 12.87015625 -9.375 11.7890625 C-9.37113281 10.78359375 -9.36726562 9.778125 -9.36328125 8.7421875 C-9.35989746 7.82614746 -9.35651367 6.91010742 -9.35302734 5.96630859 C-8.96484375 3.59375 -8.96484375 3.59375 -7.68603516 1.80322266 C-5.27345527 0.10791475 -2.88199976 0.13327167 0 0 Z " fill="#74583D" transform="translate(254.96484375,129.40625)"/>
<path d="M0 0 C2.75903981 2.0435809 4.70358566 3.66087 5.46728516 7.11108398 C5.63736141 9.59209058 5.63291847 12.01441823 5.5625 14.5 C5.57345703 15.34175781 5.58441406 16.18351562 5.59570312 17.05078125 C5.5473451 21.14509414 5.30974789 23.47842452 3.18359375 27.05859375 C1 29 1 29 -2.5 29.5625 C-6 29 -6 29 -8.18359375 27.62109375 C-11.04498005 23.49208255 -10.6190529 19.40346881 -10.5625 14.5 C-10.59827148 13.07494141 -10.59827148 13.07494141 -10.63476562 11.62109375 C-10.62012885 4.68326184 -10.62012885 4.68326184 -7.62109375 1.37890625 C-4.62997072 -0.19466518 -3.30751558 -0.74419101 0 0 Z " fill="#75593F" transform="translate(306,123)"/>
<path d="M0 0 C3.33175928 0.98718794 4.35200301 1.33456731 6.375 4 C7.00695306 7.44843993 6.83839012 10.93762631 6.8125 14.4375 C6.83248047 15.39205078 6.85246094 16.34660156 6.87304688 17.33007812 C6.86818045 24.28419597 6.86818045 24.28419597 4.56640625 27.625 C1.29922927 29.6749934 -0.85698352 29.60557408 -4.625 29 C-7.87580629 26.10974826 -8.88781501 23.75571773 -9.19140625 19.53125 C-9.21121295 17.85428313 -9.20932849 16.17694178 -9.1875 14.5 C-9.21134766 13.65824219 -9.23519531 12.81648437 -9.25976562 11.94921875 C-9.24929327 7.51591997 -9.03962709 5.55564239 -6.31640625 1.90625 C-3.625 0 -3.625 0 0 0 Z " fill="#765A3F" transform="translate(217.625,123)"/>
<path d="M0 0 C7.26 0 14.52 0 22 0 C22.1953125 3.28776042 22.390625 6.57552083 22.5859375 9.86328125 C22.78613747 13.15699887 22.78613747 13.15699887 25 16 C21.39598519 16.08701039 17.79223988 16.14039388 14.1875 16.1875 C13.16333984 16.21263672 12.13917969 16.23777344 11.08398438 16.26367188 C9.60961914 16.27817383 9.60961914 16.27817383 8.10546875 16.29296875 C7.19949951 16.3086792 6.29353027 16.32438965 5.36010742 16.34057617 C3 16 3 16 1.19921875 14.67773438 C-1.53484371 10.85271866 -0.13009668 4.37992148 0 0 Z " fill="#8B8D8F" transform="translate(78,444)"/>
<path d="M0 0 C3.8587974 0.63000774 5.33709711 1.71111019 8.0625 4.5 C9.29503849 10.58293994 9.27359449 16.57649699 5.9375 21.875 C2.53281433 23.79938755 0.89989886 24.31646784 -2.9375 23.5 C-5.7863514 20.72353321 -6.85155381 19.05169871 -7.46875 15.08984375 C-7.4584375 13.88457031 -7.448125 12.67929687 -7.4375 11.4375 C-7.4478125 10.22964844 -7.458125 9.02179688 -7.46875 7.77734375 C-6.68992053 2.97265314 -4.81970527 0.82037537 0 0 Z " fill="#6E6F72" transform="translate(346.9375,252.5)"/>
</svg>
